<svg xmlns="http://www.w3.org/2000/svg" viewBox="0 0 202.57 166.21"><defs><style>.cls-1{opacity:0.02;}</style></defs><g id="图层_2" data-name="图层 2"><g id="图层_1-2" data-name="图层 1"><path class="cls-1" d="M202.57,55.83,146.74,0,101.29,45.46,55.83,0,0,55.83,27.27,83.1,0,110.38l55.83,55.83,45.46-45.46,45.45,45.46,55.83-55.83L175.3,83.1ZM146.74,2.57,200,55.83l-26,26L146.74,54.55,119.47,81.82l-16.9-16.9,9.09-9.09-9.09-9.09Zm26,80.53-26,26-26-26,26-26Zm-54.55,0L101.29,100,84.39,83.1l16.9-16.89ZM101.29,63.64l-7.81-7.81,7.81-7.8,7.8,7.8ZM2.57,55.83,55.83,2.57,100,46.74l-9.09,9.09L100,64.92,83.1,81.82,55.83,54.55,28.56,81.82ZM81.82,83.1l-26,26-26-26,26-26Zm-26,80.54L2.57,110.38l26-26,27.27,27.27L83.1,84.39l16.9,16.9-9.09,9.09,9.09,9.09Zm45.46-61.07,7.8,7.81-7.8,7.8-7.81-7.8ZM200,110.38l-53.26,53.26-44.17-44.17,9.09-9.09-9.09-9.09,16.9-16.9,27.27,27.27L174,84.39Z"/></g></g></svg>