<svg width="43" height="40" viewBox="0 0 43 40" fill="none" xmlns="http://www.w3.org/2000/svg">
<path d="M32.8154 0.142822C33.3829 0.142791 33.9415 0.283633 34.4412 0.552713C34.9408 0.821793 35.3659 1.2107 35.6782 1.68454L42.3319 11.7771C42.7328 12.3852 42.9296 13.1051 42.8938 13.8325C42.8581 14.5599 42.5916 15.257 42.1331 15.8228L24.2279 37.9222C23.9024 38.3239 23.4902 38.6467 23.0223 38.8665C22.5544 39.0863 22.0428 39.1974 21.5258 39.1916C21.0089 39.1858 20.5 39.0631 20.0371 38.8328C19.5743 38.6025 19.1695 38.2705 18.8531 37.8617L1.69078 15.6891C1.27471 15.152 1.0276 14.5034 0.980802 13.8256C0.934002 13.1478 1.08963 12.4714 1.42792 11.8822L7.18564 1.86282C7.48611 1.34006 7.91914 0.905783 8.44104 0.603802C8.96294 0.30182 9.55524 0.142814 10.1582 0.142822H32.8154ZM37.4611 16.1428H30.3799L24.8622 31.6925L37.4622 16.1428H37.4611ZM12.3376 16.1428H6.37764L18.1022 31.2891L12.3376 16.1428ZM26.7422 16.1428H16.0051L21.5605 30.7451L26.7422 16.1428ZM8.59135 6.29596L4.90449 12.7142H11.0336L8.59135 6.29596V6.29596ZM34.1319 5.56797L31.5959 12.7142H38.8428L34.1319 5.56797V5.56797ZM21.4279 3.81711L16.5742 12.7142H26.2805L21.4279 3.81711ZM17.6576 3.57025H11.2234L13.8679 10.52L17.6576 3.57025ZM31.2039 3.57025H25.1994L28.8371 10.24L31.2039 3.57025V3.57025Z" fill="#2E527C"/>
</svg>
