<svg width="46" height="39" viewBox="0 0 46 39" fill="none" xmlns="http://www.w3.org/2000/svg">
<path d="M25.8859 37.8658C25.2296 38.522 24.3395 38.8906 23.4114 38.8906C22.4833 38.8906 21.5933 38.522 20.9369 37.8658L1.96225 18.89C1.3061 18.2337 0.9375 17.3436 0.9375 16.4155C0.9375 15.4874 1.3061 14.5973 1.96225 13.941L14.2916 1.61167C14.9479 0.955518 15.838 0.586914 16.7661 0.586914C17.6942 0.586914 18.5842 0.955518 19.2406 1.61167L23.4103 5.7825L27.5823 1.61167C28.2386 0.955518 29.1287 0.586914 30.0568 0.586914C30.9848 0.586914 31.8749 0.955518 32.5313 1.61167L44.8606 13.9433C45.5167 14.5997 45.8853 15.4898 45.8853 16.4178C45.8853 17.3459 45.5167 18.236 44.8606 18.8923L25.8848 37.8658H25.8859ZM16.7661 4.0885L4.43792 16.4167L23.4114 35.3902L24.5618 34.2398L20.3921 30.069L22.8666 27.5945L27.0374 31.7653L28.3383 30.4645L24.1674 26.2937L26.6431 23.818L30.8128 27.9888L32.3248 26.4768L28.1551 22.306L30.6296 19.8315L34.8004 24.0023L35.7396 23.062L30.2399 17.5623L30.0568 17.7455C28.823 18.979 27.1499 19.672 25.4053 19.672C23.6607 19.672 21.9875 18.979 20.7538 17.7455L18.5768 15.5685C17.9206 14.9122 17.552 14.0221 17.552 13.094C17.552 12.1659 17.9206 11.2758 18.5768 10.6195L20.9358 8.25817L16.7661 4.0885V4.0885ZM30.0568 4.0885L21.0501 13.094L23.2283 15.271C23.8051 15.8482 24.5876 16.1728 25.4036 16.1732C26.2197 16.1736 27.0025 15.85 27.5799 15.2733L27.7643 15.0867L30.2376 12.6098L30.7183 12.1292L38.6959 20.1057L42.3849 16.4167L30.0568 4.0885V4.0885Z" fill="#2E527C"/>
</svg>
