<svg width="37" height="42" viewBox="0 0 37 42" fill="none" xmlns="http://www.w3.org/2000/svg">
<path d="M20.7466 1.01041L32.4016 7.73975C32.9337 8.04693 33.3755 8.48875 33.6827 9.0208C33.9899 9.55285 34.1516 10.1564 34.1516 10.7707V24.2294C34.1517 24.8359 33.9942 25.4319 33.6946 25.9592C33.395 26.4864 32.9635 26.9268 32.4425 27.2371L36.6565 34.5346L28.9775 36.3289L23.9655 41.9289L19.6196 34.4027C19.083 34.4996 18.53 34.4704 18.005 34.3152L13.6101 41.9289L8.59697 36.3289L0.917969 34.5334L5.24864 27.0341C4.81187 26.7082 4.45723 26.2849 4.21296 25.7977C3.96869 25.3106 3.84154 24.7732 3.84164 24.2282V10.7707C3.84165 10.1564 4.00338 9.55285 4.31057 9.0208C4.61776 8.48875 5.05958 8.04693 5.59164 7.73975L17.2466 1.01041C17.7787 0.703226 18.3823 0.541504 18.9966 0.541504C19.611 0.541504 20.2146 0.703226 20.7466 1.01041V1.01041ZM8.2668 28.8039L6.3068 32.1989L10.4683 33.1707L12.9941 35.9941L14.925 32.6481L8.2668 28.8039V28.8039ZM29.4103 28.9859L22.7533 32.8301L24.5815 35.9941L27.1073 33.1707L31.2676 32.2001L29.4126 28.9859H29.4103ZM18.9966 4.04258L7.34164 10.7707V24.2294L18.9966 30.9587L30.6516 24.2294V10.7707L18.9966 4.04141V4.04258ZM18.9966 10.5001C20.8532 10.5001 22.6336 11.2376 23.9464 12.5503C25.2591 13.8631 25.9966 15.6436 25.9966 17.5001C25.9966 19.3566 25.2591 21.1371 23.9464 22.4498C22.6336 23.7626 20.8532 24.5001 18.9966 24.5001C17.1401 24.5001 15.3596 23.7626 14.0469 22.4498C12.7341 21.1371 11.9966 19.3566 11.9966 17.5001C11.9966 15.6436 12.7341 13.8631 14.0469 12.5503C15.3596 11.2376 17.1401 10.5001 18.9966 10.5001V10.5001ZM18.9966 14.0001C18.0684 14.0001 17.1781 14.3688 16.5218 15.0252C15.8654 15.6816 15.4966 16.5718 15.4966 17.5001C15.4966 18.4283 15.8654 19.3186 16.5218 19.975C17.1781 20.6313 18.0684 21.0001 18.9966 21.0001C19.9249 21.0001 20.8151 20.6313 21.4715 19.975C22.1279 19.3186 22.4966 18.4283 22.4966 17.5001C22.4966 16.5718 22.1279 15.6816 21.4715 15.0252C20.8151 14.3688 19.9249 14.0001 18.9966 14.0001V14.0001Z" fill="#2E527C"/>
</svg>
