<svg xmlns="http://www.w3.org/2000/svg" viewBox="0 0 30 30"><defs><style>.cls-1{opacity:0;}.cls-2{fill:#fbb03b;}.cls-3{fill:#f90;}</style></defs><g id="图层_2" data-name="图层 2"><g id="图层_1-2" data-name="图层 1"><g id="DDOS高防IP"><g class="cls-1"><rect class="cls-2" width="30" height="30"/></g><g id="DDOS高防IP-2" data-name="DDOS高防IP"><path class="cls-3" d="M23.25,7.68,15.44,5.07a1.47,1.47,0,0,0-.88,0L6.75,7.68a.71.71,0,0,0-.5.68v6.41A8.71,8.71,0,0,0,10.15,22l4.08,2.73a1.4,1.4,0,0,0,1.54,0L19.85,22a8.71,8.71,0,0,0,3.9-7.27V8.36A.71.71,0,0,0,23.25,7.68Zm-.95,1.2V15.1a7.29,7.29,0,0,1-3.24,5.74L15,23.54,11,20.84l-.29-.2a7.35,7.35,0,0,1-3-5.87V8.88L15,6.45Z"/><path class="cls-3" d="M11.05,13.39a.64.64,0,0,0-.47-.22.6.6,0,0,0-.48.17.67.67,0,0,0,0,.95l3,3.3a.28.28,0,0,0,.1.09.62.62,0,0,0,.41.14.69.69,0,0,0,.46-.18L19.9,12a.67.67,0,0,0,.22-.47.68.68,0,0,0-.65-.7A.72.72,0,0,0,19,11l-5.39,5.22Z"/></g></g></g></g></svg>