<svg xmlns="http://www.w3.org/2000/svg" viewBox="0 0 30 30"><defs><style>.cls-1{opacity:0;}.cls-2{fill:#fbb03b;}.cls-3{fill:#f90;}</style></defs><g id="图层_2" data-name="图层 2"><g id="图层_1-2" data-name="图层 1"><g id="智能DNS"><g class="cls-1"><rect class="cls-2" width="30" height="30"/></g><path id="智能DNS-2" data-name="智能DNS" class="cls-3" d="M15,25a9.75,9.75,0,0,1-3.93-.79,9.87,9.87,0,0,1-5.3-5.32A10.17,10.17,0,0,1,5,15a9.87,9.87,0,0,1,6.07-9.19A10.08,10.08,0,0,1,15,5a10.08,10.08,0,0,1,3.93.76A9.86,9.86,0,0,1,22.1,7.88,9.84,9.84,0,0,1,25,15a10,10,0,0,1-2.9,7.13,10,10,0,0,1-3.17,2.13A9.75,9.75,0,0,1,15,25Zm0-1.45a8.44,8.44,0,0,0,1.46-2.06,12.69,12.69,0,0,0,1-2.76H12.6a12.5,12.5,0,0,0,.94,2.69A8.46,8.46,0,0,0,15,23.55Zm-2.12-.3A11.74,11.74,0,0,1,11.8,21.2a15,15,0,0,1-.75-2.47H7.3a8.91,8.91,0,0,0,2.2,2.78A10.76,10.76,0,0,0,12.88,23.25Zm4.27,0a10.12,10.12,0,0,0,3.24-1.73,8.93,8.93,0,0,0,2.31-2.77H19a19,19,0,0,1-.77,2.44A11.12,11.12,0,0,1,17.15,23.23Zm-10.35-6h4A11.7,11.7,0,0,1,10.69,16c0-.36,0-.71,0-1.06s0-.79,0-1.11.05-.69.1-1.09h-4a6.84,6.84,0,0,0-.24,1.07A9.29,9.29,0,0,0,6.5,15a10.06,10.06,0,0,0,.06,1.16A6.87,6.87,0,0,0,6.8,17.23Zm5.52,0H17.7c.07-.52.11-.94.12-1.27s0-.66,0-1,0-.65,0-1-.05-.72-.12-1.24H12.32c-.06.52-.1.93-.12,1.24s0,.63,0,1,0,.69,0,1S12.26,16.71,12.32,17.23Zm6.88,0h4a6.87,6.87,0,0,0,.24-1.12A10.06,10.06,0,0,0,23.5,15a9.29,9.29,0,0,0-.06-1.13,6.84,6.84,0,0,0-.24-1.07h-4c0,.58.08,1,.09,1.34s0,.59,0,.86,0,.71,0,1S19.25,16.73,19.2,17.23Zm-.25-6H22.7a8,8,0,0,0-2.26-2.87,8.6,8.6,0,0,0-3.32-1.63,10.63,10.63,0,0,1,1.07,2A17,17,0,0,1,19,11.25Zm-6.35,0h4.85a9.39,9.39,0,0,0-.93-2.56A10,10,0,0,0,15,6.5a5.54,5.54,0,0,0-1.35,1.78A15.51,15.51,0,0,0,12.6,11.25Zm-5.3,0h3.77a14.06,14.06,0,0,1,.71-2.41,12,12,0,0,1,1.07-2.07A8.47,8.47,0,0,0,9.57,8.38,8.34,8.34,0,0,0,7.3,11.25Z"/></g></g></g></svg>