<svg xmlns="http://www.w3.org/2000/svg" viewBox="0 0 30 30"><defs><style>.cls-1{opacity:0;}.cls-2{fill:#fbb03b;}.cls-3{fill:#f90;}</style></defs><g id="图层_2" data-name="图层 2"><g id="图层_1-2" data-name="图层 1"><g id="SSL证书"><g class="cls-1"><rect class="cls-2" width="30" height="30"/></g><g id="SSL证书-2" data-name="SSL证书"><path class="cls-3" d="M15.05,5a10,10,0,0,0-4.64,1.15h0l0,0-.11,0-.08,0c-.06,0-6.28,3.25-5.12,9.63l0,0A10,10,0,0,0,14,25H14a.64.64,0,0,0,.63-.56.65.65,0,0,0-.56-.7,8.59,8.59,0,0,1-3.48-1.16c1-.93,3.15-3.26,3-5.42-.11-1.27-1.14-2.07-2.05-2.79-.62-.48-1.26-1-1.19-1.38s.31-.59.71-.9a2.62,2.62,0,0,0,1.14-2.85A6.54,6.54,0,0,0,11.49,7a8.57,8.57,0,0,1,3.39-.76c-.2,1.16-.33,3.52,1.42,4.92a6.09,6.09,0,0,0,3.74,1,16.21,16.21,0,0,0,3.17-.34A8.66,8.66,0,0,1,23.82,15a.63.63,0,0,0,1.26,0A10,10,0,0,0,15.05,5ZM11,9.45a1.4,1.4,0,0,1-.69,1.65A2.68,2.68,0,0,0,9.1,12.75c-.22,1.15.78,1.93,1.65,2.62s1.51,1.18,1.57,1.9c.14,1.54-1.65,3.55-2.66,4.49-.75-.49-2.59-2.05-3.33-6,0-.24,0-.48,0-.72a8.78,8.78,0,0,1,4.09-7.41A5.08,5.08,0,0,1,11,9.45Zm6.14.76c-1.31-1.05-1.1-3-.94-3.87a8.8,8.8,0,0,1,6.5,4.32C21,11,18.31,11.19,17.09,10.21Z"/><path class="cls-3" d="M23.25,17.79H18.07c.06-1.86.37-2.93,1.61-2.93a1.48,1.48,0,0,1,1.13.4,2.09,2.09,0,0,1,.46,1.32.63.63,0,0,0,.61.65.65.65,0,0,0,.65-.61,3.22,3.22,0,0,0-.81-2.23,2.68,2.68,0,0,0-2-.79c-2.62,0-2.84,2.63-2.88,4.19h-.56a.87.87,0,0,0-.88.88v5.45a.88.88,0,0,0,.88.88h7a.89.89,0,0,0,.88-.88V18.67A.88.88,0,0,0,23.25,17.79Zm-.38,5.95H16.62V19.05h6.25Z"/><rect class="cls-3" x="19.03" y="19.95" width="1.26" height="2.93"/></g></g></g></g></svg>