<svg xmlns="http://www.w3.org/2000/svg" viewBox="0 0 30 30"><defs><style>.cls-1{opacity:0;}.cls-2{fill:#fbb03b;}.cls-3{fill:#f90;}</style></defs><g id="图层_2" data-name="图层 2"><g id="图层_1-2" data-name="图层 1"><g id="游戏盾SDK"><g class="cls-1"><rect class="cls-2" width="30" height="30"/></g><g id="游戏盾SDK-2" data-name="游戏盾SDK"><path class="cls-3" d="M20.69,23.31H9.31a8.31,8.31,0,0,1,0-16.62H20.69a8.31,8.31,0,0,1,0,16.62ZM9.31,8.69a6.31,6.31,0,0,0,0,12.62H20.69a6.31,6.31,0,0,0,0-12.62Z"/><polygon class="cls-3" points="21.69 18.25 19.69 18.25 19.69 16 17.44 16 17.44 14 19.69 14 19.69 11.75 21.69 11.75 21.69 14 23.93 14 23.93 16 21.69 16 21.69 18.25"/><rect class="cls-3" x="8.5" y="11.75" width="1.62" height="1.62"/><rect class="cls-3" x="6.07" y="14.19" width="1.62" height="1.62"/><rect class="cls-3" x="8.5" y="16.62" width="1.62" height="1.62"/><rect class="cls-3" x="10.94" y="14.19" width="1.62" height="1.62"/></g></g></g></g></svg>