<svg width="40" height="40" viewBox="0 0 40 40" fill="none" xmlns="http://www.w3.org/2000/svg">
<path d="M22.1529 0.970549L22.3162 1.12222L25.3787 4.18472C25.85 4.89055 26.5384 5.16238 27.2442 5.19972L27.4204 5.20438H31.7604C31.9179 5.20438 32.0707 5.21488 32.2189 5.23355L28.7469 8.70438H27.4204C25.5887 8.70438 23.8795 7.98455 22.7105 6.46555L20.145 3.90238L17.1409 6.90538L16.6322 7.24372C16.2169 7.51788 15.938 7.69172 15.6394 7.85505L15.3279 8.01722C14.461 8.45005 13.586 8.70555 12.6142 8.70555H8.7117V12.6022C8.7117 14.4082 8.0117 16.094 6.53703 17.2607L3.89803 20.1167L6.66303 22.8817C7.8717 24.0881 8.7117 25.6257 8.7117 27.3967V31.2957H12.6142C14.447 31.2957 16.1562 32.0155 17.3252 33.5345L19.8895 36.0977L22.6487 33.3397C23.8562 32.1334 25.395 31.2957 27.166 31.2957H31.0685V27.3967C31.0685 25.5627 31.7907 23.8547 33.3109 22.6857L35.9977 20L34.1474 18.1509L36.6219 15.6764L38.9074 17.9595C40.1359 18.9419 40.1825 20.8704 38.8164 22.1514L38.653 22.2961L35.5882 25.3574C34.8812 25.8275 34.6094 26.5159 34.5732 27.2217L34.5674 27.3967V31.7344C34.5674 33.4517 33.3879 34.6966 31.709 34.7899L31.5037 34.7957H27.1637C26.4625 34.7957 25.7602 35.2239 25.255 35.6882L25.122 35.8166L22.0584 38.8767C20.8357 40.0994 19.1429 40.1496 17.8817 39.0296L17.7184 38.8779L14.6559 35.8154C14.1845 35.1095 13.495 34.8377 12.7892 34.8004L12.6142 34.7957H8.2742C6.5557 34.7957 5.30853 33.6162 5.2152 31.9374L5.21053 31.7344V27.3967C5.21053 26.6956 4.7812 25.9932 4.3157 25.488L4.18853 25.3562L1.12603 22.2949C-0.0978042 21.0722 -0.149137 19.3817 0.972029 18.1205L1.12603 17.9572L4.18853 14.6415C4.89553 14.1714 5.16853 13.483 5.20586 12.7772L5.21053 12.6022V8.26455C5.21053 6.54722 6.39003 5.30238 8.06886 5.20905L8.27303 5.20322H12.613C13.2395 5.20322 13.866 4.86255 14.4925 4.45888L14.9102 4.18355L17.9739 1.12222C19.1977 -0.100451 20.8905 -0.150618 22.1517 0.969382L22.1529 0.970549ZM33.9374 8.25755L36.4014 10.7425L21.0399 25.9699L13.9745 18.9045L16.449 16.4289L21.0504 21.0302L33.9374 8.25755V8.25755Z" fill="#2E527C"/>
</svg>
