<svg width="46" height="36" viewBox="0 0 46 36" fill="none" xmlns="http://www.w3.org/2000/svg">
<path d="M25.2361 0.944429C25.3991 1.08023 25.5494 1.23057 25.6852 1.3936L32.3294 9.3666L39.6584 3.95443C40.2381 3.52622 40.9359 3.28742 41.6565 3.27066C42.377 3.2539 43.0851 3.46 43.6842 3.86079C44.2832 4.26158 44.7439 4.83753 45.0033 5.50996C45.2627 6.18238 45.3082 6.91851 45.1336 7.61776L38.1627 35.4999H7.82939L0.858559 7.61893C0.683591 6.91959 0.728841 6.18328 0.988124 5.51062C1.24741 4.83796 1.70807 4.26178 2.30717 3.86081C2.90626 3.45984 3.61456 3.25364 4.33526 3.2704C5.05597 3.28715 5.75391 3.52605 6.33373 3.95443L13.6627 9.3666L20.3069 1.3936C20.6011 1.04029 20.962 0.74841 21.369 0.534621C21.776 0.320832 22.2212 0.189325 22.679 0.147614C23.1369 0.105902 23.5984 0.154803 24.0374 0.291523C24.4763 0.428243 24.884 0.650103 25.2372 0.944429H25.2361ZM22.9961 3.6336L14.2391 14.1429L4.25473 6.7696L10.5617 31.9999H35.4304L41.7374 6.7696L31.7531 14.1429L22.9961 3.6336ZM31.1627 25.5436V29.2769H14.8294V25.5436H31.1627Z" fill="#2E527C"/>
</svg>
