<svg width="56" height="56" viewBox="0 0 56 56" fill="none" xmlns="http://www.w3.org/2000/svg">
<path d="M7 46.6667V22.1667L23.3333 9.80008L34.0083 17.8501C33.6194 17.9667 33.2694 18.0737 32.9583 18.1709C32.6472 18.2681 32.3167 18.3945 31.9667 18.5501L23.3333 12.0751L8.80833 23.0417V44.8584H20.125V46.6667H7Z" fill="#2E527C"/>
<path fill-rule="evenodd" clip-rule="evenodd" d="M33.1917 31.1792C34.3194 32.3264 35.7 32.9 37.3333 32.9C38.9667 32.9 40.3472 32.3264 41.475 31.1792C42.6028 30.0319 43.1667 28.6611 43.1667 27.0667C43.1667 25.4333 42.6028 24.0528 41.475 22.925C40.3472 21.7972 38.9667 21.2333 37.3333 21.2333C35.7 21.2333 34.3194 21.7972 33.1917 22.925C32.0639 24.0528 31.5 25.4333 31.5 27.0667C31.5 28.6611 32.0639 30.0319 33.1917 31.1792ZM24.5 43.575V46.6667H50.1667V43.575C50.1667 42.9917 50.0111 42.4667 49.7 42C49.3889 41.5333 48.9806 41.1444 48.475 40.8333C46.7639 39.7833 44.975 39.0153 43.1083 38.5292C41.2417 38.0431 39.3167 37.8 37.3333 37.8C35.35 37.8 33.425 38.0431 31.5583 38.5292C29.6917 39.0153 27.9028 39.7833 26.1917 40.8333C25.6861 41.1444 25.2778 41.5333 24.9667 42C24.6556 42.4667 24.5 42.9917 24.5 43.575ZM40.1926 29.925C39.4148 30.7027 38.462 31.0916 37.3342 31.0916C36.2065 31.0916 35.2537 30.7027 34.4759 29.925C33.6981 29.1472 33.3092 28.1944 33.3092 27.0666C33.3092 25.9388 33.6981 24.9861 34.4759 24.2083C35.2537 23.4305 36.2065 23.0416 37.3342 23.0416C38.462 23.0416 39.4148 23.4305 40.1926 24.2083C40.9704 24.9861 41.3592 25.9388 41.3592 27.0666C41.3592 28.1944 40.9704 29.1472 40.1926 29.925ZM26.1908 44.8584H48.4741V42.8167C46.7241 41.8445 44.9255 41.057 43.0783 40.4542C41.231 39.8514 39.3158 39.55 37.3324 39.55C35.3491 39.55 33.4338 39.8514 31.5866 40.4542C29.7394 41.057 27.9408 41.8639 26.1908 42.875V44.8584Z" fill="#FF9900"/>
</svg>
