<svg xmlns="http://www.w3.org/2000/svg" viewBox="0 0 72 72"><defs><style>.cls-1{opacity:0;}.cls-2{fill:#fbb03b;}.cls-3{fill:#2e527c;}.cls-4{fill:#f90;}</style></defs><g id="图层_2" data-name="图层 2"><g id="图层_1-2" data-name="图层 1"><g id="Frame174"><g class="cls-1"><rect class="cls-2" width="72" height="72"/></g><path class="cls-3" d="M36,9.42A26.58,26.58,0,1,0,62.58,36,26.5,26.5,0,0,0,36,9.42ZM37.21,12a24.31,24.31,0,0,1,23,22.84H52.92a17.13,17.13,0,0,0-2.78-8.09,3.4,3.4,0,0,0,.36-1.58,3.56,3.56,0,0,0-3.63-3.62,3.39,3.39,0,0,0-1.57.36,16.59,16.59,0,0,0-8.09-2.78ZM50,25a3,3,0,1,1-3-3A3,3,0,0,1,50,25ZM37.09,21.62h.12a16.72,16.72,0,0,1,6.4,2.05,3.27,3.27,0,0,0-.36,1.45,3.56,3.56,0,0,0,3.62,3.63,3.2,3.2,0,0,0,1.45-.36,12.91,12.91,0,0,1,2.06,6.4H41.8a5.92,5.92,0,0,0-4.71-4.71ZM50.5,37.21A14.58,14.58,0,0,1,37.21,50.5V41.92a5.93,5.93,0,0,0,4.71-4.71ZM34.79,12v7.13A16.85,16.85,0,0,0,19.45,32.37a3.5,3.5,0,0,0-2.54,2.3H11.83A24.29,24.29,0,0,1,34.79,12ZM21.86,32.74A14.56,14.56,0,0,1,34.79,21.5v8.58a5.9,5.9,0,0,0-4.71,4.71H23.67A4.23,4.23,0,0,0,21.86,32.74ZM23,36a3,3,0,1,1-3-3A3,3,0,0,1,23,36ZM34.67,60A24.29,24.29,0,0,1,11.83,37.21h5a3.47,3.47,0,0,0,2.53,2.29A16.88,16.88,0,0,0,34.67,52.8Zm.12-9.53A14.54,14.54,0,0,1,21.86,39.26a3.77,3.77,0,0,0,1.81-2h6.41a5.92,5.92,0,0,0,4.71,4.71ZM36,41a5,5,0,1,1,5-5A5,5,0,0,1,36,41Zm1.21,19V52.8A17,17,0,0,0,52.92,37.21h7.25A24.31,24.31,0,0,1,37.21,60.05Z"/><path class="cls-4" d="M36,42a6,6,0,1,1,6-6A6,6,0,0,1,36,42Zm0-10a4,4,0,1,0,4,4A4,4,0,0,0,36,32Z"/><path class="cls-4" d="M20,40a4,4,0,1,1,4-4A4,4,0,0,1,20,40Zm0-6a2,2,0,1,0,2,2A2,2,0,0,0,20,34Z"/><path class="cls-4" d="M47,29a4,4,0,1,1,4-4A4,4,0,0,1,47,29Zm0-6a2,2,0,1,0,2,2A2,2,0,0,0,47,23Z"/></g></g></g></svg>