<svg xmlns="http://www.w3.org/2000/svg" viewBox="0 0 72 72"><defs><style>.cls-1{opacity:0;}.cls-2{fill:#fbb03b;}.cls-3{fill:#2e527c;}.cls-4{fill:#f90;}</style></defs><g id="图层_2" data-name="图层 2"><g id="图层_1-2" data-name="图层 1"><g id="Frame154"><g class="cls-1"><rect class="cls-2" width="72" height="72"/></g><path class="cls-3" d="M54,18A25.5,25.5,0,0,0,17.48,53.53H12.56a1.28,1.28,0,0,0,0,2.56h8.6a1.28,1.28,0,0,0,1.28-1.28V46.22a1.28,1.28,0,0,0-2.56,0v6.09l-.1-.09A22.93,22.93,0,1,1,32.3,58.64a1.28,1.28,0,1,0-.41,2.53A25.42,25.42,0,0,0,36,61.5,25.69,25.69,0,0,0,54,54,25.49,25.49,0,0,0,54,18Z"/><path class="cls-4" d="M26.36,28.26a5.57,5.57,0,0,1,1.92.35A4.51,4.51,0,0,1,30,29.75a5.46,5.46,0,0,1,1.22,2.13,10.48,10.48,0,0,1,.47,3.32,13.41,13.41,0,0,1-.39,3.4,7.51,7.51,0,0,1-1.1,2.51,4.64,4.64,0,0,1-4,2.09,5,5,0,0,1-2.31-.51,4.33,4.33,0,0,1-1.64-1.42,4.73,4.73,0,0,1-.79-2.08h2.17a2.8,2.8,0,0,0,.87,1.52,2.5,2.5,0,0,0,1.7.57,2.79,2.79,0,0,0,2.49-1.39A7.29,7.29,0,0,0,29.58,36h-.12A3.71,3.71,0,0,1,28.54,37a4.42,4.42,0,0,1-5,.31,4.47,4.47,0,0,1-1.64-1.7,4.88,4.88,0,0,1-.61-2.46,5,5,0,0,1,.62-2.5A4.7,4.7,0,0,1,23.7,28.9,5.12,5.12,0,0,1,26.36,28.26Zm0,1.84a2.86,2.86,0,0,0-1.5.41,3,3,0,0,0-1,1.1,3.09,3.09,0,0,0-.38,1.54,3.15,3.15,0,0,0,.37,1.53,2.89,2.89,0,0,0,1,1.09,2.84,2.84,0,0,0,1.49.4,2.8,2.8,0,0,0,1.16-.24,3,3,0,0,0,1-.67,3.29,3.29,0,0,0,.63-1,3,3,0,0,0,.23-1.15,3.14,3.14,0,0,0-1.42-2.6A2.67,2.67,0,0,0,26.37,30.1Zm12.71-1.84a5.57,5.57,0,0,1,1.92.35,4.4,4.4,0,0,1,1.7,1.14,5.46,5.46,0,0,1,1.22,2.13,10.2,10.2,0,0,1,.47,3.32A13.91,13.91,0,0,1,44,38.6a7.72,7.72,0,0,1-1.1,2.51,4.67,4.67,0,0,1-4,2.09,5,5,0,0,1-2.31-.51A4.26,4.26,0,0,1,35,41.27a4.5,4.5,0,0,1-.79-2.08h2.16a2.86,2.86,0,0,0,.87,1.52,2.52,2.52,0,0,0,1.71.57,2.81,2.81,0,0,0,2.49-1.39,7.3,7.3,0,0,0,.9-3.91h-.11A3.9,3.9,0,0,1,41.25,37a4.11,4.11,0,0,1-1.23.69,4.33,4.33,0,0,1-1.45.24,4.39,4.39,0,0,1-2.29-.62,4.54,4.54,0,0,1-1.64-1.7A4.88,4.88,0,0,1,34,33.18a5.12,5.12,0,0,1,.62-2.5,4.73,4.73,0,0,1,1.77-1.78A5.07,5.07,0,0,1,39.08,28.26Zm0,1.84a2.81,2.81,0,0,0-1.5.41,3,3,0,0,0-1.05,1.1,3.19,3.19,0,0,0-.38,1.54,3.15,3.15,0,0,0,.37,1.53A2.76,2.76,0,0,0,39,36.17a2.85,2.85,0,0,0,1.17-.24,3,3,0,0,0,.94-.67,3.53,3.53,0,0,0,.64-1A3,3,0,0,0,42,33.13a3,3,0,0,0-.38-1.49,3,3,0,0,0-1-1.11A2.66,2.66,0,0,0,39.09,30.1ZM51,41.36V40.9a2.18,2.18,0,0,1,.22-1,1.8,1.8,0,0,1,.66-.71A1.89,1.89,0,0,1,53,39a2,2,0,0,1,1.06.27,1.72,1.72,0,0,1,.65.71,2.18,2.18,0,0,1,.22,1v.46a2.23,2.23,0,0,1-.22,1A1.71,1.71,0,0,1,54,43a1.91,1.91,0,0,1-1,.27A2,2,0,0,1,51.91,43a1.75,1.75,0,0,1-.65-.7A2.23,2.23,0,0,1,51,41.36Zm1.24-.46v.46a1.1,1.1,0,0,0,.15.57.56.56,0,0,0,.53.27.55.55,0,0,0,.53-.26,1.17,1.17,0,0,0,.15-.58V40.9a1.3,1.3,0,0,0-.14-.58.54.54,0,0,0-.54-.26.55.55,0,0,0-.53.26A1.19,1.19,0,0,0,52.28,40.9Zm-5.72-4.53v-.46a2.1,2.1,0,0,1,.23-1,1.85,1.85,0,0,1,.65-.71,2,2,0,0,1,1-.26,2.06,2.06,0,0,1,1.06.26,1.85,1.85,0,0,1,.65.71,2.23,2.23,0,0,1,.22,1v.46a2.13,2.13,0,0,1-.23,1,1.75,1.75,0,0,1-.65.7,2,2,0,0,1-1.05.26,2,2,0,0,1-1-.26,1.85,1.85,0,0,1-.65-.71A2.18,2.18,0,0,1,46.56,36.37Zm1.25-.46v.46a1.1,1.1,0,0,0,.15.57.65.65,0,0,0,1,0,1.1,1.1,0,0,0,.15-.57v-.46a1.27,1.27,0,0,0-.14-.58.54.54,0,0,0-.54-.27.53.53,0,0,0-.52.27A1.22,1.22,0,0,0,47.81,35.91ZM47.13,43l6-8.73h1.11l-6,8.73Z"/></g></g></g></svg>