<svg xmlns="http://www.w3.org/2000/svg" viewBox="0 0 72 72"><defs><style>.cls-1{opacity:0;}.cls-2{fill:#fbb03b;}.cls-3{fill:#2e527c;}.cls-4{fill:#f90;}</style></defs><g id="图层_2" data-name="图层 2"><g id="图层_1-2" data-name="图层 1"><g id="Frame189"><g class="cls-1"><rect class="cls-2" width="72" height="72"/></g><path class="cls-3" d="M59.67,35.35v-18a1.07,1.07,0,0,0-.73-1L36.94,9a3,3,0,0,0-1.88,0L13.44,16.16l-.38.13a1.07,1.07,0,0,0-.73,1v18A23.62,23.62,0,0,0,22.87,55L34.35,62.7a3,3,0,0,0,3.3,0L49.13,55A23.62,23.62,0,0,0,59.67,35.35ZM36,61.19l-12.72-8.5a21.58,21.58,0,0,1-8.79-17.34V18.09L36,10.92l.25.09,21.26,7.08,0,18.21a21.58,21.58,0,0,1-9.56,16.94Z"/><path class="cls-4" d="M22.5,36H19.4V27.27h3.12a4.62,4.62,0,0,1,2.27.53,3.5,3.5,0,0,1,1.46,1.49,5.52,5.52,0,0,1,0,4.68,3.51,3.51,0,0,1-1.47,1.51A4.68,4.68,0,0,1,22.5,36Zm-1.25-1.58h1.17a3,3,0,0,0,1.38-.29,1.91,1.91,0,0,0,.84-.91,3.8,3.8,0,0,0,.29-1.59,3.75,3.75,0,0,0-.29-1.58,1.91,1.91,0,0,0-.84-.91,3,3,0,0,0-1.38-.29H21.25Zm10,1.58h-3.1V27.27h3.12a4.62,4.62,0,0,1,2.27.53A3.5,3.5,0,0,1,35,29.29,5.52,5.52,0,0,1,35,34a3.51,3.51,0,0,1-1.47,1.51A4.68,4.68,0,0,1,31.23,36ZM30,34.42h1.17a3,3,0,0,0,1.38-.29,1.91,1.91,0,0,0,.84-.91,3.8,3.8,0,0,0,.29-1.59,3.75,3.75,0,0,0-.29-1.58,1.91,1.91,0,0,0-.84-.91,3,3,0,0,0-1.38-.29H30Zm14.9-2.78a5.07,5.07,0,0,1-.54,2.43,3.85,3.85,0,0,1-1.46,1.53,4.25,4.25,0,0,1-2.08.52,4.16,4.16,0,0,1-2.09-.53,3.72,3.72,0,0,1-1.46-1.53,5.72,5.72,0,0,1,0-4.85,3.72,3.72,0,0,1,1.46-1.53,4.37,4.37,0,0,1,4.17,0,3.72,3.72,0,0,1,1.46,1.53A5.07,5.07,0,0,1,44.88,31.64Zm-1.87,0a4,4,0,0,0-.27-1.56,2.16,2.16,0,0,0-3.11-1,2.19,2.19,0,0,0-.78,1,4,4,0,0,0-.27,1.56,4,4,0,0,0,.27,1.56,2.21,2.21,0,0,0,.78,1,2.22,2.22,0,0,0,2.33,0,2.15,2.15,0,0,0,.78-1A4,4,0,0,0,43,31.64Zm8-1.86a1.13,1.13,0,0,0-.44-.8,1.75,1.75,0,0,0-1.06-.28,2.13,2.13,0,0,0-.76.12,1.11,1.11,0,0,0-.48.35.88.88,0,0,0-.16.5.78.78,0,0,0,.1.41.86.86,0,0,0,.3.3,1.88,1.88,0,0,0,.45.22,3.69,3.69,0,0,0,.53.15l.79.19a5.77,5.77,0,0,1,1,.34,3.28,3.28,0,0,1,.83.53,2.17,2.17,0,0,1,.54.73,2.27,2.27,0,0,1,.2,1,2.42,2.42,0,0,1-.41,1.39,2.48,2.48,0,0,1-1.16.9,4.47,4.47,0,0,1-1.81.32,4.78,4.78,0,0,1-1.85-.32,2.71,2.71,0,0,1-1.21-1A2.81,2.81,0,0,1,46,33.26h1.78A1.31,1.31,0,0,0,48,34a1.35,1.35,0,0,0,.6.44,2.3,2.3,0,0,0,.85.15,2.23,2.23,0,0,0,.82-.14,1.28,1.28,0,0,0,.54-.38A.86.86,0,0,0,51,33.5a.75.75,0,0,0-.17-.49,1.42,1.42,0,0,0-.51-.34,4.7,4.7,0,0,0-.8-.26l-1-.24a4,4,0,0,1-1.75-.84,2,2,0,0,1-.63-1.53,2.36,2.36,0,0,1,.42-1.39,2.88,2.88,0,0,1,1.18-.92,4,4,0,0,1,1.71-.34,3.89,3.89,0,0,1,1.69.34,2.69,2.69,0,0,1,1.14.92,2.46,2.46,0,0,1,.41,1.37Z"/><path class="cls-3" d="M47.5,45h-23a1,1,0,0,1,0-2h23a1,1,0,0,1,0,2Z"/></g></g></g></svg>