<svg xmlns="http://www.w3.org/2000/svg" viewBox="0 0 72 72"><defs><style>.cls-1{opacity:0;}.cls-2{fill:#fbb03b;}.cls-3{fill:#f90;}.cls-4{fill:#2e527c;}</style></defs><g id="图层_2" data-name="图层 2"><g id="图层_1-2" data-name="图层 1"><g id="Frame158"><g class="cls-1"><rect class="cls-2" width="72" height="72"/></g><path class="cls-3" d="M36,62c-7.71,0-14-11.65-14-26s6.29-26,14-26S50,21.65,50,36,43.71,62,36,62Zm0-51.17c-7.25,0-13.17,11.28-13.17,25.17S28.75,61.17,36,61.17,49.17,49.89,49.17,36,43.25,10.83,36,10.83Z"/><path class="cls-3" d="M36,62.5c-8,0-14.5-11.89-14.5-26.5S28,9.5,36,9.5,50.5,21.39,50.5,36,44,62.5,36,62.5Zm0-51.17C29,11.33,23.33,22.4,23.33,36S29,60.67,36,60.67,48.67,49.6,48.67,36,43,11.33,36,11.33Z"/><path class="cls-4" d="M60.6,36.41H11.4a.41.41,0,0,1,0-.82H60.6a.41.41,0,0,1,0,.82ZM56.12,21.82H15.88a.41.41,0,0,1,0-.82H56.12a.38.38,0,0,1,.4.41A.43.43,0,0,1,56.12,21.82Zm0,29.18H15.88a.41.41,0,0,1,0-.82H56.12a.38.38,0,0,1,.4.41A.4.4,0,0,1,56.12,51Z"/><path class="cls-4" d="M56.12,51.75H15.88a1.16,1.16,0,0,1,0-2.32H56.12a1.13,1.13,0,0,1,1.15,1.16A1.16,1.16,0,0,1,56.12,51.75ZM60.6,37.16H11.4a1.16,1.16,0,0,1,0-2.32H60.6a1.16,1.16,0,0,1,0,2.32ZM56.12,22.57H15.88a1.16,1.16,0,0,1,0-2.32H56.12a1.13,1.13,0,0,1,1.15,1.16A1.19,1.19,0,0,1,56.12,22.57Z"/><rect class="cls-4" x="35" y="10" width="2" height="52"/><path class="cls-4" d="M36,62A26,26,0,1,1,62,36,26,26,0,0,1,36,62Zm0-50.36A24.36,24.36,0,1,0,60.36,36,24.39,24.39,0,0,0,36,11.64Z"/><path class="cls-4" d="M36,62.5A26.5,26.5,0,1,1,62.5,36,26.53,26.53,0,0,1,36,62.5Zm0-52A25.5,25.5,0,1,0,61.5,36,25.53,25.53,0,0,0,36,10.5Zm0,50.36A24.86,24.86,0,1,1,60.86,36,24.89,24.89,0,0,1,36,60.86Zm0-48.72A23.86,23.86,0,1,0,59.86,36,23.88,23.88,0,0,0,36,12.14Z"/></g></g></g></svg>