<svg xmlns="http://www.w3.org/2000/svg" viewBox="0 0 72 72"><defs><style>.cls-1{opacity:0;}.cls-2{fill:#fbb03b;}.cls-3{fill:#2e527c;}.cls-4{fill:#f90;}</style></defs><g id="图层_2" data-name="图层 2"><g id="图层_1-2" data-name="图层 1"><g id="Frame168"><g class="cls-1"><rect class="cls-2" width="72" height="72"/></g><path class="cls-3" d="M24.67,61.28,33.37,35a4.84,4.84,0,0,1-2.1-2,5.63,5.63,0,0,1-.75-2.77,5.47,5.47,0,0,1,9.34-3.87,5.27,5.27,0,0,1,1.61,3.87A5.56,5.56,0,0,1,40.76,33,5,5,0,0,1,38.62,35l8.7,26.25h-2.4l-2.1-6.38H29.17l-2,6.38ZM30,52.58H42l-6-18.3Z"/><path class="cls-4" d="M10.27,40.5a25.34,25.34,0,0,0,6.23,9.22l1.57-1.57a23.55,23.55,0,0,1-5.7-8.44,25,25,0,0,1,0-19,23.55,23.55,0,0,1,5.7-8.44L16.5,10.72A25.37,25.37,0,0,0,10.27,20a28,28,0,0,0,0,20.55Z"/><path class="cls-4" d="M19.46,36.9a15.65,15.65,0,0,0,3.86,6l1.58-1.58A14.54,14.54,0,0,1,21.52,36a16.77,16.77,0,0,1-1.12-5.82,16.47,16.47,0,0,1,1.16-5.88,15.52,15.52,0,0,1,3.34-5.29l-1.58-1.5a15.65,15.65,0,0,0-3.86,6,19.83,19.83,0,0,0-1.24,6.67A19.88,19.88,0,0,0,19.46,36.9Z"/><path class="cls-4" d="M47.18,41.32l1.5,1.58a15.74,15.74,0,0,0,3.86-6,19.55,19.55,0,0,0,1.23-6.64,34.35,34.35,0,0,0-1.2-6.71s-2.14-4.34-3.89-6l-1.5,1.5a19.49,19.49,0,0,1,3.22,5.47,15.77,15.77,0,0,1,1.2,5.7,16.52,16.52,0,0,1-1.16,5.89A15.41,15.41,0,0,1,47.18,41.32Z"/><path class="cls-4" d="M53.93,48.15l1.57,1.57a24.57,24.57,0,0,0,6.26-9.18,28.93,28.93,0,0,0,1.92-10.32,28.18,28.18,0,0,0-2-10.27,26.3,26.3,0,0,0-6.19-9.23L53.93,12.3a24.51,24.51,0,0,1,5.66,8.44,25.34,25.34,0,0,1,1.91,9.48,25.39,25.39,0,0,1-1.91,9.49A24.51,24.51,0,0,1,53.93,48.15Z"/></g></g></g></svg>