<svg xmlns="http://www.w3.org/2000/svg" viewBox="0 0 72 72"><defs><style>.cls-1{opacity:0;}.cls-2{fill:#fbb03b;}.cls-3{fill:#2e527c;}.cls-4{fill:#f90;}</style></defs><g id="图层_2" data-name="图层 2"><g id="图层_1-2" data-name="图层 1"><g id="Frame225"><g class="cls-1"><rect class="cls-2" width="72" height="72"/></g><path class="cls-3" d="M54.69,39.32,36.35,57.94l-5-5.84V35.58H52.57a6.54,6.54,0,0,1-.07-.89,5.73,5.73,0,0,1,.2-1.51H31.39V17.62l4.82-3.91L53.84,30.92a5.9,5.9,0,0,1,1.86-1.54L36.36,10.5l-7.37,6V53l7.23,8.51,20.7-21A6,6,0,0,1,54.69,39.32Z"/><path class="cls-3" d="M64.41,33.72a5.15,5.15,0,0,1,.09,1,6,6,0,0,1-6,6,6.39,6.39,0,0,1-1-.09,5.52,5.52,0,0,0,2.18.21,5.55,5.55,0,0,0,4.36-3,5.48,5.48,0,0,0,.6-2.67A5.63,5.63,0,0,0,64.41,33.72Z"/><path class="cls-3" d="M15.18,28.93a5.91,5.91,0,0,1,2.22,1.2l5.15-4.92v8H19.3a5.73,5.73,0,0,1,.2,1.51,6.54,6.54,0,0,1-.07.89h3.11v8.63L17.72,39.3A5.51,5.51,0,0,0,19.36,36a6,6,0,0,1-5.86,4.71,6.08,6.08,0,0,1-1.61-.23,5.93,5.93,0,0,0,1.3.34,5.67,5.67,0,0,0,2.42-.23L25,50.08V19.6Z"/><path class="cls-4" d="M13.5,41.69a7,7,0,1,1,7-7A7,7,0,0,1,13.5,41.69Zm0-12a5,5,0,1,0,5,5A5,5,0,0,0,13.5,29.69Z"/><path class="cls-4" d="M58.5,41.69a7,7,0,1,1,7-7A7,7,0,0,1,58.5,41.69Zm0-12a5,5,0,1,0,5,5A5,5,0,0,0,58.5,29.69Z"/></g></g></g></svg>