<svg xmlns="http://www.w3.org/2000/svg" viewBox="0 0 72 72"><defs><style>.cls-1{opacity:0;}.cls-2{fill:#fbb03b;}.cls-3{fill:#2e527c;}.cls-4{fill:#f90;}</style></defs><g id="图层_2" data-name="图层 2"><g id="图层_1-2" data-name="图层 1"><g id="Frame228"><g class="cls-1"><rect class="cls-2" width="72" height="72"/></g><path class="cls-3" d="M43.16,43.16h9.17A5.12,5.12,0,0,0,57.45,38V19.67a5.12,5.12,0,0,0-5.12-5.12H34a5.12,5.12,0,0,0-5.12,5.12v9.16H19.67A5.14,5.14,0,0,0,14.55,34V52.32a5.12,5.12,0,0,0,5.12,5.13H38a5.12,5.12,0,0,0,5.12-5.12Zm-2.08,9.17a3.06,3.06,0,0,1-3,3H19.67a3.06,3.06,0,0,1-3-3V34a3,3,0,0,1,.89-2.15,3,3,0,0,1,2.15-.89h9.16V38A5.12,5.12,0,0,0,34,43.16h7.12ZM34,41.08a3,3,0,0,1-3-3V19.67a3,3,0,0,1,.89-2.15h0A3,3,0,0,1,34,16.63H52.33a3,3,0,0,1,2.15.89,3,3,0,0,1,.89,2.15V38a3,3,0,0,1-3,3Z"/><path class="cls-4" d="M49,37H38a2,2,0,0,1-2-2V24a2,2,0,0,1,2-2H49a2,2,0,0,1,2,2V35A2,2,0,0,1,49,37ZM38,24h0V35H49V24Z"/></g></g></g></svg>