<svg xmlns="http://www.w3.org/2000/svg" xmlns:xlink="http://www.w3.org/1999/xlink" viewBox="0 0 72 72"><defs><style>.cls-1{fill:none;}.cls-2{opacity:0;}.cls-3{fill:#fbb03b;}.cls-4{clip-path:url(#clip-path);}.cls-5{fill:#2e527c;}.cls-6{fill:#f90;}</style><clipPath id="clip-path"><rect class="cls-1" x="12" y="12" width="48" height="48"/></clipPath></defs><g id="图层_2" data-name="图层 2"><g id="图层_1-2" data-name="图层 1"><g id="Frame180"><g class="cls-2"><rect class="cls-3" width="72" height="72"/></g><g class="cls-4"><path class="cls-5" d="M56.13,29.47,48.62,37l-2.13-2.14L54,27.34c2.87-2.87,3.15-7.35.52-10s-7.12-2.35-10,.52L37,25.38l-2.13-2.13,7.51-7.52h0c4.16-4.15,10.58-4.39,14.36-.62s3.54,10.21-.62,14.36Zm-28.26,24h0l7.37-7.38,2.14,2.14L30,55.61h0c-4.16,4.15-10.59,4.39-14.36.62h0c-3.78-3.78-3.54-10.21.62-14.36l7.38-7.38,2.13,2.13L18.39,44c-2.87,2.87-3.15,7.36-.52,10S25,56.35,27.87,53.47ZM13.61,32h0a1.23,1.23,0,0,1-1.26-1.26h0a1.36,1.36,0,0,1,1.34-1.33l8.47-.16h0a1.22,1.22,0,0,1,1.26,1.26,1.38,1.38,0,0,1-1.34,1.33Zm4.23-12.3h0a1.32,1.32,0,0,1,1.87-1.87h0l5.88,5.87h0a1.31,1.31,0,0,1,0,1.84,1.38,1.38,0,0,1-.93.4,1.25,1.25,0,0,1-.9-.36h0Zm11.42,2.44h0l.15-8.46a1.38,1.38,0,0,1,1.34-1.34h0A1.23,1.23,0,0,1,32,13.61h0l-.16,8.47h0a1.36,1.36,0,0,1-1.34,1.33A1.22,1.22,0,0,1,29.26,22.15ZM40,58.37h0l.16-8.47a1.36,1.36,0,0,1,1.33-1.33h0a1.22,1.22,0,0,1,1.26,1.25h0l-.16,8.47h0a1.38,1.38,0,0,1-1.33,1.34A1.23,1.23,0,0,1,40,58.37Zm6.42-10.11h0a1.32,1.32,0,0,1,1.87-1.87l5.88,5.88a1.3,1.3,0,0,1,0,1.83h0a1.33,1.33,0,0,1-.92.4,1.21,1.21,0,0,1-.91-.36h0Zm3.43-5.54h0a1.23,1.23,0,0,1-1.26-1.26,1.38,1.38,0,0,1,1.33-1.33h0L58.37,40h0a1.22,1.22,0,0,1,1.25,1.26,1.36,1.36,0,0,1-1.33,1.33Z"/><path class="cls-6" d="M30,43.1a1.06,1.06,0,0,1-.76-.31,1.09,1.09,0,0,1,0-1.55l14-14.5a1.1,1.1,0,1,1,1.58,1.52l-14,14.5A1.08,1.08,0,0,1,30,43.1Z"/></g></g></g></g></svg>