<svg xmlns="http://www.w3.org/2000/svg" viewBox="0 0 72 72"><defs><style>.cls-1{opacity:0;}.cls-2{fill:#fbb03b;}.cls-3{fill:#f90;}.cls-4{fill:#2e527c;}</style></defs><g id="图层_2" data-name="图层 2"><g id="图层_1-2" data-name="图层 1"><g id="Frame221"><g class="cls-1"><rect class="cls-2" width="72" height="72"/></g><path class="cls-3" d="M26.2,39.78c.11,1,.4,4.34,2.44,6,2.38,2,4,1,5.15-2C30.4,45.64,26.2,39.78,26.2,39.78Zm11.91,4c1.18,3,2.76,4,5.15,2,2-1.69,2.33-5,2.43-6C45.69,39.78,41.5,45.64,38.11,43.82Zm18.33,7.9L61,46.61a1.21,1.21,0,0,0-.1-1.72l-.66-.6a1.23,1.23,0,0,0-1.72.1L54,49.5l-5.1-4.57a1.22,1.22,0,0,0-1.73.1l-.59.66a1.21,1.21,0,0,0,.1,1.72L51.73,52l-4.56,5.1a1.23,1.23,0,0,0,.09,1.73l.66.59a1.22,1.22,0,0,0,1.73-.1l4.56-5.1,5.11,4.57a1.23,1.23,0,0,0,1.72-.1l.6-.66a1.24,1.24,0,0,0-.1-1.73Z"/><path class="cls-4" d="M61.1,42.29A25.88,25.88,0,1,0,36,61.88,25.65,25.65,0,0,0,45.69,60v0l.08,0a3.42,3.42,0,0,1-.58-1.36l-.33,0,0-.37a23.84,23.84,0,0,1-21.68-2.08l-.37-.23V43.67a13.43,13.43,0,0,1,26.83-.78,3.61,3.61,0,0,1,1.07.68l.94.84v-.74a15.43,15.43,0,0,0-3.52-9.81l-.22-.26,0-.34a12.44,12.44,0,0,0-.12-3.39,8.53,8.53,0,0,0-1-2.85,4.39,4.39,0,0,1-2.35,3.19l-.37.18-.36-.2a15.66,15.66,0,0,0-14.9,0l-.37.2L28,30.17A4.47,4.47,0,0,1,25.75,27a8.53,8.53,0,0,0-1,2.72,12,12,0,0,0-.15,3.41l0,.33-.22.26a15.43,15.43,0,0,0-3.63,9.93V54.5l-1.36-1.3A23.89,23.89,0,1,1,59.89,36a24,24,0,0,1-.76,6A3.94,3.94,0,0,1,61.1,42.29Z"/></g></g></g></svg>