<svg xmlns="http://www.w3.org/2000/svg" viewBox="0 0 72 72"><defs><style>.cls-1{opacity:0;}.cls-2{fill:#fbb03b;}.cls-3{fill:#2e527c;}.cls-4{fill:#f90;}</style></defs><g id="图层_2" data-name="图层 2"><g id="图层_1-2" data-name="图层 1"><g id="Frame185"><g class="cls-1"><rect class="cls-2" width="72" height="72"/></g><path class="cls-3" d="M50.13,40.65l.09-.16L60.8,20.24h0A4,4,0,0,1,58,19.15l-10.44,20-.09.17-.18,0a4.24,4.24,0,0,0-.88-.09,5.21,5.21,0,0,0-3,1l-.15.11-.15-.12L31.76,31.18s0,0,0,.06a4,4,0,0,1-1.16,2.82l10.71,8.46.14.11-.05.17a5.44,5.44,0,0,0-.3,1.71,5.33,5.33,0,0,0,10.66,0,5.46,5.46,0,0,0-1.51-3.73Zm-3.69,6.56a2.73,2.73,0,1,1,2.73-2.73A2.73,2.73,0,0,1,46.44,47.21Z"/><path class="cls-3" d="M25.22,34.31A4,4,0,0,1,23.85,32l-.33-.28L13.77,43.13l-.12.13-.16-.06a5.1,5.1,0,0,0-1.93-.36,5.33,5.33,0,1,0,5.33,5.33A5.24,5.24,0,0,0,16,45.3l-.1-.16.12-.14ZM11.56,50.9a2.73,2.73,0,1,1,2.73-2.73A2.74,2.74,0,0,1,11.56,50.9Z"/><path class="cls-3" d="M13.49,16.58h-.25V37.1a1.68,1.68,0,0,1-3.35,0V16.86a3.54,3.54,0,0,1,3.63-3.44H50.28A1.63,1.63,0,0,1,52,15a1.66,1.66,0,0,1-1.71,1.58ZM60,57.6h.25V29.7a1.62,1.62,0,0,1,1.67-1.58,1.65,1.65,0,0,1,1.7,1.61V57.32A3.53,3.53,0,0,1,60,60.76H15.44a1.63,1.63,0,0,1-1.7-1.58,1.65,1.65,0,0,1,1.7-1.58Z"/><path class="cls-4" d="M27.77,36.24a5,5,0,1,1,5-5A5,5,0,0,1,27.77,36.24Zm0-8a3,3,0,1,0,3,3A3,3,0,0,0,27.77,28.24Z"/><path class="cls-4" d="M60.77,21.24a5,5,0,1,1,5-5A5,5,0,0,1,60.77,21.24Zm0-8a3,3,0,1,0,3,3A3,3,0,0,0,60.77,13.24Z"/></g></g></g></svg>