<svg xmlns="http://www.w3.org/2000/svg" viewBox="0 0 72 72"><defs><style>.cls-1{opacity:0;}.cls-2{fill:#fbb03b;}.cls-3{fill:#f90;}.cls-4{fill:#2e527c;}</style></defs><g id="图层_2" data-name="图层 2"><g id="图层_1-2" data-name="图层 1"><g id="Frame223"><g class="cls-1"><rect class="cls-2" width="72" height="72"/></g><path class="cls-3" d="M42,46.37H30L24,36,30,25.6H42L48,36ZM31.29,44.12h9.39L45.38,36l-4.7-8.14H31.29L26.59,36Z"/><path class="cls-4" d="M62.7,26.92,56.93,16.58h-10L41.77,7.5H30.23l-5.1,9.08H15.07L9.3,26.92,14.48,36,9.3,45.08l5.77,10.34H25.13l5.1,9.08H41.77l5.11-9.08h10L62.7,45.08,57.52,36ZM60.15,45.08l-4.58,8H47l-4.32-7.84L42,46.37H40.33l4.6,7.85-4.58,8h-8.7l-4.58-8,4.6-7.85H30l-.56-.95-4.3,7.68h-8.7l-4.58-8,4.5-8h8.3L24,36l.64-1.11h-8.2l-4.58-8,4.58-8h8.7l4.3,7.67.56-1h1.66l-4.58-7.9,4.58-7.87h8.7l4.58,7.87-4.58,7.9H42l.58,1L47,18.9h8.7l4.5,8-4.5,8H47.34L48,36l-.66,1.13h8.25Z"/></g></g></g></svg>