<svg xmlns="http://www.w3.org/2000/svg" viewBox="0 0 72 72"><defs><style>.cls-1{opacity:0;}.cls-2{fill:#fbb03b;}.cls-3{fill:#f90;}.cls-4{fill:#2e527c;}</style></defs><g id="图层_2" data-name="图层 2"><g id="图层_1-2" data-name="图层 1"><g id="Frame236"><g class="cls-1"><rect class="cls-2" width="72" height="72"/></g><g id="Frame236-2" data-name="Frame236"><path class="cls-3" d="M36.14,29a1,1,0,0,1-.76-.35l-14.5-17a1,1,0,0,1,1.52-1.3L36.14,26.48,49.88,10.37a1,1,0,0,1,1.52,1.3l-14.5,17A1,1,0,0,1,36.14,29Z"/><path class="cls-4" d="M37,62.49a4,4,0,0,0,3.22-1.65h0l0-.05L62.62,30.58a4.15,4.15,0,0,0,.13-4.94L52.93,11.29a4.17,4.17,0,0,0-3.37-1.81h-27a4.17,4.17,0,0,0-3.37,1.81L9.25,25.88a4,4,0,0,0,.12,4.82l24.4,30.22-.11.1h0l.12-.09A4,4,0,0,0,37,62.49Zm-26.22-33a2.53,2.53,0,0,1,0-2.5L21,12v.09a2.13,2.13,0,0,1,1.52-.59h27a1.92,1.92,0,0,1,1.68.93l9.85,14.51h0a2.26,2.26,0,0,1-.19,2.47L38.57,59.6a1.94,1.94,0,0,1-1.67.9,2.09,2.09,0,0,1-1.66-.89Z"/><rect class="cls-4" x="9.64" y="28.02" width="53" height="2"/><path class="cls-4" d="M37.14,62.52a1,1,0,0,1-.9-.57l-15.5-32.5a1,1,0,1,1,1.8-.86L37.06,59,49.21,28.65a1,1,0,0,1,1.3-.56,1,1,0,0,1,.56,1.3l-13,32.5a1,1,0,0,1-.9.63Z"/></g></g></g></g></svg>