<svg xmlns="http://www.w3.org/2000/svg" viewBox="0 0 72 72"><defs><style>.cls-1{opacity:0;}.cls-2{fill:#fbb03b;}.cls-3{fill:#2e527c;}.cls-4{fill:#f90;}</style></defs><g id="图层_2" data-name="图层 2"><g id="图层_1-2" data-name="图层 1"><g id="Frame199"><g class="cls-1"><rect class="cls-2" width="72" height="72"/></g><path class="cls-3" d="M19.66,49.45a23.81,23.81,0,0,0,10.67,8.91,23.5,23.5,0,0,0,25.9-5.24,24.51,24.51,0,0,0,0-34.24h0A23.27,23.27,0,0,0,39.77,11.8H10.26a1.22,1.22,0,0,0-.46.09,1.41,1.41,0,0,0-.4.27,1.3,1.3,0,0,0,0,1.8,1.41,1.41,0,0,0,.4.27,1.22,1.22,0,0,0,.46.09H39.42a21.68,21.68,0,0,1,0,43.36A21.53,21.53,0,0,1,18.1,36v-.8H24a1.21,1.21,0,0,0,.87-.37,1.27,1.27,0,0,0,.36-.89,1.19,1.19,0,0,0-.1-.49,1.36,1.36,0,0,0-.26-.41,1.18,1.18,0,0,0-.4-.27,1.27,1.27,0,0,0-.47-.09H10a1.27,1.27,0,0,0-.47.09,1.18,1.18,0,0,0-.4.27,1.36,1.36,0,0,0-.26.41,1.16,1.16,0,0,0-.1.49,1.27,1.27,0,0,0,.36.89,1.19,1.19,0,0,0,.87.37h5.62V36A24.4,24.4,0,0,0,19.66,49.45Z"/><path class="cls-4" d="M50.46,39.9a1.2,1.2,0,0,0,.45-.09,1.22,1.22,0,0,0,.38-.26,1.25,1.25,0,0,0,.25-.38,1.13,1.13,0,0,0,.09-.45,1.12,1.12,0,0,0-.09-.44,1.25,1.25,0,0,0-.25-.38,1.22,1.22,0,0,0-.38-.26,1.2,1.2,0,0,0-.45-.09H39.85V23.78a1.19,1.19,0,0,0-.34-.83,1.22,1.22,0,0,0-.83-.34,1.14,1.14,0,0,0-.82.35,1.2,1.2,0,0,0-.35.82V38.72a1.21,1.21,0,0,0,.35.83,1.18,1.18,0,0,0,.83.35Z"/><path class="cls-4" d="M28,22a1.22,1.22,0,0,0-.38-.26,1.13,1.13,0,0,0-.45-.09H12.22a1.2,1.2,0,0,0-.45.09,1.22,1.22,0,0,0-.38.26,1,1,0,0,0-.25.38,1.12,1.12,0,0,0-.09.44A1.18,1.18,0,0,0,12.22,24H27.16a1.18,1.18,0,0,0,1.17-1.18,1.12,1.12,0,0,0-.09-.44A1,1,0,0,0,28,22Z"/></g></g></g></svg>