<svg xmlns="http://www.w3.org/2000/svg" xmlns:xlink="http://www.w3.org/1999/xlink" viewBox="0 0 72 72"><defs><style>.cls-1{fill:none;}.cls-2{opacity:0;}.cls-3{fill:#fbb03b;}.cls-4{clip-path:url(#clip-path);}.cls-5{fill:#2e527c;}.cls-6{fill:#f90;}</style><clipPath id="clip-path"><rect class="cls-1" x="9" y="9" width="54" height="54"/></clipPath></defs><g id="图层_2" data-name="图层 2"><g id="图层_1-2" data-name="图层 1"><g id="Frame238"><g class="cls-2"><rect class="cls-3" width="72" height="72"/></g><g class="cls-4"><path class="cls-5" d="M54,61.73H18a9,9,0,0,1-9-9V19.29a9,9,0,0,1,9-9H54a9,9,0,0,1,9,9V52.72A9,9,0,0,1,54,61.73ZM18,12.85a6.45,6.45,0,0,0-6.43,6.44V52.72A6.44,6.44,0,0,0,18,59.15H54a6.44,6.44,0,0,0,6.43-6.43V19.29A6.44,6.44,0,0,0,54,12.86H18Z"/><path class="cls-6" d="M52.43,25.71H47.29a1.27,1.27,0,0,1-1.11-.64,1.21,1.21,0,0,1-.18-.64,1.25,1.25,0,0,1,.18-.65,1.28,1.28,0,0,1,1.11-.64h5.14a1.31,1.31,0,0,1,1.12.64,1.34,1.34,0,0,1,.17.65,1.3,1.3,0,0,1-.17.64A1.29,1.29,0,0,1,52.43,25.71Zm0,15.44H47.29a1.3,1.3,0,0,1-1.17-.63,1.26,1.26,0,0,1-.18-.66,1.28,1.28,0,0,1,.18-.66,1.26,1.26,0,0,1,.5-.47,1.29,1.29,0,0,1,.67-.15h5.14a1.28,1.28,0,0,1,.5,2.47A1.44,1.44,0,0,1,52.43,41.15Zm0-7.72H47.29a1.27,1.27,0,0,1-1.17-.62,1.28,1.28,0,0,1-.18-.66,1.26,1.26,0,0,1,.18-.66,1.3,1.3,0,0,1,1.17-.63h5.14a1.29,1.29,0,0,1,.92,2.2A1.31,1.31,0,0,1,52.43,33.43Zm0,15.44H47.29a1.29,1.29,0,1,1,0-2.58h5.14a1.32,1.32,0,0,1,.92.38,1.3,1.3,0,0,1,0,1.82A1.32,1.32,0,0,1,52.43,48.87ZM22.16,47.58A3.37,3.37,0,0,1,19,44V28a3.35,3.35,0,0,1,3.13-3.6,3.16,3.16,0,0,1,1.7.52l12.19,8a3.54,3.54,0,0,1,1.59,3A3.71,3.71,0,0,1,36,39.09l-12.09,8A3.24,3.24,0,0,1,22.16,47.58Zm0-20.58c-.26,0-.56.42-.56,1V44c0,.62.3,1,.59,1a.54.54,0,0,0,.3-.1l12.08-8a1.09,1.09,0,0,0,.37-.43A1.06,1.06,0,0,0,35,36a1,1,0,0,0-.41-.87l-12.2-8A.49.49,0,0,0,22.13,27Z"/></g></g></g></g></svg>