<svg xmlns="http://www.w3.org/2000/svg" viewBox="0 0 72 72"><defs><style>.cls-1{opacity:0;}.cls-2{fill:#fbb03b;}.cls-3{fill:#2e527c;}.cls-4{fill:#f90;}</style></defs><g id="图层_2" data-name="图层 2"><g id="图层_1-2" data-name="图层 1"><g id="Frame229"><g class="cls-1"><rect class="cls-2" width="72" height="72"/></g><path class="cls-3" d="M54.06,18.05h0A25.22,25.22,0,0,0,36.14,10.5a1.17,1.17,0,0,0,0,2.34A23.08,23.08,0,0,1,59.06,36a23.47,23.47,0,0,1-12,20.08l-.24.13-.5.27-.6.3-.46-1.22-.12.24-.06-.26-2.42,3.7h0l-.15.23,4.62,1.14L46.54,59l.5-.24A25.55,25.55,0,0,0,61.4,36,25.24,25.24,0,0,0,54.06,18.05Z"/><path class="cls-3" d="M37,60.34a1.2,1.2,0,0,0-1.17-1.18h-.3v-.3A22.78,22.78,0,0,1,13.25,36,23.14,23.14,0,0,1,25,16.2l-.15-.26.18-.1.64-.35.26-.13.3-.26.49,1.3,0,0,.08.21,2.51-3.83h0l.15-.24L25,11.42l.07.14-.18-.06L25.46,13l-.5.24A25.6,25.6,0,0,0,10.6,36,25.42,25.42,0,0,0,35.85,61.5,1.17,1.17,0,0,0,37,60.34Z"/><path class="cls-4" d="M39.58,29.16a1.17,1.17,0,0,0-1.17,1.17V41.66a1.17,1.17,0,1,0,2.34,0V30.33A1.17,1.17,0,0,0,39.58,29.16Z"/><path class="cls-4" d="M46.74,33.15a1.18,1.18,0,0,0-1.18,1.17v3.35a1.18,1.18,0,0,0,2.35,0V34.32A1.18,1.18,0,0,0,46.74,33.15Z"/><path class="cls-4" d="M25.26,33.15a1.18,1.18,0,0,0-1.17,1.17v3.35a1.17,1.17,0,0,0,2.34,0V34.32A1.17,1.17,0,0,0,25.26,33.15Z"/><path class="cls-4" d="M32.42,26.52a1.17,1.17,0,0,0-1.17,1.17V44.31a1.17,1.17,0,1,0,2.34,0V27.69A1.18,1.18,0,0,0,32.42,26.52Z"/></g></g></g></svg>