<svg xmlns="http://www.w3.org/2000/svg" viewBox="0 0 72 72"><defs><style>.cls-1{opacity:0;}.cls-2{fill:#fbb03b;}.cls-3{fill:#f90;}.cls-4{fill:#2e527c;}</style></defs><g id="图层_2" data-name="图层 2"><g id="图层_1-2" data-name="图层 1"><g id="Frame193"><g class="cls-1"><rect class="cls-2" width="72" height="72"/></g><path class="cls-3" d="M23.29,49a1,1,0,0,1-.65-.24,1,1,0,0,1-.35-.76V38a1,1,0,0,1,.24-.65L41,15.85a1,1,0,0,1,1.4-.11l4.18,3.51C49.19,15.9,52.33,15,53.79,15c.88,0,3.85.19,5.22,2.65,1.24,2.22.61,5.38-1.87,9.38-4.78,7.72-2.22,13-.2,14.71a1,1,0,0,1-1.3,1.53c-2.47-2.1-5.7-8.41-.2-17.29,2-3.3,2.67-5.84,1.82-7.36A4,4,0,0,0,53.79,17c-.83,0-3.45.64-5.65,3.54l3.79,3.2a1,1,0,0,1,.13,1.41l-18.5,22a1.07,1.07,0,0,1-.61.34L23.45,49Zm1-10.63v8.46l8-1.26L49.88,24.62l-8-6.72Z"/><path class="cls-4" d="M12.38,57.43a1,1,0,0,0,1,1H56.22a1,1,0,0,0,1-1V49.3H54.52v6.43H15.06V16.27H32.2V13.58H13.36a1,1,0,0,0-1,1Z"/></g></g></g></svg>