<svg xmlns="http://www.w3.org/2000/svg" viewBox="0 0 72 72"><defs><style>.cls-1{opacity:0;}.cls-2{fill:#fbb03b;}.cls-3{fill:#2e527c;}.cls-4{fill:#f90;}</style></defs><g id="图层_2" data-name="图层 2"><g id="图层_1-2" data-name="图层 1"><g id="Frame237"><g class="cls-1"><rect class="cls-2" width="72" height="72"/></g><path class="cls-3" d="M15,9.75v52.5H57V9.75Zm6.3,50.4H17.1V56h4.2Zm0-6.3H17.1v-4.2h4.2Zm0-6.3H17.1v-4.2h4.2Zm0-6.3H17.1v-4.2h4.2Zm0-6.3H17.1v-4.2h4.2Zm0-6.3H17.1v-4.2h4.2Zm0-6.3H17.1v-4.2h4.2Zm0-6.3H17.1v-4.2h4.2Zm27.3,44.1H23.4V37.05H48.6Zm0-25.2H23.4V11.85H48.6Zm6.3,25.2H50.7V56h4.2Zm0-6.3H50.7v-4.2h4.2Zm0-6.3H50.7v-4.2h4.2Zm0-6.3H50.7v-4.2h4.2Zm0-6.3H50.7v-4.2h4.2Zm0-6.3H50.7v-4.2h4.2Zm0-6.3H50.7v-4.2h4.2Zm0-6.3H50.7v-4.2h4.2Z"/><rect class="cls-4" x="27" y="22" width="18" height="2"/><rect class="cls-4" x="27" y="46" width="18" height="2"/></g></g></g></svg>