<svg xmlns="http://www.w3.org/2000/svg" viewBox="0 0 72 72"><defs><style>.cls-1{opacity:0;}.cls-2{fill:#fbb03b;}.cls-3{fill:#2e527c;}.cls-4{fill:#f90;}</style></defs><g id="图层_2" data-name="图层 2"><g id="图层_1-2" data-name="图层 1"><g id="Frame184"><g class="cls-1"><rect class="cls-2" width="72" height="72"/></g><path class="cls-3" d="M36.13,11.39,36,11.34l-.13.05-20.71,6.9-.27.09v17a21.12,21.12,0,0,0,8.61,17h0l.77.54h0l11.49,7.65.22.15.22-.15,11.49-7.65h0A21.12,21.12,0,0,0,57.09,36.3h0l0-.94h0v-17l-.27-.09ZM12.94,15.91l-.13-.38.13.38,22-7.34a3.34,3.34,0,0,1,2.12,0l22,7.34a1.47,1.47,0,0,1,1,1.4v18a24.1,24.1,0,0,1-10.73,20L37.87,63h0a3.35,3.35,0,0,1-3.74,0h0L22.65,55.38a24.1,24.1,0,0,1-10.73-20v-18A1.47,1.47,0,0,1,12.94,15.91Z"/><path class="cls-4" d="M49.5,25.14a1.35,1.35,0,0,0-1.91-.08L32,40.13l-7.51-8.3a1.35,1.35,0,1,0-2,1.82l8.39,9.28.22.19A1.35,1.35,0,0,0,32.82,43l16.6-16A1.36,1.36,0,0,0,49.5,25.14Z"/></g></g></g></svg>