<svg xmlns="http://www.w3.org/2000/svg" xmlns:xlink="http://www.w3.org/1999/xlink" viewBox="0 0 72 72"><defs><style>.cls-1{fill:none;}.cls-2{opacity:0;}.cls-3{fill:#fbb03b;}.cls-4{fill:#2e527c;}.cls-5{clip-path:url(#clip-path);}.cls-6{fill:#f90;}</style><clipPath id="clip-path"><rect class="cls-1" x="19" y="16" width="34" height="34"/></clipPath></defs><g id="图层_2" data-name="图层 2"><g id="图层_1-2" data-name="图层 1"><g id="Frame166"><g class="cls-2"><rect class="cls-3" width="72" height="72"/></g><path class="cls-4" d="M61.2,35.3V16.14A1.2,1.2,0,0,0,60.38,15L37,7.21a3.17,3.17,0,0,0-2,0L11.62,15a1.21,1.21,0,0,0-.82,1.14V35.3A25.13,25.13,0,0,0,22,56.27l.33.23,11.87,7.91a3.2,3.2,0,0,0,3.56,0L50,56.27A25.13,25.13,0,0,0,61.2,35.3ZM36,62.71l-13.48-9A22.88,22.88,0,0,1,13.19,35.3V17L36,9.41,58.8,17l0,19.31a22.89,22.89,0,0,1-10.13,18Z"/><g class="cls-5"><path class="cls-6" d="M36,47.75a14.79,14.79,0,0,1-10.42-4.32,14.92,14.92,0,0,1-3.16-4.69,14.76,14.76,0,0,1,0-11.47,14.76,14.76,0,0,1,3.16-4.68,14.71,14.71,0,0,1,20.84,0A14.67,14.67,0,0,1,50.73,33a14.6,14.6,0,0,1-1.16,5.73,14.92,14.92,0,0,1-3.16,4.69,14.68,14.68,0,0,1-4.68,3.15A14.48,14.48,0,0,1,36,47.75Zm0-27a12.33,12.33,0,1,0,8.7,3.61A12.19,12.19,0,0,0,36,20.7Z"/><path class="cls-6" d="M36,23.6a1.22,1.22,0,0,0,1.22-1.22V17.23a1.22,1.22,0,1,0-2.43,0v5.15A1.21,1.21,0,0,0,36,23.6Zm0,18.82a1.21,1.21,0,0,0-1.21,1.21v5.16a1.21,1.21,0,0,0,2.42,0V43.63A1.21,1.21,0,0,0,36,42.42ZM26.58,33a1.21,1.21,0,0,0-1.21-1.22H20.21a1.22,1.22,0,0,0,0,2.43h5.16A1.21,1.21,0,0,0,26.58,33ZM45.4,33a1.21,1.21,0,0,0,1.21,1.21h5.16a1.22,1.22,0,0,0,0-2.43H46.61A1.22,1.22,0,0,0,45.4,33Z"/></g><circle class="cls-4" cx="35.99" cy="33.13" r="3.87"/></g></g></g></svg>