<svg xmlns="http://www.w3.org/2000/svg" viewBox="0 0 72 72"><defs><style>.cls-1{opacity:0;}.cls-2{fill:#fbb03b;}.cls-3{fill:#2e527c;}.cls-4{fill:#f90;}</style></defs><g id="图层_2" data-name="图层 2"><g id="图层_1-2" data-name="图层 1"><g id="Frame170"><g class="cls-1"><rect class="cls-2" width="72" height="72"/></g><path class="cls-3" d="M27.39,21.76c-1.93.24-4.81,1.52-7.91,3.51A4.83,4.83,0,0,0,18,26.66a4.45,4.45,0,0,0-.71,3.39,4.54,4.54,0,0,0,2,3l2.29,1.45a5.52,5.52,0,0,1,2.19,4.3,9.08,9.08,0,0,0,2.89,6.33A9.75,9.75,0,0,0,33,48a5.51,5.51,0,0,1,4.13,2.28l1.6,2.46a4.4,4.4,0,0,0,3.8,2h.36a4.52,4.52,0,0,0,3.8-2.16,41.68,41.68,0,0,0,2.54-4.79,10.63,10.63,0,0,0,1-3.44,4.41,4.41,0,0,1,1.49-2.86C59.77,34,62,21.33,62.58,14.48a4.37,4.37,0,0,0-1.31-3.7A4.75,4.75,0,0,0,58,9.4h-.34c-6.88.6-19.58,2.8-27.33,10.89A4.44,4.44,0,0,1,27.39,21.76ZM45,13.86a56.3,56.3,0,0,1,12.63-2.41h.3a2.88,2.88,0,0,1,2,1,2.43,2.43,0,0,1,.5,1.81c-.75,7.94-3.17,18.9-10.41,25.91A6,6,0,0,0,48,44.27c-.24,1.72-1.34,4.14-3.26,7.25a2.49,2.49,0,0,1-2.14,1.25,2.88,2.88,0,0,1-2.22-1.17L38.67,49A7.36,7.36,0,0,0,32.94,46a8.35,8.35,0,0,1-4.89-2.41,7.88,7.88,0,0,1-2.29-5,7.38,7.38,0,0,0-3.15-5.93L20,31a1.71,1.71,0,0,1-.42-.5,2.58,2.58,0,0,1-.38-2,2.47,2.47,0,0,1,1.15-1.6c3-1.83,5.42-2.89,7.08-3.12a6.37,6.37,0,0,0,4.24-2.05A31.72,31.72,0,0,1,45,13.86Z"/><path class="cls-3" d="M16.67,57.6A2.23,2.23,0,0,1,14.53,56a2.34,2.34,0,0,1-.13-.76,1.35,1.35,0,0,1,.13-.62h0a17.77,17.77,0,0,1,3.23-7l.11-.12c2.47-2.41,5.67-2.31,7.34-.83,1.84,1.87,1.47,5.09-.8,7.38a16.22,16.22,0,0,1-7.12,3.47A2.27,2.27,0,0,1,16.67,57.6Zm-.26-2.31s0,0,0,0l0,.1a.22.22,0,0,0,.29.16l.12,0a14.18,14.18,0,0,0,6.19-3c1.57-1.59,1.65-3.56.77-4.45s-2.91-.76-4.51.76A15.51,15.51,0,0,0,16.49,55Zm-.09.19h0Z"/><path class="cls-3" d="M11.67,46.6A2.23,2.23,0,0,1,9.53,45a2.34,2.34,0,0,1-.13-.76,1.35,1.35,0,0,1,.13-.62h0a17.77,17.77,0,0,1,3.23-7l.11-.12c2.47-2.41,5.67-2.31,7.34-.83,1.84,1.87,1.47,5.09-.8,7.38a16.22,16.22,0,0,1-7.12,3.47A2.27,2.27,0,0,1,11.67,46.6Zm-.26-2.31s0,0,0,0l0,.1a.22.22,0,0,0,.29.16l.12,0a14.18,14.18,0,0,0,6.19-3c1.57-1.59,1.65-3.56.77-4.45s-2.91-.76-4.51.76A15.51,15.51,0,0,0,11.49,44Zm-.09.19h0Z"/><path class="cls-3" d="M27.67,62.6A2.23,2.23,0,0,1,25.53,61a2.34,2.34,0,0,1-.13-.76,1.35,1.35,0,0,1,.13-.62h0a17.77,17.77,0,0,1,3.23-7l.11-.12c2.47-2.41,5.67-2.31,7.34-.83,1.84,1.87,1.47,5.09-.8,7.38a16.22,16.22,0,0,1-7.12,3.47A2.27,2.27,0,0,1,27.67,62.6Zm-.26-2.31s0,0,0,0l0,.1a.22.22,0,0,0,.29.16l.12,0a14.18,14.18,0,0,0,6.19-3c1.57-1.59,1.65-3.56.77-4.45s-2.91-.76-4.51.76A15.51,15.51,0,0,0,27.49,60Zm-.09.19h0Z"/><path class="cls-4" d="M44.4,34.6a7,7,0,0,1-2.68-.53,7,7,0,0,1-2.27-11.42,7,7,0,0,1,2.27-1.52,7.06,7.06,0,0,1,5.36,0,6.9,6.9,0,0,1,1.43.8l.06-.06,1.56,1.56-.06.06a7.39,7.39,0,0,1,.8,1.43,7,7,0,0,1,0,5.36,7,7,0,0,1-3.79,3.79A7,7,0,0,1,44.4,34.6Zm0-11.8a4.86,4.86,0,0,0-1.84.36,4.87,4.87,0,0,0-2.6,2.6,4.86,4.86,0,0,0-.36,1.84,4.82,4.82,0,0,0,3,4.43,4.79,4.79,0,0,0,3.68,0,4.65,4.65,0,0,0,1.55-1A4.69,4.69,0,0,0,49.2,27.6h0a4.86,4.86,0,0,0-.36-1.84,5.09,5.09,0,0,0-1-1.55h0a4.85,4.85,0,0,0-3.39-1.4Z"/></g></g></g></svg>