<svg xmlns="http://www.w3.org/2000/svg" viewBox="0 0 72 72"><defs><style>.cls-1{opacity:0;}.cls-2{fill:#fbb03b;}.cls-3{fill:#2e527c;}.cls-4{fill:#f90;}</style></defs><g id="图层_2" data-name="图层 2"><g id="图层_1-2" data-name="图层 1"><g id="Frame165"><g class="cls-1"><rect class="cls-2" width="72" height="72"/></g><path class="cls-3" d="M37.72,64.33l12.21-8.14A25,25,0,0,0,61.11,35.3V16.14a1.11,1.11,0,0,0-.76-1L37,7.31a3.13,3.13,0,0,0-2,0L11.65,15.1a1.11,1.11,0,0,0-.76,1V35.3A25.07,25.07,0,0,0,22.07,56.19l.42.28,11.79,7.86A3.08,3.08,0,0,0,37.72,64.33ZM22.46,53.78A23,23,0,0,1,13.1,35.3V16.94L36,9.3l.28.1L58.9,16.94l0,19.38a23,23,0,0,1-10.17,18L36,62.83Z"/><path class="cls-4" d="M22,25v3.5L19,30l9.5,2Z"/><path class="cls-4" d="M52.31,30.1l-3-1.75.2-3.35L43,32.23Z"/><path class="cls-4" d="M32.59,50.13l3-1.75,2.8,1.85-3-9.23Z"/><circle class="cls-3" cx="36" cy="33.86" r="3.87"/><path class="cls-4" d="M41.5,25a1,1,0,0,1-.88-.52l-2.71-5H34.09l-2.71,5a1,1,0,0,1-1.76-1l3-5.5a1,1,0,0,1,.88-.52h5a1,1,0,0,1,.88.52l3,5.5a1,1,0,0,1-.4,1.36A1,1,0,0,1,41.5,25Z"/><path class="cls-4" d="M22,46.68a1,1,0,0,1-.87-.5l-2.5-4.33a1,1,0,0,1,0-1l3.26-5.35a1,1,0,0,1,1.71,1l-3,4.84,1.91,3.3,5.67-.13h0a1,1,0,0,1,0,2L22,46.68Z"/><path class="cls-4" d="M49.26,46.68h0L43,46.53a1,1,0,0,1-1-1,1,1,0,0,1,1-1l5.67.13,1.91-3.3-3-4.84a1,1,0,0,1,1.7-1l3.27,5.35a1,1,0,0,1,0,1l-2.5,4.33A1,1,0,0,1,49.26,46.68Z"/></g></g></g></svg>