<svg xmlns="http://www.w3.org/2000/svg" viewBox="0 0 72 72"><defs><style>.cls-1{opacity:0;}.cls-2{fill:#fbb03b;}.cls-3{fill:#2e527c;}.cls-4{fill:#f90;}</style></defs><g id="图层_2" data-name="图层 2"><g id="图层_1-2" data-name="图层 1"><g id="Frame235"><g class="cls-1"><rect class="cls-2" width="72" height="72"/></g><path class="cls-3" d="M47.62,31.83a1.08,1.08,0,0,0,1.09-1.08V15.65a2.78,2.78,0,0,0-2.79-2.76H13.71a2.79,2.79,0,0,0-2.8,2.76V55.93a2.79,2.79,0,0,0,2.8,2.76h22.1a1.08,1.08,0,1,0,0-2.16H15.41a2.29,2.29,0,0,1-2.3-2.28V17.33a2.29,2.29,0,0,1,2.3-2.28H44.22a2.29,2.29,0,0,1,2.3,2.28V30.75A1.09,1.09,0,0,0,47.62,31.83Z"/><path class="cls-3" d="M40.08,34.61h0a1.1,1.1,0,0,0-.32-.79,1.16,1.16,0,0,0-.81-.33H19.45a1.13,1.13,0,1,0,0,2.25H39A1.14,1.14,0,0,0,40.08,34.61Z"/><path class="cls-3" d="M19.45,45.49H29.2a1.13,1.13,0,1,0,0-2.25H19.45a1.13,1.13,0,1,0,0,2.25Z"/><path class="cls-3" d="M40.08,24.86a1.1,1.1,0,0,0-.32-.79,1.16,1.16,0,0,0-.81-.33H19.45a1.13,1.13,0,1,0,0,2.25H39a1.14,1.14,0,0,0,1.13-1.13Z"/><path class="cls-4" d="M61,42a.84.84,0,0,0-.2-.29.81.81,0,0,0-.29-.19.89.89,0,0,0-.36-.07,9.93,9.93,0,0,0-5.92,2,10,10,0,0,0-5.93-2h0a10,10,0,0,0-5.93,2,9.93,9.93,0,0,0-5.92-2,.82.82,0,0,0-.65.26.91.91,0,0,0-.27.64.92.92,0,0,0,.92.9A8.25,8.25,0,0,1,41,44.67a9.92,9.92,0,0,0,.73,14.18.91.91,0,0,0,1.23,0,9.94,9.94,0,0,0,.77-14.22,8.08,8.08,0,0,1,4.57-1.4h0a8,8,0,0,1,4.56,1.4,9.93,9.93,0,0,0,.77,14.22.94.94,0,0,0,.6.22h0a.91.91,0,0,0,.59-.23,10,10,0,0,0,.77-14.21,8.05,8.05,0,0,1,4.57-1.4.83.83,0,0,0,.34-.07.81.81,0,0,0,.29-.19.92.92,0,0,0,.27-.64A1,1,0,0,0,61,42ZM56.44,51.4A8.13,8.13,0,0,1,54.25,57a8.1,8.1,0,0,1-1.58-8.66,7.75,7.75,0,0,1,1.58-2.45A8.11,8.11,0,0,1,56.44,51.4Zm-11.88,0a8.1,8.1,0,0,1-.62,3.11A7.86,7.86,0,0,1,42.36,57a8.12,8.12,0,0,1-1.57-8.66,7.9,7.9,0,0,1,1.57-2.45A8.07,8.07,0,0,1,44.56,51.4Z"/></g></g></g></svg>