<svg xmlns="http://www.w3.org/2000/svg" viewBox="0 0 72 72"><defs><style>.cls-1{opacity:0;}.cls-2{fill:#fbb03b;}.cls-3{fill:#f90;}.cls-4{fill:#2e527c;}</style></defs><g id="图层_2" data-name="图层 2"><g id="图层_1-2" data-name="图层 1"><g id="Frame162"><g class="cls-1"><rect class="cls-2" width="72" height="72"/></g><path class="cls-3" d="M22,28.19l-2.5-8.73h2l1.45,6.07H23l1.59-6.07h1.73l1.59,6.08H28l1.44-6.08h2L29,28.19h-1.8L25.5,22.48h-.07l-1.66,5.71Zm10.46,0V19.46h5.89V21h-4v2.08H38v1.52H34.29v2.09h4.05v1.52Zm7.35,0V19.46h3.5a4,4,0,0,1,1.6.29,2.14,2.14,0,0,1,1,.79,2,2,0,0,1,.32,1.16,1.76,1.76,0,0,1-.76,1.53,2.25,2.25,0,0,1-.81.34v.09a1.94,1.94,0,0,1,.93.28,2,2,0,0,1,.71.73,2.18,2.18,0,0,1,.28,1.11,2.22,2.22,0,0,1-1.36,2.09,3.88,3.88,0,0,1-1.65.32Zm1.85-1.51h1.5a1.8,1.8,0,0,0,1.13-.29,1,1,0,0,0,.35-.8A1.12,1.12,0,0,0,44,24.52a1.68,1.68,0,0,0-.77-.16H41.64Zm0-3.57H43a1.6,1.6,0,0,0,.67-.13,1.18,1.18,0,0,0,.47-.38,1,1,0,0,0,.17-.59,1,1,0,0,0-.33-.77A1.44,1.44,0,0,0,43,21h-1.4Z"/><path class="cls-3" d="M37.89,55.1a7.78,7.78,0,0,1-5.33,2.37c-6.62,0-12-10.23-12-22.81,0-.14,0-.28,0-.42H18.76c0,.14,0,.28,0,.42,0,13.56,6.2,24.59,13.81,24.59a8.83,8.83,0,0,0,5.33-1.91Z"/><path class="cls-3" d="M44.24,40.05H46a42.84,42.84,0,0,0,.34-5.39v-.42h-1.8c0,.14,0,.28,0,.42A42.72,42.72,0,0,1,44.24,40.05Z"/><path class="cls-4" d="M37.89,56.85a23.07,23.07,0,0,1-4.58.62V49.19h4.58V47.4H33.31V35.32H55.6a23,23,0,0,1-.68,4.73h1.81A24.89,24.89,0,1,0,37.89,58.66Zm-6.08.62a23,23,0,0,1-16.95-8.28h17Zm0-10.07H13.51a22.9,22.9,0,0,1-4-12.08H31.81Zm0-13.86H9.48a23.1,23.1,0,0,1,46.16,0H31.81Z"/><path class="cls-4" d="M63,39.3H38.39a1.26,1.26,0,0,0-1.25,1.25V61.14a1.25,1.25,0,0,0,1.25,1.25H63a1.25,1.25,0,0,0,1.25-1.25V40.55A1.26,1.26,0,0,0,63,39.3Zm-.25,16.09-15.26,0v-4l15.26,0ZM38.64,45.9l15.21,0v4L38.64,50Zm0,5.55H46v4H38.64Zm24.12-1.53H55.35v-4h7.41Zm0-5.55-15.26,0V40.8H62.76ZM46,40.8v3.59H38.64V40.8ZM38.64,56.92l15.21,0v4H38.64Zm16.71,4v-4h7.41v4Z"/></g></g></g></svg>