<svg xmlns="http://www.w3.org/2000/svg" viewBox="0 0 72 72"><defs><style>.cls-1{opacity:0;}.cls-2{fill:#fbb03b;}.cls-3,.cls-5{fill:#2e527c;}.cls-4{fill:#ffa028;}.cls-5{fill-rule:evenodd;}</style></defs><g id="图层_2" data-name="图层 2"><g id="图层_1-2" data-name="图层 1"><g id="Frame242"><g class="cls-1"><rect class="cls-2" width="72" height="72"/></g><path class="cls-3" d="M51.07,23.72H20.93a6.45,6.45,0,0,0-6.43,6.44V52.84a6.44,6.44,0,0,0,6.43,6.43H51a6.54,6.54,0,0,0,6.49-6.44V30.16A6.45,6.45,0,0,0,51.07,23.72Zm4.31,29.12a4.32,4.32,0,0,1-4.31,4.31H20.93a4.32,4.32,0,0,1-4.31-4.31V30.16a4.32,4.32,0,0,1,4.31-4.31H51.07a4.32,4.32,0,0,1,4.31,4.31Z"/><path class="cls-4" d="M35.94,34.13a1.78,1.78,0,0,0-1.8,1.81V47.06a1.81,1.81,0,1,0,3.61,0V35.94A1.78,1.78,0,0,0,35.94,34.13Z"/><path class="cls-5" d="M35.93,14.73a9.55,9.55,0,0,1,9.54,9.08h2a11.5,11.5,0,0,0-23,0h1.89A9.56,9.56,0,0,1,35.93,14.73Z"/></g></g></g></svg>