<svg xmlns="http://www.w3.org/2000/svg" viewBox="0 0 72 72"><defs><style>.cls-1{opacity:0;}.cls-2{fill:#fbb03b;}.cls-3{fill:#2e527c;}.cls-4{fill:#f90;}</style></defs><g id="图层_2" data-name="图层 2"><g id="图层_1-2" data-name="图层 1"><g id="Frame207"><g class="cls-1"><rect class="cls-2" width="72" height="72"/></g><path class="cls-3" d="M36,61.3a1.51,1.51,0,0,0,1.51-1.51V50.07a1.51,1.51,0,1,0-3,0v9.72A1.51,1.51,0,0,0,36,61.3Z"/><path class="cls-3" d="M37.53,12.21a1.51,1.51,0,1,0-3,0V22.67a1.51,1.51,0,1,0,3,0Z"/><path class="cls-3" d="M44.28,27.62a1.54,1.54,0,0,0,2.13,0l7.4-7.4a1.51,1.51,0,0,0-1.07-2.58,1.51,1.51,0,0,0-1.06.44l-7.4,7.4A1.52,1.52,0,0,0,44.28,27.62Z"/><path class="cls-3" d="M20.2,53.87l7.39-7.4A1.52,1.52,0,0,0,28,45.4a1.5,1.5,0,0,0-1.51-1.5,1.53,1.53,0,0,0-1.07.44l-7.39,7.39a1.52,1.52,0,0,0,0,2.14A1.54,1.54,0,0,0,20.2,53.87Z"/><path class="cls-3" d="M20.19,18.16a1.5,1.5,0,0,0-2.12,0,1.5,1.5,0,0,0,0,2.13l7.39,7.4a1.54,1.54,0,0,0,2.13,0,1.51,1.51,0,0,0,0-2.14Z"/><path class="cls-3" d="M10.7,36.08a1.5,1.5,0,0,0,1.51,1.5H22.66a1.51,1.51,0,1,0,0-3H12.21A1.5,1.5,0,0,0,10.7,36.08Z"/><path class="cls-4" d="M61.3,36.08h0A1.47,1.47,0,0,0,60.86,35a1.5,1.5,0,0,0-1.07-.44H49.34a1.51,1.51,0,1,0,0,3H59.79A1.51,1.51,0,0,0,61.3,36.08Z"/><path class="cls-4" d="M44.86,47l6.87,6.88a1.54,1.54,0,0,0,2.13,0,1.48,1.48,0,0,0,.44-1.07,1.46,1.46,0,0,0-.44-1.06h0L47,44.85a1.5,1.5,0,0,0-1.06-.44A1.51,1.51,0,0,0,44.86,47Z"/></g></g></g></svg>