<svg xmlns="http://www.w3.org/2000/svg" viewBox="0 0 72 72"><defs><style>.cls-1{opacity:0;}.cls-2{fill:#fbb03b;}.cls-3{fill:none;}.cls-4{fill:#2e527c;}.cls-5{fill:#f90;}</style></defs><g id="图层_2" data-name="图层 2"><g id="图层_1-2" data-name="图层 1"><g id="Frame239"><g class="cls-1"><rect class="cls-2" width="72" height="72"/></g><rect class="cls-3" x="12" y="12" width="48" height="48"/><path class="cls-4" d="M59.39,48.06V13.61a1,1,0,0,0-1-1H23.93a1,1,0,0,0-1,1V25.23H13.52a1,1,0,0,0-1,1V58.42a1,1,0,0,0,1,1H45.7a1,1,0,0,0,1-1V49.07H58.38A1,1,0,0,0,59.39,48.06Zm-2-1H33.71a1,1,0,0,0,0,2h11v8.34H14.53V27.26h8.38V38.11a1,1,0,0,0,2,0V14.62H57.36Z"/><polygon class="cls-5" points="48.37 25.11 48.37 40.37 50.43 40.37 50.43 21.52 31.59 21.52 31.59 23.58 46.99 23.58 24.49 46.08 25.95 47.53 48.37 25.11"/></g></g></g></svg>