<svg xmlns="http://www.w3.org/2000/svg" viewBox="0 0 72 72"><defs><style>.cls-1{opacity:0;}.cls-2{fill:#fbb03b;}.cls-3{fill:#2e527c;}.cls-4{fill:#f90;}</style></defs><g id="图层_2" data-name="图层 2"><g id="图层_1-2" data-name="图层 1"><g id="Frame000"><g class="cls-1"><rect class="cls-2" width="72" height="72"/></g><g id="图层_2-2" data-name="图层 2"><g id="图层_1-2-2" data-name="图层 1-2"><g id="Frame000-2" data-name="Frame000"><path class="cls-3" d="M49.51,51.5a19.26,19.26,0,0,1-17.13,11,18.61,18.61,0,0,1-10.16-3.09l10.59-5.77V51.18L20.32,58a19.58,19.58,0,0,1-4.83-6l17.29-9.43V40.14L14.6,50.05a18.15,18.15,0,0,1-1.26-6.66V42.11l19.44-10.6V29.09L13.34,39.7V31.22L32.78,20.61V18.2L13.34,28.81V20.26l19-10.4,19.09,10.4V36.89h1a6.43,6.43,0,0,1,1.07.08V19L32.38,7.45,11.22,19v24.4A21.44,21.44,0,0,0,32.38,64.55a21.5,21.5,0,0,0,19.47-13Z"/><path class="cls-4" d="M52.47,52.5H41.1a8.31,8.31,0,1,1,0-16.62H52.47a8.31,8.31,0,1,1,0,16.62ZM41.1,37.89a6.31,6.31,0,0,0,0,12.61H52.47a6.31,6.31,0,1,0,0-12.61H41.1Z"/><polygon class="cls-4" points="53.48 47.44 51.48 47.44 51.48 45.2 49.23 45.2 49.23 43.2 51.48 43.2 51.48 40.95 53.48 40.95 53.48 43.2 55.73 43.2 55.73 45.2 53.48 45.2 53.48 47.44"/><rect class="cls-4" x="40.3" y="40.95" width="1.62" height="1.62"/><rect class="cls-4" x="37.85" y="43.39" width="1.62" height="1.62"/><rect class="cls-4" x="40.3" y="45.82" width="1.62" height="1.62"/><rect class="cls-4" x="42.74" y="43.39" width="1.62" height="1.62"/></g></g></g></g></g></g></svg>