<svg xmlns="http://www.w3.org/2000/svg" xmlns:xlink="http://www.w3.org/1999/xlink" viewBox="0 0 72 72"><defs><style>.cls-1{fill:none;}.cls-2{opacity:0;}.cls-3{fill:#fbb03b;}.cls-4{clip-path:url(#clip-path);}.cls-5{fill:#2e527c;}.cls-6{fill:#f90;}</style><clipPath id="clip-path"><rect class="cls-1" x="4" y="4" width="64" height="64"/></clipPath></defs><g id="图层_2" data-name="图层 2"><g id="图层_1-2" data-name="图层 1"><g id="Frame160"><g class="cls-2"><rect class="cls-3" width="72" height="72"/></g><g class="cls-4"><g class="cls-4"><polygon class="cls-5" points="38.67 10.37 44.17 19.86 46.75 18.36 40.35 7.4 30.62 7.4 24.18 18.49 26.78 19.99 32.43 10.37 38.67 10.37"/><polygon class="cls-5" points="57.69 37.1 55.1 38.6 60.88 48.73 57.61 54.75 46.39 54.75 46.39 57.6 59.24 57.6 64.38 48.74 57.69 37.1"/><polygon class="cls-5" points="11.76 57.57 24.74 57.57 24.74 54.72 13.39 54.72 10.11 48.69 15.89 38.72 13.3 37.22 6.62 48.72 11.76 57.57"/><path class="cls-6" d="M54.61,28.9l-.21-.17-.23.13L42.84,35.1l-.28.16.09.31a7.14,7.14,0,0,1-1.84,7.26,7.75,7.75,0,0,1-3.6,2l-.32.07V58.1l.26.1a4.76,4.76,0,0,1,1.8,8h0a4.85,4.85,0,0,1-6.88-6.85,6.15,6.15,0,0,1,1.81-1.1l.26-.1V44.91l-.29-.08a8.08,8.08,0,0,1-3.62-2,7.35,7.35,0,0,1-1.85-7.27l.1-.31-.29-.16L16.83,28.86l-.24-.13-.21.18a4.89,4.89,0,0,1-6.52-.23h0a4.73,4.73,0,0,1,0-6.83h0a4.8,4.8,0,0,1,6.87,0,5.12,5.12,0,0,1,1.33,4.22l0,.28.24.13L29.5,32.71l.26.15.22-.21.24-.25a7.59,7.59,0,0,1,10.55,0l.25.25.22.21.26-.15,11.24-6.24.24-.13,0-.28a4.83,4.83,0,0,1,1.33-4.21h0a4.79,4.79,0,0,1,6.87,0h0a4.73,4.73,0,0,1,0,6.83A4.87,4.87,0,0,1,54.61,28.9Z"/></g></g></g></g></g></svg>