<svg xmlns="http://www.w3.org/2000/svg" viewBox="0 0 72 72"><defs><style>.cls-1{opacity:0;}.cls-2{fill:#fbb03b;}.cls-3{fill:#2e527c;}.cls-4{fill:#f90;}</style></defs><g id="图层_2" data-name="图层 2"><g id="图层_1-2" data-name="图层 1"><g id="Frame187"><g class="cls-1"><rect class="cls-2" width="72" height="72"/></g><path class="cls-3" d="M15.46,47.43a7.61,7.61,0,0,1,2.11,1.11L32.69,23.11a7.38,7.38,0,0,1-1.95-1.37Z"/><path class="cls-3" d="M39.31,23.11,54.43,48.54a7.61,7.61,0,0,1,2.11-1.11L41.26,21.74A7.38,7.38,0,0,1,39.31,23.11Z"/><path class="cls-3" d="M20.24,56.88H51.76a7.19,7.19,0,0,1-.34-1.78H20.63A13.8,13.8,0,0,1,20.24,56.88Z"/><path class="cls-4" d="M36,9.1A7.9,7.9,0,1,0,43.9,17,7.9,7.9,0,0,0,36,9.1Zm0,13.8A5.9,5.9,0,1,1,41.9,17,5.91,5.91,0,0,1,36,22.9Z"/><path class="cls-4" d="M14,47.1A7.9,7.9,0,1,0,21.9,55,7.9,7.9,0,0,0,14,47.1Zm0,13.8A5.9,5.9,0,1,1,19.9,55,5.91,5.91,0,0,1,14,60.9Z"/><path class="cls-4" d="M58,47.1A7.9,7.9,0,1,0,65.9,55,7.9,7.9,0,0,0,58,47.1Zm0,13.8A5.9,5.9,0,1,1,63.9,55,5.91,5.91,0,0,1,58,60.9Z"/></g></g></g></svg>