<svg xmlns="http://www.w3.org/2000/svg" viewBox="0 0 72 72"><defs><style>.cls-1{opacity:0;}.cls-2{fill:#fbb03b;}.cls-3{fill:#2e527c;}.cls-4{fill:#f90;}</style></defs><g id="图层_2" data-name="图层 2"><g id="图层_1-2" data-name="图层 1"><g id="Frame240"><g class="cls-1"><rect class="cls-2" width="72" height="72"/></g><path class="cls-3" d="M52.29,46.09h6.34v-2.5H52.29V37.22h6.34v-2.5H52.29V28.35h6.34v-2.5H52.29V19.79H45.76V13.37h-2.5v6.42H36.9V13.37H34.4v6.42H28V13.37h-2.5v6.42H19.87v6.06h-6.5v2.5h6.5v6.37h-6.5v2.5h6.5v6.37h-6.5v2.5h6.5v6.12h5.66v6.42H28V52.21H34.4v6.42h2.5V52.21h6.36v6.42h2.5V52.21h6.53Zm-2.5,3.62H22.37V22.29H49.79Z"/><path class="cls-4" d="M43.2,43.2h-14v-14h14Zm-12-2h10v-10h-10Z"/></g></g></g></svg>