<svg xmlns="http://www.w3.org/2000/svg" viewBox="0 0 72 72"><defs><style>.cls-1{opacity:0;}.cls-2{fill:#fbb03b;}.cls-3{fill:none;}.cls-4{fill:#f90;}.cls-5{fill:#2e527c;}</style></defs><g id="图层_2" data-name="图层 2"><g id="图层_1-2" data-name="图层 1"><g id="Frame163"><g class="cls-1"><rect class="cls-2" width="72" height="72"/></g><rect class="cls-3" x="5" y="5" width="62" height="62"/><path class="cls-4" d="M25.32,40.91H21.71V30.72h3.64a5.48,5.48,0,0,1,2.64.61,4.18,4.18,0,0,1,1.71,1.75,6.51,6.51,0,0,1,0,5.46A4.09,4.09,0,0,1,28,40.29,5.42,5.42,0,0,1,25.32,40.91Zm-1.46-1.85h1.37a3.38,3.38,0,0,0,1.6-.34,2.18,2.18,0,0,0,1-1.06,4.49,4.49,0,0,0,.33-1.86A4.42,4.42,0,0,0,27.82,34a2.14,2.14,0,0,0-1-1.05,3.42,3.42,0,0,0-1.61-.34H23.86Zm16.55-8.34V40.91H38.55L34.12,34.5H34v6.41H31.89V30.72h1.89l4.4,6.41h.09V30.72Zm7.3,2.93a1.25,1.25,0,0,0-.51-.93A2,2,0,0,0,46,32.38a2.33,2.33,0,0,0-.89.15,1.26,1.26,0,0,0-.56.41,1,1,0,0,0-.19.58,1,1,0,0,0,.12.48,1.17,1.17,0,0,0,.35.35,2.8,2.8,0,0,0,.52.26,4.73,4.73,0,0,0,.63.18l.91.21a7,7,0,0,1,1.22.4,3.91,3.91,0,0,1,1,.61,2.59,2.59,0,0,1,.86,2,2.83,2.83,0,0,1-.47,1.62,3.19,3.19,0,0,1-1.36,1.06,5.36,5.36,0,0,1-2.12.37,5.66,5.66,0,0,1-2.15-.38,3.12,3.12,0,0,1-1.42-1.12,3.33,3.33,0,0,1-.53-1.84h2.08a1.52,1.52,0,0,0,1,1.37,2.8,2.8,0,0,0,1,.16,2.65,2.65,0,0,0,.94-.15,1.48,1.48,0,0,0,.64-.45,1,1,0,0,0,.22-.65.84.84,0,0,0-.2-.57A1.57,1.57,0,0,0,47,37a6.16,6.16,0,0,0-.94-.3l-1.11-.28a4.59,4.59,0,0,1-2-1,2.23,2.23,0,0,1-.74-1.79,2.64,2.64,0,0,1,.49-1.62A3.28,3.28,0,0,1,44,31a4.81,4.81,0,0,1,2-.39A4.65,4.65,0,0,1,48,31a3.18,3.18,0,0,1,1.33,1.08,2.9,2.9,0,0,1,.48,1.6Z"/><path class="cls-5" d="M15.21,17.83a4.23,4.23,0,1,1,4.23-4.23A4.24,4.24,0,0,1,15.21,17.83Zm0-6.45a2.23,2.23,0,1,0,2.23,2.22A2.23,2.23,0,0,0,15.21,11.38Z"/><path class="cls-5" d="M24.05,65.37a4.23,4.23,0,1,1,4.22-4.23A4.24,4.24,0,0,1,24.05,65.37Zm0-6.45a2.23,2.23,0,1,0,2.22,2.22A2.23,2.23,0,0,0,24.05,58.92Z"/><path class="cls-5" d="M61.65,42.26a32.21,32.21,0,0,0-1.24-4,3.23,3.23,0,0,1-1.8.88,33,33,0,0,1,1.1,3.56c1.5,6.14.59,11.26-2.56,14.41s-8.27,4.06-14.41,2.56c-6.51-1.58-13.27-5.64-19-11.41s-9.83-12.54-11.41-19C11,24,11.49,19.55,13.61,16.38a3.16,3.16,0,0,1-1.38-1.55c-2.68,3.66-3.36,8.87-1.89,14.91,1.67,6.85,5.92,13.94,12,20S35.41,60,42.26,61.66a25.21,25.21,0,0,0,6,.76,14.24,14.24,0,0,0,10.36-3.85C62.23,54.91,63.33,49.11,61.65,42.26Z"/><path class="cls-5" d="M18.26,12.6a14.42,14.42,0,0,1,5.53-1,22.77,22.77,0,0,1,5.47.71c6.5,1.58,13.26,5.64,19,11.41A47.82,47.82,0,0,1,56,33.64a3.22,3.22,0,0,1,1.83-.83,49.47,49.47,0,0,0-8.09-10.52c-6-6-13.12-10.27-20-11.95-4.92-1.2-9.28-1-12.7.61A3.18,3.18,0,0,1,18.26,12.6Z"/><path class="cls-5" d="M58.16,40.22A4.23,4.23,0,1,1,62.38,36,4.23,4.23,0,0,1,58.16,40.22Zm0-6.45A2.23,2.23,0,1,0,60.38,36,2.23,2.23,0,0,0,58.16,33.77Z"/><path class="cls-5" d="M48.3,48.3c-5.77,5.77-12.53,9.83-19,11.41-.74.18-1.46.32-2.16.43a3.33,3.33,0,0,1,.17,1,3.12,3.12,0,0,1-.18,1c.86-.12,1.74-.28,2.65-.5,6.85-1.68,13.94-5.92,20-11.95a49.86,49.86,0,0,0,8.1-10.52A3.23,3.23,0,0,1,56,38.36,47.88,47.88,0,0,1,48.3,48.3Z"/><path class="cls-5" d="M58.57,13.43c-3.66-3.66-9.45-4.76-16.31-3.09s-13.95,5.92-20,12S12,35.41,10.34,42.26s-.57,12.65,3.09,16.31A13.25,13.25,0,0,0,21,62.21a3.18,3.18,0,0,1-.2-1.07,3.45,3.45,0,0,1,.16-1,11.21,11.21,0,0,1-6.14-3c-3.15-3.15-4.05-8.28-2.55-14.42,1.58-6.51,5.64-13.27,11.41-19s12.53-9.83,19-11.41a22.77,22.77,0,0,1,5.47-.71,12.3,12.3,0,0,1,8.95,3.26c3.15,3.15,4.05,8.27,2.55,14.42a33,33,0,0,1-1.1,3.56,3.2,3.2,0,0,1,1.8.88,32.29,32.29,0,0,0,1.25-4C63.33,22.88,62.23,17.09,58.57,13.43Z"/></g></g></g></svg>