<svg xmlns="http://www.w3.org/2000/svg" viewBox="0 0 72 72"><defs><style>.cls-1{opacity:0;}.cls-2{fill:#fbb03b;}.cls-3{fill:#2e527c;}.cls-4{fill:#f90;}</style></defs><g id="图层_2" data-name="图层 2"><g id="图层_1-2" data-name="图层 1"><g id="Frame203"><g class="cls-1"><rect class="cls-2" width="72" height="72"/></g><path class="cls-3" d="M59.67,35.34v-18a1.07,1.07,0,0,0-.74-1L36.94,9a3,3,0,0,0-1.88,0l-22,7.33a1.07,1.07,0,0,0-.74,1v18A23.62,23.62,0,0,0,22.87,55L34.35,62.7a2.94,2.94,0,0,0,3.29,0L49.13,55A23.62,23.62,0,0,0,59.67,35.34ZM36,61.19l-12.72-8.5a21.6,21.6,0,0,1-8.79-17.35V18.09L36,10.92l.25.09,21.26,7.08,0,18.21a21.58,21.58,0,0,1-9.56,16.94Z"/><path class="cls-4" d="M47.59,33.9a7.79,7.79,0,1,0-12.32-.52l.1.13-.12.12-3,3-.14-.14-2.83-2.83a1,1,0,0,0-.37-.24,1.1,1.1,0,0,0-.87,0,.88.88,0,0,0-.36.24l-4.72,4.71a1.15,1.15,0,0,0,0,1.61l.07.07,2.9,2.9-2,2a1.18,1.18,0,0,0-.33.81,2,2,0,0,0,.55,1h1.17L37,35.12l.14.09A7.79,7.79,0,0,0,47.59,33.9ZM30.46,38.42l-3,3-.14-.15-2-2,.15-.14,3-3,.14.14,2,2Zm11.21-4.07h0a5.54,5.54,0,0,1-3.93-9.41,5.68,5.68,0,0,1,1.8-1.22,5.34,5.34,0,0,1,2.13-.44h0a5.43,5.43,0,0,1,2.1.42,5.53,5.53,0,0,1,3,3,5.4,5.4,0,0,1,.41,2.14A5.33,5.33,0,0,1,46.76,31a5.57,5.57,0,0,1-1.22,1.8A5.5,5.5,0,0,1,41.67,34.35Z"/><path class="cls-4" d="M25.24,46.8H24.07A1.17,1.17,0,0,0,25.24,46.8Z"/></g></g></g></svg>