<svg xmlns="http://www.w3.org/2000/svg" viewBox="0 0 72 72"><defs><style>.cls-1{opacity:0;}.cls-2{fill:#fbb03b;}.cls-3{fill:#2e527c;}.cls-4{fill:#f90;}</style></defs><g id="图层_2" data-name="图层 2"><g id="图层_1-2" data-name="图层 1"><g id="Frame157"><g class="cls-1"><rect class="cls-2" width="72" height="72"/></g><path class="cls-3" d="M36,61.64,14.15,49V23.77L36,11.15,57.88,23.77V49ZM16,48,36,59.55,56.07,48V24.82L36,13.24,16,24.82Z"/><path class="cls-4" d="M56.52,49.66,36,37.82,15.51,49.66l-.91-1.57L36,35.73,57.43,48.09Z"/><path class="cls-4" d="M36,37.09,14.6,24.73l.91-1.58L36,35l20.5-11.84.91,1.58Z"/><path class="cls-3" d="M35.11,12.19h1.81V61.25H35.11Z"/><path class="cls-4" d="M32.43,12.17a3.7,3.7,0,0,0,1.06,2.57,3.6,3.6,0,0,0,1.18.79,3.71,3.71,0,0,0,1.39.28,3.67,3.67,0,0,0,1.39-.28,3.6,3.6,0,0,0,1.18-.79,3.4,3.4,0,0,0,.79-1.18,3.67,3.67,0,0,0,.28-1.39,3.75,3.75,0,0,0-.28-1.39,3.46,3.46,0,0,0-.79-1.17,3.6,3.6,0,0,0-1.18-.79,3.67,3.67,0,0,0-1.39-.28,3.71,3.71,0,0,0-1.39.28,3.62,3.62,0,0,0-2,2A3.56,3.56,0,0,0,32.43,12.17Z"/><path class="cls-3" d="M11.39,23.79a3.66,3.66,0,0,0,.27,1.39,3.76,3.76,0,0,0,.79,1.18,3.6,3.6,0,0,0,1.18.79,3.71,3.71,0,0,0,2.78,0,3.6,3.6,0,0,0,1.18-.79,3.76,3.76,0,0,0,.79-1.18,3.71,3.71,0,0,0,0-2.78,3.6,3.6,0,0,0-2-2,3.59,3.59,0,0,0-2.78,0,3.6,3.6,0,0,0-2,2A3.66,3.66,0,0,0,11.39,23.79Z"/><path class="cls-3" d="M32.43,35.85a3.49,3.49,0,0,0,.28,1.39,3.54,3.54,0,0,0,2,2,3.59,3.59,0,0,0,2.78,0,3.73,3.73,0,0,0,1.18-.78,3.6,3.6,0,0,0,.79-1.18,3.59,3.59,0,0,0,0-2.78,3.66,3.66,0,0,0-2-2,3.66,3.66,0,0,0-1.39-.27,3.7,3.7,0,0,0-1.39.27,3.6,3.6,0,0,0-1.18.79,3.73,3.73,0,0,0-.78,1.18A3.49,3.49,0,0,0,32.43,35.85Z"/><path class="cls-3" d="M32.43,59.83a3.65,3.65,0,0,0,1.06,2.56,3.6,3.6,0,0,0,1.18.79,3.71,3.71,0,0,0,1.39.28,3.67,3.67,0,0,0,1.39-.28,3.6,3.6,0,0,0,1.18-.79,3.46,3.46,0,0,0,.79-1.17,3.62,3.62,0,0,0,0-2.79,3.46,3.46,0,0,0-.79-1.17,3.6,3.6,0,0,0-1.18-.79,3.67,3.67,0,0,0-1.39-.28,3.71,3.71,0,0,0-1.39.28,3.64,3.64,0,0,0-2.24,3.36Z"/><path class="cls-4" d="M11.39,48a3.66,3.66,0,0,0,.27,1.39,3.66,3.66,0,0,0,2,2,3.71,3.71,0,0,0,2.78,0,3.66,3.66,0,0,0,2-2,3.71,3.71,0,0,0,0-2.78,3.66,3.66,0,0,0-2-2,3.71,3.71,0,0,0-2.78,0,3.66,3.66,0,0,0-2,2A3.66,3.66,0,0,0,11.39,48Z"/><path class="cls-3" d="M53.35,23.79a3.62,3.62,0,1,0,1.06-2.57A3.62,3.62,0,0,0,53.35,23.79Z"/><path class="cls-4" d="M53.35,48a3.62,3.62,0,1,0,1.06-2.57A3.64,3.64,0,0,0,53.35,48Z"/></g></g></g></svg>