<svg xmlns="http://www.w3.org/2000/svg" xmlns:xlink="http://www.w3.org/1999/xlink" viewBox="0 0 72 72"><defs><style>.cls-1{fill:none;}.cls-2{opacity:0;}.cls-3{fill:#fbb03b;}.cls-4{fill:#2e527c;}.cls-5{clip-path:url(#clip-path);}.cls-6{fill:#f90;}</style><clipPath id="clip-path"><rect class="cls-1" x="19.01" y="19.01" width="33.98" height="33.98" transform="translate(-8.09 61.46) rotate(-75)"/></clipPath></defs><g id="图层_2" data-name="图层 2"><g id="图层_1-2" data-name="图层 1"><g id="Frame173"><g class="cls-2"><rect class="cls-3" width="72" height="72"/></g><rect class="cls-1" width="72" height="72"/><path class="cls-4" d="M51.9,63.55H20.07L4.16,36,20.07,8.42H51.9L67.81,36ZM21.37,61.3H50.6L65.21,36,50.6,10.67H21.37L6.76,36Z"/><path class="cls-4" d="M48.58,56.67l-1.95-1.13L58.24,35.42l1.95,1.13ZM13.73,36.55l-2-1.13L23.4,15.3l1.94,1.13Z"/><g class="cls-5"><path class="cls-6" d="M29.24,51.25a1.08,1.08,0,0,1-.29-.13.93.93,0,0,1-.37-.46,1,1,0,0,1,0-.6l3.32-12.38-6.56-1.76a1,1,0,0,1-.69-.74.88.88,0,0,1,0-.53,1,1,0,0,1,.31-.43l16.94-13.3a1,1,0,0,1,.56-.2.91.91,0,0,1,.58.16.93.93,0,0,1,.37.46,1,1,0,0,1,0,.6L40.13,34.32l6.56,1.75a1,1,0,0,1,.7.75,1,1,0,0,1-.36,1L30.09,51.08a1,1,0,0,1-.41.18A.94.94,0,0,1,29.24,51.25Zm-1.55-16.7,5.62,1.51A1,1,0,0,1,34,37.25L31.18,47.76,44.31,37.45l-5.62-1.51A1,1,0,0,1,38,34.75l2.81-10.51Z"/></g></g></g></g></svg>