<svg xmlns="http://www.w3.org/2000/svg" viewBox="0 0 72 72"><defs><style>.cls-1{opacity:0;}.cls-2{fill:#fbb03b;}.cls-3{fill:#2e527c;}.cls-4{fill:#f90;}</style></defs><g id="图层_2" data-name="图层 2"><g id="图层_1-2" data-name="图层 1"><g id="Frame186"><g class="cls-1"><rect class="cls-2" width="72" height="72"/></g><path class="cls-3" d="M10.49,37.81a23.69,23.69,0,0,0,47.32,1.71l.06-2.88H36.11a.76.76,0,0,1-.75-.75V14.11l-2.91.08A23.78,23.78,0,0,0,10.49,37.81ZM32.3,16.31a.74.74,0,0,1,.57.2.76.76,0,0,1,.24.55V38.89H54.92a.76.76,0,0,1,.55.24.77.77,0,0,1,.2.57,21.13,21.13,0,0,1-21.5,19.72,21.62,21.62,0,0,1-21.59-21.6A21.14,21.14,0,0,1,32.3,16.31Z"/><path class="cls-4" d="M38.74,10.48V33.27H61.5A24,24,0,0,0,38.74,10.48ZM59.16,31.3H40.7v-18l.56.06C50.84,14.53,57.45,23,59,30.7Z"/></g></g></g></svg>