<svg xmlns="http://www.w3.org/2000/svg" viewBox="0 0 72 72"><defs><style>.cls-1{opacity:0;}.cls-2{fill:#fbb03b;}.cls-3{fill:#f90;}.cls-4{fill:#2e527c;}</style></defs><g id="图层_2" data-name="图层 2"><g id="图层_1-2" data-name="图层 1"><g id="Frame198"><g class="cls-1"><rect class="cls-2" width="72" height="72"/></g><path class="cls-3" d="M47.64,32.8h-2v-.31a5.26,5.26,0,0,0-.43-2.1A5.32,5.32,0,0,0,44,28.61a5.6,5.6,0,0,0-1.84-1.19A5.78,5.78,0,0,0,40,27H38.68V25.17A1.66,1.66,0,0,1,39.19,24a1.76,1.76,0,0,1,1.2-.47H41.8a.81.81,0,0,0,.31-.06.85.85,0,0,0,.25-.17.64.64,0,0,0,.18-.25.72.72,0,0,0,.06-.29.8.8,0,0,0-.06-.3.92.92,0,0,0-.43-.41A.81.81,0,0,0,41.8,22H40.39a3.39,3.39,0,0,0-2.33.92,3.14,3.14,0,0,0-1,2.25V27H34.93V25.17a3.14,3.14,0,0,0-1-2.25A3.39,3.39,0,0,0,31.61,22H30.2a.81.81,0,0,0-.31.06.92.92,0,0,0-.43.41.8.8,0,0,0-.06.3.72.72,0,0,0,.06.29.64.64,0,0,0,.18.25.85.85,0,0,0,.25.17.81.81,0,0,0,.31.06h1.41a1.72,1.72,0,0,1,1.2.48,1.61,1.61,0,0,1,.51,1.15V27H32.1a5.83,5.83,0,0,0-2.19.4,5.61,5.61,0,0,0-3.12,3,5.49,5.49,0,0,0-.43,2.11v.31h-2a3.3,3.3,0,0,0-2.34.88,3.13,3.13,0,0,0-1,2.22v1.35a.72.72,0,0,0,.24.55.81.81,0,0,0,1.13,0,.76.76,0,0,0,.24-.55V35.9a1.64,1.64,0,0,1,.54-1.14,1.77,1.77,0,0,1,1.21-.44h2v6.81h-2A3.35,3.35,0,0,0,22,42a3.17,3.17,0,0,0-1,2.23v1.35a.75.75,0,0,0,.24.55.84.84,0,0,0,1.13,0,.79.79,0,0,0,.24-.55V44.25a1.6,1.6,0,0,1,.54-1.13,1.68,1.68,0,0,1,1.21-.44h2v1.76A5.48,5.48,0,0,0,28,48.37,5.86,5.86,0,0,0,32.1,50h7.8A5.86,5.86,0,0,0,44,48.37a5.48,5.48,0,0,0,1.68-3.93V42.68h2a1.68,1.68,0,0,1,1.21.44,1.6,1.6,0,0,1,.54,1.13V45.6a.79.79,0,0,0,.24.55.84.84,0,0,0,1.13,0A.75.75,0,0,0,51,45.6V44.25A3.17,3.17,0,0,0,50,42a3.35,3.35,0,0,0-2.34-.88h-2V34.32h2a1.77,1.77,0,0,1,1.21.44,1.6,1.6,0,0,1,.54,1.13v1.36a.76.76,0,0,0,.24.55.81.81,0,0,0,1.13,0,.72.72,0,0,0,.24-.55V35.9a3.13,3.13,0,0,0-1-2.22A3.3,3.3,0,0,0,47.64,32.8ZM32.1,28.56h7.8a4.16,4.16,0,0,1,2.91,1.14A3.92,3.92,0,0,1,44,32.49v2.87H28V32.49A3.83,3.83,0,0,1,28.26,31a3.93,3.93,0,0,1,.89-1.28,4.06,4.06,0,0,1,1.33-.86,4.21,4.21,0,0,1,1.57-.3ZM28,44.44V36.9H35.2V48.45H32.1a4.18,4.18,0,0,1-2.92-1.17A3.92,3.92,0,0,1,28,44.45Zm11.93,4H36.8V36.9H44v7.54A3.72,3.72,0,0,1,43.72,46a4.07,4.07,0,0,1-.89,1.3,4.17,4.17,0,0,1-1.35.87A4.27,4.27,0,0,1,39.9,48.45Z"/><polygon class="cls-4" points="61.4 26.73 61.4 10.6 45.27 10.6 45.27 12.87 59.13 12.87 59.13 26.73 61.4 26.73"/><polygon class="cls-4" points="61.4 45.27 59.13 45.27 59.13 59.13 45.27 59.13 45.27 61.4 61.4 61.4 61.4 45.27"/><polygon class="cls-4" points="10.6 45.27 10.6 61.4 26.73 61.4 26.73 59.13 12.87 59.13 12.87 45.27 10.6 45.27"/><polygon class="cls-4" points="26.73 12.87 26.73 10.6 10.6 10.6 10.6 26.73 12.87 26.73 12.87 12.87 26.73 12.87"/></g></g></g></svg>