<svg xmlns="http://www.w3.org/2000/svg" xmlns:xlink="http://www.w3.org/1999/xlink" viewBox="0 0 72 72"><defs><style>.cls-1{fill:none;}.cls-2{opacity:0;}.cls-3{fill:#fbb03b;}.cls-4{clip-path:url(#clip-path);}.cls-5{fill:#2e527c;}.cls-6{fill:#f90;}</style><clipPath id="clip-path"><rect class="cls-1" x="10" y="10" width="52" height="52"/></clipPath></defs><g id="图层_2" data-name="图层 2"><g id="图层_1-2" data-name="图层 1"><g id="Frame200"><g class="cls-2"><rect class="cls-3" width="72" height="72"/></g><g class="cls-4"><path class="cls-5" d="M45.75,13.73H16.5a6,6,0,0,0-6,6V49a6,6,0,0,0,6,6H31.13a1.13,1.13,0,0,0,0-2.25H16.5A3.75,3.75,0,0,1,12.75,49V19.73A3.75,3.75,0,0,1,16.5,16H45.75a3.75,3.75,0,0,1,3.75,3.75v8.13a1.13,1.13,0,0,0,2.25,0V19.73A6,6,0,0,0,45.75,13.73Z"/><path class="cls-5" d="M36.14,43.21l1.29-3.54L32.24,24.19A2.59,2.59,0,0,0,31.51,23a1.83,1.83,0,0,0-1.2-.35H28.69a1.7,1.7,0,0,0-1.15.35,3,3,0,0,0-.78,1.28L20.22,43.71a1.23,1.23,0,0,0,.73,1.5,1.14,1.14,0,0,0,.87-.05,1.17,1.17,0,0,0,.6-.69l1.93-5.74h10.3Zm-11-6.73L29,24.92h1l.11.34L33.9,36.48Z"/><path class="cls-6" d="M61.63,56.63l-5-5a.67.67,0,0,0-.14-.09,11.52,11.52,0,1,0-1.63,1.69.41.41,0,0,0,.07.11l4.94,5a1.21,1.21,0,0,0,1.71-1.71ZM47.5,54A9.5,9.5,0,1,1,57,44.5,9.51,9.51,0,0,1,47.5,54Z"/></g></g></g></g></svg>