<svg width="56" height="56" viewBox="0 0 56 56" fill="none" xmlns="http://www.w3.org/2000/svg">
<path d="M19.5418 46.6666C18.6863 46.6666 17.9377 46.3458 17.296 45.7041C16.6543 45.0625 16.3335 44.3138 16.3335 43.4583V12.5416C16.3335 11.6861 16.6543 10.9374 17.296 10.2958C17.9377 9.65412 18.6863 9.33328 19.5418 9.33328H36.4585C37.3141 9.33328 38.0627 9.65412 38.7043 10.2958C39.346 10.9374 39.6668 11.6861 39.6668 12.5416V43.4583C39.6668 44.3138 39.346 45.0625 38.7043 45.7041C38.0627 46.3458 37.3141 46.6666 36.4585 46.6666H19.5418ZM19.5418 44.8583H36.4585C36.8474 44.8583 37.1779 44.7222 37.4502 44.45C37.7224 44.1777 37.8585 43.8472 37.8585 43.4583V12.5416C37.8585 12.1527 37.7224 11.8222 37.4502 11.5499C37.1779 11.2777 36.8474 11.1416 36.4585 11.1416H19.5418C19.1529 11.1416 18.8224 11.2777 18.5502 11.5499C18.2779 11.8222 18.1418 12.1527 18.1418 12.5416V43.4583C18.1418 43.8472 18.2779 44.1777 18.5502 44.45C18.8224 44.7222 19.1529 44.8583 19.5418 44.8583Z" fill="#2E527C"/>
<path d="M3.38281 22.2834V33.6584H5.19115V22.2834H3.38281Z" fill="#FF9900"/>
<path d="M9.85781 17.4417V38.5584H11.6661V17.4417H9.85781Z" fill="#FF9900"/>
<path d="M50.8078 22.2834V33.6584H52.6161V22.2834H50.8078Z" fill="#FF9900"/>
<path d="M44.3328 17.4417V38.5584H46.1411V17.4417H44.3328Z" fill="#FF9900"/>
</svg>
