<svg xmlns="http://www.w3.org/2000/svg" viewBox="0 0 72 72"><defs><style>.cls-1{opacity:0;}.cls-2{fill:#fbb03b;}.cls-3{fill:#2e527c;}.cls-4{fill:#f90;}</style></defs><g id="图层_2" data-name="图层 2"><g id="图层_1-2" data-name="图层 1"><g id="Frame153"><g class="cls-1"><rect class="cls-2" width="72" height="72"/></g><path class="cls-3" d="M62.72,23.66v0l.39.9h0A15.55,15.55,0,0,1,43.63,45.4l-.12,0-.09.09L34,54.89h0A6.55,6.55,0,0,1,22.8,50.26h0a6.5,6.5,0,0,1,1.92-4.63l-.14-.14.14.14,9.44-9.44.09-.09,0-.12a15.41,15.41,0,0,1-.9-5.22A15.57,15.57,0,0,1,48.85,15.2,15.4,15.4,0,0,1,55,16.48h0l.62.27.07,0h0A.77.77,0,0,1,56,17,.74.74,0,0,1,56,18l.14.14L56,18l-.06.08-8.6,8.6-.14.14.14.14,5.31,5.31.14.14.14-.14,8.78-8.78.05,0-.14-.14.14.14a.61.61,0,0,1,.85,0l.14-.14-.15.14a.55.55,0,0,1,.13.18h0ZM26.56,53.05h0a4,4,0,0,0,5.58,0L42.9,42.29l.81.35A13,13,0,0,0,61.47,27.83l-.08-.35-.26.25-7.9,7.9a.71.71,0,0,1-1-.05l0,0h0l-8.29-8.29a.74.74,0,0,1,0-.87l7.93-7.92.25-.25-.35-.09A13,13,0,0,0,35.9,30.75,12.8,12.8,0,0,0,37,35.89l.35.81L26.56,47.46a3.92,3.92,0,0,0-1.16,2.79h0A3.92,3.92,0,0,0,26.56,53.05ZM52,35.54Z"/><path class="cls-4" d="M19.1,50H7.6V48H19.1Zm3.5-7.13H9.6v-2h13Zm6-7.61h-17v-2h17Zm-1.21-7.13H13.6v-2H27.39ZM30.6,21h-15V19h15Z"/></g></g></g></svg>