<svg xmlns="http://www.w3.org/2000/svg" viewBox="0 0 72 72"><defs><style>.cls-1{opacity:0;}.cls-2{fill:#fbb03b;}.cls-3{fill:none;stroke:#2e527c;stroke-width:2.5px;}.cls-4{fill:#f90;}</style></defs><g id="图层_2" data-name="图层 2"><g id="图层_1-2" data-name="图层 1"><g id="Frame169"><g class="cls-1"><rect class="cls-2" width="72" height="72"/></g><path class="cls-3" d="M44.08,20.23a7.75,7.75,0,0,1-15.16,0A21.77,21.77,0,0,0,14.75,40.62,21.18,21.18,0,0,0,15,44a8,8,0,0,1,1.48-.15,7.75,7.75,0,0,1,5.63,13.07,21.74,21.74,0,0,0,28.21.46A7.75,7.75,0,0,1,55.5,43.87a7.9,7.9,0,0,1,2.44.4,21.74,21.74,0,0,0-13.86-24Z"/><path class="cls-4" d="M36.5,27.63a9,9,0,1,1,9-9A9,9,0,0,1,36.5,27.63Zm0-15.5a6.5,6.5,0,1,0,6.5,6.5A6.51,6.51,0,0,0,36.5,12.13Z"/><path class="cls-4" d="M16.5,60.63a9,9,0,1,1,9-9A9,9,0,0,1,16.5,60.63Zm0-15.5a6.5,6.5,0,1,0,6.5,6.5A6.51,6.51,0,0,0,16.5,45.13Z"/><path class="cls-4" d="M55.5,60.63a9,9,0,1,1,9-9A9,9,0,0,1,55.5,60.63Zm0-15.5a6.5,6.5,0,1,0,6.5,6.5A6.51,6.51,0,0,0,55.5,45.13Z"/></g></g></g></svg>