<svg xmlns="http://www.w3.org/2000/svg" viewBox="0 0 72 72"><defs><style>.cls-1{opacity:0;}.cls-2{fill:#fbb03b;}.cls-3{fill:#2e527c;}.cls-4{fill:#f90;}</style></defs><g id="图层_2" data-name="图层 2"><g id="图层_1-2" data-name="图层 1"><g id="Frame222"><g class="cls-1"><rect class="cls-2" width="72" height="72"/></g><path class="cls-3" d="M16.47,30.06a1.19,1.19,0,0,0-.32,0,1.05,1.05,0,0,0-.49.13,1,1,0,0,0-.52.62,23.7,23.7,0,0,0-1,6.47v.48A23.6,23.6,0,1,0,37.71,14.1h-.39a23.37,23.37,0,0,0-5.58.76A1,1,0,0,0,31,16.16a1,1,0,0,0,.49.64,1,1,0,0,0,.8.11,21.28,21.28,0,0,1,5.08-.68h.35A21.48,21.48,0,1,1,16.22,37.71v-.43a21.53,21.53,0,0,1,1-5.89,1.09,1.09,0,0,0-.08-.81A1,1,0,0,0,16.47,30.06Z"/><path class="cls-3" d="M37.7,24.1h-.39a13,13,0,0,0-3,.41,1,1,0,0,0-.64.48,1,1,0,0,0-.12.8,1,1,0,0,0,1.29.76,12.05,12.05,0,0,1,2.5-.35h.32A11.49,11.49,0,1,1,26.21,37.7v-.43l0-.4-1.69-2.62a12.82,12.82,0,0,0-.43,3v.5A13.6,13.6,0,1,0,37.7,24.1Z"/><path class="cls-4" d="M34.14,37.51a3.35,3.35,0,0,0,3.34,3.35,3.39,3.39,0,0,0,2.37-1,3.35,3.35,0,1,0-5.71-2.37Z"/><path class="cls-4" d="M37.5,37.53a1.92,1.92,0,0,1-2.7,0L18.57,21.3a1.92,1.92,0,0,1,2.71-2.71L37.5,34.82A1.91,1.91,0,0,1,37.5,37.53Z"/><path class="cls-4" d="M23.23,23.22l-5.36,1L10.2,16.54l5.37-1Zm0,0,1-5.34L16.53,10.2l-1,5.36"/></g></g></g></svg>