<svg xmlns="http://www.w3.org/2000/svg" xmlns:xlink="http://www.w3.org/1999/xlink" viewBox="0 0 72 72"><defs><style>.cls-1{fill:none;}.cls-2{opacity:0;}.cls-3{fill:#fbb03b;}.cls-4{clip-path:url(#clip-path);}.cls-5{fill:#2e527c;}.cls-6{fill:#f90;}</style><clipPath id="clip-path"><rect class="cls-1" x="9" y="9" width="54" height="54"/></clipPath></defs><g id="图层_2" data-name="图层 2"><g id="图层_1-2" data-name="图层 1"><g id="Frame227"><g class="cls-2"><rect class="cls-3" width="72" height="72"/></g><g class="cls-4"><path class="cls-5" d="M14,43.71a4.58,4.58,0,0,1-3.21-1.32A4.53,4.53,0,0,1,9.46,39.2V30.05A4.58,4.58,0,0,1,14,25.48H52.47a4.58,4.58,0,0,1,4.58,4.57v7.33a.93.93,0,0,1-.27.65,1,1,0,0,1-.65.27.91.91,0,0,1-.65-.27.93.93,0,0,1-.27-.65V30.05a2.73,2.73,0,0,0-2.74-2.68H14a2.74,2.74,0,0,0-1.91.78,2.77,2.77,0,0,0-.83,1.9V39.2A2.75,2.75,0,0,0,14,42a.86.86,0,0,1,.39,0,.84.84,0,0,1,.58.5.85.85,0,0,1,0,.76.84.84,0,0,1-.58.5.86.86,0,0,1-.39,0Z"/><path class="cls-6" d="M48.06,63h7.88a6.86,6.86,0,0,0,2.6-.6,6.77,6.77,0,0,0,3.57-3.81A6.76,6.76,0,0,0,62.54,56a7,7,0,0,0-3.7-6.13v-.24A8.16,8.16,0,0,0,54,41.81a8.31,8.31,0,0,0-3.15-.7,8.18,8.18,0,0,0-4.16,1.24,8,8,0,0,0-2.9,3.24,4.53,4.53,0,0,0-2-.45A4.82,4.82,0,0,0,37,49.83a6.91,6.91,0,0,0-2.74,2.54A7,7,0,0,0,33.24,56a6.8,6.8,0,0,0,6.62,7h3.61a.92.92,0,0,0,0-1.84H39.86A5,5,0,0,1,35.08,56a5.13,5.13,0,0,1,3.23-4.84.93.93,0,0,0,.45-.36.84.84,0,0,0,.14-.56v-.29a2.83,2.83,0,0,1,.18-1.15,3.06,3.06,0,0,1,.6-1,2.94,2.94,0,0,1,2.08-1,2.72,2.72,0,0,1,1.77.65.66.66,0,0,0,.29.17.92.92,0,0,0,.69,0,.9.9,0,0,0,.47-.51A6.2,6.2,0,0,1,47.19,44a6.27,6.27,0,0,1,3.57-1.22,6.42,6.42,0,0,1,6.12,6.63v.74a.94.94,0,0,0,.6,1A5.07,5.07,0,0,1,60.7,56a4.89,4.89,0,0,1-.28,1.93,5,5,0,0,1-1,1.67,5.14,5.14,0,0,1-1.58,1.15,4.77,4.77,0,0,1-1.9.45H48.06a1,1,0,0,0-.65.27.92.92,0,0,0-.26.65.91.91,0,0,0,.26.65A1,1,0,0,0,48.06,63Z"/><path class="cls-5" d="M29.59,60.24H22.67a1,1,0,0,1-.39,0,1,1,0,0,1-.59-.5,1,1,0,0,1-.08-.38,1,1,0,0,1,.08-.39,1,1,0,0,1,.24-.31.92.92,0,0,1,.35-.19,1,1,0,0,1,.39,0h6.92a1,1,0,0,1,.39,0,.88.88,0,0,1,.34.19,1,1,0,0,1,.24.31,1,1,0,0,1,.08.39,1,1,0,0,1-.08.38.92.92,0,0,1-.24.31.88.88,0,0,1-.34.19A1,1,0,0,1,29.59,60.24ZM19,60.24a.84.84,0,0,1-.51-.14.87.87,0,0,1-.35-.41,1,1,0,0,1-.06-.53,1,1,0,0,1,.24-.48.9.9,0,0,1,.47-.25,1,1,0,0,1,.54,0,.91.91,0,0,1,.41.34.87.87,0,0,1,.16.52.9.9,0,0,1-.26.64A.91.91,0,0,1,19,60.24Zm-3.67,0H14a4.58,4.58,0,0,1-4.57-4.57V46.52A4.58,4.58,0,0,1,14,42H36a1,1,0,0,1,.42,0,.91.91,0,0,1,.39.17,1,1,0,0,1,.28.33,1,1,0,0,1,.1.41.93.93,0,0,1-.38.74.9.9,0,0,1-.39.16.86.86,0,0,1-.42,0H14a2.79,2.79,0,0,0-1.06.22,2.82,2.82,0,0,0-1.48,1.53,3,3,0,0,0-.2,1.06v9.15a2.82,2.82,0,0,0,.81,1.94,2.79,2.79,0,0,0,1.93.82h1.31a1,1,0,0,1,.39,0,.88.88,0,0,1,.34.19,1,1,0,0,1,.24.31,1,1,0,0,1,.08.39,1,1,0,0,1-.08.38.92.92,0,0,1-.24.31.88.88,0,0,1-.34.19A1,1,0,0,1,15.34,60.24ZM52.47,27.37a.89.89,0,0,1-.91-.91.9.9,0,0,1,.91-.92,2.78,2.78,0,0,0,1.06-.21,3,3,0,0,0,.89-.6,2.75,2.75,0,0,0,.79-1.95V13.57a2.65,2.65,0,0,0-.21-1,2.71,2.71,0,0,0-.59-.89,2.61,2.61,0,0,0-.89-.59,2.7,2.7,0,0,0-1.05-.21H41.88a.91.91,0,0,1-.65-.27.92.92,0,0,1,0-1.3A.91.91,0,0,1,41.88,9H52.47a4.58,4.58,0,0,1,4.58,4.57v9.15a4.84,4.84,0,0,1-.33,1.77,4.6,4.6,0,0,1-1,1.51,4.59,4.59,0,0,1-3.26,1.37ZM14,27.37A4.48,4.48,0,0,1,12.26,27a4.68,4.68,0,0,1-1.49-1,4.57,4.57,0,0,1-1-1.51,4.45,4.45,0,0,1-.33-1.77V13.57A4.58,4.58,0,0,1,14,9H34.57a.92.92,0,0,1,.64.28.92.92,0,0,1,0,1.28,1,1,0,0,1-.64.28H14a2.74,2.74,0,0,0-1.93.8,2.71,2.71,0,0,0-.81,1.93v9.15a2.7,2.7,0,0,0,.21,1.05,2.56,2.56,0,0,0,.59.9,2.85,2.85,0,0,0,.89.6,2.89,2.89,0,0,0,1,.21.92.92,0,0,1,.65.26,1,1,0,0,1,.27.65.91.91,0,0,1-.27.65.89.89,0,0,1-.65.27ZM38.22,10.84a.93.93,0,0,1-.51-.16.91.91,0,0,1-.34-.41,1.06,1.06,0,0,1,0-.53,1,1,0,0,1,.25-.47.94.94,0,0,1,1-.2,1,1,0,0,1,.41.34.92.92,0,0,1,.15.51.89.89,0,0,1-.27.65A.91.91,0,0,1,38.22,10.84Z"/><path class="cls-5" d="M50.64,19.06a.89.89,0,0,1-.92-.91.87.87,0,0,1,.92-.91,1,1,0,0,1,.65.25,1,1,0,0,1,.27.66.87.87,0,0,1-.07.35.81.81,0,0,1-.19.29A.72.72,0,0,1,51,19a.87.87,0,0,1-.35.07Zm-3.66,0a.7.7,0,0,1-.35-.06,1,1,0,0,1-.3-.19,1,1,0,0,1-.2-.29,1.09,1.09,0,0,1-.07-.35,1,1,0,0,1,.27-.66,1,1,0,0,1,.65-.24,1.07,1.07,0,0,1,.66.24,1,1,0,0,1,.26.66.9.9,0,0,1-.26.64,1,1,0,0,1-.64.28Zm-3.65,0A.7.7,0,0,1,43,19a.85.85,0,0,1-.3-.19.84.84,0,0,1-.2-.29.87.87,0,0,1-.07-.35,1,1,0,0,1,0-.39.92.92,0,0,1,.19-.35,1,1,0,0,1,.31-.24,1,1,0,0,1,.39-.08,1,1,0,0,1,.38.08,1,1,0,0,1,.5.59.85.85,0,0,1,0,.39.84.84,0,0,1-.07.35.75.75,0,0,1-.2.3A.87.87,0,0,1,43.33,19.06Z"/></g><path class="cls-6" d="M48.91,49.55a.31.31,0,0,0-.2.11l-4.26,4.25a.67.67,0,0,0-.09.14.41.41,0,0,0,0,.16.45.45,0,0,0,0,.16.67.67,0,0,0,.09.14.42.42,0,0,0,.14.09.45.45,0,0,0,.16,0,.41.41,0,0,0,.16,0,.34.34,0,0,0,.14-.09l4-4,4,4a.42.42,0,0,0,.14.09.45.45,0,0,0,.16,0,.41.41,0,0,0,.16,0,.39.39,0,0,0,.23-.23.45.45,0,0,0,0-.16.41.41,0,0,0,0-.16.42.42,0,0,0-.09-.14l-4.25-4.25a.45.45,0,0,0-.19-.11.37.37,0,0,0-.21,0Zm0,3.82a.37.37,0,0,0-.2.12l-4.26,4.25a.34.34,0,0,0-.09.14.41.41,0,0,0,0,.16.45.45,0,0,0,0,.16.42.42,0,0,0,.09.14.67.67,0,0,0,.14.09.45.45,0,0,0,.16,0,.41.41,0,0,0,.16,0,.48.48,0,0,0,.14-.09l4-4,4,3.95a.71.71,0,0,0,.14.1.45.45,0,0,0,.16,0,.41.41,0,0,0,.16,0,.71.71,0,0,0,.14-.1.3.3,0,0,0,.09-.13.45.45,0,0,0,0-.16.51.51,0,0,0,0-.17.38.38,0,0,0-.09-.13l-4.25-4.25a.37.37,0,0,0-.19-.11.5.5,0,0,0-.21,0Z"/></g></g></g></svg>