<svg xmlns="http://www.w3.org/2000/svg" viewBox="0 0 72 72"><defs><style>.cls-1{opacity:0;}.cls-2{fill:#fbb03b;}.cls-3{fill:#f90;}.cls-4{fill:#2e527c;}</style></defs><g id="图层_2" data-name="图层 2"><g id="图层_1-2" data-name="图层 1"><g id="Frame155"><g class="cls-1"><rect class="cls-2" width="72" height="72"/></g><path class="cls-3" d="M42.57,34.23H37.75V26.55a1.76,1.76,0,0,0-3.52,0V36a1.52,1.52,0,0,0,.05.38l-4.09,7.09a1.28,1.28,0,0,0,.47,1.76,1.28,1.28,0,0,0,.66.18,1.24,1.24,0,0,0,.33,0,1.27,1.27,0,0,0,.78-.61l4-7h6.09a1.77,1.77,0,0,0,0-3.54Z"/><path class="cls-4" d="M58.81,37.23l0-.42H54.9a.83.83,0,0,1-.83-.82.81.81,0,0,1,.83-.79h4.77a3.52,3.52,0,0,1,1.95.35c.29.21.48.61.45,1.52a26.4,26.4,0,0,1-2,8.89l0,.09h0v0a26.42,26.42,0,0,1-5.61,8.37h0A25.87,25.87,0,0,1,36,62.08a25.58,25.58,0,0,1-10-2h0l-.1,0a25.87,25.87,0,0,1-8.35-5.6h0A25.94,25.94,0,0,1,9.92,36h0a26.07,26.07,0,0,1,2-9.94l.06-.13h0a25.69,25.69,0,0,1,5.61-8.35h0A25.46,25.46,0,0,1,26,11.9h0a26.12,26.12,0,0,1,20,0h0l.1,0a26.67,26.67,0,0,1,4.69,2.57l.66.45,0-.8-.13-2.55h0A1.6,1.6,0,0,1,52.8,9.92h0a1.64,1.64,0,0,1,1.7,1.52h0l.4,7h0a1.6,1.6,0,0,1-.45,1.36,1.49,1.49,0,0,1-1.15.47h-.06l-7,.43a1.67,1.67,0,0,1-1.7-1.54,1.62,1.62,0,0,1,1.54-1.69h0L48,17.39l1.26-.07-1.07-.66a22.71,22.71,0,0,0-3.35-1.75h-.06l-.08,0a22.18,22.18,0,0,0-7.48-1.68l-.42,0v4a.81.81,0,0,1-.8.82.84.84,0,0,1-.82-.82v-4l-.42,0a22.36,22.36,0,0,0-7.49,1.69,13.57,13.57,0,0,0-1.64.76l-.36.2.21.35.62,1.06h0a.84.84,0,0,1-.28,1.11A.85.85,0,0,1,24.7,18h0l-.62-1-.22-.36-.35.23a24,24,0,0,0-3.67,3,21.9,21.9,0,0,0-3,3.69l-.24.35.37.21L18,24.7a.81.81,0,0,1,.3,1.1.79.79,0,0,1-1.09.3l-1.07-.65-.38-.22-.19.39c-.25.51-.47,1-.71,1.55h0l0,.09h0a23.58,23.58,0,0,0-1.69,7.51l0,.42h4a.73.73,0,0,1,.3.06.76.76,0,0,1,.43.43.73.73,0,0,1,.06.3h0a.81.81,0,0,1-.79.82h-4l0,.43a23.06,23.06,0,0,0,2.45,9.12l.19.39.37-.23,1.05-.64a.84.84,0,0,1,1.12.31.8.8,0,0,1-.3,1.08h0L17,47.91l-.35.21.22.35a23,23,0,0,0,3,3.69,21.46,21.46,0,0,0,3.68,3l.35.23.21-.36L24.7,54a.84.84,0,0,1,1.13-.27.76.76,0,0,1,.28,1h0l-.63,1.13-.2.37.38.18.91.42.6.27h.06l.07,0a23.45,23.45,0,0,0,7.47,1.68l.42,0v-4a.82.82,0,0,1,.82-.81.78.78,0,0,1,.8.81v4l.42,0a22.19,22.19,0,0,0,9.12-2.44l.37-.19-.2-.36-.61-1.1h0a.76.76,0,0,1,.29-1h0a.78.78,0,0,1,1.08.26h0L47.9,55l.21.38.36-.24a22.55,22.55,0,0,0,3.68-3,24.74,24.74,0,0,0,3-3.68l.24-.36L55,47.91,54,47.28h0a.75.75,0,0,1-.29-1.06h0a.86.86,0,0,1,1.1-.32l1,.64.38.23.19-.39c.26-.51.49-1,.71-1.52l0-.08h0A22.62,22.62,0,0,0,58.81,37.23Z"/></g></g></g></svg>