<svg xmlns="http://www.w3.org/2000/svg" viewBox="0 0 72 72"><defs><style>.cls-1{opacity:0;}.cls-2{fill:#fbb03b;}.cls-3{fill:#2e527c;}.cls-4{fill:#f90;}</style></defs><g id="图层_2" data-name="图层 2"><g id="图层_1-2" data-name="图层 1"><g id="Frame159"><g class="cls-1"><rect class="cls-2" width="72" height="72"/></g><path class="cls-3" d="M14.77,10.46A1.62,1.62,0,0,0,13.05,12v48a1.72,1.72,0,0,0,1.73,1.6H57.27A1.59,1.59,0,0,0,58.45,61a1.93,1.93,0,0,0,.5-1.22V19.18a1.37,1.37,0,0,0-.49-1v0L50.36,10.9a1.88,1.88,0,0,0-1.22-.44Zm42.15,9.73v.3l0,39.07h-.3L15,59.5v-.3l0-46.75H46.63v7.12a.55.55,0,0,0,.18.45.9.9,0,0,0,.59.17Z"/><path class="cls-4" d="M23,28.58H48.79s0,0,0,0V26s0,0,0,0H23a0,0,0,0,0,0,0v2.53A0,0,0,0,0,23,28.58Z"/><path class="cls-4" d="M23,36.32H48.79a0,0,0,0,0,0,0V33.77a0,0,0,0,0,0,0H23s0,0,0,0v2.52S23,36.32,23,36.32Z"/><path class="cls-4" d="M23,44.06H48.79a0,0,0,0,0,0,0V41.5s0,0,0,0H23l0,0V44S23,44.06,23,44.06Z"/><path class="cls-4" d="M23,51.79H48.79s0,0,0,0V49.24a0,0,0,0,0,0,0H23s0,0,0,0v2.53Z"/></g></g></g></svg>