<svg xmlns="http://www.w3.org/2000/svg" viewBox="0 0 72 72"><defs><style>.cls-1{opacity:0;}.cls-2{fill:#fbb03b;}.cls-3{fill:#2e527c;}.cls-4{fill:#f90;}</style></defs><g id="图层_2" data-name="图层 2"><g id="图层_1-2" data-name="图层 1"><g id="Frame201"><g class="cls-1"><rect class="cls-2" width="72" height="72"/></g><path class="cls-3" d="M58.93,16.28,36.94,9a3,3,0,0,0-1.88,0l-22,7.33h0a1.08,1.08,0,0,0-.74,1v18A23.62,23.62,0,0,0,22.87,55L34.35,62.7a3,3,0,0,0,3.3,0L49.13,55a23.62,23.62,0,0,0,10.54-19.7v-18A1.08,1.08,0,0,0,58.93,16.28Zm-1.44,20a21.58,21.58,0,0,1-9.56,16.94L36,61.19l-12.72-8.5a21.59,21.59,0,0,1-8.79-17.35V18.09L36,10.92l21.51,7.17Z"/><path class="cls-4" d="M39.77,36.24a10.34,10.34,0,0,1,1.07.49A.89.89,0,0,1,40,38.3a8.73,8.73,0,0,0-12.65,6.05A.89.89,0,1,1,25.63,44a10.5,10.5,0,0,1,6.49-7.78,7.83,7.83,0,1,1,7.65,0ZM42,29.41a6.06,6.06,0,1,0-6.06,6.05A6.06,6.06,0,0,0,42,29.41Zm.4,10.84V37.59a.89.89,0,0,1,.12-.45,1,1,0,0,1,.32-.32.86.86,0,0,1,.44-.12.87.87,0,0,1,.45.12,1,1,0,0,1,.32.32.89.89,0,0,1,.12.45v2.66H46.8a.89.89,0,1,1,0,1.77H44.17v2.62a.87.87,0,0,1-.12.45,1,1,0,0,1-.32.32.87.87,0,0,1-.45.12.86.86,0,0,1-.44-.12,1,1,0,0,1-.32-.32.87.87,0,0,1-.12-.45V42H39.74a.89.89,0,1,1,0-1.77Z"/></g></g></g></svg>