<svg xmlns="http://www.w3.org/2000/svg" viewBox="0 0 72 72"><defs><style>.cls-1{opacity:0;}.cls-2{fill:#fbb03b;}.cls-3{fill:#2e527c;}.cls-4{fill:#f90;}</style></defs><g id="图层_2" data-name="图层 2"><g id="图层_1-2" data-name="图层 1"><g id="Frame196"><g class="cls-1"><rect class="cls-2" width="72" height="72"/></g><path class="cls-3" d="M55.22,34.4a1,1,0,0,0,1-1v-21a3.83,3.83,0,0,0-3.74-3.9H18.66a3.82,3.82,0,0,0-3.73,3.9V37a1,1,0,0,0,.29.73,1,1,0,0,0,1.44,0A1,1,0,0,0,17,37V12.35a1.77,1.77,0,0,1,1.7-1.83H52.49a1.78,1.78,0,0,1,1.71,1.83v21A1,1,0,0,0,55.22,34.4Z"/><path class="cls-4" d="M25,25.87a.76.76,0,0,0-.84.77v3.09a.76.76,0,0,0,.84.78H47a.77.77,0,0,0,.84-.78V26.64a.77.77,0,0,0-.84-.77Zm0-1.55H47a2.38,2.38,0,0,1,2.51,2.32v3.09A2.38,2.38,0,0,1,47,32.05H25a2.38,2.38,0,0,1-2.52-2.32V26.64A2.38,2.38,0,0,1,25,24.32Zm0-7.72a.76.76,0,0,0-.84.77v3.1a.76.76,0,0,0,.84.77H47a.77.77,0,0,0,.84-.77v-3.1A.77.77,0,0,0,47,16.6Zm0-1.55H47a2.38,2.38,0,0,1,2.51,2.32v3.09A2.38,2.38,0,0,1,47,22.78H25a2.38,2.38,0,0,1-2.52-2.32V17.37A2.38,2.38,0,0,1,25,15.05ZM26.67,29a.78.78,0,1,0-.84-.78A.77.77,0,0,0,26.67,29Zm0-9.27a.78.78,0,1,0-.84-.77A.77.77,0,0,0,26.67,19.69Z"/><path class="cls-3" d="M21.48,63.55a1,1,0,0,1-.71-.29l-10-10A1,1,0,0,1,10.65,52l2-3a.82.82,0,0,1,.17-.2l9-8a1,1,0,0,1,.66-.25h18a.92.92,0,0,1,.29,0,3.17,3.17,0,0,1,2.53,2.47c.15,1.47-1.11,2.9-3.84,4.37a1.28,1.28,0,0,1-.31.11l-3.64.62.89.89H46.67l9.25-6.33a1,1,0,0,1,.25-.12,4.54,4.54,0,0,1,4.16.43,3.81,3.81,0,0,1,1.15,3.63,1,1,0,0,1-.29.6c-2.8,2.8-9.43,8.77-12.54,11.54a1,1,0,0,1-.67.25H27.81l-5.73,4.3A1,1,0,0,1,21.48,63.55ZM12.77,52.42l8.81,8.81,5.3-4a1,1,0,0,1,.6-.2H47.6c3.1-2.76,9.1-8.17,11.91-10.95a1.83,1.83,0,0,0-.44-1.51,2.62,2.62,0,0,0-2.15-.13l-9.37,6.42a1.06,1.06,0,0,1-.57.17H36a1.05,1.05,0,0,1-.71-.29l-2.43-2.44a1,1,0,0,1-.37-.69c-.09-1-.09-1,6.18-2,2.17-1.19,2.69-2,2.66-2.33s-.4-.51-1-.71H22.86l-8.62,7.66Z"/></g></g></g></svg>