<svg xmlns="http://www.w3.org/2000/svg" viewBox="0 0 72 72"><defs><style>.cls-1{opacity:0;}.cls-2{fill:#fbb03b;}.cls-3{fill:#2e527c;}.cls-4{fill:#f90;}</style></defs><g id="图层_2" data-name="图层 2"><g id="图层_1-2" data-name="图层 1"><g id="Frame209"><g class="cls-1"><rect class="cls-2" width="72" height="72"/></g><path class="cls-3" d="M14.86,20.59l3.82,3.6a1.39,1.39,0,0,0,.82.24,1.4,1.4,0,0,0,.91-.46,1.32,1.32,0,0,0,0-2l-3.57-3.59a1.57,1.57,0,0,0-2,.22A1.33,1.33,0,0,0,14.86,20.59Z"/><path class="cls-3" d="M14.4,61.5H57.73A1.56,1.56,0,0,0,59,60.09a1.43,1.43,0,0,0-.37-1,1.41,1.41,0,0,0-1-.37H51.8V37.93A15.72,15.72,0,0,0,36,22.55h-.47A15.73,15.73,0,0,0,20.2,38.41V58.68H14.27A1.56,1.56,0,0,0,13,60.09a1.43,1.43,0,0,0,.37,1A1.41,1.41,0,0,0,14.4,61.5ZM23,37.93l.5,0h0l-.5,0A13,13,0,0,1,36,25.36h1a13.1,13.1,0,0,1,12,13V58.68H23Z"/><path class="cls-3" d="M51.13,23.06a1.4,1.4,0,0,0,.46.91l.08.09a1.24,1.24,0,0,0,1.71.07l.15-.16,3.58-3.59a1.33,1.33,0,0,0,.24-.83,1.4,1.4,0,0,0-.46-.91l-.07-.09.38-.32h0l-.4.3a1,1,0,0,0-.8-.36,1.57,1.57,0,0,0-.9.3l-3.73,3.76A1.33,1.33,0,0,0,51.13,23.06Z"/><path class="cls-3" d="M36,10.5a1.28,1.28,0,0,0-1.4,1.41v4.95A1.56,1.56,0,0,0,36,18.14a1.28,1.28,0,0,0,1.4-1.41v-5A1.55,1.55,0,0,0,36,10.5Z"/><path class="cls-4" d="M35,29.5a8,8,0,0,0-8,8,1.23,1.23,0,0,0,.33.92,1.47,1.47,0,0,0,1.84,0,1.23,1.23,0,0,0,.33-.92A5.51,5.51,0,0,1,35,32a1.25,1.25,0,1,0,0-2.5Z"/></g></g></g></svg>