<svg xmlns="http://www.w3.org/2000/svg" viewBox="0 0 72 72"><defs><style>.cls-1{opacity:0;}.cls-2{fill:#fbb03b;}.cls-3{fill:#2e527c;}.cls-4{fill:#f90;}</style></defs><g id="图层_2" data-name="图层 2"><g id="图层_1-2" data-name="图层 1"><g id="Frame191"><g class="cls-1"><rect class="cls-2" width="72" height="72"/></g><path class="cls-3" d="M47.08,20.47a21.6,21.6,0,0,1,4.36,7.86l2.13-.61A23.85,23.85,0,0,0,30.85,10.83a23.74,23.74,0,0,0-.14,47.47H31l.09.25a4.12,4.12,0,1,0-.1-2.74l-.08.28h-.3a21.62,21.62,0,0,1-3-.24l-.21,0-.09-.2a63,63,0,0,1-3.11-8.88l-.1-.36.36-.12a18.89,18.89,0,0,1,6.23-1.07,17.53,17.53,0,0,1,6.19,1.24l.34.13-.09.35c-.18.64-.36,1.27-.54,1.87l2.11.73c0-.13.08-.26.11-.4l1.91-8.57c.21-1.5.34-2.92.4-4.32l0-.38h3.33V33.61H41.14v-.38a51.07,51.07,0,0,0-1-8.25l-.06-.3.28-.14a32.48,32.48,0,0,0,6.2-4.11l.3-.26Zm-20-7.1.22,0a22.14,22.14,0,0,1,6.75-.05l.23,0,.09.22a71.49,71.49,0,0,1,3,9.53l.08.33-.32.13a17.73,17.73,0,0,1-6.46,1.33,18.94,18.94,0,0,1-6.48-1.16l-.34-.12.09-.34a68.76,68.76,0,0,1,3-9.65ZM16.6,18.45a21.13,21.13,0,0,1,7.06-4.18l.8-.28-.29.8a74.63,74.63,0,0,0-2.25,7.37l-.12.5-.46-.24A22.42,22.42,0,0,1,16.59,19l-.32-.3ZM9.38,33.18a21.41,21.41,0,0,1,5.06-12.54l.28-.32.3.29a24.44,24.44,0,0,0,6,4.15l.28.14-.06.3a51,51,0,0,0-1,8v.38H9.35Zm5.78,16.11L14.9,49A21.32,21.32,0,0,1,9.4,36.26l0-.43H20.25l0,.38a48.08,48.08,0,0,0,1.16,8.52l.07.31-.29.14A25.07,25.07,0,0,0,15.46,49Zm9.24,5.12.32.8-.82-.28a21.37,21.37,0,0,1-6.78-3.8l-.36-.3.35-.31a23,23,0,0,1,4.49-3.05l.44-.23.13.48A66.76,66.76,0,0,0,24.4,54.41ZM38.9,36.24a45,45,0,0,1-1,7.67l-.09.45-.43-.16A19.66,19.66,0,0,0,30.7,43,21.4,21.4,0,0,0,24,44.05l-.42.14-.1-.44a45.16,45.16,0,0,1-1-7.5l0-.42H38.92ZM22.49,33.61v-.42a46.26,46.26,0,0,1,.83-7l.08-.45.44.15a21.33,21.33,0,0,0,6.86,1.15,20,20,0,0,0,6.82-1.31L38,25.6l.09.46a48.11,48.11,0,0,1,.86,7.14v.41Zm22.4-14.72A30.07,30.07,0,0,1,40,22.19l-.46.25-.12-.5a75.2,75.2,0,0,0-2.23-7.26l-.28-.78.78.26a21.53,21.53,0,0,1,7.21,4.12l.36.31Z"/><rect class="cls-4" x="53.58" y="47.03" width="2.21" height="4.63"/><path class="cls-4" d="M64.89,42.16,63.66,41H62V38.49a7.34,7.34,0,1,0-14.68,0V41H45.72L44.5,42.17v15l1.22,1.22h18l1.22-1.22Zm-2,14.18H46.51V43h9V41H49.36V38.49a5.33,5.33,0,1,1,10.66,0l-.15,2V43h3Z"/></g></g></g></svg>