<svg width="56" height="56" viewBox="0 0 56 56" fill="none" xmlns="http://www.w3.org/2000/svg">
<path d="M19.1909 47.4834L25.9576 27.0668C25.2576 26.7168 24.7131 26.1918 24.3243 25.4918C23.9354 24.7918 23.7409 24.0723 23.7409 23.3334C23.7409 22.1668 24.159 21.1654 24.9951 20.3293C25.8312 19.4932 26.8326 19.0751 27.9993 19.0751C29.1659 19.0751 30.1673 19.4932 31.0034 20.3293C31.8395 21.1654 32.2576 22.1668 32.2576 23.3334C32.2576 24.0723 32.0729 24.782 31.7034 25.4626C31.334 26.1432 30.7798 26.6779 30.0409 27.0668L36.8076 47.4834H34.9409L33.3076 42.5251H22.6909L21.1159 47.4834H19.1909ZM23.3326 40.7168H32.6659L27.9993 26.4834L23.3326 40.7168Z" fill="#2E527C"/>
<path d="M7.99128 31.325C9.00239 33.9694 10.6163 36.3611 12.8329 38.5L14.0579 37.275C12.0746 35.3694 10.5968 33.1819 9.62461 30.7125C8.65239 28.243 8.16628 25.7833 8.16628 23.3333C8.16628 20.8833 8.65239 18.4236 9.62461 15.9542C10.5968 13.4847 12.0746 11.2972 14.0579 9.39166L12.8329 8.16666C10.6163 10.3055 9.00239 12.6972 7.99128 15.3417C6.98016 17.9861 6.47461 20.65 6.47461 23.3333C6.47461 26.0167 6.98016 28.6805 7.99128 31.325Z" fill="#FF9900"/>
<path d="M15.1371 28.525C15.7788 30.3139 16.7802 31.8694 18.1413 33.1917L19.3663 31.9667C18.1996 30.8 17.3246 29.4292 16.7413 27.8542C16.1579 26.2792 15.8663 24.7722 15.8663 23.3333C15.8663 21.8555 16.1677 20.3292 16.7704 18.7542C17.3732 17.1792 18.2385 15.8083 19.3663 14.6417L18.1413 13.475C16.7802 14.7972 15.7788 16.3528 15.1371 18.1417C14.4954 19.9305 14.1746 21.6611 14.1746 23.3333C14.1746 25.0055 14.4954 26.7361 15.1371 28.525Z" fill="#FF9900"/>
<path d="M36.6913 31.9667L37.8579 33.1917C39.2191 31.8694 40.2204 30.3236 40.8621 28.5542C41.5038 26.7847 41.8246 25.0639 41.8246 23.3917C41.8635 21.7194 40.8913 18.1708 40.8913 18.1708C40.8913 18.1708 39.2191 14.7972 37.8579 13.475L36.6913 14.6417C37.7413 15.8861 38.5774 17.3055 39.1996 18.9C39.8218 20.4944 40.1329 21.9722 40.1329 23.3333C40.1329 24.8111 39.8316 26.3375 39.2288 27.9125C38.626 29.4875 37.7802 30.8389 36.6913 31.9667Z" fill="#FF9900"/>
<path d="M41.9413 37.275L43.1663 38.5C45.4218 36.3611 47.0454 33.9792 48.0371 31.3542C49.0288 28.7292 49.5246 26.0555 49.5246 23.3333C49.5246 20.65 49.0093 17.9861 47.9788 15.3417C46.9482 12.6972 45.3441 10.3055 43.1663 8.16666L41.9413 9.39166C43.8857 11.2972 45.3538 13.4847 46.3454 15.9542C47.3371 18.4236 47.8329 20.8833 47.8329 23.3333C47.8329 25.7833 47.3371 28.243 46.3454 30.7125C45.3538 33.1819 43.8857 35.3694 41.9413 37.275Z" fill="#FF9900"/>
</svg>
