<svg xmlns="http://www.w3.org/2000/svg" xmlns:xlink="http://www.w3.org/1999/xlink" viewBox="0 0 72 72"><defs><style>.cls-1{fill:#fff;}.cls-2{opacity:0;}.cls-3{fill:#fbb03b;}.cls-4{fill:#2e527c;}.cls-5{mask:url(#mask);}.cls-6{fill:#f90;}</style><mask id="mask" x="11.93" y="11.93" width="51.56" height="51.56" maskUnits="userSpaceOnUse"><g id="path-3-inside-1_366_4264" data-name="path-3-inside-1 366 4264"><rect class="cls-1" x="13.93" y="13.93" width="47.56" height="47.56" rx="1"/></g></mask></defs><g id="图层_2" data-name="图层 2"><g id="图层_1-2" data-name="图层 1"><g id="Frame164"><g class="cls-2"><rect class="cls-3" width="72" height="72"/></g><path class="cls-4" d="M49.54,54H25.89a1,1,0,1,1,0-2H49.54a1,1,0,0,1,0,2Zm0-12.25H25.89a1,1,0,1,1,0-2H49.54a1,1,0,0,1,0,2Z"/><path class="cls-4" d="M49.54,47.9H25.89a1,1,0,1,1,0-2H49.54a1,1,0,0,1,0,2Z"/><g class="cls-5"><path class="cls-4" d="M60.49,63.49H14.93a3,3,0,0,1-3-3V14.93a3,3,0,0,1,3-3H60.49a3,3,0,0,1,3,3V60.49A3,3,0,0,1,60.49,63.49Zm-44.56-4H59.49V15.93H15.93Z"/></g><path class="cls-4" d="M9.51,45.9a1,1,0,0,1-1-1V9.51a1,1,0,0,1,1-1H41.58a1,1,0,0,1,0,2H10.51V44.9A1,1,0,0,1,9.51,45.9Z"/><path class="cls-6" d="M31,25.4a1.27,1.27,0,0,0-.51-.94,2,2,0,0,0-1.23-.33,2.37,2.37,0,0,0-.89.15,1.29,1.29,0,0,0-.55.4,1,1,0,0,0-.19.59.85.85,0,0,0,.11.48,1.34,1.34,0,0,0,.36.35,3,3,0,0,0,.51.25,5.79,5.79,0,0,0,.63.18l.91.22a6.12,6.12,0,0,1,1.23.4,3.58,3.58,0,0,1,1,.61,2.62,2.62,0,0,1,.63.85,2.72,2.72,0,0,1,.24,1.13,2.87,2.87,0,0,1-.48,1.62,3,3,0,0,1-1.35,1.06,5.44,5.44,0,0,1-2.13.38,5.6,5.6,0,0,1-2.14-.38,3.13,3.13,0,0,1-1.42-1.12,3.37,3.37,0,0,1-.54-1.85h2.09a1.55,1.55,0,0,0,.29.86,1.66,1.66,0,0,0,.7.51,2.87,2.87,0,0,0,1,.17,2.52,2.52,0,0,0,.95-.16,1.41,1.41,0,0,0,.63-.44,1,1,0,0,0,.22-.65.84.84,0,0,0-.2-.58,1.6,1.6,0,0,0-.59-.4,4.79,4.79,0,0,0-.94-.29l-1.1-.28a4.74,4.74,0,0,1-2-1,2.33,2.33,0,0,1-.74-1.8,2.69,2.69,0,0,1,.49-1.61,3.41,3.41,0,0,1,1.38-1.08,4.84,4.84,0,0,1,2-.39,4.69,4.69,0,0,1,2,.39,3.15,3.15,0,0,1,1.32,1.08A2.8,2.8,0,0,1,33,25.4Zm9.18,0a1.27,1.27,0,0,0-.51-.94,2.06,2.06,0,0,0-1.23-.33,2.33,2.33,0,0,0-.89.15,1.32,1.32,0,0,0-.56.4,1,1,0,0,0-.19.59.86.86,0,0,0,.12.48,1.17,1.17,0,0,0,.35.35,2.8,2.8,0,0,0,.52.25,5,5,0,0,0,.62.18l.92.22a6.23,6.23,0,0,1,1.22.4,3.8,3.8,0,0,1,1,.61,2.62,2.62,0,0,1,.63.85,2.94,2.94,0,0,1-.25,2.75,3,3,0,0,1-1.35,1.06,5.39,5.39,0,0,1-2.12.38,5.66,5.66,0,0,1-2.15-.38,3.13,3.13,0,0,1-1.42-1.12,3.28,3.28,0,0,1-.53-1.85h2.08a1.55,1.55,0,0,0,.29.86,1.66,1.66,0,0,0,.7.51,2.87,2.87,0,0,0,1,.17,2.49,2.49,0,0,0,1-.16,1.35,1.35,0,0,0,.63-.44,1,1,0,0,0,.23-.65.84.84,0,0,0-.21-.58,1.56,1.56,0,0,0-.58-.4,5.26,5.26,0,0,0-.94-.29l-1.11-.28a4.64,4.64,0,0,1-2-1,2.26,2.26,0,0,1-.74-1.8,2.63,2.63,0,0,1,.49-1.61,3.31,3.31,0,0,1,1.37-1.08,4.87,4.87,0,0,1,2-.39,4.66,4.66,0,0,1,2,.39,3.09,3.09,0,0,1,1.32,1.08,2.8,2.8,0,0,1,.49,1.6Zm3.65,7.25V22.47H46v8.41h4.37v1.77Z"/></g></g></g></svg>