<svg xmlns="http://www.w3.org/2000/svg" viewBox="0 0 72 72"><defs><style>.cls-1{opacity:0;}.cls-2{fill:#fbb03b;}.cls-3{fill:#2e527c;}.cls-4{fill:#f90;}</style></defs><g id="图层_2" data-name="图层 2"><g id="图层_1-2" data-name="图层 1"><g id="Frame195"><g class="cls-1"><rect class="cls-2" width="72" height="72"/></g><polygon class="cls-3" points="61.1 34.67 61.1 10.5 10.5 10.5 10.5 61.1 25.53 61.1 25.53 58.77 12.83 58.77 12.83 12.83 58.77 12.83 58.77 34.67 61.1 34.67"/><path class="cls-4" d="M55.59,43.76l-5.92,5.91h4.44a8.88,8.88,0,0,1-8.87,8.87,8.64,8.64,0,0,1-4.14-1L39,59.66a11.66,11.66,0,0,0,6.29,1.84A11.82,11.82,0,0,0,57.06,49.67H61.5ZM36.37,49.67a8.88,8.88,0,0,1,8.87-8.87,8.65,8.65,0,0,1,4.14,1l2.15-2.16a11.69,11.69,0,0,0-6.3-1.83A11.82,11.82,0,0,0,33.41,49.67H29l5.92,5.92,5.91-5.91H36.37ZM50.72,22.11H17v2.76H50.72ZM36.1,34.32H17v2.76H36.1ZM25.57,46.53H17v2.76h8.61Z"/></g></g></g></svg>