<svg xmlns="http://www.w3.org/2000/svg" xmlns:xlink="http://www.w3.org/1999/xlink" viewBox="0 0 72 72"><defs><style>.cls-1{fill:none;}.cls-2{opacity:0;}.cls-3{fill:#fbb03b;}.cls-4{clip-path:url(#clip-path);}.cls-5{fill:#2e527c;}.cls-6{fill:#f90;}</style><clipPath id="clip-path"><rect class="cls-1" x="9" y="9" width="54" height="54"/></clipPath></defs><g id="图层_2" data-name="图层 2"><g id="图层_1-2" data-name="图层 1"><g id="Frame167"><g class="cls-2"><rect class="cls-3" width="72" height="72"/></g><g class="cls-4"><path class="cls-5" d="M34.6,35.32l.1-.06V21.76l-.1-.05L23.26,15.16l-.1-.06-.1.06L11.9,21.7l-.09.06V35.27l.09.06,6.22,4.11h0a1.31,1.31,0,0,1,.42,1.73l-.05.08a1.33,1.33,0,0,1-.78.55,1.36,1.36,0,0,1-.95-.13l-.07-.05-6.9-4.56h0a1.24,1.24,0,0,1-.41-.44,1.37,1.37,0,0,1-.18-.56V21h0a1.44,1.44,0,0,1,.15-.61l-.17-.09.17.09a1.32,1.32,0,0,1,.42-.46l.08-.05L22.5,12.46h0a1.17,1.17,0,0,1,.61-.17,1.18,1.18,0,0,1,.61.13l.09,0,12.85,7.42h0a1.35,1.35,0,0,1,.45.44,1.42,1.42,0,0,1,.2.6V36h0a1.32,1.32,0,0,1-.15.59,1.27,1.27,0,0,1-.38.45l-.08.06-7.09,4.56h0a1.3,1.3,0,0,1-1,.17,1.33,1.33,0,0,1-.81-.53,1.29,1.29,0,0,1-.21-1,1.25,1.25,0,0,1,.5-.83l.07-.06Z"/><path class="cls-6" d="M48,12.46h0a1.31,1.31,0,0,1,.61-.18,1.5,1.5,0,0,1,.62.13l.1.06,12.84,7.41h0a1.38,1.38,0,0,1,.46.44,1.28,1.28,0,0,1,.19.6V36h0a1.31,1.31,0,0,1-.14.59,1.27,1.27,0,0,1-.38.45h0l-.07.06-7.1,4.56h0a1.27,1.27,0,0,1-.95.17,1.3,1.3,0,0,1-1-1.48,1.36,1.36,0,0,1,.5-.83l.08-.06,6.4-4.11.09,0V21.77l-.1-.06L48.76,15.16l-.1-.06-.1.06-11.9,7h0a1.32,1.32,0,0,1-1.73-.39l0-.08a1.29,1.29,0,0,1-.15-.94,1.31,1.31,0,0,1,.54-.79l.08-.05ZM34.73,35.72l-.11,0,.11,0a1.19,1.19,0,0,1,.14-.4l.05-.06a1.25,1.25,0,0,1,.78-.55,1.31,1.31,0,0,1,.95.13h0l.08,0,6.89,4.55h0a1.27,1.27,0,0,1,.55.81,1.25,1.25,0,0,1-.16,1,1.27,1.27,0,0,1-.78.58,1.33,1.33,0,0,1-1-.12l-.08-.05-6.9-4.56h0a1.37,1.37,0,0,1-.36-.36,1.16,1.16,0,0,1-.2-.47A1.1,1.1,0,0,1,34.73,35.72Z"/><path class="cls-5" d="M40.58,31.77a1.31,1.31,0,0,1,.12-.93h0l.06-.09a1.33,1.33,0,0,1,.78-.55,1.31,1.31,0,0,1,1,.13l.08.05,6.9,4.56h0a1.31,1.31,0,0,1,.4.44l.18-.1-.18.1a1.37,1.37,0,0,1,.18.56V51a1.41,1.41,0,0,1-.15.61,1.27,1.27,0,0,1-.42.47l-.08,0L36.76,59.54h0a1.35,1.35,0,0,1-.61.18,1.47,1.47,0,0,1-.62-.13h0l-.09-.05L22.6,52.12a1.26,1.26,0,0,1-.45-.44,1.38,1.38,0,0,1-.2-.59V36a1.26,1.26,0,0,1,.53-1l.08-.06,7.09-4.56h0a1.27,1.27,0,0,1,1-.17,1.32,1.32,0,0,1,.82.54,1.31,1.31,0,0,1-.29,1.78l-.08,0-6.4,4.1-.09.06v13.5l.1.06L36,56.85l.1.06.1-.06,11.16-6.54.1-.06V36.73l-.09-.06-6.24-4.11h0A1.34,1.34,0,0,1,40.58,31.77Z"/></g></g></g></g></svg>