<svg xmlns="http://www.w3.org/2000/svg" viewBox="0 0 72 72"><defs><style>.cls-1{opacity:0;}.cls-2{fill:#fbb03b;}.cls-3{fill:#2e527c;}.cls-4{fill:#f90;}</style></defs><g id="图层_2" data-name="图层 2"><g id="图层_1-2" data-name="图层 1"><g id="Frame178"><g class="cls-1"><rect class="cls-2" width="72" height="72"/></g><path class="cls-3" d="M60.94,54.57a5.31,5.31,0,0,0-.52-4.07l-.16-.15a.76.76,0,0,1-.1-.12l-.59-.59.42-.78a27.19,27.19,0,0,0-.28-26.58A27.48,27.48,0,0,0,31.13,9.05a1.1,1.1,0,0,0-.86,1.4,1.12,1.12,0,0,0,1.22.74,25.35,25.35,0,0,1,26.4,12.13,25,25,0,0,1,.62,24l-.44.86-.94-.26a6.08,6.08,0,0,0-1.54-.2,6,6,0,0,0-2.82.7,5.26,5.26,0,0,0-2.57,3.28,5.37,5.37,0,0,0,.62,4.18,5.25,5.25,0,0,0,3.32,2.63,5.33,5.33,0,0,0,4.18-.62A5.25,5.25,0,0,0,60.94,54.57Zm-2.08-.5a3.27,3.27,0,0,1-1.56,2.1,3.59,3.59,0,0,1-1.74.46,3.72,3.72,0,0,1-.81-.09A3.27,3.27,0,0,1,52.66,55h0a3.38,3.38,0,1,1,6.2-.9Z"/><path class="cls-3" d="M40.87,63a1.11,1.11,0,0,0,.86-1.41,1.15,1.15,0,0,0-.43-.73,1.23,1.23,0,0,0-.79-.15,25.35,25.35,0,0,1-26.4-12.13,25,25,0,0,1-.62-24l.44-.86.94.26a6,6,0,0,0,4.36-.5,5.26,5.26,0,0,0,2.57-3.29A5.36,5.36,0,0,0,21.18,16a5.25,5.25,0,0,0-3.32-2.63,5.33,5.33,0,0,0-4.18.62,5.25,5.25,0,0,0-2.62,3.29,5.35,5.35,0,0,0,.56,4.12,2,2,0,0,1,.24.38l.57.57-.42.78A27.22,27.22,0,0,0,40.87,63ZM13.14,17.78a3.27,3.27,0,0,1,1.56-2.1,3.55,3.55,0,0,1,2.55-.37,3.27,3.27,0,0,1,2.09,1.57,3.43,3.43,0,0,1,.37,2.54,3.27,3.27,0,0,1-1.56,2.1,3.59,3.59,0,0,1-1.74.46,3.72,3.72,0,0,1-.81-.09,3.27,3.27,0,0,1-2.09-1.57A3.43,3.43,0,0,1,13.14,17.78Z"/><path class="cls-4" d="M48.83,43.81a.25.25,0,0,0,.12-.24v-7.8c0-.08,0-.15-.16-.26L44.36,33A2.9,2.9,0,0,1,43,30.52V25.27c0-.08,0-.16-.16-.26L36.1,21.15h0l-.13,0L29.17,25a.24.24,0,0,0-.12.23v5.25A2.86,2.86,0,0,1,27.72,33l-4.56,2.58a.25.25,0,0,0-.11.23v7.8c0,.09,0,.16.16.27L30,47.74H30l6-3.41,5.89,3.37h0l.14.05ZM35.05,42.69l-5,2.82L25,42.69V36.81L30,34l5,2.83ZM31,32.19V26.31L36,23.48l5,2.83v5.88L36,35Zm6,10.5V36.81L42,34l5,2.83v5.88l-5,2.82Z"/></g></g></g></svg>