<?xml version="1.0" encoding="UTF-8"?>
<svg width="570px" height="370px" viewBox="0 0 570 370" version="1.1" xmlns="http://www.w3.org/2000/svg" xmlns:xlink="http://www.w3.org/1999/xlink">
    <title>域名劫持污染修复</title>
    <g id="页面-1" stroke="none" stroke-width="1" fill="none" fill-rule="evenodd">
        <g id="域名劫持污染修复">
            <rect id="矩形" fill-opacity="0" fill="#FFFFFF" fill-rule="nonzero" x="0" y="0" width="570" height="370"></rect>
            <rect id="矩形" stroke="#003682" stroke-width="2" fill="#FFFFFF" fill-rule="nonzero" x="330" y="78" width="159" height="96"></rect>
            <path d="M340.375,85.3125 C340.375,86.5206 339.396,87.5 338.188,87.5 C336.979,87.5 336,86.5206 336,85.3125 C336,84.1044 336.979,83.125 338.188,83.125 C339.396,83.125 340.375,84.1044 340.375,85.3125 Z" id="路径" fill="#003682" fill-rule="nonzero"></path>
            <path d="M348.25,85.3125 C348.25,86.5206 347.271,87.5 346.062,87.5 C344.854,87.5 343.875,86.5206 343.875,85.3125 C343.875,84.1044 344.854,83.125 346.062,83.125 C347.271,83.125 348.25,84.1044 348.25,85.3125 Z" id="路径" fill="#003682" fill-rule="nonzero"></path>
            <path d="M353.938,87.5 C355.146,87.5 356.125,86.5206 356.125,85.3125 C356.125,84.1044 355.146,83.125 353.938,83.125 C352.729,83.125 351.75,84.1044 351.75,85.3125 C351.75,86.5206 352.729,87.5 353.938,87.5 Z" id="路径" fill="#003682" fill-rule="nonzero"></path>
            <rect id="矩形" fill-opacity="0.3" fill="#7FA5D2" fill-rule="nonzero" x="341" y="93" width="136.5" height="73.5"></rect>
            <path d="M417.344,139 C416.559,138.766 415.861,138.333 415.308,137.758 C415.514,137.514 415.639,137.198 415.639,136.853 C415.639,136.078 415.01,135.449 414.234,135.449 C414.187,135.449 414.141,135.451 414.095,135.456 C414.033,135.151 414,134.835 414,134.512 C414,134.023 414.075,133.551 414.214,133.108 C414.221,133.108 414.227,133.108 414.234,133.108 C415.01,133.108 415.639,132.479 415.639,131.703 C415.639,131.481 415.587,131.27 415.495,131.083 C416.036,130.58 416.697,130.203 417.43,130 C417.662,130.455 418.135,130.767 418.682,130.767 C419.228,130.767 419.701,130.455 419.933,130 C420.667,130.203 421.327,130.58 421.869,131.083 C421.777,131.27 421.725,131.481 421.725,131.703 C421.725,132.479 422.354,133.108 423.129,133.108 C423.136,133.108 423.142,133.108 423.149,133.108 C423.288,133.551 423.363,134.023 423.363,134.512 C423.363,134.835 423.331,135.151 423.268,135.456 C423.222,135.451 423.176,135.449 423.129,135.449 C422.354,135.449 421.725,136.078 421.725,136.853 C421.725,137.198 421.849,137.514 422.055,137.758 C421.502,138.333 420.804,138.766 420.02,139 C419.839,138.434 419.308,138.024 418.682,138.024 C418.055,138.024 417.525,138.434 417.344,139 Z" id="路径" stroke="#7FA5D2" stroke-width="1.5" stroke-linejoin="round"></path>
            <path d="M418.682,136.151 C419.586,136.151 420.32,135.417 420.32,134.512 C420.32,133.607 419.586,132.874 418.682,132.874 C417.777,132.874 417.043,133.607 417.043,134.512 C417.043,135.417 417.777,136.151 418.682,136.151 Z" id="路径" stroke="#7FA5D2" stroke-width="1.5" stroke-linejoin="round"></path>
            <path d="M414,126.4 C414,129.382 411.582,131.8 408.6,131.8 C407.688,131.8 406.829,131.574 406.075,131.175 L398.25,139 L396,136.75 L403.825,128.925 C403.426,128.171 403.2,127.312 403.2,126.4 C403.2,123.418 405.618,121 408.6,121 C409.512,121 410.371,121.226 411.125,121.625 L407.7,125.05 L409.95,127.3 L413.375,123.875 C413.774,124.629 414,125.488 414,126.4 Z" id="路径" stroke="#7FA5D2" stroke-width="1.5" stroke-linecap="round" stroke-linejoin="round"></path>
            <rect id="矩形" stroke="#003682" stroke-width="2" fill="#FFFFFF" fill-rule="nonzero" x="81" y="129" width="122.857" height="74"></rect>
            <path d="M88.8213,134.446 C88.8213,135.383 88.0618,136.143 87.1249,136.143 C86.188,136.143 85.4285,135.383 85.4285,134.446 C85.4285,133.51 86.188,132.75 87.1249,132.75 C88.0618,132.75 88.8213,133.51 88.8213,134.446 Z" id="路径" fill="#003682" fill-rule="nonzero"></path>
            <path d="M94.9285,134.446 C94.9285,135.383 94.1689,136.143 93.232,136.143 C92.2951,136.143 91.5356,135.383 91.5356,134.446 C91.5356,133.51 92.2951,132.75 93.232,132.75 C94.1689,132.75 94.9285,133.51 94.9285,134.446 Z" id="路径" fill="#003682" fill-rule="nonzero"></path>
            <path d="M99.3392,136.143 C100.276,136.143 101.036,135.383 101.036,134.446 C101.036,133.51 100.276,132.75 99.3392,132.75 C98.4023,132.75 97.6428,133.51 97.6428,134.446 C97.6428,135.383 98.4023,136.143 99.3392,136.143 Z" id="路径" fill="#003682" fill-rule="nonzero"></path>
            <rect id="矩形" fill-opacity="0.3" fill="#7FA5D2" fill-rule="nonzero" x="89" y="143" width="108" height="27"></rect>
            <path d="M148.786,164 C148.133,163.805 147.551,163.444 147.09,162.965 C147.262,162.762 147.365,162.498 147.365,162.211 C147.365,161.565 146.841,161.041 146.195,161.041 C146.156,161.041 146.117,161.043 146.079,161.046 C146.027,160.792 146,160.53 146,160.26 C146,159.852 146.063,159.459 146.179,159.09 C146.184,159.09 146.19,159.09 146.195,159.09 C146.841,159.09 147.365,158.566 147.365,157.919 C147.365,157.734 147.322,157.558 147.245,157.403 C147.697,156.983 148.247,156.669 148.858,156.5 C149.052,156.879 149.446,157.139 149.901,157.139 C150.357,157.139 150.751,156.879 150.945,156.5 C151.555,156.669 152.106,156.983 152.557,157.403 C152.48,157.558 152.437,157.734 152.437,157.919 C152.437,158.566 152.961,159.09 153.608,159.09 C153.613,159.09 153.619,159.09 153.624,159.09 C153.74,159.459 153.803,159.852 153.803,160.26 C153.803,160.53 153.775,160.792 153.724,161.046 C153.685,161.043 153.647,161.041 153.608,161.041 C152.961,161.041 152.437,161.565 152.437,162.211 C152.437,162.498 152.541,162.762 152.713,162.965 C152.252,163.444 151.67,163.805 151.016,164 C150.866,163.528 150.423,163.186 149.901,163.186 C149.379,163.186 148.937,163.528 148.786,164 Z" id="路径" stroke="#7FA5D2" stroke-linejoin="round"></path>
            <path d="M149.901,161.626 C150.655,161.626 151.267,161.014 151.267,160.26 C151.267,159.506 150.655,158.895 149.901,158.895 C149.147,158.895 148.536,159.506 148.536,160.26 C148.536,161.014 149.147,161.626 149.901,161.626 Z" id="路径" stroke="#7FA5D2" stroke-linejoin="round"></path>
            <path d="M146,153.5 C146,155.985 143.985,158 141.5,158 C140.74,158 140.024,157.812 139.396,157.479 L132.875,164 L131,162.125 L137.521,155.604 C137.188,154.976 137,154.26 137,153.5 C137,151.015 139.015,149 141.5,149 C142.26,149 142.976,149.188 143.604,149.521 L140.75,152.375 L142.625,154.25 L145.479,151.396 C145.812,152.024 146,152.74 146,153.5 Z" id="路径" stroke="#7FA5D2" stroke-linecap="round" stroke-linejoin="round"></path>
            <rect id="矩形" fill-opacity="0.3" fill="#7FA5D2" fill-rule="nonzero" x="155" y="172" width="24" height="23"></rect>
            <rect id="矩形" fill-opacity="0.3" fill="#7FA5D2" fill-rule="nonzero" x="89" y="178" width="64" height="5"></rect>
            <rect id="矩形" fill-opacity="0.3" fill="#7FA5D2" fill-rule="nonzero" x="89" y="190" width="64" height="5"></rect>
            <rect id="矩形" fill="#FFFFFF" fill-rule="nonzero" x="168" y="149" width="209" height="133" rx="4"></rect>
            <path d="M143,282 C142.448,282 142,282.448 142,283 L142,288.653 C142,289.51 142.364,290.342 143.137,290.71 C145.475,291.822 150.41,292.83 158,292.5 C166.745,292.12 233.113,292.312 270,292.475 L270,292.5 C270.893,292.496 271.81,292.492 272.75,292.487 C273.69,292.492 274.607,292.496 275.5,292.5 L275.5,292.475 C312.387,292.312 378.755,292.12 387.5,292.5 C395.09,292.83 400.025,291.822 402.363,290.71 C403.136,290.342 403.5,289.51 403.5,288.653 L403.5,283 C403.5,282.448 403.052,282 402.5,282 L143,282 Z" id="路径" stroke="#003682" stroke-width="2"></path>
            <path d="M169,153 C169,151.343 170.343,150 172,150 L373,150 C374.657,150 376,151.343 376,153 L376,282 L169,282 L169,153 Z" id="路径" stroke="#003682" stroke-width="2" fill-opacity="0.3" fill="#7FA5D2" fill-rule="nonzero"></path>
            <rect id="矩形" stroke="#003682" stroke-width="2" fill="#FFFFFF" fill-rule="nonzero" x="181" y="167" width="182" height="110"></rect>
            <rect id="矩形" fill-opacity="0.3" fill="#7FA5D2" fill-rule="nonzero" x="194" y="184" width="156" height="84"></rect>
            <path d="M292.916,250 C290.824,249.377 288.962,248.221 287.488,246.689 C288.038,246.037 288.37,245.195 288.37,244.275 C288.37,242.207 286.693,240.53 284.624,240.53 C284.499,240.53 284.375,240.536 284.253,240.548 C284.087,239.736 284,238.895 284,238.033 C284,236.728 284.2,235.47 284.572,234.287 C284.589,234.288 284.607,234.288 284.624,234.288 C286.693,234.288 288.37,232.611 288.37,230.542 C288.37,229.949 288.231,229.387 287.985,228.888 C289.429,227.546 291.191,226.541 293.146,226 C293.766,227.214 295.028,228.046 296.484,228.046 C297.941,228.046 299.203,227.214 299.823,226 C301.777,226.541 303.54,227.546 304.983,228.888 C304.737,229.387 304.599,229.949 304.599,230.542 C304.599,232.611 306.276,234.288 308.344,234.288 C308.362,234.288 308.38,234.288 308.397,234.287 C308.768,235.47 308.969,236.728 308.969,238.033 C308.969,238.895 308.881,239.736 308.715,240.548 C308.593,240.536 308.47,240.53 308.344,240.53 C306.276,240.53 304.599,242.207 304.599,244.275 C304.599,245.195 304.931,246.037 305.481,246.689 C304.006,248.221 302.144,249.377 300.052,250 C299.57,248.49 298.155,247.396 296.484,247.396 C294.814,247.396 293.399,248.49 292.916,250 Z" id="路径" stroke="#7FA5D2" stroke-width="2" stroke-linejoin="round"></path>
            <path d="M296.484,242.402 C298.897,242.402 300.854,240.446 300.854,238.033 C300.854,235.62 298.897,233.663 296.484,233.663 C294.071,233.663 292.115,235.62 292.115,238.033 C292.115,240.446 294.071,242.402 296.484,242.402 Z" id="路径" stroke="#7FA5D2" stroke-width="2" stroke-linejoin="round"></path>
            <path d="M284,216.4 C284,224.353 277.553,230.8 269.6,230.8 C267.168,230.8 264.877,230.197 262.868,229.132 L242,250 L236,244 L256.868,223.132 C255.803,221.123 255.2,218.832 255.2,216.4 C255.2,208.447 261.647,202 269.6,202 C272.032,202 274.323,202.603 276.332,203.668 L267.2,212.8 L273.2,218.8 L282.332,209.668 C283.397,211.677 284,213.968 284,216.4 Z" id="路径" stroke="#7FA5D2" stroke-width="2" stroke-linecap="round" stroke-linejoin="round"></path>
            <path d="M193,175.5 C193,176.881 191.881,178 190.5,178 C189.119,178 188,176.881 188,175.5 C188,174.119 189.119,173 190.5,173 C191.881,173 193,174.119 193,175.5 Z" id="路径" fill="#003682" fill-rule="nonzero"></path>
            <path d="M202,175.5 C202,176.881 200.881,178 199.5,178 C198.119,178 197,176.881 197,175.5 C197,174.119 198.119,173 199.5,173 C200.881,173 202,174.119 202,175.5 Z" id="路径" fill="#003682" fill-rule="nonzero"></path>
            <path d="M208.5,178 C209.881,178 211,176.881 211,175.5 C211,174.119 209.881,173 208.5,173 C207.119,173 206,174.119 206,175.5 C206,176.881 207.119,178 208.5,178 Z" id="路径" fill="#003682" fill-rule="nonzero"></path>
            <path d="M266,158 C265.448,158 265,158.448 265,159 C265,159.552 265.448,160 266,160 L268,160 C268.552,160 269,159.552 269,159 C269,158.448 268.552,158 268,158 L266,158 Z M272,158 C271.448,158 271,158.448 271,159 C271,159.552 271.448,160 272,160 L280,160 C280.552,160 281,159.552 281,159 C281,158.448 280.552,158 280,158 L272,158 Z" id="形状" fill="#003682"></path>
        </g>
    </g>
</svg>