<?xml version="1.0" encoding="UTF-8"?>
<svg width="570px" height="370px" viewBox="0 0 570 370" version="1.1" xmlns="http://www.w3.org/2000/svg" xmlns:xlink="http://www.w3.org/1999/xlink">
    <title>丰富的处理策略</title>
    <defs>
        <path d="M22.992785,0 C29.050785,4.555 36.531785,7.32 44.657785,7.496 C49.654785,25.128 40.389785,43.875 23.000785,50.403 C5.61578499,43.875 -3.64821501,25.128 1.34778499,7.496 C9.46578499,7.319 16.933785,4.544 22.992785,0 Z" id="path-1"></path>
    </defs>
    <g id="页面-1" stroke="none" stroke-width="1" fill="none" fill-rule="evenodd">
        <g id="丰富的处理策略">
            <rect id="矩形" fill-opacity="0" fill="#FFFFFF" fill-rule="nonzero" x="0" y="0" width="570" height="370"></rect>
            <line x1="135.504" y1="271.669" x2="433.42" y2="99.6664" id="路径" stroke="#FF6633" stroke-linecap="round" stroke-linejoin="round"></line>
            <line x1="135.504" y1="99.6664" x2="433.42" y2="271.669" id="路径" stroke="#FF6633" stroke-linecap="round" stroke-linejoin="round"></line>
            <circle id="椭圆形" stroke="#003682" fill="#FFFFFF" fill-rule="nonzero" cx="285.609" cy="184.521" r="106.141"></circle>
            <circle id="椭圆形" stroke="#003682" fill="#FFFFFF" fill-rule="nonzero" cx="285.609" cy="184.521" r="82.0611"></circle>
            <path d="M331.123,165.998 L331.156,166.484 L331.557,166.758 C334.91,169.046 337.789,171.947 340.038,175.304 C343.233,180.245 344.878,186.007 344.768,191.868 L344.767,191.88 L344.767,191.892 C344.788,195.993 343.974,200.057 342.374,203.841 C340.708,207.614 338.301,211.024 335.292,213.871 L335.285,213.878 L335.278,213.884 C332.342,216.769 328.859,219.054 325.028,220.606 C321.197,222.159 317.092,222.95 312.951,222.933 L312.947,222.933 L253.524,222.933 L253.514,222.933 L253.504,222.933 C249.792,223.008 246.102,222.357 242.647,221.017 C239.192,219.677 236.039,217.675 233.371,215.127 L233.363,215.12 C230.664,212.596 228.522,209.549 227.071,206.17 C225.62,202.791 224.89,199.153 224.928,195.483 L224.928,195.469 L224.928,195.454 C224.808,189.024 227.055,182.769 231.253,177.851 L231.258,177.845 L231.262,177.84 C233.326,175.349 235.809,173.229 238.603,171.573 L239.159,171.243 L239.086,170.601 C238.731,167.455 239.105,164.27 240.181,161.288 C241.256,158.306 243.005,155.604 245.295,153.388 L245.296,153.387 C247.298,151.441 249.67,149.906 252.276,148.87 C254.882,147.834 257.67,147.318 260.479,147.351 L260.487,147.351 L260.495,147.351 C262.354,147.344 264.207,147.564 266.011,148.006 L266.641,148.16 L267.039,147.648 C269.438,144.564 272.333,141.889 275.609,139.73 L275.611,139.729 C281.472,135.849 288.379,133.804 295.434,133.861 L295.444,133.862 L295.454,133.861 C300.109,133.81 304.73,134.655 309.058,136.35 C313.435,138.19 317.392,140.881 320.696,144.261 L320.71,144.275 L320.724,144.289 C324.047,147.429 326.709,151.187 328.556,155.347 C330.011,158.73 330.878,162.331 331.123,165.998 Z" id="路径" stroke="#003682" stroke-width="2" fill="#FFFFFF" fill-rule="nonzero"></path>
            <path d="M284.827,157.033 C291.457,162.034 299.657,165.067 308.564,165.246 C314.081,184.583 303.92,205.162 284.836,212.308 C265.756,205.162 255.596,184.583 261.112,165.246 C270.011,165.066 278.196,162.023 284.827,157.033 Z" id="路径" stroke="#003682" stroke-width="2" fill="#FFFFFF" fill-rule="nonzero"></path>
            <g id="Clipped" transform="translate(261.835215, 159.468000)">
                <mask id="mask-2" fill="white">
                    <use xlink:href="#path-1"></use>
                </mask>
                <g id="路径"></g>
                <g id="编组" mask="url(#mask-2)" fill="#7FA4D2" fill-opacity="0.3" fill-rule="nonzero">
                    <g transform="translate(-10.662215, -6.911000)" id="矩形">
                        <rect x="0" y="-2.84217094e-14" width="33.6655" height="33.6655"></rect>
                        <rect x="33.666" y="33.666" width="33.6655" height="33.6655"></rect>
                    </g>
                </g>
            </g>
            <circle id="椭圆形" stroke="#FF6633" stroke-width="2" fill="#FFFFFF" fill-rule="nonzero" transform="translate(422.009000, 105.398000) rotate(57.334200) translate(-422.009000, -105.398000) " cx="422.009" cy="105.398" r="28.2404"></circle>
            <circle id="椭圆形" fill-opacity="0.2" fill="#FF6633" fill-rule="nonzero" transform="translate(422.899000, 105.501000) rotate(57.334200) translate(-422.899000, -105.501000) " cx="422.899" cy="105.501" r="23.507"></circle>
            <g id="编组" transform="translate(407.578000, 88.183700)" fill="#FF6633" fill-rule="nonzero">
                <path d="M12.415,10.2158 L9.468,5.6192 L7.935,6.6016 L10.883,11.1981 L7.665,13.2613 C6.026,11.7172 3.37,10.6095 0,12.7703 L0.982,14.3033 C4.659,11.9453 6.974,15.2173 7.268,15.6773 L14.145,26.4023 C14.243,26.5563 16.601,30.2333 12.77,32.6893 L13.753,34.2213 C16.97,32.1583 17.072,29.2823 16.506,27.0503 L19.724,24.9883 L22.671,29.5843 L24.203,28.6023 L21.256,24.0053 L23.554,22.5323 C24.474,21.9423 25.141,21.2983 25.711,20.5003 C27.196,22.1423 30.147,23.7103 33.671,21.4503 L32.689,19.9183 C29.471,21.9813 27.44,19.8243 26.599,18.8503 C27.652,16.4453 27.502,13.5143 26.028,11.2165 C24.457,8.765 21.954,7.559 19.329,7.5121 C18.893,6.4946 17.683,3.5951 20.9,1.5322 L19.918,-1.42108547e-14 C16.394,2.2594 16.587,5.5951 17.459,7.6301 C16.497,7.8149 15.632,8.1528 14.713,8.7423 L12.415,10.2158 Z M24.496,12.1993 C26.363,15.1103 25.483,19.1333 22.572,20.9993 L15.677,25.4203 L12.73,20.8233 L21.923,14.9293 L20.941,13.3973 L11.748,19.2913 L8.801,14.6953 L15.695,10.2744 C18.607,8.408 22.63,9.2877 24.496,12.1993 Z" id="形状"></path>
                <path d="M3.661,25.2253 C5.527,28.1363 9.55,29.0163 12.461,27.1493 L5.585,16.4243 C2.674,18.2903 1.794,22.3143 3.661,25.2253 Z M9.75,26.2933 C7.978,26.5643 6.175,25.7753 5.193,24.2423 C4.21,22.7103 4.246,20.7423 5.232,19.2453 L9.75,26.2933 Z" id="形状"></path>
            </g>
            <circle id="椭圆形" stroke="#FF6633" stroke-width="2" fill="#FFFFFF" fill-rule="nonzero" transform="translate(421.826000, 263.980000) rotate(120.000000) translate(-421.826000, -263.980000) " cx="421.826" cy="263.98" r="28.2404"></circle>
            <circle id="椭圆形" fill-opacity="0.2" fill="#FF6633" fill-rule="nonzero" transform="translate(422.143000, 264.818000) rotate(120.000000) translate(-422.143000, -264.818000) " cx="422.143" cy="264.818" r="23.507"></circle>
            <g id="编组" transform="translate(406.406000, 249.119000)" fill="#FF6633" fill-rule="nonzero">
                <path d="M20.711,9.856 L23.441,5.127 L21.865,4.217 L19.134,8.946 L15.824,7.035 C16.444,4.87 16.208,2.002 12.74,0 L11.83,1.576 C15.613,3.76 13.769,7.319 13.496,7.792 L7.126,18.826 C7.035,18.983 4.851,22.766 0.91,20.491 L0,22.067 C3.31,23.978 5.912,22.748 7.634,21.221 L10.944,23.132 L8.214,27.861 L9.79,28.771 L12.52,24.042 L14.885,25.407 C15.83,25.953 16.71,26.25 17.68,26.39 C16.903,28.464 16.865,31.805 20.491,33.898 L21.401,32.321 C18.091,30.41 19.074,27.615 19.553,26.421 C22.173,26.252 24.708,24.773 26.073,22.409 C27.529,19.887 27.451,17.11 26.288,14.757 C26.991,13.902 29.011,11.496 32.321,13.407 L33.231,11.831 C29.606,9.738 26.731,11.44 25.324,13.15 C24.718,12.38 24.021,11.767 23.075,11.221 L20.711,9.856 Z M24.497,21.499 C22.768,24.494 18.79,25.56 15.795,23.831 L8.702,19.736 L11.432,15.007 L20.889,20.467 L21.799,18.891 L12.342,13.431 L15.072,8.702 L22.165,12.797 C25.16,14.526 26.226,18.504 24.497,21.499 Z" id="形状"></path>
                <path d="M3.358,8.971 C1.629,11.966 2.695,15.944 5.689,17.673 L12.06,6.64 C9.065,4.911 5.087,5.976 3.358,8.971 Z M5.205,14.872 C4.151,13.422 4.024,11.457 4.934,9.881 C5.844,8.305 7.609,7.432 9.391,7.621 L5.205,14.872 Z" id="形状"></path>
            </g>
            <circle id="椭圆形" stroke="#FF6633" stroke-width="2" fill="#FFFFFF" fill-rule="nonzero" transform="translate(148.398000, 264.602000) rotate(-122.666000) translate(-148.398000, -264.602000) " cx="148.398" cy="264.602" r="28.2404"></circle>
            <circle id="椭圆形" fill-opacity="0.2" fill="#FF6633" fill-rule="nonzero" transform="translate(147.508000, 264.499000) rotate(-122.666000) translate(-147.508000, -264.499000) " cx="147.508" cy="264.499" r="23.507"></circle>
            <g id="编组" transform="translate(129.158000, 247.595000)" fill="#FF6633" fill-rule="nonzero">
                <path d="M21.256,24.006 L24.203,28.602 L25.735,27.62 L22.788,23.023 L26.006,20.96 C27.644,22.504 30.3,23.612 33.671,21.451 L32.689,19.919 C29.012,22.276 26.697,19.004 26.402,18.544 L19.526,7.819 C19.428,7.665 17.07,3.988 20.9,1.532 L19.918,5.68434189e-14 C16.701,2.063 16.599,4.939 17.165,7.171 L13.947,9.233 L11,4.637 L9.468,5.619 L12.415,10.216 L10.117,11.689 C9.197,12.279 8.529,12.923 7.96,13.721 C6.474,12.079 3.524,10.511 2.84217094e-14,12.771 L0.982,14.303 C4.2,12.24 6.231,14.397 7.072,15.371 C6.019,17.776 6.169,20.707 7.642,23.005 C9.214,25.456 11.717,26.662 14.341,26.709 C14.778,27.727 15.988,30.626 12.77,32.689 L13.753,34.221 C17.277,31.962 17.084,28.626 16.212,26.591 C17.174,26.406 18.038,26.068 18.958,25.479 L21.256,24.006 Z M9.174,22.022 C7.308,19.111 8.188,15.088 11.099,13.222 L17.994,8.801 L20.941,13.398 L11.748,19.292 L12.73,20.824 L21.923,14.93 L24.87,19.526 L17.975,23.947 C15.064,25.813 11.041,24.934 9.174,22.022 Z" id="形状"></path>
                <path d="M30.01,8.996 C28.144,6.085 24.12,5.205 21.209,7.072 L28.086,17.797 C30.997,15.931 31.877,11.907 30.01,8.996 Z M23.92,7.928 C25.692,7.657 27.496,8.446 28.478,9.979 C29.46,11.511 29.425,13.479 28.439,14.976 L23.92,7.928 Z" id="形状"></path>
            </g>
            <circle id="椭圆形" stroke="#FF6633" stroke-width="2" fill="#FFFFFF" fill-rule="nonzero" transform="translate(148.581000, 106.020000) rotate(-60.000000) translate(-148.581000, -106.020000) " cx="148.581" cy="106.02" r="28.2404"></circle>
            <circle id="椭圆形" fill-opacity="0.2" fill="#FF6633" fill-rule="nonzero" transform="translate(148.263000, 105.182000) rotate(-60.000000) translate(-148.263000, -105.182000) " cx="148.263" cy="105.182" r="23.507"></circle>
            <g id="编组" transform="translate(130.769000, 86.983300)" fill="#FF6633" fill-rule="nonzero">
                <path d="M12.521,24.0417 L9.791,28.7707 L11.367,29.6807 L14.097,24.9517 L17.407,26.8627 C16.788,29.0277 17.023,31.8957 20.491,33.8977 L21.401,32.3217 C17.618,30.1367 19.463,26.5787 19.736,26.1057 L26.106,15.0717 C26.197,14.9147 28.381,11.1315 32.322,13.4067 L33.232,11.8304 C29.921,9.9193 27.32,11.1494 25.597,12.6768 L22.287,10.7658 L25.017,6.0371 L23.441,5.1271 L20.711,9.8557 L18.347,8.4907 C17.401,7.9447 16.522,7.6473 15.552,7.5075 C16.329,5.434 16.366,2.0931 12.741,-1.42108547e-14 L11.831,1.5762 C15.141,3.4873 14.158,6.2822 13.678,7.4766 C11.059,7.6455 8.524,9.1242 7.159,11.4885 C5.703,14.0107 5.78,16.7877 6.944,19.1407 C6.24,19.9957 4.22,22.4017 0.91,20.4907 L0,22.0667 C3.626,24.1597 6.5,22.4567 7.908,20.7477 C8.514,21.5177 9.211,22.1307 10.156,22.6767 L12.521,24.0417 Z M8.735,12.3986 C10.464,9.4037 14.442,8.3378 17.437,10.0669 L24.53,14.1617 L21.8,18.8907 L12.342,13.4307 L11.432,15.0067 L20.89,20.4667 L18.159,25.1957 L11.066,21.1007 C8.072,19.3717 7.006,15.3937 8.735,12.3986 Z" id="形状"></path>
                <path d="M29.874,24.9267 C31.603,21.9317 30.537,17.9537 27.542,16.2247 L21.172,27.2577 C24.167,28.9867 28.145,27.9217 29.874,24.9267 Z M28.026,19.0257 C29.081,20.4757 29.208,22.4397 28.298,24.0167 C27.388,25.5927 25.623,26.4647 23.84,26.2767 L28.026,19.0257 Z" id="形状"></path>
            </g>
        </g>
    </g>
</svg>