<?xml version="1.0" encoding="UTF-8"?>
<svg width="570px" height="370px" viewBox="0 0 570 370" version="1.1" xmlns="http://www.w3.org/2000/svg" xmlns:xlink="http://www.w3.org/1999/xlink">
    <title>静态和动态内容同时加速</title>
    <defs>
        <rect id="path-1" x="0" y="2.84217094e-14" width="91.4107" height="91.4107" rx="1"></rect>
        <rect id="path-3" x="2.84217094e-14" y="2.84217094e-14" width="91.4107" height="91.4107" rx="1"></rect>
        <rect id="path-5" x="0" y="2.84217094e-14" width="91.4107" height="91.4107" rx="1"></rect>
    </defs>
    <g id="页面-1" stroke="none" stroke-width="1" fill="none" fill-rule="evenodd">
        <g id="静态和动态内容同时加速">
            <rect id="矩形" fill-opacity="0" fill="#FFFFFF" fill-rule="nonzero" x="0" y="0" width="570" height="370"></rect>
            <g id="Clipped" transform="translate(83.000000, 213.542000)">
                <mask id="mask-2" fill="white">
                    <use xlink:href="#path-1"></use>
                </mask>
                <g id="矩形"></g>
                <rect id="矩形" stroke="#003682" stroke-width="4" fill="#FFFFFF" fill-rule="nonzero" mask="url(#mask-2)" x="0" y="2.84217094e-14" width="91.4107" height="91.4107" rx="1"></rect>
            </g>
            <rect id="矩形" fill-opacity="0.3" fill="#7FA4D2" fill-rule="nonzero" x="88.0784" y="218.621" width="81.2539" height="81.2539" rx="1"></rect>
            <path d="M143.798,248.542 C147.158,248.542 149.881,245.841 149.881,242.509 C149.881,239.178 147.158,236.477 143.798,236.477 C140.439,236.477 137.716,239.178 137.716,242.509 C137.716,245.841 140.439,248.542 143.798,248.542 Z" id="路径" fill="#7FA5D2" fill-rule="nonzero"></path>
            <path d="M118.899,252.134 C119.828,250.537 122.151,250.537 123.08,252.134 L134.267,271.353 L140.187,261.183 C141.117,259.586 143.439,259.586 144.369,261.183 L154.673,278.885 C155.602,280.481 154.441,282.476 152.582,282.476 L136.58,282.476 L136.562,282.477 L105.418,282.477 C103.559,282.477 102.398,280.481 103.327,278.885 L118.899,252.134 Z" id="路径" fill="#7FA5D2" fill-rule="nonzero"></path>
            <g id="Clipped" transform="translate(240.429000, 213.542000)">
                <mask id="mask-4" fill="white">
                    <use xlink:href="#path-3"></use>
                </mask>
                <g id="矩形"></g>
                <rect id="矩形" stroke="#003682" stroke-width="4" fill="#FFFFFF" fill-rule="nonzero" mask="url(#mask-4)" x="2.84217094e-14" y="2.84217094e-14" width="91.4107" height="91.4107" rx="1"></rect>
            </g>
            <rect id="矩形" fill-opacity="0.3" fill="#7FA4D2" fill-rule="nonzero" x="245.508" y="218.621" width="81.2539" height="81.2539" rx="1"></rect>
            <path d="M300.927,275.497 C300.561,275.771 300.134,275.909 299.645,275.909 C299.035,275.909 298.508,275.687 298.065,275.245 C297.623,274.802 297.402,274.276 297.402,273.665 C297.402,272.993 297.661,272.429 298.18,271.971 C298.21,271.94 298.241,271.917 298.272,271.902 C298.302,271.887 298.333,271.864 298.363,271.833 L298.409,271.788 C299.264,271.208 300.057,270.521 300.79,269.727 C301.523,268.933 302.164,268.071 302.713,267.14 C303.263,266.209 303.69,265.217 303.995,264.164 C304.3,263.111 304.453,262.019 304.453,260.89 C304.453,258.6 303.873,256.509 302.713,254.617 C301.553,252.724 300.103,251.167 298.363,249.946 C297.722,249.488 297.402,248.878 297.402,248.115 C297.402,247.504 297.623,246.977 298.065,246.535 C298.508,246.092 299.035,245.871 299.645,245.871 C300.164,245.871 300.622,246.039 301.019,246.375 C302.148,247.168 303.202,248.092 304.178,249.145 C305.155,250.198 305.995,251.343 306.697,252.579 C307.399,253.815 307.948,255.136 308.345,256.54 C308.742,257.944 308.94,259.394 308.94,260.89 C308.94,262.416 308.742,263.881 308.345,265.286 C307.948,266.69 307.391,268.018 306.674,269.269 C305.957,270.521 305.109,271.673 304.133,272.726 C303.156,273.78 302.087,274.703 300.927,275.497 Z M298.363,254.937 C299.004,255.822 299.515,256.715 299.897,257.616 C300.279,258.516 300.469,259.608 300.469,260.89 C300.469,262.111 300.271,263.21 299.874,264.187 C299.477,265.163 298.974,266.049 298.363,266.842 C298.119,267.178 297.859,267.476 297.585,267.735 C297.31,267.995 296.959,268.125 296.532,268.125 C295.982,268.125 295.517,267.926 295.135,267.529 C294.753,267.132 294.563,266.659 294.563,266.11 C294.563,265.866 294.608,265.621 294.7,265.377 L294.654,265.377 C294.807,265.041 294.99,264.721 295.204,264.416 C295.417,264.11 295.623,263.797 295.822,263.477 C296.02,263.156 296.188,262.79 296.325,262.378 C296.463,261.966 296.532,261.47 296.532,260.89 C296.532,260.34 296.463,259.86 296.325,259.447 C296.188,259.035 296.02,258.661 295.822,258.326 C295.623,257.99 295.417,257.669 295.204,257.364 C294.99,257.059 294.822,256.738 294.7,256.402 C294.608,256.189 294.563,255.945 294.563,255.67 C294.563,255.12 294.753,254.647 295.135,254.25 C295.517,253.853 295.982,253.655 296.532,253.655 C296.959,253.655 297.31,253.785 297.585,254.044 C297.859,254.304 298.119,254.601 298.363,254.937 Z M283.573,282.136 C282.016,280.732 280.368,279.267 278.628,277.74 C276.888,276.214 275.27,274.81 273.774,273.528 C272.034,272.062 270.294,270.612 268.554,269.178 C268.218,269.208 267.883,269.223 267.547,269.223 C267.272,269.254 266.982,269.269 266.677,269.269 L265.898,269.269 C265.074,269.269 264.403,269.017 263.884,268.514 C263.365,268.01 263.105,267.407 263.105,266.705 L263.105,255.166 L263.151,255.166 L263.105,255.12 C263.105,254.266 263.372,253.563 263.907,253.014 C264.441,252.465 265.105,252.19 265.898,252.19 L268.508,252.19 C271.317,249.809 273.866,247.672 276.155,245.779 C277.132,244.955 278.094,244.154 279.04,243.375 C279.986,242.597 280.841,241.887 281.604,241.246 C282.367,240.605 283.008,240.071 283.527,239.643 C284.046,239.216 284.367,238.957 284.489,238.865 C285.405,238.193 286.145,237.888 286.71,237.949 C287.274,238.01 287.717,238.285 288.038,238.773 C288.358,239.262 288.579,239.857 288.702,240.559 C288.824,241.261 288.885,241.902 288.885,242.482 L288.885,279.435 L288.885,279.572 C288.885,280.152 288.778,280.77 288.564,281.426 C288.35,282.083 288.022,282.602 287.58,282.983 C287.137,283.365 286.58,283.525 285.908,283.464 C285.237,283.403 284.458,282.96 283.573,282.136 Z" id="形状" fill="#7FA4D2" fill-rule="nonzero"></path>
            <g id="Clipped" transform="translate(396.589000, 213.542000)">
                <mask id="mask-6" fill="white">
                    <use xlink:href="#path-5"></use>
                </mask>
                <g id="矩形"></g>
                <rect id="矩形" stroke="#003682" stroke-width="4" fill="#FFFFFF" fill-rule="nonzero" mask="url(#mask-6)" x="0" y="2.84217094e-14" width="91.4107" height="91.4107" rx="1"></rect>
            </g>
            <rect id="矩形" fill-opacity="0.3" fill="#7FA4D2" fill-rule="nonzero" x="401.668" y="218.621" width="81.2539" height="81.2539" rx="1"></rect>
            <polygon id="路径" fill="#7FA4D2" fill-rule="nonzero" points="415 264.769 415 259.51 433.295 251.823 433.295 257.576 421.216 262.089 421.406 261.811 421.406 262.481 421.216 262.19 433.295 266.716 433.295 272.456"></polygon>
            <polygon id="路径" fill="#7FA4D2" fill-rule="nonzero" points="450.304 245.477 441.965 276.477 436.696 276.477 445.035 245.477"></polygon>
            <polygon id="路径" fill="#7FA4D2" fill-rule="nonzero" points="472 264.769 453.705 272.456 453.705 266.716 465.784 262.19 465.607 262.481 465.607 261.811 465.784 262.089 453.705 257.576 453.705 251.823 472 259.51"></polygon>
            <line x1="286.135" y1="204.655" x2="286.135" y2="134.828" id="路径" stroke="#003682" stroke-width="2" stroke-linecap="round"></line>
            <path d="M128.705,198.307 L128.705,173.837 C128.705,170.523 131.392,167.837 134.705,167.837 L436.295,167.837 C439.608,167.837 442.295,170.523 442.295,173.837 L442.295,198.307" id="路径" stroke="#003682" stroke-width="2" stroke-linecap="round"></path>
            <circle id="椭圆形" fill="#FF6633" fill-rule="nonzero" cx="286.135" cy="166.568" r="7.61755"></circle>
            <circle id="椭圆形" stroke="#FF6633" stroke-width="2" fill="#FFFFFF" fill-rule="nonzero" cx="286.135" cy="198.307" r="6.61755"></circle>
            <circle id="椭圆形" stroke="#FF6633" stroke-width="2" fill="#FFFFFF" fill-rule="nonzero" cx="442.295" cy="198.307" r="6.61755"></circle>
            <circle id="椭圆形" stroke="#FF6633" stroke-width="2" fill="#FFFFFF" fill-rule="nonzero" cx="128.705" cy="198.307" r="6.61755"></circle>
            <path d="M327.354,95.0323 L327.387,95.5176 L327.789,95.7918 C330.818,97.8584 333.419,100.478 335.451,103.509 C338.336,107.97 339.822,113.173 339.723,118.464 L339.722,118.476 L339.722,118.488 C339.741,122.191 339.006,125.86 337.56,129.277 C336.055,132.684 333.881,135.762 331.162,138.334 L331.155,138.34 L331.148,138.347 C328.496,140.952 325.349,143.015 321.887,144.417 C318.426,145.82 314.717,146.534 310.975,146.518 L310.971,146.518 L257.105,146.518 L257.095,146.518 L257.085,146.518 C253.733,146.586 250.4,145.999 247.279,144.789 C244.158,143.579 241.311,141.772 238.901,139.471 L238.893,139.464 C236.456,137.186 234.522,134.436 233.212,131.387 C231.902,128.337 231.243,125.054 231.277,121.742 L231.277,121.728 L231.277,121.713 C231.169,115.911 233.197,110.265 236.988,105.826 L236.992,105.821 L236.997,105.815 C238.861,103.567 241.103,101.653 243.627,100.158 L244.183,99.8283 L244.111,99.1855 C243.79,96.3496 244.128,93.4788 245.098,90.7905 C246.067,88.1021 247.645,85.6662 249.71,83.668 L249.712,83.6666 C251.518,81.9125 253.657,80.5282 256.008,79.594 C258.359,78.6598 260.875,78.1943 263.409,78.2247 L263.417,78.2248 L263.425,78.2247 C265.103,78.2181 266.775,78.4163 268.403,78.8149 L269.032,78.9689 L269.43,78.4578 C271.599,75.6714 274.215,73.2546 277.177,71.3038 L277.178,71.3027 C282.475,67.7981 288.719,65.9505 295.096,66.002 L295.105,66.0021 L295.115,66.002 C299.323,65.9555 303.499,66.719 307.411,68.2495 C311.367,69.9124 314.943,72.3431 317.929,75.3968 L317.943,75.411 L317.957,75.4247 C320.96,78.2612 323.365,81.6557 325.035,85.4127 C326.349,88.4682 327.133,91.7201 327.354,95.0323 Z" id="路径" stroke="#003682" stroke-width="2" fill="#FFFFFF" fill-rule="nonzero"></path>
            <path d="M281.108,129.749 C280.828,129.747 280.554,129.669 280.313,129.524 C280.014,129.347 279.781,129.073 279.65,128.747 C279.52,128.42 279.499,128.058 279.591,127.718 L282.64,116.282 L277.882,116.192 C277.573,116.192 277.267,116.116 276.993,115.969 C276.718,115.822 276.483,115.61 276.306,115.349 C276.131,115.09 276.022,114.791 275.989,114.479 C275.956,114.166 275.999,113.85 276.115,113.559 L280.976,100.949 C281.16,100.459 281.485,100.037 281.908,99.739 C282.332,99.4409 282.833,99.2806 283.347,99.2790961 L291.479,99.2790961 C291.851,99.2784 292.218,99.3715 292.547,99.5499 C292.875,99.7283 293.156,99.9867 293.364,100.302 C293.584,100.611 293.726,100.97 293.778,101.348 C293.829,101.726 293.788,102.111 293.659,102.469 L290.462,110.865 L290.595,111.061 L295.809,111.061 C296.156,111.06 296.494,111.164 296.782,111.36 C297.071,111.555 297.296,111.833 297.43,112.159 C297.561187,112.488 297.595,112.848 297.527,113.196 C297.459,113.544 297.292,113.864 297.047,114.115 L282.213,129.268 C282.069,129.419 281.898,129.539 281.708,129.621 C281.518,129.704 281.315,129.747 281.108,129.749 Z" id="路径" fill="#003682" fill-rule="nonzero"></path>
        </g>
    </g>
</svg>