<?xml version="1.0" encoding="UTF-8"?>
<svg width="570px" height="370px" viewBox="0 0 570 370" version="1.1" xmlns="http://www.w3.org/2000/svg" xmlns:xlink="http://www.w3.org/1999/xlink">
    <title>可视化控制面板</title>
    <defs>
        <rect id="path-1" x="-2.84217094e-14" y="0" width="152.059" height="101.058" rx="1"></rect>
        <rect id="path-3" x="-2.84217094e-14" y="0" width="152.059" height="17.9449" rx="1"></rect>
        <path d="M0,0.5 C0,0.239 0.211,0.028 0.472,0.028 L144.976,0.028 C145.237,0.028 145.448,0.239 145.448,0.5 C145.448,0.761 145.237,0.972 144.976,0.972 L0.472,0.972 C0.211,0.972 0,0.761 0,0.5 Z" id="path-5"></path>
        <rect id="path-7" x="5.68434189e-14" y="0" width="192.768" height="128.113" rx="1"></rect>
        <rect id="path-9" x="5.68434189e-14" y="0" width="192.768" height="22.749" rx="1"></rect>
        <path d="M3.77950707,0.105404126 C1.54850707,-0.492295874 -0.492492925,1.54890413 0.105507075,3.77960413 L4.71050707,20.9663041 C5.30850707,23.1965041 8.09650707,23.9445041 9.72950707,22.3115041 L13.5385071,18.5022041 L24.3905071,29.3535041 C25.5615071,30.5255041 27.4615071,30.5255041 28.6335071,29.3535041 L29.8055071,28.1815041 C30.9765071,27.0105041 30.9765071,25.1105041 29.8055071,23.9395041 L18.9535071,13.0873041 L22.3115071,9.72960413 C23.9445071,8.09660413 23.1975071,5.30830413 20.9665071,4.71050413 L3.77950707,0.105404126 Z" id="path-11"></path>
    </defs>
    <g id="页面-1" stroke="none" stroke-width="1" fill="none" fill-rule="evenodd">
        <g id="可视化控制面板">
            <rect id="矩形" fill-opacity="0" fill="#FFFFFF" fill-rule="nonzero" x="0" y="0" width="570" height="370"></rect>
            <circle id="椭圆形" stroke="#FF6633" cx="308" cy="197" r="92.5"></circle>
            <circle id="椭圆形" stroke="#FF6633" cx="308" cy="197" r="114.5"></circle>
            <g id="Clipped" transform="translate(164.533000, 147.942000)">
                <mask id="mask-2" fill="white">
                    <use xlink:href="#path-1"></use>
                </mask>
                <g id="矩形"></g>
                <rect id="矩形" stroke="#003682" stroke-width="4" fill="#FFFFFF" fill-rule="nonzero" mask="url(#mask-2)" x="-2.84217094e-14" y="0" width="152.059" height="101.058" rx="1"></rect>
            </g>
            <g id="Clipped" transform="translate(164.533000, 147.942000)">
                <mask id="mask-4" fill="white">
                    <use xlink:href="#path-3"></use>
                </mask>
                <g id="矩形"></g>
                <rect id="矩形" stroke="#003682" stroke-width="4" fill="#FFFFFF" fill-rule="nonzero" mask="url(#mask-4)" x="-2.84217094e-14" y="0" width="152.059" height="17.9449" rx="1"></rect>
            </g>
            <path d="M171.144,239.083 C171.144,238.822 171.355,238.611 171.616,238.611 L316.12,238.611 C316.381,238.611 316.592,238.822 316.592,239.083 C316.592,239.344 316.381,239.555 316.12,239.555 L171.616,239.555 C171.355,239.555 171.144,239.344 171.144,239.083 Z" id="路径" fill="#FFFFFF" fill-rule="nonzero"></path>
            <g id="Clipped" transform="translate(171.144000, 238.583000)">
                <mask id="mask-6" fill="white">
                    <use xlink:href="#path-5"></use>
                </mask>
                <g id="路径"></g>
                <path d="M0.472,2.028 L144.976,2.028 L144.976,-1.972 L0.472,-1.972 L0.472,2.028 Z M144.976,-1.028 L0.472,-1.028 L0.472,2.972 L144.976,2.972 L144.976,-1.028 Z M0.472,-1.028 C1.316,-1.028 2,-0.344 2,0.5 L-2,0.5 C-2,1.865 -0.893,2.972 0.472,2.972 L0.472,-1.028 Z M143.448,0.5 C143.448,-0.344 144.132,-1.028 144.976,-1.028 L144.976,2.972 C146.341,2.972 147.448,1.865 147.448,0.5 L143.448,0.5 Z M144.976,2.028 C144.132,2.028 143.448,1.344 143.448,0.5 L147.448,0.5 C147.448,-0.865 146.341,-1.972 144.976,-1.972 L144.976,2.028 Z M0.472,-1.972 C-0.893,-1.972 -2,-0.865 -2,0.5 L2,0.5 C2,1.344 1.316,2.028 0.472,2.028 L0.472,-1.972 Z" id="形状" fill="#003682" fill-rule="nonzero" mask="url(#mask-6)"></path>
            </g>
            <path d="M175.276,155.793 C175.276,156.934 174.351,157.859 173.21,157.859 C172.069,157.859 171.144,156.934 171.144,155.793 C171.144,154.652 172.069,153.727 173.21,153.727 C174.351,153.727 175.276,154.652 175.276,155.793 Z" id="路径" fill="#003682" fill-rule="nonzero"></path>
            <path d="M182.714,155.793 C182.714,156.934 181.789,157.859 180.648,157.859 C179.507,157.859 178.582,156.934 178.582,155.793 C178.582,154.652 179.507,153.727 180.648,153.727 C181.789,153.727 182.714,154.652 182.714,155.793 Z" id="路径" fill="#003682" fill-rule="nonzero"></path>
            <path d="M188.085,157.859 C189.226,157.859 190.151,156.934 190.151,155.793 C190.151,154.652 189.226,153.727 188.085,153.727 C186.944,153.727 186.019,154.652 186.019,155.793 C186.019,156.934 186.944,157.859 188.085,157.859 Z" id="路径" fill="#003682" fill-rule="nonzero"></path>
            <rect id="矩形" fill-opacity="0.2" fill="#FF6633" fill-rule="nonzero" x="175.866" y="195.165" width="14.167" height="43.4455"></rect>
            <rect id="矩形" fill-opacity="0.2" fill="#FF6633" fill-rule="nonzero" x="211.756" y="210.277" width="14.167" height="28.334"></rect>
            <rect id="矩形" fill-opacity="0.2" fill="#FF6633" fill-rule="nonzero" x="247.646" y="197.054" width="14.167" height="41.5565"></rect>
            <rect id="矩形" fill-opacity="0.2" fill="#FF6633" fill-rule="nonzero" x="279.758" y="197.054" width="14.167" height="41.5565"></rect>
            <rect id="矩形" fill-opacity="0.3" fill="#7FA4D2" fill-rule="nonzero" x="190.033" y="232.944" width="14.167" height="5.6668"></rect>
            <rect id="矩形" fill-opacity="0.3" fill="#7FA4D2" fill-rule="nonzero" x="225.923" y="223.499" width="14.167" height="15.1115"></rect>
            <rect id="矩形" fill-opacity="0.3" fill="#7FA4D2" fill-rule="nonzero" x="261.813" y="229.166" width="14.167" height="9.44467"></rect>
            <rect id="矩形" fill-opacity="0.3" fill="#7FA4D2" fill-rule="nonzero" x="293.925" y="229.166" width="14.167" height="9.44467"></rect>
            <rect id="矩形" fill-opacity="0.3" fill="#7FA4D2" fill-rule="nonzero" x="175.866" y="174.387" width="3.77787" height="3.77787"></rect>
            <rect id="矩形" fill-opacity="0.2" fill="#FF6633" fill-rule="nonzero" x="186.255" y="174.387" width="3.77787" height="3.77787"></rect>
            <g id="Clipped" transform="translate(268.699000, 120.404000)">
                <mask id="mask-8" fill="white">
                    <use xlink:href="#path-7"></use>
                </mask>
                <g id="矩形"></g>
                <rect id="矩形" stroke="#003682" stroke-width="4" fill="#FFFFFF" fill-rule="nonzero" mask="url(#mask-8)" x="5.68434189e-14" y="0" width="192.768" height="128.113" rx="1"></rect>
            </g>
            <g id="Clipped" transform="translate(268.699000, 120.404000)">
                <mask id="mask-10" fill="white">
                    <use xlink:href="#path-9"></use>
                </mask>
                <g id="矩形"></g>
                <rect id="矩形" stroke="#003682" stroke-width="4" fill="#003682" fill-rule="nonzero" mask="url(#mask-10)" x="5.68434189e-14" y="0" width="192.768" height="22.749" rx="1"></rect>
            </g>
            <path d="M282.319,130.356 C282.319,131.803 281.146,132.976 279.7,132.976 C278.253,132.976 277.081,131.803 277.081,130.356 C277.081,128.91 278.253,127.737 279.7,127.737 C281.146,127.737 282.319,128.91 282.319,130.356 Z" id="路径" fill="#FFFFFF" fill-rule="nonzero"></path>
            <path d="M291.748,130.356 C291.748,131.803 290.575,132.976 289.129,132.976 C287.682,132.976 286.509,131.803 286.509,130.356 C286.509,128.91 287.682,127.737 289.129,127.737 C290.575,127.737 291.748,128.91 291.748,130.356 Z" id="路径" fill="#FFFFFF" fill-rule="nonzero"></path>
            <path d="M298.557,132.976 C300.004,132.976 301.177,131.803 301.177,130.356 C301.177,128.91 300.004,127.737 298.557,127.737 C297.111,127.737 295.938,128.91 295.938,130.356 C295.938,131.803 297.111,132.976 298.557,132.976 Z" id="路径" fill="#FFFFFF" fill-rule="nonzero"></path>
            <path d="M345.328,195.236 C345.328,201.746 343.07,208.054 338.941,213.086 C334.811,218.118 329.064,221.562 322.68,222.832 C316.295,224.102 309.668,223.119 303.927,220.051 C298.186,216.982 293.687,212.018 291.196,206.004 C288.704,199.989 288.376,193.298 290.265,187.068 C292.155,180.839 296.146,175.458 301.559,171.841 C306.971,168.224 313.47,166.596 319.949,167.235 C326.427,167.873 332.483,170.737 337.086,175.34 L317.191,195.236 L345.328,195.236 Z" id="路径" fill-opacity="0.3" fill="#7FA4D2" fill-rule="nonzero"></path>
            <path d="M354.906,195.236 C354.906,203.962 351.881,212.417 346.345,219.162 C340.809,225.908 333.106,230.525 324.548,232.227 C315.99,233.929 307.107,232.611 299.412,228.498 C291.716,224.385 285.685,217.731 282.346,209.669 C279.007,201.608 278.566,192.638 281.099,184.288 C283.632,175.938 288.982,168.724 296.237,163.877 C303.492,159.029 312.204,156.847 320.887,157.702 C329.571,158.557 337.689,162.397 343.859,168.567 L317.191,195.236 L354.906,195.236 Z" id="路径" fill-opacity="0.3" fill="#7FA4D2" fill-rule="nonzero"></path>
            <path d="M359.695,192.841 L384.431,192.841 C386.64,192.841 388.431,191.051 388.431,188.841 L388.431,169.303 C388.431,167.094 390.222,165.303 392.431,165.303 L417.765,165.303" id="路径" stroke="#003682" stroke-linecap="round"></path>
            <path d="M359.695,200.624 L382.036,200.624 C384.245,200.624 386.036,202.415 386.036,204.624 L386.036,218.774 C386.036,220.983 387.827,222.774 390.036,222.774 L432.133,222.774" id="路径" stroke="#003682" stroke-linecap="round"></path>
            <path d="M408.276,215.513 C407.788,215.513 407.357,215.426 406.983,215.253 C406.611,215.078 406.321,214.838 406.113,214.533 C405.905,214.225 405.802,213.874 405.803952,213.481 C405.802,213.174 405.862,212.89 405.985,212.629 C406.108,212.366 406.276,212.147 406.49,211.972 C406.705,211.795 406.945,211.682 407.21,211.635 L407.21,211.592 C406.862,211.502 406.585,211.307 406.379,211.006 C406.173,210.703 406.072,210.359 406.074,209.973 C406.072,209.604 406.165,209.273 406.355,208.982 C406.544,208.691 406.804,208.461 407.136,208.293 C407.47,208.125 407.85,208.041 408.276,208.041 C408.697,208.041 409.074,208.125 409.405,208.293 C409.736,208.461 409.997,208.691 410.186,208.982 C410.378,209.273 410.475,209.604 410.477,209.973 C410.475,210.359 410.37,210.703 410.161,211.006 C409.955,211.307 409.682,211.502 409.341,211.592 L409.341,211.635 C409.604,211.682 409.841,211.795 410.051,211.972 C410.262,212.147 410.43,212.366 410.556,212.629 C410.681,212.89 410.745,213.174 410.747,213.481 C410.745,213.874 410.638,214.225 410.428,214.533 C410.219,214.838 409.929,215.078 409.558,215.253 C409.188,215.426 408.761,215.513 408.276,215.513 Z M408.276,214.731 C408.605,214.731 408.889,214.678 409.128,214.572 C409.367,214.465 409.552,214.315 409.682,214.121 C409.812,213.926 409.878,213.699 409.881,213.439 C409.878,213.164 409.807,212.921 409.668,212.711 C409.528,212.5 409.338,212.334 409.096,212.214 C408.857,212.093 408.584,212.033 408.276,212.033 C407.966,212.033 407.689,212.093 407.445,212.214 C407.203,212.334 407.013,212.5 406.873,212.711 C406.736,212.921 406.668,213.164 406.671,213.439 C406.668,213.699 406.731,213.926 406.859,214.121 C406.989,214.315 407.175,214.465 407.416,214.572 C407.658,214.678 407.944,214.731 408.276,214.731 Z M408.276,211.28 C408.536,211.28 408.767,211.228 408.968,211.123 C409.172,211.019 409.332,210.874 409.448,210.687 C409.564,210.5 409.623,210.281 409.625,210.03 C409.623,209.783 409.565,209.569 409.451,209.387 C409.338,209.202 409.18,209.06 408.979,208.961 C408.778,208.859 408.543,208.808 408.276,208.808 C408.003,208.808 407.766,208.859 407.562,208.961 C407.358,209.06 407.201,209.202 407.09,209.387 C406.978,209.569 406.924,209.783 406.926,210.03 C406.924,210.281 406.98,210.5 407.093,210.687 C407.209,210.874 407.369,211.019 407.573,211.123 C407.776,211.228 408.011,211.28 408.276,211.28 Z M412.336,215.413 L415.588,208.979 L415.588,208.922 L411.838,208.922 L411.838,208.14 L416.498,208.14 L416.498,208.964 L413.259,215.413 L412.336,215.413 Z M417.196,215.47 C417.021,215.47 416.871,215.407 416.745,215.282 C416.62,215.156 416.557,215.006 416.557,214.831 C416.557,214.656 416.62,214.505 416.745,214.38 C416.871,214.254 417.021,214.192 417.196,214.192 C417.371,214.192 417.522,214.254 417.647,214.38 C417.773,214.505 417.835,214.656 417.835,214.831 C417.835,214.947 417.806,215.053 417.747,215.15 C417.69,215.247 417.613,215.326 417.516,215.385 C417.421,215.442 417.315,215.47 417.196,215.47 Z M421.451,215.513 C421.035,215.513 420.659,215.43 420.326,215.264 C419.992,215.098 419.724,214.871 419.523,214.582 C419.322,214.293 419.212,213.964 419.193,213.595 L420.045,213.595 C420.078,213.924 420.227,214.196 420.493,214.412 C420.76,214.625 421.08,214.731 421.451,214.731 C421.75,214.731 422.015,214.662 422.247,214.522 C422.481,214.382 422.665,214.19 422.797,213.947 C422.932,213.7 423,213.422 423,213.112 C423,212.795 422.93,212.512 422.79,212.263 C422.653,212.012 422.463,211.815 422.222,211.67 C421.98,211.526 421.705,211.453 421.395,211.45 C421.172,211.448 420.944,211.482 420.709,211.553 C420.475,211.622 420.282,211.711 420.13,211.819 L419.306,211.72 L419.747,208.14 L423.525,208.14 L423.525,208.922 L420.485,208.922 L420.23,211.067 L420.272,211.067 C420.422,210.948 420.609,210.85 420.833,210.772 C421.058,210.694 421.293,210.655 421.537,210.655 C421.982,210.655 422.378,210.761 422.726,210.974 C423.077,211.185 423.351,211.474 423.55,211.841 C423.751,212.208 423.852,212.627 423.852,213.098 C423.852,213.562 423.748,213.976 423.539,214.341 C423.333,214.703 423.049,214.989 422.687,215.2 C422.325,215.408 421.913,215.513 421.451,215.513 Z" id="形状" fill="#003682" fill-rule="nonzero"></path>
            <path d="M391.741,151.867 L391.741,159.139 L390.86,159.139 L390.86,152.79 L390.817,152.79 L389.042,153.969 L389.042,153.074 L390.86,151.867 L391.741,151.867 Z M393.832,159.139 L393.832,158.5 L396.233,155.872 C396.514,155.565 396.746,155.297 396.929,155.07 C397.111,154.84 397.246,154.625 397.334,154.423 C397.424,154.22 397.469,154.007 397.469,153.784 C397.469,153.529 397.407,153.307 397.284,153.12 C397.163,152.933 396.997,152.789 396.787,152.687 C396.576,152.585 396.339,152.534 396.077,152.534 C395.797,152.534 395.553,152.592 395.345,152.708 C395.139,152.822 394.979,152.982 394.866,153.188 C394.754,153.394 394.699,153.635 394.699,153.912 L393.861,153.912 C393.861,153.486 393.959,153.112 394.155,152.79 C394.352,152.468 394.619,152.217 394.958,152.037 C395.299,151.857 395.681,151.767 396.105,151.767 C396.531,151.767 396.909,151.857 397.238,152.037 C397.567,152.217 397.825,152.46 398.012,152.765 C398.199,153.07 398.292,153.41 398.292,153.784 C398.292,154.052 398.244,154.313 398.147,154.569 C398.052,154.822 397.886,155.105 397.65,155.418 C397.415,155.728 397.09,156.107 396.673,156.554 L395.04,158.301 L395.04,158.358 L398.42,158.358 L398.42,159.139 L393.832,159.139 Z M400.512,159.196 C400.337,159.196 400.186,159.133 400.061,159.008 C399.935,158.882 399.873,158.732 399.873,158.557 C399.873,158.382 399.935,158.231 400.061,158.106 C400.186,157.98 400.337,157.918 400.512,157.918 C400.687,157.918 400.837,157.98 400.963,158.106 C401.088,158.231 401.151,158.382 401.151,158.557 C401.151,158.673 401.121,158.779 401.062,158.877 C401.005,158.974 400.929,159.052 400.831,159.111 C400.737,159.168 400.63,159.196 400.512,159.196 Z M404.767,159.239 C404.35,159.239 403.975,159.156 403.641,158.99 C403.308,158.824 403.04,158.597 402.839,158.308 C402.638,158.02 402.527,157.69 402.509,157.321 L403.361,157.321 C403.394,157.65 403.543,157.922 403.808,158.138 C404.076,158.351 404.395,158.458 404.767,158.458 C405.065,158.458 405.33,158.388 405.562,158.248 C405.797,158.108 405.98,157.917 406.113,157.673 C406.248,157.427 406.315,157.148 406.315,156.838 C406.315,156.521 406.245,156.238 406.106,155.989 C405.968,155.739 405.779,155.541 405.538,155.396 C405.296,155.252 405.02,155.179 404.71,155.176 C404.488,155.174 404.259,155.208 404.025,155.279 C403.79,155.348 403.598,155.437 403.446,155.546 L402.622,155.446 L403.062,151.867 L406.841,151.867 L406.841,152.648 L403.801,152.648 L403.545,154.793 L403.588,154.793 C403.737,154.674 403.924,154.576 404.149,154.498 C404.374,154.42 404.608,154.381 404.852,154.381 C405.297,154.381 405.694,154.487 406.042,154.7 C406.392,154.911 406.667,155.2 406.866,155.567 C407.067,155.934 407.168,156.353 407.168,156.824 C407.168,157.288 407.063,157.702 406.855,158.067 C406.649,158.429 406.365,158.716 406.003,158.926 C405.641,159.135 405.229,159.239 404.767,159.239 Z" id="形状" fill="#003682" fill-rule="nonzero"></path>
            <circle id="椭圆形" fill-opacity="0.3" fill="#7FA4D2" fill-rule="nonzero" transform="translate(447.000000, 93.000000) scale(-1, 1) translate(-447.000000, -93.000000) " cx="447" cy="93" r="28"></circle>
            <circle id="椭圆形" fill-opacity="0.3" fill="#7FA4D2" fill-rule="nonzero" transform="translate(122.000000, 240.000000) scale(-1, 1) translate(-122.000000, -240.000000) " cx="122" cy="240" r="28"></circle>
            <path d="M106.093,243.679 L107.128,243.078 C107.627,242.786 107.906,242.227 107.829,241.647 C107.734,240.998 107.687,240.341 107.687,239.662 C107.687,238.983 107.739,238.325 107.829,237.677 C107.906,237.097 107.635,236.542 106.991,236.168 L106.089,235.648 C105.487,235.305 105.225,234.583 105.453,233.934 C105.762,233.049 106.153,232.198 106.604,231.382 C106.712,231.18 106.832,230.973 106.956,230.776 C107.433,229.981 107.979,229.233 108.581,228.533 C109.032,228.004 109.788,227.884 110.519,228.305 L111.434,228.834 C111.932,229.126 112.564,229.083 113.019,228.726 C114.055,227.905 115.206,227.231 116.457,226.732 C116.994,226.518 117.338,225.989 117.338,225.418 L117.338,224.21 C117.338,223.518 117.832,222.925 118.511,222.797 C119.525,222.612 120.56,222.517 121.626,222.517 C122.692,222.517 123.727,222.612 124.741,222.797 C125.42,222.925 125.914,223.518 125.914,224.21 L125.914,225.418 C125.914,225.989 126.258,226.518 126.795,226.732 C128.046,227.231 129.197,227.905 130.233,228.726 C130.688,229.083 131.32,229.126 131.818,228.834 L132.862,228.228 C133.464,227.884 134.22,228.004 134.671,228.537 C135.273,229.238 135.814,229.989 136.296,230.78 C136.416,230.982 136.54,231.188 136.648,231.386 C137.099,232.202 137.49,233.053 137.799,233.938 C138.027,234.587 137.765,235.309 137.164,235.653 L136.128,236.254 C135.63,236.547 135.35,237.105 135.428,237.685 C135.522,238.334 135.569,238.991 135.569,239.67 C135.569,240.349 135.518,241.007 135.428,241.655 C135.35,242.236 135.63,242.79 136.128,243.086 L137.164,243.688 C137.765,244.032 138.027,244.754 137.799,245.402 C137.49,246.288 137.099,247.138 136.648,247.955 C136.54,248.157 136.42,248.363 136.296,248.561 C135.819,249.355 135.273,250.103 134.671,250.804 C134.22,251.332 133.464,251.452 132.862,251.113 L131.818,250.507 C131.32,250.215 130.688,250.258 130.233,250.614 C129.197,251.435 128.046,252.11 126.795,252.608 C126.258,252.823 125.914,253.352 125.914,253.923 L125.914,255.13 C125.914,255.822 125.42,256.415 124.741,256.544 C123.727,256.729 122.692,256.823 121.626,256.823 C120.56,256.823 119.525,256.729 118.511,256.544 C117.832,256.415 117.338,255.822 117.338,255.13 L117.338,253.923 C117.338,253.352 116.994,252.823 116.457,252.608 C115.206,252.11 114.055,251.435 113.019,250.614 C112.564,250.258 111.932,250.215 111.434,250.507 L110.39,251.113 C109.788,251.457 109.032,251.336 108.581,250.804 C107.979,250.103 107.438,249.351 106.956,248.561 C106.836,248.359 106.712,248.152 106.604,247.955 C106.153,247.138 105.762,246.288 105.453,245.402 C105.229,244.745 105.491,244.023 106.093,243.679 Z M121.626,246.094 C125.18,246.094 128.058,243.215 128.058,239.662 C128.058,236.108 125.18,233.229 121.626,233.229 C118.073,233.229 115.194,236.108 115.194,239.662 C115.194,243.215 118.073,246.094 121.626,246.094 Z" id="形状" fill="#FFFFFF" fill-rule="nonzero"></path>
            <path d="M108.14,244.803 C109.323,244.109 109.996,242.772 109.811,241.383 L109.81,241.371 L109.808,241.359 C109.728,240.808 109.687,240.247 109.687,239.662 C109.687,239.085 109.731,238.52 109.81,237.952 L109.811,237.941 C110.011,236.445 109.233,235.157 107.994,234.438 L107.989,234.435 L107.503,234.155 C107.742,233.541 108.028,232.939 108.355,232.349 L108.362,232.335 L108.37,232.321 C108.453,232.166 108.548,232.002 108.648,231.842 L108.66,231.824 L108.671,231.805 C109.007,231.246 109.384,230.71 109.797,230.198 L110.429,230.563 C111.637,231.267 113.154,231.161 114.252,230.301 L114.262,230.294 C115.149,229.59 116.132,229.015 117.197,228.59 L117.2,228.589 C118.522,228.06 119.338,226.779 119.338,225.418 L119.338,224.686 C120.083,224.574 120.844,224.517 121.626,224.517 C122.408,224.517 123.169,224.574 123.914,224.686 L123.914,225.418 C123.914,226.779 124.73,228.06 126.052,228.589 L126.055,228.59 C127.12,229.015 128.103,229.59 128.99,230.294 L129,230.301 C130.098,231.161 131.617,231.267 132.825,230.562 L133.452,230.198 C133.861,230.707 134.238,231.247 134.582,231.812 C134.597,231.836 134.611,231.86 134.624,231.882 C134.733,232.064 134.817,232.206 134.891,232.341 L134.897,232.353 C135.224,232.944 135.51,233.546 135.75,234.161 L135.117,234.529 C133.933,235.223 133.26,236.56 133.445,237.95 L133.447,237.962 L133.448,237.974 C133.529,238.524 133.569,239.085 133.569,239.67 C133.569,240.247 133.526,240.812 133.447,241.38 L133.445,241.391 C133.259,242.789 133.94,244.112 135.106,244.805 L135.114,244.811 L135.75,245.18 C135.51,245.794 135.224,246.397 134.897,246.987 L134.89,247.001 L134.882,247.015 C134.8,247.171 134.704,247.335 134.604,247.494 L134.592,247.513 L134.581,247.532 C134.244,248.092 133.866,248.629 133.452,249.143 L132.83,248.782 L132.825,248.779 C131.617,248.073 130.098,248.179 129,249.04 L128.99,249.047 C128.103,249.75 127.12,250.326 126.055,250.75 L126.052,250.751 C124.73,251.28 123.914,252.562 123.914,253.923 L123.914,254.654 C123.169,254.766 122.408,254.823 121.626,254.823 C120.844,254.823 120.083,254.766 119.338,254.654 L119.338,253.923 C119.338,252.562 118.522,251.28 117.2,250.751 L117.197,250.75 C116.132,250.326 115.149,249.75 114.262,249.047 L114.252,249.04 C113.154,248.179 111.634,248.073 110.427,248.779 L110.422,248.782 L109.8,249.142 C109.391,248.634 109.014,248.094 108.67,247.528 C108.655,247.504 108.641,247.481 108.628,247.458 C108.519,247.276 108.435,247.135 108.361,247 L108.355,246.987 C108.027,246.395 107.74,245.791 107.5,245.175 L108.14,244.803 Z M107.829,241.647 C107.906,242.227 107.627,242.786 107.128,243.078 L106.093,243.679 C105.491,244.023 105.229,244.745 105.453,245.402 C105.762,246.288 106.153,247.138 106.604,247.955 C106.698,248.128 106.805,248.307 106.911,248.484 C106.926,248.51 106.941,248.535 106.956,248.561 C107.438,249.351 107.979,250.103 108.581,250.804 C109.032,251.336 109.788,251.457 110.39,251.113 L111.434,250.507 C111.932,250.215 112.564,250.258 113.019,250.614 C114.055,251.435 115.206,252.11 116.457,252.608 C116.994,252.823 117.338,253.352 117.338,253.923 L117.338,255.13 C117.338,255.822 117.832,256.415 118.511,256.544 C119.525,256.729 120.56,256.823 121.626,256.823 C122.692,256.823 123.727,256.729 124.741,256.544 C125.42,256.415 125.914,255.822 125.914,255.13 L125.914,253.923 C125.914,253.352 126.258,252.823 126.795,252.608 C128.046,252.11 129.197,251.435 130.233,250.614 C130.688,250.258 131.32,250.215 131.818,250.507 L132.862,251.113 C133.464,251.452 134.22,251.332 134.671,250.804 C135.273,250.103 135.819,249.355 136.296,248.561 C136.42,248.363 136.54,248.157 136.648,247.955 C137.099,247.138 137.49,246.288 137.799,245.402 C138.027,244.754 137.765,244.032 137.164,243.688 L136.128,243.086 C135.63,242.79 135.35,242.236 135.428,241.655 C135.518,241.007 135.569,240.349 135.569,239.67 C135.569,238.991 135.522,238.334 135.428,237.685 C135.35,237.105 135.63,236.547 136.128,236.254 L137.164,235.653 C137.765,235.309 138.027,234.587 137.799,233.938 C137.49,233.053 137.099,232.202 136.648,231.386 C136.554,231.213 136.447,231.034 136.341,230.856 C136.326,230.831 136.311,230.805 136.296,230.78 C135.814,229.989 135.273,229.238 134.671,228.537 C134.22,228.004 133.464,227.884 132.862,228.228 L131.818,228.834 C131.32,229.126 130.688,229.083 130.233,228.726 C129.197,227.905 128.046,227.231 126.795,226.732 C126.258,226.518 125.914,225.989 125.914,225.418 L125.914,224.21 C125.914,223.518 125.42,222.925 124.741,222.797 C123.727,222.612 122.692,222.517 121.626,222.517 C120.56,222.517 119.525,222.612 118.511,222.797 C117.832,222.925 117.338,223.518 117.338,224.21 L117.338,225.418 C117.338,225.989 116.994,226.518 116.457,226.732 C115.206,227.231 114.055,227.905 113.019,228.726 C112.564,229.083 111.932,229.126 111.434,228.834 L110.519,228.305 C109.788,227.884 109.032,228.004 108.581,228.533 C107.979,229.233 107.433,229.981 106.956,230.776 C106.832,230.973 106.712,231.18 106.604,231.382 C106.153,232.198 105.762,233.049 105.453,233.934 C105.225,234.583 105.487,235.305 106.089,235.648 L106.991,236.168 C107.635,236.542 107.906,237.097 107.829,237.677 C107.739,238.325 107.687,238.983 107.687,239.662 C107.687,240.341 107.734,240.998 107.829,241.647 Z M121.626,248.094 C126.284,248.094 130.058,244.32 130.058,239.662 C130.058,235.004 126.284,231.229 121.626,231.229 C116.968,231.229 113.194,235.004 113.194,239.662 C113.194,244.32 116.968,248.094 121.626,248.094 Z M128.058,239.662 C128.058,243.215 125.18,246.094 121.626,246.094 C118.073,246.094 115.194,243.215 115.194,239.662 C115.194,236.108 118.073,233.229 121.626,233.229 C125.18,233.229 128.058,236.108 128.058,239.662 Z" id="形状" fill="#003682"></path>
            <circle id="椭圆形" stroke="#003682" stroke-width="2" transform="translate(447.000000, 93.000000) scale(-1, 1) translate(-447.000000, -93.000000) " cx="447" cy="93" r="34"></circle>
            <circle id="椭圆形" stroke="#003682" stroke-width="2" transform="translate(122.000000, 240.000000) scale(-1, 1) translate(-122.000000, -240.000000) " cx="122" cy="240" r="34"></circle>
            <path d="M436.286,78.6119 C434.055,78.0142 432.014,80.0554 432.612,82.2861 L437.217,99.4728 C437.815,101.703 440.603,102.451 442.236,100.818 L446.045,97.0087 L456.897,107.86 C458.068,109.032 459.968,109.032 461.14,107.86 L462.312,106.688 C463.483,105.517 463.483,103.617 462.312,102.446 L451.46,91.5938 L454.818,88.2361 C456.451,86.6031 455.704,83.8148 453.473,83.217 L436.286,78.6119 Z" id="路径" fill="#FFFFFF"></path>
            <g id="Clipped" transform="translate(432.506493, 78.506496)">
                <mask id="mask-12" fill="white">
                    <use xlink:href="#path-11"></use>
                </mask>
                <g id="路径"></g>
                <path d="M0.105507075,3.77960413 L3.00350707,3.00320413 L3.00350707,3.00320413 L0.105507075,3.77960413 Z M3.77950707,0.105404126 L3.00350707,3.00320413 L3.00350707,3.00320413 L3.77950707,0.105404126 Z M4.71050707,20.9663041 L1.81250707,21.7425041 L4.71050707,20.9663041 Z M13.5385071,18.5022041 L15.6595071,16.3809041 L13.5385071,14.2595041 L11.4175071,16.3809041 L13.5385071,18.5022041 Z M18.9535071,13.0873041 L16.8325071,10.9660041 L14.7105071,13.0873041 L16.8325071,15.2086041 L18.9535071,13.0873041 Z M20.9665071,4.71050413 L21.7425071,1.81280413 L21.7425071,1.81280413 L20.9665071,4.71050413 Z M3.00350707,3.00320413 L3.00350707,3.00320413 L4.55650707,-2.79239587 C0.0945070748,-3.98779587 -3.98749293,0.0947041257 -2.79249293,4.55610413 L3.00350707,3.00320413 Z M7.60850707,20.1898041 L3.00350707,3.00320413 L-2.79249293,4.55610413 L1.81250707,21.7425041 L7.60850707,20.1898041 Z M7.60850707,20.1898041 L7.60850707,20.1898041 L1.81250707,21.7425041 C3.00850707,26.2045041 8.58550707,27.6985041 11.8505071,24.4325041 L7.60850707,20.1898041 Z M11.4175071,16.3809041 L7.60850707,20.1898041 L11.8505071,24.4325041 L15.6595071,20.6235041 L11.4175071,16.3809041 Z M26.5115071,27.2325041 L15.6595071,16.3809041 L11.4175071,20.6235041 L22.2695071,31.4755041 L26.5115071,27.2325041 Z M26.5115071,27.2325041 L26.5115071,27.2325041 L22.2695071,31.4755041 C24.6125071,33.8185041 28.4115071,33.8185041 30.7545071,31.4755041 L26.5115071,27.2325041 Z M27.6835071,26.0605041 L26.5115071,27.2325041 L30.7545071,31.4755041 L31.9265071,30.3035041 L27.6835071,26.0605041 Z M27.6835071,26.0605041 L27.6835071,26.0605041 L31.9265071,30.3035041 C34.2695071,27.9595041 34.2695071,24.1605041 31.9265071,21.8175041 L27.6835071,26.0605041 Z M16.8325071,15.2086041 L27.6835071,26.0605041 L31.9265071,21.8175041 L21.0745071,10.9660041 L16.8325071,15.2086041 Z M20.1895071,7.60830413 L16.8325071,10.9660041 L21.0745071,15.2086041 L24.4325071,11.8510041 L20.1895071,7.60830413 Z M20.1895071,7.60830413 L20.1895071,7.60830413 L24.4325071,11.8510041 C27.6985071,8.58500413 26.2045071,3.00820413 21.7425071,1.81280413 L20.1895071,7.60830413 Z M3.00350707,3.00320413 L20.1895071,7.60830413 L21.7425071,1.81280413 L4.55650707,-2.79239587 L3.00350707,3.00320413 Z" id="形状" fill="#003682" fill-rule="nonzero" mask="url(#mask-12)"></path>
            </g>
        </g>
    </g>
</svg>