<?xml version="1.0" encoding="UTF-8"?>
<svg width="570px" height="370px" viewBox="0 0 570 370" version="1.1" xmlns="http://www.w3.org/2000/svg" xmlns:xlink="http://www.w3.org/1999/xlink">
    <title>一个功能齐全、易于管理的WAF</title>
    <g id="页面-1" stroke="none" stroke-width="1" fill="none" fill-rule="evenodd">
        <g id="一个功能齐全、易于管理的WAF">
            <rect id="矩形" fill-opacity="0" fill="#FFFFFF" fill-rule="nonzero" x="0" y="0" width="570" height="370"></rect>
            <line x1="284.5" y1="280.244" x2="284.5" y2="91.8668" id="路径" stroke="#FF6633" stroke-linecap="round" stroke-linejoin="round"></line>
            <line x1="165.828" y1="254.308" x2="402.262" y2="117.803" id="路径" stroke="#FF6633" stroke-linecap="round" stroke-linejoin="round"></line>
            <line x1="165.828" y1="117.803" x2="402.262" y2="254.308" id="路径" stroke="#FF6633" stroke-linecap="round" stroke-linejoin="round"></line>
            <circle id="椭圆形" stroke="#003682" fill="#FFFFFF" fill-rule="nonzero" cx="284.955" cy="185.145" r="84.1332"></circle>
            <circle id="椭圆形" stroke="#003682" fill="#FFFFFF" fill-rule="nonzero" cx="284.955" cy="185.145" r="65.0225"></circle>
            <path d="M285.316,143.638 C295.135,151.136 307.344,155.664 320.615,155.854 C329.034,184.707 313.872,215.512 285.328,226.102 C256.792,215.512 241.632,184.707 250.049,155.854 C263.307,155.663 275.495,151.12 285.316,143.638 Z" id="路径" stroke="#003682" stroke-width="2" fill="#FFFFFF" fill-rule="nonzero"></path>
            <path d="M317.319,158.103 C305.203,158.078 294.071,153.924 285.225,146.984 C276.375,153.909 265.262,158.078 253.159,158.103 C245.091,184.527 258.975,212.932 285.235,222.495 C311.502,212.932 325.388,184.527 317.319,158.103 Z" id="路径" fill-opacity="0.3" fill="#7FA4D2" fill-rule="nonzero"></path>
            <path d="M284.736,192.344 C284.481,192.251 284.248,192.344 284.132,192.623 L283.505,194.156 C283.366,194.458 283.598,194.783 283.853,194.783 C284.132,194.783 284.271,194.69 284.364,194.481 C284.597,193.994 284.806,193.482 284.992,192.971 C285.085,192.693 284.968,192.437 284.736,192.344 Z M295.282,186.607 C295.259,186.328 295.05,186.142 294.771,186.165 C294.516,186.188 294.353,186.374 294.353,186.653 C294.376,187.42 294.33,188.163 294.307,188.929 C294.307,189.278 294.469,189.464 294.748,189.487 C295.027,189.487 295.236,189.301 295.236,188.953 C295.236,188.442 295.306,187.907 295.282,187.42 C295.306,187.094 295.306,186.862 295.282,186.607 Z M279.718,189.533 C279.463,189.464 279.231,189.603 279.138,189.859 C279.091,189.975 279.068,190.114 279.022,190.23 C278.813,190.858 278.557,191.438 278.278,192.019 C278.116,192.367 278.301,192.716 278.673,192.716 C278.882,192.739 279.022,192.6 279.115,192.414 C279.486,191.671 279.811,190.904 280.02,190.114 C280.09,189.859 279.974,189.603 279.718,189.533 Z M287.407,188.465 C287.152,188.442 286.943,188.604 286.896,188.883 C286.734,190.045 286.502,191.183 286.176,192.298 C285.99,192.948 285.758,193.599 285.526,194.249 C285.433,194.481 285.503,194.714 285.712,194.83 C285.921,194.946 286.107,194.923 286.269,194.783 C286.362,194.69 286.409,194.574 286.455,194.435 C286.734,193.692 286.989,192.971 287.175,192.205 C287.454,191.16 287.686,190.091 287.826,188.976 C287.826,188.72 287.663,188.488 287.407,188.465 Z M274.98,180.335 C275.073,180.033 274.933,179.777 274.654,179.684 C274.399,179.614 274.167,179.777 274.074,180.056 C273.772,181.124 273.632,182.193 273.632,183.354 C273.632,183.68 273.632,184.098 273.679,184.493 C273.772,185.329 273.934,186.142 274.213,186.955 C274.283,187.141 274.399,187.257 274.608,187.257 C275.003,187.28 275.189,186.978 275.073,186.56 C274.422,184.493 274.376,182.425 274.98,180.335 Z M286.06,186.885 C286.083,186.444 286.037,185.933 285.99,185.399 C285.921,184.655 285.828,183.935 285.665,183.215 C285.596,182.936 285.363,182.797 285.131,182.843 C284.852,182.913 284.713,183.145 284.783,183.424 C284.968,184.307 285.085,185.213 285.131,186.142 C285.201,187.722 285.085,189.301 284.69,190.834 C284.62,191.136 284.736,191.392 284.992,191.462 C285.27,191.531 285.503,191.369 285.596,191.043 C285.921,189.696 286.083,188.349 286.06,186.885 Z M290.938,181.38 C290.845,181.124 290.613,181.008 290.358,181.078 C290.102,181.148 289.986,181.38 290.056,181.659 C290.427,183.052 290.567,184.493 290.66,185.956 C290.776,188.349 290.52,190.672 289.916,192.995 C289.847,193.297 289.963,193.575 290.218,193.622 C290.52,193.692 290.753,193.552 290.822,193.227 C291.333,191.229 291.635,189.185 291.612,187.048 C291.635,185.747 291.519,184.376 291.31,183.029 C291.217,182.448 291.124,181.891 290.938,181.38 Z M275.653,178.569 C276.095,177.663 276.675,176.827 277.372,176.084 C279.44,173.877 281.972,172.715 285.015,172.622 C285.363,172.622 285.572,172.436 285.572,172.135 C285.572,171.833 285.363,171.67 284.992,171.67 C283.087,171.716 281.275,172.181 279.602,173.11 C277.512,174.272 275.932,175.944 274.84,178.081 C274.794,178.197 274.747,178.29 274.747,178.406 C274.724,178.592 274.817,178.732 274.98,178.825 C275.235,178.964 275.514,178.871 275.653,178.569 Z M282.065,184.144 C281.879,183.029 282.018,182.03 282.785,181.148 C282.831,181.078 282.878,181.008 282.878,180.939 C282.901,180.706 282.854,180.52 282.622,180.427 C282.39,180.311 282.204,180.381 282.041,180.567 C281.205,181.542 280.903,182.681 281.089,183.958 C281.252,184.957 281.345,185.933 281.368,186.885 C281.368,187.884 281.298,188.837 281.089,189.743 C280.857,190.858 280.439,191.903 279.928,192.925 C279.858,193.041 279.788,193.181 279.811,193.32 C279.858,193.529 279.951,193.668 280.16,193.715 C280.415,193.761 280.578,193.668 280.717,193.436 C281.437,192.042 281.949,190.579 282.158,188.999 C282.367,187.373 282.343,185.747 282.065,184.144 Z M276.652,185.445 C276.49,184.4 276.35,183.378 276.49,182.309 C276.629,180.985 277.07,179.754 277.767,178.616 C278.394,177.593 279.207,176.757 280.183,176.06 C280.415,175.898 280.485,175.689 280.415,175.48 C280.299,175.154 279.974,175.085 279.649,175.294 C278.905,175.805 278.255,176.409 277.697,177.106 C276.304,178.825 275.584,180.799 275.514,183.029 C275.467,184.167 275.769,185.282 275.839,186.397 C275.886,187.141 275.909,187.884 275.677,188.628 C275.607,188.86 275.537,189.115 275.467,189.301 C275.467,189.603 275.653,189.812 275.932,189.812 C276.211,189.812 276.327,189.65 276.42,189.417 C276.908,188.14 276.838,186.792 276.652,185.445 Z M296.653,181.357 C295.724,176.711 293.006,173.644 288.499,172.158 C288.011,171.995 287.5,171.879 286.966,171.833 C286.687,171.809 286.502,171.949 286.478,172.204 C286.432,172.483 286.571,172.692 286.85,172.738 C286.943,172.762 287.036,172.762 287.105,172.785 C289.475,173.226 291.473,174.341 293.099,176.13 C294.005,177.129 294.702,178.244 295.166,179.498 C295.584,180.613 295.817,181.775 295.863,182.959 C295.886,183.308 296.142,183.517 296.467,183.424 C296.699,183.354 296.815,183.169 296.792,182.797 C296.792,182.332 296.769,181.844 296.653,181.357 Z M290.52,177.454 C290.056,177.036 289.568,176.664 289.01,176.386 C288.755,176.246 288.499,176.339 288.383,176.548 C288.244,176.78 288.313,177.036 288.569,177.199 C288.615,177.245 288.685,177.268 288.732,177.291 C290.288,178.244 291.38,179.568 291.891,181.333 C292.355,183.029 292.472,184.771 292.518,186.514 C292.564,188.163 292.448,189.812 292.17,191.438 C292.123,191.787 292.262,191.996 292.541,192.042 C292.843,192.089 293.052,191.926 293.099,191.578 C293.331,190.137 293.47,188.674 293.447,187.42 C293.447,185.538 293.308,183.889 293.052,182.263 C292.75,180.358 291.937,178.755 290.52,177.454 Z M286.664,179.359 C285.735,179.01 284.806,179.034 283.853,179.336 C283.458,179.452 283.342,179.87 283.598,180.125 C283.784,180.311 283.969,180.288 284.179,180.218 C286.107,179.591 288.035,180.753 288.406,182.727 C288.569,183.587 288.685,184.446 288.755,185.306 C288.871,186.56 288.848,187.838 288.732,189.092 C288.569,190.718 288.197,192.298 287.686,193.854 C287.663,193.947 287.617,194.017 287.64,194.11 C287.686,194.319 287.802,194.481 288.058,194.505 C288.313,194.528 288.476,194.412 288.569,194.156 C289.359,191.856 289.777,189.51 289.777,187.164 C289.777,185.631 289.637,184.191 289.382,182.75 C289.08,181.101 288.197,179.94 286.664,179.359 Z M280.23,182.193 C280.764,179.568 283.528,177.733 286.176,178.267 C287.384,178.523 288.383,179.103 289.173,180.033 C289.243,180.125 289.336,180.218 289.428,180.288 C289.614,180.381 289.847,180.311 289.986,180.149 C290.149,179.94 290.125,179.731 289.939,179.475 C288.871,178.174 287.5,177.408 285.805,177.268 C283.644,177.082 281.856,177.849 280.485,179.545 C279.416,180.869 279.022,182.425 279.254,184.098 C279.37,184.888 279.509,185.654 279.509,186.444 C279.509,187.001 279.509,187.559 279.463,188.093 C279.44,188.349 279.626,188.558 279.881,188.581 C280.137,188.604 280.369,188.442 280.392,188.186 C280.485,187.164 280.485,186.142 280.369,185.12 C280.299,184.493 280.09,183.889 280.137,183.308 C280.137,182.913 280.16,182.565 280.23,182.193 Z M294.748,185.236 C295.004,185.236 295.189,185.004 295.189,184.725 L295.189,184.562 C295.096,183.68 295.004,182.797 294.864,181.914 C294.562,179.963 293.796,178.244 292.472,176.804 C290.543,174.643 288.104,173.575 285.201,173.552 C283.9,173.552 282.645,173.807 281.437,174.318 C281.159,174.434 281.043,174.69 281.135,174.945 C281.252,175.201 281.507,175.294 281.786,175.178 C283.156,174.62 284.573,174.388 286.037,174.527 C288.058,174.713 289.777,175.526 291.24,176.897 C292.773,178.36 293.656,180.149 293.958,182.263 C294.074,183.099 294.167,183.935 294.237,184.771 C294.307,185.05 294.492,185.236 294.748,185.236 Z M283.9,183.726 C283.853,183.447 283.807,183.169 283.9,182.89 C284.086,182.263 284.643,181.868 285.34,181.914 C285.967,181.937 286.478,182.402 286.618,183.099 C286.873,184.4 286.989,185.724 287.013,187.048 C287.013,187.35 287.198,187.559 287.477,187.559 C287.756,187.559 287.919,187.35 287.942,187.071 L287.942,186.653 L287.965,186.653 C287.919,186.049 287.895,185.445 287.826,184.841 C287.756,184.237 287.663,183.633 287.57,183.029 C287.384,181.752 286.269,180.846 284.945,180.985 C283.737,181.124 282.762,182.332 282.947,183.517 C283.04,184.237 283.156,184.957 283.226,185.677 C283.366,187.698 283.18,189.673 282.529,191.601 C282.274,192.321 281.995,193.018 281.647,193.692 C281.554,193.854 281.554,194.04 281.67,194.203 C281.786,194.365 281.925,194.412 282.111,194.388 C282.32,194.365 282.436,194.226 282.529,194.04 C284.132,190.765 284.504,187.327 283.9,183.726 Z M278.441,185.004 C278.325,184.214 278.209,183.401 278.278,182.611 C278.487,180.729 279.3,179.173 280.741,177.965 C281.949,176.943 283.342,176.432 284.922,176.362 C285.572,176.339 286.2,176.386 286.827,176.548 C286.92,176.571 287.013,176.595 287.105,176.571 C287.338,176.525 287.454,176.386 287.477,176.153 C287.5,175.921 287.361,175.735 287.129,175.665 C286.502,175.503 285.851,175.41 285.177,175.433 C284.713,175.41 284.225,175.456 283.737,175.572 C281.391,176.014 279.602,177.291 278.371,179.359 C277.488,180.869 277.186,182.495 277.396,184.214 C277.465,184.864 277.605,185.492 277.651,186.142 C277.744,187.745 277.535,189.301 276.815,190.741 C276.768,190.834 276.722,190.927 276.745,191.043 C276.792,191.276 276.908,191.415 277.14,191.438 C277.372,191.462 277.535,191.345 277.651,191.136 C278.627,189.208 278.766,187.118 278.441,185.004 Z" id="形状" fill="#003682" fill-rule="nonzero"></path>
            <circle id="椭圆形" stroke="#FF6633" stroke-width="2" fill="#FFFFFF" fill-rule="nonzero" cx="392.794" cy="248.393" r="22.2059"></circle>
            <circle id="椭圆形" fill-opacity="0.2" fill="#FF6633" fill-rule="nonzero" cx="392.794" cy="248.393" r="18.6557"></circle>
            <path d="M400.984,240.657 L400.984,257.038 L385.969,257.038 L385.969,240.657 L400.984,240.657 Z M399.619,252.033 L387.334,252.033 L387.334,255.673 L399.619,255.673 L399.619,252.033 Z M397.572,253.17 L397.572,254.535 L394.842,254.535 L394.842,253.17 L397.572,253.17 Z M399.619,247.028 L387.334,247.028 L387.334,250.668 L399.619,250.668 L399.619,247.028 Z M397.572,248.165 L397.572,249.53 L394.842,249.53 L394.842,248.165 L397.572,248.165 Z M399.619,242.023 L387.334,242.023 L387.334,245.663 L399.619,245.663 L399.619,242.023 Z M397.572,243.16 L397.572,244.525 L394.842,244.525 L394.842,243.16 L397.572,243.16 Z" id="形状" fill="#FF6633" fill-rule="nonzero"></path>
            <circle id="椭圆形" stroke="#FF6633" stroke-width="2" fill="#FFFFFF" fill-rule="nonzero" cx="176.206" cy="248.393" r="22.2059"></circle>
            <circle id="椭圆形" fill-opacity="0.2" fill="#FF6633" fill-rule="nonzero" cx="176.206" cy="248.393" r="18.6557"></circle>
            <path d="M170.332,240.657 L182.99,240.657 C184.032,240.657 184.851,241.477 184.851,242.519 L184.851,255.177 C184.851,256.219 184.032,257.038 182.99,257.038 L170.332,257.038 C169.29,257.038 168.471,256.219 168.471,255.177 L168.471,242.519 C168.471,241.477 169.29,240.657 170.332,240.657 Z M182.99,242.147 L170.332,242.147 C170.109,242.147 169.96,242.296 169.96,242.519 L169.96,245.869 L183.362,245.869 L183.362,242.519 C183.362,242.296 183.213,242.147 182.99,242.147 Z M170.332,255.549 L182.99,255.549 C183.213,255.549 183.362,255.4 183.362,255.177 L183.362,247.359 L169.96,247.359 L169.96,255.177 C169.96,255.4 170.109,255.549 170.332,255.549 Z M172.566,244.753 L171.821,244.753 C171.375,244.753 171.077,244.455 171.077,244.008 C171.077,243.561 171.375,243.264 171.821,243.264 L172.566,243.264 C173.013,243.264 173.31,243.561 173.31,244.008 C173.31,244.455 173.013,244.753 172.566,244.753 Z M175.544,244.753 L174.8,244.753 C174.353,244.753 174.055,244.455 174.055,244.008 C174.055,243.561 174.353,243.264 174.8,243.264 L175.544,243.264 C175.991,243.264 176.289,243.561 176.289,244.008 C176.289,244.455 175.991,244.753 175.544,244.753 Z M178.522,244.753 L177.778,244.753 C177.331,244.753 177.033,244.455 177.033,244.008 C177.033,243.561 177.331,243.264 177.778,243.264 L178.522,243.264 C178.969,243.264 179.267,243.561 179.267,244.008 C179.267,244.455 178.969,244.753 178.522,244.753 Z" id="形状" fill="#FF6633"></path>
            <circle id="椭圆形" stroke="#FF6633" stroke-width="2" fill="#FFFFFF" fill-rule="nonzero" cx="392.794" cy="122.808" r="22.2059"></circle>
            <circle id="椭圆形" fill-opacity="0.2" fill="#FF6633" fill-rule="nonzero" cx="392.794" cy="122.808" r="18.6557"></circle>
            <path d="M382.329,123.263 C382.329,129.284 387.228,134.183 393.249,134.183 C399.271,134.183 404.169,129.284 404.169,123.263 C404.169,117.241 399.271,112.343 393.249,112.343 C387.228,112.343 382.329,117.241 382.329,123.263 Z M387.63,115.539 C389.208,114.388 391.151,113.708 393.249,113.708 C398.517,113.708 402.804,117.995 402.804,123.263 C402.804,123.871 402.747,124.467 402.638,125.044 C401.565,125.241 400.794,126.084 400.085,126.893 C400.072,126.908 400.059,126.923 400.046,126.938 C399.672,127.365 399.263,127.833 398.731,128.055 C398.212,128.27 398.017,127.969 397.784,127.61 C397.743,127.547 397.701,127.483 397.657,127.419 C397.351,126.985 396.973,126.644 396.427,126.581 C395.835,126.511 395.265,126.773 394.806,127.127 C393.854,127.867 393.203,129.057 393.081,130.256 C393.015,130.916 393.157,131.582 393.57,132.108 C393.705,132.281 393.884,132.436 394.065,132.592 C394.131,132.649 394.198,132.706 394.263,132.765 C393.929,132.8 393.591,132.818 393.249,132.818 C389.319,132.818 385.934,130.432 384.469,127.032 C384.486,127.014 384.503,126.994 384.519,126.971 C384.84,126.526 385.251,126.903 385.555,127.182 C385.613,127.236 385.667,127.285 385.716,127.325 C386.157,127.683 386.727,127.876 387.297,127.825 C387.813,127.78 388.344,127.544 388.571,127.05 C388.766,126.629 388.719,126.066 388.678,125.56 C388.664,125.397 388.651,125.24 388.647,125.095 C388.644,125.008 388.638,124.917 388.63,124.824 C388.614,124.613 388.598,124.395 388.63,124.2 C388.677,123.909 388.952,123.863 389.21,123.82 C389.215,123.819 389.221,123.819 389.226,123.818 C389.741,123.73 390.434,123.636 390.899,123.929 C391.116,124.065 391.29,124.245 391.465,124.425 C391.685,124.653 391.905,124.881 392.212,125.019 C392.723,125.248 393.286,125.253 393.83,125.161 C395.796,124.829 398.375,122.431 396.881,120.362 C396.565,119.921 396.12,119.587 395.608,119.408 C395.094,119.228 394.551,119.275 394.017,119.321 C393.923,119.33 393.829,119.338 393.736,119.345 C393.28,119.377 392.576,119.415 392.314,118.945 C392.105,118.57 392.329,118.286 392.554,118.003 C392.657,117.873 392.76,117.743 392.821,117.604 C393.098,116.975 392.655,116.508 392.192,116.134 C391.69,115.73 391.109,115.402 390.442,115.448 C390.042,115.476 389.687,115.628 389.331,115.781 C389.068,115.894 388.804,116.008 388.52,116.071 C387.994,116.189 387.705,115.939 387.63,115.539 Z M386.784,116.233 C387.065,116.787 387.616,117.168 388.326,117.123 C388.763,117.096 389.143,116.936 389.529,116.774 C389.692,116.706 389.856,116.637 390.025,116.577 C390.632,116.363 391.087,116.54 391.567,116.94 C391.586,116.956 391.613,116.975 391.642,116.996 C391.721,117.054 391.821,117.127 391.847,117.189 C391.867,117.239 391.866,117.24 391.84,117.268 C391.828,117.281 391.812,117.299 391.79,117.329 C391.748,117.385 391.704,117.439 391.661,117.493 C391.523,117.665 391.39,117.831 391.31,118.049 C391.126,118.545 391.194,119.128 391.493,119.563 C392.1,120.448 393.128,120.384 394.078,120.325 C394.245,120.314 394.41,120.304 394.57,120.299 C395.732,120.262 396.698,121.256 396.08,122.394 C395.564,123.339 394.573,124.047 393.496,124.18 C392.834,124.263 392.452,124.016 392.013,123.56 C391.596,123.125 391.144,122.835 390.539,122.754 C389.632,122.634 388.047,122.708 387.688,123.743 C387.528,124.208 387.571,124.77 387.611,125.293 C387.624,125.469 387.638,125.641 387.642,125.803 C387.644,125.86 387.651,125.926 387.659,125.998 C387.688,126.276 387.725,126.626 387.492,126.744 C387.252,126.867 386.904,126.821 386.664,126.722 C386.418,126.621 386.229,126.45 386.04,126.28 C385.792,126.056 385.545,125.833 385.172,125.772 C384.775,125.708 384.404,125.801 384.095,126.006 C383.834,125.137 383.694,124.216 383.694,123.263 C383.694,120.486 384.885,117.981 386.784,116.233 Z M395.426,132.568 C398.693,131.804 401.321,129.357 402.344,126.196 C401.748,126.47 401.267,127.032 400.799,127.578 C400.473,127.959 400.153,128.333 399.806,128.594 C399.275,128.994 398.561,129.33 397.892,129.092 C397.458,128.939 397.222,128.589 396.983,128.234 C396.906,128.119 396.828,128.004 396.744,127.895 C396.307,127.332 395.658,127.703 395.237,128.105 C394.736,128.585 394.367,129.199 394.188,129.87 C394,130.566 394.07,131.213 394.601,131.728 C394.672,131.797 394.744,131.864 394.814,131.93 C395.035,132.137 395.248,132.337 395.426,132.568 Z" id="形状" fill="#FF6633"></path>
            <circle id="椭圆形" stroke="#FF6633" stroke-width="2" fill="#FFFFFF" fill-rule="nonzero" cx="176.206" cy="122.808" r="22.2059"></circle>
            <circle id="椭圆形" fill-opacity="0.2" fill="#FF6633" fill-rule="nonzero" cx="176.206" cy="122.808" r="18.6557"></circle>
            <path d="M171.428,114.163 L181.595,114.163 C182.222,114.163 182.732,114.673 182.732,115.3 L182.732,131.226 C182.732,131.853 182.222,132.363 181.595,132.363 L171.428,132.363 C170.801,132.363 170.291,131.853 170.291,131.226 L170.291,115.3 C170.291,114.673 170.801,114.163 171.428,114.163 Z M181.026,131.226 C181.339,131.226 181.595,130.97 181.595,130.657 L181.595,127.916 L171.428,127.916 L171.428,130.657 C171.428,130.97 171.684,131.226 171.997,131.226 L181.026,131.226 Z M171.428,115.869 L171.428,126.779 L181.595,126.779 L181.595,115.869 C181.595,115.556 181.339,115.3 181.026,115.3 L171.997,115.3 C171.684,115.3 171.428,115.556 171.428,115.869 Z M175.82,130.307 C175.637,130.123 175.534,129.875 175.534,129.615 C175.534,129.356 175.637,129.107 175.82,128.924 C176.004,128.741 176.252,128.638 176.511,128.638 C176.771,128.638 177.019,128.741 177.203,128.924 C177.386,129.107 177.489,129.356 177.489,129.615 C177.489,129.875 177.386,130.123 177.203,130.307 C177.019,130.49 176.771,130.593 176.511,130.593 C176.252,130.593 176.004,130.49 175.82,130.307 Z" id="形状" fill="#FF6633"></path>
            <circle id="椭圆形" stroke="#FF6633" stroke-width="2" fill="#FFFFFF" fill-rule="nonzero" cx="284.5" cy="302.085" r="22.2059"></circle>
            <circle id="椭圆形" fill-opacity="0.2" fill="#FF6633" fill-rule="nonzero" cx="284.5" cy="302.085" r="18.6557"></circle>
            <path d="M289.098,297.731 C288.616,297.731 288.225,298.122 288.225,298.604 L288.225,307.334 C288.225,309.26 286.658,310.826 284.733,310.826 C282.807,310.826 281.241,309.26 281.241,307.334 L281.241,295.548 C281.241,294.345 282.22,293.365 283.423,293.365 C284.627,293.365 285.606,294.345 285.606,295.548 L285.606,305.588 C285.606,306.069 285.214,306.461 284.733,306.461 C284.252,306.461 283.86,306.069 283.86,305.588 L283.86,298.604 C283.86,298.122 283.469,297.731 282.987,297.731 C282.505,297.731 282.114,298.122 282.114,298.604 L282.114,305.588 C282.114,307.032 283.289,308.207 284.733,308.207 C286.177,308.207 287.352,307.032 287.352,305.588 L287.352,295.548 C287.352,293.382 285.59,291.619 283.423,291.619 C281.257,291.619 279.495,293.382 279.495,295.548 L279.495,307.334 C279.495,310.223 281.844,312.572 284.733,312.572 C287.621,312.572 289.971,310.223 289.971,307.334 L289.971,298.604 C289.971,298.122 289.58,297.731 289.098,297.731 Z" id="路径" fill="#FF6633" fill-rule="nonzero"></path>
            <circle id="椭圆形" stroke="#FF6633" stroke-width="2" fill="#FFFFFF" fill-rule="nonzero" cx="284.5" cy="68.2059" r="22.2059"></circle>
            <circle id="椭圆形" fill-opacity="0.2" fill="#FF6633" fill-rule="nonzero" cx="284.5" cy="68.2059" r="18.6557"></circle>
            <path d="M290.644,61.3807 L278.355,61.3807 C277.979,61.3807 277.674,61.6864 277.674,62.0633 L277.674,74.3487 C277.674,74.7256 277.979,75.0313 278.355,75.0313 L290.644,75.0313 C291.02,75.0313 291.325,74.7256 291.325,74.3487 L291.325,62.0633 C291.325,61.6862 291.02,61.3807 290.644,61.3807 Z M283.677,69.5709 L283.677,66.8409 L289.963,66.8409 L289.963,69.5709 L283.677,69.5709 Z M279.037,66.8409 L282.314,66.8409 L282.314,69.5709 L279.037,69.5709 L279.037,66.8409 Z M289.963,65.4758 L287.253,65.4758 L287.253,62.7457 L289.963,62.7457 L289.963,65.4758 Z M285.89,62.7457 L285.89,65.4758 L279.037,65.4758 L279.037,62.7457 L285.89,62.7457 Z M279.037,70.936 L285.89,70.936 L285.89,73.6662 L279.037,73.6662 L279.037,70.936 Z M287.253,73.6662 L287.253,70.936 L289.963,70.936 L289.963,73.6662 L287.253,73.6662 Z" id="形状" fill="#FF6633" fill-rule="nonzero"></path>
        </g>
    </g>
</svg>