<?xml version="1.0" encoding="UTF-8"?>
<svg width="570px" height="370px" viewBox="0 0 570 370" version="1.1" xmlns="http://www.w3.org/2000/svg" xmlns:xlink="http://www.w3.org/1999/xlink">
    <title>网站非网站全业务支持</title>
    <g id="页面-1" stroke="none" stroke-width="1" fill="none" fill-rule="evenodd">
        <g id="网站非网站全业务支持">
            <rect id="矩形" fill-opacity="0" fill="#FFFFFF" fill-rule="nonzero" x="0" y="0" width="570" height="370"></rect>
            <rect id="矩形" stroke="#003682" stroke-width="2" fill="#FFFFFF" fill-rule="nonzero" x="330" y="78" width="159" height="96"></rect>
            <path d="M340.375,85.3125 C340.375,86.5206 339.396,87.5 338.188,87.5 C336.979,87.5 336,86.5206 336,85.3125 C336,84.1044 336.979,83.125 338.188,83.125 C339.396,83.125 340.375,84.1044 340.375,85.3125 Z" id="路径" fill="#003682" fill-rule="nonzero"></path>
            <path d="M348.25,85.3125 C348.25,86.5206 347.271,87.5 346.062,87.5 C344.854,87.5 343.875,86.5206 343.875,85.3125 C343.875,84.1044 344.854,83.125 346.062,83.125 C347.271,83.125 348.25,84.1044 348.25,85.3125 Z" id="路径" fill="#003682" fill-rule="nonzero"></path>
            <path d="M353.938,87.5 C355.146,87.5 356.125,86.5206 356.125,85.3125 C356.125,84.1044 355.146,83.125 353.938,83.125 C352.729,83.125 351.75,84.1044 351.75,85.3125 C351.75,86.5206 352.729,87.5 353.938,87.5 Z" id="路径" fill="#003682" fill-rule="nonzero"></path>
            <rect id="矩形" fill-opacity="0.3" fill="#7FA5D2" fill-rule="nonzero" x="341.25" y="92.75" width="136.5" height="73.5"></rect>
            <path d="M414.663,124.284 C415.881,124.284 416.868,123.297 416.868,122.08 C416.868,120.862 415.881,119.875 414.663,119.875 C413.446,119.875 412.459,120.862 412.459,122.08 C412.459,123.297 413.446,124.284 414.663,124.284 Z" id="路径" fill="#7FA5D2" fill-rule="nonzero"></path>
            <path d="M405.638,125.597 C405.975,125.014 406.817,125.014 407.153,125.597 L411.209,132.62 L413.354,128.904 C413.691,128.32 414.533,128.32 414.87,128.904 L418.605,135.373 C418.942,135.956 418.521,136.686 417.847,136.686 L412.047,136.686 L412.04,136.686 L400.751,136.686 C400.078,136.686 399.657,135.956 399.994,135.373 L405.638,125.597 Z" id="路径" fill="#7FA5D2" fill-rule="nonzero"></path>
            <rect id="矩形" stroke="#003682" stroke-width="2" fill="#FFFFFF" fill-rule="nonzero" x="81" y="129" width="122.857" height="74"></rect>
            <path d="M88.8216,134.446 C88.8216,135.383 88.0621,136.143 87.1251,136.143 C86.1882,136.143 85.4287,135.383 85.4287,134.446 C85.4287,133.51 86.1882,132.75 87.1251,132.75 C88.0621,132.75 88.8216,133.51 88.8216,134.446 Z" id="路径" fill="#003682" fill-rule="nonzero"></path>
            <path d="M94.9287,134.446 C94.9287,135.383 94.1692,136.143 93.2323,136.143 C92.2954,136.143 91.5359,135.383 91.5359,134.446 C91.5359,133.51 92.2954,132.75 93.2323,132.75 C94.1692,132.75 94.9287,133.51 94.9287,134.446 Z" id="路径" fill="#003682" fill-rule="nonzero"></path>
            <path d="M99.3394,136.143 C100.276,136.143 101.036,135.383 101.036,134.446 C101.036,133.51 100.276,132.75 99.3394,132.75 C98.4025,132.75 97.643,133.51 97.643,134.446 C97.643,135.383 98.4025,136.143 99.3394,136.143 Z" id="路径" fill="#003682" fill-rule="nonzero"></path>
            <rect id="矩形" fill-opacity="0.3" fill="#7FA5D2" fill-rule="nonzero" x="89" y="143" width="24" height="27"></rect>
            <rect id="矩形" fill-opacity="0.3" fill="#7FA5D2" fill-rule="nonzero" x="155" y="172" width="24" height="23"></rect>
            <rect id="矩形" fill-opacity="0.3" fill="#7FA5D2" fill-rule="nonzero" x="118" y="153" width="74" height="5"></rect>
            <rect id="矩形" fill-opacity="0.3" fill="#7FA5D2" fill-rule="nonzero" x="118" y="164" width="74" height="5"></rect>
            <rect id="矩形" fill-opacity="0.3" fill="#7FA5D2" fill-rule="nonzero" x="89" y="178" width="64" height="5"></rect>
            <rect id="矩形" fill-opacity="0.3" fill="#7FA5D2" fill-rule="nonzero" x="89" y="190" width="64" height="5"></rect>
            <rect id="矩形" fill="#FFFFFF" fill-rule="nonzero" x="168" y="149" width="209" height="133"></rect>
            <path d="M143,282 C142.448,282 142,282.448 142,283 L142,288.653 C142,289.51 142.364,290.342 143.137,290.71 C145.475,291.822 150.41,292.83 158,292.5 C166.745,292.12 233.113,292.312 270,292.475 L270,292.5 C270.893,292.496 271.81,292.492 272.75,292.487 C273.69,292.492 274.607,292.496 275.5,292.5 L275.5,292.475 C312.387,292.312 378.755,292.12 387.5,292.5 C395.09,292.83 400.025,291.822 402.363,290.71 C403.136,290.342 403.5,289.51 403.5,288.653 L403.5,283 C403.5,282.448 403.052,282 402.5,282 L143,282 Z" id="路径" stroke="#003682" stroke-width="2"></path>
            <path d="M169,153 C169,151.343 170.343,150 172,150 L373,150 C374.657,150 376,151.343 376,153 L376,282 L169,282 L169,153 Z" id="路径" stroke="#003682" stroke-width="2" fill-opacity="0.3" fill="#7FA5D2" fill-rule="nonzero"></path>
            <rect id="矩形" stroke="#003682" stroke-width="2" fill="#FFFFFF" fill-rule="nonzero" x="181" y="167" width="182" height="110"></rect>
            <rect id="矩形" fill-opacity="0.3" fill="#7FA5D2" fill-rule="nonzero" x="194" y="184" width="156" height="68"></rect>
            <path d="M194,266.5 C194,265.672 194.672,265 195.5,265 L348.5,265 C349.328,265 350,265.672 350,266.5 C350,267.328 349.328,268 348.5,268 L195.5,268 C194.672,268 194,267.328 194,266.5 Z" id="路径" fill-opacity="0.3" fill="#7FA5D2" fill-rule="nonzero"></path>
            <circle id="椭圆形" fill="#FF6633" fill-rule="nonzero" cx="209" cy="266" r="5"></circle>
            <circle id="椭圆形" stroke="#003682" stroke-width="2" fill="#FFFFFF" fill-rule="nonzero" cx="272" cy="218" r="16"></circle>
            <circle id="椭圆形" fill-opacity="0.3" fill="#7FA5D2" fill-rule="nonzero" cx="272" cy="218" r="13"></circle>
            <path d="M276.688,217.228 C277.355,217.613 277.355,218.575 276.688,218.96 L270.547,222.506 C269.88,222.89 269.047,222.409 269.047,221.639 L269.047,214.548 C269.047,213.779 269.88,213.298 270.547,213.682 L276.688,217.228 Z" id="路径" fill="#7FA5D2" fill-rule="nonzero"></path>
            <path d="M193,175.5 C193,176.881 191.881,178 190.5,178 C189.119,178 188,176.881 188,175.5 C188,174.119 189.119,173 190.5,173 C191.881,173 193,174.119 193,175.5 Z" id="路径" fill="#003682" fill-rule="nonzero"></path>
            <path d="M202,175.5 C202,176.881 200.881,178 199.5,178 C198.119,178 197,176.881 197,175.5 C197,174.119 198.119,173 199.5,173 C200.881,173 202,174.119 202,175.5 Z" id="路径" fill="#003682" fill-rule="nonzero"></path>
            <path d="M208.5,178 C209.881,178 211,176.881 211,175.5 C211,174.119 209.881,173 208.5,173 C207.119,173 206,174.119 206,175.5 C206,176.881 207.119,178 208.5,178 Z" id="路径" fill="#003682" fill-rule="nonzero"></path>
            <path d="M266,158 C265.448,158 265,158.448 265,159 C265,159.552 265.448,160 266,160 L268,160 C268.552,160 269,159.552 269,159 C269,158.448 268.552,158 268,158 L266,158 Z M272,158 C271.448,158 271,158.448 271,159 C271,159.552 271.448,160 272,160 L280,160 C280.552,160 281,159.552 281,159 C281,158.448 280.552,158 280,158 L272,158 Z" id="形状" fill="#003682"></path>
        </g>
    </g>
</svg>