<?xml version="1.0" encoding="UTF-8"?>
<svg width="570px" height="370px" viewBox="0 0 570 370" version="1.1" xmlns="http://www.w3.org/2000/svg" xmlns:xlink="http://www.w3.org/1999/xlink">
    <title>灵活定价</title>
    <g id="页面-1" stroke="none" stroke-width="1" fill="none" fill-rule="evenodd">
        <g id="灵活定价">
            <rect id="矩形" fill-opacity="0" fill="#FFFFFF" fill-rule="nonzero" x="0" y="0" width="570" height="370"></rect>
            <circle id="椭圆形" stroke="#FF6633" cx="285" cy="185" r="104.63"></circle>
            <circle id="椭圆形" stroke="#FF6633" cx="285" cy="185" r="129.5"></circle>
            <polygon id="路径" stroke="#003682" stroke-width="2" fill="#FFFFFF" fill-rule="nonzero" points="195.696 252.826 195.696 117.174 269.306 127.69 269.306 240.207"></polygon>
            <ellipse id="椭圆形" fill="#D9E4F2" fill-rule="nonzero" cx="233.552" cy="159.237" rx="25.2376" ry="27.3407"></ellipse>
            <polygon id="路径" fill="#D9E4F2" fill-rule="nonzero" points="208.314 196.041 258.79 196.041 258.79 202.351 208.314 204.454"></polygon>
            <polygon id="路径" fill="#D9E4F2" fill-rule="nonzero" points="208.314 209.712 258.79 207.609 258.79 213.918 208.314 218.124"></polygon>
            <path d="M233.325,175.106 L233.325,144.515 L235.284,144.515 L235.284,175.106 L233.325,175.106 Z M239.455,154.003 C239.327,152.871 238.802,151.995 237.877,151.374 C236.953,150.744 235.79,150.43 234.388,150.43 C233.384,150.43 232.516,150.589 231.783,150.908 C231.05,151.218 230.481,151.649 230.074,152.198 C229.676,152.74 229.477,153.357 229.477,154.05 C229.477,154.632 229.612,155.134 229.883,155.556 C230.162,155.978 230.524,156.333 230.971,156.62 C231.425,156.898 231.911,157.133 232.428,157.325 C232.946,157.508 233.444,157.659 233.922,157.779 L236.312,158.4 C237.093,158.591 237.893,158.85 238.714,159.177 C239.534,159.503 240.295,159.934 240.996,160.467 C241.697,161.001 242.263,161.662 242.693,162.451 C243.131,163.24 243.35,164.184 243.35,165.283 C243.35,166.669 242.992,167.9 242.275,168.975 C241.566,170.051 240.534,170.899 239.18,171.521 C237.834,172.142 236.205,172.453 234.293,172.453 C232.46,172.453 230.875,172.162 229.537,171.58 C228.198,170.999 227.151,170.174 226.394,169.107 C225.637,168.031 225.219,166.757 225.139,165.283 L228.844,165.283 C228.915,166.167 229.202,166.904 229.704,167.494 C230.214,168.075 230.863,168.509 231.652,168.796 C232.448,169.075 233.321,169.214 234.269,169.214 C235.312,169.214 236.24,169.051 237.053,168.725 C237.873,168.39 238.519,167.928 238.989,167.338 C239.459,166.741 239.694,166.044 239.694,165.247 C239.694,164.522 239.487,163.929 239.072,163.467 C238.666,163.005 238.112,162.622 237.411,162.32 C236.718,162.017 235.934,161.75 235.057,161.519 L232.166,160.73 C230.206,160.196 228.652,159.412 227.505,158.376 C226.366,157.341 225.796,155.97 225.796,154.265 C225.796,152.855 226.179,151.625 226.944,150.573 C227.708,149.521 228.744,148.705 230.05,148.123 C231.357,147.534 232.831,147.239 234.472,147.239 C236.129,147.239 237.591,147.53 238.857,148.111 C240.132,148.693 241.136,149.494 241.869,150.513 C242.602,151.525 242.984,152.688 243.016,154.003 L239.455,154.003 Z" id="形状" fill="#003682" fill-rule="nonzero"></path>
            <polygon id="路径" stroke="#003682" stroke-width="2" fill="#FFFFFF" fill-rule="nonzero" points="248.274 252.826 248.274 117.174 321.884 127.69 321.884 240.207"></polygon>
            <ellipse id="椭圆形" fill="#D9E4F2" fill-rule="nonzero" cx="286.13" cy="159.237" rx="25.2376" ry="27.3407"></ellipse>
            <polygon id="路径" fill="#D9E4F2" fill-rule="nonzero" points="260.893 196.041 311.368 196.041 311.368 202.351 260.893 204.454"></polygon>
            <path d="M285.903,175.106 L285.903,144.515 L287.863,144.515 L287.863,175.106 L285.903,175.106 Z M292.033,154.003 C291.906,152.871 291.38,151.995 290.456,151.374 C289.532,150.744 288.369,150.43 286.967,150.43 C285.963,150.43 285.095,150.589 284.362,150.908 C283.629,151.218 283.059,151.649 282.653,152.198 C282.255,152.74 282.055,153.357 282.055,154.05 C282.055,154.632 282.191,155.134 282.462,155.556 C282.741,155.978 283.103,156.333 283.549,156.62 C284.003,156.898 284.489,157.133 285.007,157.325 C285.525,157.508 286.023,157.659 286.501,157.779 L288.891,158.4 C289.671,158.591 290.472,158.85 291.293,159.177 C292.113,159.503 292.874,159.934 293.575,160.467 C294.276,161.001 294.842,161.662 295.272,162.451 C295.71,163.24 295.929,164.184 295.929,165.283 C295.929,166.669 295.571,167.9 294.854,168.975 C294.145,170.051 293.113,170.899 291.759,171.521 C290.412,172.142 288.783,172.453 286.871,172.453 C285.039,172.453 283.454,172.162 282.115,171.58 C280.777,170.999 279.729,170.174 278.972,169.107 C278.216,168.031 277.797,166.757 277.718,165.283 L281.422,165.283 C281.494,166.167 281.781,166.904 282.283,167.494 C282.792,168.075 283.442,168.509 284.23,168.796 C285.027,169.075 285.899,169.214 286.847,169.214 C287.891,169.214 288.819,169.051 289.632,168.725 C290.452,168.39 291.097,167.928 291.567,167.338 C292.037,166.741 292.272,166.044 292.272,165.247 C292.272,164.522 292.065,163.929 291.651,163.467 C291.245,163.005 290.691,162.622 289.99,162.32 C289.297,162.017 288.512,161.75 287.636,161.519 L284.744,160.73 C282.784,160.196 281.231,159.412 280.084,158.376 C278.945,157.341 278.375,155.97 278.375,154.265 C278.375,152.855 278.757,151.625 279.522,150.573 C280.287,149.521 281.323,148.705 282.629,148.123 C283.936,147.534 285.409,147.239 287.05,147.239 C288.707,147.239 290.169,147.53 291.436,148.111 C292.711,148.693 293.714,149.494 294.447,150.513 C295.18,151.525 295.563,152.688 295.594,154.003 L292.033,154.003 Z" id="形状" fill="#003682" fill-rule="nonzero"></path>
            <polygon id="路径" stroke="#003682" stroke-width="2" fill="#FFFFFF" fill-rule="nonzero" points="300.853 252.826 300.853 117.174 374.462 127.69 374.462 240.207"></polygon>
            <ellipse id="椭圆形" fill="#D9E4F2" fill-rule="nonzero" cx="338.709" cy="159.237" rx="25.2376" ry="27.3407"></ellipse>
            <polygon id="路径" fill="#D9E4F2" fill-rule="nonzero" points="313.472 196.041 363.947 196.041 363.947 202.351 313.472 204.454"></polygon>
            <polygon id="路径" fill="#D9E4F2" fill-rule="nonzero" points="313.472 209.712 363.947 207.609 363.947 213.918 313.472 218.124"></polygon>
            <path d="M338.482,175.106 L338.482,144.515 L340.442,144.515 L340.442,175.106 L338.482,175.106 Z M344.613,154.003 C344.485,152.871 343.959,151.995 343.035,151.374 C342.111,150.744 340.948,150.43 339.546,150.43 C338.542,150.43 337.674,150.589 336.941,150.908 C336.208,151.218 335.638,151.649 335.232,152.198 C334.834,152.74 334.635,153.357 334.635,154.05 C334.635,154.632 334.77,155.134 335.041,155.556 C335.32,155.978 335.682,156.333 336.128,156.62 C336.582,156.898 337.068,157.133 337.586,157.325 C338.104,157.508 338.602,157.659 339.08,157.779 L341.47,158.4 C342.25,158.591 343.051,158.85 343.872,159.177 C344.692,159.503 345.453,159.934 346.154,160.467 C346.855,161.001 347.421,161.662 347.851,162.451 C348.289,163.24 348.508,164.184 348.508,165.283 C348.508,166.669 348.15,167.9 347.433,168.975 C346.724,170.051 345.692,170.899 344.338,171.521 C342.991,172.142 341.362,172.453 339.45,172.453 C337.618,172.453 336.033,172.162 334.694,171.58 C333.356,170.999 332.308,170.174 331.552,169.107 C330.795,168.031 330.377,166.757 330.297,165.283 L334.001,165.283 C334.073,166.167 334.36,166.904 334.862,167.494 C335.371,168.075 336.021,168.509 336.809,168.796 C337.606,169.075 338.478,169.214 339.426,169.214 C340.47,169.214 341.398,169.051 342.211,168.725 C343.031,168.39 343.676,167.928 344.146,167.338 C344.617,166.741 344.852,166.044 344.852,165.247 C344.852,164.522 344.644,163.929 344.23,163.467 C343.824,163.005 343.27,162.622 342.569,162.32 C341.876,162.017 341.091,161.75 340.215,161.519 L337.323,160.73 C335.364,160.196 333.81,159.412 332.663,158.376 C331.524,157.341 330.954,155.97 330.954,154.265 C330.954,152.855 331.336,151.625 332.101,150.573 C332.866,149.521 333.902,148.705 335.208,148.123 C336.515,147.534 337.988,147.239 339.63,147.239 C341.287,147.239 342.748,147.53 344.015,148.111 C345.29,148.693 346.293,149.494 347.026,150.513 C347.759,151.525 348.142,152.688 348.174,154.003 L344.613,154.003 Z" id="形状" fill="#003682" fill-rule="nonzero"></path>
            <polygon id="路径" fill="#D9E4F2" fill-rule="nonzero" points="313.472 223.382 363.947 219.176 363.947 225.485 313.472 231.795"></polygon>
        </g>
    </g>
</svg>