<?xml version="1.0" encoding="UTF-8"?>
<svg width="570px" height="370px" viewBox="0 0 570 370" version="1.1" xmlns="http://www.w3.org/2000/svg" xmlns:xlink="http://www.w3.org/1999/xlink">
    <title>0日防护</title>
    <defs>
        <rect id="path-1" x="5.68434189e-14" y="0" width="80.729" height="77.6" rx="1"></rect>
        <rect id="path-3" x="5.68434189e-14" y="2.84217094e-14" width="86.9871" height="83.8581" rx="1"></rect>
    </defs>
    <g id="页面-1" stroke="none" stroke-width="1" fill="none" fill-rule="evenodd">
        <g id="0日防护">
            <rect id="矩形" fill-opacity="0" fill="#FFFFFF" fill-rule="nonzero" x="0" y="0" width="570" height="370"></rect>
            <path d="M404.663,65.6605 C425.293,86.2909 430.713,118.331 422.674,153.55 C414.636,188.762 393.156,227.074 360.115,260.115 C327.074,293.156 288.762,314.637 253.55,322.674 C218.33,330.713 186.291,325.293 165.66,304.663 C145.03,284.032 139.61,251.992 147.649,216.773 C155.686,181.561 177.167,143.249 210.208,110.208 C243.249,77.1673 281.561,55.6865 316.773,47.649 C351.992,39.6097 384.032,45.03 404.663,65.6605 Z" id="路径" stroke="#FF6633"></path>
            <path d="M404.663,304.663 C384.032,325.293 351.992,330.713 316.773,322.674 C281.561,314.636 243.249,293.156 210.208,260.115 C177.167,227.074 155.686,188.762 147.649,153.55 C139.61,118.33 145.03,86.2909 165.66,65.6604 C186.291,45.03 218.331,39.6096 253.55,47.6489 C288.762,55.6865 327.074,77.1672 360.115,110.208 C393.156,143.249 414.637,181.561 422.674,216.773 C430.713,251.992 425.293,284.032 404.663,304.663 Z" id="路径" stroke="#FF6633"></path>
            <rect id="矩形" fill="#FFFFFF" fill-rule="nonzero" x="168.661" y="105.661" width="233" height="148"></rect>
            <rect id="矩形" fill="#FFFFFF" fill-rule="nonzero" transform="translate(285.161000, 259.661000) scale(-1, 1) rotate(-180.000000) translate(-285.161000, -259.661000) " x="148.661" y="253.661" width="273" height="12"></rect>
            <path d="M140.775,254.634 C140.16,254.634 139.661,255.102 139.661,255.678 L139.661,261.579 C139.661,262.474 140.066,263.342 140.928,263.726 C143.53,264.887 149.024,265.94 157.474,265.595 C167.21,265.198 241.096,265.399 282.161,265.569 L282.161,265.595 C283.156,265.591 284.177,265.586 285.223,265.582 C286.269,265.586 287.29,265.591 288.285,265.595 L288.285,265.569 C329.35,265.399 403.236,265.198 412.972,265.595 C421.422,265.94 426.916,264.887 429.518,263.726 C430.38,263.342 430.785,262.474 430.785,261.579 L430.785,255.678 C430.785,255.102 430.286,254.634 429.671,254.634 L140.775,254.634 Z" id="路径" stroke="#003682" stroke-width="2" fill-opacity="0.3" fill="#7FA4D2" fill-rule="nonzero"></path>
            <path d="M169.333,109.867 C169.333,108.21 170.676,106.867 172.333,106.867 L398.113,106.867 C399.77,106.867 401.113,108.21 401.113,109.867 L401.113,254.84 L169.333,254.84 L169.333,109.867 Z" id="路径" stroke="#003682" stroke-width="2" fill-opacity="0.3" fill="#7FA5D2" fill-rule="nonzero"></path>
            <rect id="矩形" stroke="#003682" stroke-width="2" fill="#FFFFFF" fill-rule="nonzero" x="182.661" y="130.661" width="207" height="115"></rect>
            <line x1="299.559" y1="119.1" x2="279.709" y2="119.1" id="路径" stroke="#003682" stroke-width="2" stroke-linecap="round"></line>
            <line x1="274.196" y1="119.1" x2="271.99" y2="119.1" id="路径" stroke="#003682" stroke-width="2" stroke-linecap="round"></line>
            <polygon id="路径" fill-opacity="0.3" fill="#7FA4D2" fill-rule="nonzero" points="197.004 147.771 254.346 147.771 254.346 229.374 197.004 229.374"></polygon>
            <polygon id="路径" fill-opacity="0.3" fill="#7FA4D2" fill-rule="nonzero" points="265.374 156.593 362.415 156.593 362.415 165.415 265.374 165.415"></polygon>
            <polygon id="路径" fill-opacity="0.3" fill="#7FA4D2" fill-rule="nonzero" points="265.374 180.853 362.415 180.853 362.415 189.675 265.374 189.675"></polygon>
            <polygon id="路径" fill-opacity="0.3" fill="#7FA4D2" fill-rule="nonzero" points="265.374 209.525 331.538 209.525 331.538 218.346 265.374 218.346"></polygon>
            <g id="Clipped" transform="translate(387.791000, 191.062000)">
                <mask id="mask-2" fill="white">
                    <use xlink:href="#path-1"></use>
                </mask>
                <g id="矩形"></g>
                <rect id="矩形" stroke="#003682" stroke-width="4" fill="#FFFFFF" fill-rule="nonzero" mask="url(#mask-2)" x="5.68434189e-14" y="0" width="80.729" height="77.6" rx="1"></rect>
            </g>
            <g id="Clipped" transform="translate(384.661000, 179.797000)">
                <mask id="mask-4" fill="white">
                    <use xlink:href="#path-3"></use>
                </mask>
                <g id="矩形"></g>
                <rect id="矩形" stroke="#003682" stroke-width="4" fill="#FFFFFF" fill-rule="nonzero" mask="url(#mask-4)" x="5.68434189e-14" y="2.84217094e-14" width="86.9871" height="83.8581" rx="1"></rect>
            </g>
            <polygon id="路径" fill-opacity="0.3" fill="#7FA4D2" fill-rule="nonzero" points="457.881 261.465 469.458 261.465 469.458 249.887"></polygon>
            <rect id="矩形" stroke="#003682" stroke-width="2" fill="#003682" fill-rule="nonzero" x="454.5" y="172.661" width="4.25806" height="14.271" rx="2.12903"></rect>
            <rect id="矩形" stroke="#003682" stroke-width="2" fill="#003682" fill-rule="nonzero" x="435.1" y="172.661" width="4.25806" height="14.271" rx="2.12903"></rect>
            <rect id="矩形" stroke="#003682" stroke-width="2" fill="#003682" fill-rule="nonzero" x="415.7" y="172.661" width="4.25806" height="14.271" rx="2.12903"></rect>
            <rect id="矩形" stroke="#003682" stroke-width="2" fill="#003682" fill-rule="nonzero" x="396.3" y="172.661" width="4.25806" height="14.271" rx="2.12903"></rect>
            <path d="M428.749,238.149 C425.656,238.149 423.269,236.883 421.589,234.349 C419.936,231.789 419.109,228.029 419.109,223.069 C419.109,218.109 419.936,214.363 421.589,211.829 C423.269,209.269 425.642,207.989 428.709,207.989 C431.776,207.989 434.202,209.296 435.989,211.909 C437.802,214.496 438.709,218.216 438.709,223.069 C438.709,227.923 437.802,231.656 435.989,234.269 C434.176,236.856 431.762,238.149 428.749,238.149 Z M428.829,210.709 C426.616,210.709 424.896,211.776 423.669,213.909 C422.442,216.043 421.829,219.123 421.829,223.149 C421.829,231.416 424.162,235.549 428.829,235.549 C431.096,235.549 432.856,234.469 434.109,232.309 C435.389,230.123 436.029,227.043 436.029,223.069 C436.029,219.096 435.376,216.043 434.069,213.909 C432.762,211.776 431.016,210.709 428.829,210.709 Z" id="形状" fill="#003682" fill-rule="nonzero"></path>
            <circle id="椭圆形" fill="#FF6633" fill-rule="nonzero" cx="285.661" cy="58.6615" r="6"></circle>
            <circle id="椭圆形" fill="#FF6633" fill-rule="nonzero" cx="158.661" cy="184.661" r="6"></circle>
            <circle id="椭圆形" fill="#FF6633" fill-rule="nonzero" cx="286.661" cy="312.661" r="6"></circle>
        </g>
    </g>
</svg>