<?xml version="1.0" encoding="UTF-8"?>
<svg width="570px" height="370px" viewBox="0 0 570 370" version="1.1" xmlns="http://www.w3.org/2000/svg" xmlns:xlink="http://www.w3.org/1999/xlink">
    <title>2T超强全面防护</title>
    <g id="页面-1" stroke="none" stroke-width="1" fill="none" fill-rule="evenodd">
        <g id="2T超强全面防护">
            <rect id="矩形" fill-opacity="0" fill="#FFFFFF" fill-rule="nonzero" x="0" y="0" width="570" height="370"></rect>
            <line x1="343.5" y1="160" x2="415" y2="160" id="路径" stroke="#003682" stroke-linecap="round" stroke-linejoin="round" stroke-dasharray="1"></line>
            <line x1="343.5" y1="180" x2="415" y2="180" id="路径" stroke="#003682" stroke-linecap="round" stroke-linejoin="round" stroke-dasharray="1"></line>
            <line x1="343.5" y1="190" x2="415" y2="190" id="路径" stroke="#003682" stroke-linecap="round" stroke-linejoin="round" stroke-dasharray="1"></line>
            <line x1="343.5" y1="210" x2="415" y2="210" id="路径" stroke="#003682" stroke-linecap="round" stroke-linejoin="round" stroke-dasharray="1"></line>
            <path d="M107,246.5 C123,221.645 171,235.812 199,214" id="路径" stroke="#003682" stroke-linecap="round" stroke-linejoin="round" stroke-dasharray="1"></path>
            <path d="M106,228 C134,208 167,228 200,208" id="路径" stroke="#FF6633" stroke-linecap="round" stroke-linejoin="round" stroke-dasharray="1"></path>
            <path d="M102,192.5 C120.5,207.5 158.831,209.889 199,201" id="路径" stroke="#003682" stroke-linecap="round" stroke-linejoin="round" stroke-dasharray="1"></path>
            <path d="M107.5,185 C143,183 200,195 200,195" id="路径" stroke="#FF6633" stroke-linecap="round" stroke-linejoin="round" stroke-dasharray="1"></path>
            <path d="M107,173.5 C131.5,160.5 136,179 199,186" id="路径" stroke="#FF6633" stroke-linecap="round" stroke-linejoin="round" stroke-dasharray="1"></path>
            <path d="M103.5,137.5 C135.5,136.479 143,171.383 199,177" id="路径" stroke="#003682" stroke-linecap="round" stroke-linejoin="round" stroke-dasharray="1"></path>
            <path d="M106,117.5 C161,109.5 142.255,151.424 198,157" id="路径" stroke="#003682" stroke-linecap="round" stroke-linejoin="round" stroke-dasharray="1"></path>
            <path d="M107.5,127.5 C140.033,125.473 160.492,166.479 199,168" id="路径" stroke="#FF6633" stroke-linecap="round" stroke-linejoin="round" stroke-dasharray="1"></path>
            <rect id="矩形" stroke="#2E527C" stroke-width="2" x="200.5" y="108" width="142" height="154"></rect>
            <rect id="矩形" fill="#F0F3F6" fill-rule="nonzero" x="201.5" y="127" width="140" height="116"></rect>
            <rect id="矩形" stroke="#2E527C" stroke-width="2" x="200.5" y="244" width="53" height="18"></rect>
            <rect id="矩形" stroke="#2E527C" stroke-width="2" x="200.5" y="108" width="32" height="18"></rect>
            <rect id="矩形" stroke="#2E527C" stroke-width="2" x="311.5" y="244" width="31" height="18"></rect>
            <rect id="矩形" stroke="#2E527C" stroke-width="2" x="291.5" y="108" width="51" height="18"></rect>
            <rect id="矩形" stroke="#2E527C" stroke-width="2" x="253.5" y="244" width="58" height="18"></rect>
            <rect id="矩形" stroke="#2E527C" stroke-width="2" x="232.5" y="108" width="59" height="18"></rect>
            <rect id="矩形" fill="#7FA5D2" fill-rule="nonzero" transform="translate(268.000000, 190.000000) scale(-1, 1) translate(-268.000000, -190.000000) " x="235.5" y="157" width="65" height="66"></rect>
            <path d="M307.5,147 C307.5,146.448 307.052,146 306.5,146 L230.5,146 C229.948,146 229.5,146.448 229.5,147 L229.5,169 C229.5,169.552 229.948,170 230.5,170 L306.5,170 C307.052,170 307.5,169.552 307.5,169 L307.5,147 Z" id="路径" fill="#FFFFFF" fill-rule="nonzero"></path>
            <path d="M305.5,148 L305.5,168 L231.5,168 L231.5,148 L305.5,148 Z M306.5,146 C307.052,146 307.5,146.448 307.5,147 L307.5,169 C307.5,169.552 307.052,170 306.5,170 L230.5,170 C229.948,170 229.5,169.552 229.5,169 L229.5,147 C229.5,146.448 229.948,146 230.5,146 L306.5,146 Z" id="形状" fill="#003682"></path>
            <path d="M307.5,174 C307.5,173.448 307.052,173 306.5,173 L230.5,173 C229.948,173 229.5,173.448 229.5,174 L229.5,196 C229.5,196.552 229.948,197 230.5,197 L306.5,197 C307.052,197 307.5,196.552 307.5,196 L307.5,174 Z" id="路径" fill="#FFFFFF" fill-rule="nonzero"></path>
            <path d="M305.5,175 L305.5,195 L231.5,195 L231.5,175 L305.5,175 Z M306.5,173 C307.052,173 307.5,173.448 307.5,174 L307.5,196 C307.5,196.552 307.052,197 306.5,197 L230.5,197 C229.948,197 229.5,196.552 229.5,196 L229.5,174 C229.5,173.448 229.948,173 230.5,173 L306.5,173 Z" id="形状" fill="#003682"></path>
            <path d="M297.5,180 L294.5,180 L294.5,190 L297.5,190 L297.5,180 Z M289.5,180 L286.5,180 L286.5,190 L289.5,190 L289.5,180 Z M279.5,180 L282.5,180 L282.5,190 L279.5,190 L279.5,180 Z" id="形状" fill="#003682"></path>
            <path d="M307.5,201 C307.5,200.448 307.052,200 306.5,200 L230.5,200 C229.948,200 229.5,200.448 229.5,201 L229.5,223 C229.5,223.552 229.948,224 230.5,224 L306.5,224 C307.052,224 307.5,223.552 307.5,223 L307.5,201 Z" id="路径" fill="#FFFFFF" fill-rule="nonzero"></path>
            <path d="M305.5,202 L305.5,222 L231.5,222 L231.5,202 L305.5,202 Z M306.5,200 C307.052,200 307.5,200.448 307.5,201 L307.5,223 C307.5,223.552 307.052,224 306.5,224 L230.5,224 C229.948,224 229.5,223.552 229.5,223 L229.5,201 C229.5,200.448 229.948,200 230.5,200 L306.5,200 Z" id="形状" fill="#003682"></path>
            <path d="M297.5,207 L294.5,207 L294.5,217 L297.5,217 L297.5,207 Z M289.5,207 L286.5,207 L286.5,217 L289.5,217 L289.5,207 Z M279.5,207 L282.5,207 L282.5,217 L279.5,217 L279.5,207 Z" id="形状" fill="#003682"></path>
            <path d="M297.5,153 L294.5,153 L294.5,163 L297.5,163 L297.5,153 Z M289.5,153 L286.5,153 L286.5,163 L289.5,163 L289.5,153 Z M279.5,153 L282.5,153 L282.5,163 L279.5,163 L279.5,153 Z" id="形状" fill="#003682"></path>
            <rect id="矩形" fill="#7FA5D2" fill-rule="nonzero" transform="translate(454.000000, 189.000000) scale(-1, 1) translate(-454.000000, -189.000000) " x="421.5" y="156" width="65" height="66"></rect>
            <path d="M493.5,146 C493.5,145.448 493.052,145 492.5,145 L416.5,145 C415.948,145 415.5,145.448 415.5,146 L415.5,168 C415.5,168.552 415.948,169 416.5,169 L492.5,169 C493.052,169 493.5,168.552 493.5,168 L493.5,146 Z" id="路径" fill="#FFFFFF" fill-rule="nonzero"></path>
            <path d="M491.5,147 L491.5,167 L417.5,167 L417.5,147 L491.5,147 Z M492.5,145 C493.052,145 493.5,145.448 493.5,146 L493.5,168 C493.5,168.552 493.052,169 492.5,169 L416.5,169 C415.948,169 415.5,168.552 415.5,168 L415.5,146 C415.5,145.448 415.948,145 416.5,145 L492.5,145 Z" id="形状" fill="#003682"></path>
            <path d="M493.5,173 C493.5,172.448 493.052,172 492.5,172 L416.5,172 C415.948,172 415.5,172.448 415.5,173 L415.5,195 C415.5,195.552 415.948,196 416.5,196 L492.5,196 C493.052,196 493.5,195.552 493.5,195 L493.5,173 Z" id="路径" fill="#FFFFFF" fill-rule="nonzero"></path>
            <path d="M491.5,174 L491.5,194 L417.5,194 L417.5,174 L491.5,174 Z M492.5,172 C493.052,172 493.5,172.448 493.5,173 L493.5,195 C493.5,195.552 493.052,196 492.5,196 L416.5,196 C415.948,196 415.5,195.552 415.5,195 L415.5,173 C415.5,172.448 415.948,172 416.5,172 L492.5,172 Z" id="形状" fill="#003682"></path>
            <path d="M483.5,179 L480.5,179 L480.5,189 L483.5,189 L483.5,179 Z M475.5,179 L472.5,179 L472.5,189 L475.5,189 L475.5,179 Z M465.5,179 L468.5,179 L468.5,189 L465.5,189 L465.5,179 Z" id="形状" fill="#003682"></path>
            <path d="M493.5,200 C493.5,199.448 493.052,199 492.5,199 L416.5,199 C415.948,199 415.5,199.448 415.5,200 L415.5,222 C415.5,222.552 415.948,223 416.5,223 L492.5,223 C493.052,223 493.5,222.552 493.5,222 L493.5,200 Z" id="路径" fill="#FFFFFF" fill-rule="nonzero"></path>
            <path d="M491.5,201 L491.5,221 L417.5,221 L417.5,201 L491.5,201 Z M492.5,199 C493.052,199 493.5,199.448 493.5,200 L493.5,222 C493.5,222.552 493.052,223 492.5,223 L416.5,223 C415.948,223 415.5,222.552 415.5,222 L415.5,200 C415.5,199.448 415.948,199 416.5,199 L492.5,199 Z" id="形状" fill="#003682"></path>
            <path d="M483.5,206 L480.5,206 L480.5,216 L483.5,216 L483.5,206 Z M475.5,206 L472.5,206 L472.5,216 L475.5,216 L475.5,206 Z M465.5,206 L468.5,206 L468.5,216 L465.5,216 L465.5,206 Z" id="形状" fill="#003682"></path>
            <path d="M483.5,152 L480.5,152 L480.5,162 L483.5,162 L483.5,152 Z M475.5,152 L472.5,152 L472.5,162 L475.5,162 L475.5,152 Z M465.5,152 L468.5,152 L468.5,162 L465.5,162 L465.5,152 Z" id="形状" fill="#003682"></path>
            <path d="M108.076,135.269 L108.076,118.318 L106.758,117 L82.3677,117 L81.0493,118.318 L81.0493,135.269 L77,135.269 L78.3184,138 L110.807,138 L112.126,135.269 L108.076,135.269 Z M83.6861,135.269 L83.6861,119.731 L105.345,119.731 L105.345,135.269 L83.6861,135.269 Z" id="形状" fill="#003682" fill-rule="nonzero"></path>
            <path d="M108.076,190.269 L108.076,173.318 L106.758,172 L82.3677,172 L81.0493,173.318 L81.0493,190.269 L77,190.269 L78.3184,193 L110.807,193 L112.126,190.269 L108.076,190.269 Z M83.6861,190.269 L83.6861,174.731 L105.345,174.731 L105.345,190.269 L83.6861,190.269 Z" id="形状" fill="#003682" fill-rule="nonzero"></path>
            <path d="M108.076,245.269 L108.076,228.318 L106.758,227 L82.3677,227 L81.0493,228.318 L81.0493,245.269 L77,245.269 L78.3184,248 L110.807,248 L112.126,245.269 L108.076,245.269 Z M83.6861,245.269 L83.6861,229.731 L105.345,229.731 L105.345,245.269 L83.6861,245.269 Z" id="形状" fill="#003682" fill-rule="nonzero"></path>
        </g>
    </g>
</svg>