<svg width="570" height="370" viewBox="0 0 570 370" fill="none" xmlns="http://www.w3.org/2000/svg">
<g clip-path="url(#clip0_469_16705)">
<rect width="570" height="370" fill="white"/>
<rect width="570" height="370" fill="white" fill-opacity="0.01"/>
<rect x="332" y="207" width="147.5" height="89" fill="white" stroke="#003682" stroke-width="2"/>
<path d="M341.562 213.719C341.562 214.841 340.653 215.75 339.531 215.75C338.409 215.75 337.5 214.841 337.5 213.719C337.5 212.597 338.409 211.688 339.531 211.688C340.653 211.688 341.562 212.597 341.562 213.719Z" fill="#003682"/>
<path d="M348.875 213.719C348.875 214.841 347.966 215.75 346.844 215.75C345.722 215.75 344.812 214.841 344.812 213.719C344.812 212.597 345.722 211.688 346.844 211.688C347.966 211.688 348.875 212.597 348.875 213.719Z" fill="#003682"/>
<path d="M354.156 215.75C355.278 215.75 356.188 214.841 356.188 213.719C356.188 212.597 355.278 211.688 354.156 211.688C353.034 211.688 352.125 212.597 352.125 213.719C352.125 214.841 353.034 215.75 354.156 215.75Z" fill="#003682"/>
<rect x="342.219" y="220.959" width="126.75" height="68.25" fill="#7FA5D2" fill-opacity="0.3"/>
<path d="M390.458 263.651C390.791 263.29 391.352 263.29 391.685 263.651C392.029 263.982 392.029 264.556 391.685 264.928L389.513 267.14C389.169 267.501 388.597 267.501 388.266 267.14C387.921 266.788 387.921 266.225 388.266 265.864L390.458 263.651ZM417.791 248.064C417.791 251.147 415.348 253.636 412.333 253.636C409.318 253.636 406.864 251.147 406.864 248.064C406.864 245.003 409.318 242.492 412.333 242.492C415.348 242.492 417.791 244.98 417.791 248.064ZM412.333 244.278C410.285 244.278 408.633 245.958 408.633 248.064C408.633 250.148 410.285 251.828 412.333 251.828C414.371 251.828 416.035 250.148 416.035 248.064C416.035 245.958 414.371 244.278 412.333 244.278ZM392.184 260.387C392.184 259.229 392.247 258.09 392.393 256.932C392.454 256.527 392.496 256.124 392.569 255.719L392.257 255.847C391.54 256.145 390.875 256.581 390.282 257.144C389.69 257.698 388.764 257.665 388.213 257.071C388.109 256.932 388.015 256.815 387.963 256.676C387.049 254.815 386.758 252.721 387.07 250.712C387.382 248.713 388.275 246.83 389.773 245.3C391.124 243.885 392.819 243.003 394.575 242.609C396.073 242.29 397.612 242.332 399.109 242.727L399.378 242.45L399.4 242.408H399.378C402.539 239.196 406.366 237.017 410.399 235.911C414.578 234.751 418.986 234.751 423.166 235.911C423.697 236.049 424.081 236.464 424.216 236.974V236.995V237.006C425.328 241.269 425.328 245.768 424.206 250.031C423.125 254.146 420.994 258.08 417.844 261.291L417.75 261.398L417.542 261.589C417.947 263.099 417.979 264.693 417.656 266.225C417.282 268.011 416.408 269.734 415.036 271.127L414.953 271.213C413.476 272.679 411.648 273.584 409.744 273.902C407.758 274.211 405.7 273.912 403.849 272.966C403.142 272.605 402.851 271.691 403.205 270.956C403.267 270.84 403.351 270.712 403.454 270.605C403.995 270.01 404.432 269.319 404.723 268.595L404.848 268.266C404.453 268.341 404.036 268.405 403.642 268.458C402.477 268.618 401.313 268.671 400.148 268.66C399.754 268.66 399.4 268.501 399.13 268.245L392.589 261.567C392.288 261.239 392.142 260.823 392.184 260.387ZM395.282 257.325C395.179 258.176 395.116 259.037 395.096 259.877L400.773 265.693C401.604 265.673 402.436 265.598 403.267 265.491C404.276 265.354 405.295 265.161 406.282 264.864C406.427 264.822 406.593 264.8 406.75 264.811C407.551 264.831 408.195 265.534 408.153 266.363C408.112 267.522 407.863 268.66 407.426 269.755C407.259 270.127 407.072 270.521 406.864 270.893C407.655 271.074 408.476 271.095 409.287 270.936C410.607 270.712 411.875 270.105 412.915 269.075L412.967 269.01C413.934 268.044 414.527 266.831 414.787 265.587C415.077 264.29 414.964 262.929 414.496 261.674C414.287 261.142 414.433 260.473 414.89 260.058L415.348 259.611L415.712 259.229L415.764 259.175C418.571 256.326 420.442 252.87 421.378 249.266C422.293 245.789 422.377 242.1 421.586 238.579C418.155 237.792 414.578 237.878 411.169 238.802C407.613 239.782 404.244 241.705 401.458 244.555L401.052 244.958H401.042L400.648 245.406C400.252 245.884 399.608 246.087 399.015 245.842C397.788 245.364 396.447 245.277 395.199 245.554C393.973 245.81 392.798 246.437 391.841 247.415V247.405C390.791 248.479 390.167 249.787 389.959 251.19C389.824 251.988 389.834 252.838 390.001 253.658C390.376 253.444 390.75 253.242 391.124 253.082C392.184 252.636 393.286 252.402 394.409 252.328C394.565 252.328 394.743 252.339 394.888 252.402C395.678 252.594 396.115 253.444 395.906 254.231C395.636 255.252 395.428 256.294 395.282 257.325ZM395.864 269.17C396.197 268.82 396.748 268.82 397.092 269.17C397.446 269.522 397.446 270.085 397.092 270.435L394.909 272.669C394.565 273.008 394.014 273.008 393.682 272.669C393.328 272.328 393.328 271.733 393.682 271.404L395.864 269.17ZM393.161 266.395C393.494 266.054 394.045 266.054 394.389 266.395C394.743 266.757 394.743 267.32 394.389 267.672L389.439 272.742C389.096 273.094 388.546 273.094 388.213 272.742C387.849 272.381 387.849 271.817 388.213 271.467L393.161 266.395Z" fill="#003682"/>
<rect x="94.8262" y="293.715" width="59.4286" height="20.9592" transform="rotate(-90 94.8262 293.715)" stroke="#003682" stroke-width="2"/>
<rect x="94.8262" y="298" width="68" height="15.602" transform="rotate(-90 94.8262 298)" fill="#003682" stroke="#003682" stroke-width="2"/>
<path d="M90 297.572L90 230.429L114.49 230.429L114.49 297.572L90 297.572Z" fill="white"/>
<path fill-rule="evenodd" clip-rule="evenodd" d="M92 232.429L92 295.572L112.49 295.572L112.49 232.429L92 232.429ZM90 297.572L114.49 297.572L114.49 230.429L90 230.429L90 297.572Z" fill="#003682"/>
<path d="M102.627 258.643L102.627 242.928" stroke="#003682" stroke-width="2" stroke-linecap="round"/>
<ellipse cx="102.628" cy="238.642" rx="1.78571" ry="1.91327" transform="rotate(-90 102.628 238.642)" fill="#FF6633"/>
<path fill-rule="evenodd" clip-rule="evenodd" d="M96.6504 288.08L96.6504 285.144L99.7966 285.144L99.7966 288.08L96.6504 288.08ZM96.6504 282.795L96.6504 279.858L99.7966 279.858L99.7966 282.795L96.6504 282.795ZM96.6504 274.572L96.6504 277.509L99.7966 277.509L99.7966 274.572L96.6504 274.572ZM96.6504 272.223L96.6504 269.286L99.7966 269.286L99.7966 272.223L96.6504 272.223ZM96.6504 264.001L96.6504 266.937L99.7966 266.937L99.7966 264.001L96.6504 264.001Z" fill="#7FA4D2" fill-opacity="0.3"/>
<path fill-rule="evenodd" clip-rule="evenodd" d="M101.055 290.428L101.055 287.491L104.201 287.491L104.201 290.428L101.055 290.428ZM101.055 285.142L101.055 282.205L104.201 282.205L104.201 285.142L101.055 285.142ZM101.055 276.92L101.055 279.856L104.201 279.856L104.201 276.92L101.055 276.92ZM101.055 274.571L101.055 271.634L104.201 271.634L104.201 274.571L101.055 274.571ZM101.055 266.348L101.055 269.285L104.201 269.285L104.201 266.348L101.055 266.348Z" fill="#7FA4D2" fill-opacity="0.3"/>
<path fill-rule="evenodd" clip-rule="evenodd" d="M105.459 288.08L105.459 285.144L108.605 285.144L108.605 288.08L105.459 288.08ZM105.459 282.795L105.459 279.858L108.605 279.858L108.605 282.795L105.459 282.795ZM105.459 274.572L105.459 277.509L108.605 277.509L108.605 274.572L105.459 274.572ZM105.459 272.223L105.459 269.286L108.605 269.286L108.605 272.223L105.459 272.223ZM105.459 264.001L105.459 266.937L108.605 266.937L108.605 264.001L105.459 264.001Z" fill="#7FA4D2" fill-opacity="0.3"/>
<rect x="133.611" y="293.715" width="59.4286" height="20.9592" transform="rotate(-90 133.611 293.715)" stroke="#003682" stroke-width="2"/>
<rect x="133.611" y="298" width="68" height="15.602" transform="rotate(-90 133.611 298)" fill="#003682" stroke="#003682" stroke-width="2"/>
<path d="M128.785 297.572L128.785 230.429L153.275 230.429L153.275 297.572L128.785 297.572Z" fill="white"/>
<path fill-rule="evenodd" clip-rule="evenodd" d="M130.785 232.429L130.785 295.572L151.275 295.572L151.275 232.429L130.785 232.429ZM128.785 297.572L153.275 297.572L153.275 230.429L128.785 230.429L128.785 297.572Z" fill="#003682"/>
<path d="M141.412 258.643L141.412 242.928" stroke="#003682" stroke-width="2" stroke-linecap="round"/>
<ellipse cx="141.413" cy="238.642" rx="1.78571" ry="1.91327" transform="rotate(-90 141.413 238.642)" fill="#FF6633"/>
<path fill-rule="evenodd" clip-rule="evenodd" d="M135.436 288.08L135.436 285.144L138.582 285.144L138.582 288.08L135.436 288.08ZM135.436 282.795L135.436 279.858L138.582 279.858L138.582 282.795L135.436 282.795ZM135.436 274.572L135.436 277.509L138.582 277.509L138.582 274.572L135.436 274.572ZM135.436 272.223L135.436 269.286L138.582 269.286L138.582 272.223L135.436 272.223ZM135.436 264.001L135.436 266.937L138.582 266.937L138.582 264.001L135.436 264.001Z" fill="#7FA4D2" fill-opacity="0.3"/>
<path fill-rule="evenodd" clip-rule="evenodd" d="M139.84 290.428L139.84 287.491L142.986 287.491L142.986 290.428L139.84 290.428ZM139.84 285.142L139.84 282.205L142.986 282.205L142.986 285.142L139.84 285.142ZM139.84 276.92L139.84 279.856L142.986 279.856L142.986 276.92L139.84 276.92ZM139.84 274.571L139.84 271.634L142.986 271.634L142.986 274.571L139.84 274.571ZM139.84 266.348L139.84 269.285L142.986 269.285L142.986 266.348L139.84 266.348Z" fill="#7FA4D2" fill-opacity="0.3"/>
<path fill-rule="evenodd" clip-rule="evenodd" d="M144.244 288.08L144.244 285.144L147.39 285.144L147.39 288.08L144.244 288.08ZM144.244 282.795L144.244 279.858L147.39 279.858L147.39 282.795L144.244 282.795ZM144.244 274.572L144.244 277.509L147.39 277.509L147.39 274.572L144.244 274.572ZM144.244 272.223L144.244 269.286L147.39 269.286L147.39 272.223L144.244 272.223ZM144.244 264.001L144.244 266.937L147.39 266.937L147.39 264.001L144.244 264.001Z" fill="#7FA4D2" fill-opacity="0.3"/>
<rect x="172.398" y="293.715" width="59.4286" height="20.9592" transform="rotate(-90 172.398 293.715)" stroke="#003682" stroke-width="2"/>
<rect x="172.398" y="298" width="68" height="15.602" transform="rotate(-90 172.398 298)" fill="#003682" stroke="#003682" stroke-width="2"/>
<path d="M167.572 297.572L167.572 230.429L192.062 230.429L192.062 297.572L167.572 297.572Z" fill="white"/>
<path fill-rule="evenodd" clip-rule="evenodd" d="M169.572 232.429L169.572 295.572L190.062 295.572L190.062 232.429L169.572 232.429ZM167.572 297.572L192.062 297.572L192.062 230.429L167.572 230.429L167.572 297.572Z" fill="#003682"/>
<path d="M180.199 258.643L180.199 242.928" stroke="#003682" stroke-width="2" stroke-linecap="round"/>
<ellipse cx="180.2" cy="238.642" rx="1.78571" ry="1.91327" transform="rotate(-90 180.2 238.642)" fill="#FF6633"/>
<path fill-rule="evenodd" clip-rule="evenodd" d="M174.223 288.08L174.223 285.144L177.369 285.144L177.369 288.08L174.223 288.08ZM174.223 282.795L174.223 279.858L177.369 279.858L177.369 282.795L174.223 282.795ZM174.223 274.572L174.223 277.509L177.369 277.509L177.369 274.572L174.223 274.572ZM174.223 272.223L174.223 269.286L177.369 269.286L177.369 272.223L174.223 272.223ZM174.223 264.001L174.223 266.937L177.369 266.937L177.369 264.001L174.223 264.001Z" fill="#7FA4D2" fill-opacity="0.3"/>
<path fill-rule="evenodd" clip-rule="evenodd" d="M178.627 290.428L178.627 287.491L181.773 287.491L181.773 290.428L178.627 290.428ZM178.627 285.142L178.627 282.205L181.773 282.205L181.773 285.142L178.627 285.142ZM178.627 276.92L178.627 279.856L181.773 279.856L181.773 276.92L178.627 276.92ZM178.627 274.571L178.627 271.634L181.773 271.634L181.773 274.571L178.627 274.571ZM178.627 266.348L178.627 269.285L181.773 269.285L181.773 266.348L178.627 266.348Z" fill="#7FA4D2" fill-opacity="0.3"/>
<path fill-rule="evenodd" clip-rule="evenodd" d="M183.031 288.08L183.031 285.144L186.178 285.144L186.178 288.08L183.031 288.08ZM183.031 282.795L183.031 279.858L186.178 279.858L186.178 282.795L183.031 282.795ZM183.031 274.572L183.031 277.509L186.178 277.509L186.178 274.572L183.031 274.572ZM183.031 272.223L183.031 269.286L186.178 269.286L186.178 272.223L183.031 272.223ZM183.031 264.001L183.031 266.937L186.178 266.937L186.178 264.001L183.031 264.001Z" fill="#7FA4D2" fill-opacity="0.3"/>
<path d="M104 228L104 214L182 214L182 228" stroke="#003682"/>
<path d="M141 230L141 135L403 135L403 208.5" stroke="#003682"/>
<circle cx="264.499" cy="137.499" r="53.3333" stroke="#FF6633"/>
<circle cx="264.5" cy="137.5" r="66" stroke="#FF6633"/>
<circle cx="264.817" cy="135.283" r="44.2833" fill="white" stroke="#003682" stroke-width="2"/>
<path d="M289.791 135.283C289.791 147.646 286.915 158.788 282.316 166.806C277.701 174.851 271.477 179.567 264.817 179.567C258.156 179.567 251.932 174.851 247.317 166.806C242.718 158.788 239.842 147.646 239.842 135.283C239.842 122.921 242.718 111.778 247.317 103.761C251.932 95.7156 258.156 91 264.817 91C271.477 91 277.701 95.7156 282.316 103.761C286.915 111.778 289.791 122.921 289.791 135.283Z" stroke="#003682" stroke-width="2"/>
<path d="M264.816 160.258C252.454 160.258 241.311 157.382 233.294 152.783C225.249 148.168 220.533 141.944 220.533 135.283C220.533 128.622 225.249 122.399 233.294 117.784C241.311 113.185 252.454 110.309 264.816 110.309C277.179 110.309 288.321 113.185 296.339 117.784C304.384 122.399 309.1 128.622 309.1 135.283C309.1 141.944 304.384 148.168 296.339 152.783C288.321 157.382 277.179 160.258 264.816 160.258Z" stroke="#003682" stroke-width="2"/>
<path fill-rule="evenodd" clip-rule="evenodd" d="M264.816 109.309C264.922 109.309 265.027 109.309 265.133 109.309V134.333H290.785C290.789 134.649 290.791 134.966 290.791 135.283C290.791 143.487 289.539 151.182 287.351 157.818C280.8 159.978 273.218 161.226 265.133 161.257V134.967H238.842C238.874 126.881 240.121 119.299 242.281 112.748C248.917 110.56 256.612 109.309 264.816 109.309Z" fill="#7FA4D2" fill-opacity="0.3"/>
<path fill-rule="evenodd" clip-rule="evenodd" d="M220.166 130.93C219.75 132.346 219.533 133.8 219.533 135.284C219.533 144.923 228.688 153.337 242.282 157.819C246.764 171.413 255.177 180.567 264.817 180.567C264.922 180.567 265.028 180.566 265.133 180.564V161.258C265.028 161.258 264.922 161.259 264.817 161.259C256.612 161.259 248.918 160.007 242.282 157.819C240.121 151.268 238.874 143.686 238.842 135.601H220.166V130.93ZM265.133 109.31C273.219 109.342 280.801 110.589 287.352 112.749C289.54 119.385 290.791 127.08 290.791 135.284C290.791 135.326 290.791 135.368 290.791 135.411C290.791 135.474 290.791 135.537 290.791 135.601H310.097C310.099 135.495 310.1 135.39 310.1 135.284C310.1 125.644 300.946 117.231 287.352 112.749C282.918 99.3039 274.64 90.2019 265.133 90.0039V109.31Z" fill="#7FA4D2" fill-opacity="0.3"/>
<path d="M265.047 90.459V179.646" stroke="#003682" stroke-width="2" stroke-linecap="round"/>
<path d="M309.641 135.053L220.453 135.053" stroke="#003682" stroke-width="2" stroke-linecap="round"/>
<path fill-rule="evenodd" clip-rule="evenodd" d="M286.666 116.6C288.765 116.6 290.466 114.899 290.466 112.8C290.466 110.701 288.765 109 286.666 109C284.567 109 282.866 110.701 282.866 112.8C282.866 114.899 284.567 116.6 286.666 116.6ZM286.666 159.033C288.765 159.033 290.466 157.332 290.466 155.233C290.466 153.135 288.765 151.433 286.666 151.433C284.567 151.433 282.866 153.135 282.866 155.233C282.866 157.332 284.567 159.033 286.666 159.033ZM246.766 155.233C246.766 157.332 245.065 159.033 242.966 159.033C240.867 159.033 239.166 157.332 239.166 155.233C239.166 153.135 240.867 151.433 242.966 151.433C245.065 151.433 246.766 153.135 246.766 155.233ZM242.966 116.6C245.065 116.6 246.766 114.899 246.766 112.8C246.766 110.701 245.065 109 242.966 109C240.867 109 239.166 110.701 239.166 112.8C239.166 114.899 240.867 116.6 242.966 116.6Z" fill="#FF6633"/>
</g>
<defs>
<clipPath id="clip0_469_16705">
<rect width="570" height="370" fill="white"/>
</clipPath>
</defs>
</svg>
