<?xml version="1.0" encoding="UTF-8"?>
<svg width="570px" height="370px" viewBox="0 0 570 370" version="1.1" xmlns="http://www.w3.org/2000/svg" xmlns:xlink="http://www.w3.org/1999/xlink">
    <title>可视化爬虫Bot流量</title>
    <g id="页面-1" stroke="none" stroke-width="1" fill="none" fill-rule="evenodd">
        <g id="可视化爬虫Bot流量">
            <rect id="矩形" fill-opacity="0" fill="#FFFFFF" fill-rule="nonzero" x="0" y="0" width="570" height="370"></rect>
            <circle id="椭圆形" fill-opacity="0.3" fill="#7FA4D2" fill-rule="nonzero" transform="translate(123.000000, 190.000000) scale(-1, 1) translate(-123.000000, -190.000000) " cx="123" cy="190" r="28"></circle>
            <circle id="椭圆形" stroke="#003682" stroke-width="2" transform="translate(123.000000, 190.000000) scale(-1, 1) translate(-123.000000, -190.000000) " cx="123" cy="190" r="34"></circle>
            <path d="M117.222,191.444 L112.889,191.444 L112.889,190 L117.222,190 L117.222,186.967 C115.489,186.533 113.611,185.233 113.611,182.056 L115.056,182.056 C115.056,185.522 118.233,185.667 118.667,185.667 L128.778,185.667 C128.922,185.667 132.389,185.667 132.389,182.056 L133.833,182.056 C133.833,185.089 131.956,186.389 130.222,186.967 L130.222,190 L134.556,190 L134.556,191.444 L130.222,191.444 L130.222,193.611 C130.222,194.478 130.078,195.2 129.789,195.922 C131.522,196.211 133.833,197.511 133.833,200.833 L132.389,200.833 C132.389,197.8 130.078,197.367 129.067,197.222 C127.911,198.956 125.889,200.111 123.722,200.111 C121.411,200.111 119.533,198.956 118.378,197.222 C117.511,197.367 115.056,197.8 115.056,200.833 L113.611,200.833 C113.611,197.511 115.922,196.211 117.656,195.922 C117.367,195.2 117.222,194.478 117.222,193.611 L117.222,191.444 Z M123.722,198.667 C126.467,198.667 128.778,196.356 128.778,193.611 L128.778,187.111 L124.445,187.111 L124.445,195.778 L123,195.778 L123,187.111 L118.667,187.111 L118.667,193.611 C118.667,196.356 120.978,198.667 123.722,198.667 Z" id="形状" fill="#003682" fill-rule="nonzero"></path>
            <path d="M123.722,179.167 C126.467,179.167 128.778,181.478 128.778,184.222 L118.667,184.222 C118.667,181.478 120.978,179.167 123.722,179.167 Z M127.044,182.778 C126.467,181.478 125.167,180.611 123.722,180.611 C122.278,180.611 120.978,181.478 120.4,182.778 L127.044,182.778 Z" id="形状" fill="#003682" fill-rule="nonzero"></path>
            <circle id="椭圆形" fill-opacity="0.3" fill="#7FA4D2" fill-rule="nonzero" transform="translate(448.000000, 190.000000) scale(-1, 1) translate(-448.000000, -190.000000) " cx="448" cy="190" r="28"></circle>
            <circle id="椭圆形" stroke="#003682" stroke-width="2" transform="translate(448.000000, 190.000000) scale(-1, 1) translate(-448.000000, -190.000000) " cx="448" cy="190" r="34"></circle>
            <path d="M442.222,191.444 L437.889,191.444 L437.889,190 L442.222,190 L442.222,186.967 C440.489,186.533 438.611,185.233 438.611,182.056 L440.056,182.056 C440.056,185.522 443.233,185.667 443.667,185.667 L453.778,185.667 C453.922,185.667 457.389,185.667 457.389,182.056 L458.833,182.056 C458.833,185.089 456.956,186.389 455.222,186.967 L455.222,190 L459.556,190 L459.556,191.444 L455.222,191.444 L455.222,193.611 C455.222,194.478 455.078,195.2 454.789,195.922 C456.522,196.211 458.833,197.511 458.833,200.833 L457.389,200.833 C457.389,197.8 455.078,197.367 454.067,197.222 C452.911,198.956 450.889,200.111 448.722,200.111 C446.411,200.111 444.533,198.956 443.378,197.222 C442.511,197.367 440.056,197.8 440.056,200.833 L438.611,200.833 C438.611,197.511 440.922,196.211 442.656,195.922 C442.367,195.2 442.222,194.478 442.222,193.611 L442.222,191.444 Z M448.722,198.667 C451.467,198.667 453.778,196.356 453.778,193.611 L453.778,187.111 L449.445,187.111 L449.445,195.778 L448,195.778 L448,187.111 L443.667,187.111 L443.667,193.611 C443.667,196.356 445.978,198.667 448.722,198.667 Z" id="形状" fill="#003682" fill-rule="nonzero"></path>
            <path d="M448.722,179.167 C451.467,179.167 453.778,181.478 453.778,184.222 L443.667,184.222 C443.667,181.478 445.978,179.167 448.722,179.167 Z M452.044,182.778 C451.467,181.478 450.167,180.611 448.722,180.611 C447.278,180.611 445.978,181.478 445.4,182.778 L452.044,182.778 Z" id="形状" fill="#003682" fill-rule="nonzero"></path>
            <path d="M123.5,152 C135,110 190.5,40.5 264.5,100.5" id="路径" stroke-opacity="0.5" stroke="#003682" stroke-linecap="round" stroke-dasharray="4"></path>
            <path d="M133,154.5 C142,135.5 159,97 194.5,90 C229.779,83.0435 245,97 254.5,104" id="路径" stroke-opacity="0.5" stroke="#003682" stroke-linecap="round" stroke-dasharray="4"></path>
            <path d="M272,98.0001 C258.667,82.3334 221.7,55.1001 180.5,71.5001 C129,92.0001 117,143.5 115,154" id="路径" stroke-opacity="0.5" stroke="#003682" stroke-linecap="round" stroke-dasharray="4"></path>
            <path d="M115,229 C123.07,252.632 151.105,300.496 198.684,302.892 C231.526,304.49 256.579,287.914 265,279.427" id="路径" stroke-opacity="0.5" stroke="#003682" stroke-linecap="round" stroke-dasharray="4"></path>
            <path d="M141.5,158.5 C148.333,140.167 167,103 202.5,98 C228,94.4084 237,102.5 243,108" id="路径" stroke-opacity="0.5" stroke="#003682" stroke-linecap="round" stroke-dasharray="4"></path>
            <path d="M369.563,187.176 C369.563,233.993 331.824,271.937 285.282,271.937 C238.739,271.937 201,233.993 201,187.176 C201,140.358 238.739,102.415 285.282,102.415 C331.824,102.415 369.563,140.358 369.563,187.176 Z" id="路径" stroke="#003682" stroke-width="2" fill="#FFFFFF" fill-rule="nonzero"></path>
            <path d="M285.761,105.248 C241.042,105.248 204.791,141.499 204.791,186.217 C204.791,230.936 241.042,267.187 285.761,267.187 C330.479,267.187 366.73,230.936 366.73,186.217 C366.73,141.499 330.479,105.248 285.761,105.248 Z M292.676,110.984 C292.676,110.984 297.748,108.042 299.513,109.807 C301.278,111.572 307.455,109.513 323.34,118.927 C323.34,118.927 319.842,122.657 319.077,122.434 C319.523,123.245 320.896,125.718 321.869,127.246 C323.046,129.094 323.34,129.222 323.34,129.222 L322.163,130.987 L323.34,131.281 C322.163,130.987 321.575,134.517 319.872,135.106 C318.169,135.694 320.398,138.93 319.81,139.518 C319.222,140.106 320.104,145.401 319.81,148.52 C319.516,151.639 318.34,148.931 316.869,148.52 C315.398,148.109 313.044,147.166 312.843,146.284 C312.642,145.401 312.162,142.754 312.75,141.283 C313.338,139.812 310.985,138.341 309.809,137.263 C308.632,136.184 303.925,137.459 303.043,137.263 C302.16,137.066 301.572,134.517 301.572,132.164 C301.572,129.81 305.69,132.458 308.008,132.164 C310.326,131.87 310.691,126.005 310.691,126.005 L310.558,121.019 C309.607,120.639 309.452,120.146 310.985,119.515 C310.985,119.515 305.984,118.338 304.808,120.985 C303.631,123.633 303.043,123.376 302.749,126.005 C302.455,128.634 297.846,126.318 296.767,126.005 C295.689,125.692 292.747,122.162 292.747,122.162 C293.629,120.103 294.218,118.632 294.218,118.632 L292.676,115.102 L292.676,110.984 Z M246.269,138.342 C246.768,137.676 250.093,131.87 254.211,133.635 C258.33,135.4 260.977,131.576 260.977,131.576 C260.977,131.576 267.024,125.398 267.383,126.281 L267.743,127.163 C267.383,126.281 272.744,124.81 273.332,127.752 C273.92,130.693 277.45,132.173 277.45,132.173 C277.45,132.173 275.391,135.694 275.979,138.342 C276.568,140.989 278.627,141.577 277.45,143.931 C276.273,146.284 273.92,147.167 273.332,148.343 C272.744,149.52 267.906,144.519 267.383,142.754 C266.86,140.989 264.276,139.224 262.038,139.813 C259.8,140.401 253.917,141.872 252.74,141.283 C251.563,140.695 244.89,140.181 246.269,138.342 Z M325.105,224.827 C322.752,231.004 317.163,241.594 314.221,244.536 C311.28,247.478 307.749,253.067 305.102,255.126 C302.455,257.185 302.455,261.009 299.219,260.715 C295.983,260.421 292.159,251.302 293.041,248.949 C293.924,246.595 276.862,242.477 276.862,242.477 C276.862,242.477 269.508,241.594 268.037,227.474 C267.775,224.962 267.607,223.178 267.507,221.94 C265.296,220.963 256.626,217.374 251.269,218.649 C245.092,220.12 243.621,216.687 238.326,215.903 L229.207,207.471 C229.207,207.471 214.204,190.115 215.969,187.173 C217.734,184.232 217.734,176.289 218.028,174.524 C218.323,172.759 215.681,161.581 215.825,160.11 C215.969,158.639 213.616,153.05 213.616,153.05 C213.616,153.05 219.205,141.283 220.088,141.283 C220.97,141.283 224.206,151.285 227.442,151.579 C230.678,151.873 239.503,151.285 240.827,149.814 C242.15,148.343 243.327,146.578 244.798,146.578 C246.269,146.578 246.269,145.696 248.916,146.872 C251.564,148.049 254.505,149.814 255.682,151.579 C256.859,153.344 254.799,156.874 260.977,156.874 C267.154,156.874 267.154,155.403 268.037,159.522 C268.92,163.64 269.965,172.759 267.383,173.348 C264.801,173.936 257.153,182.891 257.741,185.768 C258.33,188.644 258.33,193.057 257.153,195.704 C255.976,198.352 255.094,199.234 250.681,198.94 C246.269,198.646 242.538,196.292 241.315,199.822 C240.091,203.352 237.75,211.305 241.856,210.502 C241.856,210.502 248.328,208.532 250.681,210.502 C253.035,212.472 268.037,218.943 268.037,218.943 C268.037,218.943 281.569,204.235 302.749,213.648 L306.279,216.002 L312.162,214.723 C312.162,214.723 319.811,212.471 322.458,213.06 L325.106,213.648 L325.106,212.471 C325.105,212.472 327.459,218.649 325.105,224.827 Z M359.523,191.292 C359.523,191.292 357.758,188.644 357.758,185.86 C357.758,183.075 355.699,183.349 355.699,179.819 C355.699,176.289 353.051,177.466 351.286,175.113 C349.522,172.76 348.639,175.995 347.168,176.289 C345.697,176.584 345.991,178.937 344.52,181.732 C343.05,184.526 339.226,186.291 338.049,185.768 C336.872,185.245 332.459,181.291 332.165,180.408 C331.871,179.525 325.988,174.524 326.151,173.348 C326.315,172.171 324.517,165.993 323.34,163.052 C322.164,160.11 323.34,148.521 323.34,148.521 C321.575,147.521 339.52,140.107 337.166,139.224 C334.813,138.342 333.636,128.634 333.636,128.634 L342.2,133.047 C350.763,137.459 361.582,172.465 361.582,172.465 L361.582,182.467 L359.523,191.292 Z" id="形状" fill-opacity="0.3" fill="#7FA4D2" fill-rule="nonzero"></path>
            <path d="M336.861,119.155 C341.601,117.338 352.902,114.793 360.182,119.155 C369.283,124.607 357.338,171.954 296.192,225.327 C247.639,267.708 225.33,268.174 220.088,263.034 C220.008,262.956 219.93,262.887 219.843,262.816 C217.651,261.045 214.189,254.811 217.981,238.834" id="路径" stroke="#003682" stroke-width="2"></path>
            <path d="M234.425,118.775 C233.836,118.183 218.038,113.739 213.799,120.257 C208.432,128.51 217.349,167.685 273.963,217.085 C319.253,256.604 342.563,262.89 349.635,259.798 C354.35,257.737 351.992,246.762 349.635,242.318" id="路径" stroke="#003682" stroke-width="2"></path>
            <path d="M305.617,104.676 C304.729,102.012 296.442,89.2843 288.644,91.4071 C279.882,93.7927 261.027,131.714 276.194,205.554 C288.23,264.154 304.452,277.184 311.228,276.411 C311.339,276.399 311.444,276.393 311.555,276.387 C314.166,276.265 319.873,272.238 324.265,262.143" id="路径" stroke="#003682" stroke-width="2"></path>
            <circle id="椭圆形" stroke="#FF6633" stroke-width="2" fill="#FF6633" fill-rule="nonzero" cx="275.22" cy="113.393" r="6.18665"></circle>
            <circle id="椭圆形" stroke="#FF6633" stroke-width="2" fill="#FF6633" fill-rule="nonzero" cx="349.962" cy="161.304" r="6.18665"></circle>
            <path d="M232.538,165.137 C232.538,168.62 229.918,171.323 226.83,171.323 C223.742,171.323 221.123,168.62 221.123,165.137 C221.123,161.654 223.742,158.95 226.83,158.95 C229.918,158.95 232.538,161.654 232.538,165.137 Z" id="路径" stroke="#FF6633" stroke-width="2" fill="#FF6633" fill-rule="nonzero"></path>
            <path d="M229.663,263.354 C229.663,266.443 226.959,269.062 223.476,269.062 C219.994,269.062 217.29,266.443 217.29,263.354 C217.29,260.266 219.994,257.647 223.476,257.647 C226.959,257.647 229.663,260.266 229.663,263.354 Z" id="路径" stroke="#FF6633" stroke-width="2" fill="#FF6633" fill-rule="nonzero"></path>
            <circle id="椭圆形" stroke="#FF6633" stroke-width="2" fill="#FF6633" fill-rule="nonzero" cx="360.023" cy="120.58" r="5.70754"></circle>
            <path d="M122.5,228 C132,249 155.6,293.1 198,295.5 C225.2,297.9 247.667,284.167 255.5,277" id="路径" stroke-opacity="0.5" stroke="#003682" stroke-linecap="round" stroke-dasharray="4"></path>
            <path d="M130.5,228 C139.5,245.167 164.4,280.9 192,286.5 C219.6,292.1 239.5,279.5 245.5,272.5" id="路径" stroke-opacity="0.5" stroke="#003682" stroke-linecap="round" stroke-dasharray="4"></path>
            <path d="M139,224.5 C146.833,239.5 169,271.2 195,278 C211.8,281.2 230,272.667 237,268" id="路径" stroke-opacity="0.5" stroke="#003682" stroke-linecap="round" stroke-dasharray="4"></path>
            <path d="M451.5,151.577 C440,109.577 384.5,40.0766 310.5,100.077" id="路径" stroke-opacity="0.5" stroke="#003682" stroke-linecap="round" stroke-dasharray="4"></path>
            <path d="M442,154.077 C433,135.077 416,96.5766 380.5,89.5766 C345.221,82.62 330,96.5765 320.5,103.577" id="路径" stroke-opacity="0.5" stroke="#003682" stroke-linecap="round" stroke-dasharray="4"></path>
            <path d="M303,97.5766 C316.333,81.9099 353.3,54.6766 394.5,71.0766 C446,91.5766 458,143.077 460,153.577" id="路径" stroke-opacity="0.5" stroke="#003682" stroke-linecap="round" stroke-dasharray="4"></path>
            <path d="M460,228.577 C451.93,252.209 423.895,300.072 376.316,302.469 C343.474,304.067 318.421,287.491 310,279.003" id="路径" stroke-opacity="0.5" stroke="#003682" stroke-linecap="round" stroke-dasharray="4"></path>
            <path d="M433.5,158.077 C426.667,139.743 408,102.577 372.5,97.5765 C347,93.9849 338,102.077 332,107.577" id="路径" stroke-opacity="0.5" stroke="#003682" stroke-linecap="round" stroke-dasharray="4"></path>
            <path d="M452.5,227.577 C443,248.577 419.4,292.677 377,295.077 C349.8,297.477 327.333,283.743 319.5,276.577" id="路径" stroke-opacity="0.5" stroke="#003682" stroke-linecap="round" stroke-dasharray="4"></path>
            <path d="M444.5,227.577 C435.5,244.743 410.6,280.477 383,286.077 C355.4,291.677 335.5,279.077 329.5,272.077" id="路径" stroke-opacity="0.5" stroke="#003682" stroke-linecap="round" stroke-dasharray="4"></path>
            <path d="M436,224.077 C428.167,239.077 406,270.777 380,277.577 C363.2,280.777 345,272.243 338,267.577" id="路径" stroke-opacity="0.5" stroke="#003682" stroke-linecap="round" stroke-dasharray="4"></path>
        </g>
    </g>
</svg>