<?xml version="1.0" encoding="UTF-8"?>
<svg width="570px" height="370px" viewBox="0 0 570 370" version="1.1" xmlns="http://www.w3.org/2000/svg" xmlns:xlink="http://www.w3.org/1999/xlink">
    <title>域名劫持实时监控</title>
    <defs>
        <rect id="path-1" x="0" y="0" width="119" height="79.087" rx="1"></rect>
        <rect id="path-3" x="0" y="0" width="119" height="14.0435" rx="1"></rect>
        <path d="M2.84217094e-14,0.5 C2.84217094e-14,0.296 0.165,0.13 0.369,0.13 L113.456,0.13 C113.66,0.13 113.826,0.296 113.826,0.5 C113.826,0.704 113.66,0.87 113.456,0.87 L0.369,0.87 C0.165,0.87 2.84217094e-14,0.704 2.84217094e-14,0.5 Z" id="path-5"></path>
        <rect id="path-7" x="0" y="0" width="118.869" height="79" rx="1"></rect>
        <rect id="path-9" x="0" y="0" width="118.869" height="14.028" rx="1"></rect>
        <path d="M0,0.5005 C0,0.2965 0.166,0.1305 0.37,0.1305 L113.332,0.1305 C113.536,0.1305 113.701,0.2965 113.701,0.5005 C113.701,0.7045 113.536,0.8695 113.332,0.8695 L0.37,0.8695 C0.166,0.8695 0,0.7045 0,0.5005 Z" id="path-11"></path>
        <rect id="path-13" x="0" y="0" width="135.421" height="90" rx="1"></rect>
        <rect id="path-15" x="0" y="0" width="135.421" height="15.9813" rx="1"></rect>
        <path d="M0,0.4995 C0,0.2675 0.1883,0.0795 0.4206,0.0795 L129.1123,0.0795 C129.3443,0.0795 129.5323,0.2675 129.5323,0.4995 C129.5323,0.7315 129.3443,0.9205 129.1123,0.9205 L0.4206,0.9205 C0.1883,0.9205 0,0.7315 0,0.4995 Z" id="path-17"></path>
    </defs>
    <g id="页面-1" stroke="none" stroke-width="1" fill="none" fill-rule="evenodd">
        <g id="域名劫持实时监控">
            <rect id="矩形" fill-opacity="0" fill="#FFFFFF" fill-rule="nonzero" x="0" y="0" width="570" height="370"></rect>
            <circle id="椭圆形" stroke="#FF6633" cx="290" cy="185" r="61.9024"></circle>
            <circle id="椭圆形" stroke="#FF6633" cx="290" cy="185" r="96.0061"></circle>
            <circle id="椭圆形" stroke="#FF6633" cx="290" cy="185" r="77.8659"></circle>
            <circle id="椭圆形" stroke="#FF6633" cx="290" cy="185" r="118.5"></circle>
            <path d="M282.018,136.384 C270.771,137.956 247.044,148.284 242.11,177.018" id="路径" stroke="#FF6633" stroke-linecap="round"></path>
            <path d="M282.018,233.616 C270.771,232.044 247.044,221.716 242.11,192.982" id="路径" stroke="#FF6633" stroke-linecap="round"></path>
            <path d="M297.982,136.747 C309.229,138.319 332.956,148.647 337.89,177.381" id="路径" stroke="#FF6633" stroke-linecap="round"></path>
            <path d="M297.982,233.253 C309.229,231.681 332.956,221.353 337.89,192.619" id="路径" stroke="#FF6633" stroke-linecap="round"></path>
            <circle id="椭圆形" stroke="#FF6633" cx="290" cy="184.637" r="38.6829"></circle>
            <line x1="290" y1="145.454" x2="290" y2="131.305" id="路径" stroke="#FF6633" stroke-linecap="round"></line>
            <line x1="290" y1="237.97" x2="290" y2="223.82" id="路径" stroke="#FF6633" stroke-linecap="round"></line>
            <line x1="343.332" y1="184.637" x2="329.183" y2="184.637" id="路径" stroke="#FF6633" stroke-linecap="round"></line>
            <line x1="250.454" y1="184.637" x2="236.305" y2="184.637" id="路径" stroke="#FF6633" stroke-linecap="round"></line>
            <g id="Clipped" transform="translate(106.000000, 78.000000)">
                <mask id="mask-2" fill="white">
                    <use xlink:href="#path-1"></use>
                </mask>
                <g id="矩形"></g>
                <rect id="矩形" stroke="#003682" stroke-width="4" fill="#FFFFFF" fill-rule="nonzero" mask="url(#mask-2)" x="0" y="0" width="119" height="79.087" rx="1"></rect>
            </g>
            <g id="Clipped" transform="translate(106.000000, 78.000000)">
                <mask id="mask-4" fill="white">
                    <use xlink:href="#path-3"></use>
                </mask>
                <g id="矩形"></g>
                <rect id="矩形" stroke="#003682" stroke-width="4" fill="#FFFFFF" fill-rule="nonzero" mask="url(#mask-4)" x="0" y="0" width="119" height="14.0435" rx="1"></rect>
            </g>
            <path d="M111.174,149.326 C111.174,149.122 111.339,148.956 111.543,148.956 L224.63,148.956 C224.834,148.956 225,149.122 225,149.326 C225,149.53 224.834,149.696 224.63,149.696 L111.543,149.696 C111.339,149.696 111.174,149.53 111.174,149.326 Z" id="路径" fill="#FFFFFF" fill-rule="nonzero"></path>
            <g id="Clipped" transform="translate(111.174000, 148.826000)">
                <mask id="mask-6" fill="white">
                    <use xlink:href="#path-5"></use>
                </mask>
                <g id="路径"></g>
                <path d="M0.369,2.13 L113.456,2.13 L113.456,-1.87 L0.369,-1.87 L0.369,2.13 Z M113.456,-1.13 L0.369,-1.13 L0.369,2.87 L113.456,2.87 L113.456,-1.13 Z M0.369,-1.13 C1.27,-1.13 2,-0.4 2,0.5 L-2,0.5 C-2,1.809 -0.939,2.87 0.369,2.87 L0.369,-1.13 Z M111.826,0.5 C111.826,-0.4 112.556,-1.13 113.456,-1.13 L113.456,2.87 C114.765,2.87 115.826,1.809 115.826,0.5 L111.826,0.5 Z M113.456,2.13 C112.556,2.13 111.826,1.401 111.826,0.5 L115.826,0.5 C115.826,-0.809 114.765,-1.87 113.456,-1.87 L113.456,2.13 Z M0.369,-1.87 C-0.939,-1.87 -2,-0.809 -2,0.5 L2,0.5 C2,1.401 1.27,2.13 0.369,2.13 L0.369,-1.87 Z" id="形状" fill="#003682" fill-rule="nonzero" mask="url(#mask-6)"></path>
            </g>
            <path d="M114.408,84.144 C114.408,85.037 113.684,85.7609 112.791,85.7609 C111.898,85.7609 111.174,85.037 111.174,84.144 C111.174,83.2511 111.898,82.5272 112.791,82.5272 C113.684,82.5272 114.408,83.2511 114.408,84.144 Z" id="路径" fill="#003682" fill-rule="nonzero"></path>
            <path d="M120.228,84.144 C120.228,85.037 119.504,85.7609 118.611,85.7609 C117.718,85.7609 116.994,85.037 116.994,84.144 C116.994,83.2511 117.718,82.5272 118.611,82.5272 C119.504,82.5272 120.228,83.2511 120.228,84.144 Z" id="路径" fill="#003682" fill-rule="nonzero"></path>
            <path d="M124.432,85.7609 C125.325,85.7609 126.049,85.037 126.049,84.144 C126.049,83.2511 125.325,82.5272 124.432,82.5272 C123.539,82.5272 122.815,83.2511 122.815,84.144 C122.815,85.037 123.539,85.7609 124.432,85.7609 Z" id="路径" fill="#003682" fill-rule="nonzero"></path>
            <rect id="矩形" fill-opacity="0.2" fill="#FF6633" fill-rule="nonzero" x="114.87" y="114.957" width="11.087" height="34"></rect>
            <rect id="矩形" fill-opacity="0.2" fill="#FF6633" fill-rule="nonzero" x="142.957" y="126.783" width="11.087" height="22.1739"></rect>
            <rect id="矩形" fill-opacity="0.2" fill="#FF6633" fill-rule="nonzero" x="171.043" y="116.435" width="11.087" height="32.5217"></rect>
            <rect id="矩形" fill-opacity="0.2" fill="#FF6633" fill-rule="nonzero" x="196.174" y="116.435" width="11.087" height="32.5217"></rect>
            <rect id="矩形" fill-opacity="0.3" fill="#7FA4D2" fill-rule="nonzero" x="125.957" y="144.522" width="11.087" height="4.43478"></rect>
            <rect id="矩形" fill-opacity="0.3" fill="#7FA4D2" fill-rule="nonzero" x="154.043" y="137.13" width="11.087" height="11.8261"></rect>
            <rect id="矩形" fill-opacity="0.3" fill="#7FA4D2" fill-rule="nonzero" x="182.13" y="141.565" width="11.087" height="7.3913"></rect>
            <rect id="矩形" fill-opacity="0.3" fill="#7FA4D2" fill-rule="nonzero" x="207.261" y="141.565" width="11.087" height="7.3913"></rect>
            <rect id="矩形" fill-opacity="0.3" fill="#7FA4D2" fill-rule="nonzero" x="114.87" y="98.6956" width="2.95652" height="2.95652"></rect>
            <rect id="矩形" fill-opacity="0.2" fill="#FF6633" fill-rule="nonzero" x="123" y="98.6956" width="2.95652" height="2.95652"></rect>
            <g id="Clipped" transform="translate(359.000000, 101.000000)">
                <mask id="mask-8" fill="white">
                    <use xlink:href="#path-7"></use>
                </mask>
                <g id="矩形"></g>
                <rect id="矩形" stroke="#003682" stroke-width="4" fill="#FFFFFF" fill-rule="nonzero" mask="url(#mask-8)" x="0" y="0" width="118.869" height="79" rx="1"></rect>
            </g>
            <g id="Clipped" transform="translate(359.000000, 101.000000)">
                <mask id="mask-10" fill="white">
                    <use xlink:href="#path-9"></use>
                </mask>
                <g id="矩形"></g>
                <rect id="矩形" stroke="#003682" stroke-width="4" fill="#FFFFFF" fill-rule="nonzero" mask="url(#mask-10)" x="0" y="0" width="118.869" height="14.028" rx="1"></rect>
            </g>
            <path d="M364.168,172.248 C364.168,172.044 364.334,171.878 364.538,171.878 L477.5,171.878 C477.704,171.878 477.869,172.044 477.869,172.248 C477.869,172.452 477.704,172.617 477.5,172.617 L364.538,172.617 C364.334,172.617 364.168,172.452 364.168,172.248 Z" id="路径" fill="#FFFFFF" fill-rule="nonzero"></path>
            <g id="Clipped" transform="translate(364.168000, 171.747500)">
                <mask id="mask-12" fill="white">
                    <use xlink:href="#path-11"></use>
                </mask>
                <g id="路径"></g>
                <path d="M0.37,2.1305 L113.332,2.1305 L113.332,-1.8695 L0.37,-1.8695 L0.37,2.1305 Z M113.332,-1.1305 L0.37,-1.1305 L0.37,2.8695 L113.332,2.8695 L113.332,-1.1305 Z M0.37,-1.1305 C1.27,-1.1305 2,-0.4005 2,0.5005 L-2,0.5005 C-2,1.8085 -0.939,2.8695 0.37,2.8695 L0.37,-1.1305 Z M111.701,0.5005 C111.701,-0.4005 112.432,-1.1305 113.332,-1.1305 L113.332,2.8695 C114.641,2.8695 115.701,1.8085 115.701,0.5005 L111.701,0.5005 Z M113.332,2.1305 C112.432,2.1305 111.701,1.4005 111.701,0.5005 L115.701,0.5005 C115.701,-0.8085 114.641,-1.8695 113.332,-1.8695 L113.332,2.1305 Z M0.37,-1.8695 C-0.939,-1.8695 -2,-0.8085 -2,0.5005 L2,0.5005 C2,1.4005 1.27,2.1305 0.37,2.1305 L0.37,-1.8695 Z" id="形状" fill="#003682" fill-rule="nonzero" mask="url(#mask-12)"></path>
            </g>
            <path d="M374.707,141.806 C371.088,143.128 368.172,143.642 367.167,143.734 L367.167,169.91 L464.429,169.91 L464.429,144.56 C463.675,144.285 462.544,143.734 458.774,141.806 C455.004,139.878 456.512,142.081 452.742,142.632 C448.972,143.183 449.349,145.662 445.202,148.691 C441.056,151.721 435.124,141.068 434.37,138.039 C433.616,135.009 432.485,135.836 428.715,138.039 C424.945,140.242 424.191,136.662 422.683,135.285 C421.175,133.908 413.483,133.819 408.959,138.776 C404.436,143.734 401.095,147.314 399.211,143.734 C397.326,140.153 396.572,140.98 393.933,142.632 C391.294,144.285 391.294,143.734 387.901,141.806 C384.508,139.878 382.246,138.501 380.738,138.776 C379.23,139.052 379.23,140.153 374.707,141.806 Z" id="路径" fill-opacity="0.2" fill="#FF6633" fill-rule="nonzero"></path>
            <rect id="矩形" fill-opacity="0.3" fill="#7FA4D2" fill-rule="nonzero" x="366.64" y="118.827" width="2.54666" height="2.54666"></rect>
            <rect id="矩形" fill-opacity="0.2" fill="#FF6633" fill-rule="nonzero" x="373.643" y="118.827" width="2.54666" height="2.54666"></rect>
            <path d="M381.645,150.002 C375.705,148.814 369.765,155.447 367.538,158.912 L367.538,169.91 L464.428,169.91 L464.428,146.29 C462.201,145.547 457.375,144.211 455.89,144.805 C454.034,145.547 451.436,150.002 449.951,152.229 C448.466,154.457 443.269,154.086 442.155,152.229 C441.041,150.373 431.389,145.547 427.306,143.32 C423.222,141.093 417.654,144.805 414.684,145.547 C411.714,146.29 409.116,150.744 406.517,152.229 C403.918,153.714 401.691,154.086 397.608,154.086 C393.524,154.086 389.069,151.487 381.645,150.002 Z" id="路径" fill-opacity="0.3" fill="#7FA4D2" fill-rule="nonzero"></path>
            <path d="M367.399,107.137 C367.399,108.029 366.676,108.752 365.784,108.752 C364.892,108.752 364.168,108.029 364.168,107.137 C364.168,106.245 364.892,105.522 365.784,105.522 C366.676,105.522 367.399,106.245 367.399,107.137 Z" id="路径" fill="#003682" fill-rule="nonzero"></path>
            <path d="M373.213,107.137 C373.213,108.029 372.49,108.752 371.598,108.752 C370.706,108.752 369.983,108.029 369.983,107.137 C369.983,106.245 370.706,105.522 371.598,105.522 C372.49,105.522 373.213,106.245 373.213,107.137 Z" id="路径" fill="#003682" fill-rule="nonzero"></path>
            <path d="M377.412,108.752 C378.304,108.752 379.027,108.029 379.027,107.137 C379.027,106.245 378.304,105.522 377.412,105.522 C376.52,105.522 375.797,106.245 375.797,107.137 C375.797,108.029 376.52,108.752 377.412,108.752 Z" id="路径" fill="#003682" fill-rule="nonzero"></path>
            <g id="Clipped" transform="translate(92.000000, 224.000000)">
                <mask id="mask-14" fill="white">
                    <use xlink:href="#path-13"></use>
                </mask>
                <g id="矩形"></g>
                <rect id="矩形" stroke="#003682" stroke-width="4" fill="#FFFFFF" fill-rule="nonzero" mask="url(#mask-14)" x="0" y="0" width="135.421" height="90" rx="1"></rect>
            </g>
            <polyline id="路径" stroke="#D9E4F2" stroke-linecap="round" points="97.7798 288.404 107.275 279.734 132.459 285.101 139.89 272.716 168.789 271.89 174.982 264.459 191.083 266.11 206.358 253.725 215.027 252.899"></polyline>
            <polyline id="路径" stroke="#FFE0D6" stroke-linecap="round" points="99.4312 292.532 120.899 288.404 129.982 279.734 154.339 287.165 164.661 269 175.394 270.239 186.128 264.046 196.037 264.046 206.358 260.743 216.266 262.394"></polyline>
            <g id="Clipped" transform="translate(92.000000, 224.000000)">
                <mask id="mask-16" fill="white">
                    <use xlink:href="#path-15"></use>
                </mask>
                <g id="矩形"></g>
                <rect id="矩形" stroke="#003682" stroke-width="4" fill="#FFFFFF" fill-rule="nonzero" mask="url(#mask-16)" x="0" y="0" width="135.421" height="15.9813" rx="1"></rect>
            </g>
            <path d="M97.8877,305.168 C97.8877,304.936 98.076,304.748 98.3083,304.748 L227,304.748 C227.232,304.748 227.42,304.936 227.42,305.168 C227.42,305.4 227.232,305.589 227,305.589 L98.3083,305.589 C98.076,305.589 97.8877,305.4 97.8877,305.168 Z" id="路径" fill="#FFFFFF" fill-rule="nonzero"></path>
            <g id="Clipped" transform="translate(97.887700, 304.668500)">
                <mask id="mask-18" fill="white">
                    <use xlink:href="#path-17"></use>
                </mask>
                <g id="路径"></g>
                <path d="M0.4206,2.0795 L129.1123,2.0795 L129.1123,-1.9205 L0.4206,-1.9205 L0.4206,2.0795 Z M129.1123,-1.0795 L0.4206,-1.0795 L0.4206,2.9205 L129.1123,2.9205 L129.1123,-1.0795 Z M0.4206,-1.0795 C1.2928,-1.0795 2,-0.3725 2,0.4995 L-2,0.4995 C-2,1.8365 -0.9163,2.9205 0.4206,2.9205 L0.4206,-1.0795 Z M127.5323,0.4995 C127.5323,-0.3725 128.2403,-1.0795 129.1123,-1.0795 L129.1123,2.9205 C130.4493,2.9205 131.5323,1.8365 131.5323,0.4995 L127.5323,0.4995 Z M129.1123,2.0795 C128.2403,2.0795 127.5323,1.3725 127.5323,0.4995 L131.5323,0.4995 C131.5323,-0.8375 130.4493,-1.9205 129.1123,-1.9205 L129.1123,2.0795 Z M0.4206,-1.9205 C-0.9163,-1.9205 -2,-0.8375 -2,0.4995 L2,0.4995 C2,1.3725 1.2929,2.0795 0.4206,2.0795 L0.4206,-1.9205 Z" id="形状" fill="#003682" fill-rule="nonzero" mask="url(#mask-18)"></path>
            </g>
            <path d="M101.568,230.992 C101.568,232.008 100.744,232.832 99.7276,232.832 C98.7115,232.832 97.8877,232.008 97.8877,230.992 C97.8877,229.976 98.7115,229.152 99.7276,229.152 C100.744,229.152 101.568,229.976 101.568,230.992 Z" id="路径" fill="#003682" fill-rule="nonzero"></path>
            <path d="M108.191,230.992 C108.191,232.008 107.368,232.832 106.351,232.832 C105.335,232.832 104.512,232.008 104.512,230.992 C104.512,229.976 105.335,229.152 106.351,229.152 C107.368,229.152 108.191,229.976 108.191,230.992 Z" id="路径" fill="#003682" fill-rule="nonzero"></path>
            <path d="M112.975,232.832 C113.991,232.832 114.815,232.008 114.815,230.992 C114.815,229.976 113.991,229.152 112.975,229.152 C111.959,229.152 111.135,229.976 111.135,230.992 C111.135,232.008 111.959,232.832 112.975,232.832 Z" id="路径" fill="#003682" fill-rule="nonzero"></path>
            <line x1="101.908" y1="249.596" x2="107.688" y2="249.596" id="路径" stroke="#D9E4F2" stroke-linecap="round"></line>
            <line x1="114.293" y1="249.596" x2="120.486" y2="249.596" id="路径" stroke="#FFE0D6" stroke-linecap="round"></line>
            <circle id="椭圆形" stroke="#003682" stroke-width="2" cx="286.5" cy="182.5" r="14.5"></circle>
            <line x1="297.5" y1="193" x2="309" y2="203.5" id="路径" stroke="#003682" stroke-width="2" stroke-linecap="round"></line>
            <polyline id="路径" stroke="#003682" stroke-width="2" stroke-linecap="round" points="276 183 279.5 183 283.5 177 289.5 188.5 294 183 298 183"></polyline>
        </g>
    </g>
</svg>