<?xml version="1.0" encoding="UTF-8"?>
<svg width="570px" height="370px" viewBox="0 0 570 370" version="1.1" xmlns="http://www.w3.org/2000/svg" xmlns:xlink="http://www.w3.org/1999/xlink">
    <title>已安装SSL证书的服务器（网站）</title>
    <defs>
        <path d="M0.500020929,4.32302093 C0.0220209288,4.59902093 -0.141979071,5.21002093 0.134020929,5.68902093 L9.96202093,22.7110209 C10.1680209,23.0680209 10.6270209,22.8380209 10.7330209,22.4400209 L12.0880209,17.3850209 C12.2310209,16.8520209 12.7790209,16.5350209 13.3130209,16.6780209 L18.3660209,18.0320209 C18.7430209,18.1330209 19.1440209,17.8610209 18.9480209,17.5220209 L9.12102093,0.500020929 C8.84402093,0.0220209288 8.23302093,-0.141979071 7.75502093,0.134020929 L0.500020929,4.32302093 Z" id="path-1"></path>
        <path d="M18.4990712,4.32302093 C18.9770712,4.59902093 19.1410712,5.21002093 18.8650712,5.68902093 L9.03707123,22.7110209 C8.83107123,23.0680209 8.37307123,22.8380209 8.26607123,22.4400209 L6.91207123,17.3850209 C6.76907123,16.8520209 6.22007123,16.5350209 5.68707123,16.6780209 L0.633071227,18.0320209 C0.256071227,18.1330209 -0.143928773,17.8610209 0.051071227,17.5220209 L9.87907123,0.500020929 C10.1550712,0.0220209288 10.7660712,-0.141979071 11.2450712,0.134020929 L18.4990712,4.32302093 Z" id="path-3"></path>
        <path d="M20.3455,1.17225 C18.7835,-0.39075 16.2505,-0.39075 14.6885,1.17225 L12.1035,3.75725 L7.7565,3.75725 C5.5475,3.75725 3.7565,5.54825 3.7565,7.75725 L3.7565,12.10325 L1.1715,14.68925 C-0.3905,16.25125 -0.3905,18.78325 1.1715,20.34625 L3.7565,22.93125 L3.7565,27.27725 C3.7565,29.48625 5.5475,31.27725 7.7565,31.27725 L12.1025,31.27725 L14.6885,33.86325 C16.2505,35.42525 18.7835,35.42525 20.3455,33.86325 L22.9305,31.27725 L27.2765,31.27725 C29.4865,31.27725 31.2765,29.48625 31.2765,27.27725 L31.2765,22.93125 L33.8625,20.34625 C35.4245,18.78325 35.4245,16.25125 33.8625,14.68925 L31.2765,12.10325 L31.2765,7.75725 C31.2765,5.54825 29.4865,3.75725 27.2765,3.75725 L22.9305,3.75725 L20.3455,1.17225 Z" id="path-5"></path>
    </defs>
    <g id="页面-1" stroke="none" stroke-width="1" fill="none" fill-rule="evenodd">
        <g id="已安装SSL证书的服务器（网站）">
            <rect id="矩形" fill-opacity="0" fill="#FFFFFF" fill-rule="nonzero" x="0" y="0" width="570" height="370"></rect>
            <path d="M161,171 L166.774,161 L155.226,161 L161,171 Z M408,171 L413.773,161 L402.226,161 L408,171 Z M162,162 L162,117 L160,117 L160,162 L162,162 Z M167,112 L402,112 L402,110 L167,110 L167,112 Z M407,117 L407,162 L409,162 L409,117 L407,117 Z M402,112 C404.761,112 407,114.239 407,117 L409,117 C409,113.134 405.866,110 402,110 L402,112 Z M162,117 C162,114.239 164.239,112 167,112 L167,110 C163.134,110 160,113.134 160,117 L162,117 Z" id="形状" fill="#003682" fill-rule="nonzero"></path>
            <rect id="矩形" fill="#7FA5D2" fill-rule="nonzero" transform="translate(281.500000, 114.500000) scale(-1, 1) translate(-281.500000, -114.500000) " x="249" y="96" width="65" height="37"></rect>
            <path d="M321,86 C321,85.4477 320.552,85 320,85 L244,85 C243.448,85 243,85.4477 243,86 L243,108 C243,108.552 243.448,109 244,109 L320,109 C320.552,109 321,108.552 321,108 L321,86 Z" id="路径" fill="#FFFFFF" fill-rule="nonzero"></path>
            <path d="M319,87 L319,107 L245,107 L245,87 L319,87 Z M320,85 C320.552,85 321,85.4477 321,86 L321,108 C321,108.552 320.552,109 320,109 L244,109 C243.448,109 243,108.552 243,108 L243,86 C243,85.4477 243.448,85 244,85 L320,85 Z" id="形状" fill="#003682"></path>
            <path d="M321,113 C321,112.448 320.552,112 320,112 L244,112 C243.448,112 243,112.448 243,113 L243,135 C243,135.552 243.448,136 244,136 L320,136 C320.552,136 321,135.552 321,135 L321,113 Z" id="路径" fill="#FFFFFF" fill-rule="nonzero"></path>
            <path d="M319,114 L319,134 L245,134 L245,114 L319,114 Z M320,112 C320.552,112 321,112.448 321,113 L321,135 C321,135.552 320.552,136 320,136 L244,136 C243.448,136 243,135.552 243,135 L243,113 C243,112.448 243.448,112 244,112 L320,112 Z" id="形状" fill="#003682"></path>
            <path d="M267,120.5 C267,119.672 266.328,119 265.5,119 C264.672,119 264,119.672 264,120.5 L264,121.5 C264,122.328 264.672,123 265.5,123 C266.328,123 267,122.328 267,121.5 L267,120.5 Z M259,120.5 C259,119.672 258.328,119 257.5,119 C256.672,119 256,119.672 256,120.5 L256,121.5 C256,122.328 256.672,123 257.5,123 C258.328,123 259,122.328 259,121.5 L259,120.5 Z M250.5,119 C251.328,119 252,119.672 252,120.5 L252,121.5 C252,122.328 251.328,123 250.5,123 C249.672,123 249,122.328 249,121.5 L249,120.5 C249,119.672 249.672,119 250.5,119 Z" id="形状" fill="#FF6633"></path>
            <path d="M267,93.5 C267,92.6716 266.328,92 265.5,92 C264.672,92 264,92.6716 264,93.5 L264,94.5 C264,95.3284 264.672,96 265.5,96 C266.328,96 267,95.3284 267,94.5 L267,93.5 Z M259,93.5 C259,92.6716 258.328,92 257.5,92 C256.672,92 256,92.6716 256,93.5 L256,94.5 C256,95.3284 256.672,96 257.5,96 C258.328,96 259,95.3284 259,94.5 L259,93.5 Z M250.5,92 C251.328,92 252,92.6716 252,93.5 L252,94.5 C252,95.3284 251.328,96 250.5,96 C249.672,96 249,95.3284 249,94.5 L249,93.5 C249,92.6716 249.672,92 250.5,92 Z" id="形状" fill="#003682"></path>
            <path d="M310.068,123.577 L310.083,123.565 L310.097,123.552 C310.15,123.503 310.21,123.474 310.316,123.474 L310.361,123.474 L310.373,123.475 C310.404,123.477 310.449,123.48 310.505,123.483 C310.617,123.488 310.772,123.494 310.963,123.494 C311.527,123.494 312.704,123.454 313.828,123.182 C314.802,122.953 315.711,122.356 316.33,121.882 C316.652,121.635 316.922,121.401 317.115,121.227 C317.201,121.149 317.271,121.083 317.324,121.034 C317.387,121.007 317.437,121 317.469,121 C317.533,121 317.612,121.024 317.656,121.05 C317.715,121.089 317.838,121.187 318.082,121.381 C318.307,121.559 318.593,121.785 318.911,122.014 C319.518,122.45 320.354,122.983 321.208,123.182 C322.332,123.456 323.471,123.494 324.054,123.494 C324.237,123.494 324.388,123.488 324.497,123.483 C324.552,123.48 324.596,123.477 324.626,123.475 L324.638,123.474 L324.704,123.474 C324.794,123.474 324.872,123.506 324.924,123.553 C324.969,123.595 325,123.668 325,123.723 L325,126.86 C325,132.387 323.113,135.373 321.31,136.994 C319.472,138.646 317.604,138.983 317.535,138.994 L317.499,139 L317.496,139 L317.471,139 L317.447,139 L317.441,139 L317.416,138.995 C317.349,138.984 315.496,138.646 313.67,136.996 C311.879,135.376 310,132.389 310,126.86 L310,123.723 C310,123.672 310.027,123.612 310.068,123.577 Z" id="路径" stroke="#FF6633" stroke-width="2" fill="#FFFFFF" fill-rule="nonzero"></path>
            <path d="M313.5,129.5 L316.146,132.146 C316.342,132.342 316.658,132.342 316.854,132.146 L322,127" id="路径" stroke="#FF6633" stroke-linecap="round"></path>
            <path d="M319.305,270.831 C318.899,270.831 318.569,271.16 318.569,271.566 L318.569,275.726 C318.569,276.357 318.837,276.969 319.406,277.24 C321.126,278.058 324.758,278.8 330.343,278.557 C336.779,278.277 385.617,278.419 412.761,278.539 L412.761,278.557 C413.418,278.554 414.093,278.551 414.785,278.548 C415.476,278.551 416.151,278.554 416.808,278.557 L416.808,278.539 C443.953,278.419 492.791,278.277 499.226,278.557 C504.811,278.8 508.443,278.058 510.163,277.24 C510.733,276.969 511,276.357 511,275.726 L511,271.566 C511,271.16 510.671,270.831 510.264,270.831 L319.305,270.831 Z" id="路径" stroke="#003682" stroke-width="2" fill-opacity="0.3" fill="#7FA4D2" fill-rule="nonzero"></path>
            <path d="M338.702,176.959 C338.702,175.303 340.045,173.959 341.702,173.959 L487.5,173.959 C489.156,173.959 490.5,175.303 490.5,176.959 L490.5,270.566 L338.702,270.566 L338.702,176.959 Z" id="路径" stroke="#003682" stroke-width="2" fill-opacity="0.3" fill="#7FA5D2" fill-rule="nonzero"></path>
            <rect id="矩形" stroke="#003682" stroke-width="2" fill="#FFFFFF" fill-rule="nonzero" x="347.533" y="186.469" width="133.401" height="80.4178"></rect>
            <rect id="矩形" fill-opacity="0.3" fill="#7FA5D2" fill-rule="nonzero" x="356.835" y="198.715" width="114.796" height="50.0394"></rect>
            <path d="M356.835,259.425 C356.835,258.815 357.329,258.321 357.939,258.321 L470.527,258.321 C471.137,258.321 471.631,258.815 471.631,259.425 C471.631,260.034 471.137,260.528 470.527,260.528 L357.939,260.528 C357.329,260.528 356.835,260.034 356.835,259.425 Z" id="路径" fill-opacity="0.3" fill="#7FA5D2" fill-rule="nonzero"></path>
            <circle id="椭圆形" fill="#FF6633" fill-rule="nonzero" cx="367.873" cy="259.057" r="3.67936"></circle>
            <circle id="椭圆形" stroke="#003682" stroke-width="2" fill="#FFFFFF" fill-rule="nonzero" cx="414.233" cy="223.735" r="11.5098"></circle>
            <circle id="椭圆形" fill-opacity="0.3" fill="#7FA5D2" fill-rule="nonzero" cx="414.233" cy="223.735" r="9.56635"></circle>
            <path d="M417.287,222.938 C417.953,223.323 417.953,224.285 417.287,224.67 L413.56,226.822 C412.893,227.206 412.06,226.725 412.06,225.956 L412.06,221.652 C412.06,220.883 412.893,220.402 413.56,220.786 L417.287,222.938 Z" id="路径" fill="#7FA5D2" fill-rule="nonzero"></path>
            <path d="M356.099,192.46 C356.099,193.476 355.275,194.3 354.259,194.3 C353.243,194.3 352.419,193.476 352.419,192.46 C352.419,191.444 353.243,190.62 354.259,190.62 C355.275,190.62 356.099,191.444 356.099,192.46 Z" id="路径" fill="#003682" fill-rule="nonzero"></path>
            <path d="M362.722,192.46 C362.722,193.476 361.898,194.3 360.882,194.3 C359.866,194.3 359.042,193.476 359.042,192.46 C359.042,191.444 359.866,190.62 360.882,190.62 C361.898,190.62 362.722,191.444 362.722,192.46 Z" id="路径" fill="#003682" fill-rule="nonzero"></path>
            <path d="M367.505,194.3 C368.521,194.3 369.345,193.476 369.345,192.46 C369.345,191.444 368.521,190.62 367.505,190.62 C366.489,190.62 365.665,191.444 365.665,192.46 C365.665,193.476 366.489,194.3 367.505,194.3 Z" id="路径" fill="#003682" fill-rule="nonzero"></path>
            <path d="M414.233,179.582 C413.826,179.582 413.497,179.912 413.497,180.318 C413.497,180.725 413.826,181.054 414.233,181.054 L420.12,181.054 C420.526,181.054 420.856,180.725 420.856,180.318 C420.856,179.912 420.526,179.582 420.12,179.582 L414.233,179.582 Z M409.817,179.582 C409.411,179.582 409.082,179.912 409.082,180.318 C409.082,180.725 409.411,181.054 409.817,181.054 L411.289,181.054 C411.696,181.054 412.025,180.725 412.025,180.318 C412.025,179.912 411.696,179.582 411.289,179.582 L409.817,179.582 Z" id="形状" fill="#003682"></path>
            <rect id="矩形" fill="#FFFFFF" fill-rule="nonzero" x="59" y="169" width="155.962" height="107.32" rx="2"></rect>
            <path d="M60,171 C60,170.448 60.4477,170 61,170 L212.962,170 C213.514,170 213.962,170.448 213.962,171 L213.962,275.864 C213.962,276.417 213.514,276.864 212.962,276.864 L61,276.864 C60.4477,276.864 60,276.417 60,275.864 L60,171 Z" id="路径" stroke="#003682" stroke-width="2" fill-opacity="0.3" fill="#7FA5D2" fill-rule="nonzero"></path>
            <rect id="矩形" fill="#FFFFFF" fill-rule="nonzero" x="65" y="276" width="144" height="8" rx="2"></rect>
            <path d="M66,278 C66,277.448 66.4477,277 67,277 L207,277 C207.552,277 208,277.448 208,278 L208,282 C208,282.552 207.552,283 207,283 L67,283 C66.4477,283 66,282.552 66,282 L66,278 Z" id="路径" stroke="#003682" stroke-width="2" fill="#FFFFFF" fill-rule="nonzero"></path>
            <rect id="矩形" stroke="#003682" stroke-width="2" fill="#FFFFFF" fill-rule="nonzero" x="69.2651" y="186.214" width="134.66" height="75.9809"></rect>
            <polygon id="路径" fill-opacity="0.3" fill="#7FA4D2" fill-rule="nonzero" points="82.9351 218.372 187.939 218.372 187.939 222.963 82.9351 222.963"></polygon>
            <polygon id="路径" fill-opacity="0.3" fill="#7FA4D2" fill-rule="nonzero" points="82.9351 230.997 187.939 230.997 187.939 235.587 82.9351 235.587"></polygon>
            <polygon id="路径" fill-opacity="0.3" fill="#7FA4D2" fill-rule="nonzero" points="82.9351 245.917 167.329 245.917 167.329 250.507 82.9351 250.507"></polygon>
            <path d="M89.7735,200.8 C89.7167,200.227 89.4728,199.782 89.0419,199.465 C88.6111,199.148 88.0263,198.989 87.2877,198.989 C86.7858,198.989 86.362,199.06 86.0164,199.202 C85.6707,199.34 85.4056,199.531 85.2209,199.778 C85.041,200.024 84.951,200.303 84.951,200.616 C84.9416,200.876 84.996,201.103 85.1144,201.298 C85.2375,201.492 85.4056,201.66 85.6187,201.802 C85.8317,201.939 86.0779,202.06 86.3573,202.164 C86.6366,202.263 86.9349,202.349 87.2522,202.42 L88.559,202.732 C89.1935,202.874 89.7758,203.064 90.3062,203.3 C90.8365,203.537 91.2957,203.828 91.684,204.174 C92.0723,204.52 92.3729,204.927 92.586,205.396 C92.8038,205.864 92.9151,206.402 92.9198,207.008 C92.9151,207.898 92.6878,208.67 92.238,209.323 C91.7929,209.972 91.149,210.476 90.3062,210.836 C89.4681,211.191 88.4572,211.369 87.2735,211.369 C86.0992,211.369 85.0765,211.189 84.2053,210.829 C83.3388,210.469 82.6617,209.936 82.1741,209.231 C81.6911,208.521 81.4378,207.642 81.4141,206.596 L84.39,206.596 C84.4231,207.084 84.5628,207.491 84.809,207.817 C85.0599,208.139 85.3937,208.383 85.8104,208.549 C86.2318,208.71 86.7077,208.79 87.238,208.79 C87.7588,208.79 88.211,208.715 88.5945,208.563 C88.9828,208.412 89.2834,208.201 89.4965,207.931 C89.7096,207.661 89.8161,207.351 89.8161,207.001 C89.8161,206.674 89.719,206.399 89.5249,206.177 C89.3355,205.954 89.0562,205.765 88.6868,205.609 C88.3223,205.452 87.8748,205.31 87.3445,205.182 L85.7607,204.785 C84.5344,204.486 83.5661,204.02 82.8559,203.386 C82.1456,202.751 81.7929,201.896 81.7976,200.822 C81.7929,199.941 82.0273,199.172 82.5008,198.513 C82.979,197.855 83.6348,197.342 84.4681,196.972 C85.3014,196.603 86.2484,196.418 87.309,196.418 C88.3885,196.418 89.3308,196.603 90.1357,196.972 C90.9454,197.342 91.5751,197.855 92.0249,198.513 C92.4747,199.172 92.7067,199.934 92.7209,200.8 L89.7735,200.8 Z M102.879,200.8 C102.822,200.227 102.578,199.782 102.147,199.465 C101.717,199.148 101.132,198.989 100.393,198.989 C99.8913,198.989 99.4675,199.06 99.1218,199.202 C98.7762,199.34 98.5111,199.531 98.3264,199.778 C98.1465,200.024 98.0565,200.303 98.0565,200.616 C98.047,200.876 98.1015,201.103 98.2199,201.298 C98.343,201.492 98.5111,201.66 98.7241,201.802 C98.9372,201.939 99.1834,202.06 99.4628,202.164 C99.7421,202.263 100.04,202.349 100.358,202.42 L101.664,202.732 C102.299,202.874 102.881,203.064 103.412,203.3 C103.942,203.537 104.401,203.828 104.789,204.174 C105.178,204.52 105.478,204.927 105.691,205.396 C105.909,205.864 106.021,206.402 106.025,207.008 C106.021,207.898 105.793,208.67 105.343,209.323 C104.898,209.972 104.254,210.476 103.412,210.836 C102.574,211.191 101.563,211.369 100.379,211.369 C99.2047,211.369 98.182,211.189 97.3108,210.829 C96.4443,210.469 95.7672,209.936 95.2795,209.231 C94.7966,208.521 94.5432,207.642 94.5196,206.596 L97.4954,206.596 C97.5286,207.084 97.6682,207.491 97.9145,207.817 C98.1654,208.139 98.4992,208.383 98.9159,208.549 C99.3373,208.71 99.8131,208.79 100.343,208.79 C100.864,208.79 101.316,208.715 101.7,208.563 C102.088,208.412 102.389,208.201 102.602,207.931 C102.815,207.661 102.922,207.351 102.922,207.001 C102.922,206.674 102.825,206.399 102.63,206.177 C102.441,205.954 102.162,205.765 101.792,205.609 C101.428,205.452 100.98,205.31 100.45,205.182 L98.8662,204.785 C97.6398,204.486 96.6716,204.02 95.9613,203.386 C95.2511,202.751 94.8984,201.896 94.9031,200.822 C94.8984,199.941 95.1327,199.172 95.6062,198.513 C96.0844,197.855 96.7402,197.342 97.5736,196.972 C98.4069,196.603 99.3539,196.418 100.414,196.418 C101.494,196.418 102.436,196.603 103.241,196.972 C104.051,197.342 104.681,197.855 105.13,198.513 C105.58,199.172 105.812,199.934 105.826,200.8 L102.879,200.8 Z M108.094,211.163 L108.094,196.617 L111.169,196.617 L111.169,208.627 L117.405,208.627 L117.405,211.163 L108.094,211.163 Z" id="形状" fill="#003682" fill-rule="nonzero"></path>
            <path d="M181.23,239.655 C180.752,239.931 180.588,240.542 180.864,241.021 L190.692,258.043 C190.898,258.4 191.357,258.17 191.463,257.772 L192.818,252.717 C192.961,252.184 193.509,251.867 194.043,252.01 L199.096,253.364 C199.473,253.465 199.874,253.193 199.678,252.854 L189.851,235.832 C189.574,235.354 188.963,235.19 188.485,235.466 L181.23,239.655 Z" id="路径" fill="#FFFFFF"></path>
            <g id="Clipped" transform="translate(180.729979, 235.331979)">
                <mask id="mask-2" fill="white">
                    <use xlink:href="#path-1"></use>
                </mask>
                <g id="路径"></g>
                <path d="M9.12102093,0.500020929 L7.38902093,1.50002093 L9.12102093,0.500020929 Z M18.3660209,18.0320209 L18.8840209,16.1000209 L18.3660209,18.0320209 Z M12.0880209,17.3850209 L10.1560209,16.8670209 L12.0880209,17.3850209 Z M1.86602093,4.68902093 C2.14202093,5.16702093 1.97902093,5.77802093 1.50002093,6.05502093 L-0.499979071,2.59002093 C-1.93497907,3.41902093 -2.42597907,5.25402093 -1.59797907,6.68902093 L1.86602093,4.68902093 Z M11.6940209,21.7110209 L1.86602093,4.68902093 L-1.59797907,6.68902093 L8.23002093,23.7110209 L11.6940209,21.7110209 Z M12.6650209,22.9570209 L14.0200209,17.9030209 L10.1560209,16.8670209 L8.80202093,21.9220209 L12.6650209,22.9570209 Z M12.7950209,18.6100209 L17.8480209,19.9640209 L18.8840209,16.1000209 L13.8300209,14.7460209 L12.7950209,18.6100209 Z M7.38902093,1.50002093 L17.2160209,18.5220209 L20.6800209,16.5220209 L10.8530209,-0.499979071 L7.38902093,1.50002093 Z M8.75502093,1.86602093 C8.27602093,2.14202093 7.66502093,1.97902093 7.38902093,1.50002093 L10.8530209,-0.499979071 C10.0240209,-1.93497907 8.18902093,-2.42597907 6.75502093,-1.59797907 L8.75502093,1.86602093 Z M1.50002093,6.05502093 L8.75502093,1.86602093 L6.75502093,-1.59797907 L-0.499979071,2.59002093 L1.50002093,6.05502093 Z M17.8480209,19.9640209 C18.5980209,20.1650209 19.4580209,20.0320209 20.1180209,19.5070209 C20.4660209,19.2300209 20.8110209,18.7930209 20.9450209,18.1940209 C21.0840209,17.5710209 20.9460209,16.9820209 20.6800209,16.5220209 L17.2160209,18.5220209 C17.0480209,18.2320209 16.9340209,17.8040209 17.0410209,17.3240209 C17.1420209,16.8680209 17.4010209,16.5570209 17.6260209,16.3770209 C18.0410209,16.0470209 18.5120209,16.0000209 18.8840209,16.1000209 L17.8480209,19.9640209 Z M14.0200209,17.9030209 C13.8770209,18.4360209 13.3280209,18.7530209 12.7950209,18.6100209 L13.8300209,14.7460209 C12.2300209,14.3170209 10.5850209,15.2670209 10.1560209,16.8670209 L14.0200209,17.9030209 Z M8.23002093,23.7110209 C8.49902093,24.1770209 8.94902093,24.5980209 9.57102093,24.7880209 C10.1680209,24.9700209 10.7250209,24.8790209 11.1380209,24.7110209 C11.9210209,24.3930209 12.4640209,23.7090209 12.6650209,22.9570209 L8.80202093,21.9220209 C8.89602093,21.5690209 9.15602093,21.1990209 9.63202093,21.0060209 C9.89102093,20.9000209 10.2880209,20.8250209 10.7380209,20.9620209 C11.2130209,21.1070209 11.5280209,21.4220209 11.6940209,21.7110209 L8.23002093,23.7110209 Z" id="形状" fill="#003682" fill-rule="nonzero" mask="url(#mask-2)"></path>
            </g>
            <path d="M184.424,239.655 C184.902,239.931 185.066,240.542 184.79,241.021 L174.962,258.043 C174.756,258.4 174.298,258.17 174.191,257.772 L172.837,252.717 C172.694,252.184 172.145,251.867 171.612,252.01 L166.558,253.364 C166.181,253.465 165.781,253.193 165.976,252.854 L175.804,235.832 C176.08,235.354 176.691,235.19 177.17,235.466 L184.424,239.655 Z" id="路径" fill="#FFFFFF"></path>
            <g id="Clipped" transform="translate(165.924929, 235.331979)">
                <mask id="mask-4" fill="white">
                    <use xlink:href="#path-3"></use>
                </mask>
                <g id="路径"></g>
                <path d="M9.87907123,0.500020929 L11.6110712,1.50002093 L9.87907123,0.500020929 Z M0.633071227,18.0320209 L1.15107123,19.9640209 L0.633071227,18.0320209 Z M6.91207123,17.3850209 L4.98007123,17.9030209 L6.91207123,17.3850209 Z M17.1330712,4.68902093 C16.8570712,5.16702093 17.0210712,5.77802093 17.4990712,6.05502093 L19.4990712,2.59002093 C20.9340712,3.41902093 21.4260712,5.25402093 20.5970712,6.68902093 L17.1330712,4.68902093 Z M7.30507123,21.7110209 L17.1330712,4.68902093 L20.5970712,6.68902093 L10.7690712,23.7110209 L7.30507123,21.7110209 Z M6.33407123,22.9580209 L4.98007123,17.9030209 L8.84307123,16.8670209 L10.1980712,21.9220209 L6.33407123,22.9580209 Z M6.20407123,18.6100209 L1.15107123,19.9640209 L0.116071227,16.1000209 L5.16907123,14.7460209 L6.20407123,18.6100209 Z M11.6110712,1.50002093 L1.78307123,18.5220209 L-1.68092877,16.5220209 L8.14707123,-0.499979071 L11.6110712,1.50002093 Z M10.2450712,1.86602093 C10.7230712,2.14202093 11.3350712,1.97902093 11.6110712,1.50002093 L8.14707123,-0.499979071 C8.97507123,-1.93497907 10.8100712,-2.42597907 12.2450712,-1.59797907 L10.2450712,1.86602093 Z M17.4990712,6.05502093 L10.2450712,1.86602093 L12.2450712,-1.59797907 L19.4990712,2.59002093 L17.4990712,6.05502093 Z M1.15107123,19.9640209 C0.402071227,20.1650209 -0.457928773,20.0320209 -1.11792877,19.5070209 C-1.46592877,19.2300209 -1.81192877,18.7930209 -1.94592877,18.1940209 C-2.08392877,17.5710209 -1.94592877,16.9820209 -1.68092877,16.5220209 L1.78307123,18.5220209 C1.95107123,18.2320209 2.06607123,17.8040209 1.95907123,17.3240209 C1.85707123,16.8680209 1.59807123,16.5570209 1.37307123,16.3770209 C0.959071227,16.0470209 0.487071227,16.0000209 0.116071227,16.1000209 L1.15107123,19.9640209 Z M4.98007123,17.9030209 C5.12307123,18.4360209 5.67107123,18.7530209 6.20407123,18.6100209 L5.16907123,14.7460209 C6.77007123,14.3170209 8.41507123,15.2670209 8.84307123,16.8670209 L4.98007123,17.9030209 Z M10.7690712,23.7110209 C10.5000712,24.1770209 10.0510712,24.5980209 9.42807123,24.7880209 C8.83207123,24.9700209 8.27507123,24.8790209 7.86107123,24.7110209 C7.07807123,24.3930209 6.53507123,23.7090209 6.33407123,22.9580209 L10.1980712,21.9220209 C10.1030712,21.5690209 9.84307123,21.1990209 9.36807123,21.0060209 C9.10807123,20.9000209 8.71107123,20.8250209 8.26107123,20.9620209 C7.78707123,21.1070209 7.47207123,21.4220209 7.30507123,21.7110209 L10.7690712,23.7110209 Z" id="形状" fill="#003682" fill-rule="nonzero" mask="url(#mask-4)"></path>
            </g>
            <path d="M185.346,210.172 C183.784,208.609 181.251,208.609 179.689,210.172 L177.104,212.757 L172.757,212.757 C170.548,212.757 168.757,214.548 168.757,216.757 L168.757,221.103 L166.172,223.689 C164.61,225.251 164.61,227.783 166.172,229.346 L168.757,231.931 L168.757,236.277 C168.757,238.486 170.548,240.277 172.757,240.277 L177.103,240.277 L179.689,242.863 C181.251,244.425 183.784,244.425 185.346,242.863 L187.931,240.277 L192.277,240.277 C194.487,240.277 196.277,238.486 196.277,236.277 L196.277,231.931 L198.863,229.346 C200.425,227.783 200.425,225.251 198.863,223.689 L196.277,221.103 L196.277,216.757 C196.277,214.548 194.487,212.757 192.277,212.757 L187.931,212.757 L185.346,210.172 Z" id="路径" fill="#FFFFFF"></path>
            <g id="Clipped" transform="translate(165.000500, 208.999750)">
                <mask id="mask-6" fill="white">
                    <use xlink:href="#path-5"></use>
                </mask>
                <g id="路径"></g>
                <path d="M14.6885,1.17225 L13.2745,-0.24275 L14.6885,1.17225 Z M20.3455,1.17225 L18.9315,2.58625 L18.9315,2.58625 L20.3455,1.17225 Z M12.1035,3.75725 L12.1035,5.75725 L12.9315,5.75725 L13.5175,5.17125 L12.1035,3.75725 Z M3.7565,12.10325 L5.1705,13.51725 L5.7565,12.93225 L5.7565,12.10325 L3.7565,12.10325 Z M1.1715,14.68925 L2.5855,16.10325 L2.5855,16.10325 L1.1715,14.68925 Z M1.1715,20.34625 L2.5855,18.93125 L2.5855,18.93125 L1.1715,20.34625 Z M3.7565,22.93125 L5.7565,22.93125 L5.7565,22.10325 L5.1705,21.51725 L3.7565,22.93125 Z M12.1025,31.27725 L13.5175,29.86325 L12.9315,29.27725 L12.1025,29.27725 L12.1025,31.27725 Z M22.9305,31.27725 L22.9305,29.27725 L22.1025,29.27725 L21.5165,29.86325 L22.9305,31.27725 Z M31.2765,22.93125 L29.8625,21.51725 L29.2765,22.10225 L29.2765,22.93125 L31.2765,22.93125 Z M33.8625,14.68925 L35.2765,13.27425 L35.2765,13.27425 L33.8625,14.68925 Z M31.2765,12.10325 L29.2765,12.10325 L29.2765,12.93225 L29.8625,13.51825 L31.2765,12.10325 Z M22.9305,3.75725 L21.5165,5.17125 L22.1025,5.75725 L22.9305,5.75725 L22.9305,3.75725 Z M16.1025,2.58625 C16.8835,1.80525 18.1495,1.80525 18.9315,2.58625 L21.7595,-0.24275 C19.4165,-2.58575 15.6175,-2.58575 13.2745,-0.24275 L16.1025,2.58625 Z M13.5175,5.17125 L16.1025,2.58625 L13.2745,-0.24275 L10.6885,2.34325 L13.5175,5.17125 Z M7.7565,5.75725 L12.1035,5.75725 L12.1035,1.75725 L7.7565,1.75725 L7.7565,5.75725 Z M5.7565,7.75725 C5.7565,6.65225 6.6525,5.75725 7.7565,5.75725 L7.7565,1.75725 C4.4435,1.75725 1.7565,4.44325 1.7565,7.75725 L5.7565,7.75725 Z M5.7565,12.10325 L5.7565,7.75725 L1.7565,7.75725 L1.7565,12.10325 L5.7565,12.10325 Z M2.5855,16.10325 L5.1705,13.51725 L2.3425,10.68925 L-0.2425,13.27425 L2.5855,16.10325 Z M2.5855,18.93125 C1.8045,18.15025 1.8045,16.88425 2.5855,16.10325 L-0.2425,13.27425 C-2.5865,15.61825 -2.5865,19.41725 -0.2425,21.76025 L2.5855,18.93125 Z M5.1705,21.51725 L2.5855,18.93125 L-0.2425,21.76025 L2.3425,24.34525 L5.1705,21.51725 Z M5.7565,27.27725 L5.7565,22.93125 L1.7565,22.93125 L1.7565,27.27725 L5.7565,27.27725 Z M7.7565,29.27725 C6.6525,29.27725 5.7565,28.38225 5.7565,27.27725 L1.7565,27.27725 C1.7565,30.59125 4.4435,33.27725 7.7565,33.27725 L7.7565,29.27725 Z M12.1025,29.27725 L7.7565,29.27725 L7.7565,33.27725 L12.1025,33.27725 L12.1025,29.27725 Z M16.1025,32.44825 L13.5175,29.86325 L10.6885,32.69125 L13.2745,35.27725 L16.1025,32.44825 Z M18.9315,32.44825 C18.1495,33.22925 16.8835,33.22925 16.1025,32.44825 L13.2745,35.27725 C15.6175,37.62025 19.4165,37.62025 21.7595,35.27725 L18.9315,32.44825 Z M21.5165,29.86325 L18.9315,32.44825 L21.7595,35.27725 L24.3445,32.69125 L21.5165,29.86325 Z M27.2765,29.27725 L22.9305,29.27725 L22.9305,33.27725 L27.2765,33.27725 L27.2765,29.27725 Z M29.2765,27.27725 C29.2765,28.38225 28.3815,29.27725 27.2765,29.27725 L27.2765,33.27725 C30.5905,33.27725 33.2765,30.59125 33.2765,27.27725 L29.2765,27.27725 Z M29.2765,22.93125 L29.2765,27.27725 L33.2765,27.27725 L33.2765,22.93125 L29.2765,22.93125 Z M32.4485,18.93125 L29.8625,21.51725 L32.6915,24.34525 L35.2765,21.76025 L32.4485,18.93125 Z M32.4485,16.10325 C33.2295,16.88425 33.2295,18.15025 32.4485,18.93125 L35.2765,21.76025 C37.6195,19.41725 37.6195,15.61825 35.2765,13.27425 L32.4485,16.10325 Z M29.8625,13.51825 L32.4485,16.10325 L35.2765,13.27425 L32.6915,10.68925 L29.8625,13.51825 Z M29.2765,7.75725 L29.2765,12.10325 L33.2765,12.10325 L33.2765,7.75725 L29.2765,7.75725 Z M27.2765,5.75725 C28.3815,5.75725 29.2765,6.65225 29.2765,7.75725 L33.2765,7.75725 C33.2765,4.44325 30.5905,1.75725 27.2765,1.75725 L27.2765,5.75725 Z M22.9305,5.75725 L27.2765,5.75725 L27.2765,1.75725 L22.9305,1.75725 L22.9305,5.75725 Z M18.9315,2.58625 L21.5165,5.17125 L24.3445,2.34325 L21.7595,-0.24275 L18.9315,2.58625 Z" id="形状" fill="#003682" fill-rule="nonzero" mask="url(#mask-6)"></path>
            </g>
            <circle id="椭圆形" stroke="#003682" stroke-width="2" fill="#FFFFFF" fill-rule="nonzero" cx="182.62" cy="226.62" r="9.82764"></circle>
        </g>
    </g>
</svg>