<?xml version="1.0" encoding="UTF-8"?>
<svg width="570px" height="370px" viewBox="0 0 570 370" version="1.1" xmlns="http://www.w3.org/2000/svg" xmlns:xlink="http://www.w3.org/1999/xlink">
    <title>预防域名被劫持</title>
    <g id="页面-1" stroke="none" stroke-width="1" fill="none" fill-rule="evenodd">
        <g id="预防域名被劫持">
            <rect id="矩形" fill-opacity="0" fill="#FFFFFF" fill-rule="nonzero" x="0" y="0" width="570" height="370"></rect>
            <circle id="椭圆形" stroke="#FF6633" cx="284.959" cy="184.959" r="106.012"></circle>
            <path d="M415.759,184.959 C415.759,207.507 401.212,227.995 377.536,242.871 C353.867,257.742 321.137,266.957 284.959,266.957 C248.78,266.957 216.051,257.742 192.381,242.871 C168.705,227.995 154.158,207.507 154.158,184.959 C154.158,162.411 168.705,141.923 192.381,127.047 C216.051,112.175 248.78,102.96 284.959,102.96 C321.137,102.96 353.867,112.175 377.536,127.047 C401.212,141.923 415.759,162.411 415.759,184.959 Z" id="路径" stroke="#FF6633"></path>
            <path d="M398.235,250.359 C386.961,269.886 364.119,280.356 336.177,281.401 C308.243,282.445 275.291,274.061 243.96,255.972 C212.628,237.882 188.891,213.537 175.828,188.823 C162.762,164.102 160.408,139.086 171.682,119.559 C182.956,100.031 205.798,89.562 233.74,88.5169 C261.674,87.4722 294.627,95.8568 325.958,113.946 C357.289,132.035 381.027,156.38 394.089,181.094 C407.155,205.815 409.509,230.832 398.235,250.359 Z" id="路径" stroke="#FF6633"></path>
            <path d="M350.359,298.235 C330.832,309.509 305.815,307.155 281.094,294.089 C256.38,281.027 232.035,257.289 213.946,225.958 C195.857,194.627 187.472,161.674 188.517,133.74 C189.562,105.798 200.031,82.9563 219.558,71.6823 C239.086,60.4083 264.102,62.7625 288.823,75.8284 C313.537,88.8907 337.882,112.628 355.971,143.959 C374.061,175.291 382.445,208.243 381.4,236.177 C380.355,264.119 369.886,286.961 350.359,298.235 Z" id="路径" stroke="#FF6633"></path>
            <path d="M284.959,315.759 C262.411,315.759 241.923,301.212 227.047,277.536 C212.175,253.867 202.96,221.137 202.96,184.959 C202.96,148.78 212.175,116.051 227.047,92.3814 C241.923,68.7054 262.411,54.1584 284.959,54.1584 C307.507,54.1584 327.994,68.7054 342.87,92.3814 C357.742,116.051 366.957,148.78 366.957,184.959 C366.957,221.137 357.742,253.867 342.87,277.536 C327.994,301.212 307.507,315.759 284.959,315.759 Z" id="路径" stroke="#FF6633"></path>
            <path d="M219.558,298.235 C200.031,286.961 189.562,264.119 188.517,236.177 C187.472,208.243 195.857,175.291 213.946,143.959 C232.035,112.628 256.38,88.8907 281.094,75.8284 C305.815,62.7624 330.832,60.4082 350.359,71.6823 C369.886,82.9563 380.356,105.798 381.401,133.74 C382.445,161.674 374.061,194.627 355.971,225.958 C337.882,257.289 313.537,281.027 288.823,294.089 C264.102,307.155 239.086,309.509 219.558,298.235 Z" id="路径" stroke="#FF6633"></path>
            <path d="M171.682,250.359 C160.408,230.832 162.762,205.815 175.828,181.094 C188.891,156.38 212.628,132.035 243.96,113.946 C275.291,95.8567 308.243,87.4721 336.177,88.5168 C364.119,89.5619 386.961,100.031 398.235,119.559 C409.509,139.086 407.155,164.102 394.089,188.823 C381.027,213.537 357.289,237.882 325.958,255.971 C294.627,274.061 261.674,282.445 233.74,281.401 C205.798,280.355 182.956,269.886 171.682,250.359 Z" id="路径" stroke="#FF6633"></path>
            <rect id="矩形" fill="#FFFFFF" fill-rule="nonzero" x="190.068" y="119.917" width="188.767" height="121.096"></rect>
            <path d="M167.816,241.013 C167.32,241.013 166.917,241.391 166.917,241.856 L166.917,246.621 C166.917,247.343 167.244,248.045 167.94,248.355 C170.041,249.292 174.478,250.142 181.3,249.864 C189.162,249.543 248.821,249.705 281.98,249.843 L281.98,249.864 C282.783,249.86 283.607,249.857 284.452,249.853 C285.296,249.857 286.121,249.86 286.924,249.864 L286.924,249.843 C320.083,249.705 379.742,249.543 387.603,249.864 C394.426,250.142 398.862,249.292 400.963,248.355 C401.659,248.045 401.986,247.343 401.986,246.621 L401.986,241.856 C401.986,241.391 401.584,241.013 401.087,241.013 L167.816,241.013 Z" id="路径" stroke="#003682" stroke-width="2" fill="#D9E4F2" fill-rule="nonzero"></path>
            <path d="M191.068,125.698 C191.068,124.041 192.411,122.698 194.068,122.698 L374.835,122.698 C376.492,122.698 377.835,124.041 377.835,125.698 L377.835,241.794 L191.068,241.794 L191.068,125.698 Z" id="路径" stroke="#003682" stroke-width="2" fill-opacity="0.3" fill="#7FA5D2" fill-rule="nonzero"></path>
            <rect id="矩形" stroke="#003682" stroke-width="2" fill="#FFFFFF" fill-rule="nonzero" x="201.501" y="142.287" width="163.616" height="92.3836"></rect>
            <path d="M216.703,153.753 C216.703,154.736 215.923,155.534 214.961,155.534 C213.999,155.534 213.219,154.736 213.219,153.753 C213.219,152.769 213.999,151.972 214.961,151.972 C215.923,151.972 216.703,152.769 216.703,153.753 Z" id="路径" fill="#003682" fill-rule="nonzero"></path>
            <path d="M222.975,153.753 C222.975,154.736 222.195,155.534 221.232,155.534 C220.27,155.534 219.49,154.736 219.49,153.753 C219.49,152.769 220.27,151.972 221.232,151.972 C222.195,151.972 222.975,152.769 222.975,153.753 Z" id="路径" fill="#003682" fill-rule="nonzero"></path>
            <path d="M227.504,155.534 C228.466,155.534 229.246,154.736 229.246,153.753 C229.246,152.769 228.466,151.972 227.504,151.972 C226.542,151.972 225.762,152.769 225.762,153.753 C225.762,154.736 226.542,155.534 227.504,155.534 Z" id="路径" fill="#003682" fill-rule="nonzero"></path>
            <line x1="286.233" y1="132.383" x2="280.89" y2="132.383" id="路径" stroke="#003682" stroke-width="2" stroke-linecap="round"></line>
            <polygon id="路径" fill-opacity="0.3" fill="#7FA4D2" fill-rule="nonzero" points="212.417 161.084 355.417 161.084 355.417 226.084 212.417 226.084"></polygon>
            <circle id="椭圆形" stroke="#003682" stroke-width="2" cx="280.126" cy="190.876" r="15.7917"></circle>
            <line x1="292.042" y1="202.251" x2="304.501" y2="213.626" id="路径" stroke="#003682" stroke-width="2" stroke-linecap="round"></line>
            <path d="M280.513,182.751 C279.35,182.751 278.42,183.739 278.506,184.898 L279.22,194.55 C279.271,195.227 279.834,195.751 280.513,195.751 C281.192,195.751 281.756,195.227 281.806,194.55 L282.521,184.898 C282.607,183.739 281.676,182.751 280.513,182.751 Z M280.513,200.084 C281.411,200.084 282.138,199.356 282.138,198.459 C282.138,197.562 281.411,196.834 280.513,196.834 C279.616,196.834 278.888,197.562 278.888,198.459 C278.888,199.356 279.616,200.084 280.513,200.084 Z" id="形状" fill="#003682"></path>
        </g>
    </g>
</svg>