<?xml version="1.0" encoding="UTF-8"?>
<svg width="570px" height="370px" viewBox="0 0 570 370" version="1.1" xmlns="http://www.w3.org/2000/svg" xmlns:xlink="http://www.w3.org/1999/xlink">
    <title>证书托管</title>
    <defs>
        <path d="M0.500020929,5.79302093 C0.0220209288,6.06902093 -0.141979071,6.68102093 0.134020929,7.15902093 L13.0320209,29.4970209 C13.2350209,29.8490209 13.6870209,29.6250209 13.7920209,29.2330209 L15.6920209,22.1430209 C15.8350209,21.6090209 16.3830209,21.2930209 16.9170209,21.4360209 L24.0040209,23.3350209 C24.3700209,23.4330209 24.7550209,23.1660209 24.5650209,22.8380209 L11.6680209,0.500020929 C11.3920209,0.0220209288 10.7800209,-0.141979071 10.3020209,0.134020929 L0.500020929,5.79302093 Z" id="path-1"></path>
        <path d="M24.1148167,5.79302093 C24.5928167,6.06902093 24.7568167,6.68102093 24.4808167,7.15902093 L11.5838167,29.4970209 C11.3808167,29.8490209 10.9278167,29.6250209 10.8228167,29.2330209 L8.92281673,22.1430209 C8.78081673,21.6090209 8.23181673,21.2930209 7.69881673,21.4360209 L0.610816728,23.3350209 C0.244816728,23.4330209 -0.139183272,23.1660209 0.0498167277,22.8380209 L12.9468167,0.500020929 C13.2228167,0.0220209288 13.8348167,-0.141979071 14.3128167,0.134020929 L24.1148167,5.79302093 Z" id="path-3"></path>
        <path d="M25.78125,1.17225 C24.21925,-0.39075 21.68625,-0.39075 20.12425,1.17225 L16.00425,5.29225 L9.29225,5.29225 C7.08325,5.29225 5.29225,7.08325 5.29225,9.29225 L5.29225,16.00425 L1.17225,20.12425 C-0.39075,21.68625 -0.39075,24.21925 1.17225,25.78125 L5.29225,29.90125 L5.29225,36.61325 C5.29225,38.82325 7.08325,40.61325 9.29225,40.61325 L16.00425,40.61325 L20.12425,44.73425 C21.68625,46.29625 24.21925,46.29625 25.78125,44.73425 L29.90125,40.61325 L36.61425,40.61325 C38.82325,40.61325 40.61425,38.82325 40.61425,36.61325 L40.61425,29.90125 L44.73425,25.78125 C46.29625,24.21925 46.29625,21.68625 44.73425,20.12425 L40.61425,16.00425 L40.61425,9.29225 C40.61425,7.08325 38.82325,5.29225 36.61425,5.29225 L29.90125,5.29225 L25.78125,1.17225 Z" id="path-5"></path>
    </defs>
    <g id="页面-1" stroke="none" stroke-width="1" fill="none" fill-rule="evenodd">
        <g id="证书托管">
            <rect id="矩形" fill-opacity="0" fill="#FFFFFF" fill-rule="nonzero" x="0" y="0" width="570" height="370"></rect>
            <circle id="椭圆形" stroke="#FF6633" cx="285.041" cy="185.041" r="116.379"></circle>
            <path d="M428.621,185.041 C428.621,209.807 412.644,232.302 386.655,248.631 C360.673,264.956 324.749,275.07 285.041,275.07 C245.334,275.07 209.409,264.956 183.427,248.631 C157.438,232.302 141.461,209.807 141.461,185.041 C141.461,160.276 157.438,137.781 183.427,121.452 C209.409,105.127 245.334,95.0131 285.041,95.0131 C324.749,95.0131 360.673,105.127 386.655,121.452 C412.644,137.781 428.621,160.276 428.621,185.041 Z" id="路径" stroke="#FF6633"></path>
            <path d="M409.385,256.832 C397.003,278.279 371.918,289.772 341.247,290.919 C310.583,292.066 274.415,282.862 240.027,263.008 C205.64,243.154 179.585,216.434 165.246,189.305 C150.904,162.169 148.314,134.699 160.697,113.251 C173.08,91.8038 198.164,80.3111 228.836,79.1639 C259.499,78.0171 295.668,87.2209 330.055,107.075 C364.443,126.928 390.498,153.649 404.837,180.778 C419.179,207.914 421.768,235.384 409.385,256.832 Z" id="路径" stroke="#FF6633"></path>
            <path d="M356.831,309.385 C335.384,321.768 307.914,319.179 280.778,304.837 C253.649,290.498 226.928,264.443 207.074,230.055 C187.221,195.668 178.017,159.499 179.164,128.836 C180.311,98.1644 191.804,73.0799 213.251,60.6972 C234.699,48.3145 262.169,50.9037 289.305,65.246 C316.433,79.5846 343.154,105.639 363.008,140.027 C382.862,174.415 392.065,210.583 390.919,241.247 C389.772,271.918 378.279,297.003 356.831,309.385 Z" id="路径" stroke="#FF6633"></path>
            <path d="M285.042,328.622 C260.276,328.622 237.781,312.644 221.452,286.655 C205.127,260.673 195.013,224.749 195.013,185.041 C195.013,145.334 205.127,109.409 221.452,83.4272 C237.781,57.4385 260.276,41.4611 285.042,41.4611 C309.807,41.4611 332.302,57.4385 348.631,83.4272 C364.956,109.409 375.07,145.334 375.07,185.041 C375.07,224.749 364.956,260.673 348.631,286.655 C332.302,312.644 309.807,328.622 285.042,328.622 Z" id="路径" stroke="#FF6633"></path>
            <path d="M213.251,309.385 C191.803,297.003 180.311,271.918 179.164,241.247 C178.017,210.583 187.22,174.415 207.074,140.027 C226.928,105.64 253.649,79.5846 280.778,65.246 C307.913,50.9037 335.384,48.3145 356.831,60.6972 C378.279,73.0799 389.771,98.1644 390.918,128.836 C392.065,159.499 382.862,195.668 363.008,230.055 C343.154,264.443 316.433,290.498 289.304,304.837 C262.169,319.179 234.698,321.768 213.251,309.385 Z" id="路径" stroke="#FF6633"></path>
            <path d="M160.697,256.831 C148.314,235.384 150.904,207.914 165.246,180.778 C179.584,153.649 205.639,126.928 240.027,107.074 C274.415,87.2207 310.583,78.0169 341.247,79.1637 C371.918,80.3109 397.003,91.8036 409.385,113.251 C421.768,134.699 419.179,162.169 404.837,189.305 C390.498,216.433 364.443,243.154 330.055,263.008 C295.668,282.862 259.499,292.065 228.836,290.919 C198.164,289.771 173.08,278.279 160.697,256.831 Z" id="路径" stroke="#FF6633"></path>
            <path d="M309,138 C309,137.448 309.448,137 310,137 L471,137 C471.552,137 472,137.448 472,138 L472,249 C472,249.552 471.552,250 471,250 L310,250 C309.448,250 309,249.552 309,249 L309,138 Z" id="路径" stroke="#003682" stroke-width="2" fill="#FFFFFF" fill-rule="nonzero"></path>
            <polygon id="路径" fill-opacity="0.3" fill="#7FA4D2" fill-rule="nonzero" points="324 177 460 177 460 182.946 324 182.946"></polygon>
            <polygon id="路径" fill-opacity="0.3" fill="#7FA4D2" fill-rule="nonzero" points="324 193.351 460 193.351 460 199.297 324 199.297"></polygon>
            <polygon id="路径" fill-opacity="0.3" fill="#7FA4D2" fill-rule="nonzero" points="324 212.676 433.307 212.676 433.307 218.622 324 218.622"></polygon>
            <path d="M98,139 C98,138.448 98.4477,138 99,138 L260,138 C260.552,138 261,138.448 261,139 L261,250 C261,250.552 260.552,251 260,251 L99,251 C98.4477,251 98,250.552 98,250 L98,139 Z" id="路径" stroke="#003682" stroke-width="2" fill="#FFFFFF" fill-rule="nonzero"></path>
            <polygon id="路径" fill-opacity="0.3" fill="#7FA4D2" fill-rule="nonzero" points="111 177 247 177 247 182.946 111 182.946"></polygon>
            <polygon id="路径" fill-opacity="0.3" fill="#7FA4D2" fill-rule="nonzero" points="111 193.351 247 193.351 247 199.297 111 199.297"></polygon>
            <polygon id="路径" fill-opacity="0.3" fill="#7FA4D2" fill-rule="nonzero" points="111 212.676 220.307 212.676 220.307 218.622 111 218.622"></polygon>
            <rect id="矩形" fill="#FFFFFF" fill-rule="nonzero" x="175" y="123" width="202" height="139" rx="2"></rect>
            <path d="M176,125 C176,124.448 176.448,124 177,124 L375,124 C375.552,124 376,124.448 376,125 L376,262 C376,262.552 375.552,263 375,263 L177,263 C176.448,263 176,262.552 176,262 L176,125 Z" id="路径" stroke="#003682" stroke-width="2" fill-opacity="0.3" fill="#7FA5D2" fill-rule="nonzero"></path>
            <path d="M182,264 C182,263.448 182.448,263 183,263 L367,263 C367.552,263 368,263.448 368,264 L368,268 C368,268.552 367.552,269 367,269 L183,269 C182.448,269 182,268.552 182,268 L182,264 Z" id="路径" stroke="#003682" stroke-width="2" fill="#FFFFFF" fill-rule="nonzero"></path>
            <rect id="矩形" stroke="#003682" stroke-width="2" fill="#FFFFFF" fill-rule="nonzero" x="188" y="145" width="175" height="99"></rect>
            <line x1="288.377" y1="134.329" x2="271.24" y2="134.329" id="路径" stroke="#003682" stroke-width="2" stroke-linecap="round"></line>
            <line x1="266.479" y1="134.329" x2="264.575" y2="134.329" id="路径" stroke="#003682" stroke-width="2" stroke-linecap="round"></line>
            <polygon id="路径" fill-opacity="0.3" fill="#7FA4D2" fill-rule="nonzero" points="206 186.946 342 186.946 342 192.892 206 192.892"></polygon>
            <polygon id="路径" fill-opacity="0.3" fill="#7FA4D2" fill-rule="nonzero" points="206 203.297 342 203.297 342 209.243 206 209.243"></polygon>
            <polygon id="路径" fill-opacity="0.3" fill="#7FA4D2" fill-rule="nonzero" points="206 222.622 315.307 222.622 315.307 228.568 206 228.568"></polygon>
            <path d="M212.155,161.638 C212.098,161.065 211.854,160.62 211.423,160.303 C210.992,159.985 210.408,159.827 209.669,159.827 C209.167,159.827 208.743,159.898 208.398,160.04 C208.052,160.177 207.787,160.369 207.602,160.615 C207.422,160.861 207.332,161.141 207.332,161.453 C207.323,161.714 207.377,161.941 207.496,162.135 C207.619,162.329 207.787,162.497 208,162.639 C208.213,162.777 208.459,162.897 208.739,163.001 C209.018,163.101 209.316,163.186 209.634,163.257 L210.94,163.57 C211.575,163.712 212.157,163.901 212.688,164.138 C213.218,164.375 213.677,164.666 214.065,165.011 C214.454,165.357 214.754,165.764 214.967,166.233 C215.185,166.702 215.296,167.239 215.301,167.845 C215.296,168.735 215.069,169.507 214.619,170.161 C214.174,170.809 213.53,171.313 212.688,171.673 C211.849,172.028 210.839,172.206 209.655,172.206 C208.481,172.206 207.458,172.026 206.587,171.666 C205.72,171.306 205.043,170.774 204.555,170.068 C204.072,169.358 203.819,168.48 203.795,167.433 L206.771,167.433 C206.804,167.921 206.944,168.328 207.19,168.655 C207.441,168.977 207.775,169.221 208.192,169.386 C208.613,169.547 209.089,169.628 209.619,169.628 C210.14,169.628 210.592,169.552 210.976,169.401 C211.364,169.249 211.665,169.038 211.878,168.768 C212.091,168.499 212.197,168.188 212.197,167.838 C212.197,167.511 212.1,167.237 211.906,167.014 C211.717,166.792 211.438,166.602 211.068,166.446 C210.704,166.29 210.256,166.148 209.726,166.02 L208.142,165.622 C206.916,165.324 205.947,164.857 205.237,164.223 C204.527,163.589 204.174,162.734 204.179,161.659 C204.174,160.778 204.409,160.009 204.882,159.351 C205.36,158.693 206.016,158.179 206.849,157.81 C207.683,157.44 208.63,157.256 209.69,157.256 C210.77,157.256 211.712,157.44 212.517,157.81 C213.327,158.179 213.956,158.693 214.406,159.351 C214.856,160.009 215.088,160.771 215.102,161.638 L212.155,161.638 Z M225.26,161.638 C225.203,161.065 224.96,160.62 224.529,160.303 C224.098,159.985 223.513,159.827 222.775,159.827 C222.273,159.827 221.849,159.898 221.503,160.04 C221.158,160.177 220.892,160.369 220.708,160.615 C220.528,160.861 220.438,161.141 220.438,161.453 C220.428,161.714 220.483,161.941 220.601,162.135 C220.724,162.329 220.892,162.497 221.105,162.639 C221.319,162.777 221.565,162.897 221.844,163.001 C222.123,163.101 222.422,163.186 222.739,163.257 L224.046,163.57 C224.68,163.712 225.263,163.901 225.793,164.138 C226.323,164.375 226.783,164.666 227.171,165.011 C227.559,165.357 227.86,165.764 228.073,166.233 C228.291,166.702 228.402,167.239 228.407,167.845 C228.402,168.735 228.175,169.507 227.725,170.161 C227.28,170.809 226.636,171.313 225.793,171.673 C224.955,172.028 223.944,172.206 222.76,172.206 C221.586,172.206 220.563,172.026 219.692,171.666 C218.826,171.306 218.149,170.774 217.661,170.068 C217.178,169.358 216.925,168.48 216.901,167.433 L219.877,167.433 C219.91,167.921 220.05,168.328 220.296,168.655 C220.547,168.977 220.881,169.221 221.297,169.386 C221.719,169.547 222.194,169.628 222.725,169.628 C223.246,169.628 223.698,169.552 224.081,169.401 C224.47,169.249 224.77,169.038 224.983,168.768 C225.196,168.499 225.303,168.188 225.303,167.838 C225.303,167.511 225.206,167.237 225.012,167.014 C224.822,166.792 224.543,166.602 224.174,166.446 C223.809,166.29 223.362,166.148 222.831,166.02 L221.248,165.622 C220.021,165.324 219.053,164.857 218.343,164.223 C217.632,163.589 217.28,162.734 217.284,161.659 C217.28,160.778 217.514,160.009 217.988,159.351 C218.466,158.693 219.122,158.179 219.955,157.81 C220.788,157.44 221.735,157.256 222.796,157.256 C223.875,157.256 224.818,157.44 225.623,157.81 C226.432,158.179 227.062,158.693 227.512,159.351 C227.962,160.009 228.194,160.771 228.208,161.638 L225.26,161.638 Z M230.475,172 L230.475,157.455 L233.55,157.455 L233.55,169.464 L239.786,169.464 L239.786,172 L230.475,172 Z" id="形状" fill="#003682" fill-rule="nonzero"></path>
            <path d="M334.055,216.956 C333.577,217.232 333.413,217.844 333.689,218.322 L346.587,240.66 C346.79,241.012 347.242,240.788 347.347,240.396 L349.247,233.306 C349.39,232.772 349.938,232.456 350.472,232.599 L357.559,234.498 C357.925,234.596 358.31,234.329 358.12,234.001 L345.223,211.663 C344.947,211.185 344.335,211.021 343.857,211.297 L334.055,216.956 Z" id="路径" fill="#FFFFFF"></path>
            <g id="Clipped" transform="translate(333.554979, 211.162979)">
                <mask id="mask-2" fill="white">
                    <use xlink:href="#path-1"></use>
                </mask>
                <g id="路径"></g>
                <path d="M11.6680209,0.500020929 L13.4000209,-0.499979071 L11.6680209,0.500020929 Z M24.0040209,23.3350209 L23.4860209,25.2670209 L24.0040209,23.3350209 Z M15.6920209,22.1430209 L13.7600209,21.6250209 L15.6920209,22.1430209 Z M16.9170209,21.4360209 L17.4340209,19.5040209 L16.9170209,21.4360209 Z M13.7920209,29.2330209 L11.8600209,28.7150209 L13.7920209,29.2330209 Z M1.86702093,6.15902093 C2.14302093,6.63702093 1.97902093,7.24902093 1.50002093,7.52502093 L-0.499979071,4.06102093 C-1.93397907,4.88902093 -2.42597907,6.72402093 -1.59797907,8.15902093 L1.86702093,6.15902093 Z M14.7640209,28.4970209 L1.86702093,6.15902093 L-1.59797907,8.15902093 L11.2990209,30.4970209 L14.7640209,28.4970209 Z M15.7240209,29.7500209 L17.6240209,22.6610209 L13.7600209,21.6250209 L11.8600209,28.7150209 L15.7240209,29.7500209 Z M16.3990209,23.3680209 L23.4860209,25.2670209 L24.5220209,21.4030209 L17.4340209,19.5040209 L16.3990209,23.3680209 Z M9.93602093,1.50002093 L22.8330209,23.8380209 L26.2970209,21.8380209 L13.4000209,-0.499979071 L9.93602093,1.50002093 Z M11.3020209,1.86602093 C10.8240209,2.14202093 10.2120209,1.97802093 9.93602093,1.50002093 L13.4000209,-0.499979071 C12.5720209,-1.93497907 10.7370209,-2.42697907 9.30202093,-1.59797907 L11.3020209,1.86602093 Z M1.50002093,7.52502093 L11.3020209,1.86602093 L9.30202093,-1.59797907 L-0.499979071,4.06102093 L1.50002093,7.52502093 Z M23.4860209,25.2670209 C24.2340209,25.4670209 25.0930209,25.3320209 25.7480209,24.8030209 C26.0940209,24.5240209 26.4340209,24.0880209 26.5630209,23.4940209 C26.6980209,22.8770209 26.5600209,22.2940209 26.2970209,21.8380209 L22.8330209,23.8380209 C22.6650209,23.5470209 22.5510209,23.1200209 22.6550209,22.6420209 C22.7540209,22.1870209 23.0100209,21.8730209 23.2370209,21.6900209 C23.6570209,21.3510209 24.1390209,21.3010209 24.5220209,21.4030209 L23.4860209,25.2670209 Z M17.6240209,22.6610209 C17.4810209,23.1940209 16.9320209,23.5110209 16.3990209,23.3680209 L17.4340209,19.5040209 C15.8340209,19.0750209 14.1890209,20.0250209 13.7600209,21.6250209 L17.6240209,22.6610209 Z M11.2990209,30.4970209 C11.5680209,30.9620209 12.0150209,31.3810209 12.6330209,31.5710209 C13.2270209,31.7540209 13.7820209,31.6660209 14.1960209,31.4990209 C14.9790209,31.1840209 15.5230209,30.5010209 15.7240209,29.7500209 L11.8600209,28.7150209 C11.9560209,28.3570209 12.2210209,27.9830209 12.7010209,27.7890209 C12.9630209,27.6830209 13.3610209,27.6100209 13.8090209,27.7480209 C14.2820209,27.8940209 14.5970209,28.2090209 14.7640209,28.4970209 L11.2990209,30.4970209 Z" id="形状" fill="#003682" fill-rule="nonzero" mask="url(#mask-2)"></path>
            </g>
            <path d="M338.646,216.956 C339.124,217.232 339.288,217.844 339.012,218.322 L326.115,240.66 C325.912,241.012 325.459,240.788 325.354,240.396 L323.454,233.306 C323.312,232.772 322.763,232.456 322.23,232.599 L315.142,234.498 C314.776,234.596 314.392,234.329 314.581,234.001 L327.478,211.663 C327.754,211.185 328.366,211.021 328.844,211.297 L338.646,216.956 Z" id="路径" fill="#FFFFFF"></path>
            <g id="Clipped" transform="translate(314.531183, 211.162979)">
                <mask id="mask-4" fill="white">
                    <use xlink:href="#path-3"></use>
                </mask>
                <g id="路径"></g>
                <path d="M12.9468167,0.500020929 L11.2148167,-0.499979071 L12.9468167,0.500020929 Z M0.610816728,23.3350209 L1.12881673,25.2670209 L0.610816728,23.3350209 Z M8.92281673,22.1430209 L10.8548167,21.6250209 L8.92281673,22.1430209 Z M7.69881673,21.4360209 L7.18081673,19.5040209 L7.69881673,21.4360209 Z M10.8228167,29.2330209 L12.7548167,28.7150209 L10.8228167,29.2330209 Z M22.7488167,6.15902093 C22.4728167,6.63702093 22.6358167,7.24902093 23.1148167,7.52502093 L25.1148167,4.06102093 C26.5498167,4.88902093 27.0408167,6.72402093 26.2128167,8.15902093 L22.7488167,6.15902093 Z M9.85181673,28.4970209 L22.7488167,6.15902093 L26.2128167,8.15902093 L13.3158167,30.4970209 L9.85181673,28.4970209 Z M8.89081673,29.7500209 L6.99181673,22.6610209 L10.8548167,21.6250209 L12.7548167,28.7150209 L8.89081673,29.7500209 Z M8.21581673,23.3680209 L1.12881673,25.2670209 L0.0938167277,21.4030209 L7.18081673,19.5040209 L8.21581673,23.3680209 Z M14.6788167,1.50002093 L1.78181673,23.8380209 L-1.68218327,21.8380209 L11.2148167,-0.499979071 L14.6788167,1.50002093 Z M13.3128167,1.86602093 C13.7908167,2.14202093 14.4028167,1.97802093 14.6788167,1.50002093 L11.2148167,-0.499979071 C12.0428167,-1.93497907 13.8778167,-2.42697907 15.3128167,-1.59797907 L13.3128167,1.86602093 Z M23.1148167,7.52502093 L13.3128167,1.86602093 L15.3128167,-1.59797907 L25.1148167,4.06102093 L23.1148167,7.52502093 Z M1.12881673,25.2670209 C0.380816728,25.4670209 -0.477183272,25.3320209 -1.13318327,24.8030209 C-1.47918327,24.5240209 -1.81818327,24.0880209 -1.94818327,23.4940209 C-2.08218327,22.8770209 -1.94518327,22.2940209 -1.68218327,21.8380209 L1.78181673,23.8380209 C1.94981673,23.5470209 2.06481673,23.1200209 1.95981673,22.6420209 C1.86081673,22.1870209 1.60481673,21.8730209 1.37781673,21.6900209 C0.958816728,21.3510209 0.475816728,21.3010209 0.0938167277,21.4030209 L1.12881673,25.2670209 Z M6.99181673,22.6610209 C7.13481673,23.1940209 7.68281673,23.5110209 8.21581673,23.3680209 L7.18081673,19.5040209 C8.78181673,19.0750209 10.4268167,20.0250209 10.8548167,21.6250209 L6.99181673,22.6610209 Z M13.3158167,30.4970209 C13.0468167,30.9620209 12.5998167,31.3810209 11.9818167,31.5710209 C11.3878167,31.7540209 10.8328167,31.6660209 10.4188167,31.4990209 C9.63581673,31.1840209 9.09281673,30.5010209 8.89081673,29.7500209 L12.7548167,28.7150209 C12.6588167,28.3570209 12.3938167,27.9820209 11.9138167,27.7890209 C11.6518167,27.6830209 11.2538167,27.6100209 10.8058167,27.7480209 C10.3328167,27.8940209 10.0178167,28.2090209 9.85181673,28.4970209 L13.3158167,30.4970209 Z" id="形状" fill="#003682" fill-rule="nonzero" mask="url(#mask-4)"></path>
            </g>
            <path d="M338.781,178.172 C337.219,176.609 334.686,176.609 333.124,178.172 L329.004,182.292 L322.292,182.292 C320.083,182.292 318.292,184.083 318.292,186.292 L318.292,193.004 L314.172,197.124 C312.609,198.686 312.609,201.219 314.172,202.781 L318.292,206.901 L318.292,213.613 C318.292,215.823 320.083,217.613 322.292,217.613 L329.004,217.613 L333.124,221.734 C334.686,223.296 337.219,223.296 338.781,221.734 L342.901,217.613 L349.614,217.613 C351.823,217.613 353.614,215.823 353.614,213.613 L353.614,206.901 L357.734,202.781 C359.296,201.219 359.296,198.686 357.734,197.124 L353.614,193.004 L353.614,186.292 C353.614,184.083 351.823,182.292 349.614,182.292 L342.901,182.292 L338.781,178.172 Z" id="路径" fill="#FFFFFF"></path>
            <g id="Clipped" transform="translate(312.999750, 176.999750)">
                <mask id="mask-6" fill="white">
                    <use xlink:href="#path-5"></use>
                </mask>
                <g id="路径"></g>
                <path d="M20.12425,1.17225 L18.71025,-0.24275 L18.71025,-0.24275 L20.12425,1.17225 Z M25.78125,1.17225 L24.36725,2.58625 L24.36725,2.58625 L25.78125,1.17225 Z M16.00425,5.29225 L16.00425,7.29225 L16.83225,7.29225 L17.41825,6.70625 L16.00425,5.29225 Z M5.29225,16.00425 L6.70625,17.41825 L7.29225,16.83225 L7.29225,16.00425 L5.29225,16.00425 Z M1.17225,20.12425 L-0.24275,18.71025 L-0.24275,18.71025 L1.17225,20.12425 Z M1.17225,25.78125 L-0.24275,27.19525 L-0.24275,27.19525 L1.17225,25.78125 Z M5.29225,29.90125 L7.29225,29.90125 L7.29225,29.07325 L6.70625,28.48725 L5.29225,29.90125 Z M16.00425,40.61325 L17.41825,39.19925 L16.83225,38.61325 L16.00425,38.61325 L16.00425,40.61325 Z M25.78125,44.73425 L24.36725,43.31925 L25.78125,44.73425 Z M29.90125,40.61325 L29.90125,38.61325 L29.07325,38.61325 L28.48725,39.19925 L29.90125,40.61325 Z M40.61425,29.90125 L39.19925,28.48725 L38.61425,29.07325 L38.61425,29.90125 L40.61425,29.90125 Z M44.73425,25.78125 L43.31925,24.36725 L44.73425,25.78125 Z M44.73425,20.12425 L43.31925,21.53825 L43.31925,21.53825 L44.73425,20.12425 Z M40.61425,16.00425 L38.61425,16.00425 L38.61425,16.83325 L39.19925,17.41825 L40.61425,16.00425 Z M29.90125,5.29225 L28.48725,6.70625 L29.07325,7.29225 L29.90125,7.29225 L29.90125,5.29225 Z M21.53825,2.58625 C22.31925,1.80525 23.58625,1.80525 24.36725,2.58625 L27.19525,-0.24275 C24.85225,-2.58575 21.05325,-2.58575 18.71025,-0.24275 L21.53825,2.58625 Z M17.41825,6.70625 L21.53825,2.58625 L18.71025,-0.24275 L14.59025,3.87725 L17.41825,6.70625 Z M9.29225,7.29225 L16.00425,7.29225 L16.00425,3.29225 L9.29225,3.29225 L9.29225,7.29225 Z M7.29225,9.29225 C7.29225,8.18725 8.18725,7.29225 9.29225,7.29225 L9.29225,3.29225 C5.97825,3.29225 3.29225,5.97825 3.29225,9.29225 L7.29225,9.29225 Z M7.29225,16.00425 L7.29225,9.29225 L3.29225,9.29225 L3.29225,16.00425 L7.29225,16.00425 Z M2.58625,21.53825 L6.70625,17.41825 L3.87825,14.59025 L-0.24275,18.71025 L2.58625,21.53825 Z M2.58625,24.36725 C1.80525,23.58625 1.80525,22.31925 2.58625,21.53825 L-0.24275,18.71025 C-2.58575,21.05325 -2.58575,24.85225 -0.24275,27.19525 L2.58625,24.36725 Z M6.70625,28.48725 L2.58625,24.36725 L-0.24275,27.19525 L3.87825,31.31525 L6.70625,28.48725 Z M7.29225,36.61325 L7.29225,29.90125 L3.29225,29.90125 L3.29225,36.61325 L7.29225,36.61325 Z M9.29225,38.61325 C8.18725,38.61325 7.29225,37.71825 7.29225,36.61325 L3.29225,36.61325 C3.29225,39.92725 5.97825,42.61325 9.29225,42.61325 L9.29225,38.61325 Z M16.00425,38.61325 L9.29225,38.61325 L9.29225,42.61325 L16.00425,42.61325 L16.00425,38.61325 Z M21.53825,43.31925 L17.41825,39.19925 L14.59025,42.02825 L18.71025,46.14825 L21.53825,43.31925 Z M24.36725,43.31925 C23.58625,44.10025 22.31925,44.10025 21.53825,43.31925 L18.71025,46.14825 C21.05325,48.49125 24.85225,48.49125 27.19525,46.14825 L24.36725,43.31925 Z M28.48725,39.19925 L24.36725,43.31925 L27.19525,46.14825 L31.31525,42.02825 L28.48725,39.19925 Z M36.61425,38.61325 L29.90125,38.61325 L29.90125,42.61325 L36.61425,42.61325 L36.61425,38.61325 Z M38.61425,36.61325 C38.61425,37.71825 37.71825,38.61325 36.61425,38.61325 L36.61425,42.61325 C39.92725,42.61325 42.61425,39.92725 42.61425,36.61325 L38.61425,36.61325 Z M38.61425,29.90125 L38.61425,36.61325 L42.61425,36.61325 L42.61425,29.90125 L38.61425,29.90125 Z M43.31925,24.36725 L39.19925,28.48725 L42.02825,31.31525 L46.14825,27.19525 L43.31925,24.36725 Z M43.31925,21.53825 C44.10025,22.31925 44.10025,23.58625 43.31925,24.36725 L46.14825,27.19525 C48.49125,24.85225 48.49125,21.05325 46.14825,18.71025 L43.31925,21.53825 Z M39.19925,17.41825 L43.31925,21.53825 L46.14825,18.71025 L42.02825,14.59025 L39.19925,17.41825 Z M38.61425,9.29225 L38.61425,16.00425 L42.61425,16.00425 L42.61425,9.29225 L38.61425,9.29225 Z M36.61425,7.29225 C37.71825,7.29225 38.61425,8.18725 38.61425,9.29225 L42.61425,9.29225 C42.61425,5.97825 39.92725,3.29225 36.61425,3.29225 L36.61425,7.29225 Z M29.90125,7.29225 L36.61425,7.29225 L36.61425,3.29225 L29.90125,3.29225 L29.90125,7.29225 Z M24.36725,2.58625 L28.48725,6.70625 L31.31525,3.87725 L27.19525,-0.24275 L24.36725,2.58625 Z" id="形状" fill="#003682" fill-rule="nonzero" mask="url(#mask-6)"></path>
            </g>
            <circle id="椭圆形" stroke="#003682" stroke-width="2" fill="#FFFFFF" fill-rule="nonzero" cx="336.085" cy="200.085" r="12.8971"></circle>
        </g>
    </g>
</svg>