<svg width="590" height="590" viewBox="0 0 590 590" fill="none" xmlns="http://www.w3.org/2000/svg">
<path d="M525.469 96.7853H253.504V248.906H525.469V96.7853Z" fill="white"/>
<path d="M525.469 96.7853H253.504V248.906H525.469V96.7853Z" stroke="#111B39" stroke-width="0.75" stroke-linejoin="round"/>
<path d="M460.926 96.7853H253.504V248.906H460.926V96.7853Z" fill="white"/>
<path d="M460.926 96.7853H253.504V248.906H460.926V96.7853Z" stroke="#111B39" stroke-width="0.75" stroke-linejoin="round"/>
<path d="M460.938 198.203H253.516V244.32H460.938V198.203Z" fill="white"/>
<path d="M460.938 198.203H253.516V244.32H460.938V198.203Z" stroke="#111B39" stroke-width="0.75" stroke-linejoin="round"/>
<path d="M318.047 230.469C318.047 231.38 317.777 232.272 317.27 233.03C316.764 233.788 316.044 234.378 315.201 234.727C314.359 235.076 313.432 235.167 312.538 234.99C311.644 234.812 310.823 234.373 310.178 233.728C309.534 233.083 309.095 232.262 308.917 231.368C308.739 230.474 308.83 229.547 309.179 228.705C309.528 227.863 310.119 227.143 310.877 226.636C311.635 226.13 312.526 225.859 313.437 225.859C314.66 225.859 315.832 226.345 316.697 227.209C317.561 228.074 318.047 229.246 318.047 230.469Z" fill="white"/>
<path d="M313.438 235.055C315.983 235.055 318.047 232.991 318.047 230.446C318.047 227.9 315.983 225.836 313.438 225.836C310.892 225.836 308.828 227.9 308.828 230.446C308.828 232.991 310.892 235.055 313.438 235.055Z" stroke="#111B39" stroke-width="0.75" stroke-linejoin="round"/>
<path d="M331.875 230.469C331.875 231.38 331.605 232.272 331.098 233.03C330.592 233.788 329.872 234.378 329.03 234.727C328.187 235.076 327.26 235.167 326.366 234.99C325.472 234.812 324.651 234.373 324.006 233.728C323.362 233.083 322.923 232.262 322.745 231.368C322.567 230.474 322.658 229.547 323.007 228.705C323.356 227.863 323.947 227.143 324.705 226.636C325.463 226.13 326.354 225.859 327.266 225.859C328.488 225.859 329.661 226.345 330.525 227.209C331.389 228.074 331.875 229.246 331.875 230.469Z" fill="white"/>
<path d="M327.266 235.055C329.811 235.055 331.875 232.991 331.875 230.446C331.875 227.9 329.811 225.836 327.266 225.836C324.72 225.836 322.656 227.9 322.656 230.446C322.656 232.991 324.72 235.055 327.266 235.055Z" stroke="#111B39" stroke-width="0.75" stroke-linejoin="round"/>
<path d="M345.703 230.469C345.703 231.38 345.433 232.272 344.926 233.03C344.42 233.788 343.7 234.378 342.858 234.727C342.015 235.076 341.089 235.167 340.194 234.99C339.3 234.812 338.479 234.373 337.834 233.728C337.19 233.083 336.751 232.262 336.573 231.368C336.395 230.474 336.486 229.547 336.835 228.705C337.184 227.863 337.775 227.143 338.533 226.636C339.291 226.13 340.182 225.859 341.094 225.859C342.316 225.859 343.489 226.345 344.353 227.209C345.217 228.074 345.703 229.246 345.703 230.469Z" fill="white"/>
<path d="M341.094 235.055C343.639 235.055 345.703 232.991 345.703 230.446C345.703 227.9 343.639 225.836 341.094 225.836C338.548 225.836 336.484 227.9 336.484 230.446C336.484 232.991 338.548 235.055 341.094 235.055Z" stroke="#111B39" stroke-width="0.75" stroke-linejoin="round"/>
<path d="M359.531 230.469C359.531 231.38 359.261 232.272 358.754 233.03C358.248 233.788 357.528 234.378 356.686 234.727C355.844 235.076 354.917 235.167 354.023 234.99C353.128 234.812 352.307 234.373 351.663 233.728C351.018 233.083 350.579 232.262 350.401 231.368C350.223 230.474 350.314 229.547 350.663 228.705C351.012 227.863 351.603 227.143 352.361 226.636C353.119 226.13 354.01 225.859 354.922 225.859C356.144 225.859 357.317 226.345 358.181 227.209C359.046 228.074 359.531 229.246 359.531 230.469Z" fill="#79A0D4"/>
<path d="M354.922 235.055C357.468 235.055 359.531 232.991 359.531 230.446C359.531 227.9 357.468 225.836 354.922 225.836C352.376 225.836 350.312 227.9 350.312 230.446C350.312 232.991 352.376 235.055 354.922 235.055Z" stroke="#111B39" stroke-width="0.75" stroke-linejoin="round"/>
<path d="M387.187 230.469C387.187 231.38 386.917 232.272 386.411 233.03C385.904 233.788 385.184 234.378 384.342 234.727C383.5 235.076 382.573 235.167 381.679 234.99C380.785 234.812 379.963 234.373 379.319 233.728C378.674 233.083 378.235 232.262 378.057 231.368C377.879 230.474 377.971 229.547 378.32 228.705C378.668 227.863 379.259 227.143 380.017 226.636C380.775 226.13 381.666 225.859 382.578 225.859C383.801 225.859 384.973 226.345 385.837 227.209C386.702 228.074 387.187 229.246 387.187 230.469Z" fill="#FFE9A5"/>
<path d="M382.578 235.055C385.124 235.055 387.188 232.991 387.188 230.446C387.188 227.9 385.124 225.836 382.578 225.836C380.032 225.836 377.969 227.9 377.969 230.446C377.969 232.991 380.032 235.055 382.578 235.055Z" stroke="#111B39" stroke-width="0.75" stroke-linejoin="round"/>
<path d="M401.016 230.469C401.016 231.38 400.745 232.272 400.239 233.03C399.732 233.788 399.012 234.378 398.17 234.727C397.328 235.076 396.401 235.167 395.507 234.99C394.613 234.812 393.792 234.373 393.147 233.728C392.502 233.083 392.063 232.262 391.885 231.368C391.708 230.474 391.799 229.547 392.148 228.705C392.497 227.863 393.087 227.143 393.845 226.636C394.603 226.13 395.495 225.859 396.406 225.859C397.629 225.859 398.801 226.345 399.666 227.209C400.53 228.074 401.016 229.246 401.016 230.469Z" fill="white"/>
<path d="M396.406 235.055C398.952 235.055 401.016 232.991 401.016 230.446C401.016 227.9 398.952 225.836 396.406 225.836C393.861 225.836 391.797 227.9 391.797 230.446C391.797 232.991 393.861 235.055 396.406 235.055Z" stroke="#111B39" stroke-width="0.75" stroke-linejoin="round"/>
<path d="M373.359 230.469C373.359 231.38 373.089 232.272 372.583 233.03C372.076 233.788 371.356 234.378 370.514 234.727C369.672 235.076 368.745 235.167 367.851 234.99C366.957 234.812 366.135 234.373 365.491 233.728C364.846 233.083 364.407 232.262 364.229 231.368C364.051 230.474 364.143 229.547 364.491 228.705C364.84 227.863 365.431 227.143 366.189 226.636C366.947 226.13 367.838 225.859 368.75 225.859C369.972 225.859 371.145 226.345 372.009 227.209C372.874 228.074 373.359 229.246 373.359 230.469Z" fill="white"/>
<path d="M368.75 235.055C371.296 235.055 373.359 232.991 373.359 230.446C373.359 227.9 371.296 225.836 368.75 225.836C366.204 225.836 364.141 227.9 364.141 230.446C364.141 232.991 366.204 235.055 368.75 235.055Z" stroke="#111B39" stroke-width="0.75" stroke-linejoin="round"/>
<path d="M525.457 96.7853H460.926V106.004H525.457V96.7853Z" fill="white"/>
<path d="M525.457 96.7853H460.926V106.004H525.457V96.7853Z" stroke="#111B39" stroke-width="0.75" stroke-linejoin="round"/>
<path d="M391.785 105.912H322.645V152.109H391.785V105.912Z" fill="white"/>
<path d="M391.785 105.912H322.645V152.109H391.785V105.912Z" stroke="#111B39" stroke-width="0.75" stroke-linejoin="round"/>
<path d="M368.75 126.758C368.75 129.037 368.074 131.265 366.808 133.16C365.542 135.055 363.742 136.532 361.636 137.404C359.531 138.276 357.214 138.504 354.978 138.06C352.743 137.615 350.69 136.518 349.078 134.906C347.467 133.295 346.369 131.241 345.925 129.006C345.48 126.771 345.708 124.454 346.58 122.348C347.452 120.242 348.929 118.443 350.825 117.176C352.72 115.91 354.947 115.234 357.227 115.234C360.283 115.234 363.214 116.448 365.375 118.61C367.536 120.771 368.75 123.702 368.75 126.758Z" fill="white"/>
<path d="M368.75 126.758C368.75 129.037 368.074 131.265 366.808 133.16C365.542 135.055 363.742 136.532 361.636 137.404C359.531 138.276 357.214 138.504 354.978 138.06C352.743 137.615 350.69 136.518 349.078 134.906C347.467 133.295 346.369 131.241 345.925 129.006C345.48 126.771 345.708 124.454 346.58 122.348C347.452 120.242 348.929 118.443 350.825 117.176C352.72 115.91 354.947 115.234 357.227 115.234C360.283 115.234 363.214 116.448 365.375 118.61C367.536 120.771 368.75 123.702 368.75 126.758Z" stroke="#111B39" stroke-width="0.75" stroke-linejoin="round"/>
<path d="M352.923 129.206V124.115H355.995V124.662H353.539V126.382H355.836V126.929H353.539V128.659H356.035V129.206H352.923ZM358.031 129.206L356.639 124.115H357.265L358.329 128.261H358.379L359.463 124.115H360.159L361.243 128.261H361.292L362.356 124.115H362.983L361.591 129.206H360.954L359.831 125.149H359.791L358.667 129.206H358.031Z" fill="#4C7CBF"/>
<path d="M391.797 147.5H322.656V152.109H391.797V147.5Z" fill="white"/>
<path d="M391.797 147.5H322.656V152.109H391.797V147.5Z" stroke="#111B39" stroke-width="0.75" stroke-linejoin="round"/>
<path d="M253.504 106.004H322.645L322.656 152.109L253.504 152.098V106.004Z" fill="white"/>
<path d="M253.504 106.004H322.645L322.656 152.109L253.504 152.098V106.004Z" stroke="#111B39" stroke-width="0.75" stroke-linejoin="round"/>
<path d="M299.609 126.758C299.609 129.037 298.934 131.265 297.667 133.16C296.401 135.055 294.601 136.532 292.496 137.404C290.39 138.276 288.073 138.504 285.838 138.06C283.603 137.615 281.549 136.518 279.938 134.906C278.326 133.295 277.229 131.241 276.784 129.006C276.339 126.771 276.567 124.454 277.44 122.348C278.312 120.242 279.789 118.443 281.684 117.176C283.579 115.91 285.807 115.234 288.086 115.234C291.142 115.234 294.073 116.448 296.234 118.61C298.395 120.771 299.609 123.702 299.609 126.758Z" fill="white"/>
<path d="M288.074 138.27C294.439 138.27 299.598 133.111 299.598 126.746C299.598 120.382 294.439 115.223 288.074 115.223C281.71 115.223 276.551 120.382 276.551 126.746C276.551 133.111 281.71 138.27 288.074 138.27Z" stroke="#111B39" stroke-width="0.75" stroke-linejoin="round"/>
<path d="M286.616 124.268C286.588 124.029 286.473 123.844 286.273 123.712C286.072 123.58 285.825 123.514 285.533 123.514C285.32 123.514 285.133 123.549 284.973 123.618C284.815 123.687 284.691 123.782 284.601 123.903C284.513 124.024 284.469 124.161 284.469 124.315C284.469 124.443 284.5 124.554 284.561 124.647C284.624 124.738 284.704 124.814 284.801 124.875C284.899 124.935 285.001 124.984 285.107 125.023C285.214 125.061 285.312 125.092 285.402 125.115L285.891 125.247C286.017 125.28 286.156 125.325 286.31 125.384C286.466 125.442 286.614 125.521 286.755 125.621C286.898 125.72 287.016 125.847 287.108 126.003C287.201 126.158 287.247 126.349 287.247 126.575C287.247 126.835 287.179 127.071 287.042 127.281C286.907 127.491 286.71 127.658 286.449 127.782C286.19 127.906 285.875 127.968 285.505 127.968C285.16 127.968 284.861 127.912 284.608 127.801C284.357 127.69 284.159 127.534 284.015 127.335C283.872 127.136 283.791 126.904 283.773 126.641H284.375C284.391 126.823 284.452 126.973 284.559 127.092C284.667 127.21 284.804 127.298 284.968 127.356C285.135 127.413 285.314 127.441 285.505 127.441C285.728 127.441 285.928 127.405 286.105 127.333C286.283 127.259 286.423 127.157 286.527 127.027C286.63 126.895 286.682 126.741 286.682 126.565C286.682 126.405 286.637 126.275 286.548 126.174C286.458 126.074 286.341 125.992 286.195 125.93C286.049 125.867 285.891 125.812 285.722 125.765L285.129 125.595C284.752 125.487 284.454 125.333 284.234 125.132C284.014 124.931 283.904 124.668 283.904 124.343C283.904 124.073 283.977 123.838 284.123 123.637C284.271 123.434 284.469 123.278 284.717 123.166C284.966 123.053 285.245 122.997 285.552 122.997C285.863 122.997 286.139 123.052 286.381 123.164C286.622 123.274 286.814 123.424 286.955 123.616C287.098 123.807 287.173 124.024 287.181 124.268H286.616ZM288.207 127.883V123.063H288.791V127.366H291.032V127.883H288.207Z" fill="#DD518D"/>
<path d="M322.656 147.488H253.504V152.109H322.656V147.488Z" fill="white"/>
<path d="M322.656 147.488H253.504V152.109H322.656V147.488Z" stroke="#111B39" stroke-width="0.75" stroke-linejoin="round"/>
<path d="M391.751 105.912H460.891V152.086L391.797 152.109L391.751 105.912Z" fill="white"/>
<path d="M391.751 105.912H460.891V152.086L391.797 152.109L391.751 105.912Z" stroke="#111B39" stroke-width="0.75" stroke-linejoin="round"/>
<path d="M437.891 126.758C437.891 129.037 437.215 131.265 435.949 133.16C434.682 135.055 432.883 136.532 430.777 137.404C428.671 138.276 426.354 138.504 424.119 138.06C421.884 137.615 419.83 136.518 418.219 134.906C416.607 133.295 415.51 131.241 415.065 129.006C414.621 126.771 414.849 124.454 415.721 122.348C416.593 120.242 418.07 118.443 419.965 117.176C421.86 115.91 424.088 115.234 426.367 115.234C429.423 115.234 432.354 116.448 434.516 118.61C436.677 120.771 437.891 123.702 437.891 126.758Z" fill="white"/>
<path d="M426.321 138.258C432.685 138.258 437.844 133.099 437.844 126.735C437.844 120.371 432.685 115.211 426.321 115.211C419.957 115.211 414.798 120.371 414.798 126.735C414.798 133.099 419.957 138.258 426.321 138.258Z" stroke="#111B39" stroke-width="0.75" stroke-linejoin="round"/>
<path d="M422.19 129.206V124.115H422.806V128.659H425.173V129.206H422.19ZM426.127 124.115H426.863L428.593 128.341H428.653L430.383 124.115H431.119V129.206H430.542V125.338H430.493L428.902 129.206H428.345L426.754 125.338H426.704V129.206H426.127V124.115Z" fill="#2A9A46"/>
<path d="M460.891 147.488H391.797V152.098H460.891V147.488Z" fill="white"/>
<path d="M460.891 147.488H391.797V152.098H460.891V147.488Z" stroke="#111B39" stroke-width="0.75" stroke-linejoin="round"/>
<path d="M322.656 152.109H391.797L391.751 198.203H322.656V152.109Z" fill="white"/>
<path d="M322.656 152.109H391.797L391.751 198.203H322.656V152.109Z" stroke="#111B39" stroke-width="0.75" stroke-linejoin="round"/>
<path d="M368.75 172.852C368.75 175.131 368.074 177.359 366.808 179.254C365.542 181.149 363.742 182.626 361.636 183.498C359.531 184.37 357.214 184.598 354.978 184.154C352.743 183.709 350.69 182.611 349.078 181C347.467 179.388 346.369 177.335 345.925 175.1C345.48 172.864 345.708 170.547 346.58 168.442C347.452 166.336 348.929 164.536 350.825 163.27C352.72 162.004 354.947 161.328 357.227 161.328C360.283 161.328 363.214 162.542 365.375 164.703C367.536 166.864 368.75 169.795 368.75 172.852Z" fill="white"/>
<path d="M357.18 184.352C363.545 184.352 368.704 179.193 368.704 172.829C368.704 166.464 363.545 161.305 357.18 161.305C350.816 161.305 345.657 166.464 345.657 172.829C345.657 179.193 350.816 184.352 357.18 184.352Z" stroke="#111B39" stroke-width="0.75" stroke-linejoin="round"/>
<path d="M357.088 171.35H356.472C356.435 171.173 356.372 171.017 356.28 170.883C356.191 170.749 356.082 170.636 355.952 170.545C355.825 170.452 355.683 170.383 355.527 170.336C355.371 170.29 355.209 170.267 355.04 170.267C354.732 170.267 354.453 170.344 354.202 170.5C353.954 170.656 353.756 170.886 353.608 171.189C353.462 171.492 353.389 171.864 353.389 172.305C353.389 172.746 353.462 173.118 353.608 173.421C353.756 173.724 353.954 173.954 354.202 174.11C354.453 174.265 354.732 174.343 355.04 174.343C355.209 174.343 355.371 174.32 355.527 174.274C355.683 174.227 355.825 174.159 355.952 174.067C356.082 173.975 356.191 173.861 356.28 173.727C356.372 173.591 356.435 173.435 356.472 173.259H357.088C357.042 173.52 356.957 173.752 356.835 173.958C356.712 174.163 356.56 174.338 356.377 174.482C356.195 174.625 355.99 174.734 355.763 174.808C355.538 174.883 355.297 174.92 355.04 174.92C354.606 174.92 354.22 174.814 353.882 174.602C353.544 174.39 353.278 174.088 353.084 173.697C352.89 173.306 352.793 172.842 352.793 172.305C352.793 171.768 352.89 171.304 353.084 170.913C353.278 170.522 353.544 170.22 353.882 170.008C354.22 169.796 354.606 169.69 355.04 169.69C355.297 169.69 355.538 169.727 355.763 169.802C355.99 169.876 356.195 169.986 356.377 170.13C356.56 170.272 356.712 170.446 356.835 170.652C356.957 170.856 357.042 171.089 357.088 171.35ZM357.915 174.85V174.403L360.66 170.306H357.886V169.759H361.396V170.207L358.651 174.304H361.425V174.85H357.915Z" fill="#DD518D"/>
<path d="M391.797 193.594H322.656V198.203H391.797V193.594Z" fill="white"/>
<path d="M391.797 193.594H322.656V198.203H391.797V193.594Z" stroke="#111B39" stroke-width="0.75" stroke-linejoin="round"/>
<path d="M322.656 152.109H253.504V198.203H322.656V152.109Z" fill="white"/>
<path d="M322.656 152.109H253.504V198.203H322.656V152.109Z" stroke="#111B39" stroke-width="0.75" stroke-linejoin="round"/>
<path d="M299.609 172.852C299.609 175.131 298.934 177.359 297.667 179.254C296.401 181.149 294.601 182.626 292.496 183.498C290.39 184.37 288.073 184.598 285.838 184.154C283.603 183.709 281.549 182.611 279.938 181C278.326 179.388 277.229 177.335 276.784 175.1C276.339 172.864 276.567 170.547 277.44 168.442C278.312 166.336 279.789 164.536 281.684 163.27C283.579 162.004 285.807 161.328 288.086 161.328C291.142 161.328 294.073 162.542 296.234 164.703C298.395 166.864 299.609 169.795 299.609 172.852Z" fill="white"/>
<path d="M288.04 184.352C294.404 184.352 299.563 179.193 299.563 172.829C299.563 166.464 294.404 161.305 288.04 161.305C281.676 161.305 276.516 166.464 276.516 172.829C276.516 179.193 281.676 184.352 288.04 184.352Z" stroke="#111B39" stroke-width="0.75" stroke-linejoin="round"/>
<path d="M283.816 174.839V169.748H286.889V170.295H284.433V172.015H286.73V172.562H284.433V174.292H286.929V174.839H283.816ZM290.784 171.021C290.754 170.769 290.633 170.573 290.421 170.434C290.209 170.295 289.949 170.225 289.641 170.225C289.415 170.225 289.218 170.262 289.049 170.335C288.882 170.408 288.751 170.508 288.656 170.635C288.563 170.763 288.517 170.908 288.517 171.07C288.517 171.206 288.549 171.323 288.614 171.421C288.68 171.517 288.765 171.597 288.868 171.662C288.97 171.725 289.078 171.777 289.191 171.819C289.303 171.858 289.407 171.891 289.501 171.916L290.018 172.055C290.151 172.09 290.299 172.138 290.461 172.199C290.625 172.26 290.782 172.344 290.931 172.45C291.082 172.554 291.206 172.689 291.304 172.853C291.401 173.017 291.45 173.218 291.45 173.457C291.45 173.732 291.378 173.98 291.234 174.203C291.092 174.425 290.883 174.601 290.608 174.732C290.334 174.863 290.002 174.928 289.611 174.928C289.246 174.928 288.931 174.87 288.664 174.752C288.399 174.634 288.19 174.47 288.037 174.26C287.887 174.049 287.801 173.805 287.781 173.526H288.418C288.434 173.719 288.499 173.878 288.612 174.004C288.726 174.128 288.87 174.221 289.044 174.282C289.22 174.342 289.409 174.372 289.611 174.372C289.846 174.372 290.057 174.333 290.245 174.257C290.432 174.179 290.58 174.072 290.69 173.934C290.799 173.795 290.854 173.632 290.854 173.447C290.854 173.278 290.806 173.14 290.712 173.034C290.618 172.928 290.493 172.842 290.339 172.776C290.185 172.709 290.018 172.651 289.84 172.602L289.213 172.423C288.815 172.308 288.5 172.145 288.268 171.933C288.036 171.721 287.92 171.443 287.92 171.1C287.92 170.815 287.998 170.567 288.152 170.354C288.307 170.141 288.516 169.975 288.778 169.857C289.042 169.738 289.336 169.678 289.661 169.678C289.989 169.678 290.28 169.737 290.536 169.855C290.791 169.971 290.993 170.13 291.142 170.332C291.293 170.534 291.372 170.764 291.381 171.021H290.784Z" fill="#2A9A46"/>
<path d="M322.656 193.594H253.516V198.203H322.656V193.594Z" fill="white"/>
<path d="M322.656 193.594H253.516V198.203H322.656V193.594Z" stroke="#111B39" stroke-width="0.75" stroke-linejoin="round"/>
<path d="M460.891 152.098H391.797V198.192H460.891V152.098Z" fill="white"/>
<path d="M460.891 152.098H391.797V198.192H460.891V152.098Z" stroke="#111B39" stroke-width="0.75" stroke-linejoin="round"/>
<path d="M437.891 172.852C437.891 175.131 437.215 177.359 435.949 179.254C434.682 181.149 432.883 182.626 430.777 183.498C428.671 184.37 426.354 184.598 424.119 184.154C421.884 183.709 419.83 182.611 418.219 181C416.607 179.388 415.51 177.335 415.065 175.1C414.621 172.864 414.849 170.547 415.721 168.442C416.593 166.336 418.07 164.536 419.965 163.27C421.86 162.004 424.088 161.328 426.367 161.328C429.423 161.328 432.354 162.542 434.516 164.703C436.677 166.864 437.891 169.795 437.891 172.852Z" fill="white"/>
<path d="M426.321 184.352C432.685 184.352 437.844 179.193 437.844 172.829C437.844 166.464 432.685 161.305 426.321 161.305C419.957 161.305 414.798 166.464 414.798 172.829C414.798 179.193 419.957 184.352 426.321 184.352Z" stroke="#111B39" stroke-width="0.75" stroke-linejoin="round"/>
<path d="M422.19 174.85V169.759H423.91C424.31 169.759 424.636 169.832 424.89 169.976C425.145 170.118 425.334 170.311 425.456 170.555C425.579 170.799 425.64 171.07 425.64 171.37C425.64 171.67 425.579 171.943 425.456 172.188C425.335 172.433 425.148 172.629 424.895 172.775C424.641 172.919 424.316 172.991 423.92 172.991H422.687V172.444H423.9C424.174 172.444 424.393 172.397 424.559 172.302C424.725 172.208 424.845 172.08 424.919 171.92C424.996 171.757 425.034 171.574 425.034 171.37C425.034 171.166 424.996 170.984 424.919 170.823C424.845 170.663 424.724 170.537 424.556 170.446C424.389 170.353 424.167 170.306 423.89 170.306H422.806V174.85H422.19ZM428.204 174.85H426.633V169.759H428.274C428.768 169.759 429.19 169.861 429.542 170.065C429.893 170.267 430.162 170.558 430.35 170.938C430.537 171.316 430.63 171.768 430.63 172.295C430.63 172.825 430.536 173.282 430.347 173.665C430.158 174.046 429.883 174.339 429.522 174.545C429.161 174.748 428.721 174.85 428.204 174.85ZM427.25 174.304H428.165C428.586 174.304 428.934 174.222 429.211 174.06C429.488 173.897 429.694 173.666 429.83 173.366C429.966 173.066 430.034 172.709 430.034 172.295C430.034 171.884 429.967 171.53 429.833 171.234C429.698 170.935 429.498 170.707 429.231 170.547C428.964 170.387 428.632 170.306 428.234 170.306H427.25V174.304Z" fill="#4C7CBF"/>
<path d="M460.891 193.582H391.797V198.192H460.891V193.582Z" fill="white"/>
<path d="M460.891 193.582H391.797V198.192H460.891V193.582Z" stroke="#111B39" stroke-width="0.75" stroke-linejoin="round"/>
<path d="M525.469 96.7969H253.516V92.1875C253.516 90.965 254.001 89.7926 254.866 88.9282C255.73 88.0638 256.903 87.5781 258.125 87.5781H520.859C522.082 87.5781 523.254 88.0638 524.119 88.9282C524.983 89.7926 525.469 90.965 525.469 92.1875V96.7969Z" fill="white"/>
<path d="M525.469 96.7969H253.516V92.1875C253.516 90.965 254.001 89.7926 254.866 88.9282C255.73 88.0638 256.903 87.5781 258.125 87.5781H520.859C522.082 87.5781 523.254 88.0638 524.119 88.9282C524.983 89.7926 525.469 90.965 525.469 92.1875V96.7969Z" stroke="#111B39" stroke-width="0.75" stroke-linejoin="round"/>
<path d="M265.039 92.1875C265.039 92.6433 264.904 93.0889 264.651 93.4679C264.397 93.8469 264.037 94.1423 263.616 94.3167C263.195 94.4912 262.732 94.5368 262.285 94.4479C261.838 94.359 261.427 94.1395 261.105 93.8172C260.782 93.4948 260.563 93.0842 260.474 92.6371C260.385 92.1901 260.431 91.7267 260.605 91.3055C260.78 90.8844 261.075 90.5245 261.454 90.2712C261.833 90.018 262.279 89.8828 262.734 89.8828C263.346 89.8828 263.932 90.1256 264.364 90.5578C264.796 90.9901 265.039 91.5763 265.039 92.1875Z" fill="white"/>
<path d="M262.723 94.5037C263.996 94.5037 265.028 93.4719 265.028 92.199C265.028 90.9262 263.996 89.8943 262.723 89.8943C261.45 89.8943 260.418 90.9262 260.418 92.199C260.418 93.4719 261.45 94.5037 262.723 94.5037Z" stroke="#111B39" stroke-width="0.75" stroke-linejoin="round"/>
<path d="M271.953 92.1875C271.953 92.6433 271.818 93.0889 271.565 93.4679C271.311 93.8469 270.952 94.1423 270.53 94.3167C270.109 94.4912 269.646 94.5368 269.199 94.4479C268.752 94.359 268.341 94.1395 268.019 93.8172C267.696 93.4948 267.477 93.0842 267.388 92.6371C267.299 92.1901 267.345 91.7267 267.519 91.3055C267.694 90.8844 267.989 90.5245 268.368 90.2712C268.747 90.018 269.193 89.8828 269.648 89.8828C270.26 89.8828 270.846 90.1256 271.278 90.5578C271.71 90.9901 271.953 91.5763 271.953 92.1875Z" fill="white"/>
<path d="M269.637 94.5037C270.91 94.5037 271.942 93.4719 271.942 92.199C271.942 90.9262 270.91 89.8943 269.637 89.8943C268.364 89.8943 267.332 90.9262 267.332 92.199C267.332 93.4719 268.364 94.5037 269.637 94.5037Z" stroke="#111B39" stroke-width="0.75" stroke-linejoin="round"/>
<path d="M278.867 92.1875C278.867 92.6433 278.732 93.0889 278.479 93.4679C278.226 93.8469 277.866 94.1423 277.444 94.3167C277.023 94.4912 276.56 94.5368 276.113 94.4479C275.666 94.359 275.255 94.1395 274.933 93.8172C274.611 93.4948 274.391 93.0842 274.302 92.6371C274.213 92.1901 274.259 91.7267 274.433 91.3055C274.608 90.8844 274.903 90.5245 275.282 90.2712C275.661 90.018 276.107 89.8828 276.562 89.8828C277.174 89.8828 277.76 90.1256 278.192 90.5578C278.624 90.9901 278.867 91.5763 278.867 92.1875Z" fill="white"/>
<path d="M276.551 94.5037C277.824 94.5037 278.856 93.4719 278.856 92.199C278.856 90.9262 277.824 89.8943 276.551 89.8943C275.278 89.8943 274.246 90.9262 274.246 92.199C274.246 93.4719 275.278 94.5037 276.551 94.5037Z" stroke="#111B39" stroke-width="0.75" stroke-linejoin="round"/>
<path d="M470.11 101.383H507.02" stroke="#111B39" stroke-width="0.75" stroke-linejoin="round"/>
<path d="M396.36 149.793H424.016" stroke="#111B39" stroke-width="0.75" stroke-linejoin="round"/>
<path d="M327.323 149.793H354.98" stroke="#111B39" stroke-width="0.75" stroke-linejoin="round"/>
<path d="M258.114 149.793H285.77" stroke="#111B39" stroke-width="0.75" stroke-linejoin="round"/>
<path d="M396.36 195.875H424.016" stroke="#111B39" stroke-width="0.75" stroke-linejoin="round"/>
<path d="M327.323 195.875H354.98" stroke="#111B39" stroke-width="0.75" stroke-linejoin="round"/>
<path d="M258.114 195.875H285.77" stroke="#111B39" stroke-width="0.75" stroke-linejoin="round"/>
<path d="M354.922 133.672H82.9688V129.062C82.9688 127.84 83.4544 126.668 84.3188 125.803C85.1832 124.939 86.3556 124.453 87.5781 124.453H350.312C351.535 124.453 352.707 124.939 353.572 125.803C354.436 126.668 354.922 127.84 354.922 129.062V133.672Z" fill="white"/>
<path d="M354.922 133.672H82.9688V129.062C82.9688 127.84 83.4544 126.668 84.3188 125.803C85.1832 124.939 86.3556 124.453 87.5781 124.453H350.312C351.535 124.453 352.707 124.939 353.572 125.803C354.436 126.668 354.922 127.84 354.922 129.062V133.672Z" stroke="#111B39" stroke-width="0.75" stroke-linejoin="round"/>
<path d="M94.4922 129.062C94.4922 129.518 94.357 129.964 94.1038 130.343C93.8505 130.722 93.4906 131.017 93.0695 131.192C92.6483 131.366 92.1849 131.412 91.7379 131.323C91.2908 131.234 90.8802 131.014 90.5578 130.692C90.2355 130.37 90.016 129.959 89.9271 129.512C89.8382 129.065 89.8838 128.602 90.0583 128.181C90.2327 127.759 90.5281 127.399 90.9071 127.146C91.2861 126.893 91.7317 126.758 92.1875 126.758C92.7987 126.758 93.3849 127.001 93.8172 127.433C94.2494 127.865 94.4922 128.451 94.4922 129.062Z" fill="white"/>
<path d="M92.1646 131.356C93.4374 131.356 94.4692 130.324 94.4692 129.051C94.4692 127.778 93.4374 126.746 92.1646 126.746C90.8917 126.746 89.8599 127.778 89.8599 129.051C89.8599 130.324 90.8917 131.356 92.1646 131.356Z" stroke="#111B39" stroke-width="0.75" stroke-linejoin="round"/>
<path d="M101.406 129.062C101.406 129.518 101.271 129.964 101.018 130.343C100.765 130.722 100.405 131.017 99.9835 131.192C99.5624 131.366 99.099 131.412 98.6519 131.323C98.2049 131.234 97.7942 131.014 97.4719 130.692C97.1496 130.37 96.9301 129.959 96.8412 129.512C96.7522 129.065 96.7979 128.602 96.9723 128.181C97.1467 127.759 97.4421 127.399 97.8212 127.146C98.2002 126.893 98.6457 126.758 99.1016 126.758C99.7128 126.758 100.299 127.001 100.731 127.433C101.163 127.865 101.406 128.451 101.406 129.062Z" fill="white"/>
<path d="M99.0786 131.356C100.351 131.356 101.383 130.324 101.383 129.051C101.383 127.778 100.351 126.746 99.0786 126.746C97.8058 126.746 96.7739 127.778 96.7739 129.051C96.7739 130.324 97.8058 131.356 99.0786 131.356Z" stroke="#111B39" stroke-width="0.75" stroke-linejoin="round"/>
<path d="M108.32 129.062C108.32 129.518 108.185 129.964 107.932 130.343C107.679 130.722 107.319 131.017 106.898 131.192C106.476 131.366 106.013 131.412 105.566 131.323C105.119 131.234 104.708 131.014 104.386 130.692C104.064 130.37 103.844 129.959 103.755 129.512C103.666 129.065 103.712 128.602 103.886 128.181C104.061 127.759 104.356 127.399 104.735 127.146C105.114 126.893 105.56 126.758 106.016 126.758C106.627 126.758 107.213 127.001 107.645 127.433C108.077 127.865 108.32 128.451 108.32 129.062Z" fill="white"/>
<path d="M105.993 131.356C107.266 131.356 108.297 130.324 108.297 129.051C108.297 127.778 107.266 126.746 105.993 126.746C104.72 126.746 103.688 127.778 103.688 129.051C103.688 130.324 104.72 131.356 105.993 131.356Z" stroke="#111B39" stroke-width="0.75" stroke-linejoin="round"/>
<path d="M354.91 133.66H82.9573V142.879H354.91V133.66Z" fill="white"/>
<path d="M354.91 133.66H82.9573V142.879H354.91V133.66Z" stroke="#111B39" stroke-width="0.75" stroke-linejoin="round"/>
<path d="M354.91 142.879H92.176V152.098H354.91V142.879Z" fill="white"/>
<path d="M354.91 142.879H92.176V152.098H354.91V142.879Z" stroke="#111B39" stroke-width="0.75" stroke-linejoin="round"/>
<path d="M354.91 152.098H92.176V285.77H354.91V152.098Z" fill="white"/>
<path d="M354.91 152.098H92.176V285.77H354.91V152.098Z" stroke="#111B39" stroke-width="0.75" stroke-linejoin="round"/>
<path d="M92.176 142.879H82.9573V285.77H92.176V142.879Z" fill="white"/>
<path d="M92.176 142.879H82.9573V285.77H92.176V142.879Z" stroke="#111B39" stroke-width="0.75" stroke-linejoin="round"/>
<path d="M331.864 156.707H115.223V285.77H331.864V156.707Z" fill="white"/>
<path d="M331.864 156.707H115.223V285.77H331.864V156.707Z" stroke="#111B39" stroke-width="0.75" stroke-linejoin="round"/>
<path d="M89.5832 281.172C89.5901 281.573 89.4774 281.966 89.2595 282.303C89.0416 282.639 88.7284 282.903 88.3599 283.061C87.9914 283.218 87.5843 283.262 87.1905 283.188C86.7968 283.113 86.4342 282.922 86.1492 282.641C85.8642 282.359 85.6696 281.999 85.5902 281.606C85.5109 281.213 85.5504 280.805 85.7037 280.435C85.8571 280.065 86.1173 279.748 86.4511 279.527C86.785 279.305 87.1773 279.188 87.5781 279.19C88.105 279.193 88.6099 279.402 88.9846 279.772C89.3593 280.143 89.5742 280.645 89.5832 281.172Z" fill="white"/>
<path d="M87.5667 283.223C88.6804 283.223 89.5833 282.32 89.5833 281.206C89.5833 280.093 88.6804 279.19 87.5667 279.19C86.4529 279.19 85.55 280.093 85.55 281.206C85.55 282.32 86.4529 283.223 87.5667 283.223Z" stroke="#111B39" stroke-width="0.75" stroke-linejoin="round"/>
<path d="M89.5833 145.483H85.55V149.517H89.5833V145.483Z" fill="white"/>
<path d="M89.5833 145.483H85.55V149.517H89.5833V145.483Z" stroke="#111B39" stroke-width="0.75" stroke-linejoin="round"/>
<path d="M89.5833 154.691H85.55V158.724H89.5833V154.691Z" fill="white"/>
<path d="M89.5833 154.691H85.55V158.724H89.5833V154.691Z" stroke="#111B39" stroke-width="0.75" stroke-linejoin="round"/>
<path d="M89.5833 163.898H85.55V167.931H89.5833V163.898Z" fill="white"/>
<path d="M89.5833 163.898H85.55V167.931H89.5833V163.898Z" stroke="#111B39" stroke-width="0.75" stroke-linejoin="round"/>
<path d="M138.27 170.535H129.051V179.754H138.27V170.535Z" fill="#B7C1D9"/>
<path d="M138.27 170.535H129.051V179.754H138.27V170.535Z" stroke="#111B39" stroke-width="0.75" stroke-linejoin="round"/>
<path d="M152.098 170.535H142.879V179.754H152.098V170.535Z" fill="#B7C1D9"/>
<path d="M152.098 170.535H142.879V179.754H152.098V170.535Z" stroke="#111B39" stroke-width="0.75" stroke-linejoin="round"/>
<path d="M165.926 170.558H156.707V179.777H165.926V170.558Z" fill="#B7C1D9"/>
<path d="M165.926 170.558H156.707V179.777H165.926V170.558Z" stroke="#111B39" stroke-width="0.75" stroke-linejoin="round"/>
<path d="M179.754 170.558H170.535V179.777H179.754V170.558Z" fill="#B7C1D9"/>
<path d="M179.754 170.558H170.535V179.777H179.754V170.558Z" stroke="#111B39" stroke-width="0.75" stroke-linejoin="round"/>
<path d="M193.582 170.558H184.364V179.777H193.582V170.558Z" fill="#B7C1D9"/>
<path d="M193.582 170.558H184.364V179.777H193.582V170.558Z" stroke="#111B39" stroke-width="0.75" stroke-linejoin="round"/>
<path d="M235.067 202.801H225.848V212.02H235.067V202.801Z" fill="#79A0D4"/>
<path d="M235.067 202.801H225.848V212.02H235.067V202.801Z" stroke="#111B39" stroke-width="0.75" stroke-linejoin="round"/>
<path d="M248.895 202.801H239.676V212.02H248.895V202.801Z" fill="#79A0D4"/>
<path d="M248.895 202.801H239.676V212.02H248.895V202.801Z" stroke="#111B39" stroke-width="0.75" stroke-linejoin="round"/>
<path d="M262.723 202.801H253.504V212.02H262.723V202.801Z" fill="#79A0D4"/>
<path d="M262.723 202.801H253.504V212.02H262.723V202.801Z" stroke="#111B39" stroke-width="0.75" stroke-linejoin="round"/>
<path d="M276.551 202.801H267.332V212.02H276.551V202.801Z" fill="#79A0D4"/>
<path d="M276.551 202.801H267.332V212.02H276.551V202.801Z" stroke="#111B39" stroke-width="0.75" stroke-linejoin="round"/>
<path d="M290.379 202.801H281.16V212.02H290.379V202.801Z" fill="#79A0D4"/>
<path d="M290.379 202.801H281.16V212.02H290.379V202.801Z" stroke="#111B39" stroke-width="0.75" stroke-linejoin="round"/>
<path d="M235.067 216.629H225.848V225.848H235.067V216.629Z" fill="#FFE9A5"/>
<path d="M235.067 216.629H225.848V225.848H235.067V216.629Z" stroke="#111B39" stroke-width="0.75" stroke-linejoin="round"/>
<path d="M248.895 216.629H239.676V225.848H248.895V216.629Z" fill="#FFE9A5"/>
<path d="M248.895 216.629H239.676V225.848H248.895V216.629Z" stroke="#111B39" stroke-width="0.75" stroke-linejoin="round"/>
<path d="M262.723 216.629H253.504V225.848H262.723V216.629Z" fill="#FFE9A5"/>
<path d="M262.723 216.629H253.504V225.848H262.723V216.629Z" stroke="#111B39" stroke-width="0.75" stroke-linejoin="round"/>
<path d="M235.067 230.457H225.848V239.676H235.067V230.457Z" fill="#FFE9A5"/>
<path d="M235.067 230.457H225.848V239.676H235.067V230.457Z" stroke="#111B39" stroke-width="0.75" stroke-linejoin="round"/>
<path d="M248.895 230.457H239.676V239.676H248.895V230.457Z" fill="#FFE9A5"/>
<path d="M248.895 230.457H239.676V239.676H248.895V230.457Z" stroke="#111B39" stroke-width="0.75" stroke-linejoin="round"/>
<path d="M235.067 244.285H225.848V253.504H235.067V244.285Z" fill="#FFE9A5"/>
<path d="M235.067 244.285H225.848V253.504H235.067V244.285Z" stroke="#111B39" stroke-width="0.75" stroke-linejoin="round"/>
<path d="M248.895 244.285H239.676V253.504H248.895V244.285Z" fill="#FFE9A5"/>
<path d="M248.895 244.285H239.676V253.504H248.895V244.285Z" stroke="#111B39" stroke-width="0.75" stroke-linejoin="round"/>
<path d="M262.723 230.457H253.504V239.676H262.723V230.457Z" fill="#FFE9A5"/>
<path d="M262.723 230.457H253.504V239.676H262.723V230.457Z" stroke="#111B39" stroke-width="0.75" stroke-linejoin="round"/>
<path d="M276.551 216.629H267.332V225.848H276.551V216.629Z" fill="#FFE9A5"/>
<path d="M276.551 216.629H267.332V225.848H276.551V216.629Z" stroke="#111B39" stroke-width="0.75" stroke-linejoin="round"/>
<path d="M290.379 216.629H281.16V225.848H290.379V216.629Z" fill="#FFE9A5"/>
<path d="M290.379 216.629H281.16V225.848H290.379V216.629Z" stroke="#111B39" stroke-width="0.75" stroke-linejoin="round"/>
<path d="M89.2952 172.84H85.262V176.873H89.2952V172.84Z" fill="white"/>
<path d="M89.2952 172.84H85.262V176.873H89.2952V172.84Z" stroke="#111B39" stroke-width="0.75" stroke-linejoin="round"/>
<path d="M350.301 258.113H313.426V281.16H350.301V258.113Z" stroke="#111B39" stroke-width="0.75" stroke-linejoin="round"/>
<path d="M202.801 188.973H129.051V271.919H202.801V188.973Z" fill="white"/>
<path d="M202.801 188.973H129.051V271.919H202.801V188.973Z" stroke="#111B39" stroke-width="0.75" stroke-linejoin="round"/>
<path d="M165.926 193.582V262.723" stroke="#111B39" stroke-width="0.75" stroke-linejoin="round"/>
<path d="M198.192 225.848H133.66" stroke="#111B39" stroke-width="0.75" stroke-linejoin="round"/>
<path d="M142.879 207.41H133.66V216.629H142.879V207.41Z" fill="#79A0D4"/>
<path d="M142.879 207.41H133.66V216.629H142.879V207.41Z" stroke="#111B39" stroke-width="0.75" stroke-linejoin="round"/>
<path d="M161.317 230.457H152.098V239.676H161.317V230.457Z" fill="#79A0D4"/>
<path d="M161.317 230.457H152.098V239.676H161.317V230.457Z" stroke="#111B39" stroke-width="0.75" stroke-linejoin="round"/>
<path d="M161.317 244.285H152.098V253.504H161.317V244.285Z" fill="#79A0D4"/>
<path d="M161.317 244.285H152.098V253.504H161.317V244.285Z" stroke="#111B39" stroke-width="0.75" stroke-linejoin="round"/>
<path d="M147.489 212.02H138.27V221.238H147.489V212.02Z" fill="#79A0D4"/>
<path d="M147.489 212.02H138.27V221.238H147.489V212.02Z" stroke="#111B39" stroke-width="0.75" stroke-linejoin="round"/>
<path d="M161.317 212.02H152.098V221.238H161.317V212.02Z" fill="#B7C1D9"/>
<path d="M161.317 212.02H152.098V221.238H161.317V212.02Z" stroke="#111B39" stroke-width="0.75" stroke-linejoin="round"/>
<path d="M198.192 202.801H188.973V212.02H198.192V202.801Z" fill="#B7C1D9"/>
<path d="M198.192 202.801H188.973V212.02H198.192V202.801Z" stroke="#111B39" stroke-width="0.75" stroke-linejoin="round"/>
<path d="M179.754 248.895H170.535V258.113H179.754V248.895Z" fill="#B7C1D9"/>
<path d="M179.754 248.895H170.535V258.113H179.754V248.895Z" stroke="#111B39" stroke-width="0.75" stroke-linejoin="round"/>
<path d="M188.973 235.067H179.754V244.285H188.973V235.067Z" fill="#B7C1D9"/>
<path d="M188.973 235.067H179.754V244.285H188.973V235.067Z" stroke="#111B39" stroke-width="0.75" stroke-linejoin="round"/>
<path d="M142.879 230.457H133.66V239.676H142.879V230.457Z" fill="#B7C1D9"/>
<path d="M142.879 230.457H133.66V239.676H142.879V230.457Z" stroke="#111B39" stroke-width="0.75" stroke-linejoin="round"/>
<path d="M147.489 248.895H138.27V258.113H147.489V248.895Z" fill="#B7C1D9"/>
<path d="M147.489 248.895H138.27V258.113H147.489V248.895Z" stroke="#111B39" stroke-width="0.75" stroke-linejoin="round"/>
<path d="M156.707 193.582H147.489V202.801H156.707V193.582Z" fill="#FFE9A5"/>
<path d="M156.707 193.582H147.489V202.801H156.707V193.582Z" stroke="#111B39" stroke-width="0.75" stroke-linejoin="round"/>
<path d="M161.317 198.192H152.098V207.41H161.317V198.192Z" fill="#FFE9A5"/>
<path d="M161.317 198.192H152.098V207.41H161.317V198.192Z" stroke="#111B39" stroke-width="0.75" stroke-linejoin="round"/>
<path d="M96.7739 147.488H133.66" stroke="#111B39" stroke-width="0.75" stroke-linejoin="round"/>
<path d="M345.692 147.488H327.323" stroke="#111B39" stroke-width="0.75" stroke-linejoin="round"/>
<path d="M322.541 147.488H304.173" stroke="#111B39" stroke-width="0.75" stroke-linejoin="round"/>
<path d="M350.301 488.582L364.129 382.567" stroke="#111B39" stroke-width="0.75" stroke-linejoin="round"/>
<path d="M101.395 488.582L114.382 383.5" stroke="#111B39" stroke-width="0.75" stroke-linejoin="round"/>
<path d="M295 368.75H221.25V323.809C221.25 322.28 221.857 320.815 222.938 319.734C224.018 318.654 225.484 318.047 227.012 318.047H289.238C290.766 318.047 292.232 318.654 293.312 319.734C294.393 320.815 295 322.28 295 323.809V368.75Z" fill="white"/>
<path d="M295 368.75H221.25V323.809C221.25 322.28 221.857 320.815 222.938 319.734C224.018 318.654 225.484 318.047 227.012 318.047H289.238C290.766 318.047 292.232 318.654 293.312 319.734C294.393 320.815 295 322.28 295 323.809V368.75Z" stroke="#111B39" stroke-width="0.75" stroke-linejoin="round"/>
<path d="M290.379 322.645H225.848V364.129H290.379V322.645Z" fill="white"/>
<path d="M290.379 322.645H225.848V364.129H290.379V322.645Z" stroke="#111B39" stroke-width="0.75" stroke-linejoin="round"/>
<path d="M295.669 366.445H208.01V368.738H295.669V366.445Z" fill="white"/>
<path d="M295.669 366.445H208.01V368.738H295.669V366.445Z" stroke="#111B39" stroke-width="0.75" stroke-linejoin="round"/>
<path d="M401.004 368.738H110.614V382.567H401.004V368.738Z" fill="white"/>
<path d="M401.004 368.738H110.614V382.567H401.004V368.738Z" stroke="#111B39" stroke-width="0.75" stroke-linejoin="round"/>
<path d="M401.004 368.738V488.582" stroke="#111B39" stroke-width="0.75" stroke-linejoin="round"/>
<path d="M152.098 382.567V493.192" stroke="#111B39" stroke-width="0.75" stroke-linejoin="round"/>
<path d="M313.438 368.75C311.443 367.254 309.017 366.445 306.523 366.445C304.03 366.445 301.604 367.254 299.609 368.75H313.438Z" fill="white"/>
<path d="M313.438 368.75C311.443 367.254 309.017 366.445 306.523 366.445C304.03 366.445 301.604 367.254 299.609 368.75H313.438Z" stroke="#111B39" stroke-width="0.75" stroke-linejoin="round"/>
<path d="M201.925 490.553L183.084 480.527L182.416 468.785H167.09L168.242 490.138C168.283 490.955 168.636 491.726 169.227 492.292C169.819 492.857 170.604 493.175 171.423 493.18H200.888C201.193 493.178 201.49 493.083 201.738 492.907C201.987 492.731 202.176 492.483 202.279 492.197C202.382 491.91 202.394 491.599 202.315 491.304C202.235 491.01 202.067 490.748 201.833 490.553" fill="#B7C1D9"/>
<path d="M201.925 490.553L183.084 480.527L182.416 468.785H167.09L168.242 490.138C168.283 490.955 168.636 491.726 169.227 492.292C169.819 492.857 170.604 493.175 171.423 493.18H200.888C201.201 493.198 201.511 493.118 201.775 492.949C202.039 492.781 202.243 492.533 202.358 492.242C202.473 491.951 202.493 491.631 202.415 491.327C202.338 491.024 202.166 490.753 201.925 490.553V490.553Z" stroke="#111B39" stroke-width="0.75" stroke-linejoin="round"/>
<path d="M188.973 470.145H165.926L156.707 414.832H179.754L188.973 470.145Z" fill="white"/>
<path d="M188.973 470.145H165.926L156.707 414.832H179.754L188.973 470.145Z" stroke="#111B39" stroke-width="0.75" stroke-linejoin="round"/>
<path d="M238.72 490.553L219.879 480.527L219.21 468.785H203.965L205.117 490.138C205.158 490.955 205.511 491.726 206.102 492.292C206.694 492.857 207.479 493.175 208.298 493.18H237.763C238.068 493.178 238.365 493.083 238.613 492.907C238.862 492.731 239.051 492.483 239.154 492.197C239.257 491.91 239.269 491.599 239.19 491.304C239.11 491.01 238.942 490.748 238.708 490.553" fill="#B7C1D9"/>
<path d="M238.72 490.553L219.879 480.527L219.21 468.785H203.965L205.117 490.138C205.158 490.955 205.511 491.726 206.102 492.292C206.694 492.857 207.479 493.175 208.298 493.18H237.763C238.069 493.181 238.367 493.087 238.618 492.912C238.868 492.737 239.059 492.489 239.163 492.202C239.268 491.915 239.281 491.602 239.202 491.307C239.123 491.012 238.954 490.749 238.72 490.553V490.553Z" stroke="#111B39" stroke-width="0.75" stroke-linejoin="round"/>
<path d="M225.859 470.156L216.641 414.844C215.166 406.259 209.485 401.016 200.911 401.016H135.504C134.11 399.127 132.292 397.593 130.197 396.536C128.101 395.479 125.786 394.929 123.439 394.931C121.528 394.931 119.635 395.308 117.869 396.039C116.104 396.771 114.499 397.843 113.148 399.194C111.796 400.546 110.724 402.15 109.993 403.916C109.261 405.682 108.885 407.574 108.885 409.485C108.885 411.397 109.261 413.289 109.993 415.055C110.724 416.821 111.796 418.425 113.148 419.777C114.499 421.128 116.104 422.2 117.869 422.932C119.635 423.663 121.528 424.039 123.439 424.039H195.046L202.813 470.156H225.859Z" fill="white"/>
<path d="M225.859 470.156L216.641 414.844C215.166 406.259 209.485 401.016 200.911 401.016H135.504C134.11 399.127 132.292 397.593 130.197 396.536C128.101 395.479 125.786 394.929 123.439 394.931C121.528 394.931 119.635 395.308 117.869 396.039C116.104 396.771 114.499 397.843 113.148 399.194C111.796 400.546 110.724 402.15 109.993 403.916C109.261 405.682 108.885 407.574 108.885 409.485C108.885 411.397 109.261 413.289 109.993 415.055C110.724 416.821 111.796 418.425 113.148 419.777C114.499 421.128 116.104 422.2 117.869 422.932C119.635 423.663 121.528 424.039 123.439 424.039H195.046L202.813 470.156H225.859Z" stroke="#111B39" stroke-width="0.75" stroke-linejoin="round"/>
<path d="M233.281 356.754L241.531 360.211C241.647 360.26 241.75 360.334 241.833 360.428C241.915 360.523 241.975 360.634 242.009 360.755C242.042 360.876 242.047 361.003 242.025 361.126C242.002 361.25 241.951 361.366 241.877 361.467C241.624 361.803 241.284 362.063 240.894 362.219C240.505 362.375 240.079 362.422 239.665 362.354L232.681 360.28" fill="white"/>
<path d="M233.281 356.754L241.531 360.211C241.647 360.26 241.75 360.334 241.833 360.428C241.915 360.523 241.975 360.634 242.009 360.755C242.042 360.876 242.047 361.003 242.025 361.126C242.002 361.25 241.951 361.366 241.877 361.467C241.624 361.803 241.284 362.063 240.894 362.219C240.505 362.375 240.079 362.422 239.665 362.354L232.681 360.28" stroke="#111B39" stroke-width="0.75" stroke-linejoin="round"/>
<path d="M248.077 357.618L234.79 354.668C234.574 354.619 234.351 354.614 234.133 354.654C233.915 354.693 233.707 354.777 233.523 354.899L224.304 361.075L184.871 360.799L162.031 322.495L144.746 326.275L172.702 374.005C173.3 375.024 174.196 375.835 175.27 376.327C176.344 376.82 177.543 376.971 178.706 376.759L224.212 368.496H224.315C226.657 368.499 228.923 367.665 230.706 366.147C232.488 364.628 233.671 362.524 234.041 360.211C234.109 359.797 234.334 359.425 234.669 359.172C235.003 358.919 235.422 358.804 235.839 358.851L246.671 360.096C247.089 360.089 247.498 359.969 247.854 359.748C248.209 359.526 248.497 359.213 248.688 358.84C248.739 358.729 248.765 358.608 248.764 358.486C248.763 358.364 248.735 358.244 248.682 358.134C248.629 358.024 248.553 357.926 248.458 357.849C248.363 357.772 248.253 357.717 248.134 357.687" fill="white"/>
<path d="M248.077 357.618L234.79 354.668C234.574 354.619 234.351 354.614 234.133 354.654C233.915 354.693 233.707 354.777 233.523 354.899L224.304 361.075L184.871 360.799L162.031 322.495L144.746 326.275L172.702 374.005C173.3 375.024 174.196 375.835 175.27 376.327C176.344 376.82 177.543 376.971 178.706 376.759L224.212 368.496H224.315C226.657 368.499 228.923 367.665 230.706 366.147C232.488 364.628 233.671 362.524 234.041 360.211C234.109 359.797 234.334 359.425 234.669 359.172C235.003 358.919 235.422 358.804 235.839 358.851L246.671 360.096C247.089 360.089 247.498 359.969 247.854 359.748C248.209 359.526 248.497 359.213 248.687 358.84C248.752 358.722 248.787 358.591 248.79 358.456C248.793 358.322 248.763 358.189 248.703 358.069C248.643 357.949 248.554 357.845 248.445 357.766C248.336 357.688 248.21 357.637 248.077 357.618Z" stroke="#111B39" stroke-width="0.75" stroke-linejoin="round"/>
<path d="M160.683 290.068L157.94 286.138C158.117 283.348 157.591 280.558 156.411 278.023C155.231 275.488 153.434 273.289 151.186 271.627C148.937 269.965 146.307 268.894 143.538 268.51C140.768 268.126 137.946 268.443 135.331 269.43C132.715 270.418 130.388 272.046 128.563 274.165C126.739 276.283 125.474 278.825 124.885 281.559C124.296 284.292 124.401 287.13 125.192 289.812C125.982 292.494 127.431 294.935 129.408 296.913C130.741 298.065 131.825 299.476 132.594 301.061C133.363 302.646 133.8 304.372 133.879 306.132C133.695 309.358 131.252 312.93 128.118 313.438H150.104C150.104 313.438 149.643 309.393 149.643 307.376C149.643 306.68 149.781 305.991 150.047 305.348C150.313 304.705 150.704 304.12 151.196 303.628C151.688 303.136 152.273 302.745 152.916 302.479C153.559 302.213 154.248 302.075 154.944 302.075C155.386 302.075 155.824 301.988 156.232 301.819C156.64 301.65 157.011 301.402 157.323 301.09C157.636 300.777 157.884 300.406 158.053 299.998C158.222 299.59 158.309 299.152 158.309 298.711V294.228L160.614 292.027C160.867 291.768 161.009 291.421 161.009 291.059C161.009 290.697 160.867 290.35 160.614 290.091" fill="white"/>
<path d="M160.683 290.068L157.94 286.138C158.117 283.348 157.591 280.558 156.411 278.023C155.231 275.488 153.434 273.289 151.186 271.627C148.937 269.965 146.307 268.894 143.538 268.51C140.768 268.126 137.946 268.443 135.331 269.43C132.715 270.418 130.388 272.046 128.563 274.165C126.739 276.283 125.474 278.825 124.885 281.559C124.296 284.292 124.401 287.13 125.192 289.812C125.982 292.494 127.431 294.935 129.408 296.913V296.913C130.741 298.065 131.825 299.476 132.594 301.061C133.363 302.646 133.8 304.372 133.879 306.132C133.695 309.358 131.252 312.93 128.118 313.438H150.104C150.104 313.438 149.643 309.393 149.643 307.376C149.643 306.68 149.781 305.991 150.047 305.348C150.313 304.705 150.704 304.12 151.196 303.628C151.688 303.136 152.273 302.745 152.916 302.479C153.559 302.213 154.248 302.075 154.944 302.075C155.386 302.075 155.824 301.988 156.232 301.819C156.64 301.65 157.011 301.402 157.323 301.09C157.636 300.777 157.884 300.406 158.053 299.998C158.222 299.59 158.309 299.152 158.309 298.711V294.228L160.614 292.027C160.747 291.903 160.855 291.754 160.931 291.588C161.007 291.423 161.049 291.244 161.055 291.062C161.062 290.88 161.032 290.698 160.968 290.528C160.904 290.357 160.807 290.201 160.683 290.068V290.068Z" stroke="#111B39" stroke-width="0.75" stroke-linejoin="round"/>
<path d="M165.938 280.319C165.938 279.167 166.502 279.167 166.502 278.014C166.502 276.862 165.949 276.862 165.938 275.71C165.937 275.154 165.782 274.609 165.489 274.137C165.196 273.664 164.776 273.283 164.278 273.036C163.901 272.897 163.571 272.654 163.325 272.337C163.078 272.019 162.926 271.639 162.884 271.239C162.89 271.177 162.89 271.116 162.884 271.054V270.997C162.885 270.607 162.81 270.22 162.662 269.86C162.514 269.499 162.296 269.171 162.021 268.895C161.745 268.619 161.418 268.4 161.058 268.25C160.698 268.101 160.312 268.024 159.922 268.024H158.689C157.537 268.024 157.537 267.447 156.327 267.447C155.117 267.447 155.175 268.012 154.022 268.024C152.87 268.035 152.87 267.447 151.66 267.447C150.508 267.447 150.508 268.012 149.298 268.024C148.088 268.035 148.145 267.447 146.993 267.447C145.841 267.447 145.841 268.024 144.631 268.024C143.421 268.024 143.478 267.447 142.326 267.447C141.174 267.447 141.174 268.024 140.021 268.024C138.869 268.024 138.869 267.447 137.717 267.447C136.564 267.447 136.564 268.024 135.412 268.024C134.26 268.024 134.26 267.447 133.05 267.447C131.84 267.447 131.897 268.024 130.745 268.024C129.593 268.024 129.593 267.447 128.371 267.447C127.588 267.447 127.38 268.024 126.585 268.024H125.433C125.28 268.024 125.133 268.084 125.025 268.192C124.917 268.3 124.857 268.447 124.857 268.6V285.885C124.843 287.745 125.196 289.589 125.894 291.313C126.813 293.478 128.157 295.437 129.846 297.074C130.97 298.059 131.917 299.228 132.646 300.531C133.904 299.712 134.937 298.591 135.651 297.271C136.366 295.951 136.739 294.473 136.737 292.972V288.051C136.737 286.963 137.169 285.92 137.939 285.151C138.708 284.381 139.752 283.949 140.84 283.949C141.928 283.949 142.971 284.381 143.74 285.151C144.51 285.92 144.942 286.963 144.942 288.051V283.142C144.942 282.513 145.192 281.909 145.637 281.464C146.082 281.019 146.686 280.769 147.316 280.769H149.113V275.79H155.405C157.542 278.879 158.577 282.597 158.344 286.346L161.086 290.275L161.144 290.356H165.938V289.976C165.938 288.823 166.502 288.823 166.502 287.613C166.502 286.404 165.938 286.461 165.938 285.309C165.938 284.156 166.502 284.156 166.502 282.946C166.502 281.737 165.938 281.794 165.938 280.584" fill="white"/>
<path d="M165.938 280.319C165.938 279.167 166.502 279.167 166.502 278.014C166.502 276.862 165.949 276.862 165.938 275.71C165.937 275.154 165.782 274.609 165.489 274.137C165.196 273.664 164.776 273.283 164.278 273.036V273.036C163.901 272.897 163.571 272.654 163.325 272.337C163.078 272.019 162.926 271.639 162.884 271.239V271.239C162.89 271.177 162.89 271.116 162.884 271.054V270.997C162.885 270.607 162.81 270.22 162.662 269.86C162.514 269.499 162.296 269.171 162.021 268.895C161.745 268.619 161.418 268.4 161.058 268.25C160.698 268.101 160.312 268.024 159.922 268.024H158.689C157.537 268.024 157.537 267.447 156.327 267.447C155.117 267.447 155.175 268.012 154.022 268.024C152.87 268.035 152.87 267.447 151.66 267.447C150.508 267.447 150.508 268.012 149.298 268.024C148.088 268.035 148.145 267.447 146.993 267.447C145.841 267.447 145.841 268.024 144.631 268.024C143.421 268.024 143.478 267.447 142.326 267.447C141.174 267.447 141.174 268.024 140.021 268.024C138.869 268.024 138.869 267.447 137.717 267.447C136.564 267.447 136.564 268.024 135.412 268.024C134.26 268.024 134.26 267.447 133.05 267.447C131.84 267.447 131.897 268.024 130.745 268.024C129.593 268.024 129.593 267.447 128.371 267.447C127.588 267.447 127.38 268.024 126.585 268.024H125.433C125.28 268.024 125.133 268.084 125.025 268.192C124.917 268.3 124.857 268.447 124.857 268.6V285.885C124.843 287.745 125.196 289.589 125.894 291.313C126.813 293.478 128.157 295.437 129.846 297.074V297.074C130.97 298.059 131.917 299.228 132.646 300.531C133.904 299.712 134.937 298.591 135.651 297.271C136.366 295.951 136.739 294.473 136.737 292.972V288.051C136.737 286.963 137.169 285.92 137.939 285.151C138.708 284.381 139.752 283.949 140.84 283.949C141.928 283.949 142.971 284.381 143.74 285.151C144.51 285.92 144.942 286.963 144.942 288.051V283.142C144.942 282.513 145.192 281.909 145.637 281.464C146.082 281.019 146.686 280.769 147.316 280.769H149.113V275.79H155.405C157.542 278.879 158.577 282.597 158.344 286.346L161.086 290.275L161.144 290.356H165.938V289.976C165.938 288.823 166.502 288.823 166.502 287.613C166.502 286.404 165.938 286.461 165.938 285.309C165.938 284.156 166.502 284.156 166.502 282.946C166.502 281.737 165.938 281.495 165.938 280.319Z" stroke="#111B39" stroke-width="0.75" stroke-linejoin="round"/>
<path d="M138.27 433.27V479.363" stroke="#111B39" stroke-width="0.75" stroke-linejoin="round"/>
<path d="M175.156 396.406C175.156 402.519 172.728 408.381 168.406 412.703C164.084 417.025 158.222 419.453 152.109 419.453" stroke="#111B39" stroke-width="0.75" stroke-linejoin="round"/>
<path d="M175.156 419.453H101.406C98.9613 419.453 96.6165 420.424 94.8876 422.153C93.1588 423.882 92.1875 426.227 92.1875 428.672C92.1875 431.117 93.1588 433.462 94.8876 435.191C96.6165 436.919 98.9613 437.891 101.406 437.891H175.156C177.601 437.891 179.946 436.919 181.675 435.191C183.404 433.462 184.375 431.117 184.375 428.672C184.375 426.227 183.404 423.882 181.675 422.153C179.946 420.424 177.601 419.453 175.156 419.453Z" fill="white"/>
<path d="M175.156 419.453H101.406C98.9613 419.453 96.6165 420.424 94.8876 422.153C93.1588 423.882 92.1875 426.227 92.1875 428.672C92.1875 431.117 93.1588 433.462 94.8876 435.191C96.6165 436.919 98.9613 437.891 101.406 437.891H175.156C177.601 437.891 179.946 436.919 181.675 435.191C183.404 433.462 184.375 431.117 184.375 428.672C184.375 426.227 183.404 423.882 181.675 422.153C179.946 420.424 177.601 419.453 175.156 419.453Z" stroke="#111B39" stroke-width="0.75" stroke-linejoin="round"/>
<path d="M184.364 479.363H96.7854" stroke="#111B39" stroke-width="0.75" stroke-linejoin="round"/>
<path d="M106.016 488.594C106.016 487.682 105.745 486.791 105.239 486.033C104.732 485.275 104.012 484.684 103.17 484.335C102.328 483.986 101.401 483.895 100.507 484.073C99.6129 484.251 98.7916 484.69 98.1469 485.334C97.5023 485.979 97.0633 486.8 96.8854 487.694C96.7076 488.589 96.7989 489.515 97.1477 490.358C97.4966 491.2 98.0874 491.92 98.8454 492.426C99.6034 492.933 100.495 493.203 101.406 493.203C102.629 493.203 103.801 492.717 104.666 491.853C105.53 490.989 106.016 489.816 106.016 488.594Z" fill="white"/>
<path d="M101.395 493.192C103.94 493.192 106.004 491.128 106.004 488.582C106.004 486.037 103.94 483.973 101.395 483.973C98.8491 483.973 96.7854 486.037 96.7854 488.582C96.7854 491.128 98.8491 493.192 101.395 493.192Z" stroke="#111B39" stroke-width="0.75" stroke-linejoin="round"/>
<path d="M124.453 488.594C124.453 487.682 124.183 486.791 123.676 486.033C123.17 485.275 122.45 484.684 121.608 484.335C120.765 483.986 119.839 483.895 118.945 484.073C118.05 484.251 117.229 484.69 116.584 485.334C115.94 485.979 115.501 486.8 115.323 487.694C115.145 488.589 115.236 489.515 115.585 490.358C115.934 491.2 116.525 491.92 117.283 492.426C118.041 492.933 118.932 493.203 119.844 493.203C121.066 493.203 122.239 492.717 123.103 491.853C123.968 490.989 124.453 489.816 124.453 488.594Z" fill="white"/>
<path d="M119.832 493.192C122.378 493.192 124.442 491.128 124.442 488.582C124.442 486.037 122.378 483.973 119.832 483.973C117.287 483.973 115.223 486.037 115.223 488.582C115.223 491.128 117.287 493.192 119.832 493.192Z" stroke="#111B39" stroke-width="0.75" stroke-linejoin="round"/>
<path d="M142.891 488.594C142.891 487.682 142.62 486.791 142.114 486.033C141.607 485.275 140.887 484.684 140.045 484.335C139.203 483.986 138.276 483.895 137.382 484.073C136.488 484.251 135.667 484.69 135.022 485.334C134.377 485.979 133.938 486.8 133.76 487.694C133.583 488.589 133.674 489.515 134.023 490.358C134.372 491.2 134.962 491.92 135.72 492.426C136.478 492.933 137.37 493.203 138.281 493.203C139.504 493.203 140.676 492.717 141.541 491.853C142.405 490.989 142.891 489.816 142.891 488.594Z" fill="white"/>
<path d="M138.27 493.192C140.815 493.192 142.879 491.128 142.879 488.582C142.879 486.037 140.815 483.973 138.27 483.973C135.724 483.973 133.66 486.037 133.66 488.582C133.66 491.128 135.724 493.192 138.27 493.192Z" stroke="#111B39" stroke-width="0.75" stroke-linejoin="round"/>
<path d="M165.938 488.594C165.938 487.682 165.667 486.791 165.161 486.033C164.654 485.275 163.934 484.684 163.092 484.335C162.25 483.986 161.323 483.895 160.429 484.073C159.535 484.251 158.713 484.69 158.069 485.334C157.424 485.979 156.985 486.8 156.807 487.694C156.629 488.589 156.721 489.515 157.07 490.358C157.418 491.2 158.009 491.92 158.767 492.426C159.525 492.933 160.416 493.203 161.328 493.203C162.551 493.203 163.723 492.717 164.587 491.853C165.452 490.989 165.938 489.816 165.938 488.594Z" fill="white"/>
<path d="M161.282 493.18C163.828 493.18 165.892 491.116 165.892 488.571C165.892 486.025 163.828 483.961 161.282 483.961C158.737 483.961 156.673 486.025 156.673 488.571C156.673 491.116 158.737 493.18 161.282 493.18Z" stroke="#111B39" stroke-width="0.75" stroke-linejoin="round"/>
<path d="M184.375 488.594C184.375 487.682 184.105 486.791 183.598 486.033C183.092 485.275 182.372 484.684 181.53 484.335C180.687 483.986 179.761 483.895 178.866 484.073C177.972 484.251 177.151 484.69 176.506 485.334C175.862 485.979 175.423 486.8 175.245 487.694C175.067 488.589 175.158 489.515 175.507 490.358C175.856 491.2 176.447 491.92 177.205 492.426C177.963 492.933 178.854 493.203 179.766 493.203C180.988 493.203 182.161 492.717 183.025 491.853C183.889 490.989 184.375 489.816 184.375 488.594Z" fill="white"/>
<path d="M184.375 488.594C184.375 487.682 184.105 486.791 183.598 486.033C183.092 485.275 182.372 484.684 181.53 484.335C180.687 483.986 179.761 483.895 178.866 484.073C177.972 484.251 177.151 484.69 176.506 485.334C175.862 485.979 175.423 486.8 175.245 487.694C175.067 488.589 175.158 489.515 175.507 490.358C175.856 491.2 176.447 491.92 177.205 492.426C177.963 492.933 178.854 493.203 179.766 493.203C180.988 493.203 182.161 492.717 183.025 491.853C183.889 490.989 184.375 489.816 184.375 488.594Z" stroke="#111B39" stroke-width="0.75" stroke-linejoin="round"/>
<path d="M291.843 499.311H313.161V481.449L297.605 486.635L291.843 499.311Z" fill="white"/>
<path d="M291.843 499.311H313.161V481.449L297.605 486.635L291.843 499.311Z" stroke="#111B39" stroke-width="0.75" stroke-linejoin="round"/>
<path d="M345.081 459.785C339.845 459.782 334.712 461.235 330.256 463.983C325.799 466.73 322.194 470.663 319.845 475.342H319.718L311.133 463.023C310.862 462.629 310.472 462.331 310.02 462.175C309.568 462.018 309.077 462.011 308.62 462.154C308.164 462.297 307.765 462.583 307.483 462.97C307.201 463.357 307.05 463.824 307.054 464.302V470.467L301.914 463.023C301.642 462.634 301.252 462.341 300.802 462.188C300.352 462.035 299.865 462.029 299.411 462.172C298.958 462.314 298.562 462.598 298.28 462.981C297.999 463.364 297.847 463.827 297.846 464.302V476.218C296.791 476.827 295.916 477.704 295.309 478.76C294.702 479.817 294.385 481.015 294.389 482.233V486.773C293.164 487.481 292.145 488.499 291.438 489.724C290.73 490.95 290.357 492.341 290.356 493.756V499.518H319.315C319.687 500.37 320.106 501.201 320.571 502.007L372.599 494.355C373.072 492.276 373.311 490.15 373.313 488.018C373.315 484.31 372.586 480.638 371.167 477.212C369.749 473.786 367.67 470.673 365.048 468.051C362.426 465.429 359.313 463.349 355.887 461.931C352.461 460.513 348.789 459.784 345.081 459.785Z" fill="white"/>
<path d="M345.081 459.785C339.845 459.782 334.712 461.235 330.256 463.983C325.799 466.73 322.194 470.663 319.845 475.342H319.718L311.133 463.023C310.862 462.629 310.472 462.331 310.02 462.175C309.568 462.018 309.077 462.011 308.62 462.154C308.164 462.297 307.765 462.583 307.483 462.97C307.201 463.357 307.05 463.824 307.054 464.302V470.467L301.914 463.023C301.642 462.634 301.252 462.341 300.802 462.188C300.352 462.035 299.865 462.029 299.411 462.172C298.958 462.314 298.562 462.598 298.28 462.981C297.999 463.364 297.847 463.827 297.846 464.302V476.218C296.791 476.827 295.916 477.704 295.309 478.76C294.702 479.817 294.385 481.015 294.389 482.233V486.773C293.164 487.481 292.145 488.499 291.438 489.724C290.73 490.95 290.357 492.341 290.356 493.756V499.518H319.315C319.687 500.37 320.106 501.201 320.571 502.007L372.599 494.355C373.072 492.276 373.311 490.15 373.313 488.018C373.315 484.31 372.586 480.638 371.167 477.212C369.749 473.786 367.67 470.673 365.048 468.051C362.426 465.429 359.313 463.349 355.887 461.931C352.461 460.513 348.789 459.784 345.081 459.785Z" stroke="#111B39" stroke-width="0.75" stroke-linejoin="round"/>
<path d="M384.883 488.594H341.094C336.484 488.594 336.484 493.203 336.484 493.203H290.391C285.608 493.203 281.172 498.216 281.172 502.998C281.172 507.78 285.608 511.641 290.391 511.641H384.883C387.939 511.641 390.87 510.427 393.031 508.265C395.192 506.104 396.406 503.173 396.406 500.117C396.406 497.061 395.192 494.13 393.031 491.969C390.87 489.808 387.939 488.594 384.883 488.594Z" fill="#A6C1E5"/>
<path d="M384.883 488.594H341.094C336.484 488.594 336.484 493.203 336.484 493.203H290.391C285.608 493.203 281.172 498.216 281.172 502.998C281.172 507.78 285.608 511.641 290.391 511.641H384.883C387.939 511.641 390.87 510.427 393.031 508.265C395.192 506.104 396.406 503.173 396.406 500.117C396.406 497.061 395.192 494.13 393.031 491.969C390.87 489.808 387.939 488.594 384.883 488.594V488.594Z" stroke="#111B39" stroke-width="0.75" stroke-linejoin="round"/>
<path d="M359.531 486.842V507.031V509.589C359.531 510.133 359.747 510.655 360.132 511.04C360.517 511.425 361.039 511.641 361.583 511.641H375.664C376.275 511.641 376.862 511.398 377.294 510.966C377.726 510.533 377.969 509.947 377.969 509.336C377.969 508.725 377.726 508.139 377.294 507.706C376.862 507.274 376.275 507.031 375.664 507.031H364.141V486.865" fill="white"/>
<path d="M359.531 486.842V507.031V509.589C359.531 510.133 359.747 510.655 360.132 511.04C360.517 511.425 361.039 511.641 361.583 511.641H375.664C376.275 511.641 376.862 511.398 377.294 510.966C377.726 510.533 377.969 509.947 377.969 509.336C377.969 508.725 377.726 508.139 377.294 507.706C376.862 507.274 376.275 507.031 375.664 507.031H364.141V486.865" stroke="#111B39" stroke-width="0.75" stroke-linejoin="round"/>
<path d="M176.228 346.337L159.277 317.909C158.459 316.538 157.3 315.404 155.912 314.616C154.524 313.828 152.956 313.414 151.36 313.414H127.53C124.14 313.414 120.867 314.659 118.335 316.914C115.803 319.168 114.187 322.273 113.794 325.641L108.32 373.037L109.311 400.797L165.938 401.016L161.685 355.141L176.228 346.337Z" fill="#A6C1E5"/>
<path d="M176.228 346.337L159.277 317.909C158.459 316.538 157.3 315.404 155.912 314.616C154.524 313.828 152.956 313.414 151.36 313.414H127.53C124.14 313.414 120.867 314.659 118.335 316.914C115.803 319.168 114.187 322.273 113.794 325.641L108.32 373.037L109.311 400.797L165.938 401.016L161.685 355.141L176.228 346.337Z" stroke="#111B39" stroke-width="0.75" stroke-linejoin="round"/>
<path d="M142.649 396.406C142.554 395.973 142.435 395.546 142.291 395.127L128.671 345.15C128.671 344.931 128.567 344.724 128.498 344.516C127.728 342.186 126.241 340.16 124.25 338.726C122.259 337.291 119.866 336.523 117.412 336.53H85.3772C82.3157 336.518 79.3738 337.719 77.1949 339.869C75.016 342.02 73.7775 344.946 73.7501 348.008C73.7471 348.782 73.8243 349.554 73.9806 350.312C74.0736 350.77 74.1968 351.22 74.3493 351.661L87.9585 401.649C88.6242 404.12 90.0881 406.302 92.1221 407.854C94.1562 409.407 96.6464 410.244 99.2054 410.234H131.229C132.754 410.253 134.267 409.968 135.681 409.397C137.095 408.826 138.382 407.98 139.467 406.909C140.552 405.837 141.413 404.56 142 403.153C142.588 401.746 142.891 400.236 142.891 398.711C142.89 397.937 142.813 397.165 142.66 396.406" fill="white"/>
<path d="M142.649 396.406C142.554 395.973 142.435 395.546 142.291 395.127L128.671 345.15C128.671 344.931 128.567 344.724 128.498 344.516C127.728 342.186 126.241 340.16 124.25 338.726C122.259 337.291 119.866 336.523 117.412 336.53H85.3772C82.3157 336.518 79.3738 337.719 77.1949 339.869C75.016 342.02 73.7775 344.946 73.7501 348.008C73.7471 348.782 73.8243 349.554 73.9806 350.312V350.312C74.0736 350.77 74.1968 351.22 74.3493 351.661L87.9585 401.649C88.6242 404.12 90.0881 406.302 92.1221 407.854C94.1562 409.407 96.6464 410.244 99.2054 410.234H131.229C132.754 410.253 134.267 409.968 135.681 409.397C137.095 408.826 138.382 407.98 139.467 406.909C140.552 405.837 141.413 404.56 142 403.153C142.588 401.746 142.891 400.236 142.891 398.711C142.886 397.937 142.805 397.165 142.649 396.406V396.406Z" stroke="#111B39" stroke-width="0.75" stroke-linejoin="round"/>
<path d="M185.516 391.785H147.489V396.395H185.516V391.785Z" fill="white"/>
<path d="M185.516 391.785H147.489V396.395H185.516V391.785Z" stroke="#111B39" stroke-width="0.75" stroke-linejoin="round"/>
</svg>
