<?xml version="1.0" encoding="UTF-8"?>
<svg width="570px" height="370px" viewBox="0 0 570 370" version="1.1" xmlns="http://www.w3.org/2000/svg" xmlns:xlink="http://www.w3.org/1999/xlink">
    <title>云负载均衡器</title>
    <g id="页面-1" stroke="none" stroke-width="1" fill="none" fill-rule="evenodd">
        <g id="云负载均衡器">
            <rect id="矩形" fill-opacity="0" fill="#FFFFFF" fill-rule="nonzero" x="0" y="0" width="570" height="370"></rect>
            <circle id="椭圆形" stroke="#FF6633" cx="294" cy="145" r="84.5"></circle>
            <circle id="椭圆形" stroke="#FF6633" cx="294" cy="145" r="104.5"></circle>
            <circle id="椭圆形" stroke="#003682" stroke-width="2" fill="#FFFFFF" fill-rule="nonzero" cx="294.5" cy="141.5" r="70.5"></circle>
            <path d="M334.513,141.5 C334.513,161.102 329.953,178.799 322.633,191.561 C315.297,204.35 305.314,212 294.5,212 C283.686,212 273.703,204.35 266.367,191.561 C259.047,178.799 254.487,161.102 254.487,141.5 C254.487,121.898 259.047,104.201 266.367,91.4394 C273.703,78.65 283.686,71 294.5,71 C305.314,71 315.297,78.65 322.633,91.4394 C329.953,104.201 334.513,121.898 334.513,141.5 Z" id="路径" stroke="#003682" stroke-width="2"></path>
            <path d="M294.5,181.513 C274.898,181.513 257.201,176.953 244.439,169.633 C231.65,162.297 224,152.314 224,141.5 C224,130.686 231.65,120.703 244.439,113.367 C257.201,106.047 274.898,101.487 294.5,101.487 C314.102,101.487 331.799,106.047 344.561,113.367 C357.35,120.703 365,130.686 365,141.5 C365,152.314 357.35,162.297 344.561,169.633 C331.799,176.953 314.102,181.513 294.5,181.513 Z" id="路径" stroke="#003682" stroke-width="2"></path>
            <path d="M294.5,100.487 C294.667,100.487 294.833,100.488 295,100.488 L295,140 L335.504,140 C335.51,140.499 335.513,140.999 335.513,141.5 C335.513,154.454 333.537,166.603 330.082,177.082 C319.738,180.492 307.766,182.462 295,182.512 L295,141 L253.488,141 C253.538,128.234 255.508,116.262 258.918,105.918 C269.397,102.463 281.546,100.487 294.5,100.487 Z" id="路径" fill-opacity="0.3" fill="#7FA4D2"></path>
            <path d="M224,134.626 C223.342,136.861 223,139.157 223,141.5 C223,156.72 237.454,170.004 258.918,177.082 C265.996,198.546 279.28,213 294.5,213 C294.667,213 294.834,212.998 295,212.995 L295,182.512 C294.833,182.512 294.667,182.513 294.5,182.513 C281.546,182.513 269.397,180.537 258.918,177.082 C255.508,166.738 253.538,154.766 253.488,142 L224,142 L224,134.626 Z M295,100.488 C307.766,100.538 319.738,102.508 330.082,105.918 C333.537,116.397 335.513,128.546 335.513,141.5 C335.513,141.667 335.512,141.833 335.512,142 L365.995,142 C365.998,141.834 366,141.667 366,141.5 C366,126.28 351.546,112.996 330.082,105.918 C323.082,84.6895 310.011,70.3178 295,70.0052 L295,100.488 Z" id="形状" fill-opacity="0.3" fill="#7FA4D2"></path>
            <line x1="294.863" y1="70.7259" x2="294.863" y2="211.548" id="路径" stroke="#003682" stroke-width="2" stroke-linecap="round"></line>
            <line x1="365.274" y1="141.137" x2="224.452" y2="141.137" id="路径" stroke="#003682" stroke-width="2" stroke-linecap="round"></line>
            <rect id="矩形" stroke="#003682" stroke-width="2" x="371" y="300" width="84" height="28"></rect>
            <rect id="矩形" stroke="#003682" stroke-width="2" fill="#003682" fill-rule="nonzero" x="365" y="300" width="96" height="21"></rect>
            <polygon id="路径" fill="#FFFFFF" fill-rule="nonzero" points="366 294 460 294 460 326 366 326"></polygon>
            <path d="M458,296 L368,296 L368,324 L458,324 L458,296 Z M366,294 L366,326 L460,326 L460,294 L366,294 Z" id="形状" fill="#003682"></path>
            <line x1="420.5" y1="310.5" x2="442.5" y2="310.5" id="路径" stroke="#003682" stroke-width="2" stroke-linecap="round"></line>
            <circle id="椭圆形" fill="#FF6633" fill-rule="nonzero" cx="448.5" cy="310.5" r="2.5"></circle>
            <path d="M379.289,302.689 L383.4,302.689 L383.4,306.8 L379.289,306.8 L379.289,302.689 Z M386.689,302.689 L390.8,302.689 L390.8,306.8 L386.689,306.8 L386.689,302.689 Z M398.2,302.689 L394.089,302.689 L394.089,306.8 L398.2,306.8 L398.2,302.689 Z M401.489,302.689 L405.6,302.689 L405.6,306.8 L401.489,306.8 L401.489,302.689 Z M413,302.689 L408.889,302.689 L408.889,306.8 L413,306.8 L413,302.689 Z" id="形状" fill-opacity="0.3" fill="#7FA4D2"></path>
            <path d="M376,308.444 L380.111,308.444 L380.111,312.556 L376,312.556 L376,308.444 Z M383.4,308.444 L387.511,308.444 L387.511,312.556 L383.4,312.556 L383.4,308.444 Z M394.911,308.444 L390.8,308.444 L390.8,312.556 L394.911,312.556 L394.911,308.444 Z M398.2,308.444 L402.311,308.444 L402.311,312.556 L398.2,312.556 L398.2,308.444 Z M409.711,308.444 L405.6,308.444 L405.6,312.556 L409.711,312.556 L409.711,308.444 Z" id="形状" fill-opacity="0.3" fill="#7FA4D2"></path>
            <path d="M379.289,314.2 L383.4,314.2 L383.4,318.311 L379.289,318.311 L379.289,314.2 Z M386.689,314.2 L390.8,314.2 L390.8,318.311 L386.689,318.311 L386.689,314.2 Z M398.2,314.2 L394.089,314.2 L394.089,318.311 L398.2,318.311 L398.2,314.2 Z M401.489,314.2 L405.6,314.2 L405.6,318.311 L401.489,318.311 L401.489,314.2 Z M413,314.2 L408.889,314.2 L408.889,318.311 L413,318.311 L413,314.2 Z" id="形状" fill-opacity="0.3" fill="#7FA4D2"></path>
            <rect id="矩形" stroke="#003682" stroke-width="2" x="244" y="300" width="84" height="28"></rect>
            <rect id="矩形" stroke="#003682" stroke-width="2" fill="#003682" fill-rule="nonzero" x="238" y="300" width="96" height="21"></rect>
            <polygon id="路径" fill="#FFFFFF" fill-rule="nonzero" points="239 294 333 294 333 326 239 326"></polygon>
            <path d="M331,296 L241,296 L241,324 L331,324 L331,296 Z M239,294 L239,326 L333,326 L333,294 L239,294 Z" id="形状" fill="#003682"></path>
            <line x1="293.5" y1="310.5" x2="315.5" y2="310.5" id="路径" stroke="#003682" stroke-width="2" stroke-linecap="round"></line>
            <circle id="椭圆形" fill="#FF6633" fill-rule="nonzero" cx="321.5" cy="310.5" r="2.5"></circle>
            <path d="M252.289,302.689 L256.4,302.689 L256.4,306.8 L252.289,306.8 L252.289,302.689 Z M259.689,302.689 L263.8,302.689 L263.8,306.8 L259.689,306.8 L259.689,302.689 Z M271.2,302.689 L267.089,302.689 L267.089,306.8 L271.2,306.8 L271.2,302.689 Z M274.489,302.689 L278.6,302.689 L278.6,306.8 L274.489,306.8 L274.489,302.689 Z M286,302.689 L281.889,302.689 L281.889,306.8 L286,306.8 L286,302.689 Z" id="形状" fill-opacity="0.3" fill="#7FA4D2"></path>
            <path d="M249,308.444 L253.111,308.444 L253.111,312.556 L249,312.556 L249,308.444 Z M256.4,308.444 L260.511,308.444 L260.511,312.556 L256.4,312.556 L256.4,308.444 Z M267.911,308.444 L263.8,308.444 L263.8,312.556 L267.911,312.556 L267.911,308.444 Z M271.2,308.444 L275.311,308.444 L275.311,312.556 L271.2,312.556 L271.2,308.444 Z M282.711,308.444 L278.6,308.444 L278.6,312.556 L282.711,312.556 L282.711,308.444 Z" id="形状" fill-opacity="0.3" fill="#7FA4D2"></path>
            <path d="M252.289,314.2 L256.4,314.2 L256.4,318.311 L252.289,318.311 L252.289,314.2 Z M259.689,314.2 L263.8,314.2 L263.8,318.311 L259.689,318.311 L259.689,314.2 Z M271.2,314.2 L267.089,314.2 L267.089,318.311 L271.2,318.311 L271.2,314.2 Z M274.489,314.2 L278.6,314.2 L278.6,318.311 L274.489,318.311 L274.489,314.2 Z M286,314.2 L281.889,314.2 L281.889,318.311 L286,318.311 L286,314.2 Z" id="形状" fill-opacity="0.3" fill="#7FA4D2"></path>
            <rect id="矩形" stroke="#003682" stroke-width="2" x="116" y="300" width="84" height="28"></rect>
            <rect id="矩形" stroke="#003682" stroke-width="2" fill="#003682" fill-rule="nonzero" x="110" y="300" width="96" height="21"></rect>
            <polygon id="路径" fill="#FFFFFF" fill-rule="nonzero" points="111 294 205 294 205 326 111 326"></polygon>
            <path d="M203,296 L113,296 L113,324 L203,324 L203,296 Z M111,294 L111,326 L205,326 L205,294 L111,294 Z" id="形状" fill="#003682"></path>
            <line x1="165.5" y1="310.5" x2="187.5" y2="310.5" id="路径" stroke="#003682" stroke-width="2" stroke-linecap="round"></line>
            <circle id="椭圆形" fill="#FF6633" fill-rule="nonzero" cx="193.5" cy="310.5" r="2.5"></circle>
            <path d="M124.289,302.689 L128.4,302.689 L128.4,306.8 L124.289,306.8 L124.289,302.689 Z M131.689,302.689 L135.8,302.689 L135.8,306.8 L131.689,306.8 L131.689,302.689 Z M143.2,302.689 L139.089,302.689 L139.089,306.8 L143.2,306.8 L143.2,302.689 Z M146.489,302.689 L150.6,302.689 L150.6,306.8 L146.489,306.8 L146.489,302.689 Z M158,302.689 L153.889,302.689 L153.889,306.8 L158,306.8 L158,302.689 Z" id="形状" fill-opacity="0.3" fill="#7FA4D2"></path>
            <path d="M121,308.444 L125.111,308.444 L125.111,312.556 L121,312.556 L121,308.444 Z M128.4,308.444 L132.511,308.444 L132.511,312.556 L128.4,312.556 L128.4,308.444 Z M139.911,308.444 L135.8,308.444 L135.8,312.556 L139.911,312.556 L139.911,308.444 Z M143.2,308.444 L147.311,308.444 L147.311,312.556 L143.2,312.556 L143.2,308.444 Z M154.711,308.444 L150.6,308.444 L150.6,312.556 L154.711,312.556 L154.711,308.444 Z" id="形状" fill-opacity="0.3" fill="#7FA4D2"></path>
            <path d="M124.289,314.2 L128.4,314.2 L128.4,318.311 L124.289,318.311 L124.289,314.2 Z M131.689,314.2 L135.8,314.2 L135.8,318.311 L131.689,318.311 L131.689,314.2 Z M143.2,314.2 L139.089,314.2 L139.089,318.311 L143.2,318.311 L143.2,314.2 Z M146.489,314.2 L150.6,314.2 L150.6,318.311 L146.489,318.311 L146.489,314.2 Z M158,314.2 L153.889,314.2 L153.889,318.311 L158,318.311 L158,314.2 Z" id="形状" fill-opacity="0.3" fill="#7FA4D2"></path>
            <path d="M171,292 L171,274 C171,270.686 173.686,268 177,268 L412,268 C415.314,268 418,270.686 418,274 L418,292" id="路径" stroke="#003682" stroke-width="2" stroke-linecap="round"></path>
            <line x1="295" y1="289" x2="295" y2="212" id="路径" stroke="#003682" stroke-width="2" stroke-linecap="round"></line>
            <path d="M329,112 C332.314,112 335,109.314 335,106 C335,102.686 332.314,100 329,100 C325.686,100 323,102.686 323,106 C323,109.314 325.686,112 329,112 Z M329,179 C332.314,179 335,176.314 335,173 C335,169.686 332.314,167 329,167 C325.686,167 323,169.686 323,173 C323,176.314 325.686,179 329,179 Z M266,173 C266,176.314 263.314,179 260,179 C256.686,179 254,176.314 254,173 C254,169.686 256.686,167 260,167 C263.314,167 266,169.686 266,173 Z M260,112 C263.314,112 266,109.314 266,106 C266,102.686 263.314,100 260,100 C256.686,100 254,102.686 254,106 C254,109.314 256.686,112 260,112 Z" id="形状" fill="#FF6633"></path>
        </g>
    </g>
</svg>