<?xml version="1.0" encoding="UTF-8"?>
<svg width="570px" height="370px" viewBox="0 0 570 370" version="1.1" xmlns="http://www.w3.org/2000/svg" xmlns:xlink="http://www.w3.org/1999/xlink">
    <title>安全防护技术</title>
    <defs>
        <path d="M35.7133933,0 C45.0503933,7.121 56.6533933,11.423 69.2653933,11.611 C77.2463933,39.026 62.8393933,68.286 35.7253933,78.356 C8.61739333,68.286 -5.78760667,39.027 2.19139333,11.611 C14.7913933,11.422 26.3743933,7.106 35.7133933,0 Z" id="path-1"></path>
        <path d="M49.486478,0 C62.372478,9.903 78.439478,15.869 95.908478,16.069 C107.122478,54.077 87.147478,94.722 49.502478,108.626 C11.867478,94.722 -8.10452204,54.077 3.10647796,16.069 C20.558478,15.868 36.598478,9.881 49.486478,0 Z" id="path-3"></path>
    </defs>
    <g id="页面-1" stroke="none" stroke-width="1" fill="none" fill-rule="evenodd">
        <g id="安全防护技术">
            <rect id="矩形" fill-opacity="0" fill="#FFFFFF" fill-rule="nonzero" x="0" y="0" width="570" height="370"></rect>
            <path d="M298.583,242.842 L298.583,276.237 C298.583,277.342 299.478,278.237 300.583,278.237 L338.295,278.237" id="路径" stroke="#003682" stroke-width="2"></path>
            <line x1="284.77" y1="294.209" x2="284.77" y2="251.475" id="路径" stroke="#003682" stroke-width="2"></line>
            <path d="M269.23,242.842 L269.23,276.237 C269.23,277.342 268.335,278.237 267.23,278.237 L229.518,278.237" id="路径" stroke="#003682" stroke-width="2"></path>
            <circle id="椭圆形" stroke="#003682" stroke-width="2" fill="#FFFFFF" fill-rule="nonzero" cx="284.338" cy="297.662" r="6.33813"></circle>
            <circle id="椭圆形" stroke="#003682" stroke-width="2" fill="#FFFFFF" fill-rule="nonzero" cx="337.863" cy="277.806" r="6.33813"></circle>
            <circle id="椭圆形" stroke="#003682" stroke-width="2" fill="#FFFFFF" fill-rule="nonzero" cx="231.676" cy="277.806" r="6.33813"></circle>
            <path d="M383.678,134.66 L383.71,135.145 L384.112,135.419 C391.287,140.315 397.446,146.523 402.257,153.708 C409.102,164.289 412.628,176.635 412.392,189.191 L412.392,189.203 L412.392,189.215 C412.436,197.998 410.692,206.7 407.264,214.804 C403.699,222.881 398.548,230.178 392.107,236.273 L392.1,236.279 L392.093,236.286 C385.812,242.458 378.361,247.345 370.165,250.666 C361.969,253.988 353.191,255.679 344.333,255.642 L344.328,255.642 L219.288,255.642 L219.278,255.642 L219.268,255.642 C211.313,255.804 203.406,254.409 196,251.537 C188.594,248.665 181.837,244.374 176.117,238.911 L176.11,238.904 C170.319,233.489 165.723,226.951 162.609,219.701 C159.495,212.45 157.929,204.642 158.01,196.766 L158.01,196.751 L158.01,196.737 C157.753,182.935 162.576,169.51 171.583,158.957 L171.588,158.952 L171.593,158.946 C176.016,153.608 181.338,149.064 187.326,145.514 L187.882,145.184 L187.81,144.542 C187.043,137.754 187.851,130.882 190.171,124.447 C192.491,118.013 196.264,112.185 201.203,107.404 L201.204,107.403 C205.521,103.208 210.636,99.8979 216.254,97.6645 C221.871,95.431 227.881,94.3184 233.937,94.391 L233.945,94.3911 L233.953,94.391 C237.954,94.3752 241.943,94.8483 245.827,95.7996 L246.456,95.9537 L246.854,95.4424 C251.978,88.8566 258.159,83.1452 265.153,78.5357 L265.155,78.5346 C277.671,70.2497 292.422,65.8829 307.487,66.0048 L307.496,66.0048 L307.506,66.0047 C317.449,65.8948 327.318,67.7007 336.561,71.3212 C345.911,75.2513 354.366,80.9985 361.424,88.2211 L361.438,88.2353 L361.453,88.249 C368.553,94.958 374.239,102.988 378.186,111.877 C381.298,119.113 383.154,126.815 383.678,134.66 Z" id="路径" stroke="#003682" stroke-width="2" fill="#FFFFFF" fill-rule="nonzero"></path>
            <path d="M376.808,137.332 L376.825,137.577 L377.03,137.714 C383.718,142.178 389.46,147.837 393.945,154.386 C400.329,164.035 403.616,175.291 403.396,186.738 L403.396,186.738 L403.396,186.751 C403.438,194.757 401.812,202.691 398.614,210.078 C395.292,217.441 390.49,224.094 384.484,229.65 L384.477,229.656 C378.622,235.282 371.676,239.737 364.035,242.766 C356.394,245.794 348.21,247.335 339.951,247.302 L339.949,247.302 L224.17,247.302 L224.16,247.302 C216.738,247.449 209.36,246.176 202.45,243.556 C195.54,240.936 189.236,237.021 183.899,232.037 L183.896,232.034 C178.492,227.093 174.203,221.127 171.297,214.511 C168.391,207.895 166.93,200.771 167.005,193.585 L167.006,193.578 L167.005,193.571 C166.766,180.979 171.266,168.729 179.672,159.099 L179.676,159.093 C183.803,154.223 188.768,150.078 194.355,146.84 L194.638,146.675 L194.601,146.35 C193.884,140.144 194.639,133.861 196.808,127.978 C198.978,122.095 202.505,116.765 207.125,112.394 L207.126,112.393 C211.162,108.557 215.946,105.53 221.2,103.487 C226.454,101.445 232.075,100.427 237.739,100.493 L237.739,100.494 L237.747,100.493 C241.488,100.479 245.216,100.911 248.847,101.781 L249.157,101.855 L249.355,101.606 C254.127,95.6081 259.885,90.4062 266.4,86.2077 L266.4,86.2072 C278.06,78.6597 291.804,74.6814 305.839,74.7925 L305.849,74.7924 C315.113,74.6923 324.309,76.338 332.921,79.6372 C341.633,83.2173 349.511,88.4533 356.087,95.0332 L356.094,95.0402 L356.101,95.047 C362.716,101.159 368.014,108.475 371.69,116.572 C374.59,123.166 376.32,130.184 376.808,137.332 Z" id="路径" stroke="#FF6633" fill="#FFFFFF" fill-rule="nonzero"></path>
            <path d="M285.164,131.012 C295.375,138.819 308.078,143.53 321.886,143.722 C330.663,173.746 314.884,205.81 285.177,216.824 C255.476,205.81 239.7,173.746 248.474,143.722 C262.269,143.529 274.95,138.802 285.164,131.012 Z" id="路径" stroke="#003682" stroke-width="2" fill="#FFFFFF" fill-rule="nonzero"></path>
            <g id="Clipped" transform="translate(249.451607, 134.740000)">
                <mask id="mask-2" fill="white">
                    <use xlink:href="#path-1"></use>
                </mask>
                <g id="路径"></g>
                <g id="编组" mask="url(#mask-2)" fill="#7FA4D2" fill-opacity="0.3" fill-rule="nonzero">
                    <g transform="translate(-15.784607, -9.911000)" id="矩形">
                        <rect x="0" y="-1.42108547e-14" width="51.5145" height="51.5145"></rect>
                        <rect x="51.514" y="51.515" width="51.5145" height="51.5145"></rect>
                    </g>
                </g>
            </g>
            <path d="M277.921,194.643 C277.587,194.64 277.26,194.547 276.973,194.373 C276.617,194.161 276.339,193.835 276.184,193.444 C276.028,193.054 276.003,192.621 276.113,192.214 L279.746,178.542 L274.077,178.434 C273.708,178.435 273.345,178.343 273.017,178.168 C272.69,177.992 272.41,177.738 272.2,177.427 C271.991,177.118 271.862,176.76 271.822,176.386 C271.782,176.013 271.833,175.635 271.971,175.286 L277.763,160.211 C277.983,159.625 278.37,159.121 278.874,158.764 C279.378,158.408 279.976,158.216 280.589,158.214 L290.276,158.214 C290.72,158.214 291.157,158.325 291.549,158.538 C291.94,158.752 292.275,159.06 292.523,159.438 C292.785,159.806 292.954,160.236 293.015,160.688 C293.076,161.14 293.028,161.6 292.874,162.028 L289.065,172.066 L289.223,172.3 L295.436,172.3 C295.848,172.299 296.252,172.423 296.595,172.657 C296.939,172.891 297.207,173.224 297.366,173.613 C297.522819,174.006 297.563,174.437 297.482,174.853 C297.401,175.269 297.202,175.651 296.91,175.952 L279.237,194.067 C279.066,194.248 278.861,194.391 278.635,194.49 C278.409,194.589 278.167,194.641 277.921,194.643 Z" id="路径" fill="#003682" fill-rule="nonzero"></path>
            <path d="M298.583,242.842 L298.583,276.237 C298.583,277.342 299.478,278.237 300.583,278.237 L338.295,278.237" id="路径" stroke="#003682" stroke-width="2"></path>
            <line x1="284.77" y1="294.209" x2="284.77" y2="251.475" id="路径" stroke="#003682" stroke-width="2"></line>
            <path d="M269.23,242.842 L269.23,276.237 C269.23,277.342 268.335,278.237 267.23,278.237 L229.518,278.237" id="路径" stroke="#003682" stroke-width="2"></path>
            <circle id="椭圆形" stroke="#003682" stroke-width="2" fill="#FFFFFF" fill-rule="nonzero" cx="284.338" cy="297.662" r="6.33813"></circle>
            <circle id="椭圆形" stroke="#003682" stroke-width="2" fill="#FFFFFF" fill-rule="nonzero" cx="337.863" cy="277.806" r="6.33813"></circle>
            <circle id="椭圆形" stroke="#003682" stroke-width="2" fill="#FFFFFF" fill-rule="nonzero" cx="231.676" cy="277.806" r="6.33813"></circle>
            <path d="M383.678,134.66 L383.71,135.145 L384.112,135.419 C391.287,140.315 397.446,146.523 402.257,153.708 C409.102,164.289 412.628,176.635 412.392,189.191 L412.392,189.203 L412.392,189.215 C412.436,197.998 410.692,206.7 407.264,214.804 C403.699,222.881 398.548,230.178 392.107,236.273 L392.1,236.279 L392.093,236.286 C385.812,242.458 378.361,247.345 370.165,250.666 C361.969,253.988 353.191,255.679 344.333,255.642 L344.328,255.642 L219.288,255.642 L219.278,255.642 L219.268,255.642 C211.313,255.804 203.406,254.409 196,251.537 C188.594,248.665 181.837,244.374 176.117,238.911 L176.11,238.904 C170.319,233.489 165.723,226.951 162.609,219.701 C159.495,212.45 157.929,204.642 158.01,196.766 L158.01,196.751 L158.01,196.737 C157.753,182.935 162.576,169.51 171.583,158.957 L171.588,158.952 L171.593,158.946 C176.016,153.608 181.338,149.064 187.326,145.514 L187.882,145.184 L187.81,144.542 C187.043,137.754 187.851,130.882 190.171,124.447 C192.491,118.013 196.264,112.185 201.203,107.404 L201.204,107.403 C205.521,103.208 210.636,99.8979 216.254,97.6645 C221.871,95.431 227.881,94.3184 233.937,94.391 L233.945,94.3911 L233.953,94.391 C237.954,94.3752 241.943,94.8483 245.827,95.7996 L246.456,95.9537 L246.854,95.4424 C251.978,88.8566 258.159,83.1452 265.153,78.5357 L265.155,78.5346 C277.671,70.2497 292.422,65.8829 307.487,66.0048 L307.496,66.0048 L307.506,66.0047 C317.449,65.8948 327.318,67.7007 336.561,71.3212 C345.911,75.2513 354.366,80.9985 361.424,88.2211 L361.438,88.2353 L361.453,88.249 C368.553,94.958 374.239,102.988 378.186,111.877 C381.298,119.113 383.154,126.815 383.678,134.66 Z" id="路径" stroke="#003682" stroke-width="2" fill="#FFFFFF" fill-rule="nonzero"></path>
            <path d="M376.808,137.332 L376.825,137.577 L377.03,137.714 C383.718,142.178 389.46,147.837 393.945,154.386 C400.329,164.035 403.616,175.291 403.396,186.738 L403.396,186.738 L403.396,186.751 C403.438,194.757 401.812,202.691 398.614,210.078 C395.292,217.441 390.49,224.094 384.484,229.65 L384.477,229.656 C378.622,235.282 371.676,239.737 364.035,242.766 C356.394,245.794 348.21,247.335 339.951,247.302 L339.949,247.302 L224.17,247.302 L224.16,247.302 C216.738,247.449 209.36,246.176 202.45,243.556 C195.54,240.936 189.236,237.021 183.899,232.037 L183.896,232.034 C178.492,227.093 174.203,221.127 171.297,214.511 C168.391,207.895 166.93,200.771 167.005,193.585 L167.006,193.578 L167.005,193.571 C166.766,180.979 171.266,168.729 179.672,159.099 L179.676,159.093 C183.803,154.223 188.768,150.078 194.355,146.84 L194.638,146.675 L194.601,146.35 C193.884,140.144 194.639,133.861 196.808,127.978 C198.978,122.095 202.505,116.765 207.125,112.394 L207.126,112.393 C211.162,108.557 215.946,105.53 221.2,103.487 C226.454,101.445 232.075,100.427 237.739,100.493 L237.739,100.494 L237.747,100.493 C241.488,100.479 245.216,100.911 248.847,101.781 L249.157,101.855 L249.355,101.606 C254.127,95.6081 259.885,90.4062 266.4,86.2077 L266.4,86.2072 C278.06,78.6597 291.804,74.6814 305.839,74.7925 L305.849,74.7924 C315.113,74.6923 324.309,76.338 332.921,79.6372 C341.633,83.2173 349.511,88.4533 356.087,95.0332 L356.094,95.0402 L356.101,95.047 C362.716,101.159 368.014,108.475 371.69,116.572 C374.59,123.166 376.32,130.184 376.808,137.332 Z" id="路径" stroke="#FF6633" fill="#FFFFFF" fill-rule="nonzero"></path>
            <path d="M285.157,114.48 C299.245,125.324 316.823,131.854 335.938,132.058 C348.248,173.655 326.387,218.156 285.175,233.359 C243.973,218.157 222.115,173.655 234.421,132.058 C253.518,131.854 271.066,125.301 285.157,114.48 Z" id="路径" stroke="#003682" stroke-width="2" fill="#FFFFFF" fill-rule="nonzero"></path>
            <g id="Clipped" transform="translate(235.672522, 119.606000)">
                <mask id="mask-4" fill="white">
                    <use xlink:href="#path-3"></use>
                </mask>
                <g id="路径"></g>
                <g id="编组" mask="url(#mask-4)" fill="#7FA4D2" fill-opacity="0.3" fill-rule="nonzero">
                    <g transform="translate(-21.332522, -13.156000)" id="矩形">
                        <rect x="-2.84217094e-14" y="1.42108547e-14" width="70.841" height="70.841"></rect>
                        <rect x="70.842" y="70.841" width="70.841" height="70.841"></rect>
                    </g>
                </g>
            </g>
            <path d="M277.921,194.643 C277.587,194.64 277.26,194.547 276.973,194.373 C276.617,194.161 276.339,193.835 276.184,193.444 C276.028,193.054 276.003,192.621 276.113,192.214 L279.746,178.542 L274.077,178.434 C273.708,178.435 273.345,178.343 273.017,178.168 C272.69,177.992 272.41,177.738 272.2,177.427 C271.991,177.118 271.862,176.76 271.822,176.386 C271.782,176.013 271.833,175.635 271.971,175.286 L277.763,160.211 C277.983,159.625 278.37,159.121 278.874,158.764 C279.378,158.408 279.976,158.216 280.589,158.214 L290.276,158.214 C290.72,158.214 291.157,158.325 291.549,158.538 C291.94,158.752 292.275,159.06 292.523,159.438 C292.785,159.806 292.954,160.236 293.015,160.688 C293.076,161.14 293.028,161.6 292.874,162.028 L289.065,172.066 L289.223,172.3 L295.436,172.3 C295.848,172.299 296.252,172.423 296.595,172.657 C296.939,172.891 297.207,173.224 297.366,173.613 C297.522819,174.006 297.563,174.437 297.482,174.853 C297.401,175.269 297.202,175.651 296.91,175.952 L279.237,194.067 C279.066,194.248 278.861,194.391 278.635,194.49 C278.409,194.589 278.167,194.641 277.921,194.643 Z" id="路径" fill="#003682" fill-rule="nonzero"></path>
        </g>
    </g>
</svg>