<?xml version="1.0" encoding="UTF-8"?>
<svg width="570px" height="370px" viewBox="0 0 570 370" version="1.1" xmlns="http://www.w3.org/2000/svg" xmlns:xlink="http://www.w3.org/1999/xlink">
    <title>CC攻击防御</title>
    <defs>
        <path d="M27.7950471,0 C35.0920471,5.523 44.1290471,8.868 53.9490471,9.049 C60.0720471,30.375 48.8650471,53.091 27.8050471,60.956 C6.74904711,53.091 -4.45595289,30.375 1.66604711,9.049 C11.4760471,8.867 20.4980471,5.511 27.7950471,0 Z" id="path-1"></path>
    </defs>
    <g id="页面-1" stroke="none" stroke-width="1" fill="none" fill-rule="evenodd">
        <g id="CC攻击防御">
            <rect id="矩形" fill-opacity="0" fill="#FFFFFF" fill-rule="nonzero" x="0" y="0" width="570" height="370"></rect>
            <circle id="椭圆形" stroke="#FF6633" stroke-width="2" fill-opacity="0.2" fill="#FF6633" fill-rule="nonzero" cx="284" cy="210" r="92"></circle>
            <circle id="椭圆形" stroke="#003682" stroke-width="2" fill="#FFFEFE" fill-rule="nonzero" cx="284" cy="210" r="73"></circle>
            <circle id="椭圆形" stroke="#FF6633" stroke-width="2" cx="284" cy="210" r="114"></circle>
            <path d="M291.172,88.0778 L290.31,87.5716 L291.172,88.0778 Z M279.828,88.0778 L280.69,87.5716 L280.69,87.5716 L279.828,88.0778 Z M281.956,53.4306 L282.481,54.2816 L283.973,53.3604 L282.42,52.5452 L281.956,53.4306 Z M276.535,50.5849 L277,49.6995 L277,49.6995 L276.535,50.5849 Z M277.394,40.1832 L277,41.1024 L277,41.1024 L277.394,40.1832 Z M282.198,42.2422 L282.592,41.3231 L282.592,41.3231 L282.198,42.2422 Z M283.299,42.0302 L282.592,41.3231 L283.299,42.0302 Z M285.036,40.2929 L284.329,39.5858 L284.329,39.5858 L285.036,40.2929 Z M286.451,40.2929 L287.158,39.5858 L287.158,39.5858 L286.451,40.2929 Z M288.188,42.0302 L287.481,42.7373 L287.481,42.7373 L288.188,42.0302 Z M289.289,42.2422 L288.895,41.3231 L288.895,41.3231 L289.289,42.2422 Z M294.093,40.1832 L293.699,39.2641 L293.699,39.2641 L294.093,40.1832 Z M294.952,50.5849 L295.417,51.4703 L295.417,51.4703 L294.952,50.5849 Z M289.263,53.5716 L288.798,52.6862 L287.314,53.4654 L288.705,54.4012 L289.263,53.5716 Z M292.035,88.584 C292.717,87.4211 293.077,86.097 293.077,84.7486 L291.077,84.7486 C291.077,85.7411 290.812,86.7157 290.31,87.5716 L292.035,88.584 Z M278.965,88.584 C281.894,93.5727 289.106,93.5727 292.035,88.584 L290.31,87.5716 C288.154,91.2435 282.846,91.2435 280.69,87.5716 L278.965,88.584 Z M277.923,84.7486 C277.923,86.097 278.283,87.4211 278.965,88.584 L280.69,87.5716 C280.188,86.7157 279.923,85.7411 279.923,84.7486 L277.923,84.7486 Z M277.923,58.7666 L277.923,84.7486 L279.923,84.7486 L279.923,58.7666 L277.923,58.7666 Z M281.43,52.5797 C279.334,53.8737 277.923,56.153 277.923,58.7666 L279.923,58.7666 C279.923,56.8981 280.929,55.2392 282.481,54.2816 L281.43,52.5797 Z M282.42,52.5452 L277,49.6995 L276.07,51.4703 L281.491,54.316 L282.42,52.5452 Z M277,49.6995 L277,49.6995 L275,49.6995 C275,50.4428 275.412,51.1248 276.07,51.4703 L277,49.6995 Z M277,49.6995 L277,41.1024 L275,41.1024 L275,49.6995 L277,49.6995 Z M277,41.1024 L277,41.1024 L277.788,39.2641 C276.468,38.6985 275,39.6665 275,41.1024 L277,41.1024 Z M277,41.1024 L281.804,43.1614 L282.592,41.3231 L277.788,39.2641 L277,41.1024 Z M281.804,43.1614 C282.556,43.4835 283.428,43.3156 284.006,42.7373 L282.592,41.3231 L282.592,41.3231 L281.804,43.1614 Z M284.006,42.7373 L285.744,41 L284.329,39.5858 L282.592,41.3231 L284.006,42.7373 Z M285.744,41 L285.744,41 L287.158,39.5858 C286.377,38.8048 285.11,38.8048 284.329,39.5858 L285.744,41 Z M285.744,41 L287.481,42.7373 L288.895,41.3231 L287.158,39.5858 L285.744,41 Z M287.481,42.7373 C288.059,43.3156 288.931,43.4835 289.683,43.1614 L288.895,41.3231 L288.895,41.3231 L287.481,42.7373 Z M289.683,43.1614 L294.487,41.1024 L293.699,39.2641 L288.895,41.3231 L289.683,43.1614 Z M294.487,41.1024 L294.487,41.1024 L296.487,41.1024 C296.487,39.6665 295.019,38.6985 293.699,39.2641 L294.487,41.1024 Z M294.487,41.1024 L294.487,49.6995 L296.487,49.6995 L296.487,41.1024 L294.487,41.1024 Z M294.487,49.6995 L294.487,49.6995 L295.417,51.4703 C296.075,51.1248 296.487,50.4428 296.487,49.6995 L294.487,49.6995 Z M294.487,49.6995 L288.798,52.6862 L289.728,54.457 L295.417,51.4703 L294.487,49.6995 Z M293.077,58.7666 C293.077,56.2594 291.778,54.0587 289.821,52.742 L288.705,54.4012 C290.151,55.3742 291.077,56.9734 291.077,58.7666 L293.077,58.7666 Z M293.077,84.7486 L293.077,58.7666 L291.077,58.7666 L291.077,84.7486 L293.077,84.7486 Z" id="形状" fill="#FF6633" fill-rule="nonzero"></path>
            <path d="M183.047,284.348 L183.299,285.316 L183.047,284.348 Z M180.053,286.062 L179.346,285.355 L180.053,286.062 Z M191.069,292.369 L190.101,292.117 L190.101,292.117 L191.069,292.369 Z M189.355,295.363 L190.062,296.07 L189.355,295.363 Z M170.983,313.735 L170.275,313.028 L170.983,313.735 Z M165.065,315.364 L165.295,314.391 L163.589,313.987 L164.11,315.662 L165.065,315.364 Z M166.886,321.209 L165.931,321.507 L165.931,321.507 L166.886,321.209 Z M158.923,327.957 L159.852,327.586 L159.852,327.586 L158.923,327.957 Z M156.982,323.104 L156.054,323.475 L156.054,323.475 L156.982,323.104 Z M153.597,322.475 L153.597,323.475 L153.597,323.475 L153.597,322.475 Z M152.597,321.475 L151.597,321.475 L151.597,321.475 L152.597,321.475 Z M152.597,319.018 L153.597,319.018 L153.597,319.018 L152.597,319.018 Z M151.968,318.09 L151.597,319.018 L151.597,319.018 L151.968,318.09 Z M147.115,316.149 L146.744,317.077 L146.744,317.077 L147.115,316.149 Z M153.863,308.186 L154.16,307.232 L154.16,307.232 L153.863,308.186 Z M159.998,310.097 L159.7,311.052 L161.301,311.55 L160.979,309.905 L159.998,310.097 Z M161.681,304.434 L162.388,305.141 L161.681,304.434 Z M182.795,283.38 C181.49,283.72 180.3,284.401 179.346,285.355 L180.76,286.769 C181.462,286.067 182.339,285.566 183.299,285.316 L182.795,283.38 Z M192.037,292.621 C193.494,287.023 188.393,281.923 182.795,283.38 L183.299,285.316 C187.42,284.243 191.174,287.997 190.101,292.117 L192.037,292.621 Z M190.062,296.07 C191.015,295.117 191.697,293.926 192.037,292.621 L190.101,292.117 C189.851,293.078 189.349,293.954 188.647,294.656 L190.062,296.07 Z M171.69,314.443 L190.062,296.07 L188.647,294.656 L170.275,313.028 L171.69,314.443 Z M164.835,316.337 C167.232,316.905 169.842,316.291 171.69,314.443 L170.275,313.028 C168.954,314.35 167.07,314.811 165.295,314.391 L164.835,316.337 Z M164.11,315.662 L165.931,321.507 L167.84,320.912 L166.02,315.067 L164.11,315.662 Z M165.931,321.507 L165.931,321.507 L167.345,322.921 C167.871,322.395 168.062,321.622 167.84,320.912 L165.931,321.507 Z M165.931,321.507 L159.852,327.586 L161.266,329 L167.345,322.921 L165.931,321.507 Z M159.852,327.586 L159.852,327.586 L157.995,328.329 C158.528,329.662 160.251,330.015 161.266,329 L159.852,327.586 Z M159.852,327.586 L157.911,322.733 L156.054,323.475 L157.995,328.329 L159.852,327.586 Z M157.911,322.733 C157.607,321.973 156.871,321.475 156.054,321.475 L156.054,323.475 L156.054,323.475 L157.911,322.733 Z M156.054,321.475 L153.597,321.475 L153.597,323.475 L156.054,323.475 L156.054,321.475 Z M153.597,321.475 L153.597,321.475 L151.597,321.475 C151.597,322.58 152.492,323.475 153.597,323.475 L153.597,321.475 Z M153.597,321.475 L153.597,319.018 L151.597,319.018 L151.597,321.475 L153.597,321.475 Z M153.597,319.018 C153.597,318.201 153.099,317.465 152.34,317.162 L151.597,319.018 L151.597,319.018 L153.597,319.018 Z M152.34,317.162 L147.486,315.22 L146.744,317.077 L151.597,319.018 L152.34,317.162 Z M147.486,315.22 L147.486,315.22 L146.072,313.806 C145.057,314.821 145.411,316.544 146.744,317.077 L147.486,315.22 Z M147.486,315.22 L153.565,309.141 L152.151,307.727 L146.072,313.806 L147.486,315.22 Z M153.565,309.141 L153.566,309.141 L154.16,307.232 C153.451,307.011 152.677,307.201 152.151,307.727 L153.565,309.141 Z M153.565,309.141 L159.7,311.052 L160.295,309.142 L154.16,307.232 L153.565,309.141 Z M160.974,303.727 C159.201,305.5 158.564,307.974 159.016,310.289 L160.979,309.905 C160.645,308.195 161.12,306.409 162.388,305.141 L160.974,303.727 Z M179.346,285.355 L160.974,303.727 L162.388,305.141 L180.76,286.769 L179.346,285.355 Z" id="形状" fill="#FF6633" fill-rule="nonzero"></path>
            <path d="M386.025,284.348 L385.773,285.316 L386.025,284.348 Z M389.019,286.062 L389.726,285.355 L389.019,286.062 Z M378.003,292.369 L378.971,292.117 L378.971,292.117 L378.003,292.369 Z M379.718,295.363 L379.011,296.07 L379.718,295.363 Z M398.09,313.735 L398.797,313.028 L398.09,313.735 Z M404.007,315.364 L403.777,314.391 L405.483,313.987 L404.962,315.662 L404.007,315.364 Z M402.187,321.209 L403.141,321.507 L403.141,321.507 L402.187,321.209 Z M410.149,327.957 L409.22,327.586 L409.22,327.586 L410.149,327.957 Z M412.09,323.104 L413.019,323.475 L413.019,323.475 L412.09,323.104 Z M415.475,322.475 L415.475,323.475 L415.475,323.475 L415.475,322.475 Z M416.475,321.475 L417.475,321.475 L417.475,321.475 L416.475,321.475 Z M416.475,319.018 L415.475,319.018 L415.475,319.018 L416.475,319.018 Z M417.104,318.09 L417.475,319.018 L417.475,319.018 L417.104,318.09 Z M421.957,316.149 L422.329,317.077 L422.329,317.077 L421.957,316.149 Z M415.209,308.186 L414.912,307.232 L414.912,307.232 L415.209,308.186 Z M409.075,310.097 L409.372,311.052 L407.772,311.55 L408.093,309.905 L409.075,310.097 Z M407.391,304.434 L406.684,305.141 L407.391,304.434 Z M386.277,283.38 C387.582,283.72 388.773,284.401 389.726,285.355 L388.312,286.769 C387.61,286.067 386.734,285.566 385.773,285.316 L386.277,283.38 Z M377.036,292.621 C375.579,287.023 380.679,281.923 386.277,283.38 L385.773,285.316 C381.653,284.243 377.899,287.997 378.971,292.117 L377.036,292.621 Z M379.011,296.07 C378.057,295.117 377.375,293.926 377.036,292.621 L378.971,292.117 C379.221,293.078 379.723,293.954 380.425,294.656 L379.011,296.07 Z M397.383,314.443 L379.011,296.07 L380.425,294.656 L398.797,313.028 L397.383,314.443 Z M404.237,316.337 C401.84,316.905 399.231,316.291 397.383,314.443 L398.797,313.028 C400.118,314.35 402.003,314.811 403.777,314.391 L404.237,316.337 Z M404.962,315.662 L403.141,321.507 L401.232,320.912 L403.052,315.067 L404.962,315.662 Z M403.141,321.507 L403.141,321.507 L401.727,322.921 C401.201,322.395 401.011,321.622 401.232,320.912 L403.141,321.507 Z M403.141,321.507 L409.22,327.586 L407.806,329 L401.727,322.921 L403.141,321.507 Z M409.22,327.586 L409.22,327.586 L411.077,328.329 C410.544,329.662 408.821,330.015 407.806,329 L409.22,327.586 Z M409.22,327.586 L411.162,322.733 L413.019,323.475 L411.077,328.329 L409.22,327.586 Z M411.162,322.733 C411.465,321.973 412.201,321.475 413.019,321.475 L413.019,323.475 L413.019,323.475 L411.162,322.733 Z M413.019,321.475 L415.475,321.475 L415.475,323.475 L413.019,323.475 L413.019,321.475 Z M415.475,321.475 L415.475,321.475 L417.475,321.475 C417.475,322.58 416.58,323.475 415.475,323.475 L415.475,321.475 Z M415.475,321.475 L415.475,319.018 L417.475,319.018 L417.475,321.475 L415.475,321.475 Z M415.475,319.018 C415.475,318.201 415.973,317.465 416.733,317.162 L417.475,319.018 L417.475,319.018 L415.475,319.018 Z M416.733,317.162 L421.586,315.22 L422.329,317.077 L417.475,319.018 L416.733,317.162 Z M421.586,315.22 L421.586,315.22 L423,313.806 C424.015,314.821 423.662,316.544 422.329,317.077 L421.586,315.22 Z M421.586,315.22 L415.507,309.141 L416.921,307.727 L423,313.806 L421.586,315.22 Z M415.507,309.141 L415.507,309.141 L414.912,307.232 C415.622,307.011 416.395,307.201 416.921,307.727 L415.507,309.141 Z M415.507,309.141 L409.372,311.052 L408.777,309.142 L414.912,307.232 L415.507,309.141 Z M408.098,303.727 C409.871,305.5 410.509,307.974 410.056,310.289 L408.093,309.905 C408.428,308.195 407.952,306.409 406.684,305.141 L408.098,303.727 Z M389.726,285.355 L408.098,303.727 L406.684,305.141 L388.312,286.769 L389.726,285.355 Z" id="形状" fill="#FF6633" fill-rule="nonzero"></path>
            <rect id="矩形" fill="#7FA5D2" fill-rule="nonzero" transform="translate(273.500000, 215.000000) scale(-1, 1) translate(-273.500000, -215.000000) " x="241" y="182" width="65" height="66"></rect>
            <path d="M313,172 C313,171.448 312.552,171 312,171 L236,171 C235.448,171 235,171.448 235,172 L235,194 C235,194.552 235.448,195 236,195 L312,195 C312.552,195 313,194.552 313,194 L313,172 Z" id="路径" fill="#FFFFFF" fill-rule="nonzero"></path>
            <path d="M311,173 L311,193 L237,193 L237,173 L311,173 Z M312,171 C312.552,171 313,171.448 313,172 L313,194 C313,194.552 312.552,195 312,195 L236,195 C235.448,195 235,194.552 235,194 L235,172 C235,171.448 235.448,171 236,171 L312,171 Z" id="形状" fill="#003682"></path>
            <path d="M313,199 C313,198.448 312.552,198 312,198 L236,198 C235.448,198 235,198.448 235,199 L235,221 C235,221.552 235.448,222 236,222 L312,222 C312.552,222 313,221.552 313,221 L313,199 Z" id="路径" fill="#FFFFFF" fill-rule="nonzero"></path>
            <path d="M311,200 L311,220 L237,220 L237,200 L311,200 Z M312,198 C312.552,198 313,198.448 313,199 L313,221 C313,221.552 312.552,222 312,222 L236,222 C235.448,222 235,221.552 235,221 L235,199 C235,198.448 235.448,198 236,198 L312,198 Z" id="形状" fill="#003682"></path>
            <path d="M303,205 L300,205 L300,215 L303,215 L303,205 Z M295,205 L292,205 L292,215 L295,215 L295,205 Z M285,205 L288,205 L288,215 L285,215 L285,205 Z" id="形状" fill="#003682"></path>
            <path d="M313,226 C313,225.448 312.552,225 312,225 L236,225 C235.448,225 235,225.448 235,226 L235,248 C235,248.552 235.448,249 236,249 L312,249 C312.552,249 313,248.552 313,248 L313,226 Z" id="路径" fill="#FFFFFF" fill-rule="nonzero"></path>
            <path d="M311,227 L311,247 L237,247 L237,227 L311,227 Z M312,225 C312.552,225 313,225.448 313,226 L313,248 C313,248.552 312.552,249 312,249 L236,249 C235.448,249 235,248.552 235,248 L235,226 C235,225.448 235.448,225 236,225 L312,225 Z" id="形状" fill="#003682"></path>
            <path d="M303,232 L300,232 L300,242 L303,242 L303,232 Z M295,232 L292,232 L292,242 L295,242 L295,232 Z M285,232 L288,232 L288,242 L285,242 L285,232 Z" id="形状" fill="#003682"></path>
            <path d="M303,178 L300,178 L300,188 L303,188 L303,178 Z M295,178 L292,178 L292,188 L295,188 L295,178 Z M285,178 L288,178 L288,188 L285,188 L285,178 Z" id="形状" fill="#003682"></path>
            <path d="M312.795,189.262 C320.092,194.785 329.129,198.13 338.949,198.311 C345.072,219.637 333.865,242.353 312.805,250.218 C291.749,242.353 280.544,219.637 286.666,198.311 C296.476,198.129 305.498,194.773 312.795,189.262 Z" id="路径" stroke="#003682" stroke-width="2" fill="#FFFFFF" fill-rule="nonzero"></path>
            <g id="Clipped" transform="translate(284.999953, 189.262000)">
                <mask id="mask-2" fill="white">
                    <use xlink:href="#path-1"></use>
                </mask>
                <g id="路径"></g>
                <g id="编组" mask="url(#mask-2)" fill="#7FA4D2" fill-opacity="0.3" fill-rule="nonzero">
                    <g transform="translate(-12.595953, -8.044000)" id="矩形">
                        <rect x="0" y="-2.84217094e-14" width="40.4044" height="40.4044"></rect>
                        <rect x="40.404" y="40.405" width="40.4044" height="40.4044"></rect>
                    </g>
                </g>
            </g>
        </g>
    </g>
</svg>