<?xml version="1.0" encoding="UTF-8"?>
<svg width="570px" height="370px" viewBox="0 0 570 370" version="1.1" xmlns="http://www.w3.org/2000/svg" xmlns:xlink="http://www.w3.org/1999/xlink">
    <title>大数据分析与机器学习</title>
    <defs>
        <rect id="path-1" x="0" y="0" width="97.8037" height="65" rx="1"></rect>
        <rect id="path-3" x="0" y="0" width="97.8037" height="11.5421" rx="1"></rect>
        <path d="M-5.68434189e-14,0.4995 C-5.68434189e-14,0.3325 0.136,0.1965 0.304,0.1965 L93.248,0.1965 C93.416,0.1965 93.552,0.3325 93.552,0.4995 C93.552,0.6675 93.416,0.8035 93.248,0.8035 L0.304,0.8035 C0.136,0.8035 -5.68434189e-14,0.6675 -5.68434189e-14,0.4995 Z" id="path-5"></path>
        <rect id="path-7" x="0" y="0" width="94.7944" height="63" rx="1"></rect>
        <rect id="path-9" x="0" y="0" width="94.7944" height="11.1869" rx="1"></rect>
        <path d="M2.84217094e-14,0.5005 C2.84217094e-14,0.3375 0.131,0.2055 0.294,0.2055 L90.378,0.2055 C90.541,0.2055 90.672,0.3375 90.672,0.5005 C90.672,0.6625 90.541,0.7945 90.378,0.7945 L0.294,0.7945 C0.131,0.7945 2.84217094e-14,0.6625 2.84217094e-14,0.5005 Z" id="path-11"></path>
    </defs>
    <g id="页面-1" stroke="none" stroke-width="1" fill="none" fill-rule="evenodd">
        <g id="大数据分析与机器学习">
            <rect id="矩形" fill-opacity="0" fill="#FFFFFF" fill-rule="nonzero" x="0" y="0" width="570" height="370"></rect>
            <path d="M428.974,185.162 C428.974,209.967 412.971,232.499 386.94,248.855 C360.916,265.206 324.933,275.336 285.161,275.336 C245.39,275.336 209.407,265.206 183.382,248.855 C157.352,232.499 141.348,209.967 141.348,185.162 C141.348,160.356 157.352,137.824 183.382,121.468 C209.407,105.117 245.39,94.987 285.161,94.987 C324.933,94.987 360.916,105.117 386.94,121.468 C412.971,137.824 428.974,160.356 428.974,185.162 Z" id="路径" stroke="#FF6633"></path>
            <path d="M386.853,286.853 C369.312,304.393 342.064,309.009 312.092,302.168 C282.128,295.328 249.521,277.047 221.398,248.925 C193.276,220.802 174.995,188.195 168.155,158.231 C161.314,128.259 165.93,101.011 183.47,83.4702 C201.011,65.9299 228.259,61.3136 258.231,68.155 C288.195,74.9946 320.802,93.2755 348.925,121.398 C377.048,149.521 395.328,182.128 402.168,212.092 C409.009,242.064 404.393,269.312 386.853,286.853 Z" id="路径" stroke="#FF6633"></path>
            <path d="M285.161,328.975 C260.355,328.975 237.824,312.971 221.468,286.94 C205.117,260.916 194.987,224.933 194.987,185.162 C194.987,145.39 205.117,109.407 221.468,83.3827 C237.824,57.3519 260.356,41.3484 285.161,41.3484 C309.967,41.3484 332.499,57.3519 348.855,83.3827 C365.206,109.407 375.336,145.39 375.336,185.162 C375.336,224.933 365.206,260.916 348.855,286.94 C332.499,312.971 309.967,328.975 285.161,328.975 Z" id="路径" stroke="#FF6633"></path>
            <path d="M183.47,286.853 C165.93,269.312 161.313,242.064 168.155,212.092 C174.994,182.128 193.275,149.521 221.398,121.398 C249.521,93.2756 282.128,74.9948 312.092,68.1551 C342.064,61.3138 369.312,65.93 386.853,83.4703 C404.393,101.011 409.009,128.259 402.168,158.231 C395.328,188.195 377.047,220.802 348.924,248.925 C320.801,277.048 288.195,295.328 258.231,302.168 C228.259,309.009 201.01,304.393 183.47,286.853 Z" id="路径" stroke="#FF6633"></path>
            <polygon id="路径" fill="#FFFFFF" fill-rule="nonzero" points="397.631 97.75 172.75 97.75 172.75 271.311 397.631 271.311"></polygon>
            <path d="M173,270.561 L173,271.061 L173.5,271.061 L396.881,271.061 L397.381,271.061 L397.381,270.561 L397.381,114.294 L397.381,113.794 L396.881,113.794 L173.5,113.794 L173,113.794 L173,114.294 L173,270.561 Z M172.5,271.561 L172.5,97.5 L397.881,97.5 L397.881,271.561 L172.5,271.561 Z" id="形状" stroke="#2E527C"></path>
            <path d="M197.986,108.462 C199.516,108.462 200.756,107.226 200.756,105.701 C200.756,104.176 199.516,102.94 197.986,102.94 C196.456,102.94 195.216,104.176 195.216,105.701 C195.216,107.226 196.456,108.462 197.986,108.462 Z" id="路径" fill="#2E527C" fill-rule="nonzero"></path>
            <path d="M189.77,108.462 C191.3,108.462 192.54,107.226 192.54,105.701 C192.54,104.176 191.3,102.94 189.77,102.94 C188.24,102.94 187,104.176 187,105.701 C187,107.226 188.24,108.462 189.77,108.462 Z" id="路径" fill="#2E527C" fill-rule="nonzero"></path>
            <path d="M181.77,108.462 C183.3,108.462 184.54,107.226 184.54,105.701 C184.54,104.176 183.3,102.94 181.77,102.94 C180.24,102.94 179,104.176 179,105.701 C179,107.226 180.24,108.462 181.77,108.462 Z" id="路径" fill="#2E527C" fill-rule="nonzero"></path>
            <polygon id="路径" fill-opacity="0.3" fill="#CED7E2" fill-rule="nonzero" points="383 127 187 127 187 258 383 258"></polygon>
            <polygon id="路径" stroke="#003682" stroke-width="2" stroke-linecap="round" points="244 239 244 179 327 179 327 239"></polygon>
            <path d="M271.783,159.846 C271.615,160.014 271.414,160.147 271.194,160.238 C270.974,160.329 270.738,160.375 270.5,160.375 L261.438,160.375 C260.957,160.375 260.496,160.184 260.156,159.844 C259.816,159.504 259.625,159.043 259.625,158.563 C259.625,158.082 259.816,157.621 260.156,157.281 C260.496,156.941 260.957,156.75 261.438,156.75 L269.75,156.75 L274.654,151.842 C274.857,151.639 275.106,151.486 275.379,151.398 C275.653,151.31 275.943,151.288 276.227,151.334 C276.51,151.38 276.779,151.493 277.01,151.663 C277.242,151.833 277.429,152.056 277.558,152.313 L281.038,159.273 L285.094,147.115 C285.674,145.371 288.183,145.498 288.582,147.296 L291.22,159.172 L294.32,154.006 C294.461,153.769 294.655,153.568 294.886,153.417 C295.117,153.266 295.379,153.17 295.653,153.136 C295.927,153.103 296.205,153.132 296.466,153.221 C296.726,153.311 296.963,153.459 297.158,153.654 L300.25,156.75 L308.562,156.75 C309.043,156.75 309.504,156.941 309.844,157.281 C310.184,157.621 310.375,158.082 310.375,158.563 C310.375,159.043 310.184,159.504 309.844,159.844 C309.504,160.184 309.043,160.375 308.562,160.375 L299.5,160.375 C299.262,160.375 299.026,160.329 298.806,160.238 C298.586,160.147 298.385,160.014 298.217,159.846 L296.234,157.859 L291.993,164.932 C291.806,165.243 291.531,165.491 291.202,165.643 C290.873,165.796 290.505,165.847 290.147,165.789 C289.789,165.73 289.457,165.566 289.193,165.317 C288.93,165.068 288.747,164.746 288.668,164.392 L286.464,154.47 L283.093,164.573 C282.98,164.912 282.768,165.211 282.485,165.43 C282.202,165.65 281.861,165.781 281.504,165.806 C281.147,165.832 280.79,165.751 280.479,165.574 C280.167,165.397 279.915,165.132 279.755,164.812 L275.441,156.185 L271.78,159.846 L271.783,159.846 Z" id="路径" fill-opacity="0.2" fill="#FF6633" fill-rule="nonzero"></path>
            <rect id="矩形" stroke="#003682" stroke-width="2" x="234" y="202" width="10" height="15"></rect>
            <rect id="矩形" stroke="#003682" stroke-width="2" x="327" y="202" width="10" height="15"></rect>
            <path d="M312.966,199 L257.034,199 L257.034,216 L312.966,216 L312.966,199 Z M255,197 L255,218 L315,218 L315,197 L255,197 Z" id="形状" fill="#003682"></path>
            <path d="M257,179 L246.5,159 M314,179 L324,159" id="形状" stroke="#003682" stroke-width="2" stroke-linecap="round"></path>
            <circle id="椭圆形" fill="#003682" fill-rule="nonzero" cx="245.5" cy="156.5" r="3.5"></circle>
            <circle id="椭圆形" fill="#003682" fill-rule="nonzero" cx="325.5" cy="156.5" r="3.5"></circle>
            <rect id="矩形" fill="#003682" fill-rule="nonzero" x="266" y="225" width="36" height="2"></rect>
            <path d="M260,199 L262,199 L262,216 L260,216 L260,199 Z M264,199 L266,199 L266,216 L264,216 L264,199 Z M270,199 L268,199 L268,216 L270,216 L270,199 Z M272,199 L274,199 L274,216 L272,216 L272,199 Z M278,199 L276,199 L276,216 L278,216 L278,199 Z M280,199 L282,199 L282,216 L280,216 L280,199 Z M286,199 L284,199 L284,216 L286,216 L286,199 Z M288,199 L290,199 L290,216 L288,216 L288,199 Z M294,199 L292,199 L292,216 L294,216 L294,199 Z M296,199 L298,199 L298,216 L296,216 L296,199 Z M302,199 L300,199 L300,216 L302,216 L302,199 Z M304,199 L306,199 L306,216 L304,216 L304,199 Z M310,199 L308,199 L308,216 L310,216 L310,199 Z" id="形状" fill-opacity="0.3" fill="#7FA4D2"></path>
            <g id="Clipped" transform="translate(354.000000, 103.000000)">
                <mask id="mask-2" fill="white">
                    <use xlink:href="#path-1"></use>
                </mask>
                <g id="矩形"></g>
                <rect id="矩形" stroke="#003682" stroke-width="4" fill="#FFFFFF" fill-rule="nonzero" mask="url(#mask-2)" x="0" y="0" width="97.8037" height="65" rx="1"></rect>
            </g>
            <g id="Clipped" transform="translate(354.000000, 103.000000)">
                <mask id="mask-4" fill="white">
                    <use xlink:href="#path-3"></use>
                </mask>
                <g id="矩形"></g>
                <rect id="矩形" stroke="#003682" stroke-width="4" fill="#FFFFFF" fill-rule="nonzero" mask="url(#mask-4)" x="0" y="0" width="97.8037" height="11.5421" rx="1"></rect>
            </g>
            <path d="M358.252,161.621 C358.252,161.454 358.388,161.318 358.556,161.318 L451.5,161.318 C451.668,161.318 451.804,161.454 451.804,161.621 C451.804,161.789 451.668,161.925 451.5,161.925 L358.556,161.925 C358.388,161.925 358.252,161.789 358.252,161.621 Z" id="路径" fill="#FFFFFF" fill-rule="nonzero"></path>
            <g id="Clipped" transform="translate(358.252000, 161.121500)">
                <mask id="mask-6" fill="white">
                    <use xlink:href="#path-5"></use>
                </mask>
                <g id="路径"></g>
                <path d="M0.304,2.1965 L93.248,2.1965 L93.248,-1.8035 L0.304,-1.8035 L0.304,2.1965 Z M93.248,-1.1965 L0.304,-1.1965 L0.304,2.8035 L93.248,2.8035 L93.248,-1.1965 Z M0.304,-1.1965 C1.241,-1.1965 2,-0.4365 2,0.4995 L-2,0.4995 C-2,1.7725 -0.968,2.8035 0.304,2.8035 L0.304,-1.1965 Z M91.552,0.4995 C91.552,-0.4365 92.311,-1.1965 93.248,-1.1965 L93.248,2.8035 C94.52,2.8035 95.552,1.7725 95.552,0.4995 L91.552,0.4995 Z M93.248,2.1965 C92.311,2.1965 91.552,1.4365 91.552,0.4995 L95.552,0.4995 C95.552,-0.7725 94.52,-1.8035 93.248,-1.8035 L93.248,2.1965 Z M0.304,-1.8035 C-0.968,-1.8035 -2,-0.7725 -2,0.4995 L2,0.4995 C2,1.4365 1.241,2.1965 0.304,2.1965 L0.304,-1.8035 Z" id="形状" fill="#003682" fill-rule="nonzero" mask="url(#mask-6)"></path>
            </g>
            <path d="M360.91,108.05 C360.91,108.784 360.315,109.379 359.581,109.379 C358.847,109.379 358.252,108.784 358.252,108.05 C358.252,107.316 358.847,106.721 359.581,106.721 C360.315,106.721 360.91,107.316 360.91,108.05 Z" id="路径" fill="#003682" fill-rule="nonzero"></path>
            <path d="M365.694,108.05 C365.694,108.784 365.099,109.379 364.365,109.379 C363.631,109.379 363.036,108.784 363.036,108.05 C363.036,107.316 363.631,106.721 364.365,106.721 C365.099,106.721 365.694,107.316 365.694,108.05 Z" id="路径" fill="#003682" fill-rule="nonzero"></path>
            <path d="M369.149,109.379 C369.883,109.379 370.478,108.784 370.478,108.05 C370.478,107.316 369.883,106.721 369.149,106.721 C368.415,106.721 367.82,107.316 367.82,108.05 C367.82,108.784 368.415,109.379 369.149,109.379 Z" id="路径" fill="#003682" fill-rule="nonzero"></path>
            <rect id="矩形" fill-opacity="0.2" fill="#FF6633" fill-rule="nonzero" x="361.29" y="133.374" width="9.11215" height="27.9439"></rect>
            <rect id="矩形" fill-opacity="0.2" fill="#FF6633" fill-rule="nonzero" x="384.374" y="143.093" width="9.11215" height="18.2243"></rect>
            <rect id="矩形" fill-opacity="0.2" fill="#FF6633" fill-rule="nonzero" x="407.458" y="134.589" width="9.11215" height="26.729"></rect>
            <rect id="矩形" fill-opacity="0.2" fill="#FF6633" fill-rule="nonzero" x="428.112" y="134.589" width="9.11215" height="26.729"></rect>
            <rect id="矩形" fill-opacity="0.3" fill="#7FA4D2" fill-rule="nonzero" x="370.402" y="157.673" width="9.11215" height="3.64486"></rect>
            <rect id="矩形" fill-opacity="0.3" fill="#7FA4D2" fill-rule="nonzero" x="393.486" y="151.598" width="9.11215" height="9.71963"></rect>
            <rect id="矩形" fill-opacity="0.3" fill="#7FA4D2" fill-rule="nonzero" x="416.57" y="155.243" width="9.11215" height="6.07477"></rect>
            <rect id="矩形" fill-opacity="0.3" fill="#7FA4D2" fill-rule="nonzero" x="437.224" y="155.243" width="9.11215" height="6.07477"></rect>
            <rect id="矩形" fill-opacity="0.3" fill="#7FA4D2" fill-rule="nonzero" x="361.29" y="120.009" width="2.42991" height="2.42991"></rect>
            <rect id="矩形" fill-opacity="0.2" fill="#FF6633" fill-rule="nonzero" x="367.972" y="120.009" width="2.42991" height="2.42991"></rect>
            <g id="Clipped" transform="translate(119.000000, 240.000000)">
                <mask id="mask-8" fill="white">
                    <use xlink:href="#path-7"></use>
                </mask>
                <g id="矩形"></g>
                <rect id="矩形" stroke="#003682" stroke-width="4" fill="#FFFFFF" fill-rule="nonzero" mask="url(#mask-8)" x="0" y="0" width="94.7944" height="63" rx="1"></rect>
            </g>
            <g id="Clipped" transform="translate(119.000000, 240.000000)">
                <mask id="mask-10" fill="white">
                    <use xlink:href="#path-9"></use>
                </mask>
                <g id="矩形"></g>
                <rect id="矩形" stroke="#003682" stroke-width="4" fill="#FFFFFF" fill-rule="nonzero" mask="url(#mask-10)" x="0" y="0" width="94.7944" height="11.1869" rx="1"></rect>
            </g>
            <path d="M123.122,296.818 C123.122,296.655 123.253,296.523 123.416,296.523 L213.5,296.523 C213.663,296.523 213.794,296.655 213.794,296.818 C213.794,296.98 213.663,297.112 213.5,297.112 L123.416,297.112 C123.253,297.112 123.122,296.98 123.122,296.818 Z" id="路径" fill="#FFFFFF" fill-rule="nonzero"></path>
            <g id="Clipped" transform="translate(123.122000, 296.317500)">
                <mask id="mask-12" fill="white">
                    <use xlink:href="#path-11"></use>
                </mask>
                <g id="路径"></g>
                <path d="M0.294,2.2055 L90.378,2.2055 L90.378,-1.7945 L0.294,-1.7945 L0.294,2.2055 Z M90.378,-1.2055 L0.294,-1.2055 L0.294,2.7945 L90.378,2.7945 L90.378,-1.2055 Z M0.294,-1.2055 C1.236,-1.2055 2,-0.4415 2,0.5005 L-2,0.5005 C-2,1.7675 -0.973,2.7945 0.294,2.7945 L0.294,-1.2055 Z M88.672,0.5005 C88.672,-0.4415 89.436,-1.2055 90.378,-1.2055 L90.378,2.7945 C91.645,2.7945 92.672,1.7675 92.672,0.5005 L88.672,0.5005 Z M90.378,2.2055 C89.436,2.2055 88.672,1.4425 88.672,0.5005 L92.672,0.5005 C92.672,-0.7665 91.645,-1.7945 90.378,-1.7945 L90.378,2.2055 Z M0.294,-1.7945 C-0.973,-1.7945 -2,-0.7665 -2,0.5005 L2,0.5005 C2,1.4425 1.236,2.2055 0.294,2.2055 L0.294,-1.7945 Z" id="形状" fill="#003682" fill-rule="nonzero" mask="url(#mask-12)"></path>
            </g>
            <path d="M131.526,272.541 C128.64,273.596 126.315,274.006 125.513,274.079 L125.513,294.953 L203.076,294.953 L203.076,274.738 C202.475,274.518 201.573,274.079 198.567,272.541 C195.56,271.004 196.763,272.761 193.757,273.2 C190.75,273.64 191.051,275.616 187.744,278.032 C184.437,280.448 179.707,271.953 179.105,269.537 C178.504,267.121 177.602,267.78 174.596,269.537 C171.59,271.294 170.988,268.439 169.786,267.341 C168.583,266.243 162.449,266.172 158.841,270.125 C155.234,274.079 152.57,276.934 151.067,274.079 C149.564,271.224 148.962,271.882 146.858,273.2 C144.754,274.518 144.754,274.079 142.048,272.541 C139.342,271.004 137.538,269.906 136.336,270.125 C135.133,270.345 135.133,271.224 131.526,272.541 Z" id="路径" fill-opacity="0.2" fill="#FF6633" fill-rule="nonzero"></path>
            <rect id="矩形" fill-opacity="0.3" fill="#7FA4D2" fill-rule="nonzero" x="125.093" y="254.216" width="2.03088" height="2.03088"></rect>
            <rect id="矩形" fill-opacity="0.2" fill="#FF6633" fill-rule="nonzero" x="130.677" y="254.216" width="2.03088" height="2.03088"></rect>
            <path d="M137.059,279.078 C132.322,278.13 127.585,283.42 125.809,286.183 L125.809,294.953 L203.076,294.953 L203.076,276.117 C201.3,275.525 197.451,274.459 196.267,274.933 C194.787,275.525 192.715,279.078 191.53,280.854 C190.346,282.63 186.202,282.334 185.314,280.854 C184.425,279.374 176.728,275.525 173.472,273.749 C170.215,271.973 165.775,274.933 163.406,275.525 C161.038,276.117 158.966,279.67 156.894,280.854 C154.821,282.038 153.045,282.334 149.789,282.334 C146.532,282.334 142.98,280.262 137.059,279.078 Z" id="路径" fill-opacity="0.3" fill="#7FA4D2" fill-rule="nonzero"></path>
            <path d="M125.698,244.894 C125.698,245.606 125.121,246.182 124.41,246.182 C123.698,246.182 123.122,245.606 123.122,244.894 C123.122,244.183 123.698,243.606 124.41,243.606 C125.121,243.606 125.698,244.183 125.698,244.894 Z" id="路径" fill="#003682" fill-rule="nonzero"></path>
            <path d="M130.334,244.894 C130.334,245.606 129.758,246.182 129.046,246.182 C128.335,246.182 127.758,245.606 127.758,244.894 C127.758,244.183 128.335,243.606 129.046,243.606 C129.758,243.606 130.334,244.183 130.334,244.894 Z" id="路径" fill="#003682" fill-rule="nonzero"></path>
            <path d="M133.683,246.182 C134.394,246.182 134.971,245.606 134.971,244.894 C134.971,244.183 134.394,243.606 133.683,243.606 C132.972,243.606 132.395,244.183 132.395,244.894 C132.395,245.606 132.972,246.182 133.683,246.182 Z" id="路径" fill="#003682" fill-rule="nonzero"></path>
        </g>
    </g>
</svg>