<?xml version="1.0" encoding="UTF-8"?>
<svg width="570px" height="370px" viewBox="0 0 570 370" version="1.1" xmlns="http://www.w3.org/2000/svg" xmlns:xlink="http://www.w3.org/1999/xlink">
    <title>自研二级缓存</title>
    <g id="页面-1" stroke="none" stroke-width="1" fill="none" fill-rule="evenodd">
        <g id="自研二级缓存">
            <rect id="矩形" fill-opacity="0" fill="#FFFFFF" fill-rule="nonzero" x="0" y="0" width="570" height="370"></rect>
            <rect id="矩形" stroke="#003682" stroke-width="2" fill="#FFFFFF" fill-rule="nonzero" x="332" y="207" width="147.5" height="89"></rect>
            <path d="M341.562,213.719 C341.562,214.841 340.653,215.75 339.531,215.75 C338.409,215.75 337.5,214.841 337.5,213.719 C337.5,212.597 338.409,211.688 339.531,211.688 C340.653,211.688 341.562,212.597 341.562,213.719 Z" id="路径" fill="#003682" fill-rule="nonzero"></path>
            <path d="M348.875,213.719 C348.875,214.841 347.966,215.75 346.844,215.75 C345.722,215.75 344.812,214.841 344.812,213.719 C344.812,212.597 345.722,211.688 346.844,211.688 C347.966,211.688 348.875,212.597 348.875,213.719 Z" id="路径" fill="#003682" fill-rule="nonzero"></path>
            <path d="M354.156,215.75 C355.278,215.75 356.188,214.841 356.188,213.719 C356.188,212.597 355.278,211.688 354.156,211.688 C353.034,211.688 352.125,212.597 352.125,213.719 C352.125,214.841 353.034,215.75 354.156,215.75 Z" id="路径" fill="#003682" fill-rule="nonzero"></path>
            <rect id="矩形" fill-opacity="0.3" fill="#7FA5D2" fill-rule="nonzero" x="342.219" y="220.959" width="126.75" height="68.25"></rect>
            <path d="M390.459,263.651 C390.792,263.29 391.353,263.29 391.686,263.651 C392.03,263.982 392.03,264.556 391.686,264.928 L389.514,267.14 C389.17,267.501 388.598,267.501 388.266,267.14 C387.922,266.789 387.922,266.225 388.266,265.864 L390.459,263.651 Z M417.792,248.064 C417.792,251.147 415.349,253.636 412.334,253.636 C409.319,253.636 406.865,251.147 406.865,248.064 C406.865,245.003 409.319,242.493 412.334,242.493 C415.349,242.493 417.792,244.98 417.792,248.064 Z M412.334,244.279 C410.286,244.279 408.634,245.959 408.634,248.064 C408.634,250.148 410.286,251.828 412.334,251.828 C414.372,251.828 416.036,250.148 416.036,248.064 C416.036,245.959 414.372,244.279 412.334,244.279 Z M392.185,260.387 C392.185,259.229 392.248,258.091 392.394,256.933 C392.455,256.527 392.497,256.124 392.57,255.72 L392.258,255.847 C391.541,256.146 390.876,256.581 390.283,257.145 C389.691,257.698 388.765,257.666 388.214,257.071 C388.11,256.933 388.016,256.815 387.964,256.676 C387.05,254.816 386.759,252.721 387.071,250.713 C387.383,248.714 388.276,246.83 389.774,245.3 C391.125,243.885 392.82,243.004 394.576,242.609 C396.074,242.29 397.613,242.333 399.11,242.727 L399.379,242.45 L399.401,242.408 L399.379,242.408 C402.54,239.196 406.367,237.017 410.4,235.911 C414.579,234.751 418.987,234.751 423.167,235.911 C423.698,236.05 424.082,236.464 424.217,236.974 L424.217,236.996 L424.217,237.007 C425.329,241.27 425.329,245.768 424.207,250.032 C423.126,254.146 420.995,258.08 417.845,261.291 L417.75,261.398 L417.543,261.589 C417.948,263.1 417.98,264.693 417.657,266.225 C417.283,268.012 416.409,269.734 415.037,271.127 L414.954,271.213 C413.477,272.679 411.649,273.584 409.745,273.902 C407.759,274.211 405.701,273.913 403.85,272.967 C403.143,272.605 402.852,271.691 403.206,270.957 C403.268,270.84 403.352,270.712 403.455,270.605 C403.996,270.011 404.432,269.32 404.724,268.595 L404.849,268.267 C404.454,268.341 404.037,268.405 403.643,268.458 C402.478,268.618 401.314,268.671 400.149,268.66 C399.755,268.66 399.401,268.501 399.131,268.245 L392.59,261.568 C392.289,261.239 392.143,260.824 392.185,260.387 Z M395.283,257.325 C395.18,258.176 395.117,259.038 395.097,259.878 L400.774,265.693 C401.605,265.673 402.437,265.598 403.268,265.491 C404.277,265.354 405.296,265.162 406.283,264.864 C406.428,264.822 406.594,264.8 406.751,264.811 C407.552,264.832 408.196,265.534 408.154,266.364 C408.113,267.523 407.864,268.66 407.427,269.755 C407.26,270.127 407.073,270.521 406.865,270.893 C407.656,271.074 408.477,271.095 409.288,270.936 C410.608,270.712 411.876,270.106 412.916,269.075 L412.968,269.011 C413.935,268.044 414.528,266.831 414.788,265.588 C415.078,264.29 414.965,262.929 414.497,261.675 C414.288,261.143 414.434,260.473 414.891,260.058 L415.349,259.611 L415.713,259.229 L415.765,259.175 C418.572,256.326 420.443,252.871 421.379,249.266 C422.294,245.789 422.378,242.1 421.587,238.58 C418.156,237.793 414.579,237.878 411.17,238.803 C407.614,239.782 404.245,241.705 401.459,244.555 L401.053,244.959 L401.043,244.959 L400.649,245.406 C400.253,245.884 399.609,246.087 399.016,245.842 C397.789,245.364 396.448,245.278 395.2,245.554 C393.974,245.811 392.799,246.438 391.842,247.415 L391.842,247.405 C390.792,248.479 390.168,249.787 389.96,251.191 C389.825,251.988 389.835,252.838 390.002,253.658 C390.377,253.444 390.751,253.243 391.125,253.083 C392.185,252.636 393.287,252.403 394.41,252.328 C394.566,252.328 394.744,252.339 394.888,252.403 C395.679,252.594 396.116,253.444 395.907,254.231 C395.637,255.252 395.429,256.295 395.283,257.325 Z M395.865,269.17 C396.198,268.82 396.749,268.82 397.093,269.17 C397.447,269.522 397.447,270.085 397.093,270.435 L394.91,272.669 C394.566,273.009 394.015,273.009 393.683,272.669 C393.329,272.329 393.329,271.733 393.683,271.404 L395.865,269.17 Z M393.162,266.395 C393.495,266.055 394.046,266.055 394.39,266.395 C394.744,266.757 394.744,267.321 394.39,267.672 L389.44,272.743 C389.097,273.094 388.547,273.094 388.214,272.743 C387.85,272.382 387.85,271.817 388.214,271.467 L393.162,266.395 Z" id="形状" fill="#003682" fill-rule="nonzero"></path>
            <rect id="矩形" stroke="#003682" stroke-width="2" transform="translate(105.306300, 263.999700) rotate(-90.000000) translate(-105.306300, -263.999700) " x="75.592" y="253.5201" width="59.4286" height="20.9592"></rect>
            <rect id="矩形" stroke="#003682" stroke-width="2" fill="#003682" fill-rule="nonzero" transform="translate(102.627700, 264.000000) rotate(-90.000000) translate(-102.627700, -264.000000) " x="68.6277" y="256.199" width="68" height="15.602"></rect>
            <polygon id="路径" fill="#FFFFFF" fill-rule="nonzero" points="90 297.572 90 230.429 114.49 230.429 114.49 297.572"></polygon>
            <path d="M92,232.429 L92,295.572 L112.49,295.572 L112.49,232.429 L92,232.429 Z M90,297.572 L114.49,297.572 L114.49,230.429 L90,230.429 L90,297.572 Z" id="形状" fill="#003682"></path>
            <line x1="102.627" y1="258.643" x2="102.627" y2="242.929" id="路径" stroke="#003682" stroke-width="2" stroke-linecap="round"></line>
            <ellipse id="椭圆形" fill="#FF6633" fill-rule="nonzero" transform="translate(102.628000, 238.643000) rotate(-90.000000) translate(-102.628000, -238.643000) " cx="102.628" cy="238.643" rx="1.78571" ry="1.91327"></ellipse>
            <path d="M96.6499,288.079 L96.6499,285.143 L99.7962,285.143 L99.7962,288.079 L96.6499,288.079 Z M96.6499,282.794 L96.6499,279.857 L99.7962,279.857 L99.7962,282.794 L96.6499,282.794 Z M96.6499,274.572 L96.6499,277.508 L99.7962,277.508 L99.7962,274.572 L96.6499,274.572 Z M96.6499,272.222 L96.6499,269.286 L99.7962,269.286 L99.7962,272.222 L96.6499,272.222 Z M96.6499,264 L96.6499,266.937 L99.7962,266.937 L99.7962,264 L96.6499,264 Z" id="形状" fill-opacity="0.3" fill="#7FA4D2"></path>
            <path d="M101.054,290.429 L101.054,287.492 L104.2,287.492 L104.2,290.429 L101.054,290.429 Z M101.054,285.143 L101.054,282.206 L104.2,282.206 L104.2,285.143 L101.054,285.143 Z M101.054,276.921 L101.054,279.857 L104.2,279.857 L104.2,276.921 L101.054,276.921 Z M101.054,274.571 L101.054,271.635 L104.2,271.635 L104.2,274.571 L101.054,274.571 Z M101.054,266.349 L101.054,269.285 L104.2,269.285 L104.2,266.349 L101.054,266.349 Z" id="形状" fill-opacity="0.3" fill="#7FA4D2"></path>
            <path d="M105.459,288.079 L105.459,285.143 L108.605,285.143 L108.605,288.079 L105.459,288.079 Z M105.459,282.794 L105.459,279.857 L108.605,279.857 L108.605,282.794 L105.459,282.794 Z M105.459,274.572 L105.459,277.508 L108.605,277.508 L108.605,274.572 L105.459,274.572 Z M105.459,272.222 L105.459,269.286 L108.605,269.286 L108.605,272.222 L105.459,272.222 Z M105.459,264 L105.459,266.937 L108.605,266.937 L108.605,264 L105.459,264 Z" id="形状" fill-opacity="0.3" fill="#7FA4D2"></path>
            <rect id="矩形" stroke="#003682" stroke-width="2" transform="translate(144.091600, 263.999700) rotate(-90.000000) translate(-144.091600, -263.999700) " x="114.3773" y="253.5201" width="59.4286" height="20.9592"></rect>
            <rect id="矩形" stroke="#003682" stroke-width="2" fill="#003682" fill-rule="nonzero" transform="translate(141.413000, 264.000000) rotate(-90.000000) translate(-141.413000, -264.000000) " x="107.413" y="256.199" width="68" height="15.602"></rect>
            <polygon id="路径" fill="#FFFFFF" fill-rule="nonzero" points="128.786 297.572 128.786 230.429 153.275 230.429 153.275 297.572"></polygon>
            <path d="M130.786,232.429 L130.786,295.572 L151.275,295.572 L151.275,232.429 L130.786,232.429 Z M128.786,297.572 L153.275,297.572 L153.275,230.429 L128.786,230.429 L128.786,297.572 Z" id="形状" fill="#003682"></path>
            <line x1="141.413" y1="258.643" x2="141.413" y2="242.929" id="路径" stroke="#003682" stroke-width="2" stroke-linecap="round"></line>
            <ellipse id="椭圆形" fill="#FF6633" fill-rule="nonzero" transform="translate(141.413000, 238.643000) rotate(-90.000000) translate(-141.413000, -238.643000) " cx="141.413" cy="238.643" rx="1.78571" ry="1.91327"></ellipse>
            <path d="M135.436,288.079 L135.436,285.143 L138.582,285.143 L138.582,288.079 L135.436,288.079 Z M135.436,282.794 L135.436,279.857 L138.582,279.857 L138.582,282.794 L135.436,282.794 Z M135.436,274.572 L135.436,277.508 L138.582,277.508 L138.582,274.572 L135.436,274.572 Z M135.436,272.222 L135.436,269.286 L138.582,269.286 L138.582,272.222 L135.436,272.222 Z M135.436,264 L135.436,266.937 L138.582,266.937 L138.582,264 L135.436,264 Z" id="形状" fill-opacity="0.3" fill="#7FA4D2"></path>
            <path d="M139.84,290.429 L139.84,287.492 L142.986,287.492 L142.986,290.429 L139.84,290.429 Z M139.84,285.143 L139.84,282.206 L142.986,282.206 L142.986,285.143 L139.84,285.143 Z M139.84,276.921 L139.84,279.857 L142.986,279.857 L142.986,276.921 L139.84,276.921 Z M139.84,274.571 L139.84,271.635 L142.986,271.635 L142.986,274.571 L139.84,274.571 Z M139.84,266.349 L139.84,269.285 L142.986,269.285 L142.986,266.349 L139.84,266.349 Z" id="形状" fill-opacity="0.3" fill="#7FA4D2"></path>
            <path d="M144.245,288.079 L144.245,285.143 L147.391,285.143 L147.391,288.079 L144.245,288.079 Z M144.245,282.794 L144.245,279.857 L147.391,279.857 L147.391,282.794 L144.245,282.794 Z M144.245,274.572 L144.245,277.508 L147.391,277.508 L147.391,274.572 L144.245,274.572 Z M144.245,272.222 L144.245,269.286 L147.391,269.286 L147.391,272.222 L144.245,272.222 Z M144.245,264 L144.245,266.937 L147.391,266.937 L147.391,264 L144.245,264 Z" id="形状" fill-opacity="0.3" fill="#7FA4D2"></path>
            <rect id="矩形" stroke="#003682" stroke-width="2" transform="translate(182.877600, 263.999700) rotate(-90.000000) translate(-182.877600, -263.999700) " x="153.1633" y="253.5201" width="59.4286" height="20.9592"></rect>
            <rect id="矩形" stroke="#003682" stroke-width="2" fill="#003682" fill-rule="nonzero" transform="translate(180.199000, 264.000000) rotate(-90.000000) translate(-180.199000, -264.000000) " x="146.199" y="256.199" width="68" height="15.602"></rect>
            <polygon id="路径" fill="#FFFFFF" fill-rule="nonzero" points="167.571 297.572 167.571 230.429 192.061 230.429 192.061 297.572"></polygon>
            <path d="M169.571,232.429 L169.571,295.572 L190.061,295.572 L190.061,232.429 L169.571,232.429 Z M167.571,297.572 L192.061,297.572 L192.061,230.429 L167.571,230.429 L167.571,297.572 Z" id="形状" fill="#003682"></path>
            <line x1="180.199" y1="258.643" x2="180.199" y2="242.929" id="路径" stroke="#003682" stroke-width="2" stroke-linecap="round"></line>
            <ellipse id="椭圆形" fill="#FF6633" fill-rule="nonzero" transform="translate(180.199000, 238.643000) rotate(-90.000000) translate(-180.199000, -238.643000) " cx="180.199" cy="238.643" rx="1.78571" ry="1.91327"></ellipse>
            <path d="M174.221,288.079 L174.221,285.143 L177.367,285.143 L177.367,288.079 L174.221,288.079 Z M174.221,282.794 L174.221,279.857 L177.367,279.857 L177.367,282.794 L174.221,282.794 Z M174.221,274.572 L174.221,277.508 L177.367,277.508 L177.367,274.572 L174.221,274.572 Z M174.221,272.222 L174.221,269.286 L177.367,269.286 L177.367,272.222 L174.221,272.222 Z M174.221,264 L174.221,266.937 L177.367,266.937 L177.367,264 L174.221,264 Z" id="形状" fill-opacity="0.3" fill="#7FA4D2"></path>
            <path d="M178.625,290.429 L178.625,287.492 L181.772,287.492 L181.772,290.429 L178.625,290.429 Z M178.625,285.143 L178.625,282.206 L181.772,282.206 L181.772,285.143 L178.625,285.143 Z M178.625,276.921 L178.625,279.857 L181.772,279.857 L181.772,276.921 L178.625,276.921 Z M178.625,274.571 L178.625,271.635 L181.772,271.635 L181.772,274.571 L178.625,274.571 Z M178.625,266.349 L178.625,269.285 L181.772,269.285 L181.772,266.349 L178.625,266.349 Z" id="形状" fill-opacity="0.3" fill="#7FA4D2"></path>
            <path d="M183.03,288.079 L183.03,285.143 L186.177,285.143 L186.177,288.079 L183.03,288.079 Z M183.03,282.794 L183.03,279.857 L186.177,279.857 L186.177,282.794 L183.03,282.794 Z M183.03,274.572 L183.03,277.508 L186.177,277.508 L186.177,274.572 L183.03,274.572 Z M183.03,272.222 L183.03,269.286 L186.177,269.286 L186.177,272.222 L183.03,272.222 Z M183.03,264 L183.03,266.937 L186.177,266.937 L186.177,264 L183.03,264 Z" id="形状" fill-opacity="0.3" fill="#7FA4D2"></path>
            <polyline id="路径" stroke="#003682" points="104 228 104 214 182 214 182 228"></polyline>
            <polyline id="路径" stroke="#003682" points="141 230 141 135 403 135 403 208.5"></polyline>
            <circle id="椭圆形" stroke="#FF6633" cx="264.5" cy="137.5" r="53.3333"></circle>
            <circle id="椭圆形" stroke="#FF6633" cx="264.5" cy="137.5" r="66"></circle>
            <circle id="椭圆形" stroke="#003682" stroke-width="2" fill="#FFFFFF" fill-rule="nonzero" cx="264.817" cy="135.283" r="44.2833"></circle>
            <path d="M289.791,135.283 C289.791,147.646 286.915,158.788 282.316,166.806 C277.701,174.851 271.477,179.567 264.817,179.567 C258.156,179.567 251.932,174.851 247.317,166.806 C242.718,158.788 239.842,147.646 239.842,135.283 C239.842,122.921 242.718,111.778 247.317,103.761 C251.932,95.7156 258.156,91 264.817,91 C271.477,91 277.701,95.7156 282.316,103.761 C286.915,111.778 289.791,122.921 289.791,135.283 Z" id="路径" stroke="#003682" stroke-width="2"></path>
            <path d="M264.816,160.258 C252.454,160.258 241.311,157.382 233.294,152.783 C225.249,148.168 220.533,141.944 220.533,135.283 C220.533,128.622 225.249,122.399 233.294,117.784 C241.311,113.185 252.454,110.309 264.816,110.309 C277.179,110.309 288.321,113.185 296.339,117.784 C304.384,122.399 309.1,128.622 309.1,135.283 C309.1,141.944 304.384,148.168 296.339,152.783 C288.321,157.382 277.179,160.258 264.816,160.258 Z" id="路径" stroke="#003682" stroke-width="2"></path>
            <path d="M264.816,109.309 C264.922,109.309 265.028,109.309 265.133,109.309 L265.133,134.333 L290.785,134.333 C290.789,134.649 290.791,134.966 290.791,135.283 C290.791,143.487 289.54,151.182 287.351,157.818 C280.8,159.978 273.218,161.226 265.133,161.257 L265.133,134.967 L238.842,134.967 C238.874,126.881 240.121,119.299 242.281,112.748 C248.918,110.56 256.612,109.309 264.816,109.309 Z" id="路径" fill-opacity="0.3" fill="#7FA4D2"></path>
            <path d="M220.166,130.93 C219.75,132.345 219.533,133.8 219.533,135.283 C219.533,144.923 228.687,153.336 242.281,157.818 C246.764,171.412 255.177,180.567 264.817,180.567 C264.922,180.567 265.028,180.566 265.133,180.563 L265.133,161.257 C265.028,161.258 264.922,161.258 264.817,161.258 C256.612,161.258 248.918,160.007 242.281,157.818 C240.121,151.267 238.874,143.685 238.842,135.6 L220.166,135.6 L220.166,130.93 Z M265.133,109.309 C273.219,109.341 280.801,110.588 287.352,112.748 C289.54,119.385 290.791,127.079 290.791,135.283 C290.791,135.326 290.791,135.368 290.791,135.41 C290.791,135.473 290.791,135.537 290.791,135.6 L310.097,135.6 C310.099,135.495 310.1,135.389 310.1,135.283 C310.1,125.644 300.946,117.231 287.352,112.748 C282.918,99.3033 274.64,90.2012 265.133,90.0033 L265.133,109.309 Z" id="形状" fill-opacity="0.3" fill="#7FA4D2"></path>
            <line x1="265.046" y1="90.4597" x2="265.046" y2="179.647" id="路径" stroke="#003682" stroke-width="2" stroke-linecap="round"></line>
            <line x1="309.64" y1="135.053" x2="220.453" y2="135.053" id="路径" stroke="#003682" stroke-width="2" stroke-linecap="round"></line>
            <path d="M286.666,116.6 C288.765,116.6 290.466,114.899 290.466,112.8 C290.466,110.701 288.765,109 286.666,109 C284.568,109 282.866,110.701 282.866,112.8 C282.866,114.899 284.568,116.6 286.666,116.6 Z M286.666,159.033 C288.765,159.033 290.466,157.332 290.466,155.233 C290.466,153.135 288.765,151.433 286.666,151.433 C284.568,151.433 282.866,153.135 282.866,155.233 C282.866,157.332 284.568,159.033 286.666,159.033 Z M246.766,155.233 C246.766,157.332 245.065,159.033 242.966,159.033 C240.868,159.033 239.166,157.332 239.166,155.233 C239.166,153.135 240.868,151.433 242.966,151.433 C245.065,151.433 246.766,153.135 246.766,155.233 Z M242.967,116.6 C245.065,116.6 246.767,114.899 246.767,112.8 C246.767,110.701 245.065,109 242.967,109 C240.868,109 239.167,110.701 239.167,112.8 C239.167,114.899 240.868,116.6 242.967,116.6 Z" id="形状" fill="#FF6633"></path>
        </g>
    </g>
</svg>