<?xml version="1.0" encoding="UTF-8"?>
<svg width="570px" height="370px" viewBox="0 0 570 370" version="1.1" xmlns="http://www.w3.org/2000/svg" xmlns:xlink="http://www.w3.org/1999/xlink">
    <title>证书关联</title>
    <defs>
        <path d="M0.500020929,4.32202093 C0.0220209288,4.59902093 -0.141979071,5.21002093 0.134020929,5.68802093 L9.96202093,22.7100209 C10.1680209,23.0670209 10.6260209,22.8380209 10.7330209,22.4400209 L12.0880209,17.3850209 C12.2310209,16.8510209 12.7790209,16.5350209 13.3120209,16.6780209 L18.3660209,18.0320209 C18.7430209,18.1330209 19.1430209,17.8610209 18.9480209,17.5220209 L9.12002093,0.500020929 C8.84402093,0.0220209288 8.23302093,-0.141979071 7.75402093,0.134020929 L0.500020929,4.32202093 Z" id="path-1"></path>
        <path d="M18.4990712,4.32202093 C18.9770712,4.59902093 19.1410712,5.21002093 18.8650712,5.68802093 L9.03707123,22.7100209 C8.83107123,23.0670209 8.37307123,22.8380209 8.26607123,22.4400209 L6.91207123,17.3850209 C6.76907123,16.8510209 6.22007123,16.5350209 5.68707123,16.6780209 L0.633071227,18.0320209 C0.256071227,18.1330209 -0.143928773,17.8610209 0.051071227,17.5220209 L9.87907123,0.500020929 C10.1550712,0.0220209288 10.7660712,-0.141979071 11.2450712,0.134020929 L18.4990712,4.32202093 Z" id="path-3"></path>
        <path d="M20.34625,1.17225 C18.78325,-0.39075 16.25125,-0.39075 14.68925,1.17225 L12.10325,3.75725 L7.75725,3.75725 C5.54825,3.75725 3.75725,5.54825 3.75725,7.75725 L3.75725,12.10325 L1.17225,14.68925 C-0.39075,16.25125 -0.39075,18.78325 1.17225,20.34625 L3.75725,22.93125 L3.75725,27.27725 C3.75725,29.48625 5.54825,31.27725 7.75725,31.27725 L12.10325,31.27725 L14.68925,33.86325 C16.25125,35.42525 18.78325,35.42525 20.34625,33.86325 L22.93125,31.27725 L27.27725,31.27725 C29.48625,31.27725 31.27725,29.48625 31.27725,27.27725 L31.27725,22.93125 L33.86325,20.34625 C35.42525,18.78325 35.42525,16.25125 33.86325,14.68925 L31.27725,12.10325 L31.27725,7.75725 C31.27725,5.54825 29.48625,3.75725 27.27725,3.75725 L22.93125,3.75725 L20.34625,1.17225 Z" id="path-5"></path>
    </defs>
    <g id="页面-1" stroke="none" stroke-width="1" fill="none" fill-rule="evenodd">
        <g id="证书关联">
            <rect id="矩形" fill-opacity="0" fill="#FFFFFF" fill-rule="nonzero" x="0" y="0" width="570" height="370"></rect>
            <circle id="椭圆形" stroke="#FF6633" cx="285" cy="185" r="85.5"></circle>
            <circle id="椭圆形" stroke="#FF6633" cx="285" cy="185" r="132.5"></circle>
            <circle id="椭圆形" stroke="#FF6633" cx="285" cy="185" r="163.5"></circle>
            <circle id="椭圆形" stroke="#FF6633" stroke-width="2" fill="#FFFFFF" fill-rule="nonzero" cx="371.206" cy="83.2059" r="22.2059"></circle>
            <circle id="椭圆形" stroke="#FF6633" stroke-width="2" fill="#FFFFFF" fill-rule="nonzero" cx="155.206" cy="180.206" r="22.2059"></circle>
            <circle id="椭圆形" fill-opacity="0.2" fill="#FF6633" fill-rule="nonzero" cx="371.206" cy="83.2059" r="18.6557"></circle>
            <circle id="椭圆形" fill-opacity="0.2" fill="#FF6633" fill-rule="nonzero" cx="155.206" cy="180.206" r="18.6557"></circle>
            <path d="M368.8,82.7 C368.3,81.9 368.1,81 368.1,80 C368.1,77.2 370.3,75 373.1,75 C375.9,75 378.1,77.2 378.1,80 C378.1,82.8 375.9,85 373.1,85 C372,85 371.1,84.7 370.2,84.1 L367.9,86.4 L369,87.5 L367.6,88.9 L366.5,87.8 L365.8,88.5 L366.9,89.6 L365.5,91 L363,88.5 L368.8,82.7 Z M373.1,77 C371.4,77 370.1,78.3 370.1,80 C370.1,81.7 371.4,83 373.1,83 C374.8,83 376.1,81.7 376.1,80 C376.1,78.3 374.7,77 373.1,77 Z" id="形状" fill="#FF6633" fill-rule="nonzero"></path>
            <circle id="椭圆形" fill="#FF6633" fill-rule="nonzero" cx="339.5" cy="304.5" r="21.5"></circle>
            <circle id="椭圆形" stroke="#FF6633" stroke-width="2" fill="#FFFFFF" fill-rule="nonzero" cx="338.206" cy="305.206" r="22.2059"></circle>
            <circle id="椭圆形" fill-opacity="0.2" fill="#FF6633" fill-rule="nonzero" cx="338.206" cy="305.206" r="18.6557"></circle>
            <polyline id="路径" stroke="#FF6633" stroke-width="3" stroke-linecap="round" points="331 306 336.44 311 348 299"></polyline>
            <circle id="椭圆形" stroke="#FF6633" stroke-width="2" fill="#FFFFFF" fill-rule="nonzero" cx="215.5" cy="70.5" r="20.5"></circle>
            <circle id="椭圆形" stroke="#FF6633" stroke-width="2" fill="#FFFFFF" fill-rule="nonzero" cx="205.5" cy="292.5" r="8.5"></circle>
            <circle id="椭圆形" stroke="#FF6633" stroke-width="2" fill="#FFFFFF" fill-rule="nonzero" cx="418.5" cy="177.5" r="8.5"></circle>
            <path d="M150.55,178.382 C150.99,178.822 150.941,179.556 150.453,179.996 C150.013,180.436 149.279,180.436 148.839,179.996 L147.91,179.018 L147.421,178.529 C146.541,177.649 146.053,176.573 146.004,175.4 C145.955,174.227 146.395,173.053 147.226,172.222 C148.008,171.44 149.084,171 150.208,171 C151.43,171 152.653,171.538 153.533,172.418 L157.101,175.987 C158.03,176.916 158.519,178.138 158.519,179.311 C158.519,180.436 158.128,181.462 157.297,182.293 C156.857,182.733 156.124,182.733 155.684,182.293 C155.244,181.853 155.244,181.12 155.684,180.68 C156.466,179.898 156.368,178.529 155.488,177.649 L151.919,174.08 C151.43,173.591 150.795,173.347 150.208,173.347 C149.817,173.347 149.279,173.444 148.839,173.884 C148.35,174.373 148.301,174.96 148.301,175.351 C148.35,175.938 148.644,176.476 149.084,176.916 L150.55,178.382 Z" id="路径" fill="#FF6633" fill-rule="nonzero"></path>
            <path d="M162.333,181.267 C163.213,182.147 163.701,183.222 163.75,184.396 C163.848,185.569 163.408,186.742 162.528,187.622 C161.746,188.404 160.67,188.844 159.546,188.844 C158.324,188.844 157.101,188.307 156.221,187.427 L152.653,183.858 C151.724,182.929 151.235,181.707 151.235,180.533 C151.235,179.409 151.626,178.382 152.457,177.551 C152.897,177.111 153.63,177.111 154.07,177.551 C154.51,177.991 154.51,178.724 154.07,179.164 C153.288,179.947 153.386,181.316 154.266,182.196 L157.835,185.764 C158.324,186.204 158.959,186.498 159.546,186.498 C159.937,186.498 160.475,186.4 160.915,185.96 C161.404,185.471 161.453,184.884 161.453,184.493 C161.453,183.907 161.159,183.32 160.719,182.88 L159.301,181.462 C158.861,181.022 158.861,180.289 159.301,179.849 C159.741,179.409 160.475,179.409 160.915,179.849 L162.333,181.267 Z" id="路径" fill="#FF6633" fill-rule="nonzero"></path>
            <rect id="矩形" fill="#FFFFFF" fill-rule="nonzero" x="213" y="238" width="144" height="8" rx="2"></rect>
            <path d="M214,240 C214,239.448 214.448,239 215,239 L355,239 C355.552,239 356,239.448 356,240 L356,244 C356,244.552 355.552,245 355,245 L215,245 C214.448,245 214,244.552 214,244 L214,240 Z" id="路径" stroke="#003682" stroke-width="2" fill="#FFFFFF" fill-rule="nonzero"></path>
            <rect id="矩形" fill="#FFFFFF" fill-rule="nonzero" x="207" y="131" width="155.962" height="107.32" rx="2"></rect>
            <path d="M208,133 C208,132.448 208.448,132 209,132 L360.962,132 C361.514,132 361.962,132.448 361.962,133 L361.962,237.864 C361.962,238.417 361.514,238.864 360.962,238.864 L209,238.864 C208.448,238.864 208,238.417 208,237.864 L208,133 Z" id="路径" stroke="#003682" stroke-width="2" fill-opacity="0.3" fill="#7FA5D2" fill-rule="nonzero"></path>
            <rect id="矩形" stroke="#003682" stroke-width="2" fill="#FFFFFF" fill-rule="nonzero" x="217.265" y="148.214" width="134.66" height="75.9809"></rect>
            <polygon id="路径" fill-opacity="0.3" fill="#7FA4D2" fill-rule="nonzero" points="230.935 180.372 335.939 180.372 335.939 184.963 230.935 184.963"></polygon>
            <polygon id="路径" fill-opacity="0.3" fill="#7FA4D2" fill-rule="nonzero" points="230.935 192.997 335.939 192.997 335.939 197.587 230.935 197.587"></polygon>
            <polygon id="路径" fill-opacity="0.3" fill="#7FA4D2" fill-rule="nonzero" points="230.935 207.917 315.329 207.917 315.329 212.507 230.935 212.507"></polygon>
            <path d="M237.773,162.801 C237.716,162.228 237.473,161.783 237.042,161.465 C236.611,161.148 236.026,160.989 235.287,160.989 C234.786,160.989 234.362,161.06 234.016,161.202 C233.67,161.34 233.405,161.532 233.221,161.778 C233.041,162.024 232.951,162.303 232.951,162.616 C232.941,162.876 232.996,163.104 233.114,163.298 C233.237,163.492 233.405,163.66 233.618,163.802 C233.831,163.939 234.078,164.06 234.357,164.164 C234.636,164.264 234.935,164.349 235.252,164.42 L236.559,164.732 C237.193,164.874 237.776,165.064 238.306,165.301 C238.836,165.537 239.295,165.828 239.684,166.174 C240.072,166.52 240.373,166.927 240.586,167.396 C240.804,167.864 240.915,168.402 240.92,169.008 C240.915,169.898 240.688,170.67 240.238,171.323 C239.793,171.972 239.149,172.476 238.306,172.836 C237.468,173.191 236.457,173.369 235.273,173.369 C234.099,173.369 233.076,173.189 232.205,172.829 C231.339,172.469 230.661,171.936 230.174,171.231 C229.691,170.521 229.438,169.642 229.414,168.596 L232.39,168.596 C232.423,169.084 232.563,169.491 232.809,169.818 C233.06,170.14 233.394,170.383 233.81,170.549 C234.232,170.71 234.707,170.791 235.238,170.791 C235.759,170.791 236.211,170.715 236.594,170.563 C236.983,170.412 237.283,170.201 237.496,169.931 C237.709,169.661 237.816,169.351 237.816,169.001 C237.816,168.674 237.719,168.399 237.525,168.177 C237.335,167.954 237.056,167.765 236.687,167.609 C236.322,167.452 235.875,167.31 235.344,167.183 L233.76,166.785 C232.534,166.487 231.566,166.02 230.856,165.386 C230.145,164.751 229.793,163.897 229.797,162.822 C229.793,161.941 230.027,161.172 230.501,160.514 C230.979,159.855 231.635,159.342 232.468,158.972 C233.301,158.603 234.248,158.418 235.309,158.418 C236.388,158.418 237.331,158.603 238.135,158.972 C238.945,159.342 239.575,159.855 240.025,160.514 C240.474,161.172 240.706,161.934 240.721,162.801 L237.773,162.801 Z M250.879,162.801 C250.822,162.228 250.578,161.783 250.147,161.465 C249.716,161.148 249.132,160.989 248.393,160.989 C247.891,160.989 247.467,161.06 247.122,161.202 C246.776,161.34 246.511,161.532 246.326,161.778 C246.146,162.024 246.056,162.303 246.056,162.616 C246.047,162.876 246.101,163.104 246.22,163.298 C246.343,163.492 246.511,163.66 246.724,163.802 C246.937,163.939 247.183,164.06 247.463,164.164 C247.742,164.264 248.04,164.349 248.357,164.42 L249.664,164.732 C250.299,164.874 250.881,165.064 251.411,165.301 C251.942,165.537 252.401,165.828 252.789,166.174 C253.177,166.52 253.478,166.927 253.691,167.396 C253.909,167.864 254.02,168.402 254.025,169.008 C254.02,169.898 253.793,170.67 253.343,171.323 C252.898,171.972 252.254,172.476 251.411,172.836 C250.573,173.191 249.562,173.369 248.379,173.369 C247.204,173.369 246.182,173.189 245.311,172.829 C244.444,172.469 243.767,171.936 243.279,171.231 C242.796,170.521 242.543,169.642 242.519,168.596 L245.495,168.596 C245.528,169.084 245.668,169.491 245.914,169.818 C246.165,170.14 246.499,170.383 246.916,170.549 C247.337,170.71 247.813,170.791 248.343,170.791 C248.864,170.791 249.316,170.715 249.7,170.563 C250.088,170.412 250.389,170.201 250.602,169.931 C250.815,169.661 250.921,169.351 250.921,169.001 C250.921,168.674 250.824,168.399 250.63,168.177 C250.441,167.954 250.161,167.765 249.792,167.609 C249.427,167.452 248.98,167.31 248.45,167.183 L246.866,166.785 C245.64,166.487 244.671,166.02 243.961,165.386 C243.251,164.751 242.898,163.897 242.903,162.822 C242.898,161.941 243.132,161.172 243.606,160.514 C244.084,159.855 244.74,159.342 245.573,158.972 C246.407,158.603 247.354,158.418 248.414,158.418 C249.494,158.418 250.436,158.603 251.241,158.972 C252.051,159.342 252.68,159.855 253.13,160.514 C253.58,161.172 253.812,161.934 253.826,162.801 L250.879,162.801 Z M256.094,173.163 L256.094,158.617 L259.169,158.617 L259.169,170.627 L265.405,170.627 L265.405,173.163 L256.094,173.163 Z" id="形状" fill="#003682" fill-rule="nonzero"></path>
            <path d="M327.23,201.654 C326.752,201.931 326.588,202.542 326.864,203.02 L336.692,220.042 C336.898,220.399 337.356,220.17 337.463,219.772 L338.818,214.717 C338.961,214.183 339.509,213.867 340.042,214.01 L345.096,215.364 C345.473,215.465 345.873,215.193 345.678,214.854 L335.85,197.832 C335.574,197.354 334.963,197.19 334.484,197.466 L327.23,201.654 Z" id="路径" fill="#FFFFFF"></path>
            <g id="Clipped" transform="translate(326.729979, 197.331979)">
                <mask id="mask-2" fill="white">
                    <use xlink:href="#path-1"></use>
                </mask>
                <g id="路径"></g>
                <path d="M18.3660209,18.0320209 L18.8830209,16.1000209 L18.3660209,18.0320209 Z M12.0880209,17.3850209 L10.1560209,16.8670209 L12.0880209,17.3850209 Z M10.7330209,22.4400209 L12.6650209,22.9570209 L10.7330209,22.4400209 Z M1.86602093,4.68802093 C2.14202093,5.16702093 1.97802093,5.77802093 1.50002093,6.05402093 L-0.499979071,2.59002093 C-1.93497907,3.41902093 -2.42597907,5.25402093 -1.59797907,6.68802093 L1.86602093,4.68802093 Z M11.6940209,21.7100209 L1.86602093,4.68802093 L-1.59797907,6.68802093 L8.23002093,23.7100209 L11.6940209,21.7100209 Z M12.6650209,22.9570209 L14.0190209,17.9030209 L10.1560209,16.8670209 L8.80102093,21.9220209 L12.6650209,22.9570209 Z M12.7950209,18.6100209 L17.8480209,19.9640209 L18.8830209,16.1000209 L13.8300209,14.7460209 L12.7950209,18.6100209 Z M7.38802093,1.50002093 L17.2160209,18.5220209 L20.6800209,16.5220209 L10.8520209,-0.499979071 L7.38802093,1.50002093 Z M8.75402093,1.86602093 C8.27602093,2.14202093 7.66402093,1.97802093 7.38802093,1.50002093 L10.8520209,-0.499979071 C10.0240209,-1.93497907 8.18902093,-2.42597907 6.75402093,-1.59797907 L8.75402093,1.86602093 Z M1.50002093,6.05402093 L8.75402093,1.86602093 L6.75402093,-1.59797907 L-0.499979071,2.59002093 L1.50002093,6.05402093 Z M17.8480209,19.9640209 C18.5970209,20.1640209 19.4570209,20.0320209 20.1170209,19.5070209 C20.4650209,19.2290209 20.8110209,18.7930209 20.9450209,18.1940209 C21.0830209,17.5710209 20.9450209,16.9820209 20.6800209,16.5220209 L17.2160209,18.5220209 C17.0480209,18.2320209 16.9330209,17.8040209 17.0400209,17.3240209 C17.1420209,16.8680209 17.4010209,16.5560209 17.6260209,16.3770209 C18.0400209,16.0470209 18.5120209,16.0000209 18.8830209,16.1000209 L17.8480209,19.9640209 Z M14.0190209,17.9030209 C13.8770209,18.4360209 13.3280209,18.7530209 12.7950209,18.6100209 L13.8300209,14.7460209 C12.2300209,14.3170209 10.5850209,15.2670209 10.1560209,16.8670209 L14.0190209,17.9030209 Z M8.23002093,23.7100209 C8.49902093,24.1770209 8.94902093,24.5980209 9.57102093,24.7880209 C10.1670209,24.9700209 10.7250209,24.8790209 11.1380209,24.7110209 C11.9210209,24.3930209 12.4640209,23.7090209 12.6650209,22.9570209 L8.80102093,21.9220209 C8.89602093,21.5690209 9.15602093,21.1990209 9.63102093,21.0060209 C9.89102093,20.9000209 10.2880209,20.8250209 10.7380209,20.9620209 C11.2120209,21.1070209 11.5270209,21.4220209 11.6940209,21.7100209 L8.23002093,23.7100209 Z" id="形状" fill="#003682" fill-rule="nonzero" mask="url(#mask-2)"></path>
            </g>
            <path d="M330.424,201.654 C330.902,201.931 331.066,202.542 330.79,203.02 L320.962,220.042 C320.756,220.399 320.298,220.17 320.191,219.772 L318.837,214.717 C318.694,214.183 318.145,213.867 317.612,214.01 L312.558,215.364 C312.181,215.465 311.781,215.193 311.976,214.854 L321.804,197.832 C322.08,197.354 322.691,197.19 323.17,197.466 L330.424,201.654 Z" id="路径" fill="#FFFFFF"></path>
            <g id="Clipped" transform="translate(311.924929, 197.331979)">
                <mask id="mask-4" fill="white">
                    <use xlink:href="#path-3"></use>
                </mask>
                <g id="路径"></g>
                <path d="M18.4990712,4.32202093 L19.4990712,2.59002093 L18.4990712,4.32202093 Z M11.2450712,0.134020929 L10.2450712,1.86602093 L11.2450712,0.134020929 Z M0.633071227,18.0320209 L1.15107123,19.9640209 L0.633071227,18.0320209 Z M6.91207123,17.3850209 L8.84307123,16.8670209 L6.91207123,17.3850209 Z M5.68707123,16.6780209 L6.20407123,18.6100209 L5.68707123,16.6780209 Z M8.26607123,22.4400209 L10.1980712,21.9220209 L8.26607123,22.4400209 Z M17.1330712,4.68802093 C16.8570712,5.16702093 17.0210712,5.77802093 17.4990712,6.05402093 L19.4990712,2.59002093 C20.9340712,3.41902093 21.4260712,5.25402093 20.5970712,6.68802093 L17.1330712,4.68802093 Z M7.30507123,21.7100209 L17.1330712,4.68802093 L20.5970712,6.68802093 L10.7690712,23.7100209 L7.30507123,21.7100209 Z M6.33407123,22.9570209 L4.98007123,17.9030209 L8.84307123,16.8670209 L10.1980712,21.9220209 L6.33407123,22.9570209 Z M6.20407123,18.6100209 L1.15107123,19.9640209 L0.116071227,16.1000209 L5.16907123,14.7460209 L6.20407123,18.6100209 Z M11.6110712,1.50002093 L1.78307123,18.5220209 L-1.68092877,16.5220209 L8.14707123,-0.499979071 L11.6110712,1.50002093 Z M10.2450712,1.86602093 C10.7230712,2.14202093 11.3350712,1.97802093 11.6110712,1.50002093 L8.14707123,-0.499979071 C8.97507123,-1.93497907 10.8100712,-2.42597907 12.2450712,-1.59797907 L10.2450712,1.86602093 Z M17.4990712,6.05402093 L10.2450712,1.86602093 L12.2450712,-1.59797907 L19.4990712,2.59002093 L17.4990712,6.05402093 Z M1.15107123,19.9640209 C0.402071227,20.1640209 -0.457928773,20.0320209 -1.11792877,19.5070209 C-1.46592877,19.2290209 -1.81192877,18.7930209 -1.94592877,18.1940209 C-2.08392877,17.5710209 -1.94592877,16.9820209 -1.68092877,16.5220209 L1.78307123,18.5220209 C1.95107123,18.2320209 2.06607123,17.8040209 1.95907123,17.3240209 C1.85707123,16.8680209 1.59807123,16.5560209 1.37307123,16.3770209 C0.959071227,16.0470209 0.487071227,16.0000209 0.116071227,16.1000209 L1.15107123,19.9640209 Z M4.98007123,17.9030209 C5.12307123,18.4360209 5.67107123,18.7530209 6.20407123,18.6100209 L5.16907123,14.7460209 C6.77007123,14.3170209 8.41507123,15.2670209 8.84307123,16.8670209 L4.98007123,17.9030209 Z M10.7690712,23.7100209 C10.5000712,24.1770209 10.0510712,24.5980209 9.42807123,24.7880209 C8.83207123,24.9700209 8.27507123,24.8790209 7.86107123,24.7110209 C7.07807123,24.3930209 6.53507123,23.7090209 6.33407123,22.9570209 L10.1980712,21.9220209 C10.1030712,21.5690209 9.84307123,21.1990209 9.36807123,21.0060209 C9.10807123,20.9000209 8.71107123,20.8250209 8.26107123,20.9620209 C7.78707123,21.1070209 7.47207123,21.4220209 7.30507123,21.7100209 L10.7690712,23.7100209 Z" id="形状" fill="#003682" fill-rule="nonzero" mask="url(#mask-4)"></path>
            </g>
            <path d="M331.346,172.172 C329.783,170.609 327.251,170.609 325.689,172.172 L323.103,174.757 L318.757,174.757 C316.548,174.757 314.757,176.548 314.757,178.757 L314.757,183.103 L312.172,185.689 C310.609,187.251 310.609,189.783 312.172,191.346 L314.757,193.931 L314.757,198.277 C314.757,200.486 316.548,202.277 318.757,202.277 L323.103,202.277 L325.689,204.863 C327.251,206.425 329.783,206.425 331.346,204.863 L333.931,202.277 L338.277,202.277 C340.486,202.277 342.277,200.486 342.277,198.277 L342.277,193.931 L344.863,191.346 C346.425,189.783 346.425,187.251 344.863,185.689 L342.277,183.103 L342.277,178.757 C342.277,176.548 340.486,174.757 338.277,174.757 L333.931,174.757 L331.346,172.172 Z" id="路径" fill="#FFFFFF"></path>
            <g id="Clipped" transform="translate(310.999750, 170.999750)">
                <mask id="mask-6" fill="white">
                    <use xlink:href="#path-5"></use>
                </mask>
                <g id="路径"></g>
                <path d="M14.68925,1.17225 L13.27425,-0.24275 L13.27425,-0.24275 L14.68925,1.17225 Z M20.34625,1.17225 L18.93125,2.58625 L18.93125,2.58625 L20.34625,1.17225 Z M12.10325,3.75725 L12.10325,5.75725 L12.93225,5.75725 L13.51725,5.17125 L12.10325,3.75725 Z M3.75725,12.10325 L5.17125,13.51725 L5.75725,12.93225 L5.75725,12.10325 L3.75725,12.10325 Z M1.17225,14.68925 L2.58625,16.10325 L2.58625,16.10325 L1.17225,14.68925 Z M1.17225,20.34625 L2.58625,18.93125 L1.17225,20.34625 Z M3.75725,22.93125 L5.75725,22.93125 L5.75725,22.10325 L5.17125,21.51725 L3.75725,22.93125 Z M12.10325,31.27725 L13.51725,29.86325 L12.93225,29.27725 L12.10325,29.27725 L12.10325,31.27725 Z M22.93125,31.27725 L22.93125,29.27725 L22.10325,29.27725 L21.51725,29.86325 L22.93125,31.27725 Z M31.27725,22.93125 L29.86325,21.51725 L29.27725,22.10225 L29.27725,22.93125 L31.27725,22.93125 Z M33.86325,14.68925 L35.27725,13.27425 L35.27725,13.27425 L33.86325,14.68925 Z M31.27725,12.10325 L29.27725,12.10325 L29.27725,12.93225 L29.86325,13.51825 L31.27725,12.10325 Z M22.93125,3.75725 L21.51725,5.17125 L22.10225,5.75725 L22.93125,5.75725 L22.93125,3.75725 Z M16.10325,2.58625 C16.88425,1.80525 18.15025,1.80525 18.93125,2.58625 L21.76025,-0.24275 C19.41725,-2.58575 15.61825,-2.58575 13.27425,-0.24275 L16.10325,2.58625 Z M13.51725,5.17125 L16.10325,2.58625 L13.27425,-0.24275 L10.68925,2.34325 L13.51725,5.17125 Z M7.75725,5.75725 L12.10325,5.75725 L12.10325,1.75725 L7.75725,1.75725 L7.75725,5.75725 Z M5.75725,7.75725 C5.75725,6.65225 6.65225,5.75725 7.75725,5.75725 L7.75725,1.75725 C4.44325,1.75725 1.75725,4.44325 1.75725,7.75725 L5.75725,7.75725 Z M5.75725,12.10325 L5.75725,7.75725 L1.75725,7.75725 L1.75725,12.10325 L5.75725,12.10325 Z M2.58625,16.10325 L5.17125,13.51725 L2.34325,10.68925 L-0.24275,13.27425 L2.58625,16.10325 Z M2.58625,18.93125 C1.80525,18.15025 1.80525,16.88425 2.58625,16.10325 L-0.24275,13.27425 C-2.58575,15.61825 -2.58575,19.41725 -0.24275,21.76025 L2.58625,18.93125 Z M5.17125,21.51725 L2.58625,18.93125 L-0.24275,21.76025 L2.34325,24.34525 L5.17125,21.51725 Z M5.75725,27.27725 L5.75725,22.93125 L1.75725,22.93125 L1.75725,27.27725 L5.75725,27.27725 Z M7.75725,29.27725 C6.65225,29.27725 5.75725,28.38225 5.75725,27.27725 L1.75725,27.27725 C1.75725,30.59125 4.44325,33.27725 7.75725,33.27725 L7.75725,29.27725 Z M12.10325,29.27725 L7.75725,29.27725 L7.75725,33.27725 L12.10325,33.27725 L12.10325,29.27725 Z M16.10325,32.44825 L13.51725,29.86325 L10.68925,32.69125 L13.27425,35.27725 L16.10325,32.44825 Z M18.93125,32.44825 C18.15025,33.22925 16.88425,33.22925 16.10325,32.44825 L13.27425,35.27725 C15.61825,37.62025 19.41725,37.62025 21.76025,35.27725 L18.93125,32.44825 Z M21.51725,29.86325 L18.93125,32.44825 L21.76025,35.27725 L24.34525,32.69125 L21.51725,29.86325 Z M27.27725,29.27725 L22.93125,29.27725 L22.93125,33.27725 L27.27725,33.27725 L27.27725,29.27725 Z M29.27725,27.27725 C29.27725,28.38225 28.38225,29.27725 27.27725,29.27725 L27.27725,33.27725 C30.59125,33.27725 33.27725,30.59125 33.27725,27.27725 L29.27725,27.27725 Z M29.27725,22.93125 L29.27725,27.27725 L33.27725,27.27725 L33.27725,22.93125 L29.27725,22.93125 Z M32.44825,18.93125 L29.86325,21.51725 L32.69125,24.34525 L35.27725,21.76025 L32.44825,18.93125 Z M32.44825,16.10325 C33.22925,16.88425 33.22925,18.15025 32.44825,18.93125 L35.27725,21.76025 C37.62025,19.41725 37.62025,15.61825 35.27725,13.27425 L32.44825,16.10325 Z M29.86325,13.51825 L32.44825,16.10325 L35.27725,13.27425 L32.69125,10.68925 L29.86325,13.51825 Z M29.27725,7.75725 L29.27725,12.10325 L33.27725,12.10325 L33.27725,7.75725 L29.27725,7.75725 Z M27.27725,5.75725 C28.38225,5.75725 29.27725,6.65225 29.27725,7.75725 L33.27725,7.75725 C33.27725,4.44325 30.59125,1.75725 27.27725,1.75725 L27.27725,5.75725 Z M22.93125,5.75725 L27.27725,5.75725 L27.27725,1.75725 L22.93125,1.75725 L22.93125,5.75725 Z M18.93125,2.58625 L21.51725,5.17125 L24.34525,2.34325 L21.76025,-0.24275 L18.93125,2.58625 Z" id="形状" fill="#003682" fill-rule="nonzero" mask="url(#mask-6)"></path>
            </g>
            <circle id="椭圆形" stroke="#003682" stroke-width="2" fill="#FFFFFF" fill-rule="nonzero" cx="328.62" cy="188.62" r="9.82764"></circle>
        </g>
    </g>
</svg>