<?xml version="1.0" encoding="UTF-8"?>
<svg width="570px" height="370px" viewBox="0 0 570 370" version="1.1" xmlns="http://www.w3.org/2000/svg" xmlns:xlink="http://www.w3.org/1999/xlink">
    <title>快速构建基础安全能力</title>
    <g id="页面-1" stroke="none" stroke-width="1" fill="none" fill-rule="evenodd">
        <g id="快速构建基础安全能力">
            <rect id="矩形" fill-opacity="0" fill="#FFFFFF" fill-rule="nonzero" x="0" y="0" width="570" height="370"></rect>
            <polygon id="路径" fill-opacity="0.2" fill="#FF6633" fill-rule="nonzero" points="251.861 290 365.066 153.704 318.073 153.704 371 80 291.247 80 249 193.798 289.976 193.798"></polygon>
            <line x1="139" y1="185" x2="454" y2="185" id="路径" stroke="#003682" stroke-linecap="round" stroke-dasharray="2"></line>
            <line x1="159" y1="169" x2="434" y2="169" id="路径" stroke="#003682" stroke-linecap="round" stroke-dasharray="2"></line>
            <line x1="159" y1="201" x2="434" y2="201" id="路径" stroke="#003682" stroke-linecap="round" stroke-dasharray="2"></line>
            <line x1="85" y1="247" x2="213.5" y2="247" id="路径" stroke="#003682" stroke-linecap="round" stroke-dasharray="2"></line>
            <line x1="216" y1="247" x2="246.5" y2="247" id="路径" stroke="#003682" stroke-linecap="round" stroke-dasharray="2"></line>
            <line x1="349" y1="120" x2="379.5" y2="120" id="路径" stroke="#003682" stroke-linecap="round" stroke-dasharray="2"></line>
            <line x1="179" y1="223" x2="414" y2="223" id="路径" stroke="#003682" stroke-linecap="round" stroke-dasharray="2"></line>
            <line x1="179" y1="150" x2="414" y2="150" id="路径" stroke="#003682" stroke-linecap="round" stroke-dasharray="2"></line>
            <circle id="椭圆形" stroke="#003682" fill="#FFFFFF" fill-rule="nonzero" cx="296" cy="176" r="73.5"></circle>
            <circle id="椭圆形" fill-opacity="0.3" fill="#7FA4D2" fill-rule="nonzero" cx="296" cy="176" r="59"></circle>
            <circle id="椭圆形" stroke="#003682" fill="#FFFFFF" fill-rule="nonzero" cx="296" cy="176" r="46.5"></circle>
            <polygon id="路径" fill="#003682" fill-rule="nonzero" points="330.205 174.996 296.444 183.071 296 169.078"></polygon>
            <circle id="椭圆形" stroke="#003682" fill="#FFFFFF" fill-rule="nonzero" cx="296" cy="176" r="6.5"></circle>
            <circle id="椭圆形" stroke="#003682" fill="#003682" fill-rule="nonzero" cx="296" cy="176" r="3.5"></circle>
            <path d="M296,131.75 C296.138,131.75 296.25,131.862 296.25,132 L296.25,145.5 C296.25,145.638 296.138,145.75 296,145.75 C295.862,145.75 295.75,145.638 295.75,145.5 L295.75,132 C295.75,131.862 295.862,131.75 296,131.75 Z" id="路径" fill-opacity="0.3" fill="#7FA4D2" fill-rule="nonzero"></path>
            <path d="M322.991,140.87 C323.101,140.954 323.122,141.111 323.038,141.22 L314.85,151.954 C314.766,152.063 314.609,152.085 314.499,152.001 C314.39,151.917 314.369,151.76 314.452,151.65 L322.641,140.917 C322.724,140.807 322.881,140.786 322.991,140.87 Z" id="路径" fill-opacity="0.3" fill="#7FA4D2" fill-rule="nonzero"></path>
            <path d="M307.694,133.573 C307.73,133.439 307.651,133.302 307.517,133.266 C307.384,133.231 307.247,133.31 307.211,133.443 L303.717,146.483 C303.681,146.616 303.761,146.754 303.894,146.789 C304.027,146.825 304.164,146.746 304.2,146.613 L307.694,133.573 Z" id="路径" fill-opacity="0.3" fill="#7FA4D2" fill-rule="nonzero"></path>
            <path d="M331.228,149.061 C331.313,149.171 331.292,149.328 331.183,149.412 L320.496,157.66 C320.387,157.745 320.23,157.724 320.145,157.615 C320.061,157.506 320.081,157.349 320.19,157.264 L330.878,149.016 C330.987,148.932 331.144,148.952 331.228,149.061 Z" id="路径" fill-opacity="0.3" fill="#7FA4D2" fill-rule="nonzero"></path>
            <path d="M318.342,138.053 C318.411,137.934 318.37,137.781 318.25,137.712 C318.13,137.643 317.978,137.684 317.908,137.803 L311.158,149.495 C311.089,149.614 311.13,149.767 311.25,149.836 C311.37,149.905 311.522,149.864 311.592,149.745 L318.342,138.053 Z" id="路径" fill-opacity="0.3" fill="#7FA4D2" fill-rule="nonzero"></path>
            <path d="M337.065,159.106 C337.118,159.233 337.058,159.379 336.93,159.433 L324.473,164.634 C324.345,164.687 324.199,164.627 324.145,164.499 C324.092,164.372 324.152,164.226 324.28,164.172 L336.738,158.971 C336.865,158.918 337.012,158.978 337.065,159.106 Z" id="路径" fill-opacity="0.3" fill="#7FA4D2" fill-rule="nonzero"></path>
            <path d="M327.466,145.137 C327.564,145.04 327.564,144.881 327.466,144.784 C327.369,144.686 327.21,144.686 327.113,144.784 L317.567,154.33 C317.469,154.427 317.469,154.586 317.567,154.683 C317.664,154.781 317.823,154.781 317.92,154.683 L327.466,145.137 Z" id="路径" fill-opacity="0.3" fill="#7FA4D2" fill-rule="nonzero"></path>
            <path d="M340.103,170.318 C340.121,170.455 340.025,170.581 339.888,170.599 L326.509,172.399 C326.372,172.417 326.246,172.321 326.228,172.184 C326.209,172.047 326.305,171.922 326.442,171.903 L339.822,170.104 C339.959,170.085 340.084,170.181 340.103,170.318 Z" id="路径" fill-opacity="0.3" fill="#7FA4D2" fill-rule="nonzero"></path>
            <path d="M334.447,154.342 C334.566,154.272 334.607,154.12 334.538,154 C334.469,153.88 334.316,153.839 334.197,153.908 L322.505,160.658 C322.386,160.728 322.345,160.88 322.414,161 C322.483,161.12 322.636,161.161 322.755,161.092 L334.447,154.342 Z" id="路径" fill-opacity="0.3" fill="#7FA4D2" fill-rule="nonzero"></path>
            <path d="M338.984,164.733 C339.019,164.866 338.94,165.003 338.807,165.039 L325.767,168.533 C325.634,168.569 325.497,168.489 325.461,168.356 C325.425,168.223 325.504,168.086 325.638,168.05 L338.678,164.556 C338.811,164.52 338.948,164.599 338.984,164.733 Z" id="路径" fill-opacity="0.3" fill="#7FA4D2" fill-rule="nonzero"></path>
            <path d="M340.25,176.5 C340.388,176.5 340.5,176.388 340.5,176.25 C340.5,176.112 340.388,176 340.25,176 L326.75,176 C326.612,176 326.5,176.112 326.5,176.25 C326.5,176.388 326.612,176.5 326.75,176.5 L340.25,176.5 Z" id="路径" fill-opacity="0.3" fill="#7FA4D2" fill-rule="nonzero"></path>
            <path d="M265.75,172.354 C265.732,172.491 265.607,172.587 265.47,172.57 L252.081,170.845 C251.944,170.827 251.847,170.702 251.865,170.565 C251.882,170.428 252.008,170.332 252.145,170.349 L265.534,172.074 C265.671,172.091 265.768,172.217 265.75,172.354 Z" id="路径" fill-opacity="0.3" fill="#7FA4D2" fill-rule="nonzero"></path>
            <path d="M267.463,164.793 C267.591,164.846 267.737,164.785 267.789,164.657 C267.842,164.529 267.781,164.383 267.653,164.331 L255.166,159.2 C255.038,159.147 254.892,159.208 254.84,159.336 C254.787,159.464 254.848,159.61 254.976,159.662 L267.463,164.793 Z" id="路径" fill-opacity="0.3" fill="#7FA4D2" fill-rule="nonzero"></path>
            <path d="M265.5,176.25 C265.5,176.388 265.388,176.5 265.25,176.5 L251.75,176.5 C251.612,176.5 251.5,176.388 251.5,176.25 C251.5,176.112 251.612,176 251.75,176 L265.25,176 C265.388,176 265.5,176.112 265.5,176.25 Z" id="路径" fill-opacity="0.3" fill="#7FA4D2" fill-rule="nonzero"></path>
            <path d="M271.4,157.798 C271.51,157.882 271.667,157.86 271.751,157.751 C271.835,157.641 271.813,157.484 271.704,157.4 L260.97,149.212 C260.861,149.128 260.704,149.149 260.62,149.259 C260.536,149.369 260.557,149.526 260.667,149.61 L271.4,157.798 Z" id="路径" fill-opacity="0.3" fill="#7FA4D2" fill-rule="nonzero"></path>
            <path d="M266.539,168.356 C266.504,168.489 266.366,168.568 266.233,168.533 L253.193,165.039 C253.06,165.003 252.981,164.866 253.016,164.732 C253.052,164.599 253.189,164.52 253.322,164.556 L266.362,168.05 C266.496,168.086 266.575,168.223 266.539,168.356 Z" id="路径" fill-opacity="0.3" fill="#7FA4D2" fill-rule="nonzero"></path>
            <path d="M277.014,152.06 C277.099,152.169 277.256,152.189 277.365,152.105 C277.474,152.02 277.495,151.863 277.41,151.754 L269.162,141.067 C269.078,140.958 268.921,140.937 268.811,141.022 C268.702,141.106 268.682,141.263 268.766,141.372 L277.014,152.06 Z" id="路径" fill-opacity="0.3" fill="#7FA4D2" fill-rule="nonzero"></path>
            <path d="M269.586,161 C269.517,161.12 269.364,161.161 269.245,161.092 L257.553,154.342 C257.434,154.272 257.393,154.12 257.462,154 C257.531,153.88 257.684,153.839 257.803,153.908 L269.495,160.658 C269.614,160.728 269.655,160.88 269.586,161 Z" id="路径" fill-opacity="0.3" fill="#7FA4D2" fill-rule="nonzero"></path>
            <path d="M283.922,147.97 C283.976,148.098 284.122,148.158 284.249,148.104 C284.377,148.051 284.437,147.905 284.384,147.777 L279.183,135.32 C279.129,135.192 278.983,135.132 278.856,135.185 C278.728,135.238 278.668,135.385 278.721,135.512 L283.922,147.97 Z" id="路径" fill-opacity="0.3" fill="#7FA4D2" fill-rule="nonzero"></path>
            <path d="M274.433,154.683 C274.336,154.781 274.177,154.781 274.08,154.683 L264.534,145.137 C264.436,145.04 264.436,144.881 264.534,144.784 C264.631,144.686 264.79,144.686 264.887,144.784 L274.433,154.33 C274.531,154.427 274.531,154.586 274.433,154.683 Z" id="路径" fill-opacity="0.3" fill="#7FA4D2" fill-rule="nonzero"></path>
            <path d="M291.653,145.808 C291.672,145.945 291.797,146.041 291.934,146.022 C292.071,146.004 292.167,145.878 292.149,145.741 L290.349,132.362 C290.331,132.225 290.205,132.129 290.068,132.147 C289.931,132.166 289.835,132.291 289.854,132.428 L291.653,145.808 Z" id="路径" fill-opacity="0.3" fill="#7FA4D2" fill-rule="nonzero"></path>
            <path d="M280.75,149.836 C280.63,149.905 280.478,149.864 280.408,149.745 L273.658,138.053 C273.589,137.934 273.63,137.781 273.75,137.712 C273.87,137.643 274.022,137.684 274.092,137.803 L280.842,149.495 C280.911,149.614 280.87,149.767 280.75,149.836 Z" id="路径" fill-opacity="0.3" fill="#7FA4D2" fill-rule="nonzero"></path>
            <path d="M299.68,145.72 C299.663,145.857 299.759,145.982 299.896,146 C300.033,146.018 300.159,145.921 300.176,145.784 L301.901,132.395 C301.918,132.258 301.822,132.132 301.685,132.115 C301.548,132.097 301.423,132.194 301.405,132.331 L299.68,145.72 Z" id="路径" fill-opacity="0.3" fill="#7FA4D2" fill-rule="nonzero"></path>
            <path d="M288.106,146.789 C287.973,146.825 287.836,146.746 287.8,146.613 L284.306,133.573 C284.27,133.439 284.349,133.302 284.483,133.266 C284.616,133.231 284.753,133.31 284.789,133.443 L288.283,146.483 C288.319,146.617 288.239,146.754 288.106,146.789 Z" id="路径" fill-opacity="0.3" fill="#7FA4D2" fill-rule="nonzero"></path>
            <path d="M307.457,147.713 C307.404,147.841 307.465,147.987 307.593,148.039 C307.721,148.092 307.867,148.031 307.919,147.903 L313.05,135.416 C313.103,135.288 313.042,135.142 312.914,135.09 C312.786,135.037 312.64,135.098 312.588,135.226 L307.457,147.713 Z" id="路径" fill-opacity="0.3" fill="#7FA4D2" fill-rule="nonzero"></path>
            <circle id="椭圆形" fill="#FF6633" fill-rule="nonzero" cx="336" cy="114" r="3"></circle>
            <circle id="椭圆形" fill="#003682" fill-rule="nonzero" cx="216" cy="247.5" r="2.5"></circle>
            <line x1="484.5" y1="120" x2="382" y2="120" id="路径" stroke="#003682" stroke-linecap="round" stroke-dasharray="2"></line>
            <circle id="椭圆形" fill="#003682" fill-rule="nonzero" transform="translate(379.500000, 119.500000) scale(-1, 1) translate(-379.500000, -119.500000) " cx="379.5" cy="119.5" r="2.5"></circle>
            <line x1="152" y1="135" x2="182.5" y2="135" id="路径" stroke="#FF6633" stroke-linecap="round" stroke-dasharray="2"></line>
            <line x1="245" y1="135" x2="185" y2="135" id="路径" stroke="#FF6633" stroke-linecap="round" stroke-dasharray="2"></line>
            <circle id="椭圆形" fill="#FF6633" fill-rule="nonzero" transform="translate(182.500000, 134.500000) scale(-1, 1) translate(-182.500000, -134.500000) " cx="182.5" cy="134.5" r="2.5"></circle>
            <line x1="321" y1="242" x2="351.5" y2="242" id="路径" stroke="#FF6633" stroke-linecap="round" stroke-dasharray="2"></line>
            <line x1="414" y1="242" x2="354" y2="242" id="路径" stroke="#FF6633" stroke-linecap="round" stroke-dasharray="2"></line>
            <circle id="椭圆形" fill="#FF6633" fill-rule="nonzero" transform="translate(351.500000, 241.500000) scale(-1, 1) translate(-351.500000, -241.500000) " cx="351.5" cy="241.5" r="2.5"></circle>
        </g>
    </g>
</svg>