<svg width="640" height="570" viewBox="0 0 640 570" fill="none" xmlns="http://www.w3.org/2000/svg">
<rect width="640" height="570" fill="white"/>
<rect width="242" height="339" rx="5" transform="matrix(1 0 0 -1 227 459)" fill="#F0F3F6"/>
<path d="M310 397.662L330.473 397.662C335.996 397.662 340.473 393.185 340.473 387.662L340.473 322.595" stroke="#808080" stroke-linecap="round" stroke-linejoin="round"/>
<path d="M360.789 280.369L344.169 280.369C338.646 280.369 334.169 284.846 334.169 290.369L334.169 304.766" stroke="#808080" stroke-linecap="round" stroke-linejoin="round"/>
<path d="M323.66 389.217L329.168 389.217C331.93 389.217 334.168 386.978 334.168 384.217L334.168 314.15" stroke="#808080" stroke-linecap="round" stroke-linejoin="round"/>
<path d="M360.789 288.814L345.473 288.814C342.712 288.814 340.473 291.053 340.473 293.814L340.473 313.211" stroke="#808080" stroke-linecap="round" stroke-linejoin="round"/>
<path d="M313.853 389.217L317.355 389.217" stroke="#808080" stroke-linecap="round"/>
<path d="M118.203 202.896L130.096 202.896C135.619 202.896 140.096 207.373 140.096 212.895L140.096 256.826" stroke="#808080" stroke-linecap="round" stroke-linejoin="round"/>
<path d="M154.691 287.162L145.567 287.162C140.044 287.162 135.567 282.685 135.567 277.162L135.567 269.635" stroke="#808080" stroke-linecap="round" stroke-linejoin="round"/>
<path d="M128.018 208.963L130.567 208.963C133.328 208.963 135.567 211.201 135.567 213.963L135.567 262.893" stroke="#808080" stroke-linecap="round" stroke-linejoin="round"/>
<path d="M154.691 281.094L145.096 281.094C142.335 281.094 140.096 278.855 140.096 276.094L140.096 263.566" stroke="#808080" stroke-linecap="round" stroke-linejoin="round"/>
<path d="M120.971 208.963L123.487 208.963" stroke="#808080" stroke-linecap="round"/>
<path d="M310.35 171.522L330.823 171.522C336.346 171.522 340.823 176 340.823 181.522L340.823 246.589" stroke="#808080" stroke-linecap="round" stroke-linejoin="round"/>
<path d="M361.139 288.814L344.518 288.814C338.995 288.814 334.518 284.337 334.518 278.814L334.518 264.418" stroke="#808080" stroke-linecap="round" stroke-linejoin="round"/>
<path d="M324.01 179.968L329.518 179.968C332.279 179.968 334.518 182.206 334.518 184.968L334.518 255.035" stroke="#808080" stroke-linecap="round" stroke-linejoin="round"/>
<path d="M361.139 280.369L345.823 280.369C343.062 280.369 340.823 278.131 340.823 275.369L340.823 255.972" stroke="#808080" stroke-linecap="round" stroke-linejoin="round"/>
<path d="M314.202 179.968L317.705 179.968" stroke="#808080" stroke-linecap="round"/>
<path d="M239.813 171.522L219.34 171.522C213.817 171.522 209.34 176 209.34 181.522L209.34 246.589" stroke="#808080" stroke-linecap="round" stroke-linejoin="round"/>
<path d="M198 289L206 289C211.523 289 216 284.523 216 279L216 264" stroke="#808080" stroke-linecap="round" stroke-linejoin="round"/>
<path d="M226.153 179.968L220.645 179.968C217.884 179.968 215.645 182.206 215.645 184.968L215.645 255.035" stroke="#808080" stroke-linecap="round" stroke-linejoin="round"/>
<path d="M198 280L204 280C206.761 280 209 277.761 209 275L209 256" stroke="#808080" stroke-linecap="round" stroke-linejoin="round"/>
<path d="M235.961 179.968L232.458 179.968" stroke="#808080" stroke-linecap="round"/>
<path d="M118.203 365.697L130.096 365.697C135.619 365.697 140.096 361.22 140.096 355.697L140.096 311.767" stroke="#808080" stroke-linecap="round" stroke-linejoin="round"/>
<path d="M154.691 281.432L145.567 281.432C140.044 281.432 135.567 285.909 135.567 291.432L135.567 298.959" stroke="#808080" stroke-linecap="round" stroke-linejoin="round"/>
<path d="M128.018 359.631L130.567 359.631C133.328 359.631 135.567 357.392 135.567 354.631L135.567 305.701" stroke="#808080" stroke-linecap="round" stroke-linejoin="round"/>
<path d="M154.691 287.498L145.096 287.498C142.335 287.498 140.096 289.737 140.096 292.498L140.096 305.025" stroke="#808080" stroke-linecap="round" stroke-linejoin="round"/>
<path d="M120.971 359.631L123.487 359.631" stroke="#808080" stroke-linecap="round"/>
<path d="M239.813 398.131L219.34 398.131C213.817 398.131 209.34 393.654 209.34 388.131L209.34 323.064" stroke="#808080" stroke-linecap="round" stroke-linejoin="round"/>
<path d="M198 280L206 280C211.523 280 216 284.477 216 290L216 304" stroke="#808080" stroke-linecap="round" stroke-linejoin="round"/>
<path d="M226.153 389.686L220.645 389.686C217.884 389.686 215.645 387.447 215.645 384.686L215.645 314.619" stroke="#808080" stroke-linecap="round" stroke-linejoin="round"/>
<path d="M198 289L204 289C206.761 289 209 291.239 209 294L209 314" stroke="#808080" stroke-linecap="round" stroke-linejoin="round"/>
<path d="M235.961 389.686L232.458 389.686" stroke="#808080" stroke-linecap="round"/>
<path d="M239.813 398.131L219.34 398.131C213.817 398.131 209.34 393.654 209.34 388.131L209.34 323.064" stroke="#808080" stroke-linecap="round" stroke-linejoin="round"/>
<path d="M198 280L206 280C211.523 280 216 284.477 216 290L216 304" stroke="#808080" stroke-linecap="round" stroke-linejoin="round"/>
<path d="M226.153 389.686L220.645 389.686C217.884 389.686 215.645 387.447 215.645 384.686L215.645 314.619" stroke="#808080" stroke-linecap="round" stroke-linejoin="round"/>
<path d="M198 289L204 289C206.761 289 209 291.239 209 294L209 314" stroke="#808080" stroke-linecap="round" stroke-linejoin="round"/>
<path d="M235.961 389.686L232.458 389.686" stroke="#808080" stroke-linecap="round"/>
<rect width="36.6517" height="34.97" transform="matrix(-1 0 0 1 294.583 385.828)" fill="#7FA5D2"/>
<mask id="path-38-inside-1_469_9441" fill="white">
<rect width="43.982" height="12.7164" rx="1" transform="matrix(-1 0 0 1 298.53 380)"/>
</mask>
<rect width="43.982" height="12.7164" rx="1" transform="matrix(-1 0 0 1 298.53 380)" fill="white" stroke="#003682" stroke-width="3" mask="url(#path-38-inside-1_469_9441)"/>
<mask id="path-39-inside-2_469_9441" fill="white">
<rect width="43.982" height="12.7164" rx="1" transform="matrix(-1 0 0 1 298.53 394.307)"/>
</mask>
<rect width="43.982" height="12.7164" rx="1" transform="matrix(-1 0 0 1 298.53 394.307)" fill="white" stroke="#003682" stroke-width="3" mask="url(#path-39-inside-2_469_9441)"/>
<path fill-rule="evenodd" clip-rule="evenodd" d="M288.381 398.016H286.689V403.314H288.381V398.016ZM292.892 398.016H291.2V403.314H292.892V398.016ZM282.742 398.016H284.433V403.314H282.742V398.016Z" fill="#003682"/>
<mask id="path-41-inside-3_469_9441" fill="white">
<rect width="43.982" height="12.7164" rx="1" transform="matrix(-1 0 0 1 298.53 408.611)"/>
</mask>
<rect width="43.982" height="12.7164" rx="1" transform="matrix(-1 0 0 1 298.53 408.611)" fill="white" stroke="#003682" stroke-width="3" mask="url(#path-41-inside-3_469_9441)"/>
<path fill-rule="evenodd" clip-rule="evenodd" d="M292.892 412.32H291.2V417.619H292.892V412.32ZM288.381 412.32H286.689V417.619H288.381V412.32ZM282.742 412.32H284.433V417.619H282.742V412.32Z" fill="#003682"/>
<path fill-rule="evenodd" clip-rule="evenodd" d="M292.892 383.709H291.2V389.007H292.892V383.709ZM288.381 383.709H286.689V389.007H288.381V383.709ZM282.742 383.709H284.433V389.007H282.742V383.709Z" fill="#003682"/>
<path d="M250.135 436.541V427.814H255.402V428.751H251.192V431.7H255.129V432.638H251.192V435.604H255.47V436.541H250.135ZM259.642 436.677C259.097 436.677 258.615 436.54 258.197 436.264C257.78 435.986 257.453 435.594 257.217 435.088C256.982 434.579 256.864 433.979 256.864 433.285C256.864 432.598 256.982 432.001 257.217 431.496C257.453 430.99 257.781 430.599 258.202 430.324C258.622 430.048 259.108 429.91 259.659 429.91C260.085 429.91 260.422 429.981 260.669 430.123C260.919 430.263 261.109 430.422 261.24 430.601C261.374 430.777 261.477 430.922 261.551 431.035H261.636V427.814H262.642V436.541H261.67V435.535H261.551C261.477 435.655 261.372 435.805 261.236 435.987C261.099 436.166 260.905 436.327 260.652 436.469C260.399 436.608 260.063 436.677 259.642 436.677ZM259.778 435.774C260.182 435.774 260.523 435.669 260.801 435.459C261.08 435.246 261.291 434.952 261.436 434.577C261.581 434.199 261.653 433.763 261.653 433.268C261.653 432.78 261.582 432.352 261.44 431.986C261.298 431.616 261.088 431.329 260.81 431.125C260.531 430.917 260.188 430.814 259.778 430.814C259.352 430.814 258.997 430.923 258.713 431.142C258.432 431.358 258.22 431.652 258.078 432.024C257.939 432.393 257.869 432.808 257.869 433.268C257.869 433.734 257.94 434.157 258.082 434.538C258.227 434.916 258.44 435.217 258.722 435.442C259.006 435.663 259.358 435.774 259.778 435.774ZM267.266 439.132C266.78 439.132 266.362 439.069 266.013 438.944C265.663 438.822 265.372 438.66 265.139 438.459C264.909 438.26 264.726 438.047 264.589 437.819L265.391 437.257C265.482 437.376 265.597 437.513 265.736 437.666C265.875 437.822 266.065 437.957 266.307 438.071C266.551 438.187 266.871 438.246 267.266 438.246C267.794 438.246 268.23 438.118 268.574 437.862C268.918 437.606 269.089 437.206 269.089 436.66V435.331H269.004C268.93 435.45 268.825 435.598 268.689 435.774C268.555 435.947 268.362 436.102 268.109 436.238C267.859 436.372 267.521 436.439 267.095 436.439C266.567 436.439 266.092 436.314 265.672 436.064C265.254 435.814 264.923 435.45 264.679 434.973C264.438 434.496 264.317 433.916 264.317 433.234C264.317 432.564 264.435 431.98 264.67 431.483C264.906 430.983 265.234 430.596 265.655 430.324C266.075 430.048 266.561 429.91 267.112 429.91C267.538 429.91 267.876 429.981 268.126 430.123C268.379 430.263 268.572 430.422 268.706 430.601C268.842 430.777 268.947 430.922 269.021 431.035H269.124V429.996H270.095V436.729C270.095 437.291 269.967 437.748 269.712 438.101C269.459 438.456 269.118 438.716 268.689 438.881C268.263 439.048 267.788 439.132 267.266 439.132ZM267.232 435.535C267.635 435.535 267.976 435.443 268.254 435.258C268.533 435.074 268.744 434.808 268.889 434.461C269.034 434.115 269.107 433.7 269.107 433.217C269.107 432.746 269.036 432.329 268.893 431.969C268.751 431.608 268.541 431.325 268.263 431.121C267.984 430.916 267.641 430.814 267.232 430.814C266.805 430.814 266.45 430.922 266.166 431.138C265.885 431.354 265.673 431.643 265.531 432.007C265.392 432.371 265.322 432.774 265.322 433.217C265.322 433.672 265.393 434.074 265.536 434.423C265.68 434.77 265.893 435.042 266.175 435.241C266.459 435.437 266.811 435.535 267.232 435.535ZM274.68 436.677C274.05 436.677 273.506 436.538 273.048 436.26C272.594 435.979 272.243 435.586 271.996 435.084C271.751 434.578 271.629 433.99 271.629 433.319C271.629 432.649 271.751 432.058 271.996 431.547C272.243 431.032 272.587 430.632 273.027 430.345C273.47 430.055 273.987 429.91 274.578 429.91C274.919 429.91 275.256 429.967 275.588 430.081C275.92 430.194 276.223 430.379 276.496 430.635C276.768 430.888 276.986 431.223 277.148 431.64C277.31 432.058 277.391 432.572 277.391 433.183V433.609H272.345V432.74H276.368C276.368 432.371 276.294 432.041 276.146 431.751C276.001 431.461 275.794 431.233 275.524 431.065C275.257 430.898 274.942 430.814 274.578 430.814C274.178 430.814 273.831 430.913 273.538 431.112C273.249 431.308 273.026 431.564 272.869 431.879C272.713 432.194 272.635 432.532 272.635 432.893V433.473C272.635 433.967 272.72 434.386 272.891 434.73C273.064 435.071 273.304 435.331 273.611 435.51C273.918 435.686 274.274 435.774 274.68 435.774C274.945 435.774 275.183 435.737 275.396 435.663C275.612 435.586 275.798 435.473 275.955 435.322C276.111 435.169 276.232 434.979 276.317 434.751L277.288 435.024C277.186 435.354 277.014 435.643 276.773 435.893C276.531 436.14 276.233 436.334 275.878 436.473C275.523 436.609 275.124 436.677 274.68 436.677ZM282.432 436.541V427.814H285.381C286.065 427.814 286.625 427.937 287.06 428.184C287.497 428.429 287.821 428.76 288.031 429.177C288.241 429.595 288.347 430.061 288.347 430.575C288.347 431.089 288.241 431.557 288.031 431.977C287.824 432.398 287.503 432.733 287.068 432.983C286.634 433.23 286.077 433.354 285.398 433.354H283.284V432.416H285.364C285.832 432.416 286.209 432.335 286.493 432.173C286.777 432.011 286.983 431.792 287.111 431.517C287.241 431.238 287.307 430.925 287.307 430.575C287.307 430.226 287.241 429.913 287.111 429.638C286.983 429.362 286.776 429.146 286.489 428.99C286.202 428.831 285.821 428.751 285.347 428.751H283.489V436.541H282.432ZM292.501 436.677C291.911 436.677 291.392 436.537 290.946 436.256C290.503 435.974 290.156 435.581 289.906 435.075C289.659 434.569 289.536 433.979 289.536 433.302C289.536 432.621 289.659 432.025 289.906 431.517C290.156 431.008 290.503 430.613 290.946 430.332C291.392 430.051 291.911 429.91 292.501 429.91C293.092 429.91 293.609 430.051 294.053 430.332C294.499 430.613 294.845 431.008 295.092 431.517C295.342 432.025 295.467 432.621 295.467 433.302C295.467 433.979 295.342 434.569 295.092 435.075C294.845 435.581 294.499 435.974 294.053 436.256C293.609 436.537 293.092 436.677 292.501 436.677ZM292.501 435.774C292.95 435.774 293.32 435.659 293.609 435.429C293.899 435.199 294.114 434.896 294.253 434.521C294.392 434.146 294.462 433.74 294.462 433.302C294.462 432.865 294.392 432.457 294.253 432.079C294.114 431.702 293.899 431.396 293.609 431.163C293.32 430.93 292.95 430.814 292.501 430.814C292.053 430.814 291.683 430.93 291.393 431.163C291.104 431.396 290.889 431.702 290.75 432.079C290.611 432.457 290.541 432.865 290.541 433.302C290.541 433.74 290.611 434.146 290.75 434.521C290.889 434.896 291.104 435.199 291.393 435.429C291.683 435.659 292.053 435.774 292.501 435.774ZM297.139 436.541V427.814H300.088C300.772 427.814 301.332 427.937 301.767 428.184C302.204 428.429 302.528 428.76 302.738 429.177C302.949 429.595 303.054 430.061 303.054 430.575C303.054 431.089 302.949 431.557 302.738 431.977C302.531 432.398 302.21 432.733 301.775 432.983C301.341 433.23 300.784 433.354 300.105 433.354H297.991V432.416H300.071C300.539 432.416 300.916 432.335 301.2 432.173C301.484 432.011 301.69 431.792 301.818 431.517C301.949 431.238 302.014 430.925 302.014 430.575C302.014 430.226 301.949 429.913 301.818 429.638C301.69 429.362 301.483 429.146 301.196 428.99C300.909 428.831 300.528 428.751 300.054 428.751H298.196V436.541H297.139Z" fill="black"/>
<rect width="36.6517" height="34.97" transform="matrix(-1 0 0 1 294.583 306.828)" fill="#7FA5D2"/>
<mask id="path-46-inside-4_469_9441" fill="white">
<rect width="43.982" height="12.7164" rx="1" transform="matrix(-1 0 0 1 298.53 301)"/>
</mask>
<rect width="43.982" height="12.7164" rx="1" transform="matrix(-1 0 0 1 298.53 301)" fill="white" stroke="#003682" stroke-width="3" mask="url(#path-46-inside-4_469_9441)"/>
<mask id="path-47-inside-5_469_9441" fill="white">
<rect width="43.982" height="12.7164" rx="1" transform="matrix(-1 0 0 1 298.53 315.307)"/>
</mask>
<rect width="43.982" height="12.7164" rx="1" transform="matrix(-1 0 0 1 298.53 315.307)" fill="white" stroke="#003682" stroke-width="3" mask="url(#path-47-inside-5_469_9441)"/>
<path fill-rule="evenodd" clip-rule="evenodd" d="M292.892 319.016H291.2V324.314H292.892V319.016ZM288.381 319.016H286.689V324.314H288.381V319.016ZM282.742 319.016H284.433V324.314H282.742V319.016Z" fill="#003682"/>
<mask id="path-49-inside-6_469_9441" fill="white">
<rect width="43.982" height="12.7164" rx="1" transform="matrix(-1 0 0 1 298.53 329.611)"/>
</mask>
<rect width="43.982" height="12.7164" rx="1" transform="matrix(-1 0 0 1 298.53 329.611)" fill="white" stroke="#003682" stroke-width="3" mask="url(#path-49-inside-6_469_9441)"/>
<path fill-rule="evenodd" clip-rule="evenodd" d="M288.381 333.32H286.689V338.619H288.381V333.32ZM292.892 333.32H291.2V338.619H292.892V333.32ZM282.742 333.32H284.433V338.619H282.742V333.32Z" fill="#003682"/>
<path fill-rule="evenodd" clip-rule="evenodd" d="M292.892 304.709H291.2V310.007H292.892V304.709ZM288.381 304.709H286.689V310.007H288.381V304.709ZM282.742 304.709H284.433V310.007H282.742V304.709Z" fill="#003682"/>
<path d="M250.135 357.215V348.488H255.402V349.425H251.192V352.374H255.129V353.311H251.192V356.277H255.47V357.215H250.135ZM259.642 357.351C259.097 357.351 258.615 357.213 258.197 356.938C257.78 356.659 257.453 356.267 257.217 355.762C256.982 355.253 256.864 354.652 256.864 353.959C256.864 353.272 256.982 352.675 257.217 352.169C257.453 351.664 257.781 351.273 258.202 350.998C258.622 350.722 259.108 350.584 259.659 350.584C260.085 350.584 260.422 350.655 260.669 350.797C260.919 350.936 261.109 351.096 261.24 351.275C261.374 351.451 261.477 351.596 261.551 351.709H261.636V348.488H262.642V357.215H261.67V356.209H261.551C261.477 356.328 261.372 356.479 261.236 356.661C261.099 356.84 260.905 357 260.652 357.142C260.399 357.282 260.063 357.351 259.642 357.351ZM259.778 356.448C260.182 356.448 260.523 356.343 260.801 356.132C261.08 355.919 261.291 355.625 261.436 355.25C261.581 354.873 261.653 354.436 261.653 353.942C261.653 353.453 261.582 353.026 261.44 352.659C261.298 352.29 261.088 352.003 260.81 351.799C260.531 351.591 260.188 351.488 259.778 351.488C259.352 351.488 258.997 351.597 258.713 351.816C258.432 352.032 258.22 352.326 258.078 352.698C257.939 353.067 257.869 353.482 257.869 353.942C257.869 354.408 257.94 354.831 258.082 355.212C258.227 355.59 258.44 355.891 258.722 356.115C259.006 356.337 259.358 356.448 259.778 356.448ZM267.266 359.806C266.78 359.806 266.362 359.743 266.013 359.618C265.663 359.496 265.372 359.334 265.139 359.132C264.909 358.934 264.726 358.721 264.589 358.493L265.391 357.931C265.482 358.05 265.597 358.186 265.736 358.34C265.875 358.496 266.065 358.631 266.307 358.745C266.551 358.861 266.871 358.919 267.266 358.919C267.794 358.919 268.23 358.792 268.574 358.536C268.918 358.28 269.089 357.88 269.089 357.334V356.005H269.004C268.93 356.124 268.825 356.272 268.689 356.448C268.555 356.621 268.362 356.776 268.109 356.912C267.859 357.046 267.521 357.113 267.095 357.113C266.567 357.113 266.092 356.988 265.672 356.738C265.254 356.488 264.923 356.124 264.679 355.647C264.438 355.169 264.317 354.59 264.317 353.908C264.317 353.238 264.435 352.654 264.67 352.157C264.906 351.657 265.234 351.27 265.655 350.998C266.075 350.722 266.561 350.584 267.112 350.584C267.538 350.584 267.876 350.655 268.126 350.797C268.379 350.936 268.572 351.096 268.706 351.275C268.842 351.451 268.947 351.596 269.021 351.709H269.124V350.669H270.095V357.402C270.095 357.965 269.967 358.422 269.712 358.775C269.459 359.13 269.118 359.39 268.689 359.554C268.263 359.722 267.788 359.806 267.266 359.806ZM267.232 356.209C267.635 356.209 267.976 356.117 268.254 355.932C268.533 355.748 268.744 355.482 268.889 355.135C269.034 354.789 269.107 354.374 269.107 353.891C269.107 353.419 269.036 353.003 268.893 352.642C268.751 352.282 268.541 351.999 268.263 351.794C267.984 351.59 267.641 351.488 267.232 351.488C266.805 351.488 266.45 351.596 266.166 351.811C265.885 352.027 265.673 352.317 265.531 352.681C265.392 353.044 265.322 353.448 265.322 353.891C265.322 354.346 265.393 354.748 265.536 355.097C265.68 355.444 265.893 355.716 266.175 355.915C266.459 356.111 266.811 356.209 267.232 356.209ZM274.68 357.351C274.05 357.351 273.506 357.212 273.048 356.934C272.594 356.652 272.243 356.26 271.996 355.757C271.751 355.252 271.629 354.664 271.629 353.993C271.629 353.323 271.751 352.732 271.996 352.221C272.243 351.706 272.587 351.306 273.027 351.019C273.47 350.729 273.987 350.584 274.578 350.584C274.919 350.584 275.256 350.641 275.588 350.755C275.92 350.868 276.223 351.053 276.496 351.309C276.768 351.561 276.986 351.897 277.148 352.314C277.31 352.732 277.391 353.246 277.391 353.857V354.283H272.345V353.414H276.368C276.368 353.044 276.294 352.715 276.146 352.425C276.001 352.135 275.794 351.907 275.524 351.739C275.257 351.571 274.942 351.488 274.578 351.488C274.178 351.488 273.831 351.587 273.538 351.786C273.249 351.982 273.026 352.238 272.869 352.553C272.713 352.868 272.635 353.206 272.635 353.567V354.147C272.635 354.641 272.72 355.06 272.891 355.404C273.064 355.745 273.304 356.005 273.611 356.184C273.918 356.36 274.274 356.448 274.68 356.448C274.945 356.448 275.183 356.411 275.396 356.337C275.612 356.26 275.798 356.147 275.955 355.996C276.111 355.843 276.232 355.652 276.317 355.425L277.288 355.698C277.186 356.027 277.014 356.317 276.773 356.567C276.531 356.814 276.233 357.007 275.878 357.147C275.523 357.283 275.124 357.351 274.68 357.351ZM282.432 357.215V348.488H285.381C286.065 348.488 286.625 348.611 287.06 348.858C287.497 349.103 287.821 349.434 288.031 349.851C288.241 350.269 288.347 350.735 288.347 351.249C288.347 351.763 288.241 352.23 288.031 352.651C287.824 353.071 287.503 353.407 287.068 353.657C286.634 353.904 286.077 354.027 285.398 354.027H283.284V353.09H285.364C285.832 353.09 286.209 353.009 286.493 352.847C286.777 352.685 286.983 352.466 287.111 352.191C287.241 351.912 287.307 351.598 287.307 351.249C287.307 350.9 287.241 350.587 287.111 350.311C286.983 350.036 286.776 349.82 286.489 349.664C286.202 349.505 285.821 349.425 285.347 349.425H283.489V357.215H282.432ZM292.501 357.351C291.911 357.351 291.392 357.211 290.946 356.929C290.503 356.648 290.156 356.255 289.906 355.749C289.659 355.243 289.536 354.652 289.536 353.976C289.536 353.294 289.659 352.699 289.906 352.191C290.156 351.682 290.503 351.287 290.946 351.006C291.392 350.725 291.911 350.584 292.501 350.584C293.092 350.584 293.609 350.725 294.053 351.006C294.499 351.287 294.845 351.682 295.092 352.191C295.342 352.699 295.467 353.294 295.467 353.976C295.467 354.652 295.342 355.243 295.092 355.749C294.845 356.255 294.499 356.648 294.053 356.929C293.609 357.211 293.092 357.351 292.501 357.351ZM292.501 356.448C292.95 356.448 293.32 356.333 293.609 356.103C293.899 355.873 294.114 355.57 294.253 355.195C294.392 354.82 294.462 354.414 294.462 353.976C294.462 353.539 294.392 353.131 294.253 352.753C294.114 352.375 293.899 352.07 293.609 351.837C293.32 351.604 292.95 351.488 292.501 351.488C292.053 351.488 291.683 351.604 291.393 351.837C291.104 352.07 290.889 352.375 290.75 352.753C290.611 353.131 290.541 353.539 290.541 353.976C290.541 354.414 290.611 354.82 290.75 355.195C290.889 355.57 291.104 355.873 291.393 356.103C291.683 356.333 292.053 356.448 292.501 356.448ZM297.139 357.215V348.488H300.088C300.772 348.488 301.332 348.611 301.767 348.858C302.204 349.103 302.528 349.434 302.738 349.851C302.949 350.269 303.054 350.735 303.054 351.249C303.054 351.763 302.949 352.23 302.738 352.651C302.531 353.071 302.21 353.407 301.775 353.657C301.341 353.904 300.784 354.027 300.105 354.027H297.991V353.09H300.071C300.539 353.09 300.916 353.009 301.2 352.847C301.484 352.685 301.69 352.466 301.818 352.191C301.949 351.912 302.014 351.598 302.014 351.249C302.014 350.9 301.949 350.587 301.818 350.311C301.69 350.036 301.483 349.82 301.196 349.664C300.909 349.505 300.528 349.425 300.054 349.425H298.196V357.215H297.139Z" fill="black"/>
<path d="M515.367 385.455C515.316 385.023 515.108 384.688 514.744 384.449C514.381 384.21 513.935 384.091 513.406 384.091C513.02 384.091 512.682 384.153 512.392 384.278C512.105 384.403 511.881 384.575 511.719 384.794C511.56 385.013 511.48 385.261 511.48 385.54C511.48 385.773 511.536 385.973 511.646 386.141C511.76 386.305 511.905 386.443 512.081 386.554C512.257 386.662 512.442 386.751 512.635 386.822C512.828 386.891 513.006 386.946 513.168 386.989L514.054 387.227C514.281 387.287 514.534 387.369 514.813 387.474C515.094 387.58 515.362 387.723 515.618 387.905C515.877 388.084 516.09 388.314 516.257 388.595C516.425 388.876 516.509 389.222 516.509 389.631C516.509 390.102 516.385 390.528 516.138 390.909C515.894 391.29 515.536 391.592 515.064 391.817C514.595 392.041 514.026 392.153 513.355 392.153C512.73 392.153 512.189 392.053 511.732 391.851C511.277 391.649 510.919 391.368 510.658 391.007C510.399 390.646 510.253 390.227 510.219 389.75H511.31C511.338 390.08 511.449 390.352 511.642 390.568C511.838 390.781 512.085 390.94 512.384 391.045C512.685 391.148 513.009 391.199 513.355 391.199C513.759 391.199 514.121 391.134 514.442 391.003C514.763 390.869 515.017 390.685 515.205 390.449C515.392 390.21 515.486 389.932 515.486 389.614C515.486 389.324 515.405 389.088 515.243 388.906C515.081 388.724 514.868 388.577 514.604 388.463C514.34 388.349 514.054 388.25 513.747 388.165L512.673 387.858C511.992 387.662 511.452 387.382 511.054 387.018C510.656 386.655 510.458 386.179 510.458 385.591C510.458 385.102 510.59 384.676 510.854 384.312C511.121 383.946 511.479 383.662 511.928 383.46C512.379 383.256 512.884 383.153 513.441 383.153C514.003 383.153 514.503 383.254 514.941 383.456C515.378 383.655 515.725 383.928 515.98 384.274C516.239 384.621 516.375 385.014 516.389 385.455H515.367ZM520.769 392.136C520.178 392.136 519.66 391.996 519.214 391.714C518.77 391.433 518.424 391.04 518.174 390.534C517.927 390.028 517.803 389.437 517.803 388.761C517.803 388.08 517.927 387.484 518.174 386.976C518.424 386.467 518.77 386.072 519.214 385.791C519.66 385.51 520.178 385.369 520.769 385.369C521.36 385.369 521.877 385.51 522.32 385.791C522.766 386.072 523.113 386.467 523.36 386.976C523.61 387.484 523.735 388.08 523.735 388.761C523.735 389.437 523.61 390.028 523.36 390.534C523.113 391.04 522.766 391.433 522.32 391.714C521.877 391.996 521.36 392.136 520.769 392.136ZM520.769 391.233C521.218 391.233 521.587 391.118 521.877 390.888C522.167 390.658 522.381 390.355 522.52 389.98C522.66 389.605 522.729 389.199 522.729 388.761C522.729 388.324 522.66 387.916 522.52 387.538C522.381 387.161 522.167 386.855 521.877 386.622C521.587 386.389 521.218 386.273 520.769 386.273C520.32 386.273 519.951 386.389 519.661 386.622C519.371 386.855 519.157 387.161 519.018 387.538C518.878 387.916 518.809 388.324 518.809 388.761C518.809 389.199 518.878 389.605 519.018 389.98C519.157 390.355 519.371 390.658 519.661 390.888C519.951 391.118 520.32 391.233 520.769 391.233ZM529.395 389.324V385.455H530.401V392H529.395V390.892H529.327C529.173 391.224 528.935 391.507 528.611 391.74C528.287 391.97 527.878 392.085 527.384 392.085C526.975 392.085 526.611 391.996 526.293 391.817C525.975 391.635 525.725 391.362 525.543 390.999C525.361 390.632 525.27 390.17 525.27 389.614V385.455H526.276V389.545C526.276 390.023 526.409 390.403 526.676 390.688C526.946 390.972 527.29 391.114 527.708 391.114C527.958 391.114 528.212 391.05 528.47 390.922C528.732 390.794 528.95 390.598 529.127 390.334C529.306 390.07 529.395 389.733 529.395 389.324ZM532.243 392V385.455H533.214V386.443H533.282C533.402 386.119 533.618 385.857 533.93 385.655C534.243 385.453 534.595 385.352 534.987 385.352C535.061 385.352 535.153 385.354 535.264 385.357C535.375 385.359 535.459 385.364 535.515 385.369V386.392C535.481 386.384 535.403 386.371 535.281 386.354C535.162 386.334 535.035 386.324 534.902 386.324C534.584 386.324 534.3 386.391 534.05 386.524C533.802 386.655 533.606 386.837 533.461 387.07C533.319 387.3 533.248 387.562 533.248 387.858V392H532.243ZM539.167 392.136C538.554 392.136 538.025 391.991 537.582 391.702C537.139 391.412 536.798 391.013 536.559 390.504C536.321 389.996 536.202 389.415 536.202 388.761C536.202 388.097 536.324 387.51 536.568 387.001C536.815 386.49 537.159 386.091 537.599 385.804C538.042 385.514 538.559 385.369 539.15 385.369C539.611 385.369 540.025 385.455 540.395 385.625C540.764 385.795 541.067 386.034 541.302 386.341C541.538 386.648 541.684 387.006 541.741 387.415H540.736C540.659 387.116 540.488 386.852 540.224 386.622C539.963 386.389 539.611 386.273 539.167 386.273C538.775 386.273 538.432 386.375 538.136 386.58C537.844 386.781 537.615 387.067 537.45 387.436C537.288 387.803 537.207 388.233 537.207 388.727C537.207 389.233 537.287 389.673 537.446 390.048C537.608 390.423 537.835 390.714 538.128 390.922C538.423 391.129 538.77 391.233 539.167 391.233C539.429 391.233 539.666 391.188 539.879 391.097C540.092 391.006 540.273 390.875 540.42 390.705C540.568 390.534 540.673 390.33 540.736 390.091H541.741C541.684 390.477 541.544 390.825 541.319 391.135C541.098 391.442 540.804 391.686 540.437 391.868C540.074 392.047 539.65 392.136 539.167 392.136ZM545.956 392.136C545.325 392.136 544.781 391.997 544.324 391.719C543.869 391.438 543.518 391.045 543.271 390.543C543.027 390.037 542.905 389.449 542.905 388.778C542.905 388.108 543.027 387.517 543.271 387.006C543.518 386.491 543.862 386.091 544.302 385.804C544.746 385.514 545.263 385.369 545.854 385.369C546.194 385.369 546.531 385.426 546.863 385.54C547.196 385.653 547.498 385.838 547.771 386.094C548.044 386.347 548.261 386.682 548.423 387.099C548.585 387.517 548.666 388.031 548.666 388.642V389.068H543.621V388.199H547.643C547.643 387.83 547.569 387.5 547.422 387.21C547.277 386.92 547.069 386.692 546.8 386.524C546.532 386.357 546.217 386.273 545.854 386.273C545.453 386.273 545.106 386.372 544.814 386.571C544.524 386.767 544.301 387.023 544.145 387.338C543.988 387.653 543.91 387.991 543.91 388.352V388.932C543.91 389.426 543.996 389.845 544.166 390.189C544.339 390.53 544.579 390.79 544.886 390.969C545.193 391.145 545.55 391.233 545.956 391.233C546.22 391.233 546.459 391.196 546.672 391.122C546.888 391.045 547.074 390.932 547.23 390.781C547.386 390.628 547.507 390.437 547.592 390.21L548.564 390.483C548.461 390.812 548.29 391.102 548.048 391.352C547.807 391.599 547.508 391.793 547.153 391.932C546.798 392.068 546.399 392.136 545.956 392.136ZM558.207 386.92L557.304 387.176C557.247 387.026 557.163 386.879 557.052 386.737C556.944 386.592 556.797 386.473 556.609 386.379C556.422 386.286 556.182 386.239 555.889 386.239C555.488 386.239 555.155 386.331 554.888 386.516C554.623 386.697 554.491 386.929 554.491 387.21C554.491 387.46 554.582 387.658 554.764 387.803C554.946 387.947 555.23 388.068 555.616 388.165L556.588 388.403C557.173 388.545 557.609 388.763 557.896 389.055C558.183 389.345 558.327 389.719 558.327 390.176C558.327 390.551 558.219 390.886 558.003 391.182C557.79 391.477 557.491 391.71 557.108 391.881C556.724 392.051 556.278 392.136 555.77 392.136C555.102 392.136 554.55 391.991 554.112 391.702C553.675 391.412 553.398 390.989 553.281 390.432L554.236 390.193C554.327 390.545 554.498 390.81 554.751 390.986C555.007 391.162 555.341 391.25 555.753 391.25C556.221 391.25 556.594 391.151 556.869 390.952C557.148 390.75 557.287 390.509 557.287 390.227C557.287 390 557.207 389.81 557.048 389.656C556.889 389.5 556.645 389.384 556.315 389.307L555.224 389.051C554.625 388.909 554.184 388.689 553.903 388.391C553.625 388.089 553.486 387.713 553.486 387.261C553.486 386.892 553.589 386.565 553.797 386.281C554.007 385.997 554.292 385.774 554.653 385.612C555.017 385.45 555.429 385.369 555.889 385.369C556.537 385.369 557.045 385.511 557.415 385.795C557.787 386.08 558.051 386.455 558.207 386.92ZM562.585 392.136C561.954 392.136 561.41 391.997 560.953 391.719C560.498 391.438 560.147 391.045 559.9 390.543C559.656 390.037 559.534 389.449 559.534 388.778C559.534 388.108 559.656 387.517 559.9 387.006C560.147 386.491 560.491 386.091 560.931 385.804C561.374 385.514 561.892 385.369 562.482 385.369C562.823 385.369 563.16 385.426 563.492 385.54C563.825 385.653 564.127 385.838 564.4 386.094C564.673 386.347 564.89 386.682 565.052 387.099C565.214 387.517 565.295 388.031 565.295 388.642V389.068H560.249V388.199H564.272C564.272 387.83 564.198 387.5 564.051 387.21C563.906 386.92 563.698 386.692 563.428 386.524C563.161 386.357 562.846 386.273 562.482 386.273C562.082 386.273 561.735 386.372 561.443 386.571C561.153 386.767 560.93 387.023 560.774 387.338C560.617 387.653 560.539 387.991 560.539 388.352V388.932C560.539 389.426 560.624 389.845 560.795 390.189C560.968 390.53 561.208 390.79 561.515 390.969C561.822 391.145 562.178 391.233 562.585 391.233C562.849 391.233 563.088 391.196 563.301 391.122C563.517 391.045 563.703 390.932 563.859 390.781C564.015 390.628 564.136 390.437 564.221 390.21L565.193 390.483C565.09 390.812 564.919 391.102 564.677 391.352C564.436 391.599 564.137 391.793 563.782 391.932C563.427 392.068 563.028 392.136 562.585 392.136ZM566.825 392V385.455H567.796V386.443H567.865C567.984 386.119 568.2 385.857 568.512 385.655C568.825 385.453 569.177 385.352 569.569 385.352C569.643 385.352 569.735 385.354 569.846 385.357C569.957 385.359 570.041 385.364 570.097 385.369V386.392C570.063 386.384 569.985 386.371 569.863 386.354C569.744 386.334 569.617 386.324 569.484 386.324C569.166 386.324 568.882 386.391 568.632 386.524C568.384 386.655 568.188 386.837 568.044 387.07C567.901 387.3 567.83 387.562 567.83 387.858V392H566.825ZM576.841 385.455L574.421 392H573.398L570.977 385.455H572.068L573.875 390.67H573.943L575.75 385.455H576.841ZM580.678 392.136C580.048 392.136 579.504 391.997 579.046 391.719C578.592 391.438 578.241 391.045 577.994 390.543C577.749 390.037 577.627 389.449 577.627 388.778C577.627 388.108 577.749 387.517 577.994 387.006C578.241 386.491 578.585 386.091 579.025 385.804C579.468 385.514 579.985 385.369 580.576 385.369C580.917 385.369 581.254 385.426 581.586 385.54C581.919 385.653 582.221 385.838 582.494 386.094C582.767 386.347 582.984 386.682 583.146 387.099C583.308 387.517 583.389 388.031 583.389 388.642V389.068H578.343V388.199H582.366C582.366 387.83 582.292 387.5 582.144 387.21C581.999 386.92 581.792 386.692 581.522 386.524C581.255 386.357 580.94 386.273 580.576 386.273C580.176 386.273 579.829 386.372 579.536 386.571C579.247 386.767 579.024 387.023 578.867 387.338C578.711 387.653 578.633 387.991 578.633 388.352V388.932C578.633 389.426 578.718 389.845 578.889 390.189C579.062 390.53 579.302 390.79 579.609 390.969C579.916 391.145 580.272 391.233 580.678 391.233C580.943 391.233 581.181 391.196 581.394 391.122C581.61 391.045 581.796 390.932 581.953 390.781C582.109 390.628 582.23 390.437 582.315 390.21L583.286 390.483C583.184 390.812 583.012 391.102 582.771 391.352C582.529 391.599 582.231 391.793 581.876 391.932C581.521 392.068 581.122 392.136 580.678 392.136ZM584.919 392V385.455H585.89V386.443H585.958C586.078 386.119 586.294 385.857 586.606 385.655C586.919 385.453 587.271 385.352 587.663 385.352C587.737 385.352 587.829 385.354 587.94 385.357C588.051 385.359 588.134 385.364 588.191 385.369V386.392C588.157 386.384 588.079 386.371 587.957 386.354C587.838 386.334 587.711 386.324 587.578 386.324C587.259 386.324 586.975 386.391 586.725 386.524C586.478 386.655 586.282 386.837 586.137 387.07C585.995 387.3 585.924 387.562 585.924 387.858V392H584.919Z" fill="black"/>
<rect width="36.6517" height="34.97" transform="matrix(-1 0 0 1 294.583 226.828)" fill="#7FA5D2"/>
<mask id="path-55-inside-7_469_9441" fill="white">
<rect width="43.982" height="12.7164" rx="1" transform="matrix(-1 0 0 1 298.53 221)"/>
</mask>
<rect width="43.982" height="12.7164" rx="1" transform="matrix(-1 0 0 1 298.53 221)" fill="white" stroke="#003682" stroke-width="3" mask="url(#path-55-inside-7_469_9441)"/>
<mask id="path-56-inside-8_469_9441" fill="white">
<rect width="43.982" height="12.7164" rx="1" transform="matrix(-1 0 0 1 298.53 235.306)"/>
</mask>
<rect width="43.982" height="12.7164" rx="1" transform="matrix(-1 0 0 1 298.53 235.306)" fill="white" stroke="#003682" stroke-width="3" mask="url(#path-56-inside-8_469_9441)"/>
<path fill-rule="evenodd" clip-rule="evenodd" d="M288.381 239.015H286.689V244.313H288.381V239.015ZM292.892 239.015H291.2V244.313H292.892V239.015ZM282.742 239.015H284.433V244.313H282.742V239.015Z" fill="#003682"/>
<mask id="path-58-inside-9_469_9441" fill="white">
<rect width="43.982" height="12.7164" rx="1" transform="matrix(-1 0 0 1 298.53 249.612)"/>
</mask>
<rect width="43.982" height="12.7164" rx="1" transform="matrix(-1 0 0 1 298.53 249.612)" fill="white" stroke="#003682" stroke-width="3" mask="url(#path-58-inside-9_469_9441)"/>
<path fill-rule="evenodd" clip-rule="evenodd" d="M288.381 253.321H286.689V258.62H288.381V253.321ZM292.892 253.321H291.2V258.62H292.892V253.321ZM282.742 253.321H284.433V258.62H282.742V253.321Z" fill="#003682"/>
<path fill-rule="evenodd" clip-rule="evenodd" d="M292.892 224.709H291.2V230.007H292.892V224.709ZM288.381 224.709H286.689V230.007H288.381V224.709ZM282.742 224.709H284.433V230.007H282.742V224.709Z" fill="#003682"/>
<path d="M250.135 277.888V269.16H255.402V270.098H251.192V273.047H255.129V273.984H251.192V276.95H255.47V277.888H250.135ZM259.642 278.024C259.097 278.024 258.615 277.886 258.197 277.611C257.78 277.332 257.453 276.94 257.217 276.435C256.982 275.926 256.864 275.325 256.864 274.632C256.864 273.945 256.982 273.348 257.217 272.842C257.453 272.337 257.781 271.946 258.202 271.67C258.622 271.395 259.108 271.257 259.659 271.257C260.085 271.257 260.422 271.328 260.669 271.47C260.919 271.609 261.109 271.768 261.24 271.947C261.374 272.123 261.477 272.268 261.551 272.382H261.636V269.16H262.642V277.888H261.67V276.882H261.551C261.477 277.001 261.372 277.152 261.236 277.334C261.099 277.513 260.905 277.673 260.652 277.815C260.399 277.954 260.063 278.024 259.642 278.024ZM259.778 277.121C260.182 277.121 260.523 277.016 260.801 276.805C261.08 276.592 261.291 276.298 261.436 275.923C261.581 275.545 261.653 275.109 261.653 274.615C261.653 274.126 261.582 273.699 261.44 273.332C261.298 272.963 261.088 272.676 260.81 272.472C260.531 272.264 260.188 272.16 259.778 272.16C259.352 272.16 258.997 272.27 258.713 272.489C258.432 272.704 258.22 272.998 258.078 273.371C257.939 273.74 257.869 274.155 257.869 274.615C257.869 275.081 257.94 275.504 258.082 275.885C258.227 276.263 258.44 276.564 258.722 276.788C259.006 277.01 259.358 277.121 259.778 277.121ZM267.266 280.479C266.78 280.479 266.362 280.416 266.013 280.291C265.663 280.169 265.372 280.007 265.139 279.805C264.909 279.606 264.726 279.393 264.589 279.166L265.391 278.604C265.482 278.723 265.597 278.859 265.736 279.013C265.875 279.169 266.065 279.304 266.307 279.418C266.551 279.534 266.871 279.592 267.266 279.592C267.794 279.592 268.23 279.464 268.574 279.209C268.918 278.953 269.089 278.552 269.089 278.007V276.677H269.004C268.93 276.797 268.825 276.945 268.689 277.121C268.555 277.294 268.362 277.449 268.109 277.585C267.859 277.719 267.521 277.785 267.095 277.785C266.567 277.785 266.092 277.66 265.672 277.41C265.254 277.16 264.923 276.797 264.679 276.32C264.438 275.842 264.317 275.263 264.317 274.581C264.317 273.91 264.435 273.327 264.67 272.829C264.906 272.329 265.234 271.943 265.655 271.67C266.075 271.395 266.561 271.257 267.112 271.257C267.538 271.257 267.876 271.328 268.126 271.47C268.379 271.609 268.572 271.768 268.706 271.947C268.842 272.123 268.947 272.268 269.021 272.382H269.124V271.342H270.095V278.075C270.095 278.638 269.967 279.095 269.712 279.447C269.459 279.802 269.118 280.062 268.689 280.227C268.263 280.395 267.788 280.479 267.266 280.479ZM267.232 276.882C267.635 276.882 267.976 276.79 268.254 276.605C268.533 276.42 268.744 276.155 268.889 275.808C269.034 275.462 269.107 275.047 269.107 274.564C269.107 274.092 269.036 273.676 268.893 273.315C268.751 272.954 268.541 272.672 268.263 272.467C267.984 272.263 267.641 272.16 267.232 272.16C266.805 272.16 266.45 272.268 266.166 272.484C265.885 272.7 265.673 272.99 265.531 273.354C265.392 273.717 265.322 274.121 265.322 274.564C265.322 275.018 265.393 275.42 265.536 275.77C265.68 276.116 265.893 276.389 266.175 276.588C266.459 276.784 266.811 276.882 267.232 276.882ZM274.68 278.024C274.05 278.024 273.506 277.885 273.048 277.606C272.594 277.325 272.243 276.933 271.996 276.43C271.751 275.925 271.629 275.337 271.629 274.666C271.629 273.996 271.751 273.405 271.996 272.893C272.243 272.379 272.587 271.979 273.027 271.692C273.47 271.402 273.987 271.257 274.578 271.257C274.919 271.257 275.256 271.314 275.588 271.427C275.92 271.541 276.223 271.726 276.496 271.981C276.768 272.234 276.986 272.57 277.148 272.987C277.31 273.405 277.391 273.919 277.391 274.53V274.956H272.345V274.087H276.368C276.368 273.717 276.294 273.388 276.146 273.098C276.001 272.808 275.794 272.579 275.524 272.412C275.257 272.244 274.942 272.16 274.578 272.16C274.178 272.16 273.831 272.26 273.538 272.459C273.249 272.655 273.026 272.91 272.869 273.226C272.713 273.541 272.635 273.879 272.635 274.24V274.82C272.635 275.314 272.72 275.733 272.891 276.077C273.064 276.418 273.304 276.677 273.611 276.856C273.918 277.033 274.274 277.121 274.68 277.121C274.945 277.121 275.183 277.084 275.396 277.01C275.612 276.933 275.798 276.82 275.955 276.669C276.111 276.516 276.232 276.325 276.317 276.098L277.288 276.371C277.186 276.7 277.014 276.99 276.773 277.24C276.531 277.487 276.233 277.68 275.878 277.82C275.523 277.956 275.124 278.024 274.68 278.024ZM282.432 277.888V269.16H285.381C286.065 269.16 286.625 269.284 287.06 269.531C287.497 269.775 287.821 270.106 288.031 270.524C288.241 270.942 288.347 271.408 288.347 271.922C288.347 272.436 288.241 272.903 288.031 273.324C287.824 273.744 287.503 274.079 287.068 274.329C286.634 274.577 286.077 274.7 285.398 274.7H283.284V273.763H285.364C285.832 273.763 286.209 273.682 286.493 273.52C286.777 273.358 286.983 273.139 287.111 272.864C287.241 272.585 287.307 272.271 287.307 271.922C287.307 271.572 287.241 271.26 287.111 270.984C286.983 270.709 286.776 270.493 286.489 270.337C286.202 270.177 285.821 270.098 285.347 270.098H283.489V277.888H282.432ZM292.501 278.024C291.911 278.024 291.392 277.883 290.946 277.602C290.503 277.321 290.156 276.927 289.906 276.422C289.659 275.916 289.536 275.325 289.536 274.649C289.536 273.967 289.659 273.372 289.906 272.864C290.156 272.355 290.503 271.96 290.946 271.679C291.392 271.398 291.911 271.257 292.501 271.257C293.092 271.257 293.609 271.398 294.053 271.679C294.499 271.96 294.845 272.355 295.092 272.864C295.342 273.372 295.467 273.967 295.467 274.649C295.467 275.325 295.342 275.916 295.092 276.422C294.845 276.927 294.499 277.321 294.053 277.602C293.609 277.883 293.092 278.024 292.501 278.024ZM292.501 277.121C292.95 277.121 293.32 277.006 293.609 276.775C293.899 276.545 294.114 276.243 294.253 275.868C294.392 275.493 294.462 275.087 294.462 274.649C294.462 274.212 294.392 273.804 294.253 273.426C294.114 273.048 293.899 272.743 293.609 272.51C293.32 272.277 292.95 272.16 292.501 272.16C292.053 272.16 291.683 272.277 291.393 272.51C291.104 272.743 290.889 273.048 290.75 273.426C290.611 273.804 290.541 274.212 290.541 274.649C290.541 275.087 290.611 275.493 290.75 275.868C290.889 276.243 291.104 276.545 291.393 276.775C291.683 277.006 292.053 277.121 292.501 277.121ZM297.139 277.888V269.16H300.088C300.772 269.16 301.332 269.284 301.767 269.531C302.204 269.775 302.528 270.106 302.738 270.524C302.949 270.942 303.054 271.408 303.054 271.922C303.054 272.436 302.949 272.903 302.738 273.324C302.531 273.744 302.21 274.079 301.775 274.329C301.341 274.577 300.784 274.7 300.105 274.7H297.991V273.763H300.071C300.539 273.763 300.916 273.682 301.2 273.52C301.484 273.358 301.69 273.139 301.818 272.864C301.949 272.585 302.014 272.271 302.014 271.922C302.014 271.572 301.949 271.26 301.818 270.984C301.69 270.709 301.483 270.493 301.196 270.337C300.909 270.177 300.528 270.098 300.054 270.098H298.196V277.888H297.139Z" fill="black"/>
<rect width="36.6517" height="34.97" transform="matrix(-1 0 0 1 294.583 148.828)" fill="#7FA5D2"/>
<mask id="path-63-inside-10_469_9441" fill="white">
<rect width="43.982" height="12.7164" rx="1" transform="matrix(-1 0 0 1 298.53 143)"/>
</mask>
<rect width="43.982" height="12.7164" rx="1" transform="matrix(-1 0 0 1 298.53 143)" fill="white" stroke="#003682" stroke-width="3" mask="url(#path-63-inside-10_469_9441)"/>
<mask id="path-64-inside-11_469_9441" fill="white">
<rect width="43.982" height="12.7164" rx="1" transform="matrix(-1 0 0 1 298.53 157.306)"/>
</mask>
<rect width="43.982" height="12.7164" rx="1" transform="matrix(-1 0 0 1 298.53 157.306)" fill="white" stroke="#003682" stroke-width="3" mask="url(#path-64-inside-11_469_9441)"/>
<path fill-rule="evenodd" clip-rule="evenodd" d="M292.892 161.015H291.2V166.313H292.892V161.015ZM288.381 161.015H286.689V166.313H288.381V161.015ZM282.742 161.015H284.433V166.313H282.742V161.015Z" fill="#003682"/>
<mask id="path-66-inside-12_469_9441" fill="white">
<rect width="43.982" height="12.7164" rx="1" transform="matrix(-1 0 0 1 298.53 171.611)"/>
</mask>
<rect width="43.982" height="12.7164" rx="1" transform="matrix(-1 0 0 1 298.53 171.611)" fill="white" stroke="#003682" stroke-width="3" mask="url(#path-66-inside-12_469_9441)"/>
<path fill-rule="evenodd" clip-rule="evenodd" d="M292.892 175.32H291.2V180.619H292.892V175.32ZM288.381 175.32H286.689V180.619H288.381V175.32ZM282.742 175.32H284.433V180.619H282.742V175.32Z" fill="#003682"/>
<path fill-rule="evenodd" clip-rule="evenodd" d="M288.381 146.709H286.689V152.007H288.381V146.709ZM292.892 146.709H291.2V152.007H292.892V146.709ZM282.742 146.709H284.433V152.007H282.742V146.709Z" fill="#003682"/>
<path d="M250.135 198.561V189.833H255.402V190.771H251.192V193.72H255.129V194.657H251.192V197.623H255.47V198.561H250.135ZM259.642 198.697C259.097 198.697 258.615 198.559 258.197 198.284C257.78 198.005 257.453 197.613 257.217 197.107C256.982 196.599 256.864 195.998 256.864 195.305C256.864 194.617 256.982 194.021 257.217 193.515C257.453 193.009 257.781 192.619 258.202 192.343C258.622 192.068 259.108 191.93 259.659 191.93C260.085 191.93 260.422 192.001 260.669 192.143C260.919 192.282 261.109 192.441 261.24 192.62C261.374 192.796 261.477 192.941 261.551 193.055H261.636V189.833H262.642V198.561H261.67V197.555H261.551C261.477 197.674 261.372 197.825 261.236 198.007C261.099 198.186 260.905 198.346 260.652 198.488C260.399 198.627 260.063 198.697 259.642 198.697ZM259.778 197.794C260.182 197.794 260.523 197.688 260.801 197.478C261.08 197.265 261.291 196.971 261.436 196.596C261.581 196.218 261.653 195.782 261.653 195.288C261.653 194.799 261.582 194.372 261.44 194.005C261.298 193.636 261.088 193.349 260.81 193.144C260.531 192.937 260.188 192.833 259.778 192.833C259.352 192.833 258.997 192.943 258.713 193.161C258.432 193.377 258.22 193.671 258.078 194.044C257.939 194.413 257.869 194.828 257.869 195.288C257.869 195.754 257.94 196.177 258.082 196.558C258.227 196.936 258.44 197.237 258.722 197.461C259.006 197.683 259.358 197.794 259.778 197.794ZM267.266 201.151C266.78 201.151 266.362 201.089 266.013 200.964C265.663 200.842 265.372 200.68 265.139 200.478C264.909 200.279 264.726 200.066 264.589 199.839L265.391 199.276C265.482 199.396 265.597 199.532 265.736 199.686C265.875 199.842 266.065 199.977 266.307 200.09C266.551 200.207 266.871 200.265 267.266 200.265C267.794 200.265 268.23 200.137 268.574 199.882C268.918 199.626 269.089 199.225 269.089 198.68V197.35H269.004C268.93 197.47 268.825 197.617 268.689 197.794C268.555 197.967 268.362 198.122 268.109 198.258C267.859 198.392 267.521 198.458 267.095 198.458C266.567 198.458 266.092 198.333 265.672 198.083C265.254 197.833 264.923 197.47 264.679 196.992C264.438 196.515 264.317 195.936 264.317 195.254C264.317 194.583 264.435 193.999 264.67 193.502C264.906 193.002 265.234 192.616 265.655 192.343C266.075 192.068 266.561 191.93 267.112 191.93C267.538 191.93 267.876 192.001 268.126 192.143C268.379 192.282 268.572 192.441 268.706 192.62C268.842 192.796 268.947 192.941 269.021 193.055H269.124V192.015H270.095V198.748C270.095 199.311 269.967 199.768 269.712 200.12C269.459 200.475 269.118 200.735 268.689 200.9C268.263 201.068 267.788 201.151 267.266 201.151ZM267.232 197.555C267.635 197.555 267.976 197.463 268.254 197.278C268.533 197.093 268.744 196.828 268.889 196.481C269.034 196.134 269.107 195.72 269.107 195.237C269.107 194.765 269.036 194.349 268.893 193.988C268.751 193.627 268.541 193.345 268.263 193.14C267.984 192.936 267.641 192.833 267.232 192.833C266.805 192.833 266.45 192.941 266.166 193.157C265.885 193.373 265.673 193.663 265.531 194.026C265.392 194.39 265.322 194.794 265.322 195.237C265.322 195.691 265.393 196.093 265.536 196.443C265.68 196.789 265.893 197.062 266.175 197.261C266.459 197.457 266.811 197.555 267.232 197.555ZM274.68 198.697C274.05 198.697 273.506 198.558 273.048 198.279C272.594 197.998 272.243 197.606 271.996 197.103C271.751 196.597 271.629 196.009 271.629 195.339C271.629 194.669 271.751 194.078 271.996 193.566C272.243 193.052 272.587 192.651 273.027 192.365C273.47 192.075 273.987 191.93 274.578 191.93C274.919 191.93 275.256 191.987 275.588 192.1C275.92 192.214 276.223 192.399 276.496 192.654C276.768 192.907 276.986 193.242 277.148 193.66C277.31 194.078 277.391 194.592 277.391 195.203V195.629H272.345V194.759H276.368C276.368 194.39 276.294 194.061 276.146 193.771C276.001 193.481 275.794 193.252 275.524 193.085C275.257 192.917 274.942 192.833 274.578 192.833C274.178 192.833 273.831 192.933 273.538 193.132C273.249 193.328 273.026 193.583 272.869 193.899C272.713 194.214 272.635 194.552 272.635 194.913V195.492C272.635 195.987 272.72 196.406 272.891 196.749C273.064 197.09 273.304 197.35 273.611 197.529C273.918 197.705 274.274 197.794 274.68 197.794C274.945 197.794 275.183 197.757 275.396 197.683C275.612 197.606 275.798 197.492 275.955 197.342C276.111 197.188 276.232 196.998 276.317 196.771L277.288 197.044C277.186 197.373 277.014 197.663 276.773 197.913C276.531 198.16 276.233 198.353 275.878 198.492C275.523 198.629 275.124 198.697 274.68 198.697ZM282.432 198.561V189.833H285.381C286.065 189.833 286.625 189.957 287.06 190.204C287.497 190.448 287.821 190.779 288.031 191.197C288.241 191.615 288.347 192.08 288.347 192.595C288.347 193.109 288.241 193.576 288.031 193.997C287.824 194.417 287.503 194.752 287.068 195.002C286.634 195.249 286.077 195.373 285.398 195.373H283.284V194.436H285.364C285.832 194.436 286.209 194.355 286.493 194.193C286.777 194.031 286.983 193.812 287.111 193.536C287.241 193.258 287.307 192.944 287.307 192.595C287.307 192.245 287.241 191.933 287.111 191.657C286.983 191.382 286.776 191.166 286.489 191.009C286.202 190.85 285.821 190.771 285.347 190.771H283.489V198.561H282.432ZM292.501 198.697C291.911 198.697 291.392 198.556 290.946 198.275C290.503 197.994 290.156 197.6 289.906 197.095C289.659 196.589 289.536 195.998 289.536 195.322C289.536 194.64 289.659 194.045 289.906 193.536C290.156 193.028 290.503 192.633 290.946 192.352C291.392 192.07 291.911 191.93 292.501 191.93C293.092 191.93 293.609 192.07 294.053 192.352C294.499 192.633 294.845 193.028 295.092 193.536C295.342 194.045 295.467 194.64 295.467 195.322C295.467 195.998 295.342 196.589 295.092 197.095C294.845 197.6 294.499 197.994 294.053 198.275C293.609 198.556 293.092 198.697 292.501 198.697ZM292.501 197.794C292.95 197.794 293.32 197.678 293.609 197.448C293.899 197.218 294.114 196.916 294.253 196.541C294.392 196.166 294.462 195.759 294.462 195.322C294.462 194.884 294.392 194.477 294.253 194.099C294.114 193.721 293.899 193.416 293.609 193.183C293.32 192.95 292.95 192.833 292.501 192.833C292.053 192.833 291.683 192.95 291.393 193.183C291.104 193.416 290.889 193.721 290.75 194.099C290.611 194.477 290.541 194.884 290.541 195.322C290.541 195.759 290.611 196.166 290.75 196.541C290.889 196.916 291.104 197.218 291.393 197.448C291.683 197.678 292.053 197.794 292.501 197.794ZM297.139 198.561V189.833H300.088C300.772 189.833 301.332 189.957 301.767 190.204C302.204 190.448 302.528 190.779 302.738 191.197C302.949 191.615 303.054 192.08 303.054 192.595C303.054 193.109 302.949 193.576 302.738 193.997C302.531 194.417 302.21 194.752 301.775 195.002C301.341 195.249 300.784 195.373 300.105 195.373H297.991V194.436H300.071C300.539 194.436 300.916 194.355 301.2 194.193C301.484 194.031 301.69 193.812 301.818 193.536C301.949 193.258 302.014 192.944 302.014 192.595C302.014 192.245 301.949 191.933 301.818 191.657C301.69 191.382 301.483 191.166 301.196 191.009C300.909 190.85 300.528 190.771 300.054 190.771H298.196V198.561H297.139Z" fill="black"/>
<path d="M372.737 353.273V362H371.68V353.273H372.737ZM375.725 358.062V362H374.719V355.455H375.691V356.477H375.776C375.93 356.145 376.162 355.878 376.475 355.676C376.787 355.472 377.191 355.369 377.685 355.369C378.128 355.369 378.516 355.46 378.849 355.642C379.181 355.821 379.439 356.094 379.624 356.46C379.809 356.824 379.901 357.284 379.901 357.841V362H378.895V357.909C378.895 357.395 378.762 356.994 378.495 356.707C378.228 356.418 377.861 356.273 377.395 356.273C377.074 356.273 376.787 356.342 376.535 356.482C376.285 356.621 376.087 356.824 375.942 357.091C375.797 357.358 375.725 357.682 375.725 358.062ZM384.585 355.455V356.307H381.193V355.455H384.585ZM382.182 353.886H383.188V360.125C383.188 360.409 383.229 360.622 383.311 360.764C383.396 360.903 383.504 360.997 383.635 361.045C383.769 361.091 383.909 361.114 384.057 361.114C384.168 361.114 384.259 361.108 384.33 361.097C384.401 361.082 384.458 361.071 384.5 361.062L384.705 361.966C384.637 361.991 384.541 362.017 384.419 362.043C384.297 362.071 384.142 362.085 383.955 362.085C383.671 362.085 383.392 362.024 383.119 361.902C382.85 361.78 382.625 361.594 382.446 361.344C382.27 361.094 382.182 360.778 382.182 360.398V353.886ZM388.772 362.136C388.142 362.136 387.597 361.997 387.14 361.719C386.686 361.438 386.335 361.045 386.088 360.543C385.843 360.037 385.721 359.449 385.721 358.778C385.721 358.108 385.843 357.517 386.088 357.006C386.335 356.491 386.678 356.091 387.119 355.804C387.562 355.514 388.079 355.369 388.67 355.369C389.011 355.369 389.347 355.426 389.68 355.54C390.012 355.653 390.315 355.838 390.588 356.094C390.86 356.347 391.078 356.682 391.24 357.099C391.401 357.517 391.482 358.031 391.482 358.642V359.068H386.437V358.199H390.46C390.46 357.83 390.386 357.5 390.238 357.21C390.093 356.92 389.886 356.692 389.616 356.524C389.349 356.357 389.034 356.273 388.67 356.273C388.269 356.273 387.923 356.372 387.63 356.571C387.34 356.767 387.117 357.023 386.961 357.338C386.805 357.653 386.727 357.991 386.727 358.352V358.932C386.727 359.426 386.812 359.845 386.982 360.189C387.156 360.53 387.396 360.79 387.703 360.969C388.009 361.145 388.366 361.233 388.772 361.233C389.036 361.233 389.275 361.196 389.488 361.122C389.704 361.045 389.89 360.932 390.046 360.781C390.203 360.628 390.323 360.437 390.409 360.21L391.38 360.483C391.278 360.812 391.106 361.102 390.865 361.352C390.623 361.599 390.325 361.793 389.97 361.932C389.615 362.068 389.215 362.136 388.772 362.136ZM393.012 362V355.455H393.984V356.443H394.052C394.171 356.119 394.387 355.857 394.7 355.655C395.012 355.453 395.365 355.352 395.757 355.352C395.83 355.352 395.923 355.354 396.034 355.357C396.144 355.359 396.228 355.364 396.285 355.369V356.392C396.251 356.384 396.173 356.371 396.051 356.354C395.931 356.334 395.805 356.324 395.671 356.324C395.353 356.324 395.069 356.391 394.819 356.524C394.572 356.655 394.376 356.837 394.231 357.07C394.089 357.3 394.018 357.562 394.018 357.858V362H393.012ZM397.477 362V355.455H398.449V356.477H398.534C398.67 356.128 398.89 355.857 399.194 355.663C399.498 355.467 399.863 355.369 400.29 355.369C400.721 355.369 401.081 355.467 401.368 355.663C401.657 355.857 401.883 356.128 402.045 356.477H402.113C402.281 356.139 402.532 355.871 402.868 355.672C403.203 355.47 403.605 355.369 404.074 355.369C404.659 355.369 405.138 355.553 405.51 355.919C405.882 356.283 406.068 356.849 406.068 357.619V362H405.062V357.619C405.062 357.136 404.93 356.791 404.666 356.584C404.402 356.376 404.091 356.273 403.733 356.273C403.273 356.273 402.916 356.412 402.663 356.69C402.41 356.966 402.284 357.315 402.284 357.739V362H401.261V357.517C401.261 357.145 401.14 356.845 400.899 356.618C400.657 356.388 400.346 356.273 399.966 356.273C399.704 356.273 399.46 356.342 399.233 356.482C399.008 356.621 398.827 356.814 398.687 357.061C398.551 357.305 398.483 357.588 398.483 357.909V362H397.477ZM410.651 362.136C410.02 362.136 409.476 361.997 409.019 361.719C408.564 361.438 408.214 361.045 407.966 360.543C407.722 360.037 407.6 359.449 407.6 358.778C407.6 358.108 407.722 357.517 407.966 357.006C408.214 356.491 408.557 356.091 408.998 355.804C409.441 355.514 409.958 355.369 410.549 355.369C410.89 355.369 411.226 355.426 411.559 355.54C411.891 355.653 412.194 355.838 412.466 356.094C412.739 356.347 412.956 356.682 413.118 357.099C413.28 357.517 413.361 358.031 413.361 358.642V359.068H408.316V358.199H412.339C412.339 357.83 412.265 357.5 412.117 357.21C411.972 356.92 411.765 356.692 411.495 356.524C411.228 356.357 410.912 356.273 410.549 356.273C410.148 356.273 409.802 356.372 409.509 356.571C409.219 356.767 408.996 357.023 408.84 357.338C408.684 357.653 408.606 357.991 408.606 358.352V358.932C408.606 359.426 408.691 359.845 408.861 360.189C409.035 360.53 409.275 360.79 409.581 360.969C409.888 361.145 410.245 361.233 410.651 361.233C410.915 361.233 411.154 361.196 411.367 361.122C411.583 361.045 411.769 360.932 411.925 360.781C412.081 360.628 412.202 360.437 412.287 360.21L413.259 360.483C413.157 360.812 412.985 361.102 412.743 361.352C412.502 361.599 412.204 361.793 411.849 361.932C411.493 362.068 411.094 362.136 410.651 362.136ZM417.363 362.136C416.817 362.136 416.336 361.999 415.918 361.723C415.501 361.445 415.174 361.053 414.938 360.547C414.702 360.038 414.584 359.438 414.584 358.744C414.584 358.057 414.702 357.46 414.938 356.955C415.174 356.449 415.502 356.058 415.922 355.783C416.343 355.507 416.829 355.369 417.38 355.369C417.806 355.369 418.143 355.44 418.39 355.582C418.64 355.722 418.83 355.881 418.961 356.06C419.094 356.236 419.198 356.381 419.272 356.494H419.357V353.273H420.363V362H419.391V360.994H419.272C419.198 361.114 419.093 361.264 418.956 361.446C418.82 361.625 418.626 361.786 418.373 361.928C418.12 362.067 417.783 362.136 417.363 362.136ZM417.499 361.233C417.903 361.233 418.243 361.128 418.522 360.918C418.8 360.705 419.012 360.411 419.157 360.036C419.302 359.658 419.374 359.222 419.374 358.727C419.374 358.239 419.303 357.811 419.161 357.445C419.019 357.075 418.809 356.788 418.53 356.584C418.252 356.376 417.908 356.273 417.499 356.273C417.073 356.273 416.718 356.382 416.434 356.601C416.153 356.817 415.941 357.111 415.799 357.483C415.66 357.852 415.59 358.267 415.59 358.727C415.59 359.193 415.661 359.616 415.803 359.997C415.948 360.375 416.161 360.676 416.442 360.901C416.726 361.122 417.079 361.233 417.499 361.233ZM422.344 362V355.455H423.35V362H422.344ZM422.856 354.364C422.66 354.364 422.491 354.297 422.349 354.163C422.209 354.03 422.14 353.869 422.14 353.682C422.14 353.494 422.209 353.334 422.349 353.2C422.491 353.067 422.66 353 422.856 353C423.052 353 423.219 353.067 423.358 353.2C423.501 353.334 423.572 353.494 423.572 353.682C423.572 353.869 423.501 354.03 423.358 354.163C423.219 354.297 423.052 354.364 422.856 354.364ZM427.118 362.153C426.703 362.153 426.327 362.075 425.989 361.919C425.651 361.76 425.382 361.531 425.183 361.233C424.985 360.932 424.885 360.568 424.885 360.142C424.885 359.767 424.959 359.463 425.107 359.23C425.254 358.994 425.452 358.81 425.699 358.676C425.946 358.543 426.219 358.443 426.517 358.378C426.818 358.31 427.121 358.256 427.425 358.216C427.823 358.165 428.145 358.126 428.392 358.101C428.642 358.072 428.824 358.026 428.938 357.96C429.054 357.895 429.112 357.781 429.112 357.619V357.585C429.112 357.165 428.997 356.838 428.767 356.605C428.54 356.372 428.195 356.256 427.732 356.256C427.252 356.256 426.875 356.361 426.602 356.571C426.33 356.781 426.138 357.006 426.027 357.244L425.073 356.903C425.243 356.506 425.47 356.196 425.754 355.974C426.041 355.75 426.354 355.594 426.692 355.506C427.033 355.415 427.368 355.369 427.698 355.369C427.908 355.369 428.149 355.395 428.422 355.446C428.698 355.494 428.963 355.595 429.219 355.749C429.477 355.902 429.692 356.134 429.862 356.443C430.033 356.753 430.118 357.168 430.118 357.688V362H429.112V361.114H429.061C428.993 361.256 428.879 361.408 428.72 361.57C428.561 361.732 428.35 361.869 428.085 361.983C427.821 362.097 427.499 362.153 427.118 362.153ZM427.271 361.25C427.669 361.25 428.004 361.172 428.277 361.016C428.553 360.859 428.76 360.658 428.899 360.411C429.041 360.163 429.112 359.903 429.112 359.631V358.71C429.07 358.761 428.976 358.808 428.831 358.851C428.689 358.891 428.524 358.926 428.337 358.957C428.152 358.986 427.972 359.011 427.796 359.034C427.622 359.054 427.482 359.071 427.374 359.085C427.112 359.119 426.868 359.175 426.641 359.251C426.416 359.325 426.235 359.437 426.095 359.588C425.959 359.736 425.891 359.937 425.891 360.193C425.891 360.543 426.02 360.807 426.279 360.986C426.54 361.162 426.871 361.25 427.271 361.25ZM431.954 362V355.455H432.925V356.443H432.993C433.113 356.119 433.329 355.857 433.641 355.655C433.954 355.453 434.306 355.352 434.698 355.352C434.772 355.352 434.864 355.354 434.975 355.357C435.086 355.359 435.17 355.364 435.226 355.369V356.392C435.192 356.384 435.114 356.371 434.992 356.354C434.873 356.334 434.746 356.324 434.613 356.324C434.295 356.324 434.01 356.391 433.76 356.524C433.513 356.655 433.317 356.837 433.172 357.07C433.03 357.3 432.959 357.562 432.959 357.858V362H431.954ZM437.265 364.455C437.095 364.455 436.943 364.44 436.809 364.412C436.676 364.386 436.584 364.361 436.532 364.335L436.788 363.449C437.032 363.511 437.248 363.534 437.436 363.517C437.623 363.5 437.79 363.416 437.934 363.266C438.082 363.118 438.217 362.878 438.339 362.545L438.527 362.034L436.106 355.455H437.197L439.004 360.67H439.072L440.879 355.455H441.97L439.192 362.955C439.067 363.293 438.912 363.572 438.727 363.794C438.542 364.018 438.328 364.185 438.084 364.293C437.842 364.401 437.569 364.455 437.265 364.455ZM396.395 377V368.273H399.344C400.028 368.273 400.588 368.396 401.023 368.643C401.46 368.888 401.784 369.219 401.994 369.636C402.204 370.054 402.309 370.52 402.309 371.034C402.309 371.548 402.204 372.016 401.994 372.436C401.787 372.857 401.466 373.192 401.031 373.442C400.596 373.689 400.04 373.812 399.361 373.812H397.247V372.875H399.327C399.795 372.875 400.172 372.794 400.456 372.632C400.74 372.47 400.946 372.251 401.074 371.976C401.204 371.697 401.27 371.384 401.27 371.034C401.27 370.685 401.204 370.372 401.074 370.097C400.946 369.821 400.738 369.605 400.452 369.449C400.165 369.29 399.784 369.21 399.309 369.21H397.452V377H396.395ZM406.464 377.136C405.873 377.136 405.355 376.996 404.909 376.714C404.466 376.433 404.119 376.04 403.869 375.534C403.622 375.028 403.498 374.437 403.498 373.761C403.498 373.08 403.622 372.484 403.869 371.976C404.119 371.467 404.466 371.072 404.909 370.791C405.355 370.51 405.873 370.369 406.464 370.369C407.055 370.369 407.572 370.51 408.015 370.791C408.461 371.072 408.808 371.467 409.055 371.976C409.305 372.484 409.43 373.08 409.43 373.761C409.43 374.437 409.305 375.028 409.055 375.534C408.808 376.04 408.461 376.433 408.015 376.714C407.572 376.996 407.055 377.136 406.464 377.136ZM406.464 376.233C406.913 376.233 407.282 376.118 407.572 375.888C407.862 375.658 408.077 375.355 408.216 374.98C408.355 374.605 408.425 374.199 408.425 373.761C408.425 373.324 408.355 372.916 408.216 372.538C408.077 372.161 407.862 371.855 407.572 371.622C407.282 371.389 406.913 371.273 406.464 371.273C406.015 371.273 405.646 371.389 405.356 371.622C405.067 371.855 404.852 372.161 404.713 372.538C404.574 372.916 404.504 373.324 404.504 373.761C404.504 374.199 404.574 374.605 404.713 374.98C404.852 375.355 405.067 375.658 405.356 375.888C405.646 376.118 406.015 376.233 406.464 376.233ZM411.102 377V368.273H414.051C414.735 368.273 415.295 368.396 415.73 368.643C416.167 368.888 416.491 369.219 416.701 369.636C416.911 370.054 417.017 370.52 417.017 371.034C417.017 371.548 416.911 372.016 416.701 372.436C416.494 372.857 416.173 373.192 415.738 373.442C415.303 373.689 414.747 373.812 414.068 373.812H411.954V372.875H414.034C414.502 372.875 414.879 372.794 415.163 372.632C415.447 372.47 415.653 372.251 415.781 371.976C415.911 371.697 415.977 371.384 415.977 371.034C415.977 370.685 415.911 370.372 415.781 370.097C415.653 369.821 415.445 369.605 415.159 369.449C414.872 369.29 414.491 369.21 414.017 369.21H412.159V377H411.102Z" fill="black"/>
<mask id="path-71-inside-13_469_9441" fill="white">
<rect width="62.9956" height="113.877" rx="1" transform="matrix(-1 0 0 1 438.264 230)"/>
</mask>
<rect width="62.9956" height="113.877" rx="1" transform="matrix(-1 0 0 1 438.264 230)" fill="white" stroke="#003682" stroke-width="4" mask="url(#path-71-inside-13_469_9441)"/>
<mask id="path-72-inside-14_469_9441" fill="white">
<rect width="62.9956" height="113.877" rx="1" transform="matrix(-1 0 0 1 438.264 230)"/>
</mask>
<rect width="62.9956" height="113.877" rx="1" transform="matrix(-1 0 0 1 438.264 230)" fill="white" stroke="#003682" stroke-width="4" mask="url(#path-72-inside-14_469_9441)"/>
<rect x="381.422" y="272.498" width="51.4963" height="17.5756" stroke="#003682"/>
<path fill-rule="evenodd" clip-rule="evenodd" d="M384.152 275.229H389.321V280.397H384.152V275.229ZM391.906 275.229H397.075V280.397H391.906V275.229ZM404.828 275.229H399.659V280.397H404.828V275.229ZM407.412 275.229H412.581V280.397H407.412V275.229ZM420.334 275.229H415.166V280.397H420.334V275.229Z" fill="#7FA4D2" fill-opacity="0.3"/>
<path fill-rule="evenodd" clip-rule="evenodd" d="M384.152 282.982H389.321V288.151H384.152V282.982ZM391.906 282.982H397.075V288.151H391.906V282.982ZM404.828 282.982H399.659V288.151H404.828V282.982ZM407.412 282.982H412.581V288.151H407.412V282.982ZM420.334 282.982H415.166V288.151H420.334V282.982Z" fill="#7FA4D2" fill-opacity="0.3"/>
<rect x="426.149" y="276.037" width="3.23054" height="3.23054" fill="#FF6633"/>
<rect x="426.149" y="284.113" width="3.23054" height="3.23054" fill="#FF6633"/>
<rect x="381.422" y="237.769" width="51.4963" height="17.5756" stroke="#003682"/>
<path fill-rule="evenodd" clip-rule="evenodd" d="M384.152 240.499H389.321V245.668H384.152V240.499ZM391.906 240.499H397.075V245.668H391.906V240.499ZM404.828 240.499H399.659V245.668H404.828V240.499ZM407.412 240.499H412.581V245.668H407.412V240.499ZM420.334 240.499H415.166V245.668H420.334V240.499Z" fill="#7FA4D2" fill-opacity="0.3"/>
<path fill-rule="evenodd" clip-rule="evenodd" d="M384.152 248.252H389.321V253.421H384.152V248.252ZM391.906 248.252H397.075V253.421H391.906V248.252ZM404.828 248.252H399.659V253.421H404.828V248.252ZM407.412 248.252H412.581V253.421H407.412V248.252ZM420.334 248.252H415.166V253.421H420.334V248.252Z" fill="#7FA4D2" fill-opacity="0.3"/>
<rect x="426.149" y="241.307" width="3.23054" height="3.23054" fill="#FF6633"/>
<rect x="426.149" y="249.383" width="3.23054" height="3.23054" fill="#FF6633"/>
<mask id="path-83-inside-15_469_9441" fill="white">
<path d="M380.922 303.496H433.418V304.304H380.922V303.496Z"/>
</mask>
<path d="M380.922 303.496H433.418V304.304H380.922V303.496Z" fill="white"/>
<path d="M380.922 303.496V302.496H379.922V303.496H380.922ZM433.418 303.496H434.418V302.496H433.418V303.496ZM433.418 304.304V305.304H434.418V304.304H433.418ZM380.922 304.304H379.922V305.304H380.922V304.304ZM380.922 304.496H433.418V302.496H380.922V304.496ZM432.418 303.496V304.304H434.418V303.496H432.418ZM433.418 303.304H380.922V305.304H433.418V303.304ZM381.922 304.304V303.496H379.922V304.304H381.922Z" fill="#003682" mask="url(#path-83-inside-15_469_9441)"/>
<rect x="389.498" y="301.572" width="35.3436" height="4.65345" fill="white" stroke="#003682"/>
<mask id="path-86-inside-16_469_9441" fill="white">
<path d="M380.922 318.033H433.418V318.841H380.922V318.033Z"/>
</mask>
<path d="M380.922 318.033H433.418V318.841H380.922V318.033Z" fill="white"/>
<path d="M380.922 318.033V317.033H379.922V318.033H380.922ZM433.418 318.033H434.418V317.033H433.418V318.033ZM433.418 318.841V319.841H434.418V318.841H433.418ZM380.922 318.841H379.922V319.841H380.922V318.841ZM380.922 319.033H433.418V317.033H380.922V319.033ZM432.418 318.033V318.841H434.418V318.033H432.418ZM433.418 317.841H380.922V319.841H433.418V317.841ZM381.922 318.841V318.033H379.922V318.841H381.922Z" fill="#003682" mask="url(#path-86-inside-16_469_9441)"/>
<rect x="389.498" y="316.109" width="35.3436" height="4.65345" fill="white" stroke="#003682"/>
<rect x="381.422" y="328.225" width="51.4963" height="7.07636" stroke="#003682"/>
<rect width="90" height="217" rx="5" transform="matrix(1 0 0 -1 38 392)" fill="#F0F3F6"/>
<path d="M58.2404 409V400.273H63.5075V401.21H59.2972V404.159H63.2347V405.097H59.2972V408.062H63.5756V409H58.2404ZM66.2816 405.062V409H65.2759V402.455H66.2475V403.477H66.3327C66.4862 403.145 66.7191 402.878 67.0316 402.676C67.3441 402.472 67.7475 402.369 68.2418 402.369C68.685 402.369 69.0728 402.46 69.4052 402.642C69.7376 402.821 69.9961 403.094 70.1808 403.46C70.3654 403.824 70.4577 404.284 70.4577 404.841V409H69.4521V404.909C69.4521 404.395 69.3185 403.994 69.0515 403.707C68.7844 403.418 68.418 403.273 67.9521 403.273C67.631 403.273 67.3441 403.342 67.0913 403.482C66.8413 403.621 66.6438 403.824 66.4989 404.091C66.354 404.358 66.2816 404.682 66.2816 405.062ZM74.767 409.136C74.2216 409.136 73.7401 408.999 73.3224 408.723C72.9048 408.445 72.5781 408.053 72.3423 407.547C72.1065 407.038 71.9886 406.438 71.9886 405.744C71.9886 405.057 72.1065 404.46 72.3423 403.955C72.5781 403.449 72.9063 403.058 73.3267 402.783C73.7472 402.507 74.233 402.369 74.7841 402.369C75.2102 402.369 75.5469 402.44 75.794 402.582C76.044 402.722 76.2344 402.881 76.3651 403.06C76.4986 403.236 76.6023 403.381 76.6761 403.494H76.7614V400.273H77.767V409H76.7955V407.994H76.6761C76.6023 408.114 76.4972 408.264 76.3608 408.446C76.2244 408.625 76.0298 408.786 75.777 408.928C75.5241 409.067 75.1875 409.136 74.767 409.136ZM74.9034 408.233C75.3068 408.233 75.6477 408.128 75.9261 407.918C76.2045 407.705 76.4162 407.411 76.5611 407.036C76.706 406.658 76.7784 406.222 76.7784 405.727C76.7784 405.239 76.7074 404.811 76.5653 404.445C76.4233 404.075 76.2131 403.788 75.9347 403.584C75.6563 403.376 75.3125 403.273 74.9034 403.273C74.4773 403.273 74.1222 403.382 73.8381 403.601C73.5568 403.817 73.3452 404.111 73.2031 404.483C73.0639 404.852 72.9943 405.267 72.9943 405.727C72.9943 406.193 73.0653 406.616 73.2074 406.997C73.3523 407.375 73.5653 407.676 73.8466 407.901C74.1307 408.122 74.483 408.233 74.9034 408.233ZM88.9872 400.273H90.044V406.051C90.044 406.648 89.9034 407.18 89.6222 407.649C89.3438 408.115 88.9503 408.483 88.4418 408.753C87.9332 409.02 87.3366 409.153 86.652 409.153C85.9673 409.153 85.3707 409.02 84.8622 408.753C84.3537 408.483 83.9588 408.115 83.6776 407.649C83.3991 407.18 83.2599 406.648 83.2599 406.051V400.273H84.3168V405.966C84.3168 406.392 84.4105 406.771 84.598 407.104C84.7855 407.433 85.0526 407.693 85.3991 407.884C85.7486 408.071 86.1662 408.165 86.652 408.165C87.1378 408.165 87.5554 408.071 87.9048 407.884C88.2543 407.693 88.5213 407.433 88.706 407.104C88.8935 406.771 88.9872 406.392 88.9872 405.966V400.273ZM96.6545 403.92L95.7511 404.176C95.6942 404.026 95.6104 403.879 95.4996 403.737C95.3917 403.592 95.244 403.473 95.0565 403.379C94.869 403.286 94.6289 403.239 94.3363 403.239C93.9357 403.239 93.6019 403.331 93.3349 403.516C93.0707 403.697 92.9386 403.929 92.9386 404.21C92.9386 404.46 93.0295 404.658 93.2113 404.803C93.3931 404.947 93.6772 405.068 94.0636 405.165L95.0352 405.403C95.6204 405.545 96.0565 405.763 96.3434 406.055C96.6303 406.345 96.7738 406.719 96.7738 407.176C96.7738 407.551 96.6658 407.886 96.4499 408.182C96.2369 408.477 95.9386 408.71 95.555 408.881C95.1715 409.051 94.7255 409.136 94.217 409.136C93.5494 409.136 92.9968 408.991 92.5593 408.702C92.1218 408.412 91.8448 407.989 91.7283 407.432L92.6829 407.193C92.7738 407.545 92.9457 407.81 93.1985 407.986C93.4542 408.162 93.788 408.25 94.1999 408.25C94.6687 408.25 95.0408 408.151 95.3164 407.952C95.5948 407.75 95.734 407.509 95.734 407.227C95.734 407 95.6545 406.81 95.4954 406.656C95.3363 406.5 95.092 406.384 94.7624 406.307L93.6715 406.051C93.0721 405.909 92.6317 405.689 92.3505 405.391C92.0721 405.089 91.9329 404.713 91.9329 404.261C91.9329 403.892 92.0366 403.565 92.244 403.281C92.4542 402.997 92.7397 402.774 93.1005 402.612C93.4641 402.45 93.8761 402.369 94.3363 402.369C94.984 402.369 95.4925 402.511 95.8619 402.795C96.234 403.08 96.4982 403.455 96.6545 403.92ZM101.032 409.136C100.401 409.136 99.8572 408.997 99.3999 408.719C98.9453 408.438 98.5945 408.045 98.3473 407.543C98.103 407.037 97.9808 406.449 97.9808 405.778C97.9808 405.108 98.103 404.517 98.3473 404.006C98.5945 403.491 98.9382 403.091 99.3786 402.804C99.8217 402.514 100.339 402.369 100.93 402.369C101.271 402.369 101.607 402.426 101.94 402.54C102.272 402.653 102.575 402.838 102.847 403.094C103.12 403.347 103.337 403.682 103.499 404.099C103.661 404.517 103.742 405.031 103.742 405.642V406.068H98.6967V405.199H102.719C102.719 404.83 102.646 404.5 102.498 404.21C102.353 403.92 102.146 403.692 101.876 403.524C101.609 403.357 101.293 403.273 100.93 403.273C100.529 403.273 100.183 403.372 99.8899 403.571C99.6001 403.767 99.3771 404.023 99.2209 404.338C99.0646 404.653 98.9865 404.991 98.9865 405.352V405.932C98.9865 406.426 99.0717 406.845 99.2422 407.189C99.4155 407.53 99.6555 407.79 99.9624 407.969C100.269 408.145 100.626 408.233 101.032 408.233C101.296 408.233 101.535 408.196 101.748 408.122C101.964 408.045 102.15 407.932 102.306 407.781C102.462 407.628 102.583 407.437 102.668 407.21L103.64 407.483C103.538 407.812 103.366 408.102 103.124 408.352C102.883 408.599 102.585 408.793 102.229 408.932C101.874 409.068 101.475 409.136 101.032 409.136ZM105.272 409V402.455H106.244V403.443H106.312C106.431 403.119 106.647 402.857 106.96 402.655C107.272 402.453 107.624 402.352 108.016 402.352C108.09 402.352 108.183 402.354 108.293 402.357C108.404 402.359 108.488 402.364 108.545 402.369V403.392C108.511 403.384 108.433 403.371 108.31 403.354C108.191 403.334 108.065 403.324 107.931 403.324C107.613 403.324 107.329 403.391 107.079 403.524C106.832 403.655 106.636 403.837 106.491 404.07C106.349 404.3 106.278 404.562 106.278 404.858V409H105.272Z" fill="black"/>
<path d="M61.3418 200C61.3418 197.791 63.1327 196 65.3418 196H101.44C103.649 196 105.44 197.791 105.44 200V224.604H61.3418L61.3418 200Z" fill="white"/>
<path d="M55.5976 224.455C55.479 224.455 55.3828 224.537 55.3828 224.638V225.675C55.3828 225.832 55.4609 225.984 55.6271 226.052C56.1291 226.256 57.1892 226.441 58.8193 226.38C60.6977 226.31 74.9521 226.346 82.8747 226.376V226.38C83.0666 226.379 83.2636 226.379 83.4654 226.378C83.6672 226.379 83.8642 226.379 84.056 226.38V226.376C91.9787 226.346 106.233 226.31 108.111 226.38C109.742 226.441 110.802 226.256 111.304 226.052C111.47 225.984 111.548 225.832 111.548 225.675V224.638C111.548 224.537 111.452 224.455 111.333 224.455H55.5976Z" fill="#D9E4F2" stroke="#003682"/>
<path d="M61.6924 200.05C61.6924 198.117 63.2594 196.55 65.1924 196.55H101.737C103.67 196.55 105.237 198.117 105.237 200.05V223.955H61.6924L61.6924 200.05Z" fill="#7FA5D2" fill-opacity="0.3" stroke="#003682"/>
<rect x="63.6299" y="201.068" width="39.0257" height="21.5952" fill="white" stroke="#003682"/>
<path d="M86.1583 198.375H82.3379" stroke="#003682" stroke-linecap="round"/>
<path d="M81.277 198.375H80.8525" stroke="#003682" stroke-linecap="round"/>
<rect x="68" y="264" width="28" height="42.7778" rx="4" fill="white"/>
<path d="M68.5 268C68.5 266.067 70.067 264.5 72 264.5H92C93.933 264.5 95.5 266.067 95.5 268V302.778C95.5 304.711 93.933 306.278 92 306.278H72C70.067 306.278 68.5 304.711 68.5 302.778V268Z" fill="#7FA5D2" fill-opacity="0.3" stroke="#003682"/>
<rect x="71.6113" y="269.944" width="20.7778" height="26.2222" fill="white" stroke="#003682"/>
<path d="M85.2815 267.111H80.6787" stroke="#003682" stroke-linecap="round"/>
<path d="M79.4011 267.111H78.8896" stroke="#003682" stroke-linecap="round"/>
<circle cx="82.0008" cy="301.334" r="2.61111" fill="#D9D9D9" stroke="#003682"/>
<rect x="59" y="340" width="45.1273" height="34" rx="4" fill="white"/>
<path d="M59.5 344C59.5 342.067 61.067 340.5 63 340.5L100.127 340.5C102.06 340.5 103.627 342.067 103.627 344L103.627 370C103.627 371.933 102.06 373.5 100.127 373.5L63 373.5C61.067 373.5 59.5 371.933 59.5 370L59.5 344Z" fill="#7FA5D2" fill-opacity="0.3" stroke="#003682"/>
<rect x="65.6816" y="342.973" width="34.8545" height="28.0545" fill="white" stroke="#003682"/>
<path d="M102 359.301L102 355.643" stroke="#003682" stroke-width="0.5" stroke-linecap="round"/>
<path d="M102 354.625L102 354.219" stroke="#003682" stroke-width="0.5" stroke-linecap="round"/>
<circle cx="62.4" cy="357.164" r="1.66364" fill="#D9D9D9" stroke="#003682"/>
<path d="M190.851 273.856L190.85 273.855L184.386 268.005C184.073 267.756 183.85 267.633 183.707 267.588C183.54 267.535 183.298 267.501 182.965 267.501H165.553C165.025 267.501 164.492 267.604 163.951 267.815C163.414 268.024 162.937 268.321 162.518 268.706C162.1 269.09 161.755 269.552 161.484 270.099C161.224 270.622 161.09 271.21 161.09 271.873V294.583C161.09 295.921 161.477 296.933 162.207 297.676C162.927 298.409 163.979 298.809 165.437 298.809H186.959C188.522 298.809 189.624 298.379 190.355 297.594C191.117 296.776 191.5 295.783 191.5 294.583V275.133C191.5 274.692 191.311 274.27 190.851 273.856Z" fill="#D9E4F2" stroke="#003682"/>
<g clip-path="url(#clip0_469_9441)">
<path d="M173.046 291.502C172.675 291.554 172.297 291.5 171.959 291.344C171.622 291.189 171.342 290.941 171.156 290.632L171.15 290.624C170.961 290.316 170.874 289.962 170.901 289.607C170.927 289.252 171.066 288.912 171.299 288.633C171.612 288.256 171.546 287.701 171.151 287.398C170.473 286.877 169.712 286.462 168.897 286.169C168.668 286.086 168.415 286.093 168.191 286.186C167.967 286.28 167.791 286.453 167.7 286.669C167.562 287 167.322 287.283 167.013 287.482C166.703 287.682 166.338 287.789 165.963 287.789C165.59 287.79 165.225 287.685 164.916 287.487C164.607 287.288 164.367 287.007 164.228 286.678C164.137 286.46 163.959 286.286 163.733 286.193C163.507 286.099 163.251 286.094 163.022 286.178C162.211 286.476 161.454 286.893 160.779 287.413C160.684 287.486 160.605 287.576 160.547 287.678C160.489 287.78 160.453 287.892 160.441 288.008C160.416 288.239 160.487 288.47 160.638 288.653C160.804 288.853 160.922 289.084 160.985 289.332C161.048 289.579 161.055 289.836 161.004 290.086C160.953 290.336 160.847 290.572 160.692 290.78C160.537 290.987 160.337 291.161 160.105 291.288C159.741 291.487 159.318 291.565 158.903 291.509C158.661 291.476 158.414 291.535 158.218 291.673C158.021 291.811 157.888 292.017 157.85 292.246C157.712 293.064 157.712 293.897 157.85 294.715C157.93 295.191 158.403 295.522 158.904 295.452C159.274 295.4 159.653 295.455 159.99 295.61C160.327 295.764 160.608 296.012 160.795 296.32C160.983 296.627 161.069 296.982 161.042 297.337C161.015 297.692 160.877 298.031 160.645 298.31C160.331 298.687 160.397 299.242 160.792 299.545C161.469 300.067 162.23 300.483 163.045 300.777C163.159 300.818 163.28 300.837 163.402 300.834C163.523 300.831 163.643 300.804 163.754 300.757C163.977 300.662 164.153 300.488 164.243 300.273C164.382 299.944 164.622 299.662 164.931 299.463C165.24 299.264 165.605 299.158 165.978 299.158C166.351 299.158 166.716 299.264 167.025 299.462C167.334 299.66 167.574 299.942 167.714 300.271C167.805 300.488 167.983 300.662 168.209 300.756C168.435 300.85 168.69 300.855 168.92 300.771C169.73 300.475 170.485 300.06 171.16 299.542C171.351 299.394 171.474 299.181 171.501 298.948C171.528 298.716 171.458 298.482 171.306 298.298C171.075 298.02 170.937 297.682 170.911 297.329C170.884 296.975 170.97 296.623 171.157 296.316C171.342 296.008 171.621 295.76 171.957 295.604C172.292 295.448 172.67 295.392 173.04 295.443C173.282 295.476 173.527 295.419 173.725 295.282C173.824 295.215 173.908 295.129 173.972 295.03C174.036 294.932 174.079 294.822 174.098 294.708C174.236 293.89 174.237 293.057 174.099 292.239C174.019 291.763 173.546 291.432 173.046 291.502ZM167.917 292.408C168.536 293.426 168.167 294.732 167.096 295.32C166.025 295.907 164.65 295.557 164.031 294.54C163.413 293.523 163.781 292.215 164.853 291.628C165.924 291.04 167.299 291.39 167.917 292.408Z" fill="#003682"/>
</g>
<path d="M171.656 276.918C171.622 276.63 171.484 276.406 171.241 276.247C170.999 276.088 170.701 276.009 170.349 276.009C170.092 276.009 169.866 276.05 169.673 276.134C169.482 276.217 169.332 276.331 169.224 276.477C169.118 276.623 169.065 276.789 169.065 276.974C169.065 277.13 169.102 277.263 169.176 277.375C169.252 277.485 169.348 277.577 169.466 277.651C169.583 277.723 169.706 277.782 169.835 277.83C169.964 277.875 170.082 277.912 170.19 277.94L170.781 278.099C170.932 278.139 171.101 278.194 171.287 278.264C171.474 278.334 171.653 278.43 171.824 278.551C171.996 278.67 172.138 278.824 172.25 279.011C172.361 279.199 172.417 279.429 172.417 279.702C172.417 280.016 172.335 280.3 172.17 280.554C172.007 280.808 171.769 281.009 171.454 281.159C171.142 281.309 170.762 281.384 170.315 281.384C169.898 281.384 169.538 281.316 169.233 281.182C168.93 281.047 168.691 280.86 168.517 280.619C168.344 280.379 168.247 280.099 168.224 279.781H168.951C168.97 280.001 169.044 280.183 169.173 280.327C169.304 280.469 169.468 280.575 169.667 280.645C169.868 280.713 170.084 280.747 170.315 280.747C170.584 280.747 170.825 280.704 171.039 280.616C171.253 280.527 171.423 280.404 171.548 280.247C171.673 280.088 171.735 279.902 171.735 279.69C171.735 279.497 171.681 279.34 171.574 279.219C171.466 279.098 171.324 278.999 171.147 278.923C170.971 278.848 170.781 278.781 170.576 278.724L169.86 278.52C169.406 278.389 169.046 278.203 168.781 277.96C168.516 277.718 168.383 277.401 168.383 277.009C168.383 276.683 168.471 276.399 168.647 276.156C168.825 275.912 169.064 275.723 169.363 275.588C169.664 275.452 170.001 275.384 170.372 275.384C170.747 275.384 171.08 275.451 171.372 275.585C171.663 275.718 171.895 275.9 172.065 276.131C172.237 276.362 172.328 276.624 172.338 276.918H171.656ZM175.371 281.281H173.576V275.463H175.451C176.015 275.463 176.498 275.58 176.9 275.812C177.301 276.044 177.609 276.376 177.823 276.81C178.037 277.241 178.144 277.759 178.144 278.361C178.144 278.967 178.036 279.489 177.82 279.926C177.604 280.362 177.29 280.697 176.877 280.932C176.464 281.165 175.962 281.281 175.371 281.281ZM174.28 280.656H175.326C175.807 280.656 176.205 280.563 176.522 280.378C176.838 280.192 177.074 279.928 177.229 279.585C177.384 279.242 177.462 278.834 177.462 278.361C177.462 277.891 177.385 277.487 177.232 277.148C177.078 276.807 176.849 276.545 176.544 276.364C176.239 276.18 175.86 276.088 175.405 276.088H174.28V280.656ZM179.326 281.281V275.463H180.03V278.349H180.098L182.712 275.463H183.632L181.189 278.088L183.632 281.281H182.78L180.757 278.577L180.03 279.395V281.281H179.326Z" fill="black"/>
<path d="M482 281H448M482 289H462.167M457.444 289H448" stroke="#7F7F7F" stroke-linecap="round" stroke-linejoin="round"/>
<rect x="492.663" y="207" width="108.675" height="165" stroke="#2E527C" stroke-width="2"/>
<rect x="493.2" y="227.41" width="107.6" height="124.179" fill="#F0F3F6"/>
<rect x="492.663" y="352.59" width="40.2715" height="19.4103" stroke="#2E527C" stroke-width="2"/>
<rect x="492.663" y="207" width="24.1315" height="19.4103" stroke="#2E527C" stroke-width="2"/>
<rect x="577.975" y="352.59" width="23.3629" height="19.4103" stroke="#2E527C" stroke-width="2"/>
<rect x="562.603" y="207" width="38.7344" height="19.4103" stroke="#2E527C" stroke-width="2"/>
<rect x="533.397" y="352.59" width="44.1144" height="19.4103" stroke="#2E527C" stroke-width="2"/>
<rect x="517.257" y="207" width="44.883" height="19.4103" stroke="#2E527C" stroke-width="2"/>
<rect x="513.491" y="244.982" width="66.4438" height="23.8943" stroke="#003682" stroke-width="1.5"/>
<rect x="508.75" y="244.982" width="75.9243" height="17.969" fill="#003682" stroke="#003682" stroke-width="1.5"/>
<rect x="510.331" y="240.75" width="72.7642" height="25.5872" fill="white" stroke="#003682" stroke-width="1.5"/>
<path d="M552.637 253.967H570.018" stroke="#003682" stroke-width="1.5" stroke-linecap="round"/>
<ellipse cx="574.758" cy="253.967" rx="1.97511" ry="2.11619" fill="#FF6633"/>
<path fill-rule="evenodd" clip-rule="evenodd" d="M520.079 247.354H523.327V250.834H520.079V247.354ZM525.925 247.355H529.173V250.834H525.925V247.355ZM535.019 247.355H531.771V250.834H535.019V247.355ZM537.617 247.355H540.865V250.834H537.617V247.355ZM546.712 247.355H543.464V250.834H546.712V247.355Z" fill="#7FA4D2" fill-opacity="0.3"/>
<path fill-rule="evenodd" clip-rule="evenodd" d="M523.327 252.227H526.575V255.707H523.327V252.227ZM517.48 252.227H520.728V255.707H517.48V252.227ZM532.422 252.227H529.174V255.707H532.422V252.227ZM535.019 252.227H538.267V255.707H535.019V252.227ZM544.114 252.227H540.866V255.707H544.114V252.227Z" fill="#7FA4D2" fill-opacity="0.3"/>
<path fill-rule="evenodd" clip-rule="evenodd" d="M520.079 257.099H523.327V260.579H520.079V257.099ZM525.925 257.099H529.173V260.579H525.925V257.099ZM535.019 257.099H531.771V260.579H535.019V257.099ZM537.617 257.099H540.865V260.579H537.617V257.099ZM546.712 257.099H543.464V260.579H546.712V257.099Z" fill="#7FA4D2" fill-opacity="0.3"/>
<rect x="513.491" y="280.609" width="66.4438" height="23.8943" stroke="#003682" stroke-width="1.5"/>
<rect x="508.75" y="280.609" width="75.9243" height="17.969" fill="#003682" stroke="#003682" stroke-width="1.5"/>
<rect x="510.331" y="276.377" width="72.7642" height="25.5872" fill="white" stroke="#003682" stroke-width="1.5"/>
<path d="M552.637 289.594H570.018" stroke="#003682" stroke-width="1.5" stroke-linecap="round"/>
<ellipse cx="574.758" cy="289.595" rx="1.97511" ry="2.11619" fill="#FF6633"/>
<path fill-rule="evenodd" clip-rule="evenodd" d="M520.079 282.982H523.327V286.462H520.079V282.982ZM525.925 282.982H529.173V286.462H525.925V282.982ZM535.019 282.982H531.771V286.462H535.019V282.982ZM537.617 282.982H540.865V286.462H537.617V282.982ZM546.712 282.982H543.464V286.462H546.712V282.982Z" fill="#7FA4D2" fill-opacity="0.3"/>
<path fill-rule="evenodd" clip-rule="evenodd" d="M523.327 287.854H526.575V291.333H523.327V287.854ZM517.48 287.854H520.728V291.333H517.48V287.854ZM532.422 287.854H529.174V291.333H532.422V287.854ZM535.019 287.854H538.267V291.333H535.019V287.854ZM544.114 287.854H540.866V291.333H544.114V287.854Z" fill="#7FA4D2" fill-opacity="0.3"/>
<path fill-rule="evenodd" clip-rule="evenodd" d="M520.079 292.727H523.327V296.207H520.079V292.727ZM525.925 292.727H529.173V296.207H525.925V292.727ZM535.019 292.727H531.771V296.207H535.019V292.727ZM537.617 292.727H540.865V296.207H537.617V292.727ZM546.712 292.727H543.464V296.207H546.712V292.727Z" fill="#7FA4D2" fill-opacity="0.3"/>
<rect x="513.491" y="316.236" width="66.4438" height="23.8943" stroke="#003682" stroke-width="1.5"/>
<rect x="508.75" y="316.236" width="75.9243" height="17.969" fill="#003682" stroke="#003682" stroke-width="1.5"/>
<rect x="510.331" y="312.004" width="72.7642" height="25.5872" fill="white" stroke="#003682" stroke-width="1.5"/>
<path d="M552.637 325.221H570.018" stroke="#003682" stroke-width="1.5" stroke-linecap="round"/>
<ellipse cx="574.758" cy="325.222" rx="1.97511" ry="2.11619" fill="#FF6633"/>
<path fill-rule="evenodd" clip-rule="evenodd" d="M525.925 318.609H529.173V322.089H525.925V318.609ZM520.079 318.609H523.327V322.089H520.079V318.609ZM535.019 318.609H531.771V322.089H535.019V318.609ZM537.617 318.609H540.865V322.089H537.617V318.609ZM546.712 318.609H543.464V322.089H546.712V318.609Z" fill="#7FA4D2" fill-opacity="0.3"/>
<path fill-rule="evenodd" clip-rule="evenodd" d="M523.327 323.48H526.575V326.96H523.327V323.48ZM517.48 323.48H520.728V326.96H517.48V323.48ZM532.422 323.48H529.174V326.96H532.422V323.48ZM535.019 323.48H538.267V326.96H535.019V323.48ZM544.114 323.48H540.866V326.96H544.114V323.48Z" fill="#7FA4D2" fill-opacity="0.3"/>
<path fill-rule="evenodd" clip-rule="evenodd" d="M520.079 328.354H523.327V331.833H520.079V328.354ZM525.925 328.354H529.173V331.833H525.925V328.354ZM535.019 328.354H531.771V331.833H535.019V328.354ZM537.617 328.354H540.865V331.833H537.617V328.354ZM546.712 328.354H543.464V331.833H546.712V328.354Z" fill="#7FA4D2" fill-opacity="0.3"/>
<defs>
<clipPath id="clip0_469_9441">
<rect width="17.9487" height="17.0513" fill="white" transform="translate(157 284.949)"/>
</clipPath>
</defs>
</svg>
