<svg width="16" height="16" viewBox="0 0 16 16" fill="none" xmlns="http://www.w3.org/2000/svg">
<path d="M8 0.75C11.7508 0.75 14.8364 3.59833 15.2117 7.25H0.788323C1.16362 3.59833 4.24918 0.75 8 0.75ZM0.788323 8.75H15.2117C14.8364 12.4017 11.7508 15.25 8 15.25C4.24918 15.25 1.16362 12.4017 0.788323 8.75Z" stroke="#232427" stroke-width="1.5"/>
<path d="M10.25 8C10.25 10.143 9.92299 12.0497 9.41907 13.3935C9.16608 14.0682 8.88292 14.562 8.60654 14.8738C8.32939 15.1864 8.1227 15.25 8 15.25C7.8773 15.25 7.67061 15.1864 7.39346 14.8738C7.11708 14.562 6.83392 14.0682 6.58093 13.3935C6.07701 12.0497 5.75 10.143 5.75 8C5.75 5.85699 6.07701 3.95026 6.58093 2.60649C6.83392 1.93183 7.11708 1.43796 7.39346 1.12623C7.67061 0.813632 7.8773 0.75 8 0.75C8.1227 0.75 8.32939 0.813631 8.60654 1.12623C8.88292 1.43796 9.16608 1.93183 9.41907 2.60649C9.92299 3.95026 10.25 5.85699 10.25 8Z" stroke="#232427" stroke-width="1.5"/>
</svg>
