<svg width="390" height="350" viewBox="0 0 390 350" fill="none" xmlns="http://www.w3.org/2000/svg">
<g clip-path="url(#clip0_1002_22001)">
<mask id="mask0_1002_22001" style="mask-type:alpha" maskUnits="userSpaceOnUse" x="0" y="0" width="390" height="350">
<path d="M390 0H0V350H390V0Z" fill="#D9D9D9"/>
</mask>
<g mask="url(#mask0_1002_22001)">
<path d="M43.7253 178.752V288.156C43.7253 289.824 44.3879 291.424 45.5674 292.604C46.7469 293.783 48.3467 294.446 50.0147 294.446H361.711C363.379 294.446 364.978 293.783 366.158 292.604C367.337 291.424 368 289.824 368 288.156V61.2892C368 59.6211 367.337 58.0214 366.158 56.8419C364.978 55.6624 363.379 54.9998 361.711 54.9998H50.0147C48.3467 54.9998 46.7469 55.6624 45.5674 56.8419C44.3879 58.0214 43.7253 59.6211 43.7253 61.2892V87.461" stroke="#2E527C" stroke-width="2" stroke-miterlimit="10"/>
<path d="M132.219 140.528H190.598" stroke="#2E527C" stroke-width="2" stroke-linecap="round" stroke-linejoin="round"/>
<path d="M132.219 155.751H190.598" stroke="#2E527C" stroke-width="2" stroke-linecap="round" stroke-linejoin="round"/>
<path d="M132.713 124.97H190.104" stroke="#2E527C" stroke-width="2" stroke-linecap="round" stroke-linejoin="round"/>
<path d="M161.408 140.528V155.751" stroke="#2E527C" stroke-width="2" stroke-linecap="round" stroke-linejoin="round"/>
<path d="M161.801 109.246V124.469" stroke="#2E527C" stroke-width="2" stroke-linecap="round" stroke-linejoin="round"/>
<path d="M161.801 88.0195V92.7366" stroke="#2E527C" stroke-width="2" stroke-linecap="round" stroke-linejoin="round"/>
<path d="M138.216 88.0195V92.7366" stroke="#2E527C" stroke-width="2" stroke-linecap="round" stroke-linejoin="round"/>
<path d="M113.845 88.0195V92.7366" stroke="#2E527C" stroke-width="2" stroke-linecap="round" stroke-linejoin="round"/>
<path d="M89.4729 88.0195V92.7366" stroke="#2E527C" stroke-width="2" stroke-linecap="round" stroke-linejoin="round"/>
<path d="M65.8877 88.0195V92.7366" stroke="#2E527C" stroke-width="2" stroke-linecap="round" stroke-linejoin="round"/>
<path d="M43.8748 88.0195V92.7366" stroke="#2E527C" stroke-width="2" stroke-linecap="round" stroke-linejoin="round"/>
<path d="M149.732 155.751L150.009 170.568" stroke="#2E527C" stroke-width="2" stroke-linecap="round" stroke-linejoin="round"/>
<path d="M149.732 125.305V140.528" stroke="#2E527C" stroke-width="2" stroke-linecap="round" stroke-linejoin="round"/>
<path d="M173.084 155.751L172.808 170.568" stroke="#2E527C" stroke-width="2" stroke-linecap="round" stroke-linejoin="round"/>
<path d="M173.084 125.305V140.528" stroke="#2E527C" stroke-width="2" stroke-linecap="round" stroke-linejoin="round"/>
<path d="M24.2202 109.246H190.104" stroke="#2E527C" stroke-width="2" stroke-linecap="round" stroke-linejoin="round"/>
<path d="M24.2202 93.5225H190.104" stroke="#2E527C" stroke-width="2" stroke-linecap="round" stroke-linejoin="round"/>
<path d="M148.654 93.5225V108.745" stroke="#2E527C" stroke-width="2" stroke-linecap="round" stroke-linejoin="round"/>
<path d="M102.838 93.5225V108.745" stroke="#2E527C" stroke-width="2" stroke-linecap="round" stroke-linejoin="round"/>
<path d="M54.095 93.5225V108.745" stroke="#2E527C" stroke-width="2" stroke-linecap="round" stroke-linejoin="round"/>
<path d="M32.082 93.5225V108.745" stroke="#2E527C" stroke-width="2" stroke-linecap="round" stroke-linejoin="round"/>
<path d="M172.006 93.5225V108.745" stroke="#2E527C" stroke-width="2" stroke-linecap="round" stroke-linejoin="round"/>
<path d="M126.19 93.5225V108.745" stroke="#2E527C" stroke-width="2" stroke-linecap="round" stroke-linejoin="round"/>
<path d="M77.4468 93.5225V108.745" stroke="#2E527C" stroke-width="2" stroke-linecap="round" stroke-linejoin="round"/>
<path d="M129.057 116.047H17.1447C15.4079 116.047 14 117.455 14 119.192V175.906C14 177.643 15.4079 179.051 17.1447 179.051H129.057C130.794 179.051 132.202 177.643 132.202 175.906V119.192C132.202 117.455 130.794 116.047 129.057 116.047Z" stroke="#2E527C" stroke-width="2" stroke-miterlimit="10"/>
<path d="M24.2202 116.093V90.3832C24.2202 89.5478 24.5523 88.7466 25.1435 88.1559C25.7347 87.5652 26.5366 87.2334 27.3726 87.2334H187.737C188.574 87.2334 189.375 87.5652 189.967 88.1559C190.558 88.7466 190.89 89.5478 190.89 90.3832V167.418C190.89 168.254 190.558 169.055 189.967 169.646C189.375 170.236 188.574 170.568 187.737 170.568H132.27" stroke="#2E527C" stroke-width="2" stroke-miterlimit="10"/>
<path d="M70.1961 70.692C71.7071 70.692 72.932 69.4671 72.932 67.9561C72.932 66.4451 71.7071 65.2202 70.1961 65.2202C68.6851 65.2202 67.4602 66.4451 67.4602 67.9561C67.4602 69.4671 68.6851 70.692 70.1961 70.692Z" stroke="#2E527C" stroke-width="2" stroke-miterlimit="10"/>
<path d="M57.617 70.692C59.128 70.692 60.3529 69.4671 60.3529 67.9561C60.3529 66.4451 59.128 65.2202 57.617 65.2202C56.106 65.2202 54.8811 66.4451 54.8811 67.9561C54.8811 69.4671 56.106 70.692 57.617 70.692Z" stroke="#2E527C" stroke-width="2" stroke-miterlimit="10"/>
<path d="M82.7747 70.692C84.2857 70.692 85.5106 69.4671 85.5106 67.9561C85.5106 66.4451 84.2857 65.2202 82.7747 65.2202C81.2637 65.2202 80.0388 66.4451 80.0388 67.9561C80.0388 69.4671 81.2637 70.692 82.7747 70.692Z" stroke="#2E527C" stroke-width="2" stroke-miterlimit="10"/>
<path d="M24.1497 131.534C25.6607 131.534 26.8856 130.309 26.8856 128.798C26.8856 127.287 25.6607 126.062 24.1497 126.062C22.6387 126.062 21.4138 127.287 21.4138 128.798C21.4138 130.309 22.6387 131.534 24.1497 131.534Z" stroke="#2E527C" stroke-width="2" stroke-miterlimit="10"/>
<path d="M34.1968 131.534C35.7078 131.534 36.9327 130.309 36.9327 128.798C36.9327 127.287 35.7078 126.062 34.1968 126.062C32.6858 126.062 31.4609 127.287 31.4609 128.798C31.4609 130.309 32.6858 131.534 34.1968 131.534Z" stroke="#2E527C" stroke-width="2" stroke-miterlimit="10"/>
<path d="M43.4737 131.534C44.9847 131.534 46.2096 130.309 46.2096 128.798C46.2096 127.287 44.9847 126.062 43.4737 126.062C41.9627 126.062 40.7378 127.287 40.7378 128.798C40.7378 130.309 41.9627 131.534 43.4737 131.534Z" stroke="#2E527C" stroke-width="2" stroke-miterlimit="10"/>
<path d="M128.373 125.19H123.2V120.017H120.865V125.19H115.692V127.525H120.865V132.698H123.2V127.525H128.373V125.19Z" fill="#2E527C"/>
<path d="M79.739 168.471L79.2739 167.312L79.2631 167.316L79.261 167.317H79.2603H79.26H79.2599H79.2598L79.6434 168.241L79.739 168.471ZM79.739 168.471L80.0186 169.168L80.0242 169.166L80.0258 169.165H80.0265L80.0268 169.164H80.0269H80.027H80.0271L79.739 168.471ZM58.7485 128.769C66.5806 128.592 73.7863 125.908 79.6356 121.514C85.485 125.918 92.7031 128.593 100.543 128.769C105.352 145.833 96.412 163.966 79.6435 170.288C62.8792 163.966 53.9403 145.833 58.7485 128.769Z" stroke="#2E527C" stroke-width="2"/>
<path d="M231.88 188.077C231.88 188.077 252.054 198.274 268.691 188.077C270.994 174.516 278.251 124.427 250.285 78.5854C216.838 130.623 231.88 188.077 231.88 188.077Z" stroke="#2E527C" stroke-width="2" stroke-miterlimit="10"/>
<path d="M249.884 128.52C255.354 128.52 259.789 124.086 259.789 118.616C259.789 113.145 255.354 108.711 249.884 108.711C244.414 108.711 239.979 113.145 239.979 118.616C239.979 124.086 244.414 128.52 249.884 128.52Z" stroke="#2E527C" stroke-width="2" stroke-miterlimit="10"/>
<path d="M235.505 189.589V191.944C238.293 195.133 241.491 196.495 250.162 196.506C253.216 196.506 262.848 196.593 265.589 191.944V189.589" stroke="#2E527C" stroke-width="2" stroke-miterlimit="10"/>
<path d="M247.41 166.771C247.41 166.771 247.009 195.441 249.267 204.667C252.918 195.642 252.121 166.771 252.121 166.771L249.786 165.377L247.41 166.771Z" stroke="#2E527C" stroke-width="2" stroke-miterlimit="10"/>
<path d="M235.896 200.188L240.509 223.941L239.311 201.782L235.896 200.188Z" stroke="#2E527C" stroke-width="2" stroke-miterlimit="10"/>
<path d="M244.124 207.984L246.747 244.887L247.544 210.509L244.124 207.984Z" stroke="#2E527C" stroke-width="2" stroke-miterlimit="10"/>
<path d="M264.124 200.923L259.511 224.677L260.704 202.512L264.124 200.923Z" stroke="#2E527C" stroke-width="2" stroke-linejoin="bevel"/>
<path d="M255.896 208.719L253.273 245.622L252.476 211.244L255.896 208.719Z" stroke="#2E527C" stroke-width="2" stroke-linejoin="bevel"/>
<path d="M206.095 171.98C206.095 171.98 211.34 186.38 213.593 192.422C215.845 198.465 220 207.336 220 207.336L211.006 170.551L207.987 169.856L206.095 171.98Z" stroke="#2E527C" stroke-width="2" stroke-linejoin="bevel"/>
<path d="M212.106 175.05L218.339 198.758L232.044 188.606C232.044 188.606 229.35 176.583 229.206 171.121C229.062 165.66 228.506 160.245 228.506 160.245L212.106 175.05Z" stroke="#2E527C" stroke-width="2" stroke-linejoin="bevel"/>
<path d="M294.11 171.98C294.11 171.98 288.865 186.379 286.612 192.422C284.36 198.464 280.205 207.335 280.205 207.335L289.199 170.53L292.218 169.835L294.11 171.98Z" stroke="#2E527C" stroke-width="2" stroke-linejoin="bevel"/>
<path d="M288.099 175.05L281.866 198.758L268.161 188.606C268.161 188.606 270.855 176.583 270.999 171.121C271.143 165.66 271.699 160.245 271.699 160.245L288.099 175.05Z" stroke="#2E527C" stroke-width="2" stroke-linejoin="bevel"/>
<path d="M277.51 155.732C301.012 163.875 310.999 181.256 315.187 193.132C319.328 194.348 323.177 196.4 326.496 199.161C329.815 201.923 332.534 205.336 334.485 209.19C340.938 211.176 346.585 215.181 350.596 220.617C354.608 226.053 356.773 232.635 356.773 239.394C356.783 247.434 353.728 255.175 348.232 261.037C342.736 266.899 335.213 270.441 327.199 270.939V271.041H138.218L138.416 270.784C133.433 271.417 128.372 270.853 123.651 269.136C118.931 267.42 114.686 264.602 111.271 260.916C107.855 257.229 105.366 252.781 104.011 247.939C102.655 243.097 102.472 238.001 103.476 233.075C104.48 228.148 106.643 223.531 109.785 219.608C112.927 215.686 116.958 212.569 121.543 210.518C126.129 208.466 131.136 207.538 136.151 207.812C141.166 208.085 146.044 209.551 150.379 212.089C155.171 209.295 160.616 207.824 166.16 207.824C166.728 207.824 167.278 207.908 167.835 207.908C169.488 203.01 172.316 198.593 176.071 195.042C179.825 191.492 184.391 188.918 189.37 187.544C193.325 175.761 201.957 162.211 220.682 155.473" stroke="#2E527C" stroke-width="2" stroke-miterlimit="10" stroke-linecap="round"/>
<path d="M79.6458 122.218V170.175M57.6328 144.231H101.266" stroke="#2E527C"/>
<path d="M44 243.164C45.3189 243.055 46.653 243 48 243C74.5097 243 96 264.49 96 291C96 292.347 95.9445 293.681 95.8357 295" stroke="#2E527C" stroke-width="2"/>
<path d="M280 157C282.209 157 284 155.209 284 153C284 150.791 282.209 149 280 149C277.791 149 276 150.791 276 153C276 155.209 277.791 157 280 157Z" stroke="#2E527C" stroke-width="2"/>
<path d="M63 280C65.2091 280 67 278.209 67 276C67 273.791 65.2091 272 63 272C60.7909 272 59 273.791 59 276C59 278.209 60.7909 280 63 280Z" stroke="#2E527C" stroke-width="2"/>
</g>
</g>
<defs>
<clipPath id="clip0_1002_22001">
<rect width="390" height="350" fill="white"/>
</clipPath>
</defs>
</svg>
