<svg width="390" height="350" viewBox="0 0 390 350" fill="none" xmlns="http://www.w3.org/2000/svg">
<g clip-path="url(#clip0_1002_21943)">
<mask id="mask0_1002_21943" style="mask-type:alpha" maskUnits="userSpaceOnUse" x="0" y="0" width="390" height="350">
<path d="M390 0H0V350H390V0Z" fill="#D9D9D9"/>
</mask>
<g mask="url(#mask0_1002_21943)">
<path d="M349.281 280.7C354.858 280.7 359.379 276.179 359.379 270.602C359.379 265.025 354.858 260.504 349.281 260.504C343.704 260.504 339.183 265.025 339.183 270.602C339.183 276.179 343.704 280.7 349.281 280.7Z" fill="#2E527C"/>
<path d="M370.993 236.591C371.005 236.491 370.991 236.39 370.954 236.297C370.916 236.204 370.856 236.122 370.779 236.057V51.5573C370.779 50.3486 370.298 49.1895 369.444 48.3348C368.589 47.4801 367.43 47 366.221 47H37.0522C35.8436 47 34.6844 47.4801 33.8297 48.3348C32.9751 49.1895 32.4949 50.3486 32.4949 51.5573V103.771H17V238.707C16.9952 242.892 18.6023 246.918 21.4877 249.948C24.3731 252.979 28.315 254.782 32.4949 254.983V287.236C32.4949 288.445 32.9751 289.604 33.8297 290.459C34.6844 291.313 35.8436 291.793 37.0522 291.793H370.779V237.008C370.9 236.901 370.976 236.752 370.993 236.591ZM18.3021 238.707V105.073H32.4949V253.662C28.6639 253.462 25.0558 251.799 22.4149 249.016C19.774 246.233 18.3019 242.543 18.3021 238.707ZM55.1058 108.231C56.0625 108.23 56.9939 107.924 57.7636 107.355C58.5333 106.787 59.1008 105.987 59.3831 105.073H151.936C155.907 105.073 159.716 106.651 162.524 109.459C165.332 112.267 166.91 116.076 166.91 120.047V253.219L33.797 253.681V231.767C34.1581 232.422 34.7268 232.939 35.4136 233.235C36.1005 233.532 36.8664 233.592 37.591 233.405C38.3155 233.219 38.9575 232.797 39.4159 232.206C39.8743 231.614 40.1231 230.888 40.1231 230.139C40.1231 229.391 39.8743 228.664 39.4159 228.073C38.9575 227.482 38.3155 227.06 37.591 226.873C36.8664 226.687 36.1005 226.747 35.4136 227.043C34.7268 227.34 34.1581 227.856 33.797 228.512V223.238C34.1581 223.894 34.7268 224.41 35.4136 224.707C36.1005 225.003 36.8664 225.063 37.591 224.877C38.3155 224.69 38.9575 224.268 39.4159 223.677C39.8743 223.086 40.1231 222.359 40.1231 221.611C40.1231 220.863 39.8743 220.136 39.4159 219.544C38.9575 218.953 38.3155 218.531 37.591 218.345C36.8664 218.158 36.1005 218.218 35.4136 218.515C34.7268 218.811 34.1581 219.328 33.797 219.983V105.073H50.8544C51.1363 105.983 51.7001 106.779 52.4644 107.346C53.2287 107.914 54.1538 108.224 55.1058 108.231ZM34.6499 230.126C34.6499 229.717 34.7713 229.317 34.9988 228.976C35.2263 228.636 35.5496 228.37 35.9279 228.214C36.3062 228.057 36.7225 228.016 37.1241 228.096C37.5257 228.176 37.8946 228.373 38.1842 228.662C38.4737 228.952 38.6709 229.321 38.7508 229.722C38.8306 230.124 38.7896 230.54 38.6329 230.919C38.4762 231.297 38.2109 231.62 37.8704 231.848C37.53 232.075 37.1297 232.197 36.7202 232.197C36.1717 232.195 35.6461 231.976 35.2582 231.588C34.8703 231.201 34.6516 230.675 34.6499 230.126ZM34.6499 221.598C34.6486 221.188 34.7689 220.787 34.9956 220.446C35.2223 220.104 35.5452 219.838 35.9234 219.68C36.3016 219.523 36.7181 219.481 37.1201 219.56C37.5221 219.639 37.8916 219.836 38.1818 220.125C38.472 220.414 38.6699 220.783 38.7503 221.185C38.8307 221.587 38.7901 222.003 38.6336 222.382C38.4771 222.761 38.2117 223.084 37.8711 223.312C37.5305 223.54 37.13 223.661 36.7202 223.661C36.1728 223.66 35.6482 223.442 35.2604 223.055C34.8727 222.669 34.6533 222.145 34.6499 221.598ZM33.797 287.236V254.983L168.212 254.515V120.047C168.212 115.731 166.497 111.591 163.445 108.538C160.393 105.486 156.253 103.771 151.936 103.771H59.585C59.5408 102.612 59.0492 101.515 58.2134 100.71C57.3776 99.9059 56.2626 99.4564 55.1025 99.4564C53.9424 99.4564 52.8274 99.9059 51.9916 100.71C51.1558 101.515 50.6642 102.612 50.62 103.771H33.797V51.5573C33.797 50.694 34.14 49.866 34.7504 49.2555C35.3609 48.6451 36.1889 48.3021 37.0522 48.3021H366.221C367.085 48.3021 367.913 48.6451 368.523 49.2555C369.134 49.866 369.477 50.694 369.477 51.5573V235.803C368.096 235.693 366.703 235.621 365.31 235.621C351.329 235.638 337.926 241.2 328.04 251.086C318.154 260.972 312.592 274.375 312.575 288.356C312.575 288.968 312.575 289.573 312.608 290.172C312.614 290.281 312.648 290.386 312.705 290.478H37.0522C36.1912 290.478 35.3651 290.137 34.755 289.53C34.1449 288.922 33.8005 288.097 33.797 287.236ZM313.806 290.491C313.876 290.388 313.912 290.265 313.91 290.14C313.91 289.554 313.877 288.961 313.877 288.369C313.893 274.733 319.316 261.66 328.959 252.018C338.601 242.376 351.674 236.952 365.31 236.936C366.703 236.936 368.096 237.008 369.477 237.119V290.504L313.806 290.491Z" fill="#2E527C"/>
<path d="M45.4377 64.5912C47.5555 64.5912 49.2724 62.8744 49.2724 60.7565C49.2724 58.6387 47.5555 56.9219 45.4377 56.9219C43.3199 56.9219 41.603 58.6387 41.603 60.7565C41.603 62.8744 43.3199 64.5912 45.4377 64.5912Z" fill="#2E527C"/>
<path d="M57.0329 64.5912C59.1507 64.5912 60.8676 62.8744 60.8676 60.7565C60.8676 58.6387 59.1507 56.9219 57.0329 56.9219C54.9151 56.9219 53.1982 58.6387 53.1982 60.7565C53.1982 62.8744 54.9151 64.5912 57.0329 64.5912Z" fill="#2E527C"/>
<path d="M68.4653 64.3114C70.5831 64.3114 72.2999 62.5946 72.2999 60.4768C72.2999 58.3589 70.5831 56.6421 68.4653 56.6421C66.3475 56.6421 64.6306 58.3589 64.6306 60.4768C64.6306 62.5946 66.3475 64.3114 68.4653 64.3114Z" fill="#2E527C"/>
<path d="M49.4156 71.0874H356.716C360.755 71.0874 364.029 74.3614 364.029 78.4V78.9078C364.029 82.9463 360.755 86.2203 356.716 86.2203H49.4156C45.377 86.2203 42.103 82.9464 42.103 78.9078V78.4C42.103 74.3613 45.377 71.0874 49.4156 71.0874Z" stroke="#2E527C"/>
<path d="M143.791 134.26H146.142V128.368H151.871V126.011H146.142V120.451H143.791V126.011H138.062V128.368H143.791V134.26Z" fill="#2E527C"/>
<path d="M78.7584 182.724C78.4393 183.537 78.2831 183.993 78.2701 184.026C78.2259 184.159 78.2259 184.303 78.2701 184.436C78.0955 184.908 78.0288 185.413 78.0748 185.914C78.2325 187.137 78.726 188.293 79.5006 189.254C77.4707 190.487 75.8772 192.324 74.9432 194.508C74.7157 194.672 74.5232 194.88 74.3768 195.119C73.0161 197.392 76.33 201.044 80.1451 203.329C81.9579 204.454 83.9615 205.237 86.0566 205.64C86.4699 205.708 86.8878 205.743 87.3066 205.745C88.6543 205.745 89.6243 205.328 90.1061 204.527C90.1687 204.415 90.221 204.297 90.2624 204.176C91.8118 201.5 92.4434 199.488 92.3783 197.346H92.6712C93.1492 197.349 93.6257 197.295 94.0905 197.183C94.9738 196.98 95.7804 196.529 96.4147 195.881H96.4278C96.5791 195.875 96.7237 195.817 96.8366 195.716C96.9495 195.615 97.0236 195.478 97.0463 195.328L97.1569 195.269L110.328 203.902L109.357 177.001C109.351 176.867 109.301 176.739 109.214 176.636C109.449 176.246 109.689 175.849 109.924 175.445C118.453 161.07 123.218 150.529 124.091 144.13C126.141 129.071 126.324 127.573 126.33 127.515L126.46 126.415L125.432 126.838C124.904 127.053 112.255 132.385 97.8991 150.633C93.9532 155.64 90.3283 160.891 87.0462 166.356L67.3716 174.195L78.7584 182.724ZM88.9798 203.857C88.6608 204.384 87.6777 204.573 86.2519 204.351C84.3189 203.98 82.4713 203.253 80.8026 202.209C76.9419 199.898 74.813 196.91 75.4901 195.784C75.5814 195.762 75.6671 195.722 75.7412 195.664C75.8154 195.607 75.8763 195.535 75.9198 195.452C76.3038 195.287 76.7196 195.209 77.1373 195.224C77.4929 195.224 77.8479 195.255 78.1985 195.315C80.1318 195.685 81.9796 196.412 83.6477 197.457C87.5084 199.768 89.6373 202.75 88.9668 203.876L88.9798 203.857ZM90.015 201.832C89.1295 199.924 86.8444 197.821 84.3313 196.317C82.5189 195.187 80.5122 194.403 78.4133 194.006C77.8474 193.915 77.2729 193.888 76.7011 193.928C77.5571 192.398 78.8187 191.134 80.3469 190.276C81.6419 191.664 83.0776 192.914 84.6308 194.006C86.5331 195.493 88.72 196.575 91.0566 197.183C91.1116 198.796 90.753 200.397 90.015 201.832ZM93.778 195.972C93.2527 196.09 92.7121 196.123 92.1764 196.07C92.1096 195.972 92.0173 195.894 91.9094 195.845C91.8016 195.795 91.6823 195.777 91.5644 195.79C91.4515 195.806 91.3454 195.853 91.2585 195.927C89.7936 195.608 87.873 194.774 85.399 192.984C83.9738 191.983 82.6521 190.843 81.4537 189.579C81.5188 189.421 81.5188 189.243 81.4537 189.084C81.3945 188.942 81.2868 188.825 81.1497 188.755C81.0126 188.685 80.8551 188.665 80.705 188.7C80.0221 187.894 79.5719 186.917 79.4029 185.875C79.335 185.423 79.4271 184.963 79.6633 184.573C80.3144 184.319 83.8365 183.225 90.1321 187.138C94.5397 189.885 95.5228 193.342 95.7377 194.69C95.254 195.326 94.5591 195.77 93.778 195.94V195.972ZM108.934 201.448L97.9707 194.286C99.4616 192.086 103.589 185.92 108.107 178.479L108.934 201.448ZM118.166 132.684C119.523 133.011 120.816 133.566 121.988 134.325L123.902 135.842C123.68 137.45 123.42 139.364 123.114 141.636C122.242 140.38 121.285 139.186 120.249 138.062C118.947 136.76 115.568 136.063 114.071 135.809C115.542 134.579 116.916 133.537 118.166 132.652V132.684ZM124.104 134.338C123.759 134.064 123.316 133.719 122.802 133.303C121.808 132.608 120.709 132.079 119.546 131.734C121.258 130.56 123.041 129.494 124.885 128.543C124.755 129.481 124.52 131.219 124.104 134.305V134.338ZM98.9213 151.441C103.071 146.114 107.743 141.216 112.867 136.818C112.959 136.913 113.08 136.975 113.212 136.994C114.546 137.176 118.238 137.886 119.325 138.947C120.607 140.382 121.786 141.905 122.854 143.505L122.795 143.934C120.933 157.606 100.36 188.407 96.8184 193.622C96.3236 191.747 94.8978 188.583 90.8027 186.037C85.3274 182.632 81.6881 182.743 80.0084 183.114C82.2511 177.67 84.911 172.407 87.9642 167.372L88.1725 167.287C88.2521 167.256 88.3246 167.209 88.386 167.149C88.4474 167.089 88.4964 167.018 88.5303 166.94C88.5642 166.861 88.5822 166.777 88.5834 166.691C88.5845 166.605 88.5688 166.52 88.5371 166.441C91.6905 161.224 95.1583 156.204 98.9213 151.408V151.441ZM79.2727 181.474L70.0083 174.546L85.972 168.16C83.4577 172.45 81.22 176.897 79.2727 181.474Z" fill="#2E527C"/>
<path d="M63.361 232.268L64.1487 231.936C64.6305 231.734 75.9717 226.916 79.5915 220.907C83.2114 214.898 83.947 206.057 83.9796 205.679C83.9864 205.594 83.9764 205.508 83.95 205.426C83.9236 205.345 83.8814 205.269 83.8257 205.204C83.7701 205.138 83.7022 205.085 83.6258 205.046C83.5494 205.007 83.4661 204.983 83.3806 204.976C83.2951 204.969 83.2091 204.979 83.1275 205.006C83.0459 205.032 82.9703 205.074 82.905 205.13C82.8397 205.186 82.786 205.254 82.747 205.33C82.708 205.406 82.6843 205.49 82.6775 205.575C82.6775 205.666 81.9028 214.54 78.4717 220.237C75.5941 224.996 67.1305 229.163 64.4482 230.38C63.9424 225.198 64.1285 219.972 65.0016 214.84C66.4795 207.092 75.5941 201.734 75.6918 201.682C75.8335 201.592 75.9349 201.45 75.9749 201.287C76.0148 201.124 75.9902 200.952 75.9062 200.807C75.8221 200.661 75.6852 200.554 75.5239 200.507C75.3626 200.46 75.1895 200.478 75.0407 200.556C74.6501 200.783 65.3401 206.259 63.7321 214.592C62.7669 220.15 62.596 225.816 63.2242 231.422L63.361 232.268Z" fill="#2E527C"/>
<path d="M77.0851 203.095C77.1535 203.044 77.2111 202.979 77.2547 202.906C77.2982 202.832 77.3269 202.751 77.339 202.666C77.3511 202.581 77.3464 202.495 77.3252 202.412C77.3039 202.33 77.2666 202.252 77.2153 202.183C77.1128 202.046 76.9603 201.955 76.7909 201.929C76.6215 201.904 76.4488 201.946 76.3104 202.047C76.2452 202.118 67.1306 209.045 68.6996 221.35L68.8233 222.314L69.6632 221.832C82.2023 214.67 81.9419 205.458 81.9224 205.068C81.914 204.901 81.8418 204.743 81.7206 204.628C81.5994 204.513 81.4385 204.449 81.2713 204.449C81.0987 204.449 80.9331 204.518 80.811 204.64C80.6889 204.762 80.6203 204.927 80.6203 205.1C80.5631 206.909 80.1191 208.685 79.3182 210.308C78.0877 213.017 75.4705 216.786 69.8845 220.178C68.9731 209.286 77.0005 203.153 77.0851 203.095Z" fill="#2E527C"/>
<path d="M275.309 208.297L261.253 202.873C258.828 201.932 256.139 201.932 253.714 202.873L239.658 208.297C239.536 208.344 239.43 208.427 239.356 208.535C239.282 208.643 239.242 208.771 239.241 208.902V231.897C239.241 232.808 239.442 233.708 239.829 234.533C240.216 235.358 240.78 236.087 241.481 236.669L257.073 249.475L257.165 249.527L257.249 249.573C257.321 249.604 257.399 249.62 257.477 249.619C257.559 249.619 257.641 249.603 257.718 249.573L257.79 249.527C257.824 249.513 257.856 249.496 257.887 249.475L273.512 236.266C274.21 235.684 274.771 234.957 275.156 234.134C275.541 233.312 275.74 232.415 275.739 231.506V208.902C275.738 208.769 275.696 208.64 275.619 208.532C275.542 208.424 275.434 208.342 275.309 208.297ZM272.659 235.243L258.115 247.561C258.115 247.389 258.046 247.223 257.924 247.101C257.802 246.979 257.637 246.91 257.464 246.91C257.291 246.91 257.126 246.979 257.004 247.101C256.882 247.223 256.813 247.389 256.813 247.561L242.282 235.615C241.727 235.155 241.281 234.579 240.975 233.928C240.669 233.276 240.51 232.565 240.511 231.845V226.513H241.162C241.334 226.513 241.5 226.444 241.622 226.322C241.744 226.2 241.813 226.035 241.813 225.862C241.813 225.689 241.744 225.524 241.622 225.402C241.5 225.279 241.334 225.211 241.162 225.211H240.511V209.351L254.15 204.084C255 203.759 255.893 203.561 256.8 203.498V204.15C256.8 204.322 256.869 204.488 256.991 204.61C257.113 204.732 257.278 204.801 257.451 204.801C257.624 204.801 257.789 204.732 257.911 204.61C258.033 204.488 258.102 204.322 258.102 204.15V203.498C259.009 203.561 259.902 203.759 260.752 204.084L274.391 209.351V225.23H273.74C273.568 225.23 273.402 225.299 273.28 225.421C273.158 225.543 273.089 225.709 273.089 225.881C273.089 226.054 273.158 226.22 273.28 226.342C273.402 226.464 273.568 226.532 273.74 226.532H274.391V231.48C274.396 232.196 274.243 232.904 273.944 233.555C273.645 234.205 273.206 234.782 272.659 235.243Z" fill="#2E527C"/>
<path d="M256.234 225.23H253.727C253.554 225.23 253.389 225.299 253.267 225.421C253.145 225.543 253.076 225.709 253.076 225.882C253.076 226.054 253.145 226.22 253.267 226.342C253.389 226.464 253.554 226.533 253.727 226.533H256.234C256.406 226.533 256.572 226.464 256.694 226.342C256.816 226.22 256.885 226.054 256.885 225.882C256.885 225.709 256.816 225.543 256.694 225.421C256.572 225.299 256.406 225.23 256.234 225.23Z" fill="#2E527C"/>
<path d="M271.266 225.23H268.76C268.587 225.23 268.421 225.299 268.299 225.421C268.177 225.543 268.109 225.709 268.109 225.882C268.109 226.054 268.177 226.22 268.299 226.342C268.421 226.464 268.587 226.533 268.76 226.533H271.266C271.439 226.533 271.604 226.464 271.727 226.342C271.849 226.22 271.917 226.054 271.917 225.882C271.917 225.709 271.849 225.543 271.727 225.421C271.604 225.299 271.439 225.23 271.266 225.23Z" fill="#2E527C"/>
<path d="M266.253 225.23H263.747C263.574 225.23 263.408 225.299 263.286 225.421C263.164 225.543 263.096 225.709 263.096 225.882C263.096 226.054 263.164 226.22 263.286 226.342C263.408 226.464 263.574 226.533 263.747 226.533H266.253C266.426 226.533 266.591 226.464 266.714 226.342C266.836 226.22 266.904 226.054 266.904 225.882C266.904 225.709 266.836 225.543 266.714 225.421C266.591 225.299 266.426 225.23 266.253 225.23Z" fill="#2E527C"/>
<path d="M251.22 225.23H248.714C248.541 225.23 248.376 225.299 248.254 225.421C248.131 225.543 248.063 225.709 248.063 225.882C248.063 226.054 248.131 226.22 248.254 226.342C248.376 226.464 248.541 226.533 248.714 226.533H251.22C251.393 226.533 251.559 226.464 251.681 226.342C251.803 226.22 251.871 226.054 251.871 225.882C251.871 225.709 251.803 225.543 251.681 225.421C251.559 225.299 251.393 225.23 251.22 225.23Z" fill="#2E527C"/>
<path d="M261.24 225.23H258.734C258.561 225.23 258.395 225.299 258.273 225.421C258.151 225.543 258.083 225.709 258.083 225.882C258.083 226.054 258.151 226.22 258.273 226.342C258.395 226.464 258.561 226.533 258.734 226.533H261.24C261.413 226.533 261.578 226.464 261.7 226.342C261.823 226.22 261.891 226.054 261.891 225.882C261.891 225.709 261.823 225.543 261.7 225.421C261.578 225.299 261.413 225.23 261.24 225.23Z" fill="#2E527C"/>
<path d="M246.207 225.23H243.701C243.528 225.23 243.363 225.299 243.241 225.421C243.118 225.543 243.05 225.709 243.05 225.882C243.05 226.054 243.118 226.22 243.241 226.342C243.363 226.464 243.528 226.533 243.701 226.533H246.207C246.38 226.533 246.546 226.464 246.668 226.342C246.79 226.22 246.858 226.054 246.858 225.882C246.858 225.709 246.79 225.543 246.668 225.421C246.546 225.299 246.38 225.23 246.207 225.23Z" fill="#2E527C"/>
<path d="M257.484 241.878C257.311 241.878 257.145 241.947 257.023 242.069C256.901 242.191 256.833 242.356 256.833 242.529V245.088C256.833 245.26 256.901 245.426 257.023 245.548C257.145 245.67 257.311 245.739 257.484 245.739C257.656 245.739 257.822 245.67 257.944 245.548C258.066 245.426 258.135 245.26 258.135 245.088V242.529C258.135 242.356 258.066 242.191 257.944 242.069C257.822 241.947 257.656 241.878 257.484 241.878Z" fill="#2E527C"/>
<path d="M257.484 209.898C257.656 209.898 257.822 209.83 257.944 209.708C258.066 209.586 258.135 209.42 258.135 209.247V206.689C258.135 206.516 258.066 206.35 257.944 206.228C257.822 206.106 257.656 206.038 257.484 206.038C257.311 206.038 257.145 206.106 257.023 206.228C256.901 206.35 256.833 206.516 256.833 206.689V209.247C256.833 209.42 256.901 209.586 257.023 209.708C257.145 209.83 257.311 209.898 257.484 209.898Z" fill="#2E527C"/>
<path d="M257.484 220.139C257.656 220.139 257.822 220.071 257.944 219.948C258.066 219.826 258.135 219.661 258.135 219.488V216.923C258.135 216.75 258.066 216.585 257.944 216.463C257.822 216.341 257.656 216.272 257.484 216.272C257.311 216.272 257.145 216.341 257.023 216.463C256.901 216.585 256.833 216.75 256.833 216.923V219.482C256.832 219.568 256.848 219.653 256.88 219.733C256.913 219.813 256.96 219.885 257.021 219.946C257.081 220.007 257.154 220.056 257.233 220.089C257.312 220.122 257.398 220.139 257.484 220.139Z" fill="#2E527C"/>
<path d="M257.484 236.761C257.311 236.761 257.145 236.829 257.023 236.951C256.901 237.074 256.833 237.239 256.833 237.412V239.97C256.833 240.143 256.901 240.309 257.023 240.431C257.145 240.553 257.311 240.621 257.484 240.621C257.656 240.621 257.822 240.553 257.944 240.431C258.066 240.309 258.135 240.143 258.135 239.97V237.412C258.135 237.239 258.066 237.074 257.944 236.951C257.822 236.829 257.656 236.761 257.484 236.761Z" fill="#2E527C"/>
<path d="M257.484 225.263C257.656 225.263 257.822 225.195 257.944 225.073C258.066 224.95 258.135 224.785 258.135 224.612V222.047C258.135 221.874 258.066 221.709 257.944 221.587C257.822 221.465 257.656 221.396 257.484 221.396C257.311 221.396 257.145 221.465 257.023 221.587C256.901 221.709 256.833 221.874 256.833 222.047V224.612C256.833 224.785 256.901 224.95 257.023 225.073C257.145 225.195 257.311 225.263 257.484 225.263Z" fill="#2E527C"/>
<path d="M257.484 231.637C257.311 231.637 257.145 231.705 257.023 231.827C256.901 231.949 256.833 232.115 256.833 232.288V234.846C256.833 235.019 256.901 235.185 257.023 235.307C257.145 235.429 257.311 235.497 257.484 235.497C257.656 235.497 257.822 235.429 257.944 235.307C258.066 235.185 258.135 235.019 258.135 234.846V232.288C258.135 232.115 258.066 231.949 257.944 231.827C257.822 231.705 257.656 231.637 257.484 231.637Z" fill="#2E527C"/>
<path d="M257.484 226.52C257.311 226.52 257.145 226.588 257.023 226.71C256.901 226.832 256.833 226.998 256.833 227.171V229.729C256.833 229.902 256.901 230.067 257.023 230.19C257.145 230.312 257.311 230.38 257.484 230.38C257.656 230.38 257.822 230.312 257.944 230.19C258.066 230.067 258.135 229.902 258.135 229.729V227.171C258.135 226.998 258.066 226.832 257.944 226.71C257.822 226.588 257.656 226.52 257.484 226.52Z" fill="#2E527C"/>
<path d="M257.484 215.022C257.656 215.022 257.822 214.953 257.944 214.831C258.066 214.709 258.135 214.544 258.135 214.371V211.806C258.135 211.633 258.066 211.468 257.944 211.345C257.822 211.223 257.656 211.155 257.484 211.155C257.311 211.155 257.145 211.223 257.023 211.345C256.901 211.468 256.833 211.633 256.833 211.806V214.371C256.833 214.544 256.901 214.709 257.023 214.831C257.145 214.953 257.311 215.022 257.484 215.022Z" fill="#2E527C"/>
<path d="M187.001 110.087V167.444H207.757C208.083 168.217 208.629 168.876 209.328 169.34C210.027 169.803 210.847 170.051 211.686 170.051C212.524 170.051 213.344 169.803 214.043 169.34C214.742 168.876 215.289 168.217 215.615 167.444H314.873C316.548 167.442 318.154 166.776 319.339 165.593C320.524 164.409 321.191 162.804 321.195 161.129V103.771H193.323C191.648 103.773 190.042 104.439 188.857 105.623C187.672 106.806 187.005 108.412 187.001 110.087ZM193.323 105.074H319.893V161.155C319.891 162.485 319.362 163.76 318.42 164.7C317.479 165.64 316.203 166.168 314.873 166.168H215.947C215.947 166.051 215.947 165.94 215.947 165.816C215.969 165.243 215.876 164.67 215.672 164.134C215.467 163.597 215.157 163.108 214.759 162.694C214.361 162.28 213.884 161.951 213.356 161.726C212.828 161.501 212.26 161.385 211.686 161.385C211.112 161.385 210.544 161.501 210.015 161.726C209.487 161.951 209.01 162.28 208.612 162.694C208.214 163.108 207.904 163.597 207.7 164.134C207.496 164.67 207.402 165.243 207.425 165.816C207.425 165.94 207.425 166.051 207.425 166.168H188.303V110.087C188.305 108.756 188.835 107.481 189.776 106.541C190.717 105.602 191.993 105.074 193.323 105.074Z" fill="#2E527C"/>
<path d="M321.195 248.174V233.851C322.181 233.698 323.081 233.198 323.731 232.441C324.38 231.683 324.738 230.718 324.738 229.72C324.738 228.722 324.38 227.756 323.731 226.999C323.081 226.241 322.181 225.741 321.195 225.589V190.816H193.323C191.648 190.818 190.042 191.484 188.857 192.668C187.672 193.851 187.005 195.457 187.001 197.132V254.521H314.873C315.705 254.52 316.529 254.354 317.296 254.034C318.064 253.714 318.762 253.246 319.349 252.657C319.936 252.067 320.401 251.368 320.718 250.599C321.034 249.83 321.197 249.005 321.195 248.174ZM188.303 197.132C188.305 195.801 188.835 194.526 189.776 193.586C190.717 192.646 191.993 192.118 193.323 192.118H319.893V225.634C318.906 225.787 318.007 226.287 317.357 227.044C316.707 227.802 316.35 228.767 316.35 229.765C316.35 230.763 316.707 231.729 317.357 232.486C318.007 233.244 318.906 233.744 319.893 233.896V248.219C319.891 249.55 319.362 250.826 318.421 251.767C317.48 252.708 316.204 253.237 314.873 253.239H188.303V197.132Z" fill="#2E527C"/>
<path d="M37.1825 216.878C37.8498 216.878 38.502 216.68 39.0568 216.309C39.6115 215.938 40.0438 215.411 40.2988 214.794C40.5539 214.178 40.6203 213.499 40.4896 212.845C40.359 212.191 40.0371 211.59 39.5648 211.118C39.0925 210.647 38.491 210.326 37.8364 210.197C37.1818 210.067 36.5035 210.135 35.8874 210.391C35.2713 210.648 34.745 211.081 34.3753 211.636C34.0055 212.192 33.8088 212.844 33.8101 213.512C33.8118 214.405 34.1679 215.261 34.8001 215.892C35.4324 216.523 36.2892 216.878 37.1825 216.878ZM37.1825 211.441C37.592 211.441 37.9922 211.563 38.3327 211.79C38.6732 212.018 38.9385 212.341 39.0952 212.719C39.2519 213.098 39.2929 213.514 39.213 213.916C39.1331 214.317 38.936 214.686 38.6464 214.976C38.3569 215.265 37.988 215.462 37.5864 215.542C37.1848 215.622 36.7685 215.581 36.3902 215.424C36.0119 215.268 35.6886 215.002 35.4611 214.662C35.2336 214.321 35.1122 213.921 35.1122 213.512C35.1122 212.963 35.3303 212.436 35.7185 212.048C36.1068 211.66 36.6334 211.441 37.1825 211.441Z" fill="#2E527C"/>
<path d="M232.301 155.901C232.301 156.073 232.37 156.239 232.492 156.361C232.614 156.483 232.779 156.552 232.952 156.552H235.556C235.729 156.552 235.895 156.483 236.017 156.361C236.139 156.239 236.207 156.073 236.207 155.901C236.207 155.728 236.139 155.562 236.017 155.44C235.895 155.318 235.729 155.25 235.556 155.25H232.952C232.779 155.25 232.614 155.318 232.492 155.44C232.37 155.562 232.301 155.728 232.301 155.901Z" fill="#2E527C"/>
<path d="M236.435 147.58H239.039C239.212 147.58 239.378 147.512 239.5 147.39C239.622 147.268 239.69 147.102 239.69 146.929C239.69 146.757 239.622 146.591 239.5 146.469C239.378 146.347 239.212 146.278 239.039 146.278H236.435C236.263 146.278 236.097 146.347 235.975 146.469C235.853 146.591 235.784 146.757 235.784 146.929C235.784 147.102 235.853 147.268 235.975 147.39C236.097 147.512 236.263 147.58 236.435 147.58Z" fill="#2E527C"/>
<path d="M237.51 155.9C237.51 156.073 237.578 156.239 237.7 156.361C237.822 156.483 237.988 156.551 238.161 156.551H240.765C240.937 156.551 241.103 156.483 241.225 156.361C241.347 156.239 241.416 156.073 241.416 155.9C241.423 155.853 241.423 155.805 241.416 155.757C241.422 155.712 241.422 155.666 241.416 155.62V153.016C241.416 152.844 241.347 152.678 241.225 152.556C241.103 152.434 240.937 152.365 240.765 152.365C240.592 152.365 240.426 152.434 240.304 152.556C240.182 152.678 240.114 152.844 240.114 153.016V155.249H238.161C237.988 155.249 237.822 155.318 237.7 155.44C237.578 155.562 237.51 155.728 237.51 155.9Z" fill="#2E527C"/>
<path d="M231.227 147.58H233.831C234.004 147.58 234.169 147.512 234.291 147.39C234.414 147.268 234.482 147.102 234.482 146.929C234.482 146.757 234.414 146.591 234.291 146.469C234.169 146.347 234.004 146.278 233.831 146.278H231.227C231.054 146.278 230.889 146.347 230.767 146.469C230.644 146.591 230.576 146.757 230.576 146.929C230.576 147.102 230.644 147.268 230.767 147.39C230.889 147.512 231.054 147.58 231.227 147.58Z" fill="#2E527C"/>
<path d="M230.068 156.551H230.348C230.488 156.553 230.625 156.51 230.739 156.427C230.852 156.345 230.936 156.228 230.978 156.094C231.019 155.96 231.017 155.816 230.97 155.684C230.924 155.552 230.835 155.438 230.719 155.36V153.583C230.719 153.41 230.651 153.244 230.528 153.122C230.406 153 230.241 152.932 230.068 152.932C229.895 152.932 229.73 153 229.608 153.122C229.486 153.244 229.417 153.41 229.417 153.583V155.9C229.417 156.073 229.486 156.239 229.608 156.361C229.73 156.483 229.895 156.551 230.068 156.551Z" fill="#2E527C"/>
<path d="M240.765 151.064C240.937 151.064 241.103 150.995 241.225 150.873C241.347 150.751 241.416 150.585 241.416 150.412V147.808C241.416 147.636 241.347 147.47 241.225 147.348C241.103 147.226 240.937 147.157 240.765 147.157C240.592 147.157 240.426 147.226 240.304 147.348C240.182 147.47 240.114 147.636 240.114 147.808V150.412C240.114 150.585 240.182 150.751 240.304 150.873C240.426 150.995 240.592 151.064 240.765 151.064Z" fill="#2E527C"/>
<path d="M230.068 151.63C230.241 151.63 230.406 151.561 230.528 151.439C230.651 151.317 230.719 151.152 230.719 150.979V148.375C230.719 148.202 230.651 148.036 230.528 147.914C230.406 147.792 230.241 147.724 230.068 147.724C229.895 147.724 229.73 147.792 229.608 147.914C229.486 148.036 229.417 148.202 229.417 148.375V150.979C229.417 151.152 229.486 151.317 229.608 151.439C229.73 151.561 229.895 151.63 230.068 151.63Z" fill="#2E527C"/>
<path d="M211.383 151.623C211.48 151.623 211.576 151.602 211.664 151.56C211.752 151.519 211.83 151.458 211.891 151.382H213.746C213.919 151.382 214.085 151.314 214.207 151.191C214.329 151.069 214.397 150.904 214.397 150.731C214.397 150.558 214.329 150.393 214.207 150.271C214.085 150.149 213.919 150.08 213.746 150.08H211.383C211.21 150.08 211.045 150.149 210.923 150.271C210.801 150.393 210.732 150.558 210.732 150.731V150.972C210.732 151.145 210.801 151.31 210.923 151.432C211.045 151.554 211.21 151.623 211.383 151.623Z" fill="#2E527C"/>
<path d="M216.351 151.382H218.955C219.127 151.382 219.293 151.314 219.415 151.191C219.537 151.069 219.606 150.904 219.606 150.731C219.606 150.558 219.537 150.393 219.415 150.271C219.293 150.149 219.127 150.08 218.955 150.08H216.351C216.178 150.08 216.012 150.149 215.89 150.271C215.768 150.393 215.699 150.558 215.699 150.731C215.699 150.904 215.768 151.069 215.89 151.191C216.012 151.314 216.178 151.382 216.351 151.382Z" fill="#2E527C"/>
<path d="M216.871 155.25H214.267C214.094 155.25 213.929 155.318 213.807 155.44C213.685 155.562 213.616 155.728 213.616 155.901C213.616 156.073 213.685 156.239 213.807 156.361C213.929 156.483 214.094 156.552 214.267 156.552H216.871C217.044 156.552 217.209 156.483 217.332 156.361C217.454 156.239 217.522 156.073 217.522 155.901C217.522 155.728 217.454 155.562 217.332 155.44C217.209 155.318 217.044 155.25 216.871 155.25Z" fill="#2E527C"/>
<path d="M221.429 151.369V152.808C221.429 152.981 221.497 153.146 221.619 153.268C221.741 153.39 221.907 153.459 222.08 153.459C222.252 153.459 222.418 153.39 222.54 153.268C222.662 153.146 222.731 152.981 222.731 152.808V150.731C222.731 150.558 222.662 150.393 222.54 150.271C222.418 150.149 222.252 150.08 222.08 150.08H221.552C221.467 150.072 221.38 150.081 221.298 150.106C221.216 150.131 221.14 150.172 221.074 150.227C221.008 150.282 220.953 150.349 220.913 150.425C220.872 150.501 220.847 150.584 220.839 150.669C220.831 150.755 220.84 150.841 220.865 150.923C220.89 151.005 220.932 151.082 220.986 151.148C221.041 151.214 221.108 151.269 221.184 151.309C221.26 151.349 221.343 151.374 221.429 151.382V151.369Z" fill="#2E527C"/>
<path d="M211.383 156.552H211.663C211.803 156.552 211.939 156.507 212.051 156.424C212.163 156.341 212.246 156.225 212.287 156.091C212.328 155.958 212.325 155.814 212.278 155.683C212.231 155.551 212.143 155.438 212.027 155.36V153.576C212.027 153.404 211.959 153.238 211.837 153.116C211.715 152.994 211.549 152.925 211.376 152.925C211.204 152.925 211.038 152.994 210.916 153.116C210.794 153.238 210.725 153.404 210.725 153.576V155.901C210.725 155.987 210.742 156.072 210.776 156.151C210.809 156.231 210.857 156.303 210.918 156.363C210.979 156.424 211.052 156.472 211.132 156.504C211.211 156.536 211.297 156.552 211.383 156.552Z" fill="#2E527C"/>
<path d="M222.08 154.761C221.932 154.756 221.787 154.802 221.668 154.891C221.55 154.98 221.466 155.106 221.429 155.249H219.476C219.303 155.249 219.137 155.318 219.015 155.44C218.893 155.562 218.824 155.728 218.824 155.9C218.824 156.073 218.893 156.239 219.015 156.361C219.137 156.483 219.303 156.551 219.476 156.551H222.08C222.252 156.551 222.418 156.483 222.54 156.361C222.662 156.239 222.731 156.073 222.731 155.9V155.412C222.731 155.239 222.662 155.074 222.54 154.952C222.418 154.83 222.252 154.761 222.08 154.761Z" fill="#2E527C"/>
<path d="M248.773 146.415C248.945 146.415 249.111 146.346 249.233 146.224C249.355 146.102 249.424 145.936 249.424 145.764V143.159C249.424 142.987 249.355 142.821 249.233 142.699C249.111 142.577 248.945 142.508 248.773 142.508C248.6 142.508 248.434 142.577 248.312 142.699C248.19 142.821 248.121 142.987 248.121 143.159V145.764C248.121 145.936 248.19 146.102 248.312 146.224C248.434 146.346 248.6 146.415 248.773 146.415Z" fill="#2E527C"/>
<path d="M248.773 141.207C248.945 141.207 249.111 141.138 249.233 141.016C249.355 140.894 249.424 140.728 249.424 140.556V137.951C249.424 137.779 249.355 137.613 249.233 137.491C249.111 137.369 248.945 137.3 248.773 137.3C248.6 137.3 248.434 137.369 248.312 137.491C248.19 137.613 248.121 137.779 248.121 137.951V140.556C248.121 140.728 248.19 140.894 248.312 141.016C248.434 141.138 248.6 141.207 248.773 141.207Z" fill="#2E527C"/>
<path d="M248.773 151.623C248.945 151.623 249.111 151.554 249.233 151.432C249.355 151.31 249.424 151.145 249.424 150.972V148.368C249.424 148.195 249.355 148.03 249.233 147.907C249.111 147.785 248.945 147.717 248.773 147.717C248.6 147.717 248.434 147.785 248.312 147.907C248.19 148.03 248.121 148.195 248.121 148.368V150.972C248.121 151.145 248.19 151.31 248.312 151.432C248.434 151.554 248.6 151.623 248.773 151.623Z" fill="#2E527C"/>
<path d="M250.81 138.062H253.415C253.587 138.062 253.753 137.993 253.875 137.871C253.997 137.749 254.066 137.583 254.066 137.411C254.066 137.238 253.997 137.073 253.875 136.95C253.753 136.828 253.587 136.76 253.415 136.76H250.81C250.638 136.76 250.472 136.828 250.35 136.95C250.228 137.073 250.159 137.238 250.159 137.411C250.159 137.583 250.228 137.749 250.35 137.871C250.472 137.993 250.638 138.062 250.81 138.062Z" fill="#2E527C"/>
<path d="M248.773 156.552H249.059C249.232 156.552 249.397 156.483 249.519 156.361C249.641 156.239 249.71 156.073 249.71 155.901C249.71 155.794 249.684 155.689 249.634 155.595C249.584 155.5 249.512 155.42 249.424 155.36V153.576C249.424 153.404 249.355 153.238 249.233 153.116C249.111 152.994 248.945 152.925 248.773 152.925C248.6 152.925 248.434 152.994 248.312 153.116C248.19 153.238 248.121 153.404 248.121 153.576V155.901C248.121 156.073 248.19 156.239 248.312 156.361C248.434 156.483 248.6 156.552 248.773 156.552Z" fill="#2E527C"/>
<path d="M259.45 143.746C259.277 143.746 259.111 143.814 258.989 143.936C258.867 144.058 258.799 144.224 258.799 144.397V147.001C258.799 147.174 258.867 147.339 258.989 147.461C259.111 147.583 259.277 147.652 259.45 147.652C259.622 147.652 259.788 147.583 259.91 147.461C260.032 147.339 260.101 147.174 260.101 147.001V144.397C260.101 144.224 260.032 144.058 259.91 143.936C259.788 143.814 259.622 143.746 259.45 143.746Z" fill="#2E527C"/>
<path d="M259.45 154.162C259.277 154.162 259.111 154.231 258.989 154.353C258.867 154.475 258.799 154.64 258.799 154.813V155.249H256.846C256.673 155.249 256.507 155.318 256.385 155.44C256.263 155.562 256.194 155.728 256.194 155.9C256.194 156.073 256.263 156.239 256.385 156.361C256.507 156.483 256.673 156.551 256.846 156.551H259.45C259.622 156.551 259.788 156.483 259.91 156.361C260.032 156.239 260.101 156.073 260.101 155.9V154.813C260.101 154.64 260.032 154.475 259.91 154.353C259.788 154.231 259.622 154.162 259.45 154.162Z" fill="#2E527C"/>
<path d="M250.986 155.901C250.986 156.073 251.055 156.239 251.177 156.361C251.299 156.483 251.464 156.552 251.637 156.552H254.241C254.414 156.552 254.58 156.483 254.702 156.361C254.824 156.239 254.892 156.073 254.892 155.901C254.892 155.728 254.824 155.562 254.702 155.44C254.58 155.318 254.414 155.25 254.241 155.25H251.637C251.464 155.25 251.299 155.318 251.177 155.44C251.055 155.562 250.986 155.728 250.986 155.901Z" fill="#2E527C"/>
<path d="M259.45 148.954C259.277 148.954 259.111 149.023 258.989 149.145C258.867 149.267 258.799 149.432 258.799 149.605V152.209C258.799 152.382 258.867 152.548 258.989 152.67C259.111 152.792 259.277 152.86 259.45 152.86C259.622 152.86 259.788 152.792 259.91 152.67C260.032 152.548 260.101 152.382 260.101 152.209V149.605C260.101 149.432 260.032 149.267 259.91 149.145C259.788 149.023 259.622 148.954 259.45 148.954Z" fill="#2E527C"/>
<path d="M256.019 138.062H258.623C258.796 138.062 258.961 137.993 259.083 137.871C259.205 137.749 259.274 137.583 259.274 137.411C259.274 137.238 259.205 137.073 259.083 136.95C258.961 136.828 258.796 136.76 258.623 136.76H256.019C255.846 136.76 255.68 136.828 255.558 136.95C255.436 137.073 255.368 137.238 255.368 137.411C255.368 137.583 255.436 137.749 255.558 137.871C255.68 137.993 255.846 138.062 256.019 138.062Z" fill="#2E527C"/>
<path d="M258.799 139.188V141.792C258.799 141.965 258.867 142.131 258.989 142.253C259.111 142.375 259.277 142.443 259.45 142.443C259.622 142.443 259.788 142.375 259.91 142.253C260.032 142.131 260.101 141.965 260.101 141.792V139.188C260.101 139.015 260.032 138.85 259.91 138.728C259.788 138.606 259.622 138.537 259.45 138.537C259.277 138.537 259.111 138.606 258.989 138.728C258.867 138.85 258.799 139.015 258.799 139.188Z" fill="#2E527C"/>
<path d="M278.786 122.951H266.781V156.552H278.786V122.951ZM277.484 155.25H268.083V124.253H277.484V155.25Z" fill="#2E527C"/>
<path d="M296.878 114.709H284.795V156.376L296.794 156.5L296.878 114.709ZM295.492 155.191L286.097 155.074V116.011H295.576L295.492 155.191Z" fill="#2E527C"/>
</g>
</g>
<defs>
<clipPath id="clip0_1002_21943">
<rect width="390" height="350" fill="white"/>
</clipPath>
</defs>
</svg>
