<svg width="390" height="350" viewBox="0 0 390 350" fill="none" xmlns="http://www.w3.org/2000/svg">
<g clip-path="url(#clip0_1002_22057)">
<mask id="mask0_1002_22057" style="mask-type:alpha" maskUnits="userSpaceOnUse" x="0" y="0" width="390" height="350">
<path d="M390 0H0V350H390V0Z" fill="#D9D9D9"/>
</mask>
<g mask="url(#mask0_1002_22057)">
<path d="M105.788 93.4775C118.573 93.4775 128.938 83.1127 128.938 70.3269C128.938 57.5412 118.573 47.1763 105.788 47.1763C93.0019 47.1763 82.637 57.5412 82.637 70.3269C82.637 83.1127 93.0019 93.4775 105.788 93.4775Z" stroke="#2E527C" stroke-width="2" stroke-linecap="round" stroke-linejoin="round"/>
<path d="M96.7498 286.614C108.992 286.614 118.916 276.69 118.916 264.448C118.916 252.206 108.992 242.282 96.7498 242.282C84.5077 242.282 74.5835 252.206 74.5835 264.448C74.5835 276.69 84.5077 286.614 96.7498 286.614Z" stroke="#2E527C" stroke-width="2" stroke-linecap="round" stroke-linejoin="round"/>
<path d="M96.4942 314.361C124.028 314.361 146.349 292.04 146.349 264.506C146.349 236.972 124.028 214.651 96.4942 214.651C68.96 214.651 46.6392 236.972 46.6392 264.506C46.6392 292.04 68.96 314.361 96.4942 314.361Z" stroke="#2E527C" stroke-width="2" stroke-linecap="round" stroke-linejoin="round"/>
<path d="M324.357 138.551C331.982 138.551 338.163 132.37 338.163 124.745C338.163 117.121 331.982 110.939 324.357 110.939C316.732 110.939 310.551 117.121 310.551 124.745C310.551 132.37 316.732 138.551 324.357 138.551Z" stroke="#2E527C" stroke-width="2" stroke-linecap="round" stroke-linejoin="round"/>
<path d="M309.554 124.746C309.554 124.746 300.401 129.763 307.988 131.617C315.575 133.47 332.858 128.855 340.694 121.633C348.531 114.41 335.46 115.983 335.46 115.983" stroke="#2E527C" stroke-width="2" stroke-linecap="round" stroke-linejoin="round"/>
<path d="M330.385 137.165C333.456 148.697 335.005 160.582 334.993 172.517C334.993 248.105 273.716 309.388 198.122 309.388C122.527 309.388 61.2441 248.105 61.2441 172.517C61.2441 96.9291 122.527 35.6394 198.122 35.6394C223.594 35.5588 248.579 42.6215 270.24 56.0255C291.9 69.4296 309.369 88.638 320.663 111.47" stroke="#2E527C" stroke-width="2" stroke-linecap="round" stroke-linejoin="round"/>
<path d="M69.5022 45.623C70.8118 45.623 71.8735 44.5613 71.8735 43.2517C71.8735 41.942 70.8118 40.8804 69.5022 40.8804C68.1925 40.8804 67.1309 41.942 67.1309 43.2517C67.1309 44.5613 68.1925 45.623 69.5022 45.623Z" stroke="#2E527C" stroke-width="2" stroke-linecap="round" stroke-linejoin="round"/>
<path d="M80.01 45.623C81.3196 45.623 82.3813 44.5613 82.3813 43.2517C82.3813 41.942 81.3196 40.8804 80.01 40.8804C78.7004 40.8804 77.6387 41.942 77.6387 43.2517C77.6387 44.5613 78.7004 45.623 80.01 45.623Z" stroke="#2E527C" stroke-width="2" stroke-linecap="round" stroke-linejoin="round"/>
<path d="M89.393 45.623C90.7027 45.623 91.7643 44.5613 91.7643 43.2517C91.7643 41.942 90.7027 40.8804 89.393 40.8804C88.0834 40.8804 87.0217 41.942 87.0217 43.2517C87.0217 44.5613 88.0834 45.623 89.393 45.623Z" stroke="#2E527C" stroke-width="2" stroke-linecap="round" stroke-linejoin="round"/>
<path d="M105.238 74.673C107.455 74.673 109.252 72.8758 109.252 70.659C109.252 68.4421 107.455 66.645 105.238 66.645C103.021 66.645 101.224 68.4421 101.224 70.659C101.224 72.8758 103.021 74.673 105.238 74.673Z" fill="#2E527C"/>
<path d="M97.095 267.906C99.3119 267.906 101.109 266.109 101.109 263.892C101.109 261.676 99.3119 259.878 97.095 259.878C94.8782 259.878 93.0811 261.676 93.0811 263.892C93.0811 266.109 94.8782 267.906 97.095 267.906Z" fill="#2E527C"/>
<path d="M135.758 301.884C139.973 301.884 143.39 298.468 143.39 294.253C143.39 290.038 139.973 286.621 135.758 286.621C131.543 286.621 128.127 290.038 128.127 294.253C128.127 298.468 131.543 301.884 135.758 301.884Z" fill="#2E527C"/>
<path d="M195.808 35.6392H65.0791C64.062 35.6392 63.0866 36.0432 62.3674 36.7624C61.6482 37.4816 61.2441 38.4571 61.2441 39.4742L61.2825 175.751" stroke="#2E527C" stroke-width="2" stroke-linecap="round" stroke-linejoin="round"/>
<path d="M198.122 35.6392V107.386" stroke="#2E527C" stroke-width="2" stroke-linecap="round" stroke-linejoin="round" stroke-dasharray="6 6"/>
<path d="M198.122 235.967V309.797" stroke="#2E527C" stroke-width="2" stroke-linecap="round" stroke-linejoin="round" stroke-dasharray="6 6"/>
<path d="M334.226 172.517H260.76" stroke="#2E527C" stroke-width="2" stroke-linecap="round" stroke-linejoin="round" stroke-dasharray="6 6"/>
<path d="M62.0686 172.376L135.758 172.651" stroke="#2E527C" stroke-width="2" stroke-linecap="round" stroke-linejoin="round" stroke-dasharray="6 6"/>
<path d="M306.454 272.879C310.196 272.879 313.229 269.846 313.229 266.104C313.229 262.362 310.196 259.329 306.454 259.329C302.712 259.329 299.679 262.362 299.679 266.104C299.679 269.846 302.712 272.879 306.454 272.879Z" stroke="#2E527C" stroke-width="2" stroke-linecap="round" stroke-linejoin="round"/>
<path d="M299.673 83.3016C302.115 83.3016 304.096 81.3214 304.096 78.8786C304.096 76.4358 302.115 74.4556 299.673 74.4556C297.23 74.4556 295.25 76.4358 295.25 78.8786C295.25 81.3214 297.23 83.3016 299.673 83.3016Z" fill="#2E527C"/>
<path d="M255.962 130.361C208.478 125.076 198.004 107 198.004 107C198.004 107 187.53 125.076 140.038 130.361C139.301 167.538 149.037 223.662 198.004 236C246.971 223.662 256.699 167.538 255.962 130.361Z" stroke="#2E527C" stroke-width="2" stroke-miterlimit="10"/>
<path d="M210.291 153.418L207.725 155.985L210.292 158.551L212.858 155.984L210.291 153.418Z" fill="#2E527C"/>
<path d="M206.941 150.103L204.375 152.67L206.942 155.236L209.508 152.669L206.941 150.103Z" fill="#2E527C"/>
<path d="M203.952 153.441L201.385 156.007L203.951 158.574L206.518 156.008L203.952 153.441Z" fill="#2E527C"/>
<path d="M184.271 197.431C183.739 198.231 182.988 198.862 182.107 199.245C181.095 199.678 180.003 199.89 178.902 199.868C177.347 199.906 175.815 199.492 174.491 198.676C173.292 197.957 172.404 196.818 172 195.479L174.103 194.272C174.46 195.264 175.127 196.114 176.005 196.697C176.883 197.28 177.926 197.564 178.978 197.507C179.858 197.561 180.73 197.318 181.454 196.816C181.744 196.591 181.975 196.3 182.129 195.967C182.282 195.634 182.353 195.268 182.335 194.902C182.358 194.305 182.154 193.722 181.765 193.27C181.376 192.837 180.893 192.499 180.353 192.282C179.607 191.991 178.846 191.738 178.075 191.523C177.119 191.254 176.183 190.919 175.273 190.521C174.577 190.208 173.969 189.728 173.503 189.124C172.973 188.419 172.705 187.552 172.744 186.671C172.719 185.698 173.007 184.743 173.564 183.945C174.125 183.181 174.891 182.591 175.774 182.244C176.759 181.853 177.812 181.659 178.872 181.675C180.243 181.619 181.599 181.982 182.76 182.715C183.731 183.351 184.449 184.307 184.787 185.418L182.684 186.648C182.406 185.845 181.874 185.154 181.169 184.68C180.463 184.205 179.622 183.974 178.773 184.021C177.923 183.98 177.083 184.211 176.374 184.681C176.086 184.883 175.852 185.153 175.694 185.467C175.537 185.781 175.46 186.13 175.47 186.481C175.46 186.733 175.501 186.984 175.589 187.22C175.678 187.456 175.813 187.672 175.987 187.855C176.36 188.226 176.804 188.518 177.293 188.714C177.99 188.991 178.702 189.229 179.426 189.427C180.418 189.707 181.389 190.052 182.335 190.46C183.089 190.803 183.748 191.324 184.256 191.979C184.818 192.753 185.099 193.696 185.053 194.652C185.08 195.636 184.807 196.605 184.271 197.431Z" fill="#2E527C"/>
<path d="M194.643 181.931C196.255 181.908 197.849 182.264 199.298 182.971C200.661 183.638 201.795 184.695 202.556 186.008C203.333 187.471 203.74 189.102 203.74 190.758C203.74 192.414 203.333 194.045 202.556 195.508C201.791 196.812 200.665 197.867 199.313 198.545C197.862 199.261 196.261 199.62 194.643 199.593H189.472V181.931H194.643ZM194.302 197.338C195.198 197.392 196.096 197.267 196.944 196.969C197.791 196.672 198.571 196.209 199.237 195.606C200.385 194.25 201.015 192.531 201.015 190.754C201.015 188.977 200.385 187.258 199.237 185.902C198.57 185.302 197.79 184.841 196.942 184.545C196.095 184.25 195.197 184.125 194.302 184.178H192.062V197.338H194.302Z" fill="#2E527C"/>
<path d="M215.836 189.365L223.513 199.593H220.18L213.999 191.317L211.341 194.118V199.593H208.759V181.931H211.341V190.937L219.549 181.931H222.883L215.836 189.365Z" fill="#2E527C"/>
<path d="M218.532 155.84L218.403 155.476C218.016 154.398 217.644 153.38 217.332 152.439C216.656 150.153 215.452 148.059 213.817 146.326C210.832 143.342 206.983 143 204.386 143H191.15C184.362 143 180.368 145.916 178.189 152.446C177.832 153.532 177.429 154.724 176.981 155.871C174.703 162.188 172.319 168.719 175.546 171.946L175.819 172.196C179.373 175.234 184.848 171.733 189.677 168.65L189.89 168.514C190.649 168.05 191.302 167.61 191.948 167.23C193.277 166.471 194.416 166.296 197.172 166.296H198.357C201.052 166.296 202.244 166.433 203.566 167.223C204.264 167.64 205.023 168.126 205.844 168.635L205.517 169.151L205.844 168.643C210.673 171.726 216.148 175.219 219.709 172.174C223.27 169.129 220.886 162.34 218.532 155.84ZM206.671 167.154C205.866 166.638 205.092 166.144 204.393 165.719C202.73 164.725 201.25 164.557 198.357 164.557H197.187C194.294 164.557 192.813 164.725 191.112 165.719C190.399 166.152 189.594 166.646 188.834 167.162C185.531 169.273 181.894 171.597 179.183 171.597C178.371 171.628 177.576 171.358 176.951 170.837C176.886 170.786 176.826 170.73 176.769 170.67C174.286 168.187 176.465 162.166 178.576 156.349C179.021 155.134 179.429 153.985 179.798 152.902C181.735 147.085 185.114 144.602 191.188 144.595H204.393C208.084 144.595 210.696 145.498 212.64 147.442C214.088 148.991 215.152 150.858 215.745 152.894C216.11 153.98 216.505 155.127 216.96 156.341C219.117 162.295 221.349 168.453 218.578 170.822C215.928 173.062 211.007 169.918 206.671 167.154Z" fill="#2E527C"/>
<path d="M188.834 160.443C189.018 160.627 189.266 160.73 189.525 160.732C189.785 160.73 190.033 160.627 190.216 160.443C190.4 160.257 190.504 160.006 190.505 159.745V156.966H193.231C193.477 156.944 193.706 156.831 193.872 156.649C194.039 156.467 194.132 156.229 194.132 155.982C194.132 155.736 194.039 155.498 193.872 155.316C193.706 155.134 193.477 155.021 193.231 154.999H190.505V152.281C190.506 152.151 190.481 152.022 190.431 151.902C190.382 151.782 190.309 151.673 190.216 151.582C190.033 151.399 189.785 151.295 189.525 151.293C189.264 151.293 189.012 151.397 188.827 151.583C188.642 151.768 188.538 152.019 188.538 152.281V154.999H185.812C185.553 155.001 185.305 155.104 185.121 155.288C184.938 155.474 184.834 155.725 184.833 155.986C184.831 156.115 184.856 156.243 184.905 156.362C184.955 156.48 185.028 156.588 185.121 156.677C185.212 156.77 185.321 156.844 185.441 156.893C185.561 156.943 185.69 156.968 185.82 156.966H188.538V159.752C188.539 159.882 188.566 160.009 188.617 160.128C188.668 160.246 188.742 160.354 188.834 160.443Z" fill="#2E527C"/>
<path d="M206.943 156.517L204.376 159.083L206.942 161.65L209.509 159.084L206.943 156.517Z" fill="#2E527C"/>
</g>
</g>
<defs>
<clipPath id="clip0_1002_22057">
<rect width="390" height="350" fill="white"/>
</clipPath>
</defs>
</svg>
