<svg width="390" height="350" viewBox="0 0 390 350" fill="none" xmlns="http://www.w3.org/2000/svg">
<g clip-path="url(#clip0_1002_22091)">
<mask id="mask0_1002_22091" style="mask-type:alpha" maskUnits="userSpaceOnUse" x="0" y="0" width="390" height="350">
<path d="M390 0H0V350H390V0Z" fill="#D9D9D9"/>
</mask>
<g mask="url(#mask0_1002_22091)">
<path d="M302.432 96.8638C318.134 96.8638 330.864 84.1344 330.864 68.4319C330.864 52.7294 318.134 40 302.432 40C286.729 40 274 52.7294 274 68.4319C274 84.1344 286.729 96.8638 302.432 96.8638Z" stroke="#2E527C" stroke-width="2"/>
<path d="M2.0488 314.098C8.15088 314.098 13.0976 309.151 13.0976 303.049C13.0976 296.947 8.15088 292 2.0488 292C-4.05328 292 -9 296.947 -9 303.049C-9 309.151 -4.05328 314.098 2.0488 314.098Z" stroke="#2E527C" stroke-width="2"/>
<path d="M383.049 108.098C389.151 108.098 394.098 103.151 394.098 97.0488C394.098 90.9467 389.151 86 383.049 86C376.947 86 372 90.9467 372 97.0488C372 103.151 376.947 108.098 383.049 108.098Z" stroke="#2E527C" stroke-width="2"/>
<path d="M343.004 69H47.2822C46.1777 69 45.2822 69.8954 45.2822 71V280.089C45.2822 281.194 46.1777 282.089 47.2822 282.089H343.004C344.109 282.089 345.004 281.194 345.004 280.089V71C345.004 69.8954 344.109 69 343.004 69Z" stroke="#2E527C" stroke-width="2"/>
<path d="M359.565 267.391H31C29.8954 267.391 29 268.287 29 269.391V281C29 282.104 29.8954 283 31 283H359.565C360.67 283 361.565 282.104 361.565 281V269.391C361.565 268.287 360.67 267.391 359.565 267.391Z" stroke="#2E527C" stroke-width="2"/>
<path d="M222.218 267.391H168.348C167.244 267.391 166.348 268.287 166.348 269.391V272.782C166.348 273.887 167.244 274.782 168.348 274.782H222.218C223.322 274.782 224.218 273.887 224.218 272.782V269.391C224.218 268.287 223.322 267.391 222.218 267.391Z" stroke="#2E527C" stroke-width="2"/>
<path d="M331.044 84.2607H60.6958V257.174H331.044V84.2607Z" stroke="#2E527C" stroke-width="2"/>
<path d="M330.568 83.937H61.3936V117.154H330.568V83.937Z" stroke="#2E527C" stroke-width="2"/>
<path fill-rule="evenodd" clip-rule="evenodd" d="M88.8295 97.8215C88.8295 99.4423 87.5156 100.756 85.8947 100.756C84.2739 100.756 82.96 99.4423 82.96 97.8215C82.96 96.2007 84.2739 94.8867 85.8947 94.8867C87.5156 94.8867 88.8295 96.2007 88.8295 97.8215ZM80.0253 97.8217C80.0253 99.4425 78.7114 100.756 77.0905 100.756C75.4697 100.756 74.1558 99.4425 74.1558 97.8217C74.1558 96.2009 75.4697 94.8869 77.0905 94.8869C78.7114 94.8869 80.0253 96.2009 80.0253 97.8217ZM94.6991 100.756C96.3199 100.756 97.6339 99.4423 97.6339 97.8215C97.6339 96.2007 96.3199 94.8867 94.6991 94.8867C93.0782 94.8867 91.7643 96.2007 91.7643 97.8215C91.7643 99.4423 93.0782 100.756 94.6991 100.756Z" fill="#2E527C"/>
<path d="M273 132H115V238H273V132Z" stroke="#003682" stroke-width="2"/>
<path d="M131 170H223V176H131V170Z" fill="#7FA4D2" fill-opacity="0.3"/>
<path d="M131 185H220V190H131V185Z" fill="#7FA4D2" fill-opacity="0.3"/>
<path d="M131 202H207V208H131V202Z" fill="#7FA4D2" fill-opacity="0.3"/>
<path d="M137.663 148.003C137.606 147.43 137.362 146.985 136.932 146.667C136.501 146.35 135.916 146.191 135.177 146.191C134.675 146.191 134.252 146.262 133.906 146.405C133.56 146.542 133.295 146.734 133.111 146.98C132.931 147.226 132.841 147.505 132.841 147.818C132.831 148.078 132.886 148.306 133.004 148.5C133.127 148.694 133.295 148.862 133.508 149.004C133.721 149.141 133.968 149.262 134.247 149.366C134.526 149.466 134.825 149.551 135.142 149.622L136.449 149.934C137.083 150.076 137.665 150.266 138.196 150.503C138.726 150.739 139.185 151.03 139.574 151.376C139.962 151.722 140.263 152.129 140.476 152.598C140.693 153.066 140.805 153.604 140.809 154.21C140.805 155.1 140.577 155.872 140.128 156.525C139.683 157.174 139.039 157.678 138.196 158.038C137.358 158.393 136.347 158.571 135.163 158.571C133.989 158.571 132.966 158.391 132.095 158.031C131.228 157.671 130.551 157.138 130.064 156.433C129.581 155.723 129.327 154.844 129.304 153.798H132.28C132.313 154.286 132.452 154.693 132.699 155.02C132.95 155.342 133.283 155.585 133.7 155.751C134.121 155.912 134.597 155.993 135.128 155.993C135.648 155.993 136.101 155.917 136.484 155.765C136.872 155.614 137.173 155.403 137.386 155.133C137.599 154.863 137.706 154.553 137.706 154.203C137.706 153.876 137.609 153.601 137.415 153.379C137.225 153.156 136.946 152.967 136.576 152.811C136.212 152.655 135.764 152.512 135.234 152.385L133.65 151.987C132.424 151.689 131.456 151.222 130.746 150.588C130.035 149.953 129.683 149.099 129.687 148.024C129.683 147.143 129.917 146.374 130.39 145.716C130.869 145.057 131.524 144.544 132.358 144.174C133.191 143.805 134.138 143.62 135.199 143.62C136.278 143.62 137.22 143.805 138.025 144.174C138.835 144.544 139.465 145.057 139.915 145.716C140.364 146.374 140.596 147.136 140.611 148.003H137.663ZM150.769 148.003C150.712 147.43 150.468 146.985 150.037 146.667C149.606 146.35 149.021 146.191 148.283 146.191C147.781 146.191 147.357 146.262 147.011 146.405C146.666 146.542 146.401 146.734 146.216 146.98C146.036 147.226 145.946 147.505 145.946 147.818C145.937 148.078 145.991 148.306 146.11 148.5C146.233 148.694 146.401 148.862 146.614 149.004C146.827 149.141 147.073 149.262 147.352 149.366C147.632 149.466 147.93 149.551 148.247 149.622L149.554 149.934C150.189 150.076 150.771 150.266 151.301 150.503C151.832 150.739 152.291 151.03 152.679 151.376C153.067 151.722 153.368 152.129 153.581 152.598C153.799 153.066 153.91 153.604 153.915 154.21C153.91 155.1 153.683 155.872 153.233 156.525C152.788 157.174 152.144 157.678 151.301 158.038C150.463 158.393 149.452 158.571 148.269 158.571C147.094 158.571 146.072 158.391 145.2 158.031C144.334 157.671 143.657 157.138 143.169 156.433C142.686 155.723 142.433 154.844 142.409 153.798H145.385C145.418 154.286 145.558 154.693 145.804 155.02C146.055 155.342 146.389 155.585 146.806 155.751C147.227 155.912 147.703 155.993 148.233 155.993C148.754 155.993 149.206 155.917 149.59 155.765C149.978 155.614 150.279 155.403 150.492 155.133C150.705 154.863 150.811 154.553 150.811 154.203C150.811 153.876 150.714 153.601 150.52 153.379C150.331 153.156 150.051 152.967 149.682 152.811C149.317 152.655 148.87 152.512 148.34 152.385L146.756 151.987C145.529 151.689 144.561 151.222 143.851 150.588C143.141 149.953 142.788 149.099 142.793 148.024C142.788 147.143 143.022 146.374 143.496 145.716C143.974 145.057 144.63 144.544 145.463 144.174C146.297 143.805 147.244 143.62 148.304 143.62C149.384 143.62 150.326 143.805 151.131 144.174C151.94 144.544 152.57 145.057 153.02 145.716C153.47 146.374 153.702 147.136 153.716 148.003H150.769ZM155.983 158.365V143.819H159.059V155.829H165.295V158.365H155.983Z" fill="#003682"/>
<mask id="mask1_1002_22091" style="mask-type:alpha" maskUnits="userSpaceOnUse" x="243" y="189" width="24" height="29">
<path fill-rule="evenodd" clip-rule="evenodd" d="M244.119 195.203C243.641 195.479 243.477 196.09 243.753 196.569L255.464 216.852C255.668 217.206 256.123 216.98 256.229 216.585L257.918 210.282C258.061 209.749 258.609 209.432 259.142 209.575L265.443 211.264C265.814 211.363 266.205 211.094 266.013 210.762L254.302 190.478C254.026 190 253.415 189.836 252.936 190.112L244.119 195.203Z" fill="white"/>
</mask>
<g mask="url(#mask1_1002_22091)">
</g>
<mask id="mask2_1002_22091" style="mask-type:alpha" maskUnits="userSpaceOnUse" x="226" y="189" width="23" height="29">
<path fill-rule="evenodd" clip-rule="evenodd" d="M248.17 195.203C248.648 195.479 248.812 196.09 248.536 196.569L236.825 216.852C236.621 217.206 236.166 216.98 236.06 216.585L234.371 210.282C234.228 209.749 233.68 209.432 233.147 209.575L226.846 211.264C226.475 211.363 226.084 211.094 226.276 210.762L237.987 190.478C238.263 190 238.874 189.836 239.353 190.112L248.17 195.203Z" fill="white"/>
</mask>
<g mask="url(#mask2_1002_22091)">
</g>
<mask id="mask3_1002_22091" style="mask-type:alpha" maskUnits="userSpaceOnUse" x="224" y="158" width="43" height="43">
<path fill-rule="evenodd" clip-rule="evenodd" d="M248.609 160.014C247.047 158.452 244.514 158.452 242.952 160.014L239.426 163.54H233.627C231.418 163.54 229.627 165.331 229.627 167.54V173.339L226.101 176.866C224.538 178.428 224.538 180.96 226.101 182.522L229.627 186.049V191.847C229.627 194.056 231.418 195.847 233.627 195.847H239.425L242.952 199.374C244.514 200.936 247.047 200.936 248.609 199.374L252.136 195.847H257.934C260.143 195.847 261.934 194.056 261.934 191.847V186.049L265.461 182.522C267.023 180.96 267.023 178.428 265.461 176.866L261.934 173.339V167.54C261.934 165.331 260.143 163.54 257.934 163.54H252.136L248.609 160.014Z" fill="white"/>
</mask>
<g mask="url(#mask3_1002_22091)">
<path d="M242.952 160.014L241.538 158.6L242.952 160.014ZM248.609 160.014L247.195 161.428L248.609 160.014ZM239.426 163.54V165.54H240.254L240.84 164.955L239.426 163.54ZM229.627 173.339L231.042 174.753L231.627 174.167V173.339H229.627ZM226.101 176.866L224.686 175.451L226.101 176.866ZM226.101 182.522L224.686 183.937L226.101 182.522ZM229.627 186.049H231.627V185.221L231.042 184.635L229.627 186.049ZM239.425 195.847L240.839 194.433L240.253 193.847H239.425V195.847ZM248.609 199.374L250.023 200.788L248.609 199.374ZM252.136 195.847V193.847H251.308L250.722 194.433L252.136 195.847ZM261.934 186.049L260.52 184.635L259.934 185.221V186.049H261.934ZM265.461 182.522L266.875 183.937L265.461 182.522ZM265.461 176.866L264.047 178.28L265.461 176.866ZM261.934 173.339H259.934V174.167L260.52 174.753L261.934 173.339ZM252.136 163.54L250.722 164.955L251.307 165.54H252.136V163.54ZM244.366 161.428C245.147 160.647 246.414 160.647 247.195 161.428L250.023 158.6C247.68 156.256 243.881 156.256 241.538 158.6L244.366 161.428ZM240.84 164.955L244.366 161.428L241.538 158.6L238.011 162.126L240.84 164.955ZM233.627 165.54H239.426V161.54H233.627V165.54ZM231.627 167.54C231.627 166.436 232.523 165.54 233.627 165.54V161.54C230.314 161.54 227.627 164.227 227.627 167.54H231.627ZM231.627 173.339V167.54H227.627V173.339H231.627ZM227.515 178.28L231.042 174.753L228.213 171.924L224.686 175.451L227.515 178.28ZM227.515 181.108C226.734 180.327 226.734 179.061 227.515 178.28L224.686 175.451C222.343 177.794 222.343 181.593 224.686 183.937L227.515 181.108ZM231.042 184.635L227.515 181.108L224.686 183.937L228.213 187.464L231.042 184.635ZM231.627 191.847V186.049H227.627V191.847H231.627ZM233.627 193.847C232.523 193.847 231.627 192.951 231.627 191.847H227.627C227.627 195.161 230.314 197.847 233.627 197.847V193.847ZM239.425 193.847H233.627V197.847H239.425V193.847ZM244.366 197.96L240.839 194.433L238.011 197.261L241.538 200.788L244.366 197.96ZM247.195 197.96C246.414 198.741 245.147 198.741 244.366 197.96L241.538 200.788C243.881 203.131 247.68 203.131 250.023 200.788L247.195 197.96ZM250.722 194.433L247.195 197.96L250.023 200.788L253.551 197.261L250.722 194.433ZM257.934 193.847H252.136V197.847H257.934V193.847ZM259.934 191.847C259.934 192.951 259.038 193.847 257.934 193.847V197.847C261.248 197.847 263.934 195.161 263.934 191.847H259.934ZM259.934 186.049V191.847H263.934V186.049H259.934ZM264.047 181.108L260.52 184.635L263.348 187.464L266.875 183.937L264.047 181.108ZM264.047 178.28C264.828 179.061 264.828 180.327 264.047 181.108L266.875 183.937C269.218 181.593 269.218 177.794 266.875 175.451L264.047 178.28ZM260.52 174.753L264.047 178.28L266.875 175.451L263.348 171.924L260.52 174.753ZM259.934 167.54V173.339H263.934V167.54H259.934ZM257.934 165.54C259.038 165.54 259.934 166.436 259.934 167.54H263.934C263.934 164.227 261.248 161.54 257.934 161.54V165.54ZM252.136 165.54H257.934V161.54H252.136V165.54ZM247.195 161.428L250.722 164.955L253.55 162.126L250.023 158.6L247.195 161.428Z" fill="#003682"/>
<path d="M245.901 191.526C252.369 191.526 257.612 186.283 257.612 179.815C257.612 173.347 252.369 168.104 245.901 168.104C239.433 168.104 234.19 173.347 234.19 179.815C234.19 186.283 239.433 191.526 245.901 191.526Z" stroke="#003682" stroke-width="2"/>
</g>
<mask id="mask4_1002_22091" style="mask-type:alpha" maskUnits="userSpaceOnUse" x="308" y="264" width="20" height="18">
<path d="M326.454 264.455H309.545C308.993 264.455 308.545 264.903 308.545 265.455V280.001C308.545 280.553 308.993 281.001 309.545 281.001H326.454C327.006 281.001 327.454 280.553 327.454 280.001V265.455C327.454 264.903 327.006 264.455 326.454 264.455Z" fill="white"/>
</mask>
<g mask="url(#mask4_1002_22091)">
<path d="M326.454 264.455H309.545C308.993 264.455 308.545 264.903 308.545 265.455V280.001C308.545 280.553 308.993 281.001 309.545 281.001H326.454C327.006 281.001 327.454 280.553 327.454 280.001V265.455C327.454 264.903 327.006 264.455 326.454 264.455Z" stroke="#2E527C" stroke-width="4"/>
<path fill-rule="evenodd" clip-rule="evenodd" d="M318.591 272.626C319.279 272.383 319.773 271.726 319.773 270.954C319.773 269.975 318.979 269.182 318 269.182C317.021 269.182 316.227 269.975 316.227 270.954C316.227 271.726 316.721 272.383 317.409 272.626V276.273H318.591V272.626Z" fill="#2E527C"/>
</g>
<path d="M253.5 195L262.788 207.538C263.052 207.895 262.755 208.394 262.315 208.331L256.5 207.5L254.822 213.794C254.705 214.23 254.117 214.301 253.9 213.906L246 199.5L250.5 196L253.5 195Z" stroke="#003682" stroke-width="2"/>
<path d="M240 195L245.5 200L236.987 214.662C236.783 215.013 236.267 214.988 236.099 214.618L234 210L228.066 211.272C227.647 211.361 227.317 210.919 227.522 210.543L236 195H240Z" stroke="#003682" stroke-width="2"/>
</g>
</g>
<defs>
<clipPath id="clip0_1002_22091">
<rect width="390" height="350" fill="white"/>
</clipPath>
</defs>
</svg>
