<svg width="390" height="350" viewBox="0 0 390 350" fill="none" xmlns="http://www.w3.org/2000/svg">
<g clip-path="url(#clip0_1002_22197)">
<mask id="mask0_1002_22197" style="mask-type:alpha" maskUnits="userSpaceOnUse" x="0" y="0" width="390" height="350">
<path d="M390 0H0V350H390V0Z" fill="#D9D9D9"/>
</mask>
<g mask="url(#mask0_1002_22197)">
<path d="M17 105H60" stroke="#2E527C" stroke-width="2"/>
<path d="M296 291H339" stroke="#2E527C" stroke-width="2"/>
<path d="M48 126H91" stroke="#2E527C" stroke-width="2"/>
<path d="M344 291H357" stroke="#2E527C" stroke-width="2"/>
<path d="M33 255V137H283V305H87" stroke="#2E527C" stroke-width="2"/>
<path fill-rule="evenodd" clip-rule="evenodd" d="M47.3179 152.403C47.3179 153.784 46.1986 154.903 44.8179 154.903C43.4372 154.903 42.3179 153.784 42.3179 152.403C42.3179 151.023 43.4372 149.903 44.8179 149.903C46.1986 149.903 47.3179 151.023 47.3179 152.403ZM54.8178 152.403C54.8178 153.784 53.6985 154.903 52.3178 154.903C50.9371 154.903 49.8178 153.784 49.8178 152.403C49.8178 151.023 50.9371 149.903 52.3178 149.903C53.6985 149.903 54.8178 151.023 54.8178 152.403ZM59.8178 154.903C61.1985 154.903 62.3178 153.784 62.3178 152.403C62.3178 151.023 61.1985 149.903 59.8178 149.903C58.4371 149.903 57.3178 151.023 57.3178 152.403C57.3178 153.784 58.4371 154.903 59.8178 154.903Z" fill="#2E527C"/>
<path fill-rule="evenodd" clip-rule="evenodd" d="M108 61.5C108 62.8807 106.881 64 105.5 64C104.119 64 103 62.8807 103 61.5C103 60.1193 104.119 59 105.5 59C106.881 59 108 60.1193 108 61.5ZM115.5 61.5C115.5 62.8807 114.381 64 113 64C111.619 64 110.5 62.8807 110.5 61.5C110.5 60.1193 111.619 59 113 59C114.381 59 115.5 60.1193 115.5 61.5ZM120.5 64C121.881 64 123 62.8807 123 61.5C123 60.1193 121.881 59 120.5 59C119.119 59 118 60.1193 118 61.5C118 62.8807 119.119 64 120.5 64Z" fill="#2E527C"/>
<path d="M283 137H33V168H283V137Z" stroke="#2E527C" stroke-width="2"/>
<path d="M342 237V256" stroke="#2E527C" stroke-width="2"/>
<path d="M329.898 232.102L316.544 245.455" stroke="#2E527C" stroke-width="2"/>
<path d="M325 220H306" stroke="#2E527C" stroke-width="2"/>
<path d="M329.898 207.898L316.544 194.545" stroke="#2E527C" stroke-width="2"/>
<path d="M342 184V203" stroke="#2E527C" stroke-width="2"/>
<path d="M367.456 194.544L354.102 207.898" stroke="#2E527C" stroke-width="2"/>
<path d="M378 220H359" stroke="#2E527C" stroke-width="2"/>
<path d="M367.456 245.456L354.102 232.102" stroke="#2E527C" stroke-width="2"/>
<path d="M302.627 42.5775L338 22.1548L373.373 42.5775V83.4227L338 103.845L302.627 83.4227V42.5775Z" stroke="#2E527C" stroke-width="2"/>
<path fill-rule="evenodd" clip-rule="evenodd" d="M302.627 45H92H91V46V77V78H92H302.627V76H93V47H302.627V45Z" fill="#2E527C"/>
<path fill-rule="evenodd" clip-rule="evenodd" d="M302.627 45H92H91V46V136.5H93V47H302.627V45ZM341 102.113V213H282.5V215H342H343V214V100.958L341 102.113Z" fill="#2E527C"/>
<path d="M356.512 57.5015L356.544 57.9842L356.943 58.2588C358.227 59.1443 359.33 60.2667 360.192 61.5655C361.412 63.4731 362.04 65.698 361.998 67.9609V67.9728V67.9846C362.006 69.57 361.695 71.1409 361.083 72.6039C360.444 74.0631 359.523 75.3815 358.371 76.4827L358.364 76.4892L358.357 76.4959C357.232 77.6125 355.898 78.4967 354.43 79.0976C352.962 79.6985 351.39 80.0044 349.804 79.9977H349.799H325.904H325.893L325.883 79.9979C324.47 80.027 323.065 79.7765 321.749 79.2611C320.433 78.7456 319.232 77.9753 318.216 76.9946L318.208 76.9873C317.182 76.0184 316.368 74.8485 315.817 73.5509C315.265 72.2533 314.988 70.856 315.002 69.4465V69.4322V69.4179C314.956 66.9488 315.81 64.547 317.405 62.6592L317.41 62.6537L317.415 62.648C318.201 61.6893 319.147 60.8732 320.212 60.2358L320.763 59.9055L320.692 59.2667C320.559 58.0779 320.699 56.8744 321.101 55.7476C321.503 54.6207 322.157 53.6 323.014 52.763L323.015 52.7615C323.764 52.0263 324.651 51.4462 325.626 51.0548C326.6 50.6634 327.643 50.4685 328.693 50.4812L328.701 50.4813L328.709 50.4812C329.407 50.4784 330.103 50.5618 330.781 50.7295L331.415 50.8863L331.813 50.3689C332.738 49.1674 333.855 48.1254 335.118 47.2845L335.119 47.2834C337.376 45.7743 340.036 44.9789 342.752 45.0011L342.762 45.0012L342.772 45.0011C344.563 44.9811 346.342 45.3091 348.008 45.967C349.691 46.6832 351.213 47.7294 352.485 49.0435L352.498 49.0578L352.513 49.0716C353.791 50.2921 354.816 51.7529 355.527 53.3698C356.085 54.6822 356.418 56.0788 356.512 57.5015Z" stroke="#2E527C" stroke-width="2"/>
<path d="M16.627 263.577L52.0001 243.155L87.3732 263.577V304.423L52.0001 324.845L16.627 304.423V263.577Z" stroke="#2E527C" stroke-width="2"/>
<mask id="mask1_1002_22197" style="mask-type:alpha" maskUnits="userSpaceOnUse" x="32" y="265" width="41" height="42">
<path d="M51.6545 301.483C51.2022 301.319 50.791 301.483 50.5854 301.975L49.4752 304.68C49.2285 305.213 49.6397 305.787 50.092 305.787C50.5854 305.787 50.8321 305.623 50.9966 305.254C51.4078 304.393 51.7779 303.491 52.1068 302.589C52.2713 302.098 52.0657 301.647 51.6545 301.483ZM70.3222 291.358C70.281 290.866 69.911 290.538 69.4176 290.579C68.9653 290.62 68.6774 290.948 68.6774 291.44C68.7185 292.792 68.6363 294.104 68.5952 295.457C68.5952 296.072 68.883 296.4 69.3764 296.441C69.8699 296.441 70.2399 296.113 70.2399 295.498C70.2399 294.596 70.3633 293.653 70.3222 292.792C70.3633 292.219 70.3633 291.809 70.3222 291.358ZM42.773 296.523C42.3207 296.4 41.9095 296.646 41.745 297.097C41.6628 297.301 41.6217 297.547 41.5394 297.752C41.1694 298.859 40.7171 299.884 40.2236 300.909C39.9358 301.524 40.2648 302.139 40.9226 302.139C41.2927 302.18 41.5394 301.934 41.7039 301.606C42.3618 300.294 42.9374 298.941 43.3075 297.547C43.4309 297.097 43.2253 296.646 42.773 296.523ZM56.3831 294.637C55.9308 294.596 55.5607 294.883 55.4785 295.375C55.1907 297.424 54.7795 299.433 54.2038 301.401C53.8749 302.548 53.4637 303.696 53.0525 304.844C52.888 305.254 53.0114 305.664 53.3815 305.869C53.7515 306.074 54.0805 306.033 54.3683 305.787C54.5328 305.623 54.615 305.418 54.6972 305.172C55.1907 303.86 55.643 302.589 55.9719 301.237C56.4653 299.392 56.8765 297.506 57.1232 295.539C57.1232 295.088 56.8354 294.678 56.3831 294.637ZM34.3849 280.29C34.5493 279.757 34.3026 279.306 33.8092 279.142C33.3569 279.019 32.9457 279.306 32.7812 279.798C32.2467 281.684 32 283.569 32 285.619C32 286.193 32 286.931 32.0822 287.627C32.2467 289.103 32.5345 290.538 33.028 291.973C33.1513 292.301 33.3569 292.505 33.727 292.505C34.426 292.546 34.7549 292.014 34.5493 291.276C33.398 287.627 33.3158 283.979 34.3849 280.29ZM53.9982 291.85C54.0394 291.071 53.9571 290.169 53.8749 289.226C53.7515 287.914 53.5871 286.644 53.2992 285.373C53.1759 284.881 52.7647 284.635 52.3535 284.717C51.8601 284.84 51.6134 285.25 51.7367 285.742C52.0657 287.3 52.2713 288.898 52.3535 290.538C52.4769 293.325 52.2713 296.113 51.5723 298.818C51.4489 299.351 51.6545 299.802 52.1068 299.925C52.6002 300.048 53.0114 299.761 53.1759 299.187C53.7515 296.81 54.0394 294.432 53.9982 291.85ZM62.6331 282.135C62.4686 281.684 62.0574 281.479 61.6051 281.602C61.1528 281.725 60.9472 282.135 61.0706 282.626C61.7285 285.086 61.9752 287.627 62.1396 290.21C62.3452 294.432 61.8929 298.531 60.8239 302.63C60.7005 303.163 60.9061 303.655 61.3584 303.737C61.8929 303.86 62.3041 303.614 62.4275 303.04C63.3321 299.515 63.8666 295.908 63.8255 292.137C63.8666 289.841 63.661 287.422 63.2909 285.045C63.1265 284.02 62.962 283.036 62.6331 282.135ZM35.5773 277.175C36.3585 275.576 37.3865 274.1 38.62 272.788C42.2795 268.894 46.7614 266.845 52.1479 266.681C52.7647 266.681 53.1347 266.353 53.1347 265.82C53.1347 265.287 52.7647 265 52.1068 265C48.7351 265.082 45.5279 265.902 42.5674 267.541C38.8667 269.591 36.0707 272.542 34.1381 276.314C34.0559 276.519 33.9737 276.683 33.9737 276.888C33.9326 277.216 34.097 277.461 34.3849 277.625C34.8372 277.871 35.3306 277.707 35.5773 277.175ZM46.9259 287.013C46.597 285.045 46.8437 283.282 48.2006 281.725C48.2828 281.602 48.365 281.479 48.365 281.356C48.4062 280.946 48.3239 280.618 47.9127 280.454C47.5016 280.249 47.1726 280.372 46.8848 280.7C45.4045 282.421 44.87 284.43 45.1989 286.685C45.4868 288.447 45.6512 290.169 45.6924 291.85C45.6924 293.612 45.569 295.293 45.1989 296.892C44.7878 298.859 44.0476 300.704 43.143 302.507C43.0197 302.712 42.8963 302.958 42.9374 303.204C43.0197 303.573 43.1841 303.819 43.5542 303.901C44.0065 303.983 44.2943 303.819 44.541 303.409C45.8157 300.95 46.7203 298.367 47.0904 295.58C47.4604 292.71 47.4193 289.841 46.9259 287.013ZM37.3454 289.308C37.0575 287.463 36.8108 285.66 37.0575 283.774C37.3042 281.438 38.0855 279.265 39.319 277.257C40.4292 275.453 41.8684 273.977 43.5953 272.747C44.0065 272.46 44.1299 272.092 44.0065 271.723C43.8009 271.149 43.2253 271.026 42.6496 271.395C41.3338 272.297 40.1825 273.362 39.1957 274.592C36.7286 277.625 35.4539 281.11 35.3306 285.045C35.2483 287.054 35.7829 289.021 35.9062 290.989C35.9885 292.301 36.0296 293.612 35.6184 294.924C35.495 295.334 35.3717 295.785 35.2483 296.113C35.2483 296.646 35.5773 297.015 36.0707 297.015C36.5641 297.015 36.7697 296.728 36.9342 296.318C37.7977 294.063 37.6743 291.686 37.3454 289.308ZM72.7481 282.094C71.1034 273.895 66.2926 268.484 58.3156 265.861C57.4522 265.574 56.5476 265.369 55.6018 265.287C55.1084 265.246 54.7795 265.492 54.7384 265.943C54.6561 266.435 54.9028 266.804 55.3962 266.886C55.5607 266.927 55.7252 266.927 55.8486 266.968C60.0426 267.746 63.5788 269.714 66.457 272.87C68.0607 274.633 69.2942 276.601 70.1166 278.814C70.8567 280.782 71.2679 282.831 71.3501 284.922C71.3912 285.537 71.8435 285.906 72.4192 285.742C72.8304 285.619 73.036 285.291 72.9948 284.635C72.9948 283.815 72.9537 282.954 72.7481 282.094ZM61.8929 275.207C61.0706 274.469 60.2071 273.813 59.2202 273.321C58.7679 273.075 58.3156 273.239 58.1101 273.608C57.8633 274.018 57.9867 274.469 58.439 274.756C58.5212 274.838 58.6446 274.879 58.7268 274.92C61.4817 276.601 63.4143 278.937 64.3189 282.053C65.1413 285.045 65.3469 288.119 65.4291 291.194C65.5113 294.104 65.3057 297.015 64.8123 299.884C64.7301 300.499 64.9768 300.868 65.4702 300.95C66.0047 301.032 66.3748 300.745 66.457 300.13C66.8682 297.588 67.1149 295.006 67.0738 292.792C67.0738 289.472 66.8271 286.562 66.3748 283.692C65.8403 280.331 64.4011 277.502 61.8929 275.207ZM55.0673 278.568C53.4226 277.953 51.7779 277.994 50.092 278.527C49.393 278.732 49.1874 279.47 49.6397 279.921C49.9686 280.249 50.2976 280.208 50.6677 280.085C54.0805 278.978 57.4933 281.028 58.1512 284.512C58.439 286.029 58.6446 287.545 58.7679 289.062C58.9735 291.276 58.9324 293.53 58.7268 295.744C58.439 298.613 57.7811 301.401 56.8765 304.147C56.8354 304.311 56.7532 304.434 56.7943 304.598C56.8765 304.967 57.0821 305.254 57.5344 305.295C57.9867 305.336 58.2745 305.131 58.439 304.68C59.837 300.622 60.5771 296.482 60.5771 292.341C60.5771 289.636 60.3304 287.095 59.8781 284.553C59.3436 281.643 57.7811 279.593 55.0673 278.568ZM43.6776 283.569C44.6233 278.937 49.5163 275.699 54.2038 276.642C56.342 277.093 58.1101 278.117 59.5081 279.757C59.6314 279.921 59.7959 280.085 59.9604 280.208C60.2893 280.372 60.7005 280.249 60.9472 279.962C61.235 279.593 61.1939 279.224 60.865 278.773C58.9735 276.478 56.5476 275.125 53.5459 274.879C49.7219 274.551 46.5558 275.904 44.1299 278.896C42.2384 281.233 41.5394 283.979 41.9506 286.931C42.1562 288.324 42.4029 289.677 42.4029 291.071C42.4029 292.055 42.4029 293.038 42.3207 293.981C42.2795 294.432 42.6085 294.801 43.0608 294.842C43.5131 294.883 43.9243 294.596 43.9654 294.145C44.1299 292.341 44.1299 290.538 43.9243 288.734C43.8009 287.627 43.4309 286.562 43.5131 285.537C43.5131 284.84 43.5542 284.225 43.6776 283.569ZM69.3764 288.939C69.8287 288.939 70.1577 288.529 70.1577 288.037V287.75C69.9932 286.193 69.8287 284.635 69.582 283.077C69.0475 279.634 67.6906 276.601 65.3469 274.059C61.934 270.247 57.6166 268.361 52.4769 268.32C50.1742 268.32 47.9539 268.771 45.8157 269.673C45.3223 269.878 45.1167 270.329 45.2812 270.78C45.4868 271.231 45.9391 271.395 46.4325 271.19C48.8585 270.206 51.3667 269.796 53.9571 270.042C57.5344 270.37 60.5771 271.805 63.1676 274.223C65.8814 276.806 67.4439 279.962 67.9784 283.692C68.184 285.168 68.3485 286.644 68.4718 288.119C68.5952 288.611 68.9241 288.939 69.3764 288.939ZM50.1742 286.275C50.092 285.783 50.0098 285.291 50.1742 284.799C50.5032 283.692 51.49 282.995 52.7236 283.077C53.8338 283.118 54.7384 283.938 54.9851 285.168C55.4374 287.463 55.643 289.8 55.6841 292.137C55.6841 292.669 56.013 293.038 56.5064 293.038C56.9999 293.038 57.2877 292.669 57.3288 292.178V291.44H57.3699C57.2877 290.374 57.2466 289.308 57.1232 288.242C56.9999 287.177 56.8354 286.111 56.6709 285.045C56.342 282.79 54.3683 281.192 52.0246 281.438C49.8864 281.684 48.1594 283.815 48.4884 285.906C48.6529 287.177 48.8585 288.447 48.9818 289.718C49.2285 293.284 48.8996 296.769 47.7483 300.171C47.296 301.442 46.8025 302.671 46.1858 303.86C46.0213 304.147 46.0213 304.475 46.2269 304.762C46.4325 305.049 46.6792 305.131 47.0081 305.09C47.3782 305.049 47.5838 304.803 47.7483 304.475C50.5854 298.695 51.2433 292.628 50.1742 286.275ZM40.5115 288.529C40.3059 287.136 40.1003 285.701 40.2236 284.307C40.5937 280.987 42.0328 278.24 44.5822 276.109C46.7203 274.305 49.1874 273.403 51.9834 273.28C53.1348 273.239 54.2449 273.321 55.3551 273.608C55.5196 273.649 55.6841 273.69 55.8486 273.649C56.2597 273.567 56.4653 273.321 56.5064 272.911C56.5476 272.501 56.3008 272.174 55.8897 272.051C54.7795 271.764 53.6282 271.6 52.4357 271.641C51.6134 271.6 50.7499 271.682 49.8864 271.887C45.7335 272.665 42.5674 274.92 40.3881 278.568C38.8256 281.233 38.2911 284.102 38.6611 287.136C38.7845 288.283 39.0312 289.39 39.1134 290.538C39.2779 293.366 38.9079 296.113 37.6332 298.654C37.551 298.818 37.4687 298.982 37.5098 299.187C37.5921 299.597 37.7977 299.843 38.2088 299.884C38.62 299.925 38.9079 299.72 39.1134 299.351C40.8404 295.949 41.0871 292.26 40.5115 288.529Z" fill="white"/>
</mask>
<g mask="url(#mask1_1002_22197)">
<path d="M51.6545 301.483C51.2022 301.319 50.791 301.483 50.5854 301.975L49.4752 304.68C49.2285 305.213 49.6397 305.787 50.092 305.787C50.5854 305.787 50.8321 305.623 50.9966 305.254C51.4078 304.393 51.7779 303.491 52.1068 302.589C52.2713 302.098 52.0657 301.647 51.6545 301.483ZM70.3222 291.358C70.281 290.866 69.911 290.538 69.4176 290.579C68.9653 290.62 68.6774 290.948 68.6774 291.44C68.7185 292.792 68.6363 294.104 68.5952 295.457C68.5952 296.072 68.883 296.4 69.3764 296.441C69.8699 296.441 70.2399 296.113 70.2399 295.498C70.2399 294.596 70.3633 293.653 70.3222 292.792C70.3633 292.219 70.3633 291.809 70.3222 291.358ZM42.773 296.523C42.3207 296.4 41.9095 296.646 41.745 297.097C41.6628 297.301 41.6217 297.547 41.5394 297.752C41.1694 298.859 40.7171 299.884 40.2236 300.909C39.9358 301.524 40.2648 302.139 40.9226 302.139C41.2927 302.18 41.5394 301.934 41.7039 301.606C42.3618 300.294 42.9374 298.941 43.3075 297.547C43.4309 297.097 43.2253 296.646 42.773 296.523ZM56.3831 294.637C55.9308 294.596 55.5607 294.883 55.4785 295.375C55.1907 297.424 54.7795 299.433 54.2038 301.401C53.8749 302.548 53.4637 303.696 53.0525 304.844C52.888 305.254 53.0114 305.664 53.3815 305.869C53.7515 306.074 54.0805 306.033 54.3683 305.787C54.5328 305.623 54.615 305.418 54.6972 305.172C55.1907 303.86 55.643 302.589 55.9719 301.237C56.4653 299.392 56.8765 297.506 57.1232 295.539C57.1232 295.088 56.8354 294.678 56.3831 294.637ZM34.3849 280.29C34.5493 279.757 34.3026 279.306 33.8092 279.142C33.3569 279.019 32.9457 279.306 32.7812 279.798C32.2467 281.684 32 283.569 32 285.619C32 286.193 32 286.931 32.0822 287.627C32.2467 289.103 32.5345 290.538 33.028 291.973C33.1513 292.301 33.3569 292.505 33.727 292.505C34.426 292.546 34.7549 292.014 34.5493 291.276C33.398 287.627 33.3158 283.979 34.3849 280.29ZM53.9982 291.85C54.0394 291.071 53.9571 290.169 53.8749 289.226C53.7515 287.914 53.5871 286.644 53.2992 285.373C53.1759 284.881 52.7647 284.635 52.3535 284.717C51.8601 284.84 51.6134 285.25 51.7367 285.742C52.0657 287.3 52.2713 288.898 52.3535 290.538C52.4769 293.325 52.2713 296.113 51.5723 298.818C51.4489 299.351 51.6545 299.802 52.1068 299.925C52.6002 300.048 53.0114 299.761 53.1759 299.187C53.7515 296.81 54.0394 294.432 53.9982 291.85ZM62.6331 282.135C62.4686 281.684 62.0574 281.479 61.6051 281.602C61.1528 281.725 60.9472 282.135 61.0706 282.626C61.7285 285.086 61.9752 287.627 62.1396 290.21C62.3452 294.432 61.8929 298.531 60.8239 302.63C60.7005 303.163 60.9061 303.655 61.3584 303.737C61.8929 303.86 62.3041 303.614 62.4275 303.04C63.3321 299.515 63.8666 295.908 63.8255 292.137C63.8666 289.841 63.661 287.422 63.2909 285.045C63.1265 284.02 62.962 283.036 62.6331 282.135ZM35.5773 277.175C36.3585 275.576 37.3865 274.1 38.62 272.788C42.2795 268.894 46.7614 266.845 52.1479 266.681C52.7647 266.681 53.1347 266.353 53.1347 265.82C53.1347 265.287 52.7647 265 52.1068 265C48.7351 265.082 45.5279 265.902 42.5674 267.541C38.8667 269.591 36.0707 272.542 34.1381 276.314C34.0559 276.519 33.9737 276.683 33.9737 276.888C33.9326 277.216 34.097 277.461 34.3849 277.625C34.8372 277.871 35.3306 277.707 35.5773 277.175ZM46.9259 287.013C46.597 285.045 46.8437 283.282 48.2006 281.725C48.2828 281.602 48.365 281.479 48.365 281.356C48.4062 280.946 48.3239 280.618 47.9127 280.454C47.5016 280.249 47.1726 280.372 46.8848 280.7C45.4045 282.421 44.87 284.43 45.1989 286.685C45.4868 288.447 45.6512 290.169 45.6924 291.85C45.6924 293.612 45.569 295.293 45.1989 296.892C44.7878 298.859 44.0476 300.704 43.143 302.507C43.0197 302.712 42.8963 302.958 42.9374 303.204C43.0197 303.573 43.1841 303.819 43.5542 303.901C44.0065 303.983 44.2943 303.819 44.541 303.409C45.8157 300.95 46.7203 298.367 47.0904 295.58C47.4604 292.71 47.4193 289.841 46.9259 287.013ZM37.3454 289.308C37.0575 287.463 36.8108 285.66 37.0575 283.774C37.3042 281.438 38.0855 279.265 39.319 277.257C40.4292 275.453 41.8684 273.977 43.5953 272.747C44.0065 272.46 44.1299 272.092 44.0065 271.723C43.8009 271.149 43.2253 271.026 42.6496 271.395C41.3338 272.297 40.1825 273.362 39.1957 274.592C36.7286 277.625 35.4539 281.11 35.3306 285.045C35.2483 287.054 35.7829 289.021 35.9062 290.989C35.9885 292.301 36.0296 293.612 35.6184 294.924C35.495 295.334 35.3717 295.785 35.2483 296.113C35.2483 296.646 35.5773 297.015 36.0707 297.015C36.5641 297.015 36.7697 296.728 36.9342 296.318C37.7977 294.063 37.6743 291.686 37.3454 289.308ZM72.7481 282.094C71.1034 273.895 66.2926 268.484 58.3156 265.861C57.4522 265.574 56.5476 265.369 55.6018 265.287C55.1084 265.246 54.7795 265.492 54.7384 265.943C54.6561 266.435 54.9028 266.804 55.3962 266.886C55.5607 266.927 55.7252 266.927 55.8486 266.968C60.0426 267.746 63.5788 269.714 66.457 272.87C68.0607 274.633 69.2942 276.601 70.1166 278.814C70.8567 280.782 71.2679 282.831 71.3501 284.922C71.3912 285.537 71.8435 285.906 72.4192 285.742C72.8304 285.619 73.036 285.291 72.9948 284.635C72.9948 283.815 72.9537 282.954 72.7481 282.094ZM61.8929 275.207C61.0706 274.469 60.2071 273.813 59.2202 273.321C58.7679 273.075 58.3156 273.239 58.1101 273.608C57.8633 274.018 57.9867 274.469 58.439 274.756C58.5212 274.838 58.6446 274.879 58.7268 274.92C61.4817 276.601 63.4143 278.937 64.3189 282.053C65.1413 285.045 65.3469 288.119 65.4291 291.194C65.5113 294.104 65.3057 297.015 64.8123 299.884C64.7301 300.499 64.9768 300.868 65.4702 300.95C66.0047 301.032 66.3748 300.745 66.457 300.13C66.8682 297.588 67.1149 295.006 67.0738 292.792C67.0738 289.472 66.8271 286.562 66.3748 283.692C65.8403 280.331 64.4011 277.502 61.8929 275.207ZM55.0673 278.568C53.4226 277.953 51.7779 277.994 50.092 278.527C49.393 278.732 49.1874 279.47 49.6397 279.921C49.9686 280.249 50.2976 280.208 50.6677 280.085C54.0805 278.978 57.4933 281.028 58.1512 284.512C58.439 286.029 58.6446 287.545 58.7679 289.062C58.9735 291.276 58.9324 293.53 58.7268 295.744C58.439 298.613 57.7811 301.401 56.8765 304.147C56.8354 304.311 56.7532 304.434 56.7943 304.598C56.8765 304.967 57.0821 305.254 57.5344 305.295C57.9867 305.336 58.2745 305.131 58.439 304.68C59.837 300.622 60.5771 296.482 60.5771 292.341C60.5771 289.636 60.3304 287.095 59.8781 284.553C59.3436 281.643 57.7811 279.593 55.0673 278.568ZM43.6776 283.569C44.6233 278.937 49.5163 275.699 54.2038 276.642C56.342 277.093 58.1101 278.117 59.5081 279.757C59.6314 279.921 59.7959 280.085 59.9604 280.208C60.2893 280.372 60.7005 280.249 60.9472 279.962C61.235 279.593 61.1939 279.224 60.865 278.773C58.9735 276.478 56.5476 275.125 53.5459 274.879C49.7219 274.551 46.5558 275.904 44.1299 278.896C42.2384 281.233 41.5394 283.979 41.9506 286.931C42.1562 288.324 42.4029 289.677 42.4029 291.071C42.4029 292.055 42.4029 293.038 42.3207 293.981C42.2795 294.432 42.6085 294.801 43.0608 294.842C43.5131 294.883 43.9243 294.596 43.9654 294.145C44.1299 292.341 44.1299 290.538 43.9243 288.734C43.8009 287.627 43.4309 286.562 43.5131 285.537C43.5131 284.84 43.5542 284.225 43.6776 283.569ZM69.3764 288.939C69.8287 288.939 70.1577 288.529 70.1577 288.037V287.75C69.9932 286.193 69.8287 284.635 69.582 283.077C69.0475 279.634 67.6906 276.601 65.3469 274.059C61.934 270.247 57.6166 268.361 52.4769 268.32C50.1742 268.32 47.9539 268.771 45.8157 269.673C45.3223 269.878 45.1167 270.329 45.2812 270.78C45.4868 271.231 45.9391 271.395 46.4325 271.19C48.8585 270.206 51.3667 269.796 53.9571 270.042C57.5344 270.37 60.5771 271.805 63.1676 274.223C65.8814 276.806 67.4439 279.962 67.9784 283.692C68.184 285.168 68.3485 286.644 68.4718 288.119C68.5952 288.611 68.9241 288.939 69.3764 288.939ZM50.1742 286.275C50.092 285.783 50.0098 285.291 50.1742 284.799C50.5032 283.692 51.49 282.995 52.7236 283.077C53.8338 283.118 54.7384 283.938 54.9851 285.168C55.4374 287.463 55.643 289.8 55.6841 292.137C55.6841 292.669 56.013 293.038 56.5064 293.038C56.9999 293.038 57.2877 292.669 57.3288 292.178V291.44H57.3699C57.2877 290.374 57.2466 289.308 57.1232 288.242C56.9999 287.177 56.8354 286.111 56.6709 285.045C56.342 282.79 54.3683 281.192 52.0246 281.438C49.8864 281.684 48.1594 283.815 48.4884 285.906C48.6529 287.177 48.8585 288.447 48.9818 289.718C49.2285 293.284 48.8996 296.769 47.7483 300.171C47.296 301.442 46.8025 302.671 46.1858 303.86C46.0213 304.147 46.0213 304.475 46.2269 304.762C46.4325 305.049 46.6792 305.131 47.0081 305.09C47.3782 305.049 47.5838 304.803 47.7483 304.475C50.5854 298.695 51.2433 292.628 50.1742 286.275ZM40.5115 288.529C40.3059 287.136 40.1003 285.701 40.2236 284.307C40.5937 280.987 42.0328 278.24 44.5822 276.109C46.7203 274.305 49.1874 273.403 51.9834 273.28C53.1348 273.239 54.2449 273.321 55.3551 273.608C55.5196 273.649 55.6841 273.69 55.8486 273.649C56.2597 273.567 56.4653 273.321 56.5064 272.911C56.5476 272.501 56.3008 272.174 55.8897 272.051C54.7795 271.764 53.6282 271.6 52.4357 271.641C51.6134 271.6 50.7499 271.682 49.8864 271.887C45.7335 272.665 42.5674 274.92 40.3881 278.568C38.8256 281.233 38.2911 284.102 38.6611 287.136C38.7845 288.283 39.0312 289.39 39.1134 290.538C39.2779 293.366 38.9079 296.113 37.6332 298.654C37.551 298.818 37.4687 298.982 37.5098 299.187C37.5921 299.597 37.7977 299.843 38.2088 299.884C38.62 299.925 38.9079 299.72 39.1134 299.351C40.8404 295.949 41.0871 292.26 40.5115 288.529Z" fill="#003682" stroke="#2E527C" stroke-width="4"/>
</g>
</g>
</g>
<defs>
<clipPath id="clip0_1002_22197">
<rect width="390" height="350" fill="white"/>
</clipPath>
</defs>
</svg>
