<svg width="56" height="56" viewBox="0 0 56 56" fill="none" xmlns="http://www.w3.org/2000/svg">
<rect width="56" height="56" rx="28" fill="#0078D7"/>
<path d="M28.0726 38.8254C22.0972 38.8254 19.3672 35.7815 19.3672 33.5489C19.3664 33.0163 19.5849 32.5069 19.9715 32.1405C20.3581 31.7741 20.8785 31.5831 21.4103 31.6124C23.9686 31.6124 23.2994 35.4499 28.0726 35.4499C30.5125 35.4499 31.9456 33.9812 31.9456 32.6014C31.9456 31.7723 31.4718 30.8247 29.861 30.4457L24.5312 29.1014C20.2495 28.0118 19.5034 25.6311 19.5034 23.4222C19.5034 18.8385 23.6962 17.1804 27.6876 17.1804C31.3652 17.1804 35.7357 19.2116 35.7357 21.9594C35.7357 23.1439 34.7467 23.7775 33.5978 23.7775C31.4126 23.7775 31.7798 20.7099 27.3856 20.7099C25.2004 20.7099 24.0515 21.7344 24.0515 23.1675C24.0515 24.6007 25.7511 25.0863 27.2435 25.412L31.1757 26.3003C35.487 27.2715 36.6358 29.8002 36.6358 32.2224C36.6358 35.9473 33.7518 38.8254 28.0666 38.8254H28.0726ZM44.5714 30.9432C44.7421 29.9654 44.8273 28.9747 44.826 27.9822C44.8469 22.9965 42.6563 18.2581 38.8446 15.0443C35.0328 11.8305 29.9924 10.4721 25.0819 11.3353C23.5726 10.4663 21.8608 10.0108 20.1193 10.0147C16.5445 10.0365 13.2494 11.9524 11.462 15.0483C9.67462 18.1443 9.66305 21.9559 11.4316 25.0626C10.4448 30.485 12.1734 36.0472 16.06 39.955C19.9466 43.8629 25.4993 45.6218 30.927 44.6646C32.4344 45.5328 34.1441 45.9883 35.8837 45.9852C39.4567 45.9622 42.7498 44.0471 44.5368 40.953C46.3238 37.859 46.337 34.0495 44.5714 30.9432Z" fill="white"/>
</svg>
