<svg width="56" height="56" viewBox="0 0 56 56" fill="none" xmlns="http://www.w3.org/2000/svg">
<rect width="56" height="56" rx="28" fill="#02B720"/>
<path d="M11.0156 44.29L13.4165 35.5718C11.9322 33.0129 11.1535 30.1149 11.1616 27.1523C11.1616 17.869 18.7535 10.3213 28.073 10.3213C32.5989 10.3213 36.849 12.073 40.0367 15.2535C43.2324 18.4341 44.9925 22.664 44.9843 27.1604C44.9843 36.4436 37.3925 43.9914 28.0649 43.9914H28.0568C25.226 43.9914 22.444 43.281 19.9701 41.941L11.0156 44.29ZM20.4 38.8977L20.911 39.2044C23.0685 40.4799 25.5424 41.1499 28.0649 41.1579H28.073C35.819 41.1579 42.1293 34.8857 42.1293 27.1684C42.1293 23.4309 40.6693 19.9194 38.017 17.2716C35.3647 14.6239 31.8284 13.1709 28.073 13.1709C20.327 13.1628 14.0167 19.4351 14.0167 27.1523C14.0167 29.792 14.7548 32.3671 16.1661 34.5951L16.4986 35.1278L15.0792 40.2861L20.4 38.8977Z" fill="white"/>
<path d="M11.6074 43.7008L13.9272 35.2813C12.4915 32.8192 11.7372 30.0181 11.7372 27.1604C11.7453 18.2 19.0695 10.9106 28.0727 10.9106C32.4445 10.9106 36.5405 12.6059 39.6227 15.6734C42.7049 18.7409 44.4 22.8255 44.4 27.1685C44.4 36.1289 37.0677 43.4183 28.0727 43.4183H28.0646C25.3312 43.4183 22.6464 42.7321 20.2618 41.4405L11.6074 43.7008Z" fill="#02B720"/>
<path d="M11.0156 44.29L13.4165 35.5718C11.9322 33.0129 11.1535 30.1149 11.1616 27.1523C11.1616 17.869 18.7535 10.3213 28.073 10.3213C32.5989 10.3213 36.849 12.073 40.0367 15.2535C43.2324 18.4341 44.9925 22.664 44.9843 27.1604C44.9843 36.4436 37.3925 43.9914 28.0649 43.9914H28.0568C25.226 43.9914 22.444 43.281 19.9701 41.941L11.0156 44.29ZM20.4 38.8977L20.911 39.2044C23.0685 40.4799 25.5424 41.1499 28.0649 41.1579H28.073C35.819 41.1579 42.1293 34.8857 42.1293 27.1684C42.1293 23.4309 40.6693 19.9194 38.017 17.2716C35.3647 14.6239 31.8284 13.1709 28.073 13.1709C20.327 13.1628 14.0167 19.4351 14.0167 27.1523C14.0167 29.792 14.7548 32.3671 16.1661 34.5951L16.4986 35.1278L15.0792 40.2861L20.4 38.8977Z" fill="url(#paint0_linear_1246_4920)"/>
<path fill-rule="evenodd" clip-rule="evenodd" d="M23.8461 20.1133C23.5298 19.411 23.1972 19.3948 22.8971 19.3867C22.6538 19.3787 22.3699 19.3787 22.086 19.3787C21.8022 19.3787 21.3479 19.4836 20.9586 19.9034C20.5693 20.3231 19.4824 21.3403 19.4824 23.4149C19.4824 25.4814 20.9992 27.4834 21.2101 27.7659C21.4209 28.0484 24.1381 32.4318 28.4288 34.1189C31.9976 35.5235 32.7276 35.241 33.4982 35.1683C34.2687 35.0957 35.9963 34.1512 36.3532 33.1664C36.702 32.1815 36.702 31.342 36.5966 31.1644C36.4911 30.9868 36.2072 30.8819 35.7855 30.672C35.3637 30.4621 33.2873 29.445 32.898 29.2997C32.5086 29.1624 32.2247 29.0898 31.949 29.5095C31.6651 29.9293 30.854 30.8738 30.6107 31.1563C30.3673 31.4389 30.1159 31.4711 29.6941 31.2613C29.2724 31.0514 27.9097 30.6074 26.2956 29.1705C25.0384 28.0565 24.1868 26.6761 23.9435 26.2564C23.7001 25.8366 23.9191 25.6106 24.13 25.4007C24.3166 25.215 24.5518 24.9083 24.7627 24.6661C24.9735 24.4239 25.0465 24.2463 25.1844 23.9638C25.3223 23.6813 25.2574 23.4391 25.152 23.2292C25.0465 23.0274 24.2192 20.9447 23.8461 20.1133Z" fill="white"/>
<defs>
<linearGradient id="paint0_linear_1246_4920" x1="28.0033" y1="44.2868" x2="28.0033" y2="10.3213" gradientUnits="userSpaceOnUse">
<stop stop-color="#F9F9F9"/>
<stop offset="1" stop-color="white"/>
</linearGradient>
</defs>
</svg>
